<?xml version="1.0" standalone="no"?>
<!DOCTYPE svg PUBLIC "-//W3C//DTD SVG 1.1//EN" "http://www.w3.org/Graphics/SVG/1.1/DTD/svg11.dtd" >
<svg xmlns="http://www.w3.org/2000/svg" xmlns:xlink="http://www.w3.org/1999/xlink" version="1.1">
<metadata>
Created by FontForge 20170731 at Tue Mar 29 04:13:22 2016
 By ,,,
Copyright (c) 2016 by Hannes von Doehren. All rights reserved.
</metadata>
<defs>
<font id="Fabrikat-HairlineItalic" horiz-adv-x="500" >
  <font-face 
    font-family="Fabrikat Hairline"
    font-weight="250"
    font-style="italic"
    font-stretch="normal"
    units-per-em="1000"
    panose-1="2 11 2 4 4 0 0 0 0 0"
    ascent="804"
    descent="-196"
    x-height="520"
    cap-height="710"
    bbox="-362 -200 906 946"
    underline-thickness="20"
    underline-position="-140"
    slope="-12"
    unicode-range="U+000D-FEFF"
  />
<missing-glyph horiz-adv-x="551" 
d="M563 770h10l-176 -830h-10zM523 770h10l-176 -830h-10zM483 770h10l-176 -830h-10zM443 770h10l-176 -830h-10zM403 770h10l-176 -830h-10zM363 770h10l-176 -830h-10zM323 770h10l-176 -830h-10zM283 770h10l-176 -830h-10zM243 770h10l-176 -830h-10zM203 770h10
l-176 -830h-10zM163 770h10l-176 -830h-10z" />
    <glyph glyph-name=".notdef" horiz-adv-x="551" 
d="M563 770h10l-176 -830h-10zM523 770h10l-176 -830h-10zM483 770h10l-176 -830h-10zM443 770h10l-176 -830h-10zM403 770h10l-176 -830h-10zM363 770h10l-176 -830h-10zM323 770h10l-176 -830h-10zM283 770h10l-176 -830h-10zM243 770h10l-176 -830h-10zM203 770h10
l-176 -830h-10zM163 770h10l-176 -830h-10z" />
    <glyph glyph-name=".null" horiz-adv-x="0" 
 />
    <glyph glyph-name="uni000D" unicode="&#xd;" horiz-adv-x="240" 
 />
    <glyph glyph-name="space" unicode=" " horiz-adv-x="240" 
 />
    <glyph glyph-name="exclam" unicode="!" horiz-adv-x="214" 
d="M192 710h21l-109 -511h-20zM84 44l-9 -44h-44l9 44h44z" />
    <glyph glyph-name="quotedbl" unicode="&#x22;" horiz-adv-x="293" 
d="M310 710h20l-44 -211h-21zM174 710h20l-44 -211h-21z" />
    <glyph glyph-name="numbersign" unicode="#" horiz-adv-x="486" 
d="M420 239h-85l-71 -239h-20l70 239h-173l-71 -239h-20l70 239h-81l6 20h81l72 241h-84l6 20h84l56 190h21l-57 -190h174l56 190h21l-57 -190h82l-6 -20h-82l-71 -241h85zM218 500l-71 -241h173l72 241h-174z" />
    <glyph glyph-name="dollar" unicode="$" horiz-adv-x="501" 
d="M441 494l9 38q16 75 -10 118t-89 49l-69 -329q155 -75 121 -224q-16 -65 -72.5 -110.5t-129.5 -45.5l-23 -110h-20l24 111q-70 6 -107.5 57t-21.5 120l11 54h21l-11 -54q-14 -65 17 -108.5t94 -49.5l74 348q-144 70 -110 213q14 65 65 107t120 42h2l23 110h21l-24 -111
q71 -8 101 -57.5t13 -129.5l-8 -38h-21zM382 146q16 72 -8.5 119t-96.5 84l-72 -339q62 2 113.5 41.5t63.5 94.5zM169 571q-15 -67 7 -113t87 -79l69 321q-58 0 -104.5 -37t-58.5 -92z" />
    <glyph glyph-name="percent" unicode="%" horiz-adv-x="554" 
d="M204 497q-46 0 -73 31t-22 78q4 46 38 77t80 31t73 -30.5t22 -77.5q-4 -46 -38 -77.5t-80 -31.5zM206 516q38 0 65.5 25.5t31.5 64.5q5 38 -17.5 63.5t-60.5 25.5t-65 -25t-32 -64q-4 -39 18 -64.5t60 -25.5zM372 -5q-46 0 -73 31t-22 78q4 46 38 77t80 31t73 -30.5
t22 -77.5q-4 -46 -38 -77.5t-80 -31.5zM373 14q38 0 65.5 25.5t31.5 64.5q5 38 -17.5 63.5t-60.5 25.5t-65 -25t-32 -64q-4 -39 18 -64.5t60 -25.5zM539 710h22l-510 -710h-22z" />
    <glyph glyph-name="ampersand" unicode="&#x26;" horiz-adv-x="541" 
d="M471 0h-24l-78 133q-48 -68 -96.5 -105.5t-108.5 -37.5q-63 0 -100 34.5t-37 91.5q0 34 11.5 64t36 58.5t46 48.5t57.5 48l48 38q-43 71 -60.5 110t-17.5 79q0 64 46 111t114 47q56 0 91 -34.5t35 -88.5q0 -40 -24.5 -79t-53 -65t-72.5 -60q-7 -5 -11 -8l-20 -16
q18 -28 47 -77l71 -122l27 43l93 150h23l-98 -158l-34 -53zM165 10q96 0 193 141l-76 130q-35 59 -45 75l-47 -36q-70 -55 -106.5 -101t-36.5 -103q0 -48 32 -77t86 -29zM168 562q0 -36 17 -73.5t58 -102.5l18 15q43 34 58 46.5t44 41.5t40 54.5t11 54.5q0 45 -29 73.5
t-77 28.5q-60 0 -100 -41t-40 -97z" />
    <glyph glyph-name="quotesingle" unicode="'" horiz-adv-x="157" 
d="M164 710h20l-44 -211h-21z" />
    <glyph glyph-name="parenleft" unicode="(" horiz-adv-x="256" 
d="M196 662l-135 -634q-9 -45 8.5 -69t59.5 -24h35l-4 -20h-34q-48 0 -72 31.5t-13 82.5l135 633q25 113 122 113h36l-4 -20h-32q-83 0 -102 -93z" />
    <glyph glyph-name="parenright" unicode=")" horiz-adv-x="257" 
d="M99 28l135 634q9 45 -8.5 69t-59.5 24h-35l4 20h34q48 0 72 -31.5t13 -82.5l-135 -633q-25 -113 -122 -113h-36l4 20h32q83 0 102 93z" />
    <glyph glyph-name="asterisk" unicode="*" horiz-adv-x="369" 
d="M287 710l-25 -114l105 59l8 -18l-107 -58l79 -53l-12 -17l-79 55l-22 -110h-21l24 110l-102 -56l-8 18l104 56l-81 55l13 17l80 -57l23 113h21z" />
    <glyph glyph-name="plus" unicode="+" horiz-adv-x="501" 
d="M306 473l-31 -143h134l-4 -20h-134l-30 -142h-20l30 142h-133l4 20h133l31 143h20z" />
    <glyph glyph-name="comma" unicode="," horiz-adv-x="163" 
d="M66 44l-8 -38l-58 -111h-21l55 105h-23l9 44h46z" />
    <glyph glyph-name="hyphen" unicode="-" horiz-adv-x="311" 
d="M71 330h199l-4 -20h-199z" />
    <glyph glyph-name="period" unicode="." horiz-adv-x="154" 
d="M61 44l-9 -44h-44l9 44h44z" />
    <glyph glyph-name="slash" unicode="/" horiz-adv-x="469" 
d="M528 775h23l-571 -860h-23z" />
    <glyph glyph-name="zero" unicode="0" horiz-adv-x="511" 
d="M344 700q-71 0 -122 -47t-68 -129l-68 -317q-20 -92 14 -144.5t109 -52.5q72 0 123 47t68 130l67 317q21 92 -13 144t-110 52zM344 720q84 0 125 -59.5t19 -156.5l-68 -317q-19 -91 -75 -144t-136 -53q-84 0 -124.5 59.5t-18.5 157.5l67 317q20 92 75.5 144t135.5 52z
" />
    <glyph glyph-name="one" unicode="1" horiz-adv-x="316" 
d="M252 20l-4 -20h-255l4 20h116l142 670h-132l5 20h152l-147 -690h119z" />
    <glyph glyph-name="two" unicode="2" horiz-adv-x="447" 
d="M360 20l-4 -20h-344l3 17l345 403q51 60 65 117q16 71 -18 117t-102 46q-63 0 -114 -46t-64 -117l-5 -24h-20l5 24q16 81 71.5 132t127.5 51q77 0 117 -54t22 -132q-14 -61 -69 -125l-332 -389h316z" />
    <glyph glyph-name="three" unicode="3" horiz-adv-x="452" 
d="M463 694l-249 -296h33q82 0 122 -56t22 -140l-6 -25q-18 -85 -72.5 -136t-131.5 -51q-83 0 -123 54.5t-24 132.5l3 12h21l-3 -12q-16 -73 18 -120t108 -47q69 0 118.5 45t65.5 122l5 25q17 78 -16.5 127t-106.5 49h-67l3 15l250 297h-296l4 20h326z" />
    <glyph glyph-name="four" unicode="4" horiz-adv-x="462" 
d="M426 202l-5 -20h-100l-39 -182h-21l39 182h-287l3 14l356 514h24l-352 -508h260l44 207h21l-44 -207h101z" />
    <glyph glyph-name="five" unicode="5" horiz-adv-x="469" 
d="M273 454q82 0 120 -57t19 -150l-15 -70q-17 -86 -72 -136.5t-132 -50.5q-85 0 -124.5 48.5t-24.5 119.5v1h21v-1q-14 -66 19.5 -107t109.5 -41q68 0 117 45t65 122l15 70q20 88 -13 137.5t-106 49.5q-66 0 -112.5 -37t-59.5 -100l-3 -12h-19l90 425h314l-4 -20h-293
l-66 -308q57 72 154 72z" />
    <glyph glyph-name="six" unicode="6" horiz-adv-x="467" 
d="M241 392q85 0 135 -57t42 -143q-10 -88 -70.5 -145t-144.5 -57q-86 0 -136.5 58t-40.5 144q7 67 50 124l304 394h25l-264 -342q44 24 100 24zM241 373q-77 0 -131.5 -51t-62.5 -130q-8 -80 35.5 -131t120.5 -51q76 0 131 51t63 131q8 79 -36 130t-120 51z" />
    <glyph glyph-name="seven" unicode="7" horiz-adv-x="418" 
d="M487 710l-4 -18l-367 -692h-23l366 690h-310l-27 -127h-21l32 147h354z" />
    <glyph glyph-name="eight" unicode="8" horiz-adv-x="522" 
d="M485 548q-7 -62 -44.5 -106.5t-94.5 -59.5q57 -22 87.5 -72.5t23.5 -116.5q-10 -88 -73 -145.5t-154 -57.5t-144 58t-43 145q8 76 57 130.5t123 68.5q-43 20 -65.5 62.5t-16.5 93.5q6 74 59 123t129 49q75 0 118.5 -49t37.5 -123zM64 193q-8 -81 39 -132t128 -51
t139 51.5t66 131.5q8 81 -39 132t-128 51t-139 -51.5t-66 -131.5zM161 549q-6 -68 32 -110.5t103 -42.5q66 0 114 43t54 110t-32 109t-104 42q-65 0 -113 -42.5t-54 -108.5z" />
    <glyph glyph-name="nine" unicode="9" horiz-adv-x="465" 
d="M268 318q-85 0 -135 57t-42 143q8 87 69.5 144.5t145.5 57.5q87 0 136 -57.5t41 -144.5q-7 -67 -50 -124l-304 -394h-25l264 341q-48 -23 -100 -23zM268 337q77 0 131.5 51t62.5 130q8 80 -35.5 131t-120.5 51q-76 0 -131 -51t-63 -131q-8 -79 36 -130t120 -51z" />
    <glyph glyph-name="colon" unicode=":" horiz-adv-x="194" 
d="M167 520l-9 -44h-44l9 44h44zM69 44l-9 -44h-44l9 44h44z" />
    <glyph glyph-name="semicolon" unicode=";" horiz-adv-x="222" 
d="M87 44l-8 -38l-58 -111h-21l55 105h-23l9 44h46zM177 520l-9 -44h-44l9 44h44z" />
    <glyph glyph-name="less" unicode="&#x3c;" horiz-adv-x="501" 
d="M117 329l302 145l-5 -25l-272 -131l217 -131l-5 -21l-241 145z" />
    <glyph glyph-name="equal" unicode="=" horiz-adv-x="501" 
d="M147 410h268l-4 -20h-268zM113 250h268l-4 -20h-268z" />
    <glyph glyph-name="greater" unicode="&#x3e;" horiz-adv-x="501" 
d="M410 311l-302 -145l5 25l272 131l-216 131l4 21l241 -145z" />
    <glyph glyph-name="question" unicode="?" horiz-adv-x="396" 
d="M187 340h16q65 0 108 38t58 102l11 50q18 81 -9 125.5t-93 44.5q-59 0 -100 -37.5t-54 -98.5l-4 -22h-21l5 24q15 70 61 112t114 42q73 0 107 -51t15 -137l-12 -54q-15 -71 -64 -114.5t-122 -43.5l-25 -121h-21zM168 44l-9 -44h-44l9 44h44z" />
    <glyph glyph-name="at" unicode="@" horiz-adv-x="749" 
d="M336 63q-69 0 -99.5 47t-13.5 125l27 129q12 64 55 104.5t104 40.5q94 0 113 -81l15 71h21l-71 -330q-7 -42 10 -64t53 -22q71 0 93 87l53 247q30 139 -34 220.5t-195 81.5q-128 0 -223 -78t-121 -204l-62 -288q-30 -138 34.5 -220t195.5 -82l-4 -20q-137 0 -206.5 89.5
t-39.5 232.5l62 288q29 136 128.5 219t236.5 83q140 0 209 -89t39 -233l-51 -239h1q-11 -54 -42 -84.5t-74 -30.5q-36 0 -58.5 19t-26.5 52q-45 -71 -129 -71zM475 209l28 133q16 69 -9 108t-84 39q-54 0 -91.5 -34.5t-48.5 -92.5l-27 -126q-17 -74 8 -113.5t84 -39.5
q55 0 92 34t48 92z" />
    <glyph glyph-name="A" unicode="A" horiz-adv-x="494" 
d="M422 0h-19l-22 221h-280l-114 -221h-23l369 710h20zM336 673l-224 -432h267z" />
    <glyph glyph-name="B" unicode="B" horiz-adv-x="528" 
d="M186 710h151q86 0 131 -52.5t27 -128.5q-30 -121 -139 -159q69 -12 102.5 -64t17.5 -122q-18 -84 -79 -134t-148 -50h-214zM320 353h-189l-71 -333h189q77 0 133 44.5t74 119.5q16 75 -21.5 122t-114.5 47zM336 690h-133l-68 -317h134q76 0 132.5 43.5t72.5 112.5
q16 72 -22 116.5t-116 44.5z" />
    <glyph glyph-name="C" unicode="C" horiz-adv-x="527" 
d="M473 224l-4 -15q-20 -99 -85 -159t-155 -60q-94 0 -139.5 67t-21.5 176l56 261q21 105 84.5 165.5t155.5 60.5q94 0 140 -59.5t28 -149.5l-2 -5h-20l1 3q18 85 -21.5 138t-125.5 53q-82 0 -141 -56t-79 -152l-55 -257q-23 -106 15.5 -165.5t124.5 -59.5q82 0 142 54
t78 146l3 14h21z" />
    <glyph glyph-name="D" unicode="D" horiz-adv-x="555" 
d="M186 710h164q103 0 154.5 -65t27.5 -172l-54 -256q-22 -100 -94.5 -158.5t-176.5 -58.5h-172zM202 690l-142 -670h148q96 0 163 53.5t87 145.5l53 252q22 103 -22 161t-139 58h-148z" />
    <glyph glyph-name="E" unicode="E" horiz-adv-x="473" 
d="M521 690h-319l-67 -317h271l-5 -20h-270l-71 -333h326l-4 -20h-347l151 710h340z" />
    <glyph glyph-name="F" unicode="F" horiz-adv-x="445" 
d="M514 690h-312l-67 -317h249l-4 -20h-249l-75 -353h-21l151 710h332z" />
    <glyph glyph-name="G" unicode="G" horiz-adv-x="550" 
d="M239 10q81 0 140 54t77 146l24 114h-193l4 20h214l-73 -344h-21l22 103q-67 -113 -195 -113q-98 0 -146 68t-25 175l56 261q21 105 84.5 165.5t155.5 60.5q94 0 140 -59.5t28 -149.5l-1 -5h-21l1 3q18 85 -21.5 138t-125.5 53q-82 0 -141 -56t-79 -152l-55 -257
q-22 -102 19.5 -163.5t131.5 -61.5z" />
    <glyph glyph-name="H" unicode="H" horiz-adv-x="567" 
d="M555 710h21l-151 -710h-21l75 353h-349l-75 -353h-21l151 710h21l-72 -337h349z" />
    <glyph glyph-name="I" unicode="I" horiz-adv-x="199" 
d="M186 710h21l-151 -710h-21z" />
    <glyph glyph-name="J" unicode="J" horiz-adv-x="465" 
d="M457 710h20l-118 -554q-16 -75 -71 -120.5t-133 -45.5t-117.5 48t-23.5 118l7 36h21l-8 -35q-14 -67 19 -107t102 -40q70 0 120 40t64 107z" />
    <glyph glyph-name="K" unicode="K" 
d="M534 710h28l-310 -307l187 -403h-21l-181 389l-125 -123l-56 -266h-21l151 710h21l-87 -410z" />
    <glyph glyph-name="L" unicode="L" horiz-adv-x="424" 
d="M207 710l-147 -690h303l-4 -20h-324l151 710h21z" />
    <glyph glyph-name="M" unicode="M" horiz-adv-x="678" 
d="M338 266l-141 399l-141 -665h-21l151 710h17l144 -411l319 411h21l-151 -710h-20l141 666l-311 -400h-8z" />
    <glyph glyph-name="N" unicode="N" horiz-adv-x="582" 
d="M591 710l-151 -710h-18l-225 668l-141 -668h-21l151 710h19l223 -667l142 667h21z" />
    <glyph glyph-name="O" unicode="O" horiz-adv-x="562" 
d="M373 720q96 0 142 -67.5t22 -175.5l-56 -264q-23 -102 -89.5 -162.5t-159.5 -60.5q-96 0 -142.5 67t-22.5 176l56 264q20 100 88.5 161.5t161.5 61.5zM372 700q-85 0 -147 -55.5t-82 -149.5l-55 -260q-23 -106 16.5 -165.5t127.5 -59.5q85 0 147 55.5t82 149.5l55 260
q23 106 -16.5 165.5t-127.5 59.5z" />
    <glyph glyph-name="P" unicode="P" horiz-adv-x="495" 
d="M186 710h173q84 0 126 -56.5t24 -143.5q-19 -89 -79.5 -141t-146.5 -52h-160l-67 -317h-21zM358 690h-155l-76 -355h156q76 0 132.5 48t72.5 127q18 80 -18 130t-112 50z" />
    <glyph glyph-name="Q" unicode="Q" horiz-adv-x="565" 
d="M537 477l-53 -252q-33 -153 -154 -205h171l-4 -20h-260q-98 0 -145 66.5t-23 176.5l54 254q20 100 87.5 161.5t159.5 61.5q96 0 142.5 -70t24.5 -173zM144 495l-54 -250q-23 -106 17.5 -165.5t129.5 -59.5q84 0 145 55.5t81 149.5l53 250q22 98 -19 161.5t-128 63.5
q-84 0 -145.5 -55.5t-79.5 -149.5z" />
    <glyph glyph-name="R" unicode="R" horiz-adv-x="532" 
d="M186 710h169q82 0 123.5 -50.5t25.5 -129.5q-16 -80 -75.5 -128.5t-140.5 -48.5h-48l237 -353h-24l-237 353h-85l-75 -353h-21zM355 690h-152l-68 -317h153q73 0 126 42.5t70 114.5q15 71 -20 115.5t-109 44.5z" />
    <glyph glyph-name="S" unicode="S" horiz-adv-x="510" 
d="M478 494l2 10q20 92 -18 144t-129 52q-68 0 -119 -39t-66 -97q-15 -66 10 -107t95 -68l70 -27q148 -57 116 -207q-16 -73 -77.5 -119t-145.5 -46q-95 0 -147 62t-34 144l5 26h21l-6 -25q-16 -79 29 -133t132 -54q75 0 132 40.5t71 104.5q15 71 -9.5 116t-97.5 74l-69 26
q-145 55 -116 193q14 67 71.5 111.5t134.5 44.5q99 0 143 -59.5t24 -156.5l-2 -10h-20z" />
    <glyph glyph-name="T" unicode="T" horiz-adv-x="442" 
d="M522 710l-4 -20h-197l-146 -690h-21l146 690h-194l4 20h412z" />
    <glyph glyph-name="U" unicode="U" horiz-adv-x="564" 
d="M556 710h20l-108 -509q-20 -96 -82.5 -153.5t-149.5 -57.5q-93 0 -137.5 63.5t-22.5 167.5l105 489h20l-104 -488q-21 -98 17.5 -155t121.5 -57q79 0 136.5 52t75.5 140z" />
    <glyph glyph-name="V" unicode="V" horiz-adv-x="490" 
d="M570 710l-369 -710h-20l-68 710h20l64 -673l350 673h23z" />
    <glyph glyph-name="W" unicode="W" horiz-adv-x="775" 
d="M851 710l-333 -710h-20l-24 665l-303 -665h-21l-33 710h20l30 -668l307 668h19l23 -667l313 667h22z" />
    <glyph glyph-name="X" unicode="X" horiz-adv-x="491" 
d="M557 710l-274 -349l136 -361h-21l-131 347l-274 -347h-26l291 368l-131 342h21l126 -329l258 329h25z" />
    <glyph glyph-name="Y" unicode="Y" horiz-adv-x="486" 
d="M575 710l-296 -330l-80 -380h-21l80 381l-152 329h22l144 -310l276 310h27z" />
    <glyph glyph-name="Z" unicode="Z" horiz-adv-x="438" 
d="M497 710l-3 -16l-485 -674h348l-5 -20h-374l4 16l484 674h-338l4 20h365z" />
    <glyph glyph-name="bracketleft" unicode="[" horiz-adv-x="266" 
d="M48 -65h122l-4 -20h-143l183 860h143l-4 -20h-123z" />
    <glyph glyph-name="backslash" unicode="\" horiz-adv-x="479" 
d="M149 775l240 -860h-20l-241 860h21z" />
    <glyph glyph-name="bracketright" unicode="]" horiz-adv-x="267" 
d="M257 755h-122l4 20h143l-183 -860h-143l4 20h123z" />
    <glyph glyph-name="asciicircum" unicode="^" horiz-adv-x="501" 
d="M360 710l91 -279h-21l-83 254l-190 -254h-25l210 279h18z" />
    <glyph glyph-name="underscore" unicode="_" horiz-adv-x="296" 
d="M-86 -149h296l-4 -20h-296z" />
    <glyph glyph-name="grave" unicode="`" horiz-adv-x="582" 
d="M35 729h25l100 -132h-25z" />
    <glyph glyph-name="a" unicode="a" horiz-adv-x="466" 
d="M424 520h20l-110 -520h-21l15 70q-52 -80 -151 -80q-76 0 -112 52.5t-18 136.5l37 173q16 82 66.5 130t121.5 48q114 0 133 -100zM347 161l38 178q17 79 -12.5 125t-97.5 46q-66 0 -111 -42.5t-60 -117.5l-36 -169q-18 -81 12 -126t100 -45q65 0 108.5 40.5t58.5 110.5z
" />
    <glyph glyph-name="b" unicode="b" horiz-adv-x="465" 
d="M44 0h-21l155 729h20l-58 -276q50 77 150 77q75 0 111.5 -53t18.5 -136l-37 -173q-17 -82 -67 -130t-121 -48q-114 0 -133 96zM120 359l-38 -178q-17 -79 12 -125t98 -46q65 0 110 42.5t61 117.5l36 169q17 81 -13 126t-99 45q-65 0 -108.5 -40.5t-58.5 -110.5z" />
    <glyph glyph-name="c" unicode="c" horiz-adv-x="437" 
d="M387 358l1 6q13 63 -16.5 104.5t-99.5 41.5q-65 0 -109.5 -42.5t-59.5 -117.5l-36 -170q-17 -80 12.5 -125t99.5 -45q65 0 109 38.5t57 102.5l2 12h20l-2 -13q-15 -72 -64 -116t-122 -44q-79 0 -115 52.5t-18 135.5l37 174q18 83 67 130.5t122 47.5q78 0 115 -49t22 -115
l-2 -8h-20z" />
    <glyph glyph-name="d" unicode="d" horiz-adv-x="466" 
d="M272 530q112 0 133 -98l63 297h20l-155 -729h-20l15 70q-50 -80 -151 -80q-76 0 -112 52.5t-18 136.5l37 173q16 82 66.5 130t121.5 48zM347 161l38 178q17 79 -12.5 125t-97.5 46q-66 0 -111 -42.5t-60 -117.5l-36 -169q-18 -81 12 -126t100 -45q65 0 108.5 40.5
t58.5 110.5z" />
    <glyph glyph-name="e" unicode="e" horiz-adv-x="451" 
d="M272 530q83 0 120.5 -53t19.5 -136l-17 -76h-311l-18 -84q-16 -73 15.5 -122t103.5 -49q67 0 111 38.5t57 103.5l2 11h21l-3 -12q-14 -73 -64 -117t-123 -44q-82 0 -119.5 55.5t-21.5 133.5l37 173q17 82 67.5 130t122.5 48zM103 350l-14 -65h289l13 54q17 81 -13.5 126
t-104.5 45q-66 0 -111 -42.5t-59 -117.5z" />
    <glyph glyph-name="f" unicode="f" horiz-adv-x="261" 
d="M296 520l-4 -20h-107l-106 -500h-21l106 500h-90l4 20h90l24 111q9 45 39.5 71.5t75.5 26.5h34l-4 -20h-30q-37 0 -62 -21.5t-33 -61.5l-23 -106h107z" />
    <glyph glyph-name="g" unicode="g" horiz-adv-x="465" 
d="M270 530q113 0 133 -97l19 87h21l-113 -530q-16 -77 -65 -122.5t-120 -45.5q-74 0 -111.5 39.5t-24.5 93.5l2 11h21l-2 -9q-12 -50 18.5 -82.5t96.5 -32.5q64 0 107 41t58 109l20 94q-50 -78 -151 -78q-75 0 -111.5 53t-18.5 135l33 156q17 83 67.5 130.5t120.5 47.5z
M350 178l34 161q18 80 -12 125.5t-99 45.5q-65 0 -110 -42.5t-60 -117.5l-33 -152q-17 -80 13 -125t99 -45q65 0 109 41t59 109z" />
    <glyph glyph-name="h" unicode="h" horiz-adv-x="463" 
d="M315 0l76 355q16 75 -11 115t-93 40q-64 0 -108.5 -41t-59.5 -114l-75 -355h-21l155 729h20l-60 -281q54 82 154 82q71 0 103.5 -47t16.5 -125l-76 -358h-21z" />
    <glyph glyph-name="i" unicode="i" horiz-adv-x="176" 
d="M154 520l-110 -520h-21l111 520h20zM204 712l-9 -44h-44l9 44h44z" />
    <glyph glyph-name="j" unicode="j" horiz-adv-x="175" 
d="M9 -70l125 590h21l-126 -592q-9 -40 -36 -65.5t-62 -25.5h-28l4 19h25q60 0 77 74zM204 712l-9 -44h-44l9 44h44z" />
    <glyph glyph-name="k" unicode="k" horiz-adv-x="401" 
d="M314 0l-139 288l-87 -79l-44 -209h-21l155 729h20l-103 -489l304 280h28l-236 -218l145 -302h-22z" />
    <glyph glyph-name="l" unicode="l" horiz-adv-x="176" 
d="M178 729h20l-154 -729h-21z" />
    <glyph glyph-name="m" unicode="m" horiz-adv-x="718" 
d="M298 0l77 364q15 71 -9.5 108.5t-86.5 37.5q-57 0 -97.5 -35t-57.5 -99l-80 -376h-21l111 520h20l-14 -65q50 75 142 75q50 0 80 -25t37 -70q48 95 154 95q69 0 100.5 -44t15.5 -119l-78 -367h-20l77 364q15 71 -9.5 108.5t-85.5 37.5q-57 0 -97.5 -34.5t-57.5 -97.5
l-2 -11l-78 -367h-20z" />
    <glyph glyph-name="n" unicode="n" horiz-adv-x="463" 
d="M315 0l76 355q16 75 -11 115t-93 40q-60 0 -103.5 -36t-60.5 -102l-79 -372h-21l111 520h20l-15 -72q54 82 153 82q71 0 103.5 -47t16.5 -125l-76 -358h-21z" />
    <glyph glyph-name="o" unicode="o" horiz-adv-x="456" 
d="M277 530q79 0 116.5 -54.5t17.5 -143.5l-35 -164q-18 -82 -68.5 -130t-126.5 -48q-79 0 -116.5 54.5t-17.5 143.5l35 164q18 82 68.5 130t126.5 48zM356 170l35 160q19 86 -11 133t-102 47q-68 0 -114 -43t-61 -117l-34 -160q-19 -86 11 -133t102 -47q68 0 113.5 43
t60.5 117z" />
    <glyph glyph-name="p" unicode="p" horiz-adv-x="465" 
d="M9 -163h-20l145 683h20l-14 -67q50 77 150 77q75 0 111.5 -53t18.5 -136l-37 -173q-17 -82 -67 -130t-121 -48q-112 0 -133 95zM120 359l-38 -178q-17 -79 12 -125t98 -46q65 0 110 42.5t61 117.5l36 169q17 81 -13 126t-99 45q-65 0 -108.5 -40.5t-58.5 -110.5z" />
    <glyph glyph-name="q" unicode="q" horiz-adv-x="465" 
d="M272 530q112 0 133 -98l19 88h21l-146 -683h-20l49 233q-50 -80 -151 -80q-76 0 -112 52.5t-18 136.5l37 173q16 82 66.5 130t121.5 48zM347 161l38 178q17 79 -12.5 125t-97.5 46q-66 0 -111 -42.5t-60 -117.5l-36 -169q-18 -81 12 -126t100 -45q65 0 108.5 40.5
t58.5 110.5z" />
    <glyph glyph-name="r" unicode="r" horiz-adv-x="282" 
d="M312 510h-24q-59 0 -105.5 -43t-64.5 -119l-74 -348h-21l111 520h20l-18 -85q55 95 155 95h26z" />
    <glyph glyph-name="s" unicode="s" horiz-adv-x="418" 
d="M360 358l2 10q15 68 -16 105t-96 37q-55 0 -92.5 -28t-45.5 -68q-19 -91 74 -128l51 -19q124 -46 104 -154q-12 -56 -56 -89.5t-117 -33.5q-74 0 -116.5 47t-28.5 107l4 19h21l-3 -15q-14 -63 24 -100.5t99 -37.5q64 0 103.5 27.5t48.5 73.5q11 54 -13 86t-81 53l-49 18
q-45 16 -70 52.5t-16 91.5q8 51 52.5 84.5t106.5 33.5q74 0 111.5 -44.5t21.5 -118.5l-2 -9h-21z" />
    <glyph glyph-name="t" unicode="t" horiz-adv-x="271" 
d="M291 500h-110l-84 -397q-9 -39 7 -61t53 -22h35l-4 -20h-33q-45 0 -66.5 29t-12.5 72l84 399h-87l4 20h88l36 170h20l-36 -170h110z" />
    <glyph glyph-name="u" unicode="u" horiz-adv-x="464" 
d="M151 520l-76 -355q-16 -75 10.5 -115t92.5 -40q65 0 109.5 41t59.5 114l76 355h20l-110 -520h-21l15 71q-53 -81 -153 -81q-71 0 -103.5 47t-16.5 125l76 358h21z" />
    <glyph glyph-name="v" unicode="v" horiz-adv-x="421" 
d="M82 520h21l60 -483l267 483h23l-287 -520h-19z" />
    <glyph glyph-name="w" unicode="w" horiz-adv-x="647" 
d="M652 520h22l-251 -520h-18l-33 479l-238 -479h-20l-27 520h20l25 -479l238 479h19l33 -478z" />
    <glyph glyph-name="x" unicode="x" horiz-adv-x="417" 
d="M439 520l-217 -259l115 -261h-22l-108 245l-207 -245h-26l223 263l-110 257h22l103 -240l201 240h26z" />
    <glyph glyph-name="y" unicode="y" horiz-adv-x="415" 
d="M454 520l-455 -686h-24l212 318l-101 368h20l95 -346l229 346h24z" />
    <glyph glyph-name="z" unicode="z" horiz-adv-x="369" 
d="M15 19h271l-4 -19h-297l3 16l364 485h-261l4 19h288l-4 -16z" />
    <glyph glyph-name="braceleft" unicode="{" horiz-adv-x="253" 
d="M152 -85h-20q-40 0 -60 27t-12 66l52 244q9 40 -6 61.5t-50 21.5h-11l4 18l1 2h11q35 0 59 21.5t32 61.5l52 244q8 43 34.5 68t66.5 25h24l-4 -20h-20q-31 0 -52 -19t-28 -54l-52 -246q-18 -72 -72 -93q45 -25 32 -92l-52 -243q-8 -35 6 -54t47 -19h22z" />
    <glyph glyph-name="bar" unicode="|" horiz-adv-x="212" 
d="M206 775h20l-182 -860h-21z" />
    <glyph glyph-name="braceright" unicode="}" horiz-adv-x="254" 
d="M140 775h20q40 0 60 -27t12 -66l-52 -244q-9 -40 6 -61.5t50 -21.5h11l-4 -18h-1v-2h-11q-35 0 -59 -21.5t-32 -61.5l-52 -244q-8 -43 -34.5 -68t-66.5 -25h-24l4 20h20q31 0 52 19t28 54l52 246q18 74 72 92q-46 25 -32 93l52 243q8 35 -6 54t-47 19h-22z" />
    <glyph glyph-name="asciitilde" unicode="~" horiz-adv-x="501" 
d="M404 368h20v-2q-8 -41 -31.5 -67t-53.5 -26q-7 0 -13 1t-13 3.5t-11 4.5t-11.5 7t-10.5 7.5t-11.5 9t-10.5 8.5q-4 3 -14.5 11.5t-14 11t-11 7t-14.5 6t-15 1.5q-22 0 -39.5 -21t-24.5 -54h-20v2q8 41 31.5 67t53.5 26q16 0 31.5 -6.5t23 -12.5t26.5 -22q4 -3 14 -11.5
t14 -11t11.5 -7t14 -6t14.5 -1.5q23 0 40.5 20.5t24.5 54.5z" />
    <glyph glyph-name="uni00A0" unicode="&#xa0;" horiz-adv-x="240" 
 />
    <glyph glyph-name="exclamdown" unicode="&#xa1;" horiz-adv-x="188" 
d="M10 -190h-21l109 511h20zM118 476l9 44h44l-9 -44h-44z" />
    <glyph glyph-name="cent" unicode="&#xa2;" 
d="M436 417l2 12q14 61 -12.5 100.5t-89.5 44.5l-94 -439q65 3 108 41t58 100l2 11h20l-2 -12q-15 -71 -64.5 -114.5t-125.5 -45.5l-24 -115h-20l24 115q-73 4 -107.5 51.5t-19.5 116.5l29 134q18 82 70 130t129 48h1l25 115h20l-25 -116q68 -6 100.5 -52.5t18.5 -110.5
l-3 -14h-20zM140 415l-28 -130q-15 -66 13.5 -106.5t96.5 -43.5l94 440q-68 -1 -114.5 -43.5t-61.5 -116.5z" />
    <glyph glyph-name="sterling" unicode="&#xa3;" 
d="M378 0h-357l4 20h67l61 290h-66l4 20h66l50 234q14 72 57 114t103 42q66 0 97 -43.5t17 -112.5l-13 -58h-20l12 58q14 63 -11 99.5t-82 36.5q-51 0 -88.5 -36.5t-50.5 -99.5l-50 -234h157l-4 -20h-157l-61 -290h270z" />
    <glyph glyph-name="currency" unicode="&#xa4;" horiz-adv-x="501" 
d="M431 148l-16 -14l-70 76q-41 -35 -98 -35q-55 0 -93 36l-87 -77l-13 14l86 77q-33 41 -27 95q6 53 46 96l-69 76l16 14l69 -76q41 35 98 35q55 0 94 -37l87 78l13 -14l-88 -78q33 -44 27 -94q-6 -52 -45 -96zM247 195q52 0 92.5 37t46.5 88t-27.5 88t-85.5 37t-93 -37
t-47 -88t28 -88t86 -37z" />
    <glyph glyph-name="yen" unicode="&#xa5;" 
d="M367 175h-126l-37 -175h-21l37 175h-125l4 20h126l25 120h-126l4 20h126l16 75l-132 300h22l123 -279l238 279h27l-258 -300l-16 -75h127l-5 -20h-126l-25 -120h127z" />
    <glyph glyph-name="brokenbar" unicode="&#xa6;" horiz-adv-x="210" 
d="M225 775l-71 -337h-21l72 337h20zM22 -85l72 337h20l-71 -337h-21z" />
    <glyph glyph-name="section" unicode="&#xa7;" horiz-adv-x="452" 
d="M83 358q17 79 104 119q-54 44 -41 114q11 59 57 94t110 35q77 0 112 -46t19 -125l-2 -8h-21l2 8q16 73 -12.5 112t-97.5 39q-55 0 -96 -30t-51 -78q-9 -51 15.5 -81.5t93.5 -55.5q80 -30 109.5 -67.5t16.5 -98.5q-17 -77 -99 -120q58 -52 41 -123q-12 -63 -63 -102
t-119 -39q-75 0 -118 47.5t-27 116.5l4 20h21l-4 -20q-14 -62 21 -103t103 -41q60 0 105.5 33.5t57.5 86.5t-16.5 91.5t-104.5 64.5q-73 25 -102 62.5t-18 94.5zM217 217q40 -16 68 -34q79 37 96 108q11 55 -15.5 87.5t-104.5 60.5q-36 14 -56 26q-39 -15 -66.5 -44.5
t-34.5 -62.5q-12 -51 14 -82.5t99 -58.5z" />
    <glyph glyph-name="dieresis" unicode="&#xa8;" horiz-adv-x="484" 
d="M256 681l-9 -44h-44l9 44h44zM431 681l-9 -44h-44l9 44h44z" />
    <glyph glyph-name="copyright" unicode="&#xa9;" horiz-adv-x="636" 
d="M436 299v-6q0 -45 -26 -73t-71 -28q-44 0 -70.5 28t-26.5 74v125q0 47 25.5 75t70.5 28t71 -26.5t26 -70.5v-2h-20v2q0 36 -20.5 57t-56.5 21q-35 0 -55.5 -23t-20.5 -62v-123q0 -38 20.5 -61t56.5 -23q35 0 56 22.5t21 59.5v6h20zM339 95q-110 0 -182.5 74t-72.5 186
t72.5 186t182.5 74t182.5 -74t72.5 -186t-72.5 -186t-182.5 -74zM339 115q102 0 168.5 68t66.5 172t-66.5 172t-168.5 68t-168.5 -68t-66.5 -172t66.5 -172t168.5 -68z" />
    <glyph glyph-name="ordfeminine" unicode="&#xaa;" horiz-adv-x="296" 
d="M239 723q41 0 60.5 -25t10.5 -59l-37 -173h-18l6 28q-28 -33 -75 -33q-41 0 -59.5 22t-12.5 53q6 33 32.5 54t65.5 21q47 0 65 -31l13 58q6 30 -7 48t-44 18q-60 0 -75 -64l-1 -5h-20l1 6q8 38 33 60t62 22zM189 479q32 0 53 16t26 41t-9 41.5t-45 16.5
q-32 0 -53.5 -16.5t-26.5 -41.5t9 -41t46 -16z" />
    <glyph glyph-name="guillemotleft" unicode="&#xab;" horiz-adv-x="423" 
d="M400 497l13 -15l-179 -169l107 -157l-16 -13l-117 174zM234 497l13 -15l-168 -165l105 -161l-16 -13l-114 177z" />
    <glyph glyph-name="logicalnot" unicode="&#xac;" 
d="M413 330l-4 -20h-1l-26 -125h-20l26 125h-266l4 20h287z" />
    <glyph glyph-name="uni00AD" unicode="&#xad;" horiz-adv-x="311" 
d="M71 330h199l-4 -20h-199z" />
    <glyph glyph-name="registered" unicode="&#xae;" horiz-adv-x="427" 
d="M274 396q-68 0 -113.5 46.5t-45.5 115.5q0 70 45.5 116t113.5 46t113 -46t45 -116q0 -69 -45 -115.5t-113 -46.5zM274 415q60 0 99.5 40t39.5 103q0 62 -39.5 103t-99.5 41t-99.5 -41t-39.5 -103q0 -63 39.5 -103t99.5 -40zM223 657h54q27 0 42 -15t15 -37
q0 -21 -14.5 -36t-39.5 -16l69 -91h-24l-67 91h-15v-91h-20v195zM277 638h-34v-67h34q17 0 27 9.5t10 24.5t-10 24t-27 9z" />
    <glyph glyph-name="macron" unicode="&#xaf;" horiz-adv-x="582" 
d="M447 657l-4 -20h-224l4 20h224z" />
    <glyph glyph-name="degree" unicode="&#xb0;" horiz-adv-x="344" 
d="M231 469q-52 0 -85 36t-27 89q6 54 44 89.5t90 35.5t84.5 -36t26.5 -89q-6 -54 -43.5 -89.5t-89.5 -35.5zM232 489q44 0 75.5 29.5t37.5 75.5q4 45 -21.5 75t-69.5 30t-76.5 -29.5t-37.5 -75.5q-4 -45 21.5 -75t70.5 -30z" />
    <glyph glyph-name="plusminus" unicode="&#xb1;" horiz-adv-x="501" 
d="M315 506l-31 -142h134l-4 -20h-134l-26 -123h-20l26 123h-133l4 20h134l30 142h20zM86 154h287l-4 -20h-287z" />
    <glyph glyph-name="acute" unicode="&#xb4;" horiz-adv-x="581" 
d="M321 729l-100 -132h-25l100 132h25z" />
    <glyph glyph-name="paragraph" unicode="&#xb6;" horiz-adv-x="436" 
d="M153 -163h-20l110 518h-69q-53 0 -79 30t-16 79l30 138q10 51 44.5 79.5t88.5 28.5h194l-186 -873h-20l181 853h-77z" />
    <glyph glyph-name="periodcentered" unicode="&#xb7;" horiz-adv-x="178" 
d="M122 342l-9 -44h-44l9 44h44z" />
    <glyph glyph-name="cedilla" unicode="&#xb8;" horiz-adv-x="583" 
d="M190 -152h-22l79 169l16 -12z" />
    <glyph glyph-name="ordmasculine" unicode="&#xba;" horiz-adv-x="294" 
d="M240 724q43 0 63 -25.5t11 -62.5l-19 -88q-9 -40 -34.5 -63.5t-66.5 -23.5q-43 0 -63 25t-11 62l19 88q9 40 34.5 64t66.5 24zM276 549l18 86q7 33 -7.5 51t-47.5 18q-66 0 -80 -69l-18 -86q-7 -31 7.5 -50t47.5 -19q31 0 52 18.5t28 50.5z" />
    <glyph glyph-name="guillemotright" unicode="&#xbb;" horiz-adv-x="420" 
d="M50 143l-13 15l179 168l-107 158l16 13l117 -174zM216 143l-13 15l168 164l-105 162l16 13l114 -177z" />
    <glyph glyph-name="onequarter" unicode="&#xbc;" horiz-adv-x="551" 
d="M532 710h22l-510 -710h-22zM487 99l-5 -20h-44l-17 -79h-20l17 79h-128l3 16l156 224h24l-154 -220h103l18 84h20l-18 -84h45zM195 410l-5 -20h-127l4 20h53l60 280h-58l4 20h78l-64 -300h55z" />
    <glyph glyph-name="onehalf" unicode="&#xbd;" horiz-adv-x="626" 
d="M538 710h22l-510 -710h-22zM496 20l-4 -20h-168l4 17l159 175q20 23 25 48q7 29 -7.5 47t-43.5 18q-26 0 -46.5 -18t-26.5 -47l-2 -11h-21l3 11q7 37 32.5 61t61.5 24q37 0 57.5 -26t12.5 -62q-7 -32 -28 -55l-147 -162h139zM195 410l-5 -20h-127l4 20h53l60 280h-58
l4 20h78l-64 -300h55z" />
    <glyph glyph-name="threequarters" unicode="&#xbe;" horiz-adv-x="590" 
d="M570 710h22l-510 -710h-22zM526 99l-5 -20h-44l-17 -79h-20l17 79h-128l3 16l156 224h24l-154 -220h103l18 84h20l-18 -84h45zM295 691l-110 -116h4q39 0 58.5 -25.5t11.5 -61.5l-3 -17q-8 -39 -35 -62.5t-65 -23.5q-39 0 -58.5 25t-11.5 61l1 6h20l-1 -6q-7 -30 7 -48
t43 -18q30 0 51.5 18t28.5 48l3 17q7 31 -7 49t-45 18h-35l3 15l109 118h-126l5 20h155z" />
    <glyph glyph-name="questiondown" unicode="&#xbf;" horiz-adv-x="384" 
d="M203 180h-16q-65 0 -108 -38t-58 -102l-11 -50q-18 -81 9 -125.5t93 -44.5q59 0 100 37.5t54 98.5l4 22h21l-5 -24q-15 -70 -61 -112t-114 -42q-73 0 -107 51t-15 137l12 54q15 71 64 114.5t121 43.5l26 121h21zM222 476l9 44h44l-9 -44h-44z" />
    <glyph glyph-name="Agrave" unicode="&#xc0;" horiz-adv-x="494" 
d="M422 0h-19l-22 221h-280l-114 -221h-23l369 710h20zM336 673l-224 -432h267zM244 919h25l100 -132h-25z" />
    <glyph glyph-name="Aacute" unicode="&#xc1;" horiz-adv-x="494" 
d="M422 0h-19l-22 221h-280l-114 -221h-23l369 710h20zM336 673l-224 -432h267zM453 919l-100 -132h-25l100 132h25z" />
    <glyph glyph-name="Acircumflex" unicode="&#xc2;" horiz-adv-x="494" 
d="M422 0h-19l-22 221h-280l-114 -221h-23l369 710h20zM336 673l-224 -432h267zM225 786l143 124h18l90 -124h-25l-76 104l-119 -104h-31z" />
    <glyph glyph-name="Atilde" unicode="&#xc3;" horiz-adv-x="494" 
d="M422 0h-19l-22 221h-280l-114 -221h-23l369 710h20zM336 673l-224 -432h267zM474 886h20q-5 -36 -24 -58.5t-45 -22.5q-28 0 -69 37q-38 31 -58 31q-37 0 -49 -61h-20q5 36 24 58.5t45 22.5q30 0 70 -36q34 -32 57 -32q37 0 49 61z" />
    <glyph glyph-name="Adieresis" unicode="&#xc4;" horiz-adv-x="494" 
d="M422 0h-19l-22 221h-280l-114 -221h-23l369 710h20zM336 673l-224 -432h267zM301 871l-9 -44h-44l9 44h44zM476 871l-9 -44h-44l9 44h44z" />
    <glyph glyph-name="Aring" unicode="&#xc5;" horiz-adv-x="494" 
d="M422 0h-19l-22 221h-280l-114 -221h-23l369 710h20zM336 673l-224 -432h267zM360 778q-42 0 -66.5 23.5t-20.5 60.5t31.5 60.5t68.5 23.5t66 -24.5t21 -59.5q-4 -38 -31 -61t-69 -23zM360 798q34 0 55.5 17t24.5 47q3 29 -15.5 46.5t-51.5 17.5t-55 -17.5t-25 -46.5
q-3 -30 14.5 -47t52.5 -17z" />
    <glyph glyph-name="AE" unicode="&#xc6;" horiz-adv-x="811" 
d="M856 690h-316l-67 -317h271l-5 -20h-270l-71 -333h326l-4 -20h-347l47 221h-267l-176 -221h-25l567 710h342zM169 241h255l92 434z" />
    <glyph glyph-name="Ccedilla" unicode="&#xc7;" horiz-adv-x="527" 
d="M473 224l-4 -15q-20 -99 -85 -159t-155 -60q-94 0 -139.5 67t-21.5 176l56 261q21 105 84.5 165.5t155.5 60.5q94 0 140 -59.5t28 -149.5l-2 -5h-20l1 3q18 85 -21.5 138t-125.5 53q-82 0 -141 -56t-79 -152l-55 -257q-23 -106 15.5 -165.5t124.5 -59.5q82 0 142 54
t78 146l3 14h21zM176 -152h-22l77 164l18 -7z" />
    <glyph glyph-name="Egrave" unicode="&#xc8;" horiz-adv-x="473" 
d="M521 690h-319l-67 -317h271l-5 -20h-270l-71 -333h326l-4 -20h-347l151 710h340zM258 919h25l100 -132h-25z" />
    <glyph glyph-name="Eacute" unicode="&#xc9;" horiz-adv-x="473" 
d="M521 690h-319l-67 -317h271l-5 -20h-270l-71 -333h326l-4 -20h-347l151 710h340zM467 919l-100 -132h-25l100 132h25z" />
    <glyph glyph-name="Ecircumflex" unicode="&#xca;" horiz-adv-x="473" 
d="M521 690h-319l-67 -317h271l-5 -20h-270l-71 -333h326l-4 -20h-347l151 710h340zM239 786l143 124h18l90 -124h-25l-76 104l-119 -104h-31z" />
    <glyph glyph-name="Edieresis" unicode="&#xcb;" horiz-adv-x="473" 
d="M521 690h-319l-67 -317h271l-5 -20h-270l-71 -333h326l-4 -20h-347l151 710h340zM315 871l-9 -44h-44l9 44h44zM490 871l-9 -44h-44l9 44h44z" />
    <glyph glyph-name="Igrave" unicode="&#xcc;" horiz-adv-x="199" 
d="M186 710h21l-151 -710h-21zM107 919h25l100 -132h-25z" />
    <glyph glyph-name="Iacute" unicode="&#xcd;" horiz-adv-x="199" 
d="M186 710h21l-151 -710h-21zM317 919l-100 -132h-25l100 132h25z" />
    <glyph glyph-name="Icircumflex" unicode="&#xce;" horiz-adv-x="199" 
d="M186 710h21l-151 -710h-21zM88 786l143 124h18l90 -124h-25l-76 104l-119 -104h-31z" />
    <glyph glyph-name="Idieresis" unicode="&#xcf;" horiz-adv-x="199" 
d="M186 710h21l-151 -710h-21zM165 871l-9 -44h-44l9 44h44zM340 871l-9 -44h-44l9 44h44z" />
    <glyph glyph-name="Eth" unicode="&#xd0;" horiz-adv-x="568" 
d="M198 710h164q103 0 154.5 -65t27.5 -172l-54 -256q-22 -100 -94.5 -158.5t-176.5 -58.5h-172l75 353h-92l4 20h92zM214 690l-67 -317h185l-4 -20h-185l-71 -333h148q96 0 163 53.5t87 145.5l53 252q22 103 -22 161t-139 58h-148z" />
    <glyph glyph-name="Ntilde" unicode="&#xd1;" horiz-adv-x="582" 
d="M591 710l-151 -710h-18l-225 668l-141 -668h-21l151 710h19l223 -667l142 667h21zM518 886h20q-5 -36 -24 -58.5t-45 -22.5q-28 0 -69 37q-38 31 -58 31q-37 0 -49 -61h-20q5 36 24 58.5t45 22.5q30 0 70 -36q34 -32 57 -32q37 0 49 61z" />
    <glyph glyph-name="Ograve" unicode="&#xd2;" horiz-adv-x="562" 
d="M373 720q96 0 142 -67.5t22 -175.5l-56 -264q-23 -102 -89.5 -162.5t-159.5 -60.5q-96 0 -142.5 67t-22.5 176l56 264q20 100 88.5 161.5t161.5 61.5zM372 700q-85 0 -147 -55.5t-82 -149.5l-55 -260q-23 -106 16.5 -165.5t127.5 -59.5q85 0 147 55.5t82 149.5l55 260
q23 106 -16.5 165.5t-127.5 59.5zM287 919h25l100 -132h-25z" />
    <glyph glyph-name="Oacute" unicode="&#xd3;" horiz-adv-x="562" 
d="M373 720q96 0 142 -67.5t22 -175.5l-56 -264q-23 -102 -89.5 -162.5t-159.5 -60.5q-96 0 -142.5 67t-22.5 176l56 264q20 100 88.5 161.5t161.5 61.5zM372 700q-85 0 -147 -55.5t-82 -149.5l-55 -260q-23 -106 16.5 -165.5t127.5 -59.5q85 0 147 55.5t82 149.5l55 260
q23 106 -16.5 165.5t-127.5 59.5zM496 919l-100 -132h-25l100 132h25z" />
    <glyph glyph-name="Ocircumflex" unicode="&#xd4;" horiz-adv-x="562" 
d="M373 720q96 0 142 -67.5t22 -175.5l-56 -264q-23 -102 -89.5 -162.5t-159.5 -60.5q-96 0 -142.5 67t-22.5 176l56 264q20 100 88.5 161.5t161.5 61.5zM372 700q-85 0 -147 -55.5t-82 -149.5l-55 -260q-23 -106 16.5 -165.5t127.5 -59.5q85 0 147 55.5t82 149.5l55 260
q23 106 -16.5 165.5t-127.5 59.5zM268 786l143 124h18l90 -124h-25l-76 104l-119 -104h-31z" />
    <glyph glyph-name="Otilde" unicode="&#xd5;" horiz-adv-x="562" 
d="M373 720q96 0 142 -67.5t22 -175.5l-56 -264q-23 -102 -89.5 -162.5t-159.5 -60.5q-96 0 -142.5 67t-22.5 176l56 264q20 100 88.5 161.5t161.5 61.5zM372 700q-85 0 -147 -55.5t-82 -149.5l-55 -260q-23 -106 16.5 -165.5t127.5 -59.5q85 0 147 55.5t82 149.5l55 260
q23 106 -16.5 165.5t-127.5 59.5zM517 886h20q-5 -36 -24 -58.5t-45 -22.5q-28 0 -69 37q-38 31 -58 31q-37 0 -49 -61h-20q5 36 24 58.5t45 22.5q30 0 70 -36q34 -32 57 -32q37 0 49 61z" />
    <glyph glyph-name="Odieresis" unicode="&#xd6;" horiz-adv-x="562" 
d="M373 720q96 0 142 -67.5t22 -175.5l-56 -264q-23 -102 -89.5 -162.5t-159.5 -60.5q-96 0 -142.5 67t-22.5 176l56 264q20 100 88.5 161.5t161.5 61.5zM372 700q-85 0 -147 -55.5t-82 -149.5l-55 -260q-23 -106 16.5 -165.5t127.5 -59.5q85 0 147 55.5t82 149.5l55 260
q23 106 -16.5 165.5t-127.5 59.5zM344 871l-9 -44h-44l9 44h44zM519 871l-9 -44h-44l9 44h44z" />
    <glyph glyph-name="multiply" unicode="&#xd7;" horiz-adv-x="501" 
d="M409 440l-135 -121l92 -120l-16 -13l-91 119l-132 -119l-12 16l132 119l-91 121l15 13l91 -120l135 121z" />
    <glyph glyph-name="Oslash" unicode="&#xd8;" horiz-adv-x="562" 
d="M374 720q99 0 145 -72l51 62h25l-66 -81q28 -64 9 -152l-56 -264q-23 -102 -89.5 -162.5t-159.5 -60.5q-102 0 -148 74l-52 -64h-25l68 83q-28 59 -8 150l56 264q20 100 88.5 161.5t161.5 61.5zM462 215l55 260q17 81 -3 138l-414 -533q39 -70 133 -70q85 0 147 55.5
t82 149.5zM373 700q-85 0 -147 -55.5t-82 -149.5l-55 -260q-17 -79 2 -135l413 533q-37 67 -131 67z" />
    <glyph glyph-name="Ugrave" unicode="&#xd9;" horiz-adv-x="564" 
d="M556 710h20l-108 -509q-20 -96 -82.5 -153.5t-149.5 -57.5q-93 0 -137.5 63.5t-22.5 167.5l105 489h20l-104 -488q-21 -98 17.5 -155t121.5 -57q79 0 136.5 52t75.5 140zM282 919h25l100 -132h-25z" />
    <glyph glyph-name="Uacute" unicode="&#xda;" horiz-adv-x="564" 
d="M556 710h20l-108 -509q-20 -96 -82.5 -153.5t-149.5 -57.5q-93 0 -137.5 63.5t-22.5 167.5l105 489h20l-104 -488q-21 -98 17.5 -155t121.5 -57q79 0 136.5 52t75.5 140zM491 919l-100 -132h-25l100 132h25z" />
    <glyph glyph-name="Ucircumflex" unicode="&#xdb;" horiz-adv-x="564" 
d="M556 710h20l-108 -509q-20 -96 -82.5 -153.5t-149.5 -57.5q-93 0 -137.5 63.5t-22.5 167.5l105 489h20l-104 -488q-21 -98 17.5 -155t121.5 -57q79 0 136.5 52t75.5 140zM263 786l143 124h18l90 -124h-25l-76 104l-119 -104h-31z" />
    <glyph glyph-name="Udieresis" unicode="&#xdc;" horiz-adv-x="564" 
d="M556 710h20l-108 -509q-20 -96 -82.5 -153.5t-149.5 -57.5q-93 0 -137.5 63.5t-22.5 167.5l105 489h20l-104 -488q-21 -98 17.5 -155t121.5 -57q79 0 136.5 52t75.5 140zM339 871l-9 -44h-44l9 44h44zM514 871l-9 -44h-44l9 44h44z" />
    <glyph glyph-name="Yacute" unicode="&#xdd;" horiz-adv-x="486" 
d="M575 710l-296 -330l-80 -380h-21l80 381l-152 329h22l144 -310l276 310h27zM450 919l-100 -132h-25l100 132h25z" />
    <glyph glyph-name="Thorn" unicode="&#xde;" horiz-adv-x="489" 
d="M186 710h21l-32 -151h148q84 0 126 -56.5t24 -143.5q-19 -89 -79.5 -141t-146.5 -52h-156l-35 -166h-21zM322 539h-151l-76 -355h152q76 0 132.5 48t72.5 127q18 80 -18 130t-112 50z" />
    <glyph glyph-name="germandbls" unicode="&#xdf;" horiz-adv-x="469" 
d="M253 412v1h18q53 0 89 36.5t49 99.5l4 19q17 73 -8 112t-86 39q-59 0 -99 -36t-53 -100l-123 -583h-21l124 585q15 71 60 112.5t113 41.5t99.5 -46t14.5 -123l-5 -23q-24 -112 -105 -143q54 -17 76.5 -65.5t7.5 -117.5l-9 -43q-18 -82 -73 -130t-138 -48h-35l4 20h31
q75 0 125 43t66 117l8 39q18 83 -13.5 128.5t-106.5 45.5h-18v1z" />
    <glyph glyph-name="agrave" unicode="&#xe0;" horiz-adv-x="466" 
d="M424 520h20l-110 -520h-21l15 70q-52 -80 -151 -80q-76 0 -112 52.5t-18 136.5l37 173q16 82 66.5 130t121.5 48q114 0 133 -100zM347 161l38 178q17 79 -12.5 125t-97.5 46q-66 0 -111 -42.5t-60 -117.5l-36 -169q-18 -81 12 -126t100 -45q65 0 108.5 40.5t58.5 110.5z
M191 729h25l100 -132h-25z" />
    <glyph glyph-name="aacute" unicode="&#xe1;" horiz-adv-x="466" 
d="M424 520h20l-110 -520h-21l15 70q-52 -80 -151 -80q-76 0 -112 52.5t-18 136.5l37 173q16 82 66.5 130t121.5 48q114 0 133 -100zM347 161l38 178q17 79 -12.5 125t-97.5 46q-66 0 -111 -42.5t-60 -117.5l-36 -169q-18 -81 12 -126t100 -45q65 0 108.5 40.5t58.5 110.5z
M400 729l-100 -132h-25l100 132h25z" />
    <glyph glyph-name="acircumflex" unicode="&#xe2;" horiz-adv-x="466" 
d="M424 520h20l-110 -520h-21l15 70q-52 -80 -151 -80q-76 0 -112 52.5t-18 136.5l37 173q16 82 66.5 130t121.5 48q114 0 133 -100zM347 161l38 178q17 79 -12.5 125t-97.5 46q-66 0 -111 -42.5t-60 -117.5l-36 -169q-18 -81 12 -126t100 -45q65 0 108.5 40.5t58.5 110.5z
M172 596l143 124h18l90 -124h-25l-76 104l-119 -104h-31z" />
    <glyph glyph-name="atilde" unicode="&#xe3;" horiz-adv-x="466" 
d="M424 520h20l-110 -520h-21l15 70q-52 -80 -151 -80q-76 0 -112 52.5t-18 136.5l37 173q16 82 66.5 130t121.5 48q114 0 133 -100zM347 161l38 178q17 79 -12.5 125t-97.5 46q-66 0 -111 -42.5t-60 -117.5l-36 -169q-18 -81 12 -126t100 -45q65 0 108.5 40.5t58.5 110.5z
M422 696h20q-5 -36 -24 -58.5t-45 -22.5q-28 0 -69 37q-38 31 -58 31q-37 0 -49 -61h-20q5 36 24 58.5t45 22.5q30 0 70 -36q34 -32 57 -32q37 0 49 61z" />
    <glyph glyph-name="adieresis" unicode="&#xe4;" horiz-adv-x="466" 
d="M424 520h20l-110 -520h-21l15 70q-52 -80 -151 -80q-76 0 -112 52.5t-18 136.5l37 173q16 82 66.5 130t121.5 48q114 0 133 -100zM347 161l38 178q17 79 -12.5 125t-97.5 46q-66 0 -111 -42.5t-60 -117.5l-36 -169q-18 -81 12 -126t100 -45q65 0 108.5 40.5t58.5 110.5z
M249 681l-9 -44h-44l9 44h44zM424 681l-9 -44h-44l9 44h44z" />
    <glyph glyph-name="aring" unicode="&#xe5;" horiz-adv-x="466" 
d="M424 520h20l-110 -520h-21l15 70q-52 -80 -151 -80q-76 0 -112 52.5t-18 136.5l37 173q16 82 66.5 130t121.5 48q114 0 133 -100zM347 161l38 178q17 79 -12.5 125t-97.5 46q-66 0 -111 -42.5t-60 -117.5l-36 -169q-18 -81 12 -126t100 -45q65 0 108.5 40.5t58.5 110.5z
M307 588q-42 0 -66.5 23.5t-20.5 60.5t31.5 60.5t68.5 23.5t66 -24.5t21 -59.5q-4 -38 -31 -61t-69 -23zM307 608q34 0 55.5 17t24.5 47q3 29 -15.5 46.5t-51.5 17.5t-55 -17.5t-25 -46.5q-3 -30 14.5 -47t52.5 -17z" />
    <glyph glyph-name="ae" unicode="&#xe6;" horiz-adv-x="753" 
d="M582 530q77 0 113.5 -52.5t18.5 -136.5l-16 -76h-311l-18 -84q-17 -81 13 -126t100 -45q68 0 114 39t59 103l2 11h21l-3 -12q-15 -72 -66 -116.5t-127 -44.5q-112 0 -136 99q-21 -46 -64 -72.5t-102 -26.5q-78 0 -119 44t-35 110q6 65 55 108.5t126 43.5q58 0 95.5 -25
t49.5 -68l30 136q17 79 -13 124.5t-101 45.5q-62 0 -104.5 -39t-56.5 -108l-2 -10h-21l3 12q15 76 62.5 120.5t118.5 44.5q58 0 94.5 -30t43.5 -82q56 113 176 113zM180 10q69 0 112 37.5t48 96.5q6 58 -28.5 95t-103.5 37q-70 0 -112.5 -37t-48.5 -95q-6 -59 28.5 -96.5
t104.5 -37.5zM405 350l-14 -65h290l12 54q17 80 -12.5 125.5t-98.5 45.5t-115.5 -42.5t-61.5 -117.5z" />
    <glyph glyph-name="ccedilla" unicode="&#xe7;" horiz-adv-x="437" 
d="M387 358l1 6q13 63 -16.5 104.5t-99.5 41.5q-65 0 -109.5 -42.5t-59.5 -117.5l-36 -170q-17 -80 12.5 -125t99.5 -45q65 0 109 38.5t57 102.5l2 12h20l-2 -13q-15 -72 -64 -116t-122 -44q-79 0 -115 52.5t-18 135.5l37 174q18 83 67 130.5t122 47.5q78 0 115 -49t22 -115
l-2 -8h-20zM127 -152h-22l79 169l16 -12z" />
    <glyph glyph-name="egrave" unicode="&#xe8;" horiz-adv-x="451" 
d="M272 530q83 0 120.5 -53t19.5 -136l-17 -76h-311l-18 -84q-16 -73 15.5 -122t103.5 -49q67 0 111 38.5t57 103.5l2 11h21l-3 -12q-14 -73 -64 -117t-123 -44q-82 0 -119.5 55.5t-21.5 133.5l37 173q17 82 67.5 130t122.5 48zM103 350l-14 -65h289l13 54q17 81 -13.5 126
t-104.5 45q-66 0 -111 -42.5t-59 -117.5zM189 729h25l100 -132h-25z" />
    <glyph glyph-name="eacute" unicode="&#xe9;" horiz-adv-x="451" 
d="M272 530q83 0 120.5 -53t19.5 -136l-17 -76h-311l-18 -84q-16 -73 15.5 -122t103.5 -49q67 0 111 38.5t57 103.5l2 11h21l-3 -12q-14 -73 -64 -117t-123 -44q-82 0 -119.5 55.5t-21.5 133.5l37 173q17 82 67.5 130t122.5 48zM103 350l-14 -65h289l13 54q17 81 -13.5 126
t-104.5 45q-66 0 -111 -42.5t-59 -117.5zM398 729l-100 -132h-25l100 132h25z" />
    <glyph glyph-name="ecircumflex" unicode="&#xea;" horiz-adv-x="451" 
d="M272 530q83 0 120.5 -53t19.5 -136l-17 -76h-311l-18 -84q-16 -73 15.5 -122t103.5 -49q67 0 111 38.5t57 103.5l2 11h21l-3 -12q-14 -73 -64 -117t-123 -44q-82 0 -119.5 55.5t-21.5 133.5l37 173q17 82 67.5 130t122.5 48zM103 350l-14 -65h289l13 54q17 81 -13.5 126
t-104.5 45q-66 0 -111 -42.5t-59 -117.5zM170 596l143 124h18l90 -124h-25l-76 104l-119 -104h-31z" />
    <glyph glyph-name="edieresis" unicode="&#xeb;" horiz-adv-x="451" 
d="M272 530q83 0 120.5 -53t19.5 -136l-17 -76h-311l-18 -84q-16 -73 15.5 -122t103.5 -49q67 0 111 38.5t57 103.5l2 11h21l-3 -12q-14 -73 -64 -117t-123 -44q-82 0 -119.5 55.5t-21.5 133.5l37 173q17 82 67.5 130t122.5 48zM103 350l-14 -65h289l13 54q17 81 -13.5 126
t-104.5 45q-66 0 -111 -42.5t-59 -117.5zM247 681l-9 -44h-44l9 44h44zM422 681l-9 -44h-44l9 44h44z" />
    <glyph glyph-name="igrave" unicode="&#xec;" horiz-adv-x="176" 
d="M154 520l-110 -520h-21l111 520h20zM55 729h25l100 -132h-25z" />
    <glyph glyph-name="iacute" unicode="&#xed;" horiz-adv-x="176" 
d="M154 520l-110 -520h-21l111 520h20zM265 729l-100 -132h-25l100 132h25z" />
    <glyph glyph-name="icircumflex" unicode="&#xee;" horiz-adv-x="176" 
d="M154 520l-110 -520h-21l111 520h20zM36 596l143 124h18l90 -124h-25l-76 104l-119 -104h-31z" />
    <glyph glyph-name="idieresis" unicode="&#xef;" horiz-adv-x="176" 
d="M154 520l-110 -520h-21l111 520h20zM113 681l-9 -44h-44l9 44h44zM288 681l-9 -44h-44l9 44h44z" />
    <glyph glyph-name="eth" unicode="&#xf0;" horiz-adv-x="459" 
d="M179 729l88 -101h117l-4 -20h-96l88 -101q61 -70 39 -175l-35 -164q-18 -82 -68.5 -130t-126.5 -48q-80 0 -116 54.5t-18 143.5l35 164q18 82 68.5 130t126.5 48q28 0 55 -8l-72 84h-113l4 20h91l-89 103h26zM356 170l34 160q19 86 -11 133t-102 47q-68 0 -113.5 -43
t-60.5 -117l-35 -160q-18 -86 12 -133t101 -47q68 0 114 43t61 117z" />
    <glyph glyph-name="ntilde" unicode="&#xf1;" horiz-adv-x="463" 
d="M315 0l76 355q16 75 -11 115t-93 40q-60 0 -103.5 -36t-60.5 -102l-79 -372h-21l111 520h20l-15 -72q54 82 153 82q71 0 103.5 -47t16.5 -125l-76 -358h-21zM422 696h20q-5 -36 -24 -58.5t-45 -22.5q-28 0 -69 37q-38 31 -58 31q-37 0 -49 -61h-20q5 36 24 58.5t45 22.5
q30 0 70 -36q34 -32 57 -32q37 0 49 61z" />
    <glyph glyph-name="ograve" unicode="&#xf2;" horiz-adv-x="456" 
d="M277 530q79 0 116.5 -54.5t17.5 -143.5l-35 -164q-18 -82 -68.5 -130t-126.5 -48q-79 0 -116.5 54.5t-17.5 143.5l35 164q18 82 68.5 130t126.5 48zM356 170l35 160q19 86 -11 133t-102 47q-68 0 -114 -43t-61 -117l-34 -160q-19 -86 11 -133t102 -47q68 0 113.5 43
t60.5 117zM192 729h25l100 -132h-25z" />
    <glyph glyph-name="oacute" unicode="&#xf3;" horiz-adv-x="456" 
d="M277 530q79 0 116.5 -54.5t17.5 -143.5l-35 -164q-18 -82 -68.5 -130t-126.5 -48q-79 0 -116.5 54.5t-17.5 143.5l35 164q18 82 68.5 130t126.5 48zM356 170l35 160q19 86 -11 133t-102 47q-68 0 -114 -43t-61 -117l-34 -160q-19 -86 11 -133t102 -47q68 0 113.5 43
t60.5 117zM401 729l-100 -132h-25l100 132h25z" />
    <glyph glyph-name="ocircumflex" unicode="&#xf4;" horiz-adv-x="456" 
d="M277 530q79 0 116.5 -54.5t17.5 -143.5l-35 -164q-18 -82 -68.5 -130t-126.5 -48q-79 0 -116.5 54.5t-17.5 143.5l35 164q18 82 68.5 130t126.5 48zM356 170l35 160q19 86 -11 133t-102 47q-68 0 -114 -43t-61 -117l-34 -160q-19 -86 11 -133t102 -47q68 0 113.5 43
t60.5 117zM173 596l143 124h18l90 -124h-25l-76 104l-119 -104h-31z" />
    <glyph glyph-name="otilde" unicode="&#xf5;" horiz-adv-x="456" 
d="M277 530q79 0 116.5 -54.5t17.5 -143.5l-35 -164q-18 -82 -68.5 -130t-126.5 -48q-79 0 -116.5 54.5t-17.5 143.5l35 164q18 82 68.5 130t126.5 48zM356 170l35 160q19 86 -11 133t-102 47q-68 0 -114 -43t-61 -117l-34 -160q-19 -86 11 -133t102 -47q68 0 113.5 43
t60.5 117zM423 696h20q-5 -36 -24 -58.5t-45 -22.5q-28 0 -69 37q-38 31 -58 31q-37 0 -49 -61h-20q5 36 24 58.5t45 22.5q30 0 70 -36q34 -32 57 -32q37 0 49 61z" />
    <glyph glyph-name="odieresis" unicode="&#xf6;" horiz-adv-x="456" 
d="M277 530q79 0 116.5 -54.5t17.5 -143.5l-35 -164q-18 -82 -68.5 -130t-126.5 -48q-79 0 -116.5 54.5t-17.5 143.5l35 164q18 82 68.5 130t126.5 48zM356 170l35 160q19 86 -11 133t-102 47q-68 0 -114 -43t-61 -117l-34 -160q-19 -86 11 -133t102 -47q68 0 113.5 43
t60.5 117zM250 681l-9 -44h-44l9 44h44zM425 681l-9 -44h-44l9 44h44z" />
    <glyph glyph-name="divide" unicode="&#xf7;" horiz-adv-x="501" 
d="M122 330h287l-4 -20h-287zM319 476l-9 -44h-44l9 44h44zM269 215l-9 -44h-44l9 44h44z" />
    <glyph glyph-name="oslash" unicode="&#xf8;" horiz-adv-x="456" 
d="M278 530q76 0 114 -51l33 41h25l-48 -58q26 -54 10 -130l-35 -164q-18 -82 -68.5 -130t-126.5 -48q-73 0 -111 47l-31 -37h-25l44 55q-29 50 -11 133l35 164q18 82 68.5 130t126.5 48zM103 350l-34 -160q-16 -72 4 -120l304 395q-31 45 -99 45t-114 -43t-61 -117z
M356 170l35 160q15 74 -4 117l-303 -396q30 -41 98 -41t113.5 43t60.5 117z" />
    <glyph glyph-name="ugrave" unicode="&#xf9;" horiz-adv-x="464" 
d="M151 520l-76 -355q-16 -75 10.5 -115t92.5 -40q65 0 109.5 41t59.5 114l76 355h20l-110 -520h-21l15 71q-53 -81 -153 -81q-71 0 -103.5 47t-16.5 125l76 358h21zM191 729h25l100 -132h-25z" />
    <glyph glyph-name="uacute" unicode="&#xfa;" horiz-adv-x="464" 
d="M151 520l-76 -355q-16 -75 10.5 -115t92.5 -40q65 0 109.5 41t59.5 114l76 355h20l-110 -520h-21l15 71q-53 -81 -153 -81q-71 0 -103.5 47t-16.5 125l76 358h21zM400 729l-100 -132h-25l100 132h25z" />
    <glyph glyph-name="ucircumflex" unicode="&#xfb;" horiz-adv-x="464" 
d="M151 520l-76 -355q-16 -75 10.5 -115t92.5 -40q65 0 109.5 41t59.5 114l76 355h20l-110 -520h-21l15 71q-53 -81 -153 -81q-71 0 -103.5 47t-16.5 125l76 358h21zM172 596l143 124h18l90 -124h-25l-76 104l-119 -104h-31z" />
    <glyph glyph-name="udieresis" unicode="&#xfc;" horiz-adv-x="464" 
d="M151 520l-76 -355q-16 -75 10.5 -115t92.5 -40q65 0 109.5 41t59.5 114l76 355h20l-110 -520h-21l15 71q-53 -81 -153 -81q-71 0 -103.5 47t-16.5 125l76 358h21zM249 681l-9 -44h-44l9 44h44zM424 681l-9 -44h-44l9 44h44z" />
    <glyph glyph-name="yacute" unicode="&#xfd;" horiz-adv-x="415" 
d="M454 520l-455 -686h-24l212 318l-101 368h20l95 -346l229 346h24zM384 729l-100 -132h-25l100 132h25z" />
    <glyph glyph-name="thorn" unicode="&#xfe;" horiz-adv-x="465" 
d="M9 -163h-20l189 892h21l-60 -277q53 78 151 78q75 0 111.5 -53t18.5 -136l-37 -173q-17 -82 -67 -130t-121 -48q-114 0 -133 96zM120 359l-38 -178q-17 -79 12 -125t98 -46q65 0 110 42.5t61 117.5l36 169q17 81 -13 126t-99 45q-65 0 -108.5 -40.5t-58.5 -110.5z" />
    <glyph glyph-name="ydieresis" unicode="&#xff;" horiz-adv-x="415" 
d="M454 520l-455 -686h-24l212 318l-101 368h20l95 -346l229 346h24zM233 681l-9 -44h-44l9 44h44zM408 681l-9 -44h-44l9 44h44z" />
    <glyph glyph-name="Amacron" unicode="&#x100;" horiz-adv-x="494" 
d="M422 0h-19l-22 221h-280l-114 -221h-23l369 710h20zM336 673l-224 -432h267zM474 847l-4 -20h-224l4 20h224z" />
    <glyph glyph-name="amacron" unicode="&#x101;" horiz-adv-x="466" 
d="M424 520h20l-110 -520h-21l15 70q-52 -80 -151 -80q-76 0 -112 52.5t-18 136.5l37 173q16 82 66.5 130t121.5 48q114 0 133 -100zM347 161l38 178q17 79 -12.5 125t-97.5 46q-66 0 -111 -42.5t-60 -117.5l-36 -169q-18 -81 12 -126t100 -45q65 0 108.5 40.5t58.5 110.5z
M422 657l-4 -20h-224l4 20h224z" />
    <glyph glyph-name="Abreve" unicode="&#x102;" horiz-adv-x="494" 
d="M422 0h-19l-22 221h-280l-114 -221h-23l369 710h20zM336 673l-224 -432h267zM477 909h20q-11 -54 -48 -83t-91 -29q-57 0 -86 30.5t-18 81.5h20q-10 -44 13 -68t71 -24q46 0 77.5 24t41.5 68z" />
    <glyph glyph-name="abreve" unicode="&#x103;" horiz-adv-x="466" 
d="M424 520h20l-110 -520h-21l15 70q-52 -80 -151 -80q-76 0 -112 52.5t-18 136.5l37 173q16 82 66.5 130t121.5 48q114 0 133 -100zM347 161l38 178q17 79 -12.5 125t-97.5 46q-66 0 -111 -42.5t-60 -117.5l-36 -169q-18 -81 12 -126t100 -45q65 0 108.5 40.5t58.5 110.5z
M425 719h20q-11 -54 -48 -83t-91 -29q-57 0 -86 30.5t-18 81.5h20q-10 -44 13 -68t71 -24q46 0 77.5 24t41.5 68z" />
    <glyph glyph-name="Aogonek" unicode="&#x104;" horiz-adv-x="494" 
d="M422 0h-19l-22 221h-280l-114 -221h-23l369 710h20zM336 673l-224 -432h267zM411 17l12 -17l-56 -64q-22 -24 -27 -43q-8 -36 39 -36h31l-4 -20h-28q-32 0 -47.5 16t-10.5 40q4 24 28 51z" />
    <glyph glyph-name="aogonek" unicode="&#x105;" horiz-adv-x="465" 
d="M424 520h20l-110 -520l-56 -64q-22 -24 -27 -43q-7 -36 39 -36h31l-4 -20h-28q-32 0 -47.5 16t-10.5 40q4 24 28 51l56 65l13 61q-52 -80 -151 -80q-76 0 -112 52.5t-18 136.5l37 173q16 82 66.5 130t121.5 48q114 0 133 -100zM347 161l38 178q17 79 -12.5 125t-97.5 46
q-66 0 -111 -42.5t-60 -117.5l-36 -169q-18 -81 12 -126t100 -45q65 0 108.5 40.5t58.5 110.5z" />
    <glyph glyph-name="Cacute" unicode="&#x106;" horiz-adv-x="527" 
d="M473 224l-4 -15q-20 -99 -85 -159t-155 -60q-94 0 -139.5 67t-21.5 176l56 261q21 105 84.5 165.5t155.5 60.5q94 0 140 -59.5t28 -149.5l-2 -5h-20l1 3q18 85 -21.5 138t-125.5 53q-82 0 -141 -56t-79 -152l-55 -257q-23 -106 15.5 -165.5t124.5 -59.5q82 0 142 54
t78 146l3 14h21zM487 919l-100 -132h-25l100 132h25z" />
    <glyph glyph-name="cacute" unicode="&#x107;" horiz-adv-x="437" 
d="M387 358l1 6q13 63 -16.5 104.5t-99.5 41.5q-65 0 -109.5 -42.5t-59.5 -117.5l-36 -170q-17 -80 12.5 -125t99.5 -45q65 0 109 38.5t57 102.5l2 12h20l-2 -13q-15 -72 -64 -116t-122 -44q-79 0 -115 52.5t-18 135.5l37 174q18 83 67 130.5t122 47.5q78 0 115 -49t22 -115
l-2 -8h-20zM392 729l-100 -132h-25l100 132h25z" />
    <glyph glyph-name="Ccircumflex" unicode="&#x108;" horiz-adv-x="527" 
d="M473 224l-4 -15q-20 -99 -85 -159t-155 -60q-94 0 -139.5 67t-21.5 176l56 261q21 105 84.5 165.5t155.5 60.5q94 0 140 -59.5t28 -149.5l-2 -5h-20l1 3q18 85 -21.5 138t-125.5 53q-82 0 -141 -56t-79 -152l-55 -257q-23 -106 15.5 -165.5t124.5 -59.5q82 0 142 54
t78 146l3 14h21zM259 786l143 124h18l90 -124h-25l-76 104l-119 -104h-31z" />
    <glyph glyph-name="ccircumflex" unicode="&#x109;" horiz-adv-x="437" 
d="M387 358l1 6q13 63 -16.5 104.5t-99.5 41.5q-65 0 -109.5 -42.5t-59.5 -117.5l-36 -170q-17 -80 12.5 -125t99.5 -45q65 0 109 38.5t57 102.5l2 12h20l-2 -13q-15 -72 -64 -116t-122 -44q-79 0 -115 52.5t-18 135.5l37 174q18 83 67 130.5t122 47.5q78 0 115 -49t22 -115
l-2 -8h-20zM164 596l143 124h18l90 -124h-25l-76 104l-119 -104h-31z" />
    <glyph glyph-name="Cdotaccent" unicode="&#x10a;" horiz-adv-x="527" 
d="M473 224l-4 -15q-20 -99 -85 -159t-155 -60q-94 0 -139.5 67t-21.5 176l56 261q21 105 84.5 165.5t155.5 60.5q94 0 140 -59.5t28 -149.5l-2 -5h-20l1 3q18 85 -21.5 138t-125.5 53q-82 0 -141 -56t-79 -152l-55 -257q-23 -106 15.5 -165.5t124.5 -59.5q82 0 142 54
t78 146l3 14h21zM427 902l-9 -44h-44l9 44h44z" />
    <glyph glyph-name="cdotaccent" unicode="&#x10b;" horiz-adv-x="437" 
d="M387 358l1 6q13 63 -16.5 104.5t-99.5 41.5q-65 0 -109.5 -42.5t-59.5 -117.5l-36 -170q-17 -80 12.5 -125t99.5 -45q65 0 109 38.5t57 102.5l2 12h20l-2 -13q-15 -72 -64 -116t-122 -44q-79 0 -115 52.5t-18 135.5l37 174q18 83 67 130.5t122 47.5q78 0 115 -49t22 -115
l-2 -8h-20zM332 712l-9 -44h-44l9 44h44z" />
    <glyph glyph-name="Ccaron" unicode="&#x10c;" horiz-adv-x="527" 
d="M473 224l-4 -15q-20 -99 -85 -159t-155 -60q-94 0 -139.5 67t-21.5 176l56 261q21 105 84.5 165.5t155.5 60.5q94 0 140 -59.5t28 -149.5l-2 -5h-20l1 3q18 85 -21.5 138t-125.5 53q-82 0 -141 -56t-79 -152l-55 -257q-23 -106 15.5 -165.5t124.5 -59.5q82 0 142 54
t78 146l3 14h21zM536 911l-143 -124h-18l-90 124h25l75 -104l120 104h31z" />
    <glyph glyph-name="ccaron" unicode="&#x10d;" horiz-adv-x="437" 
d="M387 358l1 6q13 63 -16.5 104.5t-99.5 41.5q-65 0 -109.5 -42.5t-59.5 -117.5l-36 -170q-17 -80 12.5 -125t99.5 -45q65 0 109 38.5t57 102.5l2 12h20l-2 -13q-15 -72 -64 -116t-122 -44q-79 0 -115 52.5t-18 135.5l37 174q18 83 67 130.5t122 47.5q78 0 115 -49t22 -115
l-2 -8h-20zM441 721l-143 -124h-18l-90 124h25l75 -104l120 104h31z" />
    <glyph glyph-name="Dcaron" unicode="&#x10e;" horiz-adv-x="555" 
d="M186 710h164q103 0 154.5 -65t27.5 -172l-54 -256q-22 -100 -94.5 -158.5t-176.5 -58.5h-172zM202 690l-142 -670h148q96 0 163 53.5t87 145.5l53 252q22 103 -22 161t-139 58h-148zM518 911l-143 -124h-18l-90 124h25l75 -104l120 104h31z" />
    <glyph glyph-name="dcaron" unicode="&#x10f;" horiz-adv-x="510" 
d="M587 710l-50 -176h-20l49 176h21zM272 530q112 0 133 -98l63 297h20l-155 -729h-20l15 70q-50 -80 -151 -80q-76 0 -112 52.5t-18 136.5l37 173q16 82 66.5 130t121.5 48zM347 161l38 178q17 79 -12.5 125t-97.5 46q-66 0 -111 -42.5t-60 -117.5l-36 -169
q-18 -81 12 -126t100 -45q65 0 108.5 40.5t58.5 110.5z" />
    <glyph glyph-name="Dcroat" unicode="&#x110;" horiz-adv-x="568" 
d="M198 710h164q103 0 154.5 -65t27.5 -172l-54 -256q-22 -100 -94.5 -158.5t-176.5 -58.5h-172l75 353h-92l4 20h92zM214 690l-67 -317h185l-4 -20h-185l-71 -333h148q96 0 163 53.5t87 145.5l53 252q22 103 -22 161t-139 58h-148z" />
    <glyph glyph-name="dcroat" unicode="&#x111;" horiz-adv-x="466" 
d="M272 530q112 0 133 -98l37 176h-150l4 20h150l22 101h20l-22 -101h66l-4 -20h-66l-129 -608h-20l15 70q-50 -80 -151 -80q-76 0 -112 52.5t-18 136.5l37 173q16 82 66.5 130t121.5 48zM347 161l38 178q17 79 -12.5 125t-97.5 46q-66 0 -111 -42.5t-60 -117.5l-36 -169
q-18 -81 12 -126t100 -45q65 0 108.5 40.5t58.5 110.5z" />
    <glyph glyph-name="Emacron" unicode="&#x112;" horiz-adv-x="473" 
d="M521 690h-319l-67 -317h271l-5 -20h-270l-71 -333h326l-4 -20h-347l151 710h340zM488 847l-4 -20h-224l4 20h224z" />
    <glyph glyph-name="emacron" unicode="&#x113;" horiz-adv-x="451" 
d="M272 530q83 0 120.5 -53t19.5 -136l-17 -76h-311l-18 -84q-16 -73 15.5 -122t103.5 -49q67 0 111 38.5t57 103.5l2 11h21l-3 -12q-14 -73 -64 -117t-123 -44q-82 0 -119.5 55.5t-21.5 133.5l37 173q17 82 67.5 130t122.5 48zM103 350l-14 -65h289l13 54q17 81 -13.5 126
t-104.5 45q-66 0 -111 -42.5t-59 -117.5zM420 657l-4 -20h-224l4 20h224z" />
    <glyph glyph-name="Ebreve" unicode="&#x114;" horiz-adv-x="473" 
d="M521 690h-319l-67 -317h271l-5 -20h-270l-71 -333h326l-4 -20h-347l151 710h340zM491 909h20q-11 -54 -48 -83t-91 -29q-57 0 -86 30.5t-18 81.5h20q-10 -44 13 -68t71 -24q46 0 77.5 24t41.5 68z" />
    <glyph glyph-name="ebreve" unicode="&#x115;" horiz-adv-x="451" 
d="M272 530q83 0 120.5 -53t19.5 -136l-17 -76h-311l-18 -84q-16 -73 15.5 -122t103.5 -49q67 0 111 38.5t57 103.5l2 11h21l-3 -12q-14 -73 -64 -117t-123 -44q-82 0 -119.5 55.5t-21.5 133.5l37 173q17 82 67.5 130t122.5 48zM103 350l-14 -65h289l13 54q17 81 -13.5 126
t-104.5 45q-66 0 -111 -42.5t-59 -117.5zM423 719h20q-11 -54 -48 -83t-91 -29q-57 0 -86 30.5t-18 81.5h20q-10 -44 13 -68t71 -24q46 0 77.5 24t41.5 68z" />
    <glyph glyph-name="Edotaccent" unicode="&#x116;" horiz-adv-x="473" 
d="M521 690h-319l-67 -317h271l-5 -20h-270l-71 -333h326l-4 -20h-347l151 710h340zM407 902l-9 -44h-44l9 44h44z" />
    <glyph glyph-name="edotaccent" unicode="&#x117;" horiz-adv-x="451" 
d="M272 530q83 0 120.5 -53t19.5 -136l-17 -76h-311l-18 -84q-16 -73 15.5 -122t103.5 -49q67 0 111 38.5t57 103.5l2 11h21l-3 -12q-14 -73 -64 -117t-123 -44q-82 0 -119.5 55.5t-21.5 133.5l37 173q17 82 67.5 130t122.5 48zM103 350l-14 -65h289l13 54q17 81 -13.5 126
t-104.5 45q-66 0 -111 -42.5t-59 -117.5zM338 712l-9 -44h-44l9 44h44z" />
    <glyph glyph-name="Eogonek" unicode="&#x118;" horiz-adv-x="473" 
d="M521 690h-319l-67 -317h271l-5 -20h-270l-71 -333h326l-4 -20h-347l151 710h340zM348 17l12 -17l-56 -64q-22 -24 -27 -43q-7 -36 39 -36h31l-4 -20h-28q-32 0 -47.5 16t-10.5 40q4 24 28 51z" />
    <glyph glyph-name="eogonek" unicode="&#x119;" horiz-adv-x="451" 
d="M273 530q83 0 120.5 -53t19.5 -136l-17 -76h-311l-18 -84q-16 -73 15.5 -122t103.5 -49q67 0 111 38.5t57 103.5l2 11h21l-3 -12q-17 -81 -74 -124l-79 -91q-22 -24 -27 -43q-8 -36 39 -36h31l-4 -20h-28q-32 0 -47.5 16t-10.5 40q5 25 28 51l49 56q-29 -10 -64 -10
q-82 0 -119.5 55.5t-21.5 133.5l37 173q17 82 67.5 130t122.5 48zM104 350l-14 -65h289l13 54q17 81 -13.5 126t-104.5 45q-66 0 -111 -42.5t-59 -117.5z" />
    <glyph glyph-name="Ecaron" unicode="&#x11a;" horiz-adv-x="473" 
d="M521 690h-319l-67 -317h271l-5 -20h-270l-71 -333h326l-4 -20h-347l151 710h340zM516 911l-143 -124h-18l-90 124h25l75 -104l120 104h31z" />
    <glyph glyph-name="ecaron" unicode="&#x11b;" horiz-adv-x="451" 
d="M272 530q83 0 120.5 -53t19.5 -136l-17 -76h-311l-18 -84q-16 -73 15.5 -122t103.5 -49q67 0 111 38.5t57 103.5l2 11h21l-3 -12q-14 -73 -64 -117t-123 -44q-82 0 -119.5 55.5t-21.5 133.5l37 173q17 82 67.5 130t122.5 48zM103 350l-14 -65h289l13 54q17 81 -13.5 126
t-104.5 45q-66 0 -111 -42.5t-59 -117.5zM447 721l-143 -124h-18l-90 124h25l75 -104l120 104h31z" />
    <glyph glyph-name="Gcircumflex" unicode="&#x11c;" horiz-adv-x="550" 
d="M239 10q81 0 140 54t77 146l24 114h-193l4 20h214l-73 -344h-21l22 103q-67 -113 -195 -113q-98 0 -146 68t-25 175l56 261q21 105 84.5 165.5t155.5 60.5q94 0 140 -59.5t28 -149.5l-1 -5h-21l1 3q18 85 -21.5 138t-125.5 53q-82 0 -141 -56t-79 -152l-55 -257
q-22 -102 19.5 -163.5t131.5 -61.5zM253 786l143 124h18l90 -124h-25l-76 104l-119 -104h-31z" />
    <glyph glyph-name="gcircumflex" unicode="&#x11d;" horiz-adv-x="465" 
d="M270 530q113 0 133 -97l19 87h21l-113 -530q-16 -77 -65 -122.5t-120 -45.5q-74 0 -111.5 39.5t-24.5 93.5l2 11h21l-2 -9q-12 -50 18.5 -82.5t96.5 -32.5q64 0 107 41t58 109l20 94q-50 -78 -151 -78q-75 0 -111.5 53t-18.5 135l33 156q17 83 67.5 130.5t120.5 47.5z
M350 178l34 161q18 80 -12 125.5t-99 45.5q-65 0 -110 -42.5t-60 -117.5l-33 -152q-17 -80 13 -125t99 -45q65 0 109 41t59 109zM170 596l143 124h18l90 -124h-25l-76 104l-119 -104h-31z" />
    <glyph glyph-name="Gbreve" unicode="&#x11e;" horiz-adv-x="550" 
d="M239 10q81 0 140 54t77 146l24 114h-193l4 20h214l-73 -344h-21l22 103q-67 -113 -195 -113q-98 0 -146 68t-25 175l56 261q21 105 84.5 165.5t155.5 60.5q94 0 140 -59.5t28 -149.5l-1 -5h-21l1 3q18 85 -21.5 138t-125.5 53q-82 0 -141 -56t-79 -152l-55 -257
q-22 -102 19.5 -163.5t131.5 -61.5zM505 909h20q-11 -54 -48 -83t-91 -29q-57 0 -86 30.5t-18 81.5h20q-10 -44 13 -68t71 -24q46 0 77.5 24t41.5 68z" />
    <glyph glyph-name="gbreve" unicode="&#x11f;" horiz-adv-x="465" 
d="M270 530q113 0 133 -97l19 87h21l-113 -530q-16 -77 -65 -122.5t-120 -45.5q-74 0 -111.5 39.5t-24.5 93.5l2 11h21l-2 -9q-12 -50 18.5 -82.5t96.5 -32.5q64 0 107 41t58 109l20 94q-50 -78 -151 -78q-75 0 -111.5 53t-18.5 135l33 156q17 83 67.5 130.5t120.5 47.5z
M350 178l34 161q18 80 -12 125.5t-99 45.5q-65 0 -110 -42.5t-60 -117.5l-33 -152q-17 -80 13 -125t99 -45q65 0 109 41t59 109zM423 719h20q-11 -54 -48 -83t-91 -29q-57 0 -86 30.5t-18 81.5h20q-10 -44 13 -68t71 -24q46 0 77.5 24t41.5 68z" />
    <glyph glyph-name="Gdotaccent" unicode="&#x120;" horiz-adv-x="550" 
d="M239 10q81 0 140 54t77 146l24 114h-193l4 20h214l-73 -344h-21l22 103q-67 -113 -195 -113q-98 0 -146 68t-25 175l56 261q21 105 84.5 165.5t155.5 60.5q94 0 140 -59.5t28 -149.5l-1 -5h-21l1 3q18 85 -21.5 138t-125.5 53q-82 0 -141 -56t-79 -152l-55 -257
q-22 -102 19.5 -163.5t131.5 -61.5zM421 902l-9 -44h-44l9 44h44z" />
    <glyph glyph-name="gdotaccent" unicode="&#x121;" horiz-adv-x="465" 
d="M270 530q113 0 133 -97l19 87h21l-113 -530q-16 -77 -65 -122.5t-120 -45.5q-74 0 -111.5 39.5t-24.5 93.5l2 11h21l-2 -9q-12 -50 18.5 -82.5t96.5 -32.5q64 0 107 41t58 109l20 94q-50 -78 -151 -78q-75 0 -111.5 53t-18.5 135l33 156q17 83 67.5 130.5t120.5 47.5z
M350 178l34 161q18 80 -12 125.5t-99 45.5q-65 0 -110 -42.5t-60 -117.5l-33 -152q-17 -80 13 -125t99 -45q65 0 109 41t59 109zM338 712l-9 -44h-44l9 44h44z" />
    <glyph glyph-name="uni0122" unicode="&#x122;" horiz-adv-x="550" 
d="M239 10q81 0 140 54t77 146l24 114h-193l4 20h214l-73 -344h-21l22 103q-67 -113 -195 -113q-98 0 -146 68t-25 175l56 261q21 105 84.5 165.5t155.5 60.5q94 0 140 -59.5t28 -149.5l-1 -5h-21l1 3q18 85 -21.5 138t-125.5 53q-82 0 -141 -56t-79 -152l-55 -257
q-22 -102 19.5 -163.5t131.5 -61.5zM180 -171l39 74h-22l9 44h44l-8 -38h1l-42 -80h-21z" />
    <glyph glyph-name="uni0123" unicode="&#x123;" horiz-adv-x="465" 
d="M270 530q113 0 133 -97l19 87h21l-113 -530q-16 -77 -65 -122.5t-120 -45.5q-74 0 -111.5 39.5t-24.5 93.5l2 11h21l-2 -9q-12 -50 18.5 -82.5t96.5 -32.5q64 0 107 41t58 109l20 94q-50 -78 -151 -78q-75 0 -111.5 53t-18.5 135l33 156q17 83 67.5 130.5t120.5 47.5z
M350 178l34 161q18 80 -12 125.5t-99 45.5q-65 0 -110 -42.5t-60 -117.5l-33 -152q-17 -80 13 -125t99 -45q65 0 109 41t59 109zM345 720l-40 -79h21l-9 -44h-44l8 38l43 85h21z" />
    <glyph glyph-name="Hcircumflex" unicode="&#x124;" horiz-adv-x="567" 
d="M555 710h21l-151 -710h-21l75 353h-349l-75 -353h-21l151 710h21l-72 -337h349zM272 786l143 124h18l90 -124h-25l-76 104l-119 -104h-31z" />
    <glyph glyph-name="hcircumflex" unicode="&#x125;" horiz-adv-x="463" 
d="M315 0l76 355q16 75 -11 115t-93 40q-64 0 -108.5 -41t-59.5 -114l-75 -355h-21l155 729h20l-60 -281q54 82 154 82q71 0 103.5 -47t16.5 -125l-76 -358h-21zM214 773l143 124h18l90 -124h-25l-76 104l-119 -104h-31z" />
    <glyph glyph-name="Hbar" unicode="&#x126;" horiz-adv-x="584" 
d="M563 710h21l-35 -164h85l-4 -20h-85l-112 -526h-21l75 353h-349l-75 -353h-21l112 526h-86l4 20h86l35 164h21l-35 -164h349zM175 526l-33 -153h349l33 153h-349z" />
    <glyph glyph-name="hbar" unicode="&#x127;" horiz-adv-x="464" 
d="M315 0l76 355q16 75 -11 115t-93 40q-64 0 -108.5 -41t-59.5 -114l-75 -355h-21l129 608h-69l4 20h69l22 101h20l-22 -101h150l-4 -20h-150l-34 -160q54 82 154 82q71 0 103.5 -47t16.5 -125l-76 -358h-21z" />
    <glyph glyph-name="Itilde" unicode="&#x128;" horiz-adv-x="199" 
d="M186 710h21l-151 -710h-21zM338 886h20q-5 -36 -24 -58.5t-45 -22.5q-28 0 -69 37q-38 31 -58 31q-37 0 -49 -61h-20q5 36 24 58.5t45 22.5q30 0 70 -36q34 -32 57 -32q37 0 49 61z" />
    <glyph glyph-name="itilde" unicode="&#x129;" horiz-adv-x="176" 
d="M154 520l-110 -520h-21l111 520h20zM286 696h20q-5 -36 -24 -58.5t-45 -22.5q-28 0 -69 37q-38 31 -58 31q-37 0 -49 -61h-20q5 36 24 58.5t45 22.5q30 0 70 -36q34 -32 57 -32q37 0 49 61z" />
    <glyph glyph-name="Imacron" unicode="&#x12a;" horiz-adv-x="199" 
d="M186 710h21l-151 -710h-21zM338 847l-4 -20h-224l4 20h224z" />
    <glyph glyph-name="imacron" unicode="&#x12b;" horiz-adv-x="176" 
d="M154 520l-110 -520h-21l111 520h20zM286 657l-4 -20h-224l4 20h224z" />
    <glyph glyph-name="Ibreve" unicode="&#x12c;" horiz-adv-x="199" 
d="M186 710h21l-151 -710h-21zM341 909h20q-11 -54 -48 -83t-91 -29q-57 0 -86 30.5t-18 81.5h20q-10 -44 13 -68t71 -24q46 0 77.5 24t41.5 68z" />
    <glyph glyph-name="ibreve" unicode="&#x12d;" horiz-adv-x="176" 
d="M154 520l-110 -520h-21l111 520h20zM289 719h20q-11 -54 -48 -83t-91 -29q-57 0 -86 30.5t-18 81.5h20q-10 -44 13 -68t71 -24q46 0 77.5 24t41.5 68z" />
    <glyph glyph-name="Iogonek" unicode="&#x12e;" horiz-adv-x="198" 
d="M185 710h21l-151 -710l-44 -59q-22 -28 -26 -46q-4 -19 6 -28.5t34 -9.5h37l-4 -20h-33q-33 0 -49 16.5t-11 41.5q4 23 31 56l39 53z" />
    <glyph glyph-name="iogonek" unicode="&#x12f;" horiz-adv-x="176" 
d="M154 520l-110 -520l-44 -59q-22 -28 -26 -46q-4 -19 6 -28.5t34 -9.5h37l-4 -20h-34q-32 0 -48 16.5t-11 41.5q4 23 31 56l39 55l110 514h20zM204 712l-9 -44h-44l9 44h44z" />
    <glyph glyph-name="Idotaccent" unicode="&#x130;" horiz-adv-x="199" 
d="M186 710h21l-151 -710h-21zM256 902l-9 -44h-44l9 44h44z" />
    <glyph glyph-name="dotlessi" unicode="&#x131;" horiz-adv-x="176" 
d="M154 520l-110 -520h-21l111 520h20z" />
    <glyph glyph-name="Jcircumflex" unicode="&#x134;" horiz-adv-x="465" 
d="M457 710h20l-118 -554q-16 -75 -71 -120.5t-133 -45.5t-117.5 48t-23.5 118l7 36h21l-8 -35q-14 -67 19 -107t102 -40q70 0 120 40t64 107zM358 786l143 124h18l90 -124h-25l-76 104l-119 -104h-31z" />
    <glyph glyph-name="jcircumflex" unicode="&#x135;" horiz-adv-x="175" 
d="M9 -70l125 590h21l-126 -592q-9 -40 -36 -65.5t-62 -25.5h-28l4 19h25q60 0 77 74zM36 596l143 124h18l90 -124h-25l-76 104l-119 -104h-31z" />
    <glyph glyph-name="uni0136" unicode="&#x136;" 
d="M534 710h28l-310 -307l187 -403h-21l-181 389l-125 -123l-56 -266h-21l151 710h21l-87 -410zM171 -171l39 74h-22l9 44h44l-8 -38h1l-42 -80h-21z" />
    <glyph glyph-name="uni0137" unicode="&#x137;" horiz-adv-x="401" 
d="M314 0l-139 288l-87 -79l-44 -209h-21l155 729h20l-103 -489l304 280h28l-236 -218l145 -302h-22zM118 -171l39 74h-22l9 44h44l-8 -38h1l-42 -80h-21z" />
    <glyph glyph-name="Lacute" unicode="&#x139;" horiz-adv-x="424" 
d="M207 710l-147 -690h303l-4 -20h-324l151 710h21zM317 919l-100 -132h-25l100 132h25z" />
    <glyph glyph-name="lacute" unicode="&#x13a;" horiz-adv-x="176" 
d="M178 729h20l-154 -729h-21zM302 906l-100 -132h-25l100 132h25z" />
    <glyph glyph-name="uni013B" unicode="&#x13b;" horiz-adv-x="424" 
d="M207 710l-147 -690h303l-4 -20h-324l151 710h21zM147 -171l39 74h-22l9 44h44l-8 -38h1l-42 -80h-21z" />
    <glyph glyph-name="uni013C" unicode="&#x13c;" horiz-adv-x="176" 
d="M178 729h20l-154 -729h-21zM-24 -171l39 74h-22l9 44h44l-8 -38h1l-42 -80h-21z" />
    <glyph glyph-name="Lcaron" unicode="&#x13d;" horiz-adv-x="417" 
d="M207 710l-147 -690h303l-4 -20h-324l151 710h21zM359 710l-50 -176h-20l49 176h21z" />
    <glyph glyph-name="lcaron" unicode="&#x13e;" horiz-adv-x="219" 
d="M178 729h20l-154 -729h-21zM296 710l-50 -176h-20l49 176h21z" />
    <glyph glyph-name="Ldot" unicode="&#x13f;" horiz-adv-x="424" 
d="M207 710l-147 -690h303l-4 -20h-324l151 710h21zM362 386l-9 -44h-44l9 44h44z" />
    <glyph glyph-name="ldot" unicode="&#x140;" horiz-adv-x="248" 
d="M178 729h20l-154 -729h-21zM264 385l-9 -44h-44l9 44h44z" />
    <glyph glyph-name="Lslash" unicode="&#x141;" horiz-adv-x="429" 
d="M212 710l-75 -351l215 66l-4 -22l-216 -66l-67 -317h303l-4 -20h-324l70 331l-88 -27l4 22l89 27l76 357h21z" />
    <glyph glyph-name="lslash" unicode="&#x142;" horiz-adv-x="275" 
d="M227 729h20l-69 -325l108 44l-5 -23l-108 -43l-80 -382h-21l79 375l-107 -44l5 23l107 43z" />
    <glyph glyph-name="Nacute" unicode="&#x143;" horiz-adv-x="582" 
d="M591 710l-151 -710h-18l-225 668l-141 -668h-21l151 710h19l223 -667l142 667h21zM497 919l-100 -132h-25l100 132h25z" />
    <glyph glyph-name="nacute" unicode="&#x144;" horiz-adv-x="463" 
d="M315 0l76 355q16 75 -11 115t-93 40q-60 0 -103.5 -36t-60.5 -102l-79 -372h-21l111 520h20l-15 -72q54 82 153 82q71 0 103.5 -47t16.5 -125l-76 -358h-21zM400 729l-100 -132h-25l100 132h25z" />
    <glyph glyph-name="uni0145" unicode="&#x145;" horiz-adv-x="582" 
d="M591 710l-151 -710h-18l-225 668l-141 -668h-21l151 710h19l223 -667l142 667h21zM187 -171l39 74h-22l9 44h44l-8 -38h1l-42 -80h-21z" />
    <glyph glyph-name="uni0146" unicode="&#x146;" horiz-adv-x="463" 
d="M315 0l76 355q16 75 -11 115t-93 40q-60 0 -103.5 -36t-60.5 -102l-79 -372h-21l111 520h20l-15 -72q54 82 153 82q71 0 103.5 -47t16.5 -125l-76 -358h-21zM129 -171l39 74h-22l9 44h44l-8 -38h1l-42 -80h-21z" />
    <glyph glyph-name="Ncaron" unicode="&#x147;" horiz-adv-x="582" 
d="M591 710l-151 -710h-18l-225 668l-141 -668h-21l151 710h19l223 -667l142 667h21zM546 911l-143 -124h-18l-90 124h25l75 -104l120 104h31z" />
    <glyph glyph-name="ncaron" unicode="&#x148;" horiz-adv-x="463" 
d="M315 0l76 355q16 75 -11 115t-93 40q-60 0 -103.5 -36t-60.5 -102l-79 -372h-21l111 520h20l-15 -72q54 82 153 82q71 0 103.5 -47t16.5 -125l-76 -358h-21zM449 721l-143 -124h-18l-90 124h25l75 -104l120 104h31z" />
    <glyph glyph-name="Eng" unicode="&#x14a;" horiz-adv-x="582" 
d="M591 710l-151 -710l-15 -72q-8 -41 -33.5 -66t-60.5 -25h-39l4 19h32q60 0 77 74l15 74l-223 664l-141 -668h-21l151 710h19l223 -667l142 667h21z" />
    <glyph glyph-name="eng" unicode="&#x14b;" horiz-adv-x="464" 
d="M292 530q71 0 103.5 -47t16.5 -125l-92 -430q-20 -91 -97 -91h-26l4 19h22q60 0 77 74l91 425q16 75 -11 115t-93 40q-60 0 -103.5 -36t-60.5 -102l-79 -372h-21l111 520h20l-15 -72q54 82 153 82z" />
    <glyph glyph-name="Omacron" unicode="&#x14c;" horiz-adv-x="562" 
d="M373 720q96 0 142 -67.5t22 -175.5l-56 -264q-23 -102 -89.5 -162.5t-159.5 -60.5q-96 0 -142.5 67t-22.5 176l56 264q20 100 88.5 161.5t161.5 61.5zM372 700q-85 0 -147 -55.5t-82 -149.5l-55 -260q-23 -106 16.5 -165.5t127.5 -59.5q85 0 147 55.5t82 149.5l55 260
q23 106 -16.5 165.5t-127.5 59.5zM517 847l-4 -20h-224l4 20h224z" />
    <glyph glyph-name="omacron" unicode="&#x14d;" horiz-adv-x="456" 
d="M277 530q79 0 116.5 -54.5t17.5 -143.5l-35 -164q-18 -82 -68.5 -130t-126.5 -48q-79 0 -116.5 54.5t-17.5 143.5l35 164q18 82 68.5 130t126.5 48zM356 170l35 160q19 86 -11 133t-102 47q-68 0 -114 -43t-61 -117l-34 -160q-19 -86 11 -133t102 -47q68 0 113.5 43
t60.5 117zM423 657l-4 -20h-224l4 20h224z" />
    <glyph glyph-name="Obreve" unicode="&#x14e;" horiz-adv-x="562" 
d="M373 720q96 0 142 -67.5t22 -175.5l-56 -264q-23 -102 -89.5 -162.5t-159.5 -60.5q-96 0 -142.5 67t-22.5 176l56 264q20 100 88.5 161.5t161.5 61.5zM372 700q-85 0 -147 -55.5t-82 -149.5l-55 -260q-23 -106 16.5 -165.5t127.5 -59.5q85 0 147 55.5t82 149.5l55 260
q23 106 -16.5 165.5t-127.5 59.5zM520 909h20q-11 -54 -48 -83t-91 -29q-57 0 -86 30.5t-18 81.5h20q-10 -44 13 -68t71 -24q46 0 77.5 24t41.5 68z" />
    <glyph glyph-name="obreve" unicode="&#x14f;" horiz-adv-x="456" 
d="M277 530q79 0 116.5 -54.5t17.5 -143.5l-35 -164q-18 -82 -68.5 -130t-126.5 -48q-79 0 -116.5 54.5t-17.5 143.5l35 164q18 82 68.5 130t126.5 48zM356 170l35 160q19 86 -11 133t-102 47q-68 0 -114 -43t-61 -117l-34 -160q-19 -86 11 -133t102 -47q68 0 113.5 43
t60.5 117zM426 719h20q-11 -54 -48 -83t-91 -29q-57 0 -86 30.5t-18 81.5h20q-10 -44 13 -68t71 -24q46 0 77.5 24t41.5 68z" />
    <glyph glyph-name="Ohungarumlaut" unicode="&#x150;" horiz-adv-x="562" 
d="M373 720q96 0 142 -67.5t22 -175.5l-56 -264q-23 -102 -89.5 -162.5t-159.5 -60.5q-96 0 -142.5 67t-22.5 176l56 264q20 100 88.5 161.5t161.5 61.5zM372 700q-85 0 -147 -55.5t-82 -149.5l-55 -260q-23 -106 16.5 -165.5t127.5 -59.5q85 0 147 55.5t82 149.5l55 260
q23 106 -16.5 165.5t-127.5 59.5zM429 911l-95 -124h-25l94 124h26zM573 911l-95 -124h-25l94 124h26z" />
    <glyph glyph-name="ohungarumlaut" unicode="&#x151;" horiz-adv-x="456" 
d="M277 530q79 0 116.5 -54.5t17.5 -143.5l-35 -164q-18 -82 -68.5 -130t-126.5 -48q-79 0 -116.5 54.5t-17.5 143.5l35 164q18 82 68.5 130t126.5 48zM356 170l35 160q19 86 -11 133t-102 47q-68 0 -114 -43t-61 -117l-34 -160q-19 -86 11 -133t102 -47q68 0 113.5 43
t60.5 117zM335 721l-95 -124h-25l94 124h26zM479 721l-95 -124h-25l94 124h26z" />
    <glyph glyph-name="OE" unicode="&#x152;" horiz-adv-x="854" 
d="M901 690h-319l-67 -317h271l-5 -20h-270l-71 -333h326l-4 -20h-347l23 106q-71 -116 -202 -116q-99 0 -146 66.5t-23 176.5l56 264q20 101 86.5 162t158.5 61q71 0 115.5 -35t55.5 -99l27 124h340zM368 700q-84 0 -145 -56t-79 -149l-56 -260q-23 -106 17.5 -165.5
t131.5 -59.5q84 0 144 55.5t80 149.5l55 260q24 106 -16.5 165.5t-131.5 59.5z" />
    <glyph glyph-name="oe" unicode="&#x153;" horiz-adv-x="762" 
d="M588 530q80 0 116.5 -53t18.5 -136l-16 -76h-311l-18 -84q-17 -81 13.5 -126t103.5 -45q67 0 111.5 38.5t57.5 103.5l3 11h20l-2 -12q-15 -73 -65 -117t-126 -44q-62 0 -97.5 29.5t-42.5 83.5q-53 -113 -172 -113q-80 0 -117 54t-17 144l35 164q18 82 68 130t126 48
q60 0 95.5 -30.5t42.5 -84.5q24 55 69 85t104 30zM356 170l3 15l32 145l4 21v1v2q11 74 -20.5 115t-97.5 41q-67 0 -113 -43t-61 -117l-34 -160q-19 -86 11.5 -133t102.5 -47q67 0 112.5 43t60.5 117zM414 350l-14 -65h290l13 54q17 80 -13 125.5t-102 45.5
q-68 0 -113.5 -42.5t-60.5 -117.5z" />
    <glyph glyph-name="Racute" unicode="&#x154;" horiz-adv-x="532" 
d="M186 710h169q82 0 123.5 -50.5t25.5 -129.5q-16 -80 -75.5 -128.5t-140.5 -48.5h-48l237 -353h-24l-237 353h-85l-75 -353h-21zM355 690h-152l-68 -317h153q73 0 126 42.5t70 114.5q15 71 -20 115.5t-109 44.5zM453 919l-100 -132h-25l100 132h25z" />
    <glyph glyph-name="racute" unicode="&#x155;" horiz-adv-x="282" 
d="M312 510h-24q-59 0 -105.5 -43t-64.5 -119l-74 -348h-21l111 520h20l-18 -85q55 95 155 95h26zM335 729l-100 -132h-25l100 132h25z" />
    <glyph glyph-name="uni0156" unicode="&#x156;" horiz-adv-x="532" 
d="M186 710h169q82 0 123.5 -50.5t25.5 -129.5q-16 -80 -75.5 -128.5t-140.5 -48.5h-48l237 -353h-24l-237 353h-85l-75 -353h-21zM355 690h-152l-68 -317h153q73 0 126 42.5t70 114.5q15 71 -20 115.5t-109 44.5zM184 -171l39 74h-22l9 44h44l-8 -38h1l-42 -80h-21z" />
    <glyph glyph-name="uni0157" unicode="&#x157;" horiz-adv-x="282" 
d="M312 510h-24q-59 0 -105.5 -43t-64.5 -119l-74 -348h-21l111 520h20l-18 -85q55 95 155 95h26zM-24 -171l39 74h-22l9 44h44l-8 -38h1l-42 -80h-21z" />
    <glyph glyph-name="Rcaron" unicode="&#x158;" horiz-adv-x="532" 
d="M186 710h169q82 0 123.5 -50.5t25.5 -129.5q-16 -80 -75.5 -128.5t-140.5 -48.5h-48l237 -353h-24l-237 353h-85l-75 -353h-21zM355 690h-152l-68 -317h153q73 0 126 42.5t70 114.5q15 71 -20 115.5t-109 44.5zM502 911l-143 -124h-18l-90 124h25l75 -104l120 104h31z
" />
    <glyph glyph-name="rcaron" unicode="&#x159;" horiz-adv-x="282" 
d="M312 510h-24q-59 0 -105.5 -43t-64.5 -119l-74 -348h-21l111 520h20l-18 -85q55 95 155 95h26zM384 721l-143 -124h-18l-90 124h25l75 -104l120 104h31z" />
    <glyph glyph-name="Sacute" unicode="&#x15a;" horiz-adv-x="510" 
d="M478 494l2 10q20 92 -18 144t-129 52q-68 0 -119 -39t-66 -97q-15 -66 10 -107t95 -68l70 -27q148 -57 116 -207q-16 -73 -77.5 -119t-145.5 -46q-95 0 -147 62t-34 144l5 26h21l-6 -25q-16 -79 29 -133t132 -54q75 0 132 40.5t71 104.5q15 71 -9.5 116t-97.5 74l-69 26
q-145 55 -116 193q14 67 71.5 111.5t134.5 44.5q99 0 143 -59.5t24 -156.5l-2 -10h-20zM462 919l-100 -132h-25l100 132h25z" />
    <glyph glyph-name="sacute" unicode="&#x15b;" horiz-adv-x="418" 
d="M360 358l2 10q15 68 -16 105t-96 37q-55 0 -92.5 -28t-45.5 -68q-19 -91 74 -128l51 -19q124 -46 104 -154q-12 -56 -56 -89.5t-117 -33.5q-74 0 -116.5 47t-28.5 107l4 19h21l-3 -15q-14 -63 24 -100.5t99 -37.5q64 0 103.5 27.5t48.5 73.5q11 54 -13 86t-81 53l-49 18
q-45 16 -70 52.5t-16 91.5q8 51 52.5 84.5t106.5 33.5q74 0 111.5 -44.5t21.5 -118.5l-2 -9h-21zM372 729l-100 -132h-25l100 132h25z" />
    <glyph glyph-name="Scircumflex" unicode="&#x15c;" horiz-adv-x="510" 
d="M478 494l2 10q20 92 -18 144t-129 52q-68 0 -119 -39t-66 -97q-15 -66 10 -107t95 -68l70 -27q148 -57 116 -207q-16 -73 -77.5 -119t-145.5 -46q-95 0 -147 62t-34 144l5 26h21l-6 -25q-16 -79 29 -133t132 -54q75 0 132 40.5t71 104.5q15 71 -9.5 116t-97.5 74l-69 26
q-145 55 -116 193q14 67 71.5 111.5t134.5 44.5q99 0 143 -59.5t24 -156.5l-2 -10h-20zM234 786l143 124h18l90 -124h-25l-76 104l-119 -104h-31z" />
    <glyph glyph-name="scircumflex" unicode="&#x15d;" horiz-adv-x="418" 
d="M360 358l2 10q15 68 -16 105t-96 37q-55 0 -92.5 -28t-45.5 -68q-19 -91 74 -128l51 -19q124 -46 104 -154q-12 -56 -56 -89.5t-117 -33.5q-74 0 -116.5 47t-28.5 107l4 19h21l-3 -15q-14 -63 24 -100.5t99 -37.5q64 0 103.5 27.5t48.5 73.5q11 54 -13 86t-81 53l-49 18
q-45 16 -70 52.5t-16 91.5q8 51 52.5 84.5t106.5 33.5q74 0 111.5 -44.5t21.5 -118.5l-2 -9h-21zM144 596l143 124h18l90 -124h-25l-76 104l-119 -104h-31z" />
    <glyph glyph-name="Scedilla" unicode="&#x15e;" horiz-adv-x="510" 
d="M478 494l2 10q20 92 -18 144t-129 52q-68 0 -119 -39t-66 -97q-15 -66 10 -107t95 -68l70 -27q148 -57 116 -207q-16 -73 -77.5 -119t-145.5 -46q-95 0 -147 62t-34 144l5 26h21l-6 -25q-16 -79 29 -133t132 -54q75 0 132 40.5t71 104.5q15 71 -9.5 116t-97.5 74l-69 26
q-145 55 -116 193q14 67 71.5 111.5t134.5 44.5q99 0 143 -59.5t24 -156.5l-2 -10h-20zM167 -152h-22l77 164l18 -7z" />
    <glyph glyph-name="scedilla" unicode="&#x15f;" horiz-adv-x="418" 
d="M360 358l2 10q15 68 -16 105t-96 37q-55 0 -92.5 -28t-45.5 -68q-19 -91 74 -128l51 -19q124 -46 104 -154q-12 -56 -56 -89.5t-117 -33.5q-74 0 -116.5 47t-28.5 107l4 19h21l-3 -15q-14 -63 24 -100.5t99 -37.5q64 0 103.5 27.5t48.5 73.5q11 54 -13 86t-81 53l-49 18
q-45 16 -70 52.5t-16 91.5q8 51 52.5 84.5t106.5 33.5q74 0 111.5 -44.5t21.5 -118.5l-2 -9h-21zM118 -152h-22l79 169l16 -12z" />
    <glyph glyph-name="Scaron" unicode="&#x160;" horiz-adv-x="510" 
d="M478 494l2 10q20 92 -18 144t-129 52q-68 0 -119 -39t-66 -97q-15 -66 10 -107t95 -68l70 -27q148 -57 116 -207q-16 -73 -77.5 -119t-145.5 -46q-95 0 -147 62t-34 144l5 26h21l-6 -25q-16 -79 29 -133t132 -54q75 0 132 40.5t71 104.5q15 71 -9.5 116t-97.5 74l-69 26
q-145 55 -116 193q14 67 71.5 111.5t134.5 44.5q99 0 143 -59.5t24 -156.5l-2 -10h-20zM511 911l-143 -124h-18l-90 124h25l75 -104l120 104h31z" />
    <glyph glyph-name="scaron" unicode="&#x161;" horiz-adv-x="418" 
d="M360 358l2 10q15 68 -16 105t-96 37q-55 0 -92.5 -28t-45.5 -68q-19 -91 74 -128l51 -19q124 -46 104 -154q-12 -56 -56 -89.5t-117 -33.5q-74 0 -116.5 47t-28.5 107l4 19h21l-3 -15q-14 -63 24 -100.5t99 -37.5q64 0 103.5 27.5t48.5 73.5q11 54 -13 86t-81 53l-49 18
q-45 16 -70 52.5t-16 91.5q8 51 52.5 84.5t106.5 33.5q74 0 111.5 -44.5t21.5 -118.5l-2 -9h-21zM421 721l-143 -124h-18l-90 124h25l75 -104l120 104h31z" />
    <glyph glyph-name="uni0162" unicode="&#x162;" horiz-adv-x="442" 
d="M522 710l-4 -20h-197l-146 -690h-21l146 690h-194l4 20h412zM106 -152h-22l77 164l18 -7z" />
    <glyph glyph-name="uni0163" unicode="&#x163;" horiz-adv-x="271" 
d="M291 500h-110l-84 -397q-9 -39 7 -61t53 -22h35l-4 -20h-33q-45 0 -66.5 29t-12.5 72l84 399h-87l4 20h88l36 170h20l-36 -170h110zM71 -152h-22l79 169l16 -12z" />
    <glyph glyph-name="Tcaron" unicode="&#x164;" horiz-adv-x="442" 
d="M522 710l-4 -20h-197l-146 -690h-21l146 690h-194l4 20h412zM479 911l-143 -124h-18l-90 124h25l75 -104l120 104h31z" />
    <glyph glyph-name="tcaron" unicode="&#x165;" horiz-adv-x="270" 
d="M291 500h-110l-84 -397q-9 -39 7 -61t53 -22h35l-4 -20h-33q-45 0 -66.5 29t-12.5 72l84 399h-87l4 20h88l36 170h20l-36 -170h110zM347 774l-50 -176h-20l49 176h21z" />
    <glyph glyph-name="Tbar" unicode="&#x166;" horiz-adv-x="462" 
d="M530 710l-4 -20h-197l-67 -317h135l-4 -20h-135l-75 -353h-21l75 353h-119l4 20h119l67 317h-194l4 20h412z" />
    <glyph glyph-name="tbar" unicode="&#x167;" horiz-adv-x="278" 
d="M295 500h-110l-36 -170h113l-4 -20h-113l-44 -207q-9 -39 7 -61t53 -22h35l-4 -20h-33q-45 0 -66.5 29t-12.5 72l44 209h-79l4 20h79l36 170h-87l4 20h88l36 170h20l-36 -170h110z" />
    <glyph glyph-name="Utilde" unicode="&#x168;" horiz-adv-x="564" 
d="M556 710h20l-108 -509q-20 -96 -82.5 -153.5t-149.5 -57.5q-93 0 -137.5 63.5t-22.5 167.5l105 489h20l-104 -488q-21 -98 17.5 -155t121.5 -57q79 0 136.5 52t75.5 140zM512 886h20q-5 -36 -24 -58.5t-45 -22.5q-28 0 -69 37q-38 31 -58 31q-37 0 -49 -61h-20
q5 36 24 58.5t45 22.5q30 0 70 -36q34 -32 57 -32q37 0 49 61z" />
    <glyph glyph-name="utilde" unicode="&#x169;" horiz-adv-x="464" 
d="M151 520l-76 -355q-16 -75 10.5 -115t92.5 -40q65 0 109.5 41t59.5 114l76 355h20l-110 -520h-21l15 71q-53 -81 -153 -81q-71 0 -103.5 47t-16.5 125l76 358h21zM422 696h20q-5 -36 -24 -58.5t-45 -22.5q-28 0 -69 37q-38 31 -58 31q-37 0 -49 -61h-20q5 36 24 58.5
t45 22.5q30 0 70 -36q34 -32 57 -32q37 0 49 61z" />
    <glyph glyph-name="Umacron" unicode="&#x16a;" horiz-adv-x="564" 
d="M556 710h20l-108 -509q-20 -96 -82.5 -153.5t-149.5 -57.5q-93 0 -137.5 63.5t-22.5 167.5l105 489h20l-104 -488q-21 -98 17.5 -155t121.5 -57q79 0 136.5 52t75.5 140zM512 847l-4 -20h-224l4 20h224z" />
    <glyph glyph-name="umacron" unicode="&#x16b;" horiz-adv-x="464" 
d="M151 520l-76 -355q-16 -75 10.5 -115t92.5 -40q65 0 109.5 41t59.5 114l76 355h20l-110 -520h-21l15 71q-53 -81 -153 -81q-71 0 -103.5 47t-16.5 125l76 358h21zM422 657l-4 -20h-224l4 20h224z" />
    <glyph glyph-name="Ubreve" unicode="&#x16c;" horiz-adv-x="564" 
d="M556 710h20l-108 -509q-20 -96 -82.5 -153.5t-149.5 -57.5q-93 0 -137.5 63.5t-22.5 167.5l105 489h20l-104 -488q-21 -98 17.5 -155t121.5 -57q79 0 136.5 52t75.5 140zM515 909h20q-11 -54 -48 -83t-91 -29q-57 0 -86 30.5t-18 81.5h20q-10 -44 13 -68t71 -24
q46 0 77.5 24t41.5 68z" />
    <glyph glyph-name="ubreve" unicode="&#x16d;" horiz-adv-x="464" 
d="M151 520l-76 -355q-16 -75 10.5 -115t92.5 -40q65 0 109.5 41t59.5 114l76 355h20l-110 -520h-21l15 71q-53 -81 -153 -81q-71 0 -103.5 47t-16.5 125l76 358h21zM425 719h20q-11 -54 -48 -83t-91 -29q-57 0 -86 30.5t-18 81.5h20q-10 -44 13 -68t71 -24q46 0 77.5 24
t41.5 68z" />
    <glyph glyph-name="Uring" unicode="&#x16e;" horiz-adv-x="564" 
d="M556 710h20l-108 -509q-20 -96 -82.5 -153.5t-149.5 -57.5q-93 0 -137.5 63.5t-22.5 167.5l105 489h20l-104 -488q-21 -98 17.5 -155t121.5 -57q79 0 136.5 52t75.5 140zM398 778q-42 0 -66.5 23.5t-20.5 60.5t31.5 60.5t68.5 23.5t66 -24.5t21 -59.5q-4 -38 -31 -61
t-69 -23zM398 798q34 0 55.5 17t24.5 47q3 29 -15.5 46.5t-51.5 17.5t-55 -17.5t-25 -46.5q-3 -30 14.5 -47t52.5 -17z" />
    <glyph glyph-name="uring" unicode="&#x16f;" horiz-adv-x="464" 
d="M151 520l-76 -355q-16 -75 10.5 -115t92.5 -40q65 0 109.5 41t59.5 114l76 355h20l-110 -520h-21l15 71q-53 -81 -153 -81q-71 0 -103.5 47t-16.5 125l76 358h21zM307 588q-42 0 -66.5 23.5t-20.5 60.5t31.5 60.5t68.5 23.5t66 -24.5t21 -59.5q-4 -38 -31 -61t-69 -23z
M307 608q34 0 55.5 17t24.5 47q3 29 -15.5 46.5t-51.5 17.5t-55 -17.5t-25 -46.5q-3 -30 14.5 -47t52.5 -17z" />
    <glyph glyph-name="Uhungarumlaut" unicode="&#x170;" horiz-adv-x="564" 
d="M556 710h20l-108 -509q-20 -96 -82.5 -153.5t-149.5 -57.5q-93 0 -137.5 63.5t-22.5 167.5l105 489h20l-104 -488q-21 -98 17.5 -155t121.5 -57q79 0 136.5 52t75.5 140zM424 911l-95 -124h-25l94 124h26zM568 911l-95 -124h-25l94 124h26z" />
    <glyph glyph-name="uhungarumlaut" unicode="&#x171;" horiz-adv-x="464" 
d="M151 520l-76 -355q-16 -75 10.5 -115t92.5 -40q65 0 109.5 41t59.5 114l76 355h20l-110 -520h-21l15 71q-53 -81 -153 -81q-71 0 -103.5 47t-16.5 125l76 358h21zM334 721l-95 -124h-25l94 124h26zM478 721l-95 -124h-25l94 124h26z" />
    <glyph glyph-name="Uogonek" unicode="&#x172;" horiz-adv-x="564" 
d="M556 710h20l-108 -509q-29 -140 -137 -190l-65 -75q-22 -24 -27 -43q-7 -36 39 -36h31l-4 -20h-28q-32 0 -47.5 16t-10.5 40q4 24 28 51l46 53q-33 -7 -57 -7q-93 0 -137.5 63.5t-22.5 167.5l105 489h20l-104 -488q-21 -98 17.5 -155t121.5 -57q79 0 136.5 52t75.5 140z
" />
    <glyph glyph-name="uogonek" unicode="&#x173;" horiz-adv-x="465" 
d="M333 0l-56 -64q-22 -24 -27 -43q-8 -36 39 -36h31l-4 -20h-28q-32 0 -47.5 16t-10.5 40q4 24 28 51l56 64l13 63q-53 -81 -153 -81q-71 0 -103.5 47t-16.5 125l76 358h21l-76 -355q-16 -75 10.5 -115t92.5 -40q65 0 109.5 41t59.5 114l76 355h20z" />
    <glyph glyph-name="Wcircumflex" unicode="&#x174;" horiz-adv-x="775" 
d="M851 710l-333 -710h-20l-24 665l-303 -665h-21l-33 710h20l30 -668l307 668h19l23 -667l313 667h22zM366 786l143 124h18l90 -124h-25l-76 104l-119 -104h-31z" />
    <glyph glyph-name="wcircumflex" unicode="&#x175;" horiz-adv-x="647" 
d="M652 520h22l-251 -520h-18l-33 479l-238 -479h-20l-27 520h20l25 -479l238 479h19l33 -478zM263 596l143 124h18l90 -124h-25l-76 104l-119 -104h-31z" />
    <glyph glyph-name="Ycircumflex" unicode="&#x176;" horiz-adv-x="486" 
d="M575 710l-296 -330l-80 -380h-21l80 381l-152 329h22l144 -310l276 310h27zM222 786l143 124h18l90 -124h-25l-76 104l-119 -104h-31z" />
    <glyph glyph-name="ycircumflex" unicode="&#x177;" horiz-adv-x="415" 
d="M454 520l-455 -686h-24l212 318l-101 368h20l95 -346l229 346h24zM156 596l143 124h18l90 -124h-25l-76 104l-119 -104h-31z" />
    <glyph glyph-name="Ydieresis" unicode="&#x178;" horiz-adv-x="486" 
d="M575 710l-296 -330l-80 -380h-21l80 381l-152 329h22l144 -310l276 310h27zM298 871l-9 -44h-44l9 44h44zM473 871l-9 -44h-44l9 44h44z" />
    <glyph glyph-name="Zacute" unicode="&#x179;" horiz-adv-x="438" 
d="M497 710l-3 -16l-485 -674h348l-5 -20h-374l4 16l484 674h-338l4 20h365zM418 919l-100 -132h-25l100 132h25z" />
    <glyph glyph-name="zacute" unicode="&#x17a;" horiz-adv-x="369" 
d="M15 19h271l-4 -19h-297l3 16l364 485h-261l4 19h288l-4 -16zM350 729l-100 -132h-25l100 132h25z" />
    <glyph glyph-name="Zdotaccent" unicode="&#x17b;" horiz-adv-x="438" 
d="M497 710l-3 -16l-485 -674h348l-5 -20h-374l4 16l484 674h-338l4 20h365zM358 902l-9 -44h-44l9 44h44z" />
    <glyph glyph-name="zdotaccent" unicode="&#x17c;" horiz-adv-x="369" 
d="M15 19h271l-4 -19h-297l3 16l364 485h-261l4 19h288l-4 -16zM290 712l-9 -44h-44l9 44h44z" />
    <glyph glyph-name="Zcaron" unicode="&#x17d;" horiz-adv-x="438" 
d="M497 710l-3 -16l-485 -674h348l-5 -20h-374l4 16l484 674h-338l4 20h365zM467 911l-143 -124h-18l-90 124h25l75 -104l120 104h31z" />
    <glyph glyph-name="zcaron" unicode="&#x17e;" horiz-adv-x="369" 
d="M15 19h271l-4 -19h-297l3 16l364 485h-261l4 19h288l-4 -16zM399 721l-143 -124h-18l-90 124h25l75 -104l120 104h31z" />
    <glyph glyph-name="uni018F" unicode="&#x18f;" horiz-adv-x="541" 
d="M53 233l28 127h391l24 112q23 109 -14.5 168.5t-123.5 59.5q-82 0 -140.5 -51.5t-77.5 -139.5v-3h-21l1 5q20 96 83.5 152.5t155.5 56.5q93 0 137.5 -66.5t20.5 -179.5l-56 -261q-23 -102 -88 -162.5t-157 -60.5q-94 0 -140.5 67.5t-22.5 175.5zM216 10q84 0 144.5 55.5
t80.5 149.5l27 125h-372l-22 -104q-21 -107 17.5 -166.5t124.5 -59.5z" />
    <glyph glyph-name="florin" unicode="&#x192;" horiz-adv-x="501" 
d="M424 375l-4 -20h-126l-54 -254q-10 -47 -40 -74t-74 -27h-61l4 20h57q36 0 60.5 21.5t32.5 61.5l54 252h-127l4 20h127l50 233q9 47 39 74.5t74 27.5h53l-4 -20h-49q-76 0 -93 -84l-49 -231h126z" />
    <glyph glyph-name="uni0218" unicode="&#x218;" horiz-adv-x="510" 
d="M478 494l2 10q20 92 -18 144t-129 52q-68 0 -119 -39t-66 -97q-15 -66 10 -107t95 -68l70 -27q148 -57 116 -207q-16 -73 -77.5 -119t-145.5 -46q-95 0 -147 62t-34 144l5 26h21l-6 -25q-16 -79 29 -133t132 -54q75 0 132 40.5t71 104.5q15 71 -9.5 116t-97.5 74l-69 26
q-145 55 -116 193q14 67 71.5 111.5t134.5 44.5q99 0 143 -59.5t24 -156.5l-2 -10h-20zM159 -171l39 74h-22l9 44h44l-8 -38h1l-42 -80h-21z" />
    <glyph glyph-name="uni0219" unicode="&#x219;" horiz-adv-x="418" 
d="M360 358l2 10q15 68 -16 105t-96 37q-55 0 -92.5 -28t-45.5 -68q-19 -91 74 -128l51 -19q124 -46 104 -154q-12 -56 -56 -89.5t-117 -33.5q-74 0 -116.5 47t-28.5 107l4 19h21l-3 -15q-14 -63 24 -100.5t99 -37.5q64 0 103.5 27.5t48.5 73.5q11 54 -13 86t-81 53l-49 18
q-45 16 -70 52.5t-16 91.5q8 51 52.5 84.5t106.5 33.5q74 0 111.5 -44.5t21.5 -118.5l-2 -9h-21zM110 -171l39 74h-22l9 44h44l-8 -38h1l-42 -80h-21z" />
    <glyph glyph-name="uni021A" unicode="&#x21a;" horiz-adv-x="442" 
d="M522 710l-4 -20h-197l-146 -690h-21l146 690h-194l4 20h412zM107 -171l39 74h-22l9 44h44l-8 -38h1l-42 -80h-21z" />
    <glyph glyph-name="uni021B" unicode="&#x21b;" horiz-adv-x="271" 
d="M291 500h-110l-84 -397q-9 -39 7 -61t53 -22h35l-4 -20h-33q-45 0 -66.5 29t-12.5 72l84 399h-87l4 20h88l36 170h20l-36 -170h110zM63 -171l39 74h-22l9 44h44l-8 -38h1l-42 -80h-21z" />
    <glyph glyph-name="uni0232" unicode="&#x232;" horiz-adv-x="486" 
d="M575 710l-296 -330l-80 -380h-21l80 381l-152 329h22l144 -310l276 310h27zM471 847l-4 -20h-224l4 20h224z" />
    <glyph glyph-name="uni0233" unicode="&#x233;" horiz-adv-x="415" 
d="M454 520l-455 -686h-24l212 318l-101 368h20l95 -346l229 346h24zM406 657l-4 -20h-224l4 20h224z" />
    <glyph glyph-name="uni0237" unicode="&#x237;" horiz-adv-x="175" 
d="M9 -70l125 590h21l-126 -592q-9 -40 -36 -65.5t-62 -25.5h-28l4 19h25q60 0 77 74z" />
    <glyph glyph-name="uni0259" unicode="&#x259;" horiz-adv-x="451" 
d="M179 -10q-83 0 -120.5 53t-19.5 136l17 76h311l18 84q16 73 -15.5 122t-103.5 49q-67 0 -111 -38.5t-57 -103.5l-2 -11h-21l3 12q14 73 64 117t123 44q82 0 119.5 -55.5t21.5 -133.5l-37 -173q-17 -82 -67.5 -130t-122.5 -48zM348 170l14 65h-289l-13 -54
q-17 -81 13.5 -126t104.5 -45q66 0 111 42.5t59 117.5z" />
    <glyph glyph-name="uni02BB" unicode="&#x2bb;" horiz-adv-x="195" 
d="M221 710l-8 -38l-58 -111h-21l55 105h-23l9 44h46z" />
    <glyph glyph-name="uni02BC" unicode="&#x2bc;" horiz-adv-x="195" 
d="M244 561l8 38l58 111h21l-55 -105h23l-9 -44h-46z" />
    <glyph glyph-name="circumflex" unicode="&#x2c6;" horiz-adv-x="582" 
d="M342 596l143 124h18l90 -124h-25l-76 104l-119 -104h-31z" />
    <glyph glyph-name="caron" unicode="&#x2c7;" horiz-adv-x="582" 
d="M604 721l-143 -124h-18l-90 124h25l75 -104l120 104h31z" />
    <glyph glyph-name="breve" unicode="&#x2d8;" horiz-adv-x="582" 
d="M466 719h20q-11 -54 -48 -83t-91 -29q-57 0 -86 30.5t-18 81.5h20q-10 -44 13 -68t71 -24q46 0 77.5 24t41.5 68z" />
    <glyph glyph-name="dotaccent" unicode="&#x2d9;" horiz-adv-x="552" 
d="M251 712l-9 -44h-44l9 44h44z" />
    <glyph glyph-name="ring" unicode="&#x2da;" horiz-adv-x="582" 
d="M442 588q-42 0 -66.5 23.5t-20.5 60.5t31.5 60.5t68.5 23.5t66 -24.5t21 -59.5q-4 -38 -31 -61t-69 -23zM442 608q34 0 55.5 17t24.5 47q3 29 -15.5 46.5t-51.5 17.5t-55 -17.5t-25 -46.5q-3 -30 14.5 -47t52.5 -17z" />
    <glyph glyph-name="ogonek" unicode="&#x2db;" horiz-adv-x="582" 
d="M477 17l12 -17l-56 -64q-22 -24 -27 -43q-8 -36 39 -36h31l-4 -20h-28q-32 0 -47.5 16t-10.5 40q4 24 28 51z" />
    <glyph glyph-name="tilde" unicode="&#x2dc;" horiz-adv-x="582" 
d="M473 696h20q-5 -36 -24 -58.5t-45 -22.5q-28 0 -69 37q-38 31 -58 31q-37 0 -49 -61h-20q5 36 24 58.5t45 22.5q30 0 70 -36q34 -32 57 -32q37 0 49 61z" />
    <glyph glyph-name="hungarumlaut" unicode="&#x2dd;" horiz-adv-x="583" 
d="M341 721l-95 -124h-25l94 124h26zM485 721l-95 -124h-25l94 124h26z" />
    <glyph glyph-name="uni0312" unicode="&#x312;" horiz-adv-x="0" 
d="M-290 720l-40 -79h21l-9 -44h-44l8 38l43 85h21z" />
    <glyph glyph-name="uni0326" unicode="&#x326;" horiz-adv-x="582" 
d="M212 -171l39 74h-22l9 44h44l-8 -38h1l-42 -80h-21z" />
    <glyph glyph-name="uni0394" unicode="&#x394;" horiz-adv-x="491" 
d="M416 0h-449l4 15l362 695h18l68 -695zM335 674l-339 -654h402z" />
    <glyph glyph-name="uni03A9" unicode="&#x3a9;" horiz-adv-x="541" 
d="M13 20h136l30 139q-56 24 -80.5 85t-6.5 146l23 107q20 101 87.5 162t160.5 61q97 0 143.5 -67.5t22.5 -175.5l-23 -107q-17 -81 -63.5 -135.5t-116.5 -76.5l-31 -138h148l-4 -20h-167l2 12l34 161q67 16 114 68.5t64 130.5l22 103q22 105 -17.5 165t-127.5 60
q-85 0 -146.5 -55.5t-81.5 -149.5l-22 -103q-20 -88 5 -144t84 -75h1l-34 -153h1l-4 -20h-157z" />
    <glyph glyph-name="uni03BC" unicode="&#x3bc;" horiz-adv-x="468" 
d="M350 165l76 355h20l-110 -520h-21l15 71q-52 -81 -153 -81q-94 0 -118 80l-50 -233h-20l144 683h21l-76 -355q-16 -75 10.5 -115t92.5 -40q65 0 109.5 41t59.5 114z" />
    <glyph glyph-name="pi" unicode="&#x3c0;" horiz-adv-x="454" 
d="M432 520l-110 -520h-21l106 500h-257l-106 -500h-21l111 520h298z" />
    <glyph glyph-name="Wgrave" unicode="&#x1e80;" horiz-adv-x="775" 
d="M851 710l-333 -710h-20l-24 665l-303 -665h-21l-33 710h20l30 -668l307 668h19l23 -667l313 667h22zM386 919h25l100 -132h-25z" />
    <glyph glyph-name="wgrave" unicode="&#x1e81;" horiz-adv-x="647" 
d="M652 520h22l-251 -520h-18l-33 479l-238 -479h-20l-27 520h20l25 -479l238 479h19l33 -478zM282 729h25l100 -132h-25z" />
    <glyph glyph-name="Wacute" unicode="&#x1e82;" horiz-adv-x="775" 
d="M851 710l-333 -710h-20l-24 665l-303 -665h-21l-33 710h20l30 -668l307 668h19l23 -667l313 667h22zM595 919l-100 -132h-25l100 132h25z" />
    <glyph glyph-name="wacute" unicode="&#x1e83;" horiz-adv-x="647" 
d="M652 520h22l-251 -520h-18l-33 479l-238 -479h-20l-27 520h20l25 -479l238 479h19l33 -478zM491 729l-100 -132h-25l100 132h25z" />
    <glyph glyph-name="Wdieresis" unicode="&#x1e84;" horiz-adv-x="775" 
d="M851 710l-333 -710h-20l-24 665l-303 -665h-21l-33 710h20l30 -668l307 668h19l23 -667l313 667h22zM443 871l-9 -44h-44l9 44h44zM618 871l-9 -44h-44l9 44h44z" />
    <glyph glyph-name="wdieresis" unicode="&#x1e85;" horiz-adv-x="647" 
d="M652 520h22l-251 -520h-18l-33 479l-238 -479h-20l-27 520h20l25 -479l238 479h19l33 -478zM339 681l-9 -44h-44l9 44h44zM514 681l-9 -44h-44l9 44h44z" />
    <glyph glyph-name="Ygrave" unicode="&#x1ef2;" horiz-adv-x="486" 
d="M575 710l-296 -330l-80 -380h-21l80 381l-152 329h22l144 -310l276 310h27zM241 919h25l100 -132h-25z" />
    <glyph glyph-name="ygrave" unicode="&#x1ef3;" horiz-adv-x="415" 
d="M454 520l-455 -686h-24l212 318l-101 368h20l95 -346l229 346h24zM175 729h25l100 -132h-25z" />
    <glyph glyph-name="uni2007" unicode="&#x2007;" 
 />
    <glyph glyph-name="uni2008" unicode="&#x2008;" horiz-adv-x="153" 
 />
    <glyph glyph-name="uni2009" unicode="&#x2009;" horiz-adv-x="100" 
 />
    <glyph glyph-name="uni200B" unicode="&#x200b;" horiz-adv-x="0" 
 />
    <glyph glyph-name="uni2010" unicode="&#x2010;" horiz-adv-x="311" 
d="M71 330h199l-4 -20h-199z" />
    <glyph glyph-name="uni2011" unicode="&#x2011;" horiz-adv-x="311" 
d="M71 330h199l-4 -20h-199z" />
    <glyph glyph-name="figuredash" unicode="&#x2012;" horiz-adv-x="501" 
d="M101 330h330l-4 -20h-330z" />
    <glyph glyph-name="endash" unicode="&#x2013;" horiz-adv-x="442" 
d="M71 330h330l-4 -20h-330z" />
    <glyph glyph-name="emdash" unicode="&#x2014;" horiz-adv-x="540" 
d="M71 330h427l-4 -20h-427z" />
    <glyph glyph-name="quoteleft" unicode="&#x2018;" horiz-adv-x="167" 
d="M122 561l8 38l58 111h21l-55 -105h23l-9 -44h-46z" />
    <glyph glyph-name="quoteright" unicode="&#x2019;" horiz-adv-x="164" 
d="M208 710l-8 -38l-58 -111h-21l55 105h-23l9 44h46z" />
    <glyph glyph-name="quotesinglbase" unicode="&#x201a;" horiz-adv-x="163" 
d="M66 44l-8 -38l-58 -111h-21l55 105h-23l9 44h46z" />
    <glyph glyph-name="quotedblleft" unicode="&#x201c;" horiz-adv-x="290" 
d="M122 561l8 38l58 111h21l-55 -105h23l-9 -44h-46zM245 561l8 38l58 111h21l-55 -105h23l-9 -44h-46z" />
    <glyph glyph-name="quotedblright" unicode="&#x201d;" horiz-adv-x="278" 
d="M322 710l-8 -38l-58 -111h-21l55 105h-23l9 44h46zM208 710l-8 -38l-58 -111h-21l55 105h-23l9 44h46z" />
    <glyph glyph-name="quotedblbase" unicode="&#x201e;" horiz-adv-x="277" 
d="M180 44l-8 -38l-58 -111h-21l55 105h-23l9 44h46zM66 44l-8 -38l-58 -111h-21l55 105h-23l9 44h46z" />
    <glyph glyph-name="dagger" unicode="&#x2020;" horiz-adv-x="303" 
d="M194 423h-20l41 194h-79l4 20h79l16 72h20l-16 -72h79l-4 -20h-79z" />
    <glyph glyph-name="daggerdbl" unicode="&#x2021;" horiz-adv-x="303" 
d="M195 423h-20l15 73h-79l4 20h80l21 100h-79l4 20h79l16 73h20l-16 -73h79l-4 -20h-79l-21 -100h78l-4 -20h-79z" />
    <glyph glyph-name="bullet" unicode="&#x2022;" horiz-adv-x="280" 
d="M210 369l-20 -96h-94l20 96h94z" />
    <glyph glyph-name="ellipsis" unicode="&#x2026;" horiz-adv-x="487" 
d="M219 44l-9 -44h-44l9 44h44zM384 44l-9 -44h-44l9 44h44zM55 44l-9 -44h-44l9 44h44z" />
    <glyph glyph-name="perthousand" unicode="&#x2030;" horiz-adv-x="819" 
d="M205 497q-46 0 -73 31t-22 78q4 46 38 77t80 31t73 -30.5t22 -77.5q-4 -46 -38 -77.5t-80 -31.5zM207 516q38 0 65.5 25.5t31.5 64.5q5 38 -17.5 63.5t-60.5 25.5t-65 -25t-32 -64q-4 -39 18 -64.5t60 -25.5zM373 -5q-46 0 -73 31t-22 78q4 46 38 77t80 31t73 -30.5
t22 -77.5q-4 -46 -38 -77.5t-80 -31.5zM374 14q38 0 65.5 25.5t31.5 64.5q5 38 -17.5 63.5t-60.5 25.5t-65 -25t-32 -64q-4 -39 18 -64.5t60 -25.5zM642 -5q-46 0 -73 31t-22 78q4 46 38 77t80 31t73 -30.5t22 -77.5q-4 -46 -38 -77.5t-80 -31.5zM643 14q38 0 65.5 25.5
t31.5 64.5q5 38 -17.5 63.5t-60.5 25.5t-65 -25t-32 -64q-4 -39 18 -64.5t60 -25.5zM535 710h22l-510 -710h-22z" />
    <glyph glyph-name="minute" unicode="&#x2032;" horiz-adv-x="167" 
d="M192 710h21l-87 -222h-22z" />
    <glyph glyph-name="second" unicode="&#x2033;" horiz-adv-x="299" 
d="M325 710h21l-87 -222h-22zM192 710h21l-87 -222h-22z" />
    <glyph glyph-name="uni2034" unicode="&#x2034;" horiz-adv-x="386" 
d="M254 710h21l-87 -222h-22zM367 710h21l-87 -222h-22zM148 710h21l-87 -222h-22z" />
    <glyph glyph-name="guilsinglleft" unicode="&#x2039;" horiz-adv-x="264" 
d="M223 497l13 -15l-177 -165l105 -161l-16 -13l-114 177z" />
    <glyph glyph-name="guilsinglright" unicode="&#x203a;" horiz-adv-x="264" 
d="M48 143l-13 15l176 165l-104 161l16 13l114 -177z" />
    <glyph glyph-name="fraction" unicode="&#x2044;" horiz-adv-x="75" 
d="M304 710h22l-510 -710h-22z" />
    <glyph glyph-name="Euro" unicode="&#x20ac;" 
d="M340 285h-194l-21 -98q-18 -84 11 -130.5t95 -46.5q61 0 103.5 40t59.5 117l12 57h21l-12 -57q-19 -87 -67 -132t-118 -45q-73 0 -109.5 54.5t-16.5 142.5l21 98h-68l4 20h68l26 120h-69l4 20h70l21 99q16 80 65.5 128t117.5 48q75 0 111.5 -52.5t16.5 -138.5l-5 -23h-21
l5 23q18 81 -11.5 126t-96.5 45q-60 0 -103.5 -42t-58.5 -114l-21 -99h194l-5 -20h-194l-25 -120h195z" />
    <glyph glyph-name="uni20BA" unicode="&#x20ba;" horiz-adv-x="501" 
d="M383 326l-213 -69l-51 -237h102q64 0 110.5 40.5t60.5 108.5l14 63h20l-13 -64q-16 -76 -68 -122t-124 -46h-127l53 250l-75 -24l4 22l75 24l26 119l-75 -24l4 22l75 24l64 297h21l-62 -290l213 69l-4 -22l-213 -69l-26 -119l213 69z" />
    <glyph glyph-name="uni20BC" unicode="&#x20bc;" 
d="M186 0l149 700q-65 -3 -112 -47.5t-62 -118.5l-114 -534h-20l114 534q17 84 70 134t128 52l23 110h21l-24 -111q71 -6 103.5 -57t16.5 -128l-113 -534h-21l114 534q16 73 -12 117t-92 48l-149 -699h-20z" />
    <glyph glyph-name="uni2117" unicode="&#x2117;" horiz-adv-x="636" 
d="M339 95q-110 0 -182.5 74t-72.5 186t72.5 186t182.5 74t182.5 -74t72.5 -186t-72.5 -186t-182.5 -74zM339 115q102 0 168.5 68t66.5 172t-66.5 172t-168.5 68t-168.5 -68t-66.5 -172t66.5 -172t168.5 -68zM276 517h84q42 0 67 -24.5t25 -66.5t-25 -66.5t-67 -24.5h-64
v-138h-20v320zM360 498h-64v-144h64q33 0 52.5 19.5t19.5 52.5t-19.5 52.5t-52.5 19.5z" />
    <glyph glyph-name="trademark" unicode="&#x2122;" horiz-adv-x="528" 
d="M399 528l-52 138l-51 -240h-20l60 284h16l55 -148l120 148h20l-61 -284h-20l51 241l-111 -139h-7zM300 710l-4 -20h-77l-56 -264h-20l56 264h-77l4 20h174z" />
    <glyph glyph-name="onethird" unicode="&#x2153;" horiz-adv-x="504" 
d="M516 710h22l-510 -710h-22zM503 301l-110 -116h4q39 0 58.5 -25.5t11.5 -61.5l-3 -17q-8 -39 -35 -62.5t-65 -23.5q-39 0 -58.5 25t-11.5 61l1 6h20l-1 -6q-7 -30 7 -48t43 -18q30 0 51.5 18t28.5 48l3 17q7 31 -7 49t-45 18h-35l3 15l109 118h-126l5 20h155zM195 410
l-5 -20h-127l4 20h53l60 280h-58l4 20h78l-64 -300h55z" />
    <glyph glyph-name="twothirds" unicode="&#x2154;" horiz-adv-x="510" 
d="M522 710h22l-510 -710h-22zM518 301l-110 -116h4q39 0 58.5 -25.5t11.5 -61.5l-3 -17q-8 -39 -35 -62.5t-65 -23.5q-39 0 -58.5 25t-11.5 61l1 6h20l-1 -6q-7 -30 7 -48t43 -18q30 0 51.5 18t28.5 48l3 17q7 31 -7 49t-45 18h-35l3 15l109 118h-126l5 20h155zM202 410
l-4 -20h-168l4 17l159 175q20 23 25 48q7 29 -7.5 47t-43.5 18q-26 0 -46.5 -18t-26.5 -47l-2 -11h-21l3 11q7 37 32.5 61t61.5 24q37 0 57.5 -26t12.5 -62q-7 -32 -28 -55l-147 -162h139z" />
    <glyph glyph-name="arrowleft" unicode="&#x2190;" horiz-adv-x="600" 
d="M228 239l-117 81l117 81v-71h274v-20h-274v-71z" />
    <glyph glyph-name="arrowup" unicode="&#x2191;" horiz-adv-x="600" 
d="M246 408l81 117l82 -117h-72v-274h-20v274h-71z" />
    <glyph glyph-name="arrowright" unicode="&#x2192;" horiz-adv-x="601" 
d="M400 401l117 -81l-117 -81v71h-274v20h274v71z" />
    <glyph glyph-name="arrowdown" unicode="&#x2193;" horiz-adv-x="600" 
d="M380 232l-82 -116l-81 116h71v275h20v-275h72z" />
    <glyph glyph-name="uni2196" unicode="&#x2196;" horiz-adv-x="600" 
d="M198 324l-25 141l140 -26l-50 -50l194 -194l-14 -14l-194 194z" />
    <glyph glyph-name="uni2197" unicode="&#x2197;" horiz-adv-x="600" 
d="M316 439l140 26l-25 -141l-51 50l-193 -193l-14 14l193 193z" />
    <glyph glyph-name="uni2198" unicode="&#x2198;" horiz-adv-x="600" 
d="M426 312l25 -140l-140 25l50 50l-194 194l14 14l194 -194z" />
    <glyph glyph-name="uni2199" unicode="&#x2199;" horiz-adv-x="600" 
d="M316 197l-140 -25l25 140l50 -51l195 194l14 -14l-195 -194z" />
    <glyph glyph-name="partialdiff" unicode="&#x2202;" horiz-adv-x="459" 
d="M179 729l193 -222q61 -70 39 -175l-35 -164q-18 -82 -68.5 -130t-126.5 -48q-80 0 -116 54.5t-18 143.5l35 164q18 82 68.5 130t126.5 48q26 0 55 -8l-179 207h26zM356 170l34 160q19 86 -11 133t-102 47q-68 0 -113.5 -43t-60.5 -117l-35 -160q-18 -86 12 -133t101 -47
q68 0 114 43t61 117z" />
    <glyph glyph-name="emptyset" unicode="&#x2205;" horiz-adv-x="443" 
d="M70 158l-13 14l52 47q-34 44 -28 101q6 64 55.5 109t113.5 45q57 0 100 -40l53 48l13 -14l-53 -48q34 -44 28 -100q-6 -64 -55.5 -109t-113.5 -45q-56 0 -100 39zM101 320q-6 -50 23 -88l211 189q-33 33 -85 33q-56 0 -99.5 -39t-49.5 -95zM222 186q56 0 99.5 39t49.5 95
q5 51 -23 87l-211 -189q35 -32 85 -32z" />
    <glyph glyph-name="product" unicode="&#x220f;" horiz-adv-x="559" 
d="M193 710h365l-185 -873h-21l181 853h-324l-181 -853h-21z" />
    <glyph glyph-name="summation" unicode="&#x2211;" horiz-adv-x="417" 
d="M462 710l-4 -20h-309l134 -410l-310 -423h332l-5 -20h-357l3 17l315 431l-133 408l3 17h331z" />
    <glyph glyph-name="minus" unicode="&#x2212;" horiz-adv-x="501" 
d="M121 330h287l-4 -20h-287z" />
    <glyph glyph-name="radical" unicode="&#x221a;" horiz-adv-x="478" 
d="M558 729l-420 -729h-19l-74 363h20l67 -333l403 699h23z" />
    <glyph glyph-name="infinity" unicode="&#x221e;" horiz-adv-x="663" 
d="M615 320q0 -60 -32.5 -99.5t-83.5 -39.5q-38 0 -71 28.5t-84 93.5q-52 -66 -84 -94t-70 -28q-51 0 -83.5 39.5t-32.5 99.5t32.5 99.5t83.5 39.5q38 0 70 -28t84 -95q52 66 84.5 94.5t70.5 28.5q51 0 83.5 -39.5t32.5 -99.5zM595 320q0 53 -27 86t-70 33
q-32 0 -62.5 -27.5t-78.5 -91.5q48 -64 78.5 -91.5t62.5 -27.5q43 0 70 33t27 86zM94 320q0 -53 27 -86t69 -33q32 0 60 25.5t82 93.5q-37 47 -55 67t-41 36t-46 16q-42 0 -69 -33t-27 -86z" />
    <glyph glyph-name="integral" unicode="&#x222b;" horiz-adv-x="265" 
d="M314 709h27l-5 -20h-22q-37 0 -62.5 -21.5t-33.5 -61.5l-142 -668q-10 -46 -40 -73.5t-76 -27.5h-29l4 20h25q37 0 62.5 21.5t33.5 61.5l142 668q10 47 40.5 74t75.5 27z" />
    <glyph glyph-name="approxequal" unicode="&#x2248;" 
d="M344 302h20v-2q-8 -41 -31.5 -67t-53.5 -26q-7 0 -13 1t-13 3.5t-11 4.5t-11.5 7t-10.5 7.5t-11.5 9t-10.5 8.5q-4 3 -14.5 11.5t-14 11t-11 7t-14.5 6t-15 1.5q-22 0 -39.5 -21t-24.5 -54h-20v2q8 41 31.5 67t53.5 26q16 0 31.5 -6.5t23 -12.5t26.5 -22q4 -3 14 -11.5
t14 -11t11.5 -7t14 -6t14.5 -1.5q23 0 40.5 20.5t24.5 54.5zM375 448h20v-2q-8 -41 -31.5 -67t-53.5 -26q-7 0 -13 1t-13 3.5t-11 4.5t-11.5 7t-10.5 7.5t-11.5 9t-10.5 8.5q-4 3 -14.5 11.5t-14 11t-11 7t-14.5 6t-15 1.5q-22 0 -39.5 -21t-24.5 -54h-20v2q8 41 31.5 67
t53.5 26q16 0 31.5 -6.5t23 -12.5t26.5 -22q4 -3 14 -11.5t14 -11t11.5 -7t14 -6t14.5 -1.5q23 0 40.5 20.5t24.5 54.5z" />
    <glyph glyph-name="notequal" unicode="&#x2260;" horiz-adv-x="501" 
d="M144 390l4 20h152l70 124h23l-69 -124h92l-4 -20h-99l-79 -140h148l-4 -20h-155l-68 -123h-23l68 123h-90l4 20h97l78 140h-145z" />
    <glyph glyph-name="lessequal" unicode="&#x2264;" 
d="M93 153h272l-5 -20h-271zM138 362l300 135l-5 -24l-271 -121l219 -122l-4 -20l-243 135z" />
    <glyph glyph-name="greaterequal" unicode="&#x2265;" 
d="M406 345l-300 -135l5 24l270 121l-219 122l5 20l243 -135zM93 153h272l-5 -20h-271z" />
    <glyph glyph-name="lozenge" unicode="&#x25ca;" horiz-adv-x="533" 
d="M528 355l-311 -355h-13l-157 355l313 355h13zM70 351l144 -326l291 333l-141 325z" />
    <glyph glyph-name="fi" unicode="&#xfb01;" horiz-adv-x="447" 
d="M296 520l-4 -20h-107l-106 -500h-21l106 500h-90l4 20h90l24 111q9 45 39.5 71.5t75.5 26.5h34l-4 -20h-30q-37 0 -62 -21.5t-33 -61.5l-23 -106h107zM447 520l-110 -520h-21l111 520h20zM497 712l-9 -44h-44l9 44h44z" />
    <glyph glyph-name="fl" unicode="&#xfb02;" horiz-adv-x="447" 
d="M296 520l-4 -20h-107l-106 -500h-21l106 500h-90l4 20h90l24 111q9 45 39.5 71.5t75.5 26.5h34l-4 -20h-30q-37 0 -62 -21.5t-33 -61.5l-23 -106h107zM471 729h20l-154 -729h-21z" />
    <glyph glyph-name="uniFEFF" unicode="&#xfeff;" horiz-adv-x="0" 
 />
    <glyph glyph-name="_126" horiz-adv-x="502" 
d="M425 0h-19l-22 221h-280l-114 -221h-23l369 710h20zM339 673l-224 -432h267zM508 711l-9 -44h-44l9 44h44zM228 711l-9 -44h-44l9 44h44z" />
    <glyph glyph-name="_127" horiz-adv-x="561" 
d="M373 720q96 0 142 -67.5t22 -175.5l-56 -264q-23 -102 -89.5 -162.5t-159.5 -60.5q-96 0 -142.5 67t-22.5 176l56 264q20 100 88.5 161.5t161.5 61.5zM372 700q-85 0 -147 -55.5t-82 -149.5l-55 -260q-23 -106 16.5 -165.5t127.5 -59.5q85 0 147 55.5t82 149.5l55 260
q23 106 -16.5 165.5t-127.5 59.5zM374 591l-9 -44h-44l9 44h44zM344 451l-9 -44h-44l9 44h44z" />
    <glyph glyph-name="_128" horiz-adv-x="563" 
d="M556 710h20l-108 -509q-20 -96 -82.5 -153.5t-149.5 -57.5q-93 0 -137.5 63.5t-22.5 167.5l105 489h20l-104 -488q-21 -98 17.5 -155t121.5 -57q79 0 136.5 52t75.5 140zM400 711l-9 -44h-44l9 44h44zM370 571l-9 -44h-44l9 44h44z" />
    <glyph glyph-name="_129" horiz-adv-x="539" 
d="M186 710h179q86 0 131 -52.5t27 -128.5q-14 -62 -53.5 -104.5t-97.5 -59.5q59 -17 86 -66t12 -115q-18 -84 -79 -134t-148 -50h-208zM314 353h-183l-71 -333h183q77 0 133 44.5t74 119.5q16 75 -21.5 122t-114.5 47zM364 690h-161l-68 -317h162q76 0 132.5 43.5
t72.5 112.5q16 72 -22 116.5t-116 44.5z" />
    <glyph glyph-name="_130" horiz-adv-x="544" 
d="M233 10q82 0 142.5 56t80.5 150l24 114h-189l4 20h211l-30 -137q-20 -101 -86.5 -162t-156.5 -61q-96 0 -142.5 67t-22.5 176l56 261q21 105 84.5 165.5t155.5 60.5q94 0 140 -59.5t28 -149.5l-1 -5h-21l1 3q18 85 -21.5 138t-125.5 53q-82 0 -141 -56t-79 -152l-55 -257
q-23 -106 16.5 -165.5t127.5 -59.5z" />
    <glyph glyph-name="_131" horiz-adv-x="544" 
d="M233 10q82 0 142.5 56t80.5 150l24 114h-189l4 20h211l-30 -137q-20 -101 -86.5 -162t-156.5 -61q-96 0 -142.5 67t-22.5 176l56 261q21 105 84.5 165.5t155.5 60.5q94 0 140 -59.5t28 -149.5l-1 -5h-21l1 3q18 85 -21.5 138t-125.5 53q-82 0 -141 -56t-79 -152l-55 -257
q-23 -106 16.5 -165.5t127.5 -59.5zM507 909h20q-11 -54 -48 -83t-91 -29q-57 0 -86 30.5t-18 81.5h20q-10 -44 13 -68t71 -24q46 0 77.5 24t41.5 68z" />
    <glyph glyph-name="_132" horiz-adv-x="544" 
d="M233 10q82 0 142.5 56t80.5 150l24 114h-189l4 20h211l-30 -137q-20 -101 -86.5 -162t-156.5 -61q-96 0 -142.5 67t-22.5 176l56 261q21 105 84.5 165.5t155.5 60.5q94 0 140 -59.5t28 -149.5l-1 -5h-21l1 3q18 85 -21.5 138t-125.5 53q-82 0 -141 -56t-79 -152l-55 -257
q-23 -106 16.5 -165.5t127.5 -59.5zM182 -171l39 74h-22l9 44h44l-8 -38h1l-42 -80h-21z" />
    <glyph glyph-name="_133" horiz-adv-x="544" 
d="M233 10q82 0 142.5 56t80.5 150l24 114h-189l4 20h211l-30 -137q-20 -101 -86.5 -162t-156.5 -61q-96 0 -142.5 67t-22.5 176l56 261q21 105 84.5 165.5t155.5 60.5q94 0 140 -59.5t28 -149.5l-1 -5h-21l1 3q18 85 -21.5 138t-125.5 53q-82 0 -141 -56t-79 -152l-55 -257
q-23 -106 16.5 -165.5t127.5 -59.5zM423 902l-9 -44h-44l9 44h44z" />
    <glyph glyph-name="_134" horiz-adv-x="510" 
d="M186 710h171q84 0 127 -54t26 -136q-16 -83 -76 -135t-141 -52l134 -333h-21l-135 333h-144l-71 -333h-21zM357 690h-155l-71 -337h159q75 0 129 45t71 122q17 75 -20 122.5t-113 47.5z" />
    <glyph glyph-name="_135" horiz-adv-x="510" 
d="M186 710h171q84 0 127 -54t26 -136q-16 -83 -76 -135t-141 -52l134 -333h-21l-135 333h-144l-71 -333h-21zM357 690h-155l-71 -337h159q75 0 129 45t71 122q17 75 -20 122.5t-113 47.5zM457 919l-100 -132h-25l100 132h25z" />
    <glyph glyph-name="_136" horiz-adv-x="510" 
d="M186 710h171q84 0 127 -54t26 -136q-16 -83 -76 -135t-141 -52l134 -333h-21l-135 333h-144l-71 -333h-21zM357 690h-155l-71 -337h159q75 0 129 45t71 122q17 75 -20 122.5t-113 47.5zM506 911l-143 -124h-18l-90 124h25l75 -104l120 104h31z" />
    <glyph glyph-name="_137" horiz-adv-x="510" 
d="M186 710h171q84 0 127 -54t26 -136q-16 -83 -76 -135t-141 -52l134 -333h-21l-135 333h-144l-71 -333h-21zM357 690h-155l-71 -337h159q75 0 129 45t71 122q17 75 -20 122.5t-113 47.5zM157 -171l39 74h-22l9 44h44l-8 -38h1l-42 -80h-21z" />
    <glyph glyph-name="_284" horiz-adv-x="435" 
d="M488 710l-4 -18l-170 -319h92l-4 -20h-98l-187 -353h-23l187 353h-121l4 20h128l168 317h-310l-27 -127h-21l32 147h354z" />
    <glyph glyph-name="_285" 
d="M521 710l-4 -18l-170 -319h92l-4 -20h-98l-187 -353h-23l187 353h-121l4 20h128l168 317h-310l-27 -127h-21l32 147h354z" />
    <glyph glyph-name="_286" horiz-adv-x="240" 
d="M97 146q-30 0 -51.5 -19t-28.5 -51l-32 -150q-7 -32 7.5 -51t46.5 -19q29 0 51 19t29 51l32 150q8 32 -7 51t-47 19zM97 166q41 0 61.5 -26t12.5 -64l-32 -150q-8 -40 -35 -65t-65 -25q-41 0 -61.5 26.5t-12.5 63.5l32 150q8 41 35 65.5t65 24.5z" />
    <glyph glyph-name="_287" horiz-adv-x="167" 
d="M67 -139l-5 -20h-127l4 20h53l60 280h-58l4 20h78l-64 -300h55z" />
    <glyph glyph-name="_288" horiz-adv-x="219" 
d="M118 -139l-4 -20h-168l4 17l159 175q20 23 25 48q7 29 -7.5 47t-43.5 18q-26 0 -46.5 -18t-26.5 -47l-2 -11h-21l3 11q7 37 32.5 61t61.5 24q37 0 57.5 -26t12.5 -62q-7 -32 -28 -55l-147 -162h139z" />
    <glyph glyph-name="_289" horiz-adv-x="216" 
d="M160 142l-110 -116h4q39 0 58.5 -25.5t11.5 -61.5l-3 -17q-8 -39 -35 -62.5t-65 -23.5q-39 0 -58.5 25t-11.5 61l1 6h20l-1 -6q-7 -30 7 -48t43 -18q30 0 51.5 18t28.5 48l3 17q7 31 -7 49t-45 18h-35l3 15l109 118h-126l5 20h155z" />
    <glyph glyph-name="_290" horiz-adv-x="226" 
d="M139 -60l-5 -20h-44l-17 -79h-20l17 79h-128l3 16l156 224h24l-154 -220h103l18 84h20l-18 -84h45z" />
    <glyph glyph-name="_291" horiz-adv-x="226" 
d="M65 47q39 0 59 -25t12 -61l-9 -39q-8 -39 -34 -62.5t-63 -23.5q-40 0 -60 23t-13 55v2h21l-1 -2q-6 -26 8.5 -42t44.5 -16q29 0 50 18t27 48l8 39q7 30 -7 48t-45 18q-27 0 -47 -15t-25 -40v-3h-19l40 192h154l-4 -20h-134l-25 -118q24 24 62 24z" />
    <glyph glyph-name="_292" horiz-adv-x="226" 
d="M58 23q41 0 63 -27.5t16 -66.5q-8 -42 -37 -67.5t-70 -25.5t-64 27.5t-16 65.5q4 28 25 56l141 176h24l-115 -145q19 7 33 7zM57 3q-32 0 -56.5 -20.5t-30.5 -53.5q-5 -32 11.5 -52.5t48.5 -20.5t56.5 20.5t30.5 52.5q6 33 -11 53.5t-49 20.5z" />
    <glyph glyph-name="_293" horiz-adv-x="205" 
d="M161 158l-3 -17l-163 -300h-22l160 297h-124l-11 -52h-20l15 72h168z" />
    <glyph glyph-name="_294" horiz-adv-x="244" 
d="M136 86q-5 -54 -57 -73q49 -25 43 -84q-4 -40 -34 -66.5t-73 -26.5t-68.5 27t-21.5 66q3 33 23.5 57.5t51.5 33.5q-35 21 -30 66q4 34 29 56.5t60 22.5q36 0 58.5 -23t18.5 -56zM-54 -70q-4 -33 16 -53.5t54 -20.5q35 0 59 20.5t27 53.5q4 34 -15.5 54.5t-54.5 20.5
t-59 -20.5t-27 -54.5zM-10 86q-3 -27 13 -44.5t43 -17.5q28 0 47.5 17.5t22.5 44.5q2 26 -13.5 42.5t-43.5 16.5q-27 0 -47 -16.5t-22 -42.5z" />
    <glyph glyph-name="_295" horiz-adv-x="225" 
d="M74 -22q-41 0 -63 27.5t-16 66.5q8 42 37 67.5t70 25.5t64 -27.5t16 -65.5q-4 -28 -25 -56l-141 -176h-24l115 145q-19 -7 -33 -7zM75 -2q32 0 56.5 20.5t30.5 53.5q5 32 -11.5 52.5t-48.5 20.5t-56.5 -20.5t-30.5 -52.5q-6 -33 11 -53.5t49 -20.5z" />
    <glyph glyph-name="zero001" 
d="M341 700q-71 0 -122 -47t-68 -129l-68 -317q-20 -92 14 -144.5t109 -52.5q72 0 123 47t68 130l67 317q21 92 -13 144t-110 52zM341 720q84 0 125 -59.5t19 -156.5l-68 -317q-19 -91 -75 -144t-136 -53q-84 0 -124.5 59.5t-18.5 157.5l67 317q20 92 75.5 144t135.5 52z
" />
    <glyph glyph-name="_297" 
d="M379 20l-4 -20h-323l4 20h153l142 670h-164l4 20h185l-146 -690h149z" />
    <glyph glyph-name="two002" 
d="M387 20l-4 -20h-344l3 17l345 403q51 60 65 117q16 71 -18 117t-102 46q-63 0 -114 -46t-64 -117l-5 -24h-20l5 24q16 81 71.5 132t127.5 51q77 0 117 -54t22 -132q-14 -61 -69 -125l-332 -389h316z" />
    <glyph glyph-name="three003" 
d="M488 694l-249 -296h33q82 0 122 -56t22 -140l-6 -25q-18 -85 -72.5 -136t-131.5 -51q-83 0 -123 54.5t-24 132.5l3 12h21l-3 -12q-16 -73 18 -120t108 -47q69 0 118.5 45t65.5 122l5 25q17 78 -16.5 127t-106.5 49h-67l3 15l250 297h-296l4 20h326z" />
    <glyph glyph-name="four004" 
d="M446 202l-5 -20h-100l-39 -182h-21l39 182h-287l3 14l356 514h24l-352 -508h260l44 207h21l-44 -207h101z" />
    <glyph glyph-name="five005" 
d="M290 454q82 0 120 -57t19 -150l-15 -70q-17 -86 -72 -136.5t-132 -50.5q-85 0 -124.5 48.5t-24.5 119.5v1h21v-1q-14 -66 19.5 -107t109.5 -41q68 0 117 45t65 122l15 70q20 88 -13 137.5t-106 49.5q-66 0 -112.5 -37t-59.5 -100l-3 -12h-19l90 425h314l-4 -20h-293
l-66 -308q57 72 154 72z" />
    <glyph glyph-name="six006" 
d="M258 392q85 0 135 -57t42 -143q-10 -88 -70.5 -145t-144.5 -57q-86 0 -136.5 58t-40.5 144q7 67 50 124l304 394h25l-264 -342q43 24 100 24zM258 373q-77 0 -131.5 -51t-62.5 -130q-8 -80 35.5 -131t120.5 -51q76 0 131 51t63 131q8 79 -36 130t-120 51z" />
    <glyph glyph-name="seven007" 
d="M529 710l-4 -18l-367 -692h-23l366 690h-310l-27 -127h-21l32 147h354z" />
    <glyph glyph-name="_304" 
d="M489 537q-8 -68 -50.5 -116.5t-110.5 -62.5q52 -18 80.5 -66t21.5 -108q-10 -85 -68 -139.5t-143 -54.5q-84 0 -132.5 55.5t-40.5 138.5q6 67 51 118.5t119 65.5q-49 19 -74.5 64t-18.5 105q8 79 64.5 131t135.5 52q78 0 126 -53t40 -130zM255 354q-75 0 -128.5 -48.5
t-61.5 -121.5q-8 -77 35 -125.5t118 -48.5t128.5 48.5t61.5 125.5q8 73 -35.5 121.5t-117.5 48.5zM288 373q71 0 121 46t58 118q8 69 -33 116t-112 47t-121.5 -46t-58.5 -117t33 -117.5t113 -46.5z" />
    <glyph glyph-name="six008" 
d="M286 318q-85 0 -135 57t-42 143q10 88 70.5 145t144.5 57q86 0 136.5 -58t40.5 -144q-7 -67 -50 -124l-304 -394h-25l264 342q-44 -24 -100 -24zM286 337q77 0 131.5 51t62.5 130q8 80 -35.5 131t-120.5 51q-76 0 -131 -51t-63 -131q-8 -79 36 -130t120 -51z" />
    <glyph glyph-name="_306" horiz-adv-x="510" 
d="M344 720q84 0 125 -59.5t19 -156.5l-68 -317q-19 -91 -75 -144t-136 -53q-84 0 -124.5 59.5t-18.5 157.5l67 317q20 92 75.5 144t135.5 52zM209 10q72 0 123 47t68 130l58 277l-365 -224l-7 -33q-20 -92 14 -144.5t109 -52.5zM344 700q-71 0 -122 -47t-68 -129l-56 -258
l366 225l3 13q21 92 -13 144t-110 52z" />
    <glyph glyph-name="_307" 
d="M358 720q84 0 125 -59.5t19 -156.5l-68 -317q-19 -91 -75 -144t-136 -53q-84 0 -124.5 59.5t-18.5 157.5l67 317q20 92 75.5 144t135.5 52zM223 10q72 0 123 47t68 130l58 277l-365 -224l-7 -33q-20 -92 14 -144.5t109 -52.5zM358 700q-71 0 -122 -47t-68 -129l-56 -258
l366 225l3 13q21 92 -13 144t-110 52z" />
    <glyph glyph-name="_314" horiz-adv-x="241" 
d="M129 305q-30 0 -51.5 -19t-28.5 -51l-32 -150q-7 -32 7.5 -51t46.5 -19q29 0 51 19t29 51l32 150q8 32 -7 51t-47 19zM129 325q41 0 61.5 -26t12.5 -64l-32 -150q-8 -40 -35 -65t-65 -25q-41 0 -61.5 26.5t-12.5 63.5l32 150q8 41 35 65.5t65 24.5z" />
    <glyph glyph-name="_315" horiz-adv-x="164" 
d="M102 20l-5 -20h-127l4 20h53l60 280h-58l4 20h78l-64 -300h55z" />
    <glyph glyph-name="_316" horiz-adv-x="219" 
d="M148 20l-4 -20h-168l4 17l159 175q20 23 25 48q7 29 -7.5 47t-43.5 18q-26 0 -46.5 -18t-26.5 -47l-2 -11h-21l3 11q7 37 32.5 61t61.5 24q37 0 57.5 -26t12.5 -62q-7 -32 -28 -55l-147 -162h139z" />
    <glyph glyph-name="_317" horiz-adv-x="217" 
d="M195 301l-110 -116h4q39 0 58.5 -25.5t11.5 -61.5l-3 -17q-8 -39 -35 -62.5t-65 -23.5q-39 0 -58.5 25t-11.5 61l1 6h20l-1 -6q-7 -30 7 -48t43 -18q30 0 51.5 18t28.5 48l3 17q7 31 -7 49t-45 18h-35l3 15l109 118h-126l5 20h155z" />
    <glyph glyph-name="_318" horiz-adv-x="225" 
d="M176 99l-5 -20h-44l-17 -79h-20l17 79h-128l3 16l156 224h24l-154 -220h103l18 84h20l-18 -84h45z" />
    <glyph glyph-name="_319" horiz-adv-x="227" 
d="M101 206q39 0 59 -25t12 -61l-9 -39q-8 -39 -34 -62.5t-63 -23.5q-40 0 -60 23t-13 55v2h21l-1 -2q-6 -26 8.5 -42t44.5 -16q29 0 50 18t27 48l8 39q7 30 -7 48t-45 18q-27 0 -47 -15t-25 -40v-3h-19l40 192h154l-4 -20h-134l-25 -118q24 24 62 24z" />
    <glyph glyph-name="_320" horiz-adv-x="227" 
d="M93 182q41 0 63 -27.5t16 -66.5q-8 -42 -37 -67.5t-70 -25.5t-64 27.5t-16 65.5q4 28 25 56l141 176h24l-115 -145q19 7 33 7zM92 162q-32 0 -56.5 -20.5t-30.5 -53.5q-5 -32 11.5 -52.5t48.5 -20.5t56.5 20.5t30.5 52.5q6 33 -11 53.5t-49 20.5z" />
    <glyph glyph-name="_321" horiz-adv-x="204" 
d="M201 317l-3 -17l-163 -300h-22l160 297h-124l-11 -52h-20l15 72h168z" />
    <glyph glyph-name="_322" horiz-adv-x="244" 
d="M199 245q-5 -54 -57 -73q49 -25 43 -84q-4 -40 -34 -66.5t-73 -26.5t-68.5 27t-21.5 66q3 33 23.5 57.5t51.5 33.5q-35 21 -30 66q4 34 29 56.5t60 22.5q36 0 58.5 -23t18.5 -56zM9 89q-4 -33 16 -53.5t54 -20.5q35 0 59 20.5t27 53.5q4 34 -15.5 54.5t-54.5 20.5
t-59 -20.5t-27 -54.5zM53 245q-3 -27 13 -44.5t43 -17.5q28 0 47.5 17.5t22.5 44.5q2 26 -13.5 42.5t-43.5 16.5q-27 0 -47 -16.5t-22 -42.5z" />
    <glyph glyph-name="_323" horiz-adv-x="225" 
d="M94 138q-41 0 -63 27.5t-16 66.5q8 42 37 67.5t70 25.5t64 -27.5t16 -65.5q-4 -28 -25 -56l-141 -176h-24l115 144q-15 -6 -33 -6zM95 158q32 0 56.5 20.5t30.5 53.5q5 32 -11.5 52.5t-48.5 20.5t-56.5 -20.5t-30.5 -52.5q-6 -33 11 -53.5t49 -20.5z" />
    <glyph glyph-name="_324" horiz-adv-x="240" 
d="M213 695q-30 0 -51.5 -19t-28.5 -51l-32 -150q-7 -32 7.5 -51t46.5 -19q29 0 51 19t29 51l32 150q8 32 -7 51t-47 19zM213 715q41 0 61.5 -26t12.5 -64l-32 -150q-8 -40 -35 -65t-65 -25q-41 0 -61.5 26.5t-12.5 63.5l32 150q8 41 35 65.5t65 24.5z" />
    <glyph glyph-name="_325" horiz-adv-x="163" 
d="M186 410l-5 -20h-127l4 20h53l60 280h-58l4 20h78l-64 -300h55z" />
    <glyph glyph-name="_326" horiz-adv-x="218" 
d="M232 410l-4 -20h-168l4 17l159 175q20 23 25 48q7 29 -7.5 47t-43.5 18q-26 0 -46.5 -18t-26.5 -47l-2 -11h-21l3 11q7 37 32.5 61t61.5 24q37 0 57.5 -26t12.5 -62q-7 -32 -28 -55l-147 -162h139z" />
    <glyph glyph-name="_327" horiz-adv-x="217" 
d="M279 691l-110 -116h4q39 0 58.5 -25.5t11.5 -61.5l-3 -17q-8 -39 -35 -62.5t-65 -23.5q-39 0 -58.5 25t-11.5 61l1 6h20l-1 -6q-7 -30 7 -48t43 -18q30 0 51.5 18t28.5 48l3 17q7 31 -7 49t-45 18h-35l3 15l109 118h-126l5 20h155z" />
    <glyph glyph-name="_328" horiz-adv-x="225" 
d="M260 489l-5 -20h-44l-17 -79h-20l17 79h-128l3 16l156 224h24l-154 -220h103l18 84h20l-18 -84h45z" />
    <glyph glyph-name="_329" horiz-adv-x="226" 
d="M185 596q39 0 59 -25t12 -61l-9 -39q-8 -39 -34 -62.5t-63 -23.5q-40 0 -60 23t-13 55v2h21l-1 -2q-6 -26 8.5 -42t44.5 -16q29 0 50 18t27 48l8 39q7 30 -7 48t-45 18q-27 0 -47 -15t-25 -40v-3h-19l40 192h154l-4 -20h-134l-25 -118q24 24 62 24z" />
    <glyph glyph-name="_330" horiz-adv-x="226" 
d="M177 572q41 0 63 -27.5t16 -66.5q-8 -42 -37 -67.5t-70 -25.5t-64 27.5t-16 65.5q4 28 25 56l141 176h24l-115 -145q19 7 33 7zM176 552q-32 0 -56.5 -20.5t-30.5 -53.5q-5 -32 11.5 -52.5t48.5 -20.5t56.5 20.5t30.5 52.5q6 33 -11 53.5t-49 20.5z" />
    <glyph glyph-name="_331" horiz-adv-x="204" 
d="M285 707l-3 -17l-163 -300h-22l160 297h-124l-11 -52h-20l15 72h168z" />
    <glyph glyph-name="_332" horiz-adv-x="243" 
d="M283 635q-5 -54 -57 -73q49 -25 43 -84q-4 -40 -34 -66.5t-73 -26.5t-68.5 27t-21.5 66q3 33 23.5 57.5t51.5 33.5q-35 21 -30 66q4 34 29 56.5t60 22.5q36 0 58.5 -23t18.5 -56zM93 479q-4 -33 16 -53.5t54 -20.5q35 0 59 20.5t27 53.5q4 34 -15.5 54.5t-54.5 20.5
t-59 -20.5t-27 -54.5zM137 635q-3 -27 13 -44.5t43 -17.5q28 0 47.5 17.5t22.5 44.5q2 26 -13.5 42.5t-43.5 16.5q-27 0 -47 -16.5t-22 -42.5z" />
    <glyph glyph-name="_333" horiz-adv-x="225" 
d="M177 528q-41 0 -63 27.5t-16 66.5q8 42 37 67.5t70 25.5t64 -27.5t16 -65.5q-4 -28 -25 -56l-141 -176h-24l115 145q-19 -7 -33 -7zM178 548q32 0 56.5 20.5t30.5 53.5q5 32 -11.5 52.5t-48.5 20.5t-56.5 -20.5t-30.5 -52.5q-6 -33 11 -53.5t49 -20.5z" />
    <glyph glyph-name="_334" horiz-adv-x="240" 
d="M213 695q-30 0 -51.5 -19t-28.5 -51l-32 -150q-7 -32 7.5 -51t46.5 -19q29 0 51 19t29 51l32 150q8 32 -7 51t-47 19zM213 715q41 0 61.5 -26t12.5 -64l-32 -150q-8 -40 -35 -65t-65 -25q-41 0 -61.5 26.5t-12.5 63.5l32 150q8 41 35 65.5t65 24.5z" />
    <glyph glyph-name="_335" horiz-adv-x="163" 
d="M186 410l-5 -20h-127l4 20h53l60 280h-58l4 20h78l-64 -300h55z" />
    <glyph glyph-name="_336" horiz-adv-x="218" 
d="M232 410l-4 -20h-168l4 17l159 175q20 23 25 48q7 29 -7.5 47t-43.5 18q-26 0 -46.5 -18t-26.5 -47l-2 -11h-21l3 11q7 37 32.5 61t61.5 24q37 0 57.5 -26t12.5 -62q-7 -32 -28 -55l-147 -162h139z" />
    <glyph glyph-name="_337" horiz-adv-x="217" 
d="M279 691l-110 -116h4q39 0 58.5 -25.5t11.5 -61.5l-3 -17q-8 -39 -35 -62.5t-65 -23.5q-39 0 -58.5 25t-11.5 61l1 6h20l-1 -6q-7 -30 7 -48t43 -18q30 0 51.5 18t28.5 48l3 17q7 31 -7 49t-45 18h-35l3 15l109 118h-126l5 20h155z" />
    <glyph glyph-name="_338" horiz-adv-x="225" 
d="M260 489l-5 -20h-44l-17 -79h-20l17 79h-128l3 16l156 224h24l-154 -220h103l18 84h20l-18 -84h45z" />
    <glyph glyph-name="_339" horiz-adv-x="226" 
d="M185 596q39 0 59 -25t12 -61l-9 -39q-8 -39 -34 -62.5t-63 -23.5q-40 0 -60 23t-13 55v2h21l-1 -2q-6 -26 8.5 -42t44.5 -16q29 0 50 18t27 48l8 39q7 30 -7 48t-45 18q-27 0 -47 -15t-25 -40v-3h-19l40 192h154l-4 -20h-134l-25 -118q24 24 62 24z" />
    <glyph glyph-name="_340" horiz-adv-x="226" 
d="M177 572q41 0 63 -27.5t16 -66.5q-8 -42 -37 -67.5t-70 -25.5t-64 27.5t-16 65.5q4 28 25 56l141 176h24l-115 -145q19 7 33 7zM176 552q-32 0 -56.5 -20.5t-30.5 -53.5q-5 -32 11.5 -52.5t48.5 -20.5t56.5 20.5t30.5 52.5q6 33 -11 53.5t-49 20.5z" />
    <glyph glyph-name="_341" horiz-adv-x="204" 
d="M285 707l-3 -17l-163 -300h-22l160 297h-124l-11 -52h-20l15 72h168z" />
    <glyph glyph-name="_342" horiz-adv-x="243" 
d="M283 635q-5 -54 -57 -73q49 -25 43 -84q-4 -40 -34 -66.5t-73 -26.5t-68.5 27t-21.5 66q3 33 23.5 57.5t51.5 33.5q-35 21 -30 66q4 34 29 56.5t60 22.5q36 0 58.5 -23t18.5 -56zM93 479q-4 -33 16 -53.5t54 -20.5q35 0 59 20.5t27 53.5q4 34 -15.5 54.5t-54.5 20.5
t-59 -20.5t-27 -54.5zM137 635q-3 -27 13 -44.5t43 -17.5q28 0 47.5 17.5t22.5 44.5q2 26 -13.5 42.5t-43.5 16.5q-27 0 -47 -16.5t-22 -42.5z" />
    <glyph glyph-name="_343" horiz-adv-x="225" 
d="M177 528q-41 0 -63 27.5t-16 66.5q8 42 37 67.5t70 25.5t64 -27.5t16 -65.5q-4 -28 -25 -56l-141 -176h-24l115 145q-19 -7 -33 -7zM178 548q32 0 56.5 20.5t30.5 53.5q5 32 -11.5 52.5t-48.5 20.5t-56.5 -20.5t-30.5 -52.5q-6 -33 11 -53.5t49 -20.5z" />
    <glyph glyph-name="period009" horiz-adv-x="178" 
d="M137 377l-9 -44h-44l9 44h44z" />
    <glyph glyph-name="bullet010" horiz-adv-x="280" 
d="M225 404l-20 -96h-94l20 96h94z" />
    <glyph glyph-name="exclam011" horiz-adv-x="188" 
d="M53 0h-21l109 511h20zM161 666l9 44h44l-9 -44h-44z" />
    <glyph glyph-name="question012" horiz-adv-x="384" 
d="M248 370h-16q-65 0 -108 -38t-58 -102l-11 -50q-18 -81 9 -125.5t93 -44.5q59 0 100 37.5t54 98.5l4 22h21l-5 -24q-15 -70 -61 -112t-114 -42q-73 0 -107 51t-15 137l12 54q15 71 64 114.5t122 43.5l25 121h21zM267 666l9 44h44l-9 -44h-44z" />
    <glyph glyph-name="braceleft013" horiz-adv-x="253" 
d="M155 -75h-20q-40 0 -60 27t-12 66l52 244q9 40 -6 61.5t-50 21.5h-11l4 18l1 2h11q35 0 59 21.5t32 61.5l52 244q8 43 34.5 68t66.5 25h24l-4 -20h-20q-31 0 -52 -19t-28 -54l-52 -246q-18 -72 -72 -93q45 -25 32 -92l-52 -243q-8 -35 6 -54t47 -19h22z" />
    <glyph glyph-name="braceleft014" horiz-adv-x="254" 
d="M143 785h20q40 0 60 -27t12 -66l-52 -244q-9 -40 6 -61.5t50 -21.5h11l-4 -18l-1 -2h-11q-35 0 -59 -21.5t-32 -61.5l-52 -244q-8 -43 -34.5 -68t-66.5 -25h-24l4 20h20q31 0 52 19t28 54l52 246q18 72 72 93q-45 25 -32 92l52 243q8 35 -6 54t-47 19h-22z" />
    <glyph glyph-name="bracketleft015" horiz-adv-x="266" 
d="M51 -55h122l-4 -20h-143l183 860h143l-4 -20h-123z" />
    <glyph glyph-name="bracketleft016" horiz-adv-x="267" 
d="M260 765h-122l4 20h143l-183 -860h-143l4 20h123z" />
    <glyph glyph-name="parenleft017" horiz-adv-x="256" 
d="M199 672l-135 -634q-9 -45 8.5 -69t59.5 -24h35l-4 -20h-34q-48 0 -72 31.5t-13 82.5l135 633q25 113 122 113h36l-4 -20h-32q-83 0 -102 -93z" />
    <glyph glyph-name="parenleft018" horiz-adv-x="257" 
d="M102 38l135 634q9 45 -8.5 69t-59.5 24h-35l4 20h34q48 0 72 -31.5t13 -82.5l-135 -633q-25 -113 -122 -113h-36l4 20h32q83 0 102 93z" />
    <glyph glyph-name="emdash019" horiz-adv-x="540" 
d="M86 365h427l-4 -20h-427z" />
    <glyph glyph-name="endash020" horiz-adv-x="442" 
d="M86 365h330l-4 -20h-330z" />
    <glyph glyph-name="hyphen021" horiz-adv-x="311" 
d="M86 365h199l-4 -20h-199z" />
    <glyph glyph-name="hyphen022" horiz-adv-x="311" 
d="M86 365h199l-4 -20h-199z" />
    <glyph glyph-name="hyphen023" horiz-adv-x="311" 
d="M86 365h199l-4 -20h-199z" />
    <glyph glyph-name="hyphen024" horiz-adv-x="311" 
d="M86 365h199l-4 -20h-199z" />
    <glyph glyph-name="guillemotleft025" horiz-adv-x="423" 
d="M415 532l13 -15l-179 -169l107 -157l-16 -13l-117 174zM249 532l13 -15l-168 -165l105 -161l-16 -13l-114 177z" />
    <glyph glyph-name="guillemotleft026" horiz-adv-x="420" 
d="M65 178l-13 15l179 169l-107 157l16 13l117 -174zM231 178l-13 15l168 165l-105 161l16 13l114 -177z" />
    <glyph glyph-name="guilsinglright027" horiz-adv-x="264" 
d="M238 532l13 -15l-176 -165l104 -161l-16 -13l-114 177z" />
    <glyph glyph-name="guilsinglright028" horiz-adv-x="264" 
d="M63 178l-13 15l176 165l-104 161l16 13l114 -177z" />
    <glyph glyph-name="_416" horiz-adv-x="0" 
 />
    <glyph glyph-name="minus029" horiz-adv-x="501" 
d="M136 365h287l-4 -20h-287z" />
    <glyph glyph-name="_491" horiz-adv-x="600" 
d="M190 -152h-22l77 164l18 -7z" />
    <glyph glyph-name="_492" horiz-adv-x="332" 
d="M281 710l-50 -176h-20l49 176h21z" />
    </font>
</defs>
</svg>
