<?xml version="1.0" standalone="no"?>
<!DOCTYPE svg PUBLIC "-//W3C//DTD SVG 1.1//EN" "http://www.w3.org/Graphics/SVG/1.1/DTD/svg11.dtd" >
<svg xmlns="http://www.w3.org/2000/svg" xmlns:xlink="http://www.w3.org/1999/xlink" version="1.1">
<metadata>
Created by FontForge 20170731 at Tue Mar 29 04:13:26 2016
 By ,,,
Copyright (c) 2016 by Hannes von Doehren. All rights reserved.
</metadata>
<defs>
<font id="Fabrikat-BoldItalic" horiz-adv-x="500" >
  <font-face 
    font-family="Fabrikat"
    font-weight="700"
    font-style="italic"
    font-stretch="normal"
    units-per-em="1000"
    panose-1="2 11 8 4 4 0 0 0 0 0"
    ascent="800"
    descent="-200"
    x-height="542"
    cap-height="710"
    bbox="-361 -216 952.828 968"
    underline-thickness="90"
    underline-position="-280"
    slope="-12"
    unicode-range="U+000D-FEFF"
  />
<missing-glyph horiz-adv-x="543" 
d="M555 770h27l-177 -830h-26zM515 770h27l-177 -830h-26zM475 770h27l-177 -830h-26zM435 770h27l-177 -830h-26zM395 770h27l-177 -830h-26zM355 770h27l-177 -830h-26zM315 770h27l-177 -830h-26zM275 770h27l-177 -830h-26zM235 770h27l-177 -830h-26zM195 770h27
l-177 -830h-26zM155 770h26l-176 -830h-27z" />
    <glyph glyph-name=".notdef" horiz-adv-x="543" 
d="M555 770h27l-177 -830h-26zM515 770h27l-177 -830h-26zM475 770h27l-177 -830h-26zM435 770h27l-177 -830h-26zM395 770h27l-177 -830h-26zM355 770h27l-177 -830h-26zM315 770h27l-177 -830h-26zM275 770h27l-177 -830h-26zM235 770h27l-177 -830h-26zM195 770h27
l-177 -830h-26zM155 770h26l-176 -830h-27z" />
    <glyph glyph-name=".null" horiz-adv-x="0" 
 />
    <glyph glyph-name="uni000D" unicode="&#xd;" horiz-adv-x="216" 
 />
    <glyph glyph-name="space" unicode=" " horiz-adv-x="216" 
 />
    <glyph glyph-name="exclam" unicode="!" horiz-adv-x="272" 
d="M151 710h155l-130 -461h-90zM180 139l-30 -139h-138l29 139h139z" />
    <glyph glyph-name="quotedbl" unicode="&#x22;" horiz-adv-x="407" 
d="M344 710h112l-57 -268h-112zM161 710h112l-57 -268h-112z" />
    <glyph glyph-name="numbersign" unicode="#" horiz-adv-x="546" 
d="M469 199h-68l-59 -199h-101l59 199h-110l-59 -199h-102l59 199h-67l28 91h66l47 159h-69l28 92h69l50 169h102l-50 -169h110l50 169h101l-50 -169h67l-28 -92h-67l-47 -159h69zM264 449l-47 -159h110l47 159h-110z" />
    <glyph glyph-name="dollar" unicode="$" 
d="M375 488l6 31q13 56 -25 81l-39 -186l13 -8q144 -87 110 -238q-17 -78 -77 -127.5t-133 -55.5l-22 -105h-83l24 113q-66 18 -100.5 76t-19.5 133l6 28h119l-6 -27q-17 -71 30 -95l45 214q-147 84 -117 229q16 74 69 121t130 53l23 105h82l-24 -113q63 -20 94 -74.5
t19 -117.5l-8 -37h-116zM319 182q11 60 -31 97l-37 -174q55 19 68 77zM227 540q-9 -44 26 -79l30 144q-47 -19 -56 -65z" />
    <glyph glyph-name="percent" unicode="%" horiz-adv-x="688" 
d="M223 429q-62 0 -99.5 42.5t-31.5 104.5t53 104.5t109 42.5q61 0 98.5 -42.5t31.5 -104.5t-52.5 -104.5t-108.5 -42.5zM232 516q24 0 41 16.5t20 43.5q2 26 -11.5 43t-37.5 17t-41 -17t-20 -43q-2 -27 11.5 -43.5t37.5 -16.5zM472 -13q-62 0 -99.5 42.5t-31.5 104.5
t53 104.5t109 42.5q61 0 98.5 -42.5t31.5 -104.5t-52.5 -104.5t-108.5 -42.5zM481 74q24 0 41 17t20 43q2 26 -11.5 43t-37.5 17t-41 -17t-20 -43q-2 -26 11.5 -43t37.5 -17zM568 710h93l-512 -710h-93z" />
    <glyph glyph-name="ampersand" unicode="&#x26;" horiz-adv-x="615" 
d="M556 0h-141l-35 56q-81 -71 -178 -71q-84 0 -133.5 44t-49.5 117q0 120 161 230q-52 88 -52 153q0 86 57 141.5t142 55.5q78 0 125 -43.5t47 -110.5q0 -64 -43 -116.5t-122 -103.5q1 -1 3 -4.5t4 -5.5l58 -93l71 117h127l-109 -176l-26 -41zM205 91q62 0 118 56l-78 126
q-4 5 -10 15q-98 -66 -98 -133q0 -29 18.5 -46.5t49.5 -17.5zM246 536q0 -34 34 -95q50 34 76.5 61.5t26.5 60.5q0 25 -16 41t-43 16q-34 0 -56 -24t-22 -60z" />
    <glyph glyph-name="quotesingle" unicode="'" horiz-adv-x="224" 
d="M149 710h112l-57 -268h-112z" />
    <glyph glyph-name="parenleft" unicode="(" horiz-adv-x="286" 
d="M254 618l-116 -546q-12 -56 34 -56h23l-21 -101h-29q-69 0 -102.5 44.5t-19.5 110.5l118 555q31 150 157 150h53l-21 -101h-23q-43 0 -53 -56z" />
    <glyph glyph-name="parenright" unicode=")" horiz-adv-x="285" 
d="M65 72l116 546q12 56 -34 56h-23l21 101h29q69 0 102.5 -44.5t19.5 -110.5l-118 -555q-31 -150 -157 -150h-53l21 101h23q43 0 53 56z" />
    <glyph glyph-name="asterisk" unicode="*" horiz-adv-x="408" 
d="M333 710l-28 -107l94 62l32 -72l-99 -54l72 -44l-50 -67l-68 53l-16 -95h-82l25 96l-88 -53l-30 73l93 47l-77 48l49 67l74 -58l17 104h82z" />
    <glyph glyph-name="plus" unicode="+" 
d="M347 503l-30 -137h126l-19 -92h-126l-29 -137h-94l29 137h-125l20 92h124l30 137h94z" />
    <glyph glyph-name="comma" unicode="," horiz-adv-x="251" 
d="M176 139l-27 -129l-1 -1l-77 -146h-73l74 137h-68l29 139h143z" />
    <glyph glyph-name="hyphen" unicode="-" horiz-adv-x="333" 
d="M82 373h214l-22 -106h-215z" />
    <glyph glyph-name="period" unicode="." horiz-adv-x="246" 
d="M171 139l-30 -139h-138l29 139h139z" />
    <glyph glyph-name="slash" unicode="/" horiz-adv-x="572" 
d="M524 775h131l-573 -860h-131z" />
    <glyph glyph-name="zero" unicode="0" horiz-adv-x="525" 
d="M328 612q-34 0 -61 -25t-36 -71l-65 -303q-12 -54 7.5 -84.5t58.5 -30.5q34 0 60.5 25t37.5 74l64 302q12 54 -7 83.5t-59 29.5zM337 726q98 0 151 -65.5t31 -161.5l-64 -302q-18 -94 -81.5 -153.5t-148.5 -59.5q-99 0 -151 65.5t-30 163.5l64 303q18 91 81.5 150.5
t147.5 59.5z" />
    <glyph glyph-name="one" unicode="1" horiz-adv-x="398" 
d="M349 113l-25 -113h-330l24 113h101l102 484h-115l24 113h240l-127 -597h106z" />
    <glyph glyph-name="two" unicode="2" horiz-adv-x="485" 
d="M414 113l-24 -113h-390l22 101l289 330q42 47 52 93q9 41 -7.5 64.5t-50.5 23.5q-31 0 -55 -21.5t-33 -67.5l-7 -31h-123l6 31q20 99 77 151t140 52q95 0 144 -63t31 -149q-16 -74 -80 -146l-222 -255h231z" />
    <glyph glyph-name="three" unicode="3" horiz-adv-x="487" 
d="M488 610l-170 -179q70 -18 102 -72.5t15 -133.5l-8 -37q-16 -88 -79 -146t-148 -58q-94 0 -145.5 59t-30.5 150l4 19h120l-4 -19q-11 -44 8.5 -69.5t56.5 -25.5q33 0 59 24.5t34 65.5l8 37q12 50 -8.5 79t-61.5 29h-89l19 89l167 176h-224l24 113h373z" />
    <glyph glyph-name="four" unicode="4" horiz-adv-x="519" 
d="M495 268l-24 -114h-86l-32 -154h-124l33 154h-261l21 101l313 454h144l-305 -441h114l29 134h121l-29 -134h86z" />
    <glyph glyph-name="five" unicode="5" horiz-adv-x="498" 
d="M304 478q82 0 126 -62.5t24 -157.5l-16 -71q-16 -88 -79 -145.5t-147 -57.5q-94 0 -145.5 58.5t-33.5 138.5l2 11h123l-2 -11q-8 -35 11 -59t56 -24q32 0 58 25t34 64l15 71q12 49 -7 77.5t-56 28.5q-31 0 -56.5 -24t-33.5 -59l-2 -9h-116l94 439h366l-24 -113h-244
l-30 -143q41 23 83 23z" />
    <glyph glyph-name="six" unicode="6" horiz-adv-x="510" 
d="M277 432h10q87 0 141 -65t46 -156q-10 -99 -77 -163t-162 -64q-100 0 -160.5 66.5t-50.5 160.5q9 85 65 158l254 341h146zM261 324q-44 0 -76.5 -30.5t-37.5 -82.5q-5 -53 19.5 -83.5t70.5 -30.5q45 0 76 30.5t36 83.5q5 52 -19.5 82.5t-68.5 30.5z" />
    <glyph glyph-name="seven" unicode="7" horiz-adv-x="463" 
d="M532 710l-21 -100l-329 -610h-137l325 597h-149l-19 -87h-123l43 200h410z" />
    <glyph glyph-name="eight" unicode="8" horiz-adv-x="546" 
d="M520 535q-11 -103 -90 -154q77 -66 66 -171q-10 -99 -78.5 -162.5t-168.5 -63.5q-104 0 -166.5 65.5t-52.5 160.5q7 67 42.5 118.5t92.5 78.5q-48 51 -40 128q8 83 66 137t142 54q91 0 143 -55t44 -136zM156 215q-6 -52 20.5 -84t74.5 -32q49 0 81.5 31t38.5 85
q7 54 -19.5 86t-76.5 32q-48 0 -80.5 -32t-38.5 -86zM248 529q-4 -37 14 -59.5t52 -22.5q33 0 55.5 22t27.5 60q4 38 -14 60t-52 22t-56.5 -22.5t-26.5 -59.5z" />
    <glyph glyph-name="nine" unicode="9" horiz-adv-x="509" 
d="M270 278h-9q-86 0 -141.5 65t-45.5 156q10 99 77 163t162 64q100 0 160.5 -66.5t50.5 -160.5q-9 -85 -65 -158l-254 -341h-146zM287 386q44 0 76.5 30.5t37.5 82.5q5 53 -19.5 83.5t-70.5 30.5q-45 0 -76 -30.5t-36 -83.5q-5 -52 19.5 -82.5t68.5 -30.5z" />
    <glyph glyph-name="colon" unicode=":" horiz-adv-x="260" 
d="M263 542l-30 -139h-138l29 139h139zM182 139l-30 -139h-138l29 139h139z" />
    <glyph glyph-name="semicolon" unicode=";" horiz-adv-x="264" 
d="M179 139l-27 -129l-1 -1l-77 -146h-73l74 137h-68l29 139h143zM256 542l-30 -139h-138l29 139h139z" />
    <glyph glyph-name="less" unicode="&#x3c;" 
d="M96 361l355 156l-24 -111l-219 -93l179 -93l-20 -97l-288 156z" />
    <glyph glyph-name="equal" unicode="=" 
d="M117 452h344l-19 -93h-345zM80 281h344l-19 -93h-345z" />
    <glyph glyph-name="greater" unicode="&#x3e;" 
d="M426 279l-354 -156l24 111l219 93l-180 93l21 97l288 -156z" />
    <glyph glyph-name="question" unicode="?" horiz-adv-x="447" 
d="M185 409h53q40 0 66 23.5t35 61.5l6 29q11 45 -5 71t-55 26q-32 0 -55 -22t-29 -55l-2 -11h-115l3 13q15 79 70 130t137 51q95 0 140 -58t26 -143l-7 -33q-15 -73 -60.5 -123.5t-114.5 -62.5l-13 -63h-115zM260 139l-30 -139h-138l29 139h139z" />
    <glyph glyph-name="at" unicode="@" horiz-adv-x="809" 
d="M354 45q-77 0 -114 54t-20 134l25 116q16 79 64 126.5t113 47.5q68 0 93 -55l9 42h99l-69 -314q-12 -59 32 -59q42 0 54 61h1l39 183q27 127 -25 198t-178 71q-119 0 -196.5 -67.5t-102.5 -180.5l-43 -201q-29 -136 22.5 -212t176.5 -76l-20 -97q-158 0 -237.5 110.5
t-43.5 274.5l43 201q29 151 136 247t270 96q173 0 254 -104.5t48 -259.5l-40 -184q-15 -75 -58.5 -116t-107.5 -41q-77 0 -108 58q-43 -53 -116 -53zM455 223l22 110q10 44 -3 68t-45 24q-29 0 -50.5 -22t-28.5 -57l-23 -110q-10 -44 3 -68.5t44 -24.5q30 0 51.5 21.5
t29.5 58.5z" />
    <glyph glyph-name="A" unicode="A" horiz-adv-x="560" 
d="M497 0h-128l-9 150h-204l-72 -150h-136l365 710h123zM339 531l-128 -266h143z" />
    <glyph glyph-name="B" unicode="B" horiz-adv-x="564" 
d="M163 710h179q48 0 84.5 -11.5t57.5 -31.5t34.5 -45.5t14 -53t-3.5 -54.5q-18 -86 -84 -129q49 -27 68.5 -75.5t7.5 -103.5q-18 -89 -81 -147.5t-164 -58.5h-264zM321 309h-119l-41 -195h115q94 0 118 96q10 43 -10.5 71t-62.5 28zM332 596h-69l-37 -174h68q43 0 71 22.5
t36 61.5q10 43 -7.5 66.5t-61.5 23.5z" />
    <glyph glyph-name="C" unicode="C" horiz-adv-x="554" 
d="M513 238l-2 -10q-19 -106 -88.5 -175t-173.5 -69q-115 0 -170.5 78t-29.5 197l48 224q21 106 90 174.5t172 68.5q112 0 168 -72.5t36 -168.5l-1 -4h-125l1 5q10 51 -13 88t-76 37q-48 0 -82 -36.5t-45 -91.5l-48 -225q-17 -75 5.5 -117t79.5 -42q47 0 82 37t45 92l2 10
h125z" />
    <glyph glyph-name="D" unicode="D" horiz-adv-x="576" 
d="M163 710h194q118 0 174 -72.5t32 -187.5l-46 -215q-21 -104 -91.5 -169.5t-175.5 -65.5h-238zM263 595l-102 -480h94q53 0 89 33t48 86l47 216q15 71 -8.5 108t-78.5 37h-89z" />
    <glyph glyph-name="E" unicode="E" horiz-adv-x="495" 
d="M517 595h-253l-37 -173h202l-24 -115h-203l-41 -192h261l-24 -115h-386l151 710h378z" />
    <glyph glyph-name="F" unicode="F" horiz-adv-x="470" 
d="M513 595h-249l-37 -173h187l-25 -115h-187l-65 -307h-125l151 710h374z" />
    <glyph glyph-name="G" unicode="G" horiz-adv-x="574" 
d="M260 99q53 0 90 33t49 96l8 36h-125l24 113h240l-80 -377h-101l9 41q-57 -57 -140 -57q-103 0 -157 76t-30 185l51 238q21 106 90 174.5t171 68.5q115 0 170.5 -72t36.5 -167l-2 -5h-125l2 6q10 49 -13 86t-74 37q-50 0 -84 -36t-47 -92l-48 -225q-17 -76 6.5 -117.5
t78.5 -41.5z" />
    <glyph glyph-name="H" unicode="H" horiz-adv-x="602" 
d="M502 710h125l-151 -710h-125l65 307h-214l-65 -307h-125l151 710h125l-61 -288h214z" />
    <glyph glyph-name="I" unicode="I" horiz-adv-x="264" 
d="M163 710h125l-151 -710h-125z" />
    <glyph glyph-name="J" unicode="J" horiz-adv-x="492" 
d="M395 710h126l-111 -522q-19 -89 -81 -146.5t-149 -57.5q-101 0 -148.5 61.5t-30.5 142.5l8 39h123l-9 -40q-9 -39 7 -63.5t55 -24.5q37 0 64 24.5t35 63.5z" />
    <glyph glyph-name="K" unicode="K" horiz-adv-x="551" 
d="M475 710h146l-270 -321l146 -389h-133l-104 304l-76 -84l-47 -220h-125l151 710h125l-67 -313z" />
    <glyph glyph-name="L" unicode="L" horiz-adv-x="458" 
d="M288 710l-127 -595h252l-24 -115h-377l151 710h125z" />
    <glyph glyph-name="M" unicode="M" horiz-adv-x="724" 
d="M342 227l-108 228l-97 -455h-125l151 710h78l140 -314l275 314h92l-151 -710h-125l97 456l-201 -229h-26z" />
    <glyph glyph-name="N" unicode="N" horiz-adv-x="617" 
d="M641 710l-151 -710h-113l-139 474l-101 -474h-125l151 710h117l139 -458l98 458h124z" />
    <glyph glyph-name="O" unicode="O" horiz-adv-x="583" 
d="M364 726q119 0 176 -78t32 -195l-48 -224q-21 -106 -92.5 -175.5t-174.5 -69.5q-121 0 -178 78t-30 197l48 224q20 104 92 173.5t175 69.5zM356 611q-50 0 -85.5 -36t-48.5 -92l-48 -225q-16 -72 8 -115.5t83 -43.5q52 0 88 36.5t46 92.5l48 225q15 72 -9 115t-82 43z
" />
    <glyph glyph-name="P" unicode="P" horiz-adv-x="522" 
d="M163 710h175q114 0 170 -61.5t36 -163.5q-21 -100 -88 -156.5t-170 -56.5h-91l-58 -272h-125zM333 595h-70l-44 -208h73q101 0 125 103q24 105 -84 105z" />
    <glyph glyph-name="Q" unicode="Q" horiz-adv-x="607" 
d="M572 452l-41 -192q-20 -89 -81 -145h112l-24 -115h-280q-116 0 -173 79t-33 195l45 209q21 106 92 174.5t177 68.5q116 0 173 -79t33 -195zM222 483l-45 -209q-17 -74 7.5 -116.5t81.5 -42.5q51 0 87 36.5t48 92.5l45 208q17 72 -7.5 115.5t-81.5 43.5q-52 0 -88.5 -36.5
t-46.5 -91.5z" />
    <glyph glyph-name="R" unicode="R" horiz-adv-x="563" 
d="M163 710h184q112 0 158.5 -62.5t30.5 -144.5q-13 -65 -58 -118t-117 -70l178 -315h-137l-162 308h-38l-65 -308h-125zM342 596h-79l-37 -174h78q42 0 70.5 23t36.5 62q9 42 -9 65.5t-60 23.5z" />
    <glyph glyph-name="S" unicode="S" horiz-adv-x="531" 
d="M403 488l3 15q11 50 -13 79t-65 29q-34 0 -61.5 -19t-35.5 -53q-10 -39 9.5 -63.5t61.5 -45.5l56 -28q147 -74 121 -222q-17 -93 -88.5 -144.5t-162.5 -51.5q-103 0 -164 63.5t-38 167.5l3 15h122l-3 -14q-11 -53 13 -85t75 -32q44 0 75.5 21.5t42.5 62.5q9 42 -11 68
t-62 48l-57 29q-75 38 -103.5 89.5t-14.5 123.5q14 83 77.5 134t154.5 51q101 0 154.5 -63t35.5 -154l-5 -21h-120z" />
    <glyph glyph-name="T" unicode="T" horiz-adv-x="488" 
d="M565 710l-25 -115h-164l-126 -595h-125l126 595h-165l24 115h455z" />
    <glyph glyph-name="U" unicode="U" horiz-adv-x="590" 
d="M495 710h125l-103 -483q-21 -107 -90 -175t-171 -68q-113 0 -167 74.5t-30 188.5l99 463h125l-99 -464q-17 -69 5 -108t76 -39q47 0 81 35.5t46 91.5z" />
    <glyph glyph-name="V" unicode="V" horiz-adv-x="559" 
d="M647 710l-364 -710h-122l-62 710h125l34 -517l251 517h138z" />
    <glyph glyph-name="W" unicode="W" horiz-adv-x="844" 
d="M926 710l-305 -710h-134l-22 470l-221 -470h-134l-5 710h127l-5 -490l223 490h123l17 -486l201 486h135z" />
    <glyph glyph-name="X" unicode="X" horiz-adv-x="562" 
d="M638 710l-261 -355l120 -355h-133l-83 259l-182 -259h-150l282 382l-115 328h139l70 -236l165 236h148z" />
    <glyph glyph-name="Y" unicode="Y" horiz-adv-x="567" 
d="M662 710l-301 -362l-74 -348h-125l75 352l-136 358h138l80 -234l186 234h157z" />
    <glyph glyph-name="Z" unicode="Z" horiz-adv-x="505" 
d="M557 710l-22 -102l-375 -493h277l-25 -115h-431l22 102l372 493h-264l25 115h421z" />
    <glyph glyph-name="bracketleft" unicode="[" horiz-adv-x="298" 
d="M132 16h75l-21 -101h-191l183 860h191l-22 -101h-76z" />
    <glyph glyph-name="backslash" unicode="\" horiz-adv-x="568" 
d="M235 775l243 -860h-113l-243 860h113z" />
    <glyph glyph-name="bracketright" unicode="]" horiz-adv-x="298" 
d="M199 674h-75l21 101h191l-183 -860h-191l22 101h76z" />
    <glyph glyph-name="asciicircum" unicode="^" horiz-adv-x="501" 
d="M390 710l100 -328h-101l-61 209l-150 -209h-112l239 328h85z" />
    <glyph glyph-name="underscore" unicode="_" horiz-adv-x="340" 
d="M-71 -68h339l-22 -101h-339z" />
    <glyph glyph-name="grave" unicode="`" horiz-adv-x="585" 
d="M39 729h139l87 -117h-115z" />
    <glyph glyph-name="a" unicode="a" horiz-adv-x="486" 
d="M386 542h101l-115 -542h-101l8 37q-47 -50 -107 -50q-77 0 -120 60.5t-21 159.5l33 152q19 94 75.5 145t123.5 51q83 0 113 -61zM297 185l32 152q12 53 -4.5 82.5t-55.5 29.5q-34 0 -58.5 -26t-33.5 -66l-32 -152q-12 -53 4.5 -82.5t55.5 -29.5q34 0 58.5 26t33.5 66z
" />
    <glyph glyph-name="b" unicode="b" horiz-adv-x="487" 
d="M102 0h-101l155 729h115l-44 -205q39 31 87 31q78 0 121 -61t22 -159l-32 -152q-19 -94 -75.5 -145t-124.5 -51q-85 0 -113 61zM191 357l-32 -152q-12 -53 4.5 -82.5t55.5 -29.5q34 0 58.5 26t33.5 66l32 152q12 53 -5 82.5t-56 29.5q-34 0 -58 -25.5t-33 -66.5z" />
    <glyph glyph-name="c" unicode="c" horiz-adv-x="457" 
d="M327 361l1 6q7 33 -9.5 57.5t-53.5 24.5q-33 0 -55.5 -25.5t-31.5 -66.5l-33 -152q-12 -53 3.5 -82.5t53.5 -29.5q34 0 57 23.5t32 63.5l1 5h115l-2 -7q-17 -85 -71 -138t-138 -53q-97 0 -142 61.5t-24 154.5l33 156q16 87 71 141.5t138 54.5q94 0 139 -56t30 -130l-2 -8
h-112z" />
    <glyph glyph-name="d" unicode="d" horiz-adv-x="487" 
d="M263 555q70 0 103 -45l47 219h114l-155 -729h-101l8 37q-47 -50 -107 -50q-77 0 -120 60.5t-21 159.5l33 152q19 94 75.5 145t123.5 51zM297 185l32 152q12 53 -4.5 82.5t-55.5 29.5q-34 0 -58.5 -26t-33.5 -66l-32 -152q-12 -53 4.5 -82.5t55.5 -29.5q34 0 58.5 26
t33.5 66z" />
    <glyph glyph-name="e" unicode="e" horiz-adv-x="474" 
d="M280 555q97 0 142 -61.5t26 -154.5l-23 -104h-274l-6 -30q-12 -53 5 -82.5t59 -29.5q36 0 60.5 23t33.5 59v4h114l-1 -5q-18 -88 -75 -137.5t-142 -49.5q-98 0 -144 62t-25 154l33 156q21 92 77 144t140 52zM177 357l-5 -24h160l1 4q11 53 -5.5 82.5t-57.5 29.5
q-35 0 -59.5 -26t-33.5 -66z" />
    <glyph glyph-name="f" unicode="f" horiz-adv-x="315" 
d="M356 542l-22 -101h-92l-93 -441h-115l94 441h-72l22 101h71l15 68q12 55 51 89.5t102 34.5h80l-22 -101h-49q-42 0 -53 -46l-10 -45h93z" />
    <glyph glyph-name="g" unicode="g" horiz-adv-x="486" 
d="M269 555q75 0 106 -63l11 50h101l-112 -529q-21 -92 -77 -144.5t-139 -52.5q-86 0 -132 55.5t-32 124.5l1 4h111v-2q-7 -32 10.5 -53.5t49.5 -21.5q35 0 59.5 24t33.5 68l8 38q-38 -28 -89 -28q-77 0 -119 60t-21 160l24 113q21 96 78 146.5t128 50.5zM305 223l24 114
q11 52 -5 82t-55 30q-34 0 -58.5 -26t-33.5 -67l-25 -114q-11 -51 6 -81t56 -30q34 0 58 25.5t33 66.5z" />
    <glyph glyph-name="h" unicode="h" horiz-adv-x="492" 
d="M266 0l76 357q9 43 -5 67.5t-51 24.5q-67 0 -91 -75l-79 -374h-115l155 729h115l-46 -214q45 40 102 40q77 0 113 -53.5t20 -128.5l-79 -373h-115z" />
    <glyph glyph-name="i" unicode="i" horiz-adv-x="229" 
d="M231 542l-115 -542h-115l115 542h115zM273 732l-25 -118h-121l25 118h121z" />
    <glyph glyph-name="j" unicode="j" horiz-adv-x="230" 
d="M-3 -16l119 558h115l-120 -564q-12 -65 -56.5 -107t-105.5 -42h-58l21 102h24q22 0 39 15t22 38zM274 732l-25 -118h-121l25 118h121z" />
    <glyph glyph-name="k" unicode="k" horiz-adv-x="466" 
d="M290 0l-78 232l-61 -64l-35 -168h-115l155 729h115l-85 -397l185 210h139l-213 -235l112 -307h-119z" />
    <glyph glyph-name="l" unicode="l" horiz-adv-x="229" 
d="M156 729h115l-155 -729h-115z" />
    <glyph glyph-name="m" unicode="m" horiz-adv-x="729" 
d="M253 0l78 366q18 83 -50 83q-33 0 -57 -23.5t-32 -63.5l-44 1q17 86 64 139l-7 -34l7 -16l-16 -72l-80 -380h-115l115 542h105l-9 -40q47 53 113 53q79 0 113 -59q52 59 129 59q76 0 112 -50.5t21 -121.5l-81 -383h-115l78 366q18 83 -50 83q-29 0 -51 -19t-32 -49
l-81 -381h-115z" />
    <glyph glyph-name="n" unicode="n" horiz-adv-x="492" 
d="M266 0l76 357q9 43 -5 67.5t-51 24.5q-32 0 -56 -20t-35 -56l-79 -373h-115l115 542h105l-9 -40q50 53 115 53q77 0 113 -53.5t20 -128.5l-79 -373h-115z" />
    <glyph glyph-name="o" unicode="o" horiz-adv-x="476" 
d="M283 555q97 0 141.5 -62t25.5 -154l-34 -156q-19 -91 -76.5 -143.5t-143.5 -52.5q-96 0 -141 62t-25 154l33 156q19 91 76.5 143.5t143.5 52.5zM302 185l32 152q12 53 -5 82.5t-56 29.5q-37 0 -62 -25.5t-34 -66.5l-33 -152q-11 -53 5.5 -82.5t56.5 -29.5q36 0 61.5 26
t34.5 66z" />
    <glyph glyph-name="p" unicode="p" horiz-adv-x="487" 
d="M80 -171h-115l152 713h101l-7 -34q45 47 104 47q78 0 121 -61t22 -159l-32 -152q-19 -94 -75.5 -145t-124.5 -51q-73 0 -103 44zM192 357l-32 -152q-12 -53 4.5 -82.5t55.5 -29.5q34 0 58.5 26t33.5 66l32 152q12 53 -5 82.5t-56 29.5q-34 0 -58 -25.5t-33 -66.5z" />
    <glyph glyph-name="q" unicode="q" horiz-adv-x="486" 
d="M263 555q83 0 113 -61l10 48h101l-151 -713h-115l40 188q-39 -30 -87 -30q-78 0 -121.5 60.5t-21.5 159.5l32 152q19 94 75.5 145t124.5 51zM297 185l32 152q12 53 -4.5 82.5t-55.5 29.5q-34 0 -58.5 -26t-33.5 -66l-32 -152q-12 -53 4.5 -82.5t55.5 -29.5q34 0 58.5 26
t33.5 66z" />
    <glyph glyph-name="r" unicode="r" horiz-adv-x="327" 
d="M347 437h-34q-48 0 -82.5 -30t-45.5 -84h-1l-68 -323h-115l115 542h105l-11 -51q52 64 135 64h27z" />
    <glyph glyph-name="s" unicode="s" horiz-adv-x="443" 
d="M308 365l2 10q7 33 -7 53.5t-48 20.5q-60 0 -73 -48q-5 -27 10.5 -41t55.5 -31l43 -20q53 -23 80.5 -67.5t13.5 -101.5q-15 -72 -68 -112.5t-133 -40.5q-92 0 -139.5 53t-32.5 120l4 21h113l-2 -9q-9 -37 10 -58t54 -21q32 0 54 14.5t27 37.5q5 30 -10.5 45.5t-51.5 31.5
l-46 20q-120 52 -95 169q15 68 66.5 106t126.5 38q78 0 128 -49.5t33 -131.5l-2 -9h-113z" />
    <glyph glyph-name="t" unicode="t" horiz-adv-x="329" 
d="M333 441h-93l-60 -283q-10 -51 35 -51h49l-23 -107h-51q-69 0 -105 40.5t-24 97.5l64 303h-69l22 101h69l33 155h114l-33 -155h94z" />
    <glyph glyph-name="u" unicode="u" horiz-adv-x="492" 
d="M227 542l-76 -357q-18 -92 57 -92q35 0 60.5 25t33.5 67l76 357h115l-115 -542h-105l9 41q-48 -54 -116 -54q-75 0 -112 54t-21 128l80 373h114z" />
    <glyph glyph-name="v" unicode="v" horiz-adv-x="464" 
d="M70 542h118l20 -373l180 373h125l-279 -542h-116z" />
    <glyph glyph-name="w" unicode="w" horiz-adv-x="696" 
d="M626 542h115l-248 -542h-111l-16 340l-161 -340h-116l-18 542h117l-1 -373l167 373h100l10 -383z" />
    <glyph glyph-name="x" unicode="x" horiz-adv-x="467" 
d="M502 542l-202 -264l107 -278h-124l-63 185l-130 -185h-133l215 287l-101 255h124l59 -165l114 165h134z" />
    <glyph glyph-name="y" unicode="y" horiz-adv-x="473" 
d="M524 542l-442 -712h-125l218 346l-112 366h122l66 -246l144 246h129z" />
    <glyph glyph-name="z" unicode="z" horiz-adv-x="429" 
d="M145 101h216l-22 -101h-359l20 97l281 344h-206l22 101h349l-21 -96z" />
    <glyph glyph-name="braceleft" unicode="{" horiz-adv-x="300" 
d="M184 -85h-22q-65 0 -96.5 40.5t-19.5 100.5l42 196q8 42 -27 42h-21l7 32h-1l15 70h21q34 0 45 42l43 202q29 135 141 135h50l-21 -101h-17q-32 0 -41 -42l-41 -197q-12 -66 -73 -96q44 -33 32 -93l-39 -188q-11 -42 28 -42h17z" />
    <glyph glyph-name="bar" unicode="|" horiz-adv-x="256" 
d="M178 775h115l-183 -860h-115z" />
    <glyph glyph-name="braceright" unicode="}" horiz-adv-x="300" 
d="M150 775h22q65 0 96.5 -40.5t19.5 -100.5l-42 -196q-8 -42 27 -42h21l-7 -32h1l-15 -70h-21q-34 0 -45 -42l-43 -202q-29 -135 -141 -135h-50l21 101h17q32 0 41 42l41 197q12 66 72 95q-45 33 -31 94l39 188q11 42 -28 42h-17z" />
    <glyph glyph-name="asciitilde" unicode="~" horiz-adv-x="501" 
d="M372 397h94l-6 -25q-12 -63 -46 -97.5t-80 -34.5q-31 0 -51 9.5t-43 31.5q-3 3 -10.5 9.5t-10 9t-8 6t-9.5 5t-8 1.5q-26 0 -40 -65l-94 -1l5 26q13 63 47 97.5t80 34.5q50 0 95 -42q4 -4 12.5 -11t12 -10t9.5 -6t11 -3q26 0 40 65z" />
    <glyph glyph-name="uni00A0" unicode="&#xa0;" horiz-adv-x="216" 
 />
    <glyph glyph-name="exclamdown" unicode="&#xa1;" horiz-adv-x="262" 
d="M117 -168h-155l130 461h90zM88 403l30 139h138l-29 -139h-139z" />
    <glyph glyph-name="cent" unicode="&#xa2;" 
d="M371 430l1 6q11 54 -28 76l-68 -316q52 21 65 82l1 5h113l-2 -6q-16 -79 -66.5 -131t-128.5 -60l-18 -86h-83l19 91q-69 17 -99.5 71t-15.5 120l32 147q14 79 66.5 133t130.5 62l18 86h83l-20 -92q67 -17 96 -67.5t17 -112.5l-2 -8h-111zM205 427l-30 -143
q-14 -65 29 -87l67 317q-53 -23 -66 -87z" />
    <glyph glyph-name="sterling" unicode="&#xa3;" 
d="M398 0h-398l25 120h45l34 160h-45l17 80h45l41 191q15 76 67.5 125.5t123.5 49.5q78 0 121.5 -56t25.5 -135l-12 -54h-119l12 55q9 37 -2.5 56.5t-36.5 19.5q-45 0 -56 -59l-41 -193h108l-17 -80h-108l-34 -160h229z" />
    <glyph glyph-name="currency" unicode="&#xa4;" horiz-adv-x="501" 
d="M460 173l-74 -64l-55 62q-41 -22 -89 -22t-82 21l-71 -61l-57 66l68 59q-20 41 -14 86q5 47 31 85l-55 62l72 65l56 -63q41 22 88 22q46 0 83 -22l71 63l59 -64l-70 -64q18 -38 14 -84q-6 -46 -31 -84zM252 234q36 0 62.5 24t30.5 62t-17.5 62t-57.5 24t-62 -24t-31 -62
q-4 -38 17.5 -62t57.5 -24z" />
    <glyph glyph-name="yen" unicode="&#xa5;" horiz-adv-x="501" 
d="M378 130h-94l-27 -130h-125l27 130h-93l17 80h93l14 65h-93l17 79h93l2 6l-115 350h138l63 -206l144 206h151l-256 -348l-2 -8h94l-17 -79h-94l-14 -65h94z" />
    <glyph glyph-name="brokenbar" unicode="&#xa6;" horiz-adv-x="254" 
d="M293 775l-73 -346h-115l73 346h115zM-4 -85l73 346h115l-74 -346h-114z" />
    <glyph glyph-name="section" unicode="&#xa7;" horiz-adv-x="469" 
d="M62 354q16 69 86 112q-33 47 -19 117q13 61 61 102t122 41q81 0 124.5 -50.5t28.5 -120.5l-3 -18h-94l3 13q8 39 -12 61.5t-54 22.5q-30 0 -51.5 -15.5t-28.5 -42.5q-3 -17 2.5 -32t12.5 -24.5t25.5 -21.5t26.5 -16.5t31 -15.5q25 -13 44 -26.5t38.5 -35.5t26.5 -51.5
t0 -64.5q-16 -70 -82 -115q36 -47 22 -114q-15 -75 -70.5 -117.5t-127.5 -42.5q-83 0 -131 51t-31 132l3 14h97l-3 -13q-10 -42 10 -67t62 -25q35 0 60.5 18t32.5 50q4 9 1.5 18.5t-2.5 15.5t-5.5 13.5t-8.5 12t-11 10.5t-12.5 9t-14 8t-15.5 8l-16 8l-16 8
q-136 67 -112 184zM271 233l12 -6q40 19 50 64q3 19 -0.5 33.5t-17 26t-23 18t-33 18t-31.5 16.5l-12 6q-45 -18 -55 -61q-5 -9 -0.5 -20.5t5.5 -18t11 -16t15 -14t17.5 -12.5t20 -12t21 -11t20.5 -11z" />
    <glyph glyph-name="dieresis" unicode="&#xa8;" horiz-adv-x="487" 
d="M339 725l-23 -109h-114l23 109h114zM510 725l-23 -109h-114l23 109h114z" />
    <glyph glyph-name="copyright" unicode="&#xa9;" horiz-adv-x="700" 
d="M496 307v-9q0 -52 -34.5 -89t-91.5 -37t-90.5 36.5t-33.5 89.5v121q0 50 33.5 86.5t89.5 36.5q57 0 90.5 -36.5t33.5 -88.5v-7h-84v8q0 19 -10.5 32t-29.5 13t-29 -13t-10 -31v-122q0 -19 10 -32.5t30 -13.5q19 0 30 14t11 33v9h85zM368 44q-129 0 -215.5 89.5
t-86.5 221.5t86.5 221.5t215.5 89.5t215.5 -89.5t86.5 -221.5t-86.5 -221.5t-215.5 -89.5zM368 120q96 0 158 65t62 170t-62 170t-158 65t-158 -65t-62 -170t62 -170t158 -65z" />
    <glyph glyph-name="ordfeminine" unicode="&#xaa;" horiz-adv-x="303" 
d="M233 726q53 0 78 -30.5t16 -70.5l-39 -183h-61l3 17q-24 -24 -59 -24q-45 0 -64.5 28t-12.5 67q7 34 35 57.5t70 23.5q31 0 51 -17l7 31q4 16 -3.5 25.5t-23.5 9.5q-31 0 -37 -30l-1 -3h-69l1 3q9 43 37 69.5t72 26.5zM196 491q37 0 42 32q2 15 -6 24t-26 9
q-17 0 -29 -9.5t-14 -23.5t6.5 -23t26.5 -9z" />
    <glyph glyph-name="guillemotleft" unicode="&#xab;" horiz-adv-x="522" 
d="M464 520l61 -63l-164 -151l91 -133l-74 -53l-136 195zM240 520l60 -63l-148 -146l93 -138l-73 -53l-131 200z" />
    <glyph glyph-name="logicalnot" unicode="&#xac;" 
d="M443 366l-20 -92l-26 -121h-94l25 121h-253l20 92h348z" />
    <glyph glyph-name="uni00AD" unicode="&#xad;" horiz-adv-x="332" 
d="M82 373h214l-22 -106h-215z" />
    <glyph glyph-name="registered" unicode="&#xae;" horiz-adv-x="458" 
d="M282 340q-81 0 -134.5 54.5t-53.5 138.5t53.5 138.5t134.5 54.5t135 -54.5t54 -138.5t-54 -138.5t-135 -54.5zM282 393q57 0 94 38.5t37 101.5t-37 102t-94 39q-56 0 -93 -39t-37 -102t37 -101.5t93 -38.5zM218 641h64q37 0 56 -18t19 -47q0 -36 -30 -53l36 -96h-59
l-27 86h-5v-86h-54v214zM283 594h-11v-36h11q8 0 13 5.5t5 12.5q0 18 -18 18z" />
    <glyph glyph-name="macron" unicode="&#xaf;" horiz-adv-x="585" 
d="M506 703l-19 -87h-274l18 87h275z" />
    <glyph glyph-name="degree" unicode="&#xb0;" horiz-adv-x="405" 
d="M248 385q-72 0 -117.5 49.5t-37.5 120.5q8 73 60 122t123 49q72 0 117.5 -49.5t37.5 -121.5q-8 -73 -60 -121.5t-123 -48.5zM254 476q32 0 54.5 22t26.5 57t-14.5 57.5t-50.5 22.5t-54.5 -22.5t-26.5 -57.5t14.5 -57t50.5 -22z" />
    <glyph glyph-name="plusminus" unicode="&#xb1;" 
d="M355 538l-27 -126h125l-19 -92h-126l-19 -92h-94l19 92h-125l20 92h125l27 126h94zM62 189h344l-19 -92h-345z" />
    <glyph glyph-name="acute" unicode="&#xb4;" horiz-adv-x="585" 
d="M450 729l-114 -117h-121l95 117h140z" />
    <glyph glyph-name="paragraph" unicode="&#xb6;" horiz-adv-x="533" 
d="M551 710l-188 -881h-94l168 791h-52l-169 -791h-94l105 496h-40q-69 0 -100.5 37.5t-20.5 89.5l28 130q10 58 45.5 93t95.5 35h316z" />
    <glyph glyph-name="periodcentered" unicode="&#xb7;" horiz-adv-x="255" 
d="M230 389l-30 -139h-138l29 139h139z" />
    <glyph glyph-name="cedilla" unicode="&#xb8;" horiz-adv-x="585" 
d="M272 -149h-110l91 179l94 -25z" />
    <glyph glyph-name="ordmasculine" unicode="&#xba;" horiz-adv-x="301" 
d="M233 726q55 0 81.5 -31.5t17.5 -72.5l-18 -83q-9 -45 -38.5 -74.5t-76.5 -29.5q-56 0 -82 31.5t-17 72.5l17 83q9 46 39 75t77 29zM245 540l17 81q4 17 -4.5 28t-27.5 11q-17 0 -29 -11.5t-15 -27.5l-17 -81q-4 -17 4 -28t27 -11q17 0 29 11t16 28z" />
    <glyph glyph-name="guillemotright" unicode="&#xbb;" horiz-adv-x="521" 
d="M81 120l-61 63l164 151l-91 133l74 53l136 -195zM305 120l-60 63l148 145l-93 139l73 53l131 -200z" />
    <glyph glyph-name="onequarter" unicode="&#xbc;" horiz-adv-x="694" 
d="M600 710h93l-512 -710h-93zM634 135l-14 -66h-41l-15 -69h-72l15 69h-124l13 61l150 207h84l-147 -202h45l11 52h65l-11 -52h41zM255 439l-14 -67h-173l14 67h51l43 204h-56l15 67h127l-58 -271h51z" />
    <glyph glyph-name="onehalf" unicode="&#xbd;" horiz-adv-x="661" 
d="M571 710h93l-512 -710h-93zM595 67l-14 -67h-201l13 60l148 153q9 9 17 32q4 14 -3.5 23.5t-21.5 9.5q-12 0 -22 -9t-13 -24l-3 -14h-72l3 14q9 44 38.5 72t72.5 28q49 0 75.5 -32t15.5 -77q-8 -35 -30 -58l-109 -111h106zM254 439l-14 -67h-173l14 67h51l43 204h-56
l15 67h127l-58 -271h51z" />
    <glyph glyph-name="threequarters" unicode="&#xbe;" horiz-adv-x="711" 
d="M605 710h93l-512 -710h-93zM651 135l-14 -66h-41l-15 -69h-72l15 69h-124l13 61l150 207h84l-147 -202h45l11 52h65l-11 -52h41zM326 651l-80 -73q32 -11 46.5 -36.5t8.5 -53.5l-6 -24q-9 -44 -38 -72.5t-72 -28.5q-51 0 -79 30.5t-19 70.5l3 13h70l-3 -13
q-3 -14 5 -23.5t24 -9.5q13 0 24 9t14 24l5 24q3 15 -6 25t-26 10h-49l12 53l73 69h-104l14 66h196z" />
    <glyph glyph-name="questiondown" unicode="&#xbf;" horiz-adv-x="441" 
d="M260 133h-53q-40 0 -66 -23.5t-35 -61.5l-6 -29q-11 -45 5 -71t55 -26q32 0 55 22t29 55l2 11h115l-3 -13q-15 -79 -70 -130t-137 -51q-96 0 -140.5 58t-25.5 143l7 33q15 74 60 123.5t114 61.5l14 64h115zM185 403l30 139h138l-29 -139h-139z" />
    <glyph glyph-name="Agrave" unicode="&#xc0;" horiz-adv-x="560" 
d="M497 0h-128l-9 150h-204l-72 -150h-136l365 710h123zM339 531l-128 -266h143zM227 897h139l87 -117h-115z" />
    <glyph glyph-name="Aacute" unicode="&#xc1;" horiz-adv-x="560" 
d="M497 0h-128l-9 150h-204l-72 -150h-136l365 710h123zM339 531l-128 -266h143zM557 897l-114 -117h-121l95 117h140z" />
    <glyph glyph-name="Acircumflex" unicode="&#xc2;" horiz-adv-x="560" 
d="M497 0h-128l-9 150h-204l-72 -150h-136l365 710h123zM339 531l-128 -266h143zM227 780l118 113h118l76 -113h-119l-23 48l-42 -48h-128z" />
    <glyph glyph-name="Atilde" unicode="&#xc3;" horiz-adv-x="560" 
d="M497 0h-128l-9 150h-204l-72 -150h-136l365 710h123zM339 531l-128 -266h143zM479 889h81q-6 -47 -36.5 -80.5t-71.5 -33.5q-28 0 -56 17q-5 3 -15 10t-16 9.5t-13 2.5q-24 0 -31 -33h-81q6 48 37 81t72 33q30 0 55 -18q5 -3 12.5 -8t11.5 -7t9.5 -4t10.5 -2q24 0 31 33z
" />
    <glyph glyph-name="Adieresis" unicode="&#xc4;" horiz-adv-x="560" 
d="M497 0h-128l-9 150h-204l-72 -150h-136l365 710h123zM339 531l-128 -266h143zM377 893l-23 -109h-114l23 109h114zM548 893l-23 -109h-114l23 109h114z" />
    <glyph glyph-name="Aring" unicode="&#xc5;" horiz-adv-x="560" 
d="M497 0h-128l-9 150h-204l-72 -150h-136l365 710h123zM339 531l-128 -266h143zM390 763q-54 0 -84.5 28.5t-25.5 74.5q4 44 40.5 73t90.5 29q53 0 83 -29.5t26 -72.5q-5 -48 -40.5 -75.5t-89.5 -27.5zM396 826q45 0 49 40q2 15 -9.5 27t-31.5 12q-19 0 -33 -11.5
t-16 -27.5q-2 -20 9 -30t32 -10z" />
    <glyph glyph-name="AE" unicode="&#xc6;" horiz-adv-x="858" 
d="M880 595h-253l-37 -173h202l-24 -115h-203l-41 -192h261l-24 -115h-386l32 150h-202l-112 -150h-153l562 710h402zM292 265h139l55 259z" />
    <glyph glyph-name="Ccedilla" unicode="&#xc7;" horiz-adv-x="554" 
d="M513 238l-2 -10q-19 -106 -88.5 -175t-173.5 -69q-115 0 -170.5 78t-29.5 197l48 224q21 106 90 174.5t172 68.5q112 0 168 -72.5t36 -168.5l-1 -4h-125l1 5q10 51 -13 88t-76 37q-48 0 -82 -36.5t-45 -91.5l-48 -225q-17 -75 5.5 -117t79.5 -42q47 0 82 37t45 92l2 10
h125zM228 -149h-121l76 154h116z" />
    <glyph glyph-name="Egrave" unicode="&#xc8;" horiz-adv-x="495" 
d="M517 595h-253l-37 -173h202l-24 -115h-203l-41 -192h261l-24 -115h-386l151 710h378zM205 897h139l87 -117h-115z" />
    <glyph glyph-name="Eacute" unicode="&#xc9;" horiz-adv-x="495" 
d="M517 595h-253l-37 -173h202l-24 -115h-203l-41 -192h261l-24 -115h-386l151 710h378zM535 897l-114 -117h-121l95 117h140z" />
    <glyph glyph-name="Ecircumflex" unicode="&#xca;" horiz-adv-x="495" 
d="M517 595h-253l-37 -173h202l-24 -115h-203l-41 -192h261l-24 -115h-386l151 710h378zM205 780l118 113h118l76 -113h-119l-23 48l-42 -48h-128z" />
    <glyph glyph-name="Edieresis" unicode="&#xcb;" horiz-adv-x="495" 
d="M517 595h-253l-37 -173h202l-24 -115h-203l-41 -192h261l-24 -115h-386l151 710h378zM355 893l-23 -109h-114l23 109h114zM526 893l-23 -109h-114l23 109h114z" />
    <glyph glyph-name="Igrave" unicode="&#xcc;" horiz-adv-x="264" 
d="M163 710h125l-151 -710h-125zM86 897h139l87 -117h-115z" />
    <glyph glyph-name="Iacute" unicode="&#xcd;" horiz-adv-x="264" 
d="M163 710h125l-151 -710h-125zM417 897l-114 -117h-121l95 117h140z" />
    <glyph glyph-name="Icircumflex" unicode="&#xce;" horiz-adv-x="264" 
d="M163 710h125l-151 -710h-125zM86 780l118 113h118l76 -113h-119l-23 48l-42 -48h-128z" />
    <glyph glyph-name="Idieresis" unicode="&#xcf;" horiz-adv-x="264" 
d="M163 710h125l-151 -710h-125zM237 893l-23 -109h-114l23 109h114zM408 893l-23 -109h-114l23 109h114z" />
    <glyph glyph-name="Eth" unicode="&#xd0;" horiz-adv-x="588" 
d="M175 710h194q118 0 174 -72.5t32 -187.5l-46 -215q-21 -104 -91.5 -169.5t-175.5 -65.5h-238l65 308h-65l24 114h65zM275 595l-37 -173h116l-25 -114h-115l-41 -193h94q53 0 89 33t48 86l47 216q15 71 -8.5 108t-78.5 37h-89z" />
    <glyph glyph-name="Ntilde" unicode="&#xd1;" horiz-adv-x="617" 
d="M641 710l-151 -710h-113l-139 474l-101 -474h-125l151 710h117l139 -458l98 458h124zM494 889h81q-6 -47 -36.5 -80.5t-71.5 -33.5q-28 0 -56 17q-5 3 -15 10t-16 9.5t-13 2.5q-24 0 -31 -33h-81q6 48 37 81t72 33q30 0 55 -18q5 -3 12.5 -8t11.5 -7t9.5 -4t10.5 -2
q24 0 31 33z" />
    <glyph glyph-name="Ograve" unicode="&#xd2;" horiz-adv-x="583" 
d="M364 726q119 0 176 -78t32 -195l-48 -224q-21 -106 -92.5 -175.5t-174.5 -69.5q-121 0 -178 78t-30 197l48 224q20 104 92 173.5t175 69.5zM356 611q-50 0 -85.5 -36t-48.5 -92l-48 -225q-16 -72 8 -115.5t83 -43.5q52 0 88 36.5t46 92.5l48 225q15 72 -9 115t-82 43z
M236 897h139l87 -117h-115z" />
    <glyph glyph-name="Oacute" unicode="&#xd3;" horiz-adv-x="583" 
d="M364 726q119 0 176 -78t32 -195l-48 -224q-21 -106 -92.5 -175.5t-174.5 -69.5q-121 0 -178 78t-30 197l48 224q20 104 92 173.5t175 69.5zM356 611q-50 0 -85.5 -36t-48.5 -92l-48 -225q-16 -72 8 -115.5t83 -43.5q52 0 88 36.5t46 92.5l48 225q15 72 -9 115t-82 43z
M566 897l-114 -117h-121l95 117h140z" />
    <glyph glyph-name="Ocircumflex" unicode="&#xd4;" horiz-adv-x="583" 
d="M364 726q119 0 176 -78t32 -195l-48 -224q-21 -106 -92.5 -175.5t-174.5 -69.5q-121 0 -178 78t-30 197l48 224q20 104 92 173.5t175 69.5zM356 611q-50 0 -85.5 -36t-48.5 -92l-48 -225q-16 -72 8 -115.5t83 -43.5q52 0 88 36.5t46 92.5l48 225q15 72 -9 115t-82 43z
M236 780l118 113h118l76 -113h-119l-23 48l-42 -48h-128z" />
    <glyph glyph-name="Otilde" unicode="&#xd5;" horiz-adv-x="583" 
d="M364 726q119 0 176 -78t32 -195l-48 -224q-21 -106 -92.5 -175.5t-174.5 -69.5q-121 0 -178 78t-30 197l48 224q20 104 92 173.5t175 69.5zM356 611q-50 0 -85.5 -36t-48.5 -92l-48 -225q-16 -72 8 -115.5t83 -43.5q52 0 88 36.5t46 92.5l48 225q15 72 -9 115t-82 43z
M488 889h81q-6 -47 -36.5 -80.5t-71.5 -33.5q-28 0 -56 17q-5 3 -15 10t-16 9.5t-13 2.5q-24 0 -31 -33h-81q6 48 37 81t72 33q30 0 55 -18q5 -3 12.5 -8t11.5 -7t9.5 -4t10.5 -2q24 0 31 33z" />
    <glyph glyph-name="Odieresis" unicode="&#xd6;" horiz-adv-x="583" 
d="M364 726q119 0 176 -78t32 -195l-48 -224q-21 -106 -92.5 -175.5t-174.5 -69.5q-121 0 -178 78t-30 197l48 224q20 104 92 173.5t175 69.5zM356 611q-50 0 -85.5 -36t-48.5 -92l-48 -225q-16 -72 8 -115.5t83 -43.5q52 0 88 36.5t46 92.5l48 225q15 72 -9 115t-82 43z
M386 893l-23 -109h-114l23 109h114zM557 893l-23 -109h-114l23 109h114z" />
    <glyph glyph-name="multiply" unicode="&#xd7;" horiz-adv-x="501" 
d="M453 431l-131 -117l86 -111l-73 -59l-83 107l-120 -107l-58 71l122 109l-86 114l73 58l83 -109l129 115z" />
    <glyph glyph-name="Oslash" unicode="&#xd8;" horiz-adv-x="585" 
d="M366 726q88 0 144 -46l30 37h124l-96 -119q22 -64 6 -145l-48 -224q-21 -106 -92.5 -175.5t-174.5 -69.5q-87 0 -144 43l-27 -34h-124l93 114q-25 68 -6 152l48 224q20 104 92 173.5t175 69.5zM357 611q-50 0 -85.5 -36t-48.5 -92l-48 -225q0 -2 -1 -5l-1 -5l251 338
q-25 25 -67 25zM266 99q52 0 88 36.5t46 92.5l47 221l-245 -329q24 -21 64 -21z" />
    <glyph glyph-name="Ugrave" unicode="&#xd9;" horiz-adv-x="590" 
d="M495 710h125l-103 -483q-21 -107 -90 -175t-171 -68q-113 0 -167 74.5t-30 188.5l99 463h125l-99 -464q-17 -69 5 -108t76 -39q47 0 81 35.5t46 91.5zM240 897h139l87 -117h-115z" />
    <glyph glyph-name="Uacute" unicode="&#xda;" horiz-adv-x="590" 
d="M495 710h125l-103 -483q-21 -107 -90 -175t-171 -68q-113 0 -167 74.5t-30 188.5l99 463h125l-99 -464q-17 -69 5 -108t76 -39q47 0 81 35.5t46 91.5zM570 897l-114 -117h-121l95 117h140z" />
    <glyph glyph-name="Ucircumflex" unicode="&#xdb;" horiz-adv-x="590" 
d="M495 710h125l-103 -483q-21 -107 -90 -175t-171 -68q-113 0 -167 74.5t-30 188.5l99 463h125l-99 -464q-17 -69 5 -108t76 -39q47 0 81 35.5t46 91.5zM240 780l118 113h118l76 -113h-119l-23 48l-42 -48h-128z" />
    <glyph glyph-name="Udieresis" unicode="&#xdc;" horiz-adv-x="590" 
d="M495 710h125l-103 -483q-21 -107 -90 -175t-171 -68q-113 0 -167 74.5t-30 188.5l99 463h125l-99 -464q-17 -69 5 -108t76 -39q47 0 81 35.5t46 91.5zM390 893l-23 -109h-114l23 109h114zM561 893l-23 -109h-114l23 109h114z" />
    <glyph glyph-name="Yacute" unicode="&#xdd;" horiz-adv-x="567" 
d="M662 710l-301 -362l-74 -348h-125l75 352l-136 358h138l80 -234l186 234h157zM554 897l-114 -117h-121l95 117h140z" />
    <glyph glyph-name="Thorn" unicode="&#xde;" horiz-adv-x="522" 
d="M163 710h125l-27 -125h48q114 0 170 -61.5t36 -163.5q-21 -100 -88 -156.5t-170 -56.5h-89l-31 -147h-125zM304 470h-67l-44 -208h70q101 0 125 103q24 105 -84 105z" />
    <glyph glyph-name="germandbls" unicode="&#xdf;" horiz-adv-x="499" 
d="M275 445l2 10h18q22 0 39 19.5t24 49.5l6 32q8 39 -5 61t-45 22q-30 0 -51 -20.5t-27 -52.5l-120 -566h-115l121 568q15 79 67 128t133 49q91 0 133 -53.5t24 -133.5l-7 -36q-13 -68 -68 -112q76 -54 52 -167l-10 -47q-17 -88 -75 -142t-155 -54h-40l23 106h22
q43 0 72.5 25.5t38.5 66.5l9 43q11 51 -7.5 79.5t-61.5 28.5h-18z" />
    <glyph glyph-name="agrave" unicode="&#xe0;" horiz-adv-x="486" 
d="M386 542h101l-115 -542h-101l8 37q-47 -50 -107 -50q-77 0 -120 60.5t-21 159.5l33 152q19 94 75.5 145t123.5 51q83 0 113 -61zM297 185l32 152q12 53 -4.5 82.5t-55.5 29.5q-34 0 -58.5 -26t-33.5 -66l-32 -152q-12 -53 4.5 -82.5t55.5 -29.5q34 0 58.5 26t33.5 66z
M153 729h139l87 -117h-115z" />
    <glyph glyph-name="aacute" unicode="&#xe1;" horiz-adv-x="486" 
d="M386 542h101l-115 -542h-101l8 37q-47 -50 -107 -50q-77 0 -120 60.5t-21 159.5l33 152q19 94 75.5 145t123.5 51q83 0 113 -61zM297 185l32 152q12 53 -4.5 82.5t-55.5 29.5q-34 0 -58.5 -26t-33.5 -66l-32 -152q-12 -53 4.5 -82.5t55.5 -29.5q34 0 58.5 26t33.5 66z
M483 729l-114 -117h-121l95 117h140z" />
    <glyph glyph-name="acircumflex" unicode="&#xe2;" horiz-adv-x="486" 
d="M386 542h101l-115 -542h-101l8 37q-47 -50 -107 -50q-77 0 -120 60.5t-21 159.5l33 152q19 94 75.5 145t123.5 51q83 0 113 -61zM297 185l32 152q12 53 -4.5 82.5t-55.5 29.5q-34 0 -58.5 -26t-33.5 -66l-32 -152q-12 -53 4.5 -82.5t55.5 -29.5q34 0 58.5 26t33.5 66z
M153 612l118 113h118l76 -113h-119l-23 48l-42 -48h-128z" />
    <glyph glyph-name="atilde" unicode="&#xe3;" horiz-adv-x="486" 
d="M386 542h101l-115 -542h-101l8 37q-47 -50 -107 -50q-77 0 -120 60.5t-21 159.5l33 152q19 94 75.5 145t123.5 51q83 0 113 -61zM297 185l32 152q12 53 -4.5 82.5t-55.5 29.5q-34 0 -58.5 -26t-33.5 -66l-32 -152q-12 -53 4.5 -82.5t55.5 -29.5q34 0 58.5 26t33.5 66z
M406 722h81q-6 -47 -36.5 -80.5t-71.5 -33.5q-28 0 -56 17q-5 3 -15 10t-16 9.5t-13 2.5q-24 0 -31 -33h-81q6 48 37 81t72 33q30 0 55 -18q5 -3 12.5 -8t11.5 -7t9.5 -4t10.5 -2q24 0 31 33z" />
    <glyph glyph-name="adieresis" unicode="&#xe4;" horiz-adv-x="486" 
d="M386 542h101l-115 -542h-101l8 37q-47 -50 -107 -50q-77 0 -120 60.5t-21 159.5l33 152q19 94 75.5 145t123.5 51q83 0 113 -61zM297 185l32 152q12 53 -4.5 82.5t-55.5 29.5q-34 0 -58.5 -26t-33.5 -66l-32 -152q-12 -53 4.5 -82.5t55.5 -29.5q34 0 58.5 26t33.5 66z
M304 725l-23 -109h-114l23 109h114zM475 725l-23 -109h-114l23 109h114z" />
    <glyph glyph-name="aring" unicode="&#xe5;" horiz-adv-x="486" 
d="M386 542h101l-115 -542h-101l8 37q-47 -50 -107 -50q-77 0 -120 60.5t-21 159.5l33 152q19 94 75.5 145t123.5 51q83 0 113 -61zM297 185l32 152q12 53 -4.5 82.5t-55.5 29.5q-34 0 -58.5 -26t-33.5 -66l-32 -152q-12 -53 4.5 -82.5t55.5 -29.5q34 0 58.5 26t33.5 66z
M316 596q-54 0 -84.5 28.5t-25.5 74.5q4 44 40.5 73t90.5 29q53 0 83 -29.5t26 -72.5q-5 -48 -40.5 -75.5t-89.5 -27.5zM322 659q45 0 49 40q2 15 -9.5 27t-31.5 12q-19 0 -33 -11.5t-16 -27.5q-2 -20 9 -30t32 -10z" />
    <glyph glyph-name="ae" unicode="&#xe6;" horiz-adv-x="739" 
d="M549 555q96 0 140.5 -63t24.5 -153l-22 -104h-274l-6 -30q-12 -53 4.5 -82t56.5 -29q37 0 63 22.5t33 58.5l1 5h114l-1 -6q-16 -83 -74 -135t-146 -52q-90 0 -133 57q-55 -57 -141 -57q-90 0 -138 49.5t-42 119.5q6 74 59 122t135 48q70 0 110 -42l12 53q12 55 -3.5 83.5
t-54.5 28.5q-30 0 -52.5 -19.5t-30.5 -53.5l-1 -9h-115l2 10q15 80 70 129t138 49q82 0 127 -61q55 61 144 61zM199 78q40 0 65 22t28 56t-16.5 56.5t-59.5 22.5q-38 0 -63 -23t-28 -56t17 -55.5t57 -22.5zM444 357l-5 -24h159l1 4q12 52 -4.5 82t-56.5 30
q-36 0 -60.5 -25.5t-33.5 -66.5z" />
    <glyph glyph-name="ccedilla" unicode="&#xe7;" horiz-adv-x="457" 
d="M327 361l1 6q7 33 -9.5 57.5t-53.5 24.5q-33 0 -55.5 -25.5t-31.5 -66.5l-33 -152q-12 -53 3.5 -82.5t53.5 -29.5q34 0 57 23.5t32 63.5l1 5h115l-2 -7q-17 -85 -71 -138t-138 -53q-97 0 -142 61.5t-24 154.5l33 156q16 87 71 141.5t138 54.5q94 0 139 -56t30 -130l-2 -8
h-112zM172 -149h-110l91 179l94 -25z" />
    <glyph glyph-name="egrave" unicode="&#xe8;" horiz-adv-x="474" 
d="M280 555q97 0 142 -61.5t26 -154.5l-23 -104h-274l-6 -30q-12 -53 5 -82.5t59 -29.5q36 0 60.5 23t33.5 59v4h114l-1 -5q-18 -88 -75 -137.5t-142 -49.5q-98 0 -144 62t-25 154l33 156q21 92 77 144t140 52zM177 357l-5 -24h160l1 4q11 53 -5.5 82.5t-57.5 29.5
q-35 0 -59.5 -26t-33.5 -66zM145 729h139l87 -117h-115z" />
    <glyph glyph-name="eacute" unicode="&#xe9;" horiz-adv-x="474" 
d="M280 555q97 0 142 -61.5t26 -154.5l-23 -104h-274l-6 -30q-12 -53 5 -82.5t59 -29.5q36 0 60.5 23t33.5 59v4h114l-1 -5q-18 -88 -75 -137.5t-142 -49.5q-98 0 -144 62t-25 154l33 156q21 92 77 144t140 52zM177 357l-5 -24h160l1 4q11 53 -5.5 82.5t-57.5 29.5
q-35 0 -59.5 -26t-33.5 -66zM475 729l-114 -117h-121l95 117h140z" />
    <glyph glyph-name="ecircumflex" unicode="&#xea;" horiz-adv-x="474" 
d="M280 555q97 0 142 -61.5t26 -154.5l-23 -104h-274l-6 -30q-12 -53 5 -82.5t59 -29.5q36 0 60.5 23t33.5 59v4h114l-1 -5q-18 -88 -75 -137.5t-142 -49.5q-98 0 -144 62t-25 154l33 156q21 92 77 144t140 52zM177 357l-5 -24h160l1 4q11 53 -5.5 82.5t-57.5 29.5
q-35 0 -59.5 -26t-33.5 -66zM145 612l118 113h118l76 -113h-119l-23 48l-42 -48h-128z" />
    <glyph glyph-name="edieresis" unicode="&#xeb;" horiz-adv-x="474" 
d="M280 555q97 0 142 -61.5t26 -154.5l-23 -104h-274l-6 -30q-12 -53 5 -82.5t59 -29.5q36 0 60.5 23t33.5 59v4h114l-1 -5q-18 -88 -75 -137.5t-142 -49.5q-98 0 -144 62t-25 154l33 156q21 92 77 144t140 52zM177 357l-5 -24h160l1 4q11 53 -5.5 82.5t-57.5 29.5
q-35 0 -59.5 -26t-33.5 -66zM296 725l-23 -109h-114l23 109h114zM467 725l-23 -109h-114l23 109h114z" />
    <glyph glyph-name="igrave" unicode="&#xec;" horiz-adv-x="229" 
d="M231 542l-115 -542h-115l115 542h115zM35 729h139l87 -117h-115z" />
    <glyph glyph-name="iacute" unicode="&#xed;" horiz-adv-x="229" 
d="M231 542l-115 -542h-115l115 542h115zM365 729l-114 -117h-121l95 117h140z" />
    <glyph glyph-name="icircumflex" unicode="&#xee;" horiz-adv-x="229" 
d="M231 542l-115 -542h-115l115 542h115zM34 612l118 113h118l76 -113h-119l-23 48l-42 -48h-128z" />
    <glyph glyph-name="idieresis" unicode="&#xef;" horiz-adv-x="229" 
d="M231 542l-115 -542h-115l115 542h115zM185 725l-23 -109h-114l23 109h114zM356 725l-23 -109h-114l23 109h114z" />
    <glyph glyph-name="eth" unicode="&#xf0;" horiz-adv-x="479" 
d="M273 729l39 -59h138l-21 -91h-56l46 -68q52 -76 31 -172l-34 -156q-16 -87 -73 -141.5t-142 -54.5q-100 0 -146 62t-25 154l33 152q15 83 70 137t139 56l-16 23h-134l21 89h54l-46 69h122zM302 185l33 152q11 52 -5.5 82t-57.5 30q-36 0 -60.5 -25.5t-33.5 -66.5
l-33 -152q-11 -52 6 -82t57 -30q36 0 60.5 25.5t33.5 66.5z" />
    <glyph glyph-name="ntilde" unicode="&#xf1;" horiz-adv-x="492" 
d="M266 0l76 357q9 43 -5 67.5t-51 24.5q-32 0 -56 -20t-35 -56l-79 -373h-115l115 542h105l-9 -40q50 53 115 53q77 0 113 -53.5t20 -128.5l-79 -373h-115zM405 722h81q-6 -47 -36.5 -80.5t-71.5 -33.5q-28 0 -56 17q-5 3 -15 10t-16 9.5t-13 2.5q-24 0 -31 -33h-81
q6 48 37 81t72 33q30 0 55 -18q5 -3 12.5 -8t11.5 -7t9.5 -4t10.5 -2q24 0 31 33z" />
    <glyph glyph-name="ograve" unicode="&#xf2;" horiz-adv-x="476" 
d="M283 555q97 0 141.5 -62t25.5 -154l-34 -156q-19 -91 -76.5 -143.5t-143.5 -52.5q-96 0 -141 62t-25 154l33 156q19 91 76.5 143.5t143.5 52.5zM302 185l32 152q12 53 -5 82.5t-56 29.5q-37 0 -62 -25.5t-34 -66.5l-33 -152q-11 -53 5.5 -82.5t56.5 -29.5q36 0 61.5 26
t34.5 66zM156 729h139l87 -117h-115z" />
    <glyph glyph-name="oacute" unicode="&#xf3;" horiz-adv-x="476" 
d="M283 555q97 0 141.5 -62t25.5 -154l-34 -156q-19 -91 -76.5 -143.5t-143.5 -52.5q-96 0 -141 62t-25 154l33 156q19 91 76.5 143.5t143.5 52.5zM302 185l32 152q12 53 -5 82.5t-56 29.5q-37 0 -62 -25.5t-34 -66.5l-33 -152q-11 -53 5.5 -82.5t56.5 -29.5q36 0 61.5 26
t34.5 66zM486 729l-114 -117h-121l95 117h140z" />
    <glyph glyph-name="ocircumflex" unicode="&#xf4;" horiz-adv-x="476" 
d="M283 555q97 0 141.5 -62t25.5 -154l-34 -156q-19 -91 -76.5 -143.5t-143.5 -52.5q-96 0 -141 62t-25 154l33 156q19 91 76.5 143.5t143.5 52.5zM302 185l32 152q12 53 -5 82.5t-56 29.5q-37 0 -62 -25.5t-34 -66.5l-33 -152q-11 -53 5.5 -82.5t56.5 -29.5q36 0 61.5 26
t34.5 66zM156 612l118 113h118l76 -113h-119l-23 48l-42 -48h-128z" />
    <glyph glyph-name="otilde" unicode="&#xf5;" horiz-adv-x="476" 
d="M283 555q97 0 141.5 -62t25.5 -154l-34 -156q-19 -91 -76.5 -143.5t-143.5 -52.5q-96 0 -141 62t-25 154l33 156q19 91 76.5 143.5t143.5 52.5zM302 185l32 152q12 53 -5 82.5t-56 29.5q-37 0 -62 -25.5t-34 -66.5l-33 -152q-11 -53 5.5 -82.5t56.5 -29.5q36 0 61.5 26
t34.5 66zM409 722h81q-6 -47 -36.5 -80.5t-71.5 -33.5q-28 0 -56 17q-5 3 -15 10t-16 9.5t-13 2.5q-24 0 -31 -33h-81q6 48 37 81t72 33q30 0 55 -18q5 -3 12.5 -8t11.5 -7t9.5 -4t10.5 -2q24 0 31 33z" />
    <glyph glyph-name="odieresis" unicode="&#xf6;" horiz-adv-x="476" 
d="M283 555q97 0 141.5 -62t25.5 -154l-34 -156q-19 -91 -76.5 -143.5t-143.5 -52.5q-96 0 -141 62t-25 154l33 156q19 91 76.5 143.5t143.5 52.5zM302 185l32 152q12 53 -5 82.5t-56 29.5q-37 0 -62 -25.5t-34 -66.5l-33 -152q-11 -53 5.5 -82.5t56.5 -29.5q36 0 61.5 26
t34.5 66zM307 725l-23 -109h-114l23 109h114zM478 725l-23 -109h-114l23 109h114z" />
    <glyph glyph-name="divide" unicode="&#xf7;" 
d="M99 366h344l-19 -92h-345zM366 535l-25 -118h-121l25 118h121zM304 224l-25 -118h-121l25 118h121z" />
    <glyph glyph-name="oslash" unicode="&#xf8;" horiz-adv-x="478" 
d="M284 555q64 0 105 -28l19 22h110l-74 -90q20 -57 7 -120l-34 -156q-19 -91 -76.5 -143.5t-143.5 -52.5q-64 0 -105 28l-18 -22h-111l74 89q-21 53 -6 121l33 156q19 91 76.5 143.5t143.5 52.5zM176 360l-31 -145l165 228q-15 9 -36 9q-37 0 -63 -26t-35 -66zM304 182
l31 143l-166 -227q18 -8 37 -8q37 0 63 26t35 66z" />
    <glyph glyph-name="ugrave" unicode="&#xf9;" horiz-adv-x="492" 
d="M227 542l-76 -357q-18 -92 57 -92q35 0 60.5 25t33.5 67l76 357h115l-115 -542h-105l9 41q-48 -54 -116 -54q-75 0 -112 54t-21 128l80 373h114zM158 729h139l87 -117h-115z" />
    <glyph glyph-name="uacute" unicode="&#xfa;" horiz-adv-x="492" 
d="M227 542l-76 -357q-18 -92 57 -92q35 0 60.5 25t33.5 67l76 357h115l-115 -542h-105l9 41q-48 -54 -116 -54q-75 0 -112 54t-21 128l80 373h114zM488 729l-114 -117h-121l95 117h140z" />
    <glyph glyph-name="ucircumflex" unicode="&#xfb;" horiz-adv-x="492" 
d="M227 542l-76 -357q-18 -92 57 -92q35 0 60.5 25t33.5 67l76 357h115l-115 -542h-105l9 41q-48 -54 -116 -54q-75 0 -112 54t-21 128l80 373h114zM158 612l118 113h118l76 -113h-119l-23 48l-42 -48h-128z" />
    <glyph glyph-name="udieresis" unicode="&#xfc;" horiz-adv-x="492" 
d="M227 542l-76 -357q-18 -92 57 -92q35 0 60.5 25t33.5 67l76 357h115l-115 -542h-105l9 41q-48 -54 -116 -54q-75 0 -112 54t-21 128l80 373h114zM309 725l-23 -109h-114l23 109h114zM480 725l-23 -109h-114l23 109h114z" />
    <glyph glyph-name="yacute" unicode="&#xfd;" horiz-adv-x="473" 
d="M524 542l-442 -712h-125l218 346l-112 366h122l66 -246l144 246h129zM476 729l-114 -117h-121l95 117h140z" />
    <glyph glyph-name="thorn" unicode="&#xfe;" horiz-adv-x="487" 
d="M225 -13q-71 0 -104 45l-42 -203h-115l192 900h114l-44 -205q38 31 88 31q78 0 121 -61t22 -159l-32 -152q-19 -94 -75.5 -145t-124.5 -51zM191 357l-32 -152q-12 -53 4.5 -82.5t55.5 -29.5q34 0 58.5 26t33.5 66l32 152q12 53 -5 82.5t-56 29.5q-34 0 -58 -25.5
t-33 -66.5z" />
    <glyph glyph-name="ydieresis" unicode="&#xff;" horiz-adv-x="473" 
d="M524 542l-442 -712h-125l218 346l-112 366h122l66 -246l144 246h129zM297 725l-23 -109h-114l23 109h114zM468 725l-23 -109h-114l23 109h114z" />
    <glyph glyph-name="Amacron" unicode="&#x100;" horiz-adv-x="560" 
d="M497 0h-128l-9 150h-204l-72 -150h-136l365 710h123zM539 871l-19 -87h-274l18 87h275zM339 531l-128 -266h143z" />
    <glyph glyph-name="amacron" unicode="&#x101;" horiz-adv-x="486" 
d="M386 542h101l-115 -542h-101l8 37q-47 -50 -107 -50q-77 0 -120 60.5t-21 159.5l33 152q19 94 75.5 145t123.5 51q83 0 113 -61zM297 185l32 152q12 53 -4.5 82.5t-55.5 29.5q-34 0 -58.5 -26t-33.5 -66l-32 -152q-12 -53 4.5 -82.5t55.5 -29.5q34 0 58.5 26t33.5 66z
M466 703l-19 -87h-274l18 87h275z" />
    <glyph glyph-name="Abreve" unicode="&#x102;" horiz-adv-x="560" 
d="M497 0h-128l-9 150h-204l-72 -150h-136l365 710h123zM339 531l-128 -266h143zM457 894h92q-12 -56 -51 -87.5t-103 -31.5q-72 0 -108 34.5t-26 84.5h92q-5 -21 6.5 -33.5t37.5 -12.5q51 0 60 46z" />
    <glyph glyph-name="abreve" unicode="&#x103;" horiz-adv-x="486" 
d="M386 542h101l-115 -542h-101l8 37q-47 -50 -107 -50q-77 0 -120 60.5t-21 159.5l33 152q19 94 75.5 145t123.5 51q83 0 113 -61zM297 185l32 152q12 53 -4.5 82.5t-55.5 29.5q-34 0 -58.5 -26t-33.5 -66l-32 -152q-12 -53 4.5 -82.5t55.5 -29.5q34 0 58.5 26t33.5 66z
M384 726h92q-12 -56 -51 -87.5t-103 -31.5q-72 0 -108 34.5t-26 84.5h92q-5 -21 6.5 -33.5t37.5 -12.5q51 0 60 46z" />
    <glyph glyph-name="Aogonek" unicode="&#x104;" horiz-adv-x="560" 
d="M497 0h-128l-9 150h-204l-72 -150h-136l365 710h123zM339 531l-128 -266h143zM387 21l80 -21l-35 -26q-21 -16 -25 -32q-2 -10 4 -16.5t20 -6.5h29l-19 -89h-42q-54 0 -80 27t-17 65q6 32 51 70z" />
    <glyph glyph-name="aogonek" unicode="&#x105;" horiz-adv-x="486" 
d="M386 542h101l-115 -542l-35 -26q-23 -17 -26 -32q-2 -10 4 -16.5t20 -6.5h28l-19 -89h-42q-54 0 -80 27t-17 65q6 32 51 70l16 14l7 33q-46 -52 -108 -52q-77 0 -120 60.5t-21 159.5l33 152q19 94 75.5 145t123.5 51q83 0 113 -63zM297 185l32 152q12 53 -4.5 82.5
t-55.5 29.5q-34 0 -58.5 -26t-33.5 -66l-32 -152q-12 -53 4.5 -82.5t55.5 -29.5q34 0 58.5 26t33.5 66z" />
    <glyph glyph-name="Cacute" unicode="&#x106;" horiz-adv-x="554" 
d="M513 238l-2 -10q-19 -106 -88.5 -175t-173.5 -69q-115 0 -170.5 78t-29.5 197l48 224q21 106 90 174.5t172 68.5q112 0 168 -72.5t36 -168.5l-1 -4h-125l1 5q10 51 -13 88t-76 37q-48 0 -82 -36.5t-45 -91.5l-48 -225q-17 -75 5.5 -117t79.5 -42q47 0 82 37t45 92l2 10
h125zM557 897l-114 -117h-121l95 117h140z" />
    <glyph glyph-name="cacute" unicode="&#x107;" horiz-adv-x="457" 
d="M327 361l1 6q7 33 -9.5 57.5t-53.5 24.5q-33 0 -55.5 -25.5t-31.5 -66.5l-33 -152q-12 -53 3.5 -82.5t53.5 -29.5q34 0 57 23.5t32 63.5l1 5h115l-2 -7q-17 -85 -71 -138t-138 -53q-97 0 -142 61.5t-24 154.5l33 156q16 87 71 141.5t138 54.5q94 0 139 -56t30 -130l-2 -8
h-112zM472 729l-114 -117h-121l95 117h140z" />
    <glyph glyph-name="Ccircumflex" unicode="&#x108;" horiz-adv-x="554" 
d="M513 238l-2 -10q-19 -106 -88.5 -175t-173.5 -69q-115 0 -170.5 78t-29.5 197l48 224q21 106 90 174.5t172 68.5q112 0 168 -72.5t36 -168.5l-1 -4h-125l1 5q10 51 -13 88t-76 37q-48 0 -82 -36.5t-45 -91.5l-48 -225q-17 -75 5.5 -117t79.5 -42q47 0 82 37t45 92l2 10
h125zM227 780l118 113h118l76 -113h-119l-23 48l-42 -48h-128z" />
    <glyph glyph-name="ccircumflex" unicode="&#x109;" horiz-adv-x="457" 
d="M327 361l1 6q7 33 -9.5 57.5t-53.5 24.5q-33 0 -55.5 -25.5t-31.5 -66.5l-33 -152q-12 -53 3.5 -82.5t53.5 -29.5q34 0 57 23.5t32 63.5l1 5h115l-2 -7q-17 -85 -71 -138t-138 -53q-97 0 -142 61.5t-24 154.5l33 156q16 87 71 141.5t138 54.5q94 0 139 -56t30 -130l-2 -8
h-112zM142 612l118 113h118l76 -113h-119l-23 48l-42 -48h-128z" />
    <glyph glyph-name="Cdotaccent" unicode="&#x10a;" horiz-adv-x="554" 
d="M513 238l-2 -10q-19 -106 -88.5 -175t-173.5 -69q-115 0 -170.5 78t-29.5 197l48 224q21 106 90 174.5t172 68.5q112 0 168 -72.5t36 -168.5l-1 -4h-125l1 5q10 51 -13 88t-76 37q-48 0 -82 -36.5t-45 -91.5l-48 -225q-17 -75 5.5 -117t79.5 -42q47 0 82 37t45 92l2 10
h125zM466 900l-25 -118h-121l25 118h121z" />
    <glyph glyph-name="cdotaccent" unicode="&#x10b;" horiz-adv-x="457" 
d="M327 361l1 6q7 33 -9.5 57.5t-53.5 24.5q-33 0 -55.5 -25.5t-31.5 -66.5l-33 -152q-12 -53 3.5 -82.5t53.5 -29.5q34 0 57 23.5t32 63.5l1 5h115l-2 -7q-17 -85 -71 -138t-138 -53q-97 0 -142 61.5t-24 154.5l33 156q16 87 71 141.5t138 54.5q94 0 139 -56t30 -130l-2 -8
h-112zM381 732l-25 -118h-121l25 118h121z" />
    <glyph glyph-name="Ccaron" unicode="&#x10c;" horiz-adv-x="554" 
d="M513 238l-2 -10q-19 -106 -88.5 -175t-173.5 -69q-115 0 -170.5 78t-29.5 197l48 224q21 106 90 174.5t172 68.5q112 0 168 -72.5t36 -168.5l-1 -4h-125l1 5q10 51 -13 88t-76 37q-48 0 -82 -36.5t-45 -91.5l-48 -225q-17 -75 5.5 -117t79.5 -42q47 0 82 37t45 92l2 10
h125zM563 893l-119 -113h-117l-76 113h119l22 -49l43 49h128z" />
    <glyph glyph-name="ccaron" unicode="&#x10d;" horiz-adv-x="457" 
d="M327 361l1 6q7 33 -9.5 57.5t-53.5 24.5q-33 0 -55.5 -25.5t-31.5 -66.5l-33 -152q-12 -53 3.5 -82.5t53.5 -29.5q34 0 57 23.5t32 63.5l1 5h115l-2 -7q-17 -85 -71 -138t-138 -53q-97 0 -142 61.5t-24 154.5l33 156q16 87 71 141.5t138 54.5q94 0 139 -56t30 -130l-2 -8
h-112zM478 725l-119 -113h-117l-76 113h119l22 -49l43 49h128z" />
    <glyph glyph-name="Dcaron" unicode="&#x10e;" horiz-adv-x="576" 
d="M163 710h194q118 0 174 -72.5t32 -187.5l-46 -215q-21 -104 -91.5 -169.5t-175.5 -65.5h-238zM263 595l-102 -480h94q53 0 89 33t48 86l47 216q15 71 -8.5 108t-78.5 37h-89zM565 893l-119 -113h-117l-76 113h119l22 -49l43 49h128z" />
    <glyph glyph-name="dcaron" unicode="&#x10f;" horiz-adv-x="586" 
d="M686 710l-64 -206h-90l45 206h109zM263 555q70 0 103 -45l47 219h114l-155 -729h-101l8 37q-47 -50 -107 -50q-77 0 -120 60.5t-21 159.5l33 152q19 94 75.5 145t123.5 51zM297 185l32 152q12 53 -4.5 82.5t-55.5 29.5q-34 0 -58.5 -26t-33.5 -66l-32 -152
q-12 -53 4.5 -82.5t55.5 -29.5q34 0 58.5 26t33.5 66z" />
    <glyph glyph-name="Dcroat" unicode="&#x110;" horiz-adv-x="588" 
d="M175 710h194q118 0 174 -72.5t32 -187.5l-46 -215q-21 -104 -91.5 -169.5t-175.5 -65.5h-238l65 308h-65l24 114h65zM275 595l-37 -173h116l-25 -114h-115l-41 -193h94q53 0 89 33t48 86l47 216q15 71 -8.5 108t-78.5 37h-89z" />
    <glyph glyph-name="dcroat" unicode="&#x111;" horiz-adv-x="486" 
d="M263 555q70 0 103 -45l17 79h-92l19 88h92l11 52h114l-11 -52h51l-18 -88h-52l-125 -589h-101l8 37q-47 -50 -107 -50q-77 0 -120 60.5t-21 159.5l33 152q19 94 75.5 145t123.5 51zM297 185l32 152q12 53 -4.5 82.5t-55.5 29.5q-34 0 -58.5 -26t-33.5 -66l-32 -152
q-12 -53 4.5 -82.5t55.5 -29.5q34 0 58.5 26t33.5 66z" />
    <glyph glyph-name="Emacron" unicode="&#x112;" horiz-adv-x="495" 
d="M517 595h-253l-37 -173h202l-24 -115h-203l-41 -192h261l-24 -115h-386l151 710h378zM517 871l-19 -87h-274l18 87h275z" />
    <glyph glyph-name="emacron" unicode="&#x113;" horiz-adv-x="474" 
d="M280 555q97 0 142 -61.5t26 -154.5l-23 -104h-274l-6 -30q-12 -53 5 -82.5t59 -29.5q36 0 60.5 23t33.5 59v4h114l-1 -5q-18 -88 -75 -137.5t-142 -49.5q-98 0 -144 62t-25 154l33 156q21 92 77 144t140 52zM177 357l-5 -24h160l1 4q11 53 -5.5 82.5t-57.5 29.5
q-35 0 -59.5 -26t-33.5 -66zM458 703l-19 -87h-274l18 87h275z" />
    <glyph glyph-name="Ebreve" unicode="&#x114;" horiz-adv-x="495" 
d="M517 595h-253l-37 -173h202l-24 -115h-203l-41 -192h261l-24 -115h-386l151 710h378zM436 894h92q-12 -56 -51 -87.5t-103 -31.5q-72 0 -108 34.5t-26 84.5h92q-5 -21 6.5 -33.5t37.5 -12.5q51 0 60 46z" />
    <glyph glyph-name="ebreve" unicode="&#x115;" horiz-adv-x="474" 
d="M280 555q97 0 142 -61.5t26 -154.5l-23 -104h-274l-6 -30q-12 -53 5 -82.5t59 -29.5q36 0 60.5 23t33.5 59v4h114l-1 -5q-18 -88 -75 -137.5t-142 -49.5q-98 0 -144 62t-25 154l33 156q21 92 77 144t140 52zM177 357l-5 -24h160l1 4q11 53 -5.5 82.5t-57.5 29.5
q-35 0 -59.5 -26t-33.5 -66zM376 726h92q-12 -56 -51 -87.5t-103 -31.5q-72 0 -108 34.5t-26 84.5h92q-5 -21 6.5 -33.5t37.5 -12.5q51 0 60 46z" />
    <glyph glyph-name="Edotaccent" unicode="&#x116;" horiz-adv-x="495" 
d="M517 595h-253l-37 -173h202l-24 -115h-203l-41 -192h261l-24 -115h-386l151 710h378zM444 900l-25 -118h-121l25 118h121z" />
    <glyph glyph-name="edotaccent" unicode="&#x117;" horiz-adv-x="474" 
d="M280 555q97 0 142 -61.5t26 -154.5l-23 -104h-274l-6 -30q-12 -53 5 -82.5t59 -29.5q36 0 60.5 23t33.5 59v4h114l-1 -5q-18 -88 -75 -137.5t-142 -49.5q-98 0 -144 62t-25 154l33 156q21 92 77 144t140 52zM177 357l-5 -24h160l1 4q11 53 -5.5 82.5t-57.5 29.5
q-35 0 -59.5 -26t-33.5 -66zM384 732l-25 -118h-121l25 118h121z" />
    <glyph glyph-name="Eogonek" unicode="&#x118;" horiz-adv-x="495" 
d="M517 595h-253l-37 -173h202l-24 -115h-203l-41 -192h261l-24 -115h-386l151 710h378zM293 21l80 -21l-35 -26q-21 -16 -25 -32q-2 -10 4 -16.5t20 -6.5h29l-19 -89h-42q-54 0 -80 27t-17 65q6 32 51 70z" />
    <glyph glyph-name="eogonek" unicode="&#x119;" horiz-adv-x="474" 
d="M280 555q97 0 142 -61.5t26 -154.5l-23 -104h-274l-6 -30q-12 -53 5 -82.5t59 -29.5q36 0 60.5 23t33.5 59v4h114l-1 -5q-20 -93 -80 -141l-44 -56q-16 -22 -20 -36q-2 -9 4.5 -15.5t20.5 -6.5h29l-19 -89h-42q-53 0 -79.5 27t-18.5 64q6 29 43 66h-11q-98 0 -144 62
t-25 154l33 156q21 92 77 144t140 52zM177 357l-5 -24h160l1 4q11 53 -5.5 82.5t-57.5 29.5q-35 0 -59.5 -26t-33.5 -66z" />
    <glyph glyph-name="Ecaron" unicode="&#x11a;" horiz-adv-x="495" 
d="M517 595h-253l-37 -173h202l-24 -115h-203l-41 -192h261l-24 -115h-386l151 710h378zM541 893l-119 -113h-117l-76 113h119l22 -49l43 49h128z" />
    <glyph glyph-name="ecaron" unicode="&#x11b;" horiz-adv-x="474" 
d="M280 555q97 0 142 -61.5t26 -154.5l-23 -104h-274l-6 -30q-12 -53 5 -82.5t59 -29.5q36 0 60.5 23t33.5 59v4h114l-1 -5q-18 -88 -75 -137.5t-142 -49.5q-98 0 -144 62t-25 154l33 156q21 92 77 144t140 52zM177 357l-5 -24h160l1 4q11 53 -5.5 82.5t-57.5 29.5
q-35 0 -59.5 -26t-33.5 -66zM481 725l-119 -113h-117l-76 113h119l22 -49l43 49h128z" />
    <glyph glyph-name="Gcircumflex" unicode="&#x11c;" horiz-adv-x="574" 
d="M260 99q53 0 90 33t49 96l8 36h-125l24 113h240l-80 -377h-101l9 41q-57 -57 -140 -57q-103 0 -157 76t-30 185l51 238q21 106 90 174.5t171 68.5q115 0 170.5 -72t36.5 -167l-2 -5h-125l2 6q10 49 -13 86t-74 37q-50 0 -84 -36t-47 -92l-48 -225q-17 -76 6.5 -117.5
t78.5 -41.5zM232 780l118 113h118l76 -113h-119l-23 48l-42 -48h-128z" />
    <glyph glyph-name="gcircumflex" unicode="&#x11d;" horiz-adv-x="486" 
d="M269 555q75 0 106 -63l11 50h101l-112 -529q-21 -92 -77 -144.5t-139 -52.5q-86 0 -132 55.5t-32 124.5l1 4h111v-2q-7 -32 10.5 -53.5t49.5 -21.5q35 0 59.5 24t33.5 68l8 38q-38 -28 -89 -28q-77 0 -119 60t-21 160l24 113q21 96 78 146.5t128 50.5zM305 223l24 114
q11 52 -5 82t-55 30q-34 0 -58.5 -26t-33.5 -67l-25 -114q-11 -51 6 -81t56 -30q34 0 58 25.5t33 66.5zM150 612l118 113h118l76 -113h-119l-23 48l-42 -48h-128z" />
    <glyph glyph-name="Gbreve" unicode="&#x11e;" horiz-adv-x="574" 
d="M260 99q53 0 90 33t49 96l8 36h-125l24 113h240l-80 -377h-101l9 41q-57 -57 -140 -57q-103 0 -157 76t-30 185l51 238q21 106 90 174.5t171 68.5q115 0 170.5 -72t36.5 -167l-2 -5h-125l2 6q10 49 -13 86t-74 37q-50 0 -84 -36t-47 -92l-48 -225q-17 -76 6.5 -117.5
t78.5 -41.5zM462 894h92q-12 -56 -51 -87.5t-103 -31.5q-72 0 -108 34.5t-26 84.5h92q-5 -21 6.5 -33.5t37.5 -12.5q51 0 60 46z" />
    <glyph glyph-name="gbreve" unicode="&#x11f;" horiz-adv-x="486" 
d="M269 555q75 0 106 -63l11 50h101l-112 -529q-21 -92 -77 -144.5t-139 -52.5q-86 0 -132 55.5t-32 124.5l1 4h111v-2q-7 -32 10.5 -53.5t49.5 -21.5q35 0 59.5 24t33.5 68l8 38q-38 -28 -89 -28q-77 0 -119 60t-21 160l24 113q21 96 78 146.5t128 50.5zM305 223l24 114
q11 52 -5 82t-55 30q-34 0 -58.5 -26t-33.5 -67l-25 -114q-11 -51 6 -81t56 -30q34 0 58 25.5t33 66.5zM381 726h92q-12 -56 -51 -87.5t-103 -31.5q-72 0 -108 34.5t-26 84.5h92q-5 -21 6.5 -33.5t37.5 -12.5q51 0 60 46z" />
    <glyph glyph-name="Gdotaccent" unicode="&#x120;" horiz-adv-x="574" 
d="M260 99q53 0 90 33t49 96l8 36h-125l24 113h240l-80 -377h-101l9 41q-57 -57 -140 -57q-103 0 -157 76t-30 185l51 238q21 106 90 174.5t171 68.5q115 0 170.5 -72t36.5 -167l-2 -5h-125l2 6q10 49 -13 86t-74 37q-50 0 -84 -36t-47 -92l-48 -225q-17 -76 6.5 -117.5
t78.5 -41.5zM471 900l-25 -118h-121l25 118h121z" />
    <glyph glyph-name="gdotaccent" unicode="&#x121;" horiz-adv-x="486" 
d="M269 555q75 0 106 -63l11 50h101l-112 -529q-21 -92 -77 -144.5t-139 -52.5q-86 0 -132 55.5t-32 124.5l1 4h111v-2q-7 -32 10.5 -53.5t49.5 -21.5q35 0 59.5 24t33.5 68l8 38q-38 -28 -89 -28q-77 0 -119 60t-21 160l24 113q21 96 78 146.5t128 50.5zM305 223l24 114
q11 52 -5 82t-55 30q-34 0 -58.5 -26t-33.5 -67l-25 -114q-11 -51 6 -81t56 -30q34 0 58 25.5t33 66.5zM389 732l-25 -118h-121l25 118h121z" />
    <glyph glyph-name="uni0122" unicode="&#x122;" horiz-adv-x="574" 
d="M260 99q53 0 90 33t49 96l8 36h-125l24 113h240l-80 -377h-101l9 41q-57 -57 -140 -57q-103 0 -157 76t-30 185l51 238q21 106 90 174.5t171 68.5q115 0 170.5 -72t36.5 -167l-2 -5h-125l2 6q10 49 -13 86t-74 37q-50 0 -84 -36t-47 -92l-48 -225q-17 -76 6.5 -117.5
t78.5 -41.5zM146 -216l59 77h-51l20 94h126l-17 -81h-2l-64 -90h-71z" />
    <glyph glyph-name="uni0123" unicode="&#x123;" horiz-adv-x="486" 
d="M269 555q75 0 106 -63l11 50h101l-112 -529q-21 -92 -77 -144.5t-139 -52.5q-86 0 -132 55.5t-32 124.5l1 4h111v-2q-7 -32 10.5 -53.5t49.5 -21.5q35 0 59.5 24t33.5 68l8 38q-38 -28 -89 -28q-77 0 -119 60t-21 160l24 113q21 96 78 146.5t128 50.5zM305 223l24 114
q11 52 -5 82t-55 30q-34 0 -58.5 -26t-33.5 -67l-25 -114q-11 -51 6 -81t56 -30q34 0 58 25.5t33 66.5zM382 760l-48 -62h52l-18 -86h-126l16 73h-1l54 75h71z" />
    <glyph glyph-name="Hcircumflex" unicode="&#x124;" horiz-adv-x="602" 
d="M502 710h125l-151 -710h-125l65 307h-214l-65 -307h-125l151 710h125l-61 -288h214zM255 780l118 113h118l76 -113h-119l-23 48l-42 -48h-128z" />
    <glyph glyph-name="hcircumflex" unicode="&#x125;" horiz-adv-x="492" 
d="M266 0l76 357q9 43 -5 67.5t-51 24.5q-67 0 -91 -75l-79 -374h-115l155 729h115l-46 -214q45 40 102 40q77 0 113 -53.5t20 -128.5l-79 -373h-115zM192 766l118 113h118l76 -113h-119l-23 48l-42 -48h-128z" />
    <glyph glyph-name="Hbar" unicode="&#x126;" horiz-adv-x="617" 
d="M510 710h125l-20 -93h59l-23 -108h-59l-108 -509h-125l65 307h-213l-65 -307h-125l108 510h-60l23 107h60l20 93h125l-20 -93h213zM254 510l-18 -88h213l18 87z" />
    <glyph glyph-name="hbar" unicode="&#x127;" horiz-adv-x="492" 
d="M266 0l76 357q9 43 -5 67.5t-51 24.5q-66 0 -90 -74l-80 -375h-115l125 589h-53l18 88h54l11 52h115l-11 -52h89l-18 -88h-90l-15 -74q43 40 101 40q77 0 113 -53.5t20 -128.5l-79 -373h-115z" />
    <glyph glyph-name="Itilde" unicode="&#x128;" horiz-adv-x="264" 
d="M163 710h125l-151 -710h-125zM339 889h81q-6 -47 -36.5 -80.5t-71.5 -33.5q-28 0 -56 17q-5 3 -15 10t-16 9.5t-13 2.5q-24 0 -31 -33h-81q6 48 37 81t72 33q30 0 55 -18q5 -3 12.5 -8t11.5 -7t9.5 -4t10.5 -2q24 0 31 33z" />
    <glyph glyph-name="itilde" unicode="&#x129;" horiz-adv-x="229" 
d="M231 542l-115 -542h-115l115 542h115zM287 722h81q-6 -47 -36.5 -80.5t-71.5 -33.5q-28 0 -56 17q-5 3 -15 10t-16 9.5t-13 2.5q-24 0 -31 -33h-81q6 48 37 81t72 33q30 0 55 -18q5 -3 12.5 -8t11.5 -7t9.5 -4t10.5 -2q24 0 31 33z" />
    <glyph glyph-name="Imacron" unicode="&#x12a;" horiz-adv-x="264" 
d="M163 710h125l-151 -710h-125zM399 871l-19 -87h-274l18 87h275z" />
    <glyph glyph-name="imacron" unicode="&#x12b;" horiz-adv-x="229" 
d="M231 542l-115 -542h-115l115 542h115zM347 703l-19 -87h-274l18 87h275z" />
    <glyph glyph-name="Ibreve" unicode="&#x12c;" horiz-adv-x="264" 
d="M163 710h125l-151 -710h-125zM317 894h92q-12 -56 -51 -87.5t-103 -31.5q-72 0 -108 34.5t-26 84.5h92q-5 -21 6.5 -33.5t37.5 -12.5q51 0 60 46z" />
    <glyph glyph-name="ibreve" unicode="&#x12d;" horiz-adv-x="229" 
d="M231 542l-115 -542h-115l115 542h115zM265 726h92q-12 -56 -51 -87.5t-103 -31.5q-72 0 -108 34.5t-26 84.5h92q-5 -21 6.5 -33.5t37.5 -12.5q51 0 60 46z" />
    <glyph glyph-name="Iogonek" unicode="&#x12e;" horiz-adv-x="264" 
d="M164 710h125l-151 -710h-1l-35 -26q-21 -16 -25 -32q-2 -10 4 -16.5t20 -6.5h29l-18 -89h-42q-53 0 -79.5 27t-18.5 64q7 33 53 71l9 8h-21z" />
    <glyph glyph-name="iogonek" unicode="&#x12f;" horiz-adv-x="229" 
d="M231 542l-115 -542h-1l-34 -26q-20 -14 -26 -32q-2 -10 4 -16.5t20 -6.5h30l-19 -89h-42q-54 0 -80.5 27t-17.5 65q6 32 51 70l9 8h-9l115 542h115zM273 732l-25 -118h-121l25 118h121z" />
    <glyph glyph-name="Idotaccent" unicode="&#x130;" horiz-adv-x="264" 
d="M163 710h125l-151 -710h-125zM325 900l-25 -118h-121l25 118h121z" />
    <glyph glyph-name="dotlessi" unicode="&#x131;" horiz-adv-x="229" 
d="M231 542l-115 -542h-115l115 542h115z" />
    <glyph glyph-name="Jcircumflex" unicode="&#x134;" horiz-adv-x="492" 
d="M395 710h126l-111 -522q-19 -89 -81 -146.5t-149 -57.5q-101 0 -148.5 61.5t-30.5 142.5l8 39h123l-9 -40q-9 -39 7 -63.5t55 -24.5q37 0 64 24.5t35 63.5zM318 780l118 113h118l76 -113h-119l-23 48l-42 -48h-128z" />
    <glyph glyph-name="jcircumflex" unicode="&#x135;" horiz-adv-x="230" 
d="M-3 -16l119 558h115l-120 -564q-12 -65 -56.5 -107t-105.5 -42h-58l21 102h24q22 0 39 15t22 38zM35 612l118 113h118l76 -113h-119l-23 48l-42 -48h-128z" />
    <glyph glyph-name="uni0136" unicode="&#x136;" horiz-adv-x="551" 
d="M475 710h146l-270 -321l146 -389h-133l-104 304l-76 -84l-47 -220h-125l151 710h125l-67 -313zM148 -216l59 77h-51l20 94h126l-17 -81h-2l-64 -90h-71z" />
    <glyph glyph-name="uni0137" unicode="&#x137;" horiz-adv-x="466" 
d="M290 0l-78 232l-61 -64l-35 -168h-115l155 729h115l-85 -397l185 210h139l-213 -235l112 -307h-119zM102 -216l59 77h-51l20 94h126l-17 -81h-2l-64 -90h-71z" />
    <glyph glyph-name="Lacute" unicode="&#x139;" horiz-adv-x="458" 
d="M288 710l-127 -595h252l-24 -115h-377l151 710h125zM417 897l-114 -117h-121l95 117h140z" />
    <glyph glyph-name="lacute" unicode="&#x13a;" horiz-adv-x="229" 
d="M156 729h115l-155 -729h-115zM397 883l-114 -117h-121l95 117h140z" />
    <glyph glyph-name="uni013B" unicode="&#x13b;" horiz-adv-x="458" 
d="M288 710l-127 -595h252l-24 -115h-377l151 710h125zM112 -216l59 77h-51l20 94h126l-17 -81h-2l-64 -90h-71z" />
    <glyph glyph-name="uni013C" unicode="&#x13c;" horiz-adv-x="229" 
d="M156 729h115l-155 -729h-115zM-39 -216l59 77h-51l20 94h126l-17 -81h-2l-64 -90h-71z" />
    <glyph glyph-name="Lcaron" unicode="&#x13d;" horiz-adv-x="452" 
d="M288 710l-127 -595h252l-24 -115h-377l151 710h125zM458 710l-64 -206h-90l45 206h109z" />
    <glyph glyph-name="lcaron" unicode="&#x13e;" horiz-adv-x="328" 
d="M156 729h115l-155 -729h-115zM429 710l-64 -206h-90l45 206h109z" />
    <glyph glyph-name="Ldot" unicode="&#x13f;" horiz-adv-x="457" 
d="M288 710l-127 -595h252l-24 -115h-377l151 710h125zM450 427l-25 -118h-121l25 118h121z" />
    <glyph glyph-name="ldot" unicode="&#x140;" horiz-adv-x="348" 
d="M156 729h115l-155 -729h-115zM385 426l-25 -118h-121l25 118h121z" />
    <glyph glyph-name="Lslash" unicode="&#x141;" horiz-adv-x="470" 
d="M302 710l-59 -273l148 43l-26 -123l-148 -42l-42 -200h252l-24 -115h-377l60 283l-68 -19l26 122l68 20l65 304h125z" />
    <glyph glyph-name="lslash" unicode="&#x142;" horiz-adv-x="327" 
d="M205 729h115l-56 -264l87 29l-23 -110l-88 -29l-75 -355h-115l68 322l-89 -29l24 109l89 29z" />
    <glyph glyph-name="Nacute" unicode="&#x143;" horiz-adv-x="617" 
d="M641 710l-151 -710h-113l-139 474l-101 -474h-125l151 710h117l139 -458l98 458h124zM572 897l-114 -117h-121l95 117h140z" />
    <glyph glyph-name="nacute" unicode="&#x144;" horiz-adv-x="492" 
d="M266 0l76 357q9 43 -5 67.5t-51 24.5q-32 0 -56 -20t-35 -56l-79 -373h-115l115 542h105l-9 -40q50 53 115 53q77 0 113 -53.5t20 -128.5l-79 -373h-115zM482 729l-114 -117h-121l95 117h140z" />
    <glyph glyph-name="uni0145" unicode="&#x145;" horiz-adv-x="617" 
d="M641 710l-151 -710h-113l-139 474l-101 -474h-125l151 710h117l139 -458l98 458h124zM165 -216l59 77h-51l20 94h126l-17 -81h-2l-64 -90h-71z" />
    <glyph glyph-name="uni0146" unicode="&#x146;" horiz-adv-x="492" 
d="M266 0l76 357q9 43 -5 67.5t-51 24.5q-32 0 -56 -20t-35 -56l-79 -373h-115l115 542h105l-9 -40q50 53 115 53q77 0 113 -53.5t20 -128.5l-79 -373h-115zM95 -216l59 77h-51l20 94h126l-17 -81h-2l-64 -90h-71z" />
    <glyph glyph-name="Ncaron" unicode="&#x147;" horiz-adv-x="617" 
d="M641 710l-151 -710h-113l-139 474l-101 -474h-125l151 710h117l139 -458l98 458h124zM578 893l-119 -113h-117l-76 113h119l22 -49l43 49h128z" />
    <glyph glyph-name="ncaron" unicode="&#x148;" horiz-adv-x="492" 
d="M266 0l76 357q9 43 -5 67.5t-51 24.5q-32 0 -56 -20t-35 -56l-79 -373h-115l115 542h105l-9 -40q50 53 115 53q77 0 113 -53.5t20 -128.5l-79 -373h-115zM488 725l-119 -113h-117l-76 113h119l22 -49l43 49h128z" />
    <glyph glyph-name="Eng" unicode="&#x14a;" horiz-adv-x="617" 
d="M642 710l-151 -710h-1l-4 -22q-12 -66 -56 -107.5t-105 -41.5h-69l23 110h37q18 0 30.5 11.5t16.5 31.5l8 40l-132 452l-101 -474h-125l151 710h117l139 -458l98 458h124z" />
    <glyph glyph-name="eng" unicode="&#x14b;" horiz-adv-x="492" 
d="M327 555q81 0 115.5 -51t19.5 -122l-86 -404q-12 -65 -56.5 -107t-107.5 -42h-51l21 102h20q22 0 39 15t22 38l79 373q9 43 -5 67.5t-51 24.5q-32 0 -56 -20t-35 -56l-79 -373h-115l115 542h105l-9 -40q50 53 115 53z" />
    <glyph glyph-name="Omacron" unicode="&#x14c;" horiz-adv-x="583" 
d="M364 726q119 0 176 -78t32 -195l-48 -224q-21 -106 -92.5 -175.5t-174.5 -69.5q-121 0 -178 78t-30 197l48 224q20 104 92 173.5t175 69.5zM356 611q-50 0 -85.5 -36t-48.5 -92l-48 -225q-16 -72 8 -115.5t83 -43.5q52 0 88 36.5t46 92.5l48 225q15 72 -9 115t-82 43z
M548 871l-19 -87h-274l18 87h275z" />
    <glyph glyph-name="omacron" unicode="&#x14d;" horiz-adv-x="476" 
d="M283 555q97 0 141.5 -62t25.5 -154l-34 -156q-19 -91 -76.5 -143.5t-143.5 -52.5q-96 0 -141 62t-25 154l33 156q19 91 76.5 143.5t143.5 52.5zM302 185l32 152q12 53 -5 82.5t-56 29.5q-37 0 -62 -25.5t-34 -66.5l-33 -152q-11 -53 5.5 -82.5t56.5 -29.5q36 0 61.5 26
t34.5 66zM469 703l-19 -87h-274l18 87h275z" />
    <glyph glyph-name="Obreve" unicode="&#x14e;" horiz-adv-x="583" 
d="M364 726q119 0 176 -78t32 -195l-48 -224q-21 -106 -92.5 -175.5t-174.5 -69.5q-121 0 -178 78t-30 197l48 224q20 104 92 173.5t175 69.5zM356 611q-50 0 -85.5 -36t-48.5 -92l-48 -225q-16 -72 8 -115.5t83 -43.5q52 0 88 36.5t46 92.5l48 225q15 72 -9 115t-82 43z
M466 894h92q-12 -56 -51 -87.5t-103 -31.5q-72 0 -108 34.5t-26 84.5h92q-5 -21 6.5 -33.5t37.5 -12.5q51 0 60 46z" />
    <glyph glyph-name="obreve" unicode="&#x14f;" horiz-adv-x="476" 
d="M283 555q97 0 141.5 -62t25.5 -154l-34 -156q-19 -91 -76.5 -143.5t-143.5 -52.5q-96 0 -141 62t-25 154l33 156q19 91 76.5 143.5t143.5 52.5zM302 185l32 152q12 53 -5 82.5t-56 29.5q-37 0 -62 -25.5t-34 -66.5l-33 -152q-11 -53 5.5 -82.5t56.5 -29.5q36 0 61.5 26
t34.5 66zM387 726h92q-12 -56 -51 -87.5t-103 -31.5q-72 0 -108 34.5t-26 84.5h92q-5 -21 6.5 -33.5t37.5 -12.5q51 0 60 46z" />
    <glyph glyph-name="Ohungarumlaut" unicode="&#x150;" horiz-adv-x="583" 
d="M364 726q119 0 176 -78t32 -195l-48 -224q-21 -106 -92.5 -175.5t-174.5 -69.5q-121 0 -178 78t-30 197l48 224q20 104 92 173.5t175 69.5zM356 611q-50 0 -85.5 -36t-48.5 -92l-48 -225q-16 -72 8 -115.5t83 -43.5q52 0 88 36.5t46 92.5l48 225q15 72 -9 115t-82 43z
M466 893l-100 -113h-114l86 113h128zM646 893l-115 -113h-112l97 113h130z" />
    <glyph glyph-name="ohungarumlaut" unicode="&#x151;" horiz-adv-x="476" 
d="M283 555q97 0 141.5 -62t25.5 -154l-34 -156q-19 -91 -76.5 -143.5t-143.5 -52.5q-96 0 -141 62t-25 154l33 156q19 91 76.5 143.5t143.5 52.5zM302 185l32 152q12 53 -5 82.5t-56 29.5q-37 0 -62 -25.5t-34 -66.5l-33 -152q-11 -53 5.5 -82.5t56.5 -29.5q36 0 61.5 26
t34.5 66zM387 725l-100 -113h-114l86 113h128zM567 725l-115 -113h-112l97 113h130z" />
    <glyph glyph-name="OE" unicode="&#x152;" horiz-adv-x="834" 
d="M856 595h-253l-37 -173h203l-25 -115h-203l-40 -192h261l-25 -115h-376l8 35q-56 -51 -131 -51q-113 0 -163.5 77.5t-25.5 197.5l48 224q21 105 89 174t165 69q105 0 149 -70l12 54h368zM356 611q-50 0 -87 -36.5t-47 -91.5l-48 -225q-16 -74 8 -116.5t81 -42.5
q52 0 89 36.5t47 92.5l48 225q16 73 -8 115.5t-83 42.5z" />
    <glyph glyph-name="oe" unicode="&#x153;" horiz-adv-x="749" 
d="M558 555q96 0 140.5 -63t24.5 -153l-22 -104h-274l-6 -30q-12 -53 5 -82t57 -29q37 0 62.5 22.5t32.5 58.5l1 5h114l-1 -6q-17 -83 -73.5 -135t-145.5 -52q-93 0 -136 59q-56 -59 -144 -59q-95 0 -139 62.5t-25 153.5l34 156q17 87 73.5 141.5t145.5 54.5q92 0 135 -58
q56 58 141 58zM303 185l32 152q11 52 -5.5 82t-56.5 30q-36 0 -61 -26t-34 -66l-33 -152q-11 -51 6 -81t56 -30q37 0 62 25.5t34 65.5zM453 357l-5 -24h159l1 4q12 52 -4.5 82t-56.5 30q-36 0 -60.5 -25.5t-33.5 -66.5z" />
    <glyph glyph-name="Racute" unicode="&#x154;" horiz-adv-x="563" 
d="M163 710h184q112 0 158.5 -62.5t30.5 -144.5q-13 -65 -58 -118t-117 -70l178 -315h-137l-162 308h-38l-65 -308h-125zM342 596h-79l-37 -174h78q42 0 70.5 23t36.5 62q9 42 -9 65.5t-60 23.5zM528 897l-114 -117h-121l95 117h140z" />
    <glyph glyph-name="racute" unicode="&#x155;" horiz-adv-x="327" 
d="M347 437h-34q-48 0 -82.5 -30t-45.5 -84h-1l-68 -323h-115l115 542h105l-11 -51q52 64 135 64h27zM426 729l-114 -117h-121l95 117h140z" />
    <glyph glyph-name="uni0156" unicode="&#x156;" horiz-adv-x="563" 
d="M163 710h184q112 0 158.5 -62.5t30.5 -144.5q-13 -65 -58 -118t-117 -70l178 -315h-137l-162 308h-38l-65 -308h-125zM342 596h-79l-37 -174h78q42 0 70.5 23t36.5 62q9 42 -9 65.5t-60 23.5zM161 -216l59 77h-51l20 94h126l-17 -81h-2l-64 -90h-71z" />
    <glyph glyph-name="uni0157" unicode="&#x157;" horiz-adv-x="327" 
d="M347 437h-34q-48 0 -82.5 -30t-45.5 -84h-1l-68 -323h-115l115 542h105l-11 -51q52 64 135 64h27zM-39 -216l59 77h-51l20 94h126l-17 -81h-2l-64 -90h-71z" />
    <glyph glyph-name="Rcaron" unicode="&#x158;" horiz-adv-x="563" 
d="M163 710h184q112 0 158.5 -62.5t30.5 -144.5q-13 -65 -58 -118t-117 -70l178 -315h-137l-162 308h-38l-65 -308h-125zM342 596h-79l-37 -174h78q42 0 70.5 23t36.5 62q9 42 -9 65.5t-60 23.5zM534 893l-119 -113h-117l-76 113h119l22 -49l43 49h128z" />
    <glyph glyph-name="rcaron" unicode="&#x159;" horiz-adv-x="327" 
d="M347 437h-34q-48 0 -82.5 -30t-45.5 -84h-1l-68 -323h-115l115 542h105l-11 -51q52 64 135 64h27zM431 725l-119 -113h-117l-76 113h119l22 -49l43 49h128z" />
    <glyph glyph-name="Sacute" unicode="&#x15a;" horiz-adv-x="531" 
d="M403 488l3 15q11 50 -13 79t-65 29q-34 0 -61.5 -19t-35.5 -53q-10 -39 9.5 -63.5t61.5 -45.5l56 -28q147 -74 121 -222q-17 -93 -88.5 -144.5t-162.5 -51.5q-103 0 -164 63.5t-38 167.5l3 15h122l-3 -14q-11 -53 13 -85t75 -32q44 0 75.5 21.5t42.5 62.5q9 42 -11 68
t-62 48l-57 29q-75 38 -103.5 89.5t-14.5 123.5q14 83 77.5 134t154.5 51q101 0 154.5 -63t35.5 -154l-5 -21h-120zM533 897l-114 -117h-121l95 117h140z" />
    <glyph glyph-name="sacute" unicode="&#x15b;" horiz-adv-x="443" 
d="M308 365l2 10q7 33 -7 53.5t-48 20.5q-60 0 -73 -48q-5 -27 10.5 -41t55.5 -31l43 -20q53 -23 80.5 -67.5t13.5 -101.5q-15 -72 -68 -112.5t-133 -40.5q-92 0 -139.5 53t-32.5 120l4 21h113l-2 -9q-9 -37 10 -58t54 -21q32 0 54 14.5t27 37.5q5 30 -10.5 45.5t-51.5 31.5
l-46 20q-120 52 -95 169q15 68 66.5 106t126.5 38q78 0 128 -49.5t33 -131.5l-2 -9h-113zM455 732l-114 -117h-121l95 117h140z" />
    <glyph glyph-name="Scircumflex" unicode="&#x15c;" horiz-adv-x="531" 
d="M403 488l3 15q11 50 -13 79t-65 29q-34 0 -61.5 -19t-35.5 -53q-10 -39 9.5 -63.5t61.5 -45.5l56 -28q147 -74 121 -222q-17 -93 -88.5 -144.5t-162.5 -51.5q-103 0 -164 63.5t-38 167.5l3 15h122l-3 -14q-11 -53 13 -85t75 -32q44 0 75.5 21.5t42.5 62.5q9 42 -11 68
t-62 48l-57 29q-75 38 -103.5 89.5t-14.5 123.5q14 83 77.5 134t154.5 51q101 0 154.5 -63t35.5 -154l-5 -21h-120zM203 780l118 113h118l76 -113h-119l-23 48l-42 -48h-128z" />
    <glyph glyph-name="scircumflex" unicode="&#x15d;" horiz-adv-x="443" 
d="M308 365l2 10q7 33 -7 53.5t-48 20.5q-60 0 -73 -48q-5 -27 10.5 -41t55.5 -31l43 -20q53 -23 80.5 -67.5t13.5 -101.5q-15 -72 -68 -112.5t-133 -40.5q-92 0 -139.5 53t-32.5 120l4 21h113l-2 -9q-9 -37 10 -58t54 -21q32 0 54 14.5t27 37.5q5 30 -10.5 45.5t-51.5 31.5
l-46 20q-120 52 -95 169q15 68 66.5 106t126.5 38q78 0 128 -49.5t33 -131.5l-2 -9h-113zM125 615l118 113h118l76 -113h-119l-23 48l-42 -48h-128z" />
    <glyph glyph-name="Scedilla" unicode="&#x15e;" horiz-adv-x="531" 
d="M403 488l3 15q11 50 -13 79t-65 29q-34 0 -61.5 -19t-35.5 -53q-10 -39 9.5 -63.5t61.5 -45.5l56 -28q147 -74 121 -222q-17 -93 -88.5 -144.5t-162.5 -51.5q-103 0 -164 63.5t-38 167.5l3 15h122l-3 -14q-11 -53 13 -85t75 -32q44 0 75.5 21.5t42.5 62.5q9 42 -11 68
t-62 48l-57 29q-75 38 -103.5 89.5t-14.5 123.5q14 83 77.5 134t154.5 51q101 0 154.5 -63t35.5 -154l-5 -21h-120zM222 -149h-121l76 154h116z" />
    <glyph glyph-name="scedilla" unicode="&#x15f;" horiz-adv-x="443" 
d="M308 365l2 10q7 33 -7 53.5t-48 20.5q-60 0 -73 -48q-5 -27 10.5 -41t55.5 -31l43 -20q53 -23 80.5 -67.5t13.5 -101.5q-15 -72 -68 -112.5t-133 -40.5q-92 0 -139.5 53t-32.5 120l4 21h113l-2 -9q-9 -37 10 -58t54 -21q32 0 54 14.5t27 37.5q5 30 -10.5 45.5t-51.5 31.5
l-46 20q-120 52 -95 169q15 68 66.5 106t126.5 38q78 0 128 -49.5t33 -131.5l-2 -9h-113zM168 -149h-110l91 179l94 -25z" />
    <glyph glyph-name="Scaron" unicode="&#x160;" horiz-adv-x="531" 
d="M403 488l3 15q11 50 -13 79t-65 29q-34 0 -61.5 -19t-35.5 -53q-10 -39 9.5 -63.5t61.5 -45.5l56 -28q147 -74 121 -222q-17 -93 -88.5 -144.5t-162.5 -51.5q-103 0 -164 63.5t-38 167.5l3 15h122l-3 -14q-11 -53 13 -85t75 -32q44 0 75.5 21.5t42.5 62.5q9 42 -11 68
t-62 48l-57 29q-75 38 -103.5 89.5t-14.5 123.5q14 83 77.5 134t154.5 51q101 0 154.5 -63t35.5 -154l-5 -21h-120zM539 893l-119 -113h-117l-76 113h119l22 -49l43 49h128z" />
    <glyph glyph-name="scaron" unicode="&#x161;" horiz-adv-x="443" 
d="M308 365l2 10q7 33 -7 53.5t-48 20.5q-60 0 -73 -48q-5 -27 10.5 -41t55.5 -31l43 -20q53 -23 80.5 -67.5t13.5 -101.5q-15 -72 -68 -112.5t-133 -40.5q-92 0 -139.5 53t-32.5 120l4 21h113l-2 -9q-9 -37 10 -58t54 -21q32 0 54 14.5t27 37.5q5 30 -10.5 45.5t-51.5 31.5
l-46 20q-120 52 -95 169q15 68 66.5 106t126.5 38q78 0 128 -49.5t33 -131.5l-2 -9h-113zM461 728l-119 -113h-117l-76 113h119l22 -49l43 49h128z" />
    <glyph glyph-name="uni0162" unicode="&#x162;" horiz-adv-x="488" 
d="M565 710l-25 -115h-164l-126 -595h-125l126 595h-165l24 115h455zM180 -149h-121l76 154h116z" />
    <glyph glyph-name="uni0163" unicode="&#x163;" horiz-adv-x="329" 
d="M333 441h-93l-60 -283q-10 -51 35 -51h49l-23 -107h-51q-69 0 -105 40.5t-24 97.5l64 303h-69l22 101h69l33 155h114l-33 -155h94zM127 -149h-110l91 179l94 -25z" />
    <glyph glyph-name="Tcaron" unicode="&#x164;" horiz-adv-x="488" 
d="M565 710l-25 -115h-164l-126 -595h-125l126 595h-165l24 115h455zM525 893l-119 -113h-117l-76 113h119l22 -49l43 49h128z" />
    <glyph glyph-name="tcaron" unicode="&#x165;" horiz-adv-x="329" 
d="M333 441h-93l-60 -283q-10 -51 35 -51h49l-23 -107h-51q-69 0 -105 40.5t-24 97.5l64 303h-69l22 101h69l33 155h114l-33 -155h94zM463 787l-64 -206h-90l45 206h109z" />
    <glyph glyph-name="Tbar" unicode="&#x166;" horiz-adv-x="499" 
d="M570 710l-25 -115h-164l-38 -180h91l-25 -115h-90l-64 -300h-125l64 300h-89l24 115h89l38 180h-165l24 115h455z" />
    <glyph glyph-name="tbar" unicode="&#x167;" horiz-adv-x="332" 
d="M335 441h-93l-17 -77h93l-19 -88h-92l-25 -118q-10 -51 35 -51h49l-23 -107h-51q-69 0 -105 40.5t-24 97.5l29 138h-62l18 88h63l16 77h-69l22 101h69l33 155h114l-33 -155h94z" />
    <glyph glyph-name="Utilde" unicode="&#x168;" horiz-adv-x="590" 
d="M495 710h125l-103 -483q-21 -107 -90 -175t-171 -68q-113 0 -167 74.5t-30 188.5l99 463h125l-99 -464q-17 -69 5 -108t76 -39q47 0 81 35.5t46 91.5zM492 889h81q-6 -47 -36.5 -80.5t-71.5 -33.5q-28 0 -56 17q-5 3 -15 10t-16 9.5t-13 2.5q-24 0 -31 -33h-81
q6 48 37 81t72 33q30 0 55 -18q5 -3 12.5 -8t11.5 -7t9.5 -4t10.5 -2q24 0 31 33z" />
    <glyph glyph-name="utilde" unicode="&#x169;" horiz-adv-x="492" 
d="M227 542l-76 -357q-18 -92 57 -92q35 0 60.5 25t33.5 67l76 357h115l-115 -542h-105l9 41q-48 -54 -116 -54q-75 0 -112 54t-21 128l80 373h114zM411 722h81q-6 -47 -36.5 -80.5t-71.5 -33.5q-28 0 -56 17q-5 3 -15 10t-16 9.5t-13 2.5q-24 0 -31 -33h-81q6 48 37 81
t72 33q30 0 55 -18q5 -3 12.5 -8t11.5 -7t9.5 -4t10.5 -2q24 0 31 33z" />
    <glyph glyph-name="Umacron" unicode="&#x16a;" horiz-adv-x="590" 
d="M495 710h125l-103 -483q-21 -107 -90 -175t-171 -68q-113 0 -167 74.5t-30 188.5l99 463h125l-99 -464q-17 -69 5 -108t76 -39q47 0 81 35.5t46 91.5zM552 871l-19 -87h-274l18 87h275z" />
    <glyph glyph-name="umacron" unicode="&#x16b;" horiz-adv-x="492" 
d="M227 542l-76 -357q-18 -92 57 -92q35 0 60.5 25t33.5 67l76 357h115l-115 -542h-105l9 41q-48 -54 -116 -54q-75 0 -112 54t-21 128l80 373h114zM471 703l-19 -87h-274l18 87h275z" />
    <glyph glyph-name="Ubreve" unicode="&#x16c;" horiz-adv-x="590" 
d="M495 710h125l-103 -483q-21 -107 -90 -175t-171 -68q-113 0 -167 74.5t-30 188.5l99 463h125l-99 -464q-17 -69 5 -108t76 -39q47 0 81 35.5t46 91.5zM470 894h92q-12 -56 -51 -87.5t-103 -31.5q-72 0 -108 34.5t-26 84.5h92q-5 -21 6.5 -33.5t37.5 -12.5q51 0 60 46z
" />
    <glyph glyph-name="ubreve" unicode="&#x16d;" horiz-adv-x="492" 
d="M227 542l-76 -357q-18 -92 57 -92q35 0 60.5 25t33.5 67l76 357h115l-115 -542h-105l9 41q-48 -54 -116 -54q-75 0 -112 54t-21 128l80 373h114zM389 726h92q-12 -56 -51 -87.5t-103 -31.5q-72 0 -108 34.5t-26 84.5h92q-5 -21 6.5 -33.5t37.5 -12.5q51 0 60 46z" />
    <glyph glyph-name="Uring" unicode="&#x16e;" horiz-adv-x="590" 
d="M495 710h125l-103 -483q-21 -107 -90 -175t-171 -68q-113 0 -167 74.5t-30 188.5l99 463h125l-99 -464q-17 -69 5 -108t76 -39q47 0 81 35.5t46 91.5zM403 763q-54 0 -84.5 28.5t-25.5 74.5q4 44 40.5 73t90.5 29q53 0 83 -29.5t26 -72.5q-5 -48 -40.5 -75.5t-89.5 -27.5
zM409 826q45 0 49 40q2 15 -9.5 27t-31.5 12q-19 0 -33 -11.5t-16 -27.5q-2 -20 9 -30t32 -10z" />
    <glyph glyph-name="uring" unicode="&#x16f;" horiz-adv-x="492" 
d="M227 542l-76 -357q-18 -92 57 -92q35 0 60.5 25t33.5 67l76 357h115l-115 -542h-105l9 41q-48 -54 -116 -54q-75 0 -112 54t-21 128l80 373h114zM321 596q-54 0 -84.5 28.5t-25.5 74.5q4 44 40.5 73t90.5 29q53 0 83 -29.5t26 -72.5q-5 -48 -40.5 -75.5t-89.5 -27.5z
M327 659q45 0 49 40q2 15 -9.5 27t-31.5 12q-19 0 -33 -11.5t-16 -27.5q-2 -20 9 -30t32 -10z" />
    <glyph glyph-name="Uhungarumlaut" unicode="&#x170;" horiz-adv-x="590" 
d="M495 710h125l-103 -483q-21 -107 -90 -175t-171 -68q-113 0 -167 74.5t-30 188.5l99 463h125l-99 -464q-17 -69 5 -108t76 -39q47 0 81 35.5t46 91.5zM470 893l-100 -113h-114l86 113h128zM650 893l-115 -113h-112l97 113h130z" />
    <glyph glyph-name="uhungarumlaut" unicode="&#x171;" horiz-adv-x="492" 
d="M227 542l-76 -357q-18 -92 57 -92q35 0 60.5 25t33.5 67l76 357h115l-115 -542h-105l9 41q-48 -54 -116 -54q-75 0 -112 54t-21 128l80 373h114zM389 725l-100 -113h-114l86 113h128zM569 725l-115 -113h-112l97 113h130z" />
    <glyph glyph-name="Uogonek" unicode="&#x172;" horiz-adv-x="591" 
d="M495 710h125l-103 -483q-27 -141 -130 -206l-64 -47q-21 -16 -25 -32q-2 -10 4 -16.5t20 -6.5h29l-19 -89h-42q-54 0 -80 27t-17 65q5 31 42 63q-103 8 -151.5 81t-24.5 181l99 463h125l-99 -464q-17 -69 5 -108t76 -39q47 0 81 35.5t46 91.5z" />
    <glyph glyph-name="uogonek" unicode="&#x173;" horiz-adv-x="492" 
d="M378 0h-1l-35 -26q-22 -16 -25 -33q-2 -9 4 -15.5t20 -6.5h26l-19 -89h-42q-54 0 -80 27t-17 66q7 32 50 69l15 12l8 36q-50 -53 -116 -53q-81 0 -115.5 51t-19.5 122l82 382h114l-76 -357q-18 -92 57 -92q66 0 90 75l80 374h115z" />
    <glyph glyph-name="Wcircumflex" unicode="&#x174;" horiz-adv-x="844" 
d="M926 710l-305 -710h-134l-22 470l-221 -470h-134l-5 710h127l-5 -490l223 490h123l17 -486l201 486h135zM362 780l118 113h118l76 -113h-119l-23 48l-42 -48h-128z" />
    <glyph glyph-name="wcircumflex" unicode="&#x175;" horiz-adv-x="696" 
d="M626 542h115l-248 -542h-111l-16 340l-161 -340h-116l-18 542h117l-1 -373l167 373h100l10 -383zM256 612l118 113h118l76 -113h-119l-23 48l-42 -48h-128z" />
    <glyph glyph-name="Ycircumflex" unicode="&#x176;" horiz-adv-x="567" 
d="M662 710l-301 -362l-74 -348h-125l75 352l-136 358h138l80 -234l186 234h157zM224 780l118 113h118l76 -113h-119l-23 48l-42 -48h-128z" />
    <glyph glyph-name="ycircumflex" unicode="&#x177;" horiz-adv-x="473" 
d="M524 542l-442 -712h-125l218 346l-112 366h122l66 -246l144 246h129zM146 612l118 113h118l76 -113h-119l-23 48l-42 -48h-128z" />
    <glyph glyph-name="Ydieresis" unicode="&#x178;" horiz-adv-x="567" 
d="M662 710l-301 -362l-74 -348h-125l75 352l-136 358h138l80 -234l186 234h157zM374 893l-23 -109h-114l23 109h114zM545 893l-23 -109h-114l23 109h114z" />
    <glyph glyph-name="Zacute" unicode="&#x179;" horiz-adv-x="505" 
d="M557 710l-22 -102l-375 -493h277l-25 -115h-431l22 102l372 493h-264l25 115h421zM524 897l-114 -117h-121l95 117h140z" />
    <glyph glyph-name="zacute" unicode="&#x17a;" horiz-adv-x="429" 
d="M145 101h216l-22 -101h-359l20 97l281 344h-206l22 101h349l-21 -96zM450 729l-114 -117h-121l95 117h140z" />
    <glyph glyph-name="Zdotaccent" unicode="&#x17b;" horiz-adv-x="505" 
d="M557 710l-22 -102l-375 -493h277l-25 -115h-431l22 102l372 493h-264l25 115h421zM433 900l-25 -118h-121l25 118h121z" />
    <glyph glyph-name="zdotaccent" unicode="&#x17c;" horiz-adv-x="429" 
d="M145 101h216l-22 -101h-359l20 97l281 344h-206l22 101h349l-21 -96zM358 732l-25 -118h-121l25 118h121z" />
    <glyph glyph-name="Zcaron" unicode="&#x17d;" horiz-adv-x="505" 
d="M557 710l-22 -102l-375 -493h277l-25 -115h-431l22 102l372 493h-264l25 115h421zM530 893l-119 -113h-117l-76 113h119l22 -49l43 49h128z" />
    <glyph glyph-name="zcaron" unicode="&#x17e;" horiz-adv-x="429" 
d="M145 101h216l-22 -101h-359l20 97l281 344h-206l22 101h349l-21 -96zM455 725l-119 -113h-117l-76 113h119l22 -49l43 49h128z" />
    <glyph glyph-name="uni018F" unicode="&#x18f;" horiz-adv-x="566" 
d="M41 254l32 144h344l12 55q17 72 -5.5 115t-76.5 43q-47 0 -82 -36t-46 -89v-4h-125v3q21 105 90 173t172 68q116 0 170 -78.5t29 -194.5l-49 -227q-21 -105 -91 -173.5t-174 -68.5q-117 0 -171 77t-29 193zM251 99q48 0 84 36.5t46 91.5l12 56h-221l-6 -29
q-16 -69 8 -112t77 -43z" />
    <glyph glyph-name="florin" unicode="&#x192;" 
d="M452 405l-16 -80h-105l-41 -194q-13 -60 -54 -95.5t-99 -35.5h-100l22 101h67q42 0 53 46l38 178h-104l17 80h104l37 174q12 60 51.5 95.5t96.5 35.5h98l-22 -101h-61q-43 0 -52 -46l-34 -158h104z" />
    <glyph glyph-name="uni0218" unicode="&#x218;" horiz-adv-x="531" 
d="M403 488l3 15q11 50 -13 79t-65 29q-34 0 -61.5 -19t-35.5 -53q-10 -39 9.5 -63.5t61.5 -45.5l56 -28q147 -74 121 -222q-17 -93 -88.5 -144.5t-162.5 -51.5q-103 0 -164 63.5t-38 167.5l3 15h122l-3 -14q-11 -53 13 -85t75 -32q44 0 75.5 21.5t42.5 62.5q9 42 -11 68
t-62 48l-57 29q-75 38 -103.5 89.5t-14.5 123.5q14 83 77.5 134t154.5 51q101 0 154.5 -63t35.5 -154l-5 -21h-120zM130 -216l59 77h-51l20 94h126l-17 -81h-2l-64 -90h-71z" />
    <glyph glyph-name="uni0219" unicode="&#x219;" horiz-adv-x="443" 
d="M308 365l2 10q7 33 -7 53.5t-48 20.5q-60 0 -73 -48q-5 -27 10.5 -41t55.5 -31l43 -20q53 -23 80.5 -67.5t13.5 -101.5q-15 -72 -68 -112.5t-133 -40.5q-92 0 -139.5 53t-32.5 120l4 21h113l-2 -9q-9 -37 10 -58t54 -21q32 0 54 14.5t27 37.5q5 30 -10.5 45.5t-51.5 31.5
l-46 20q-120 52 -95 169q15 68 66.5 106t126.5 38q78 0 128 -49.5t33 -131.5l-2 -9h-113zM81 -216l59 77h-51l20 94h126l-17 -81h-2l-64 -90h-71z" />
    <glyph glyph-name="uni021A" unicode="&#x21a;" horiz-adv-x="488" 
d="M565 710l-25 -115h-164l-126 -595h-125l126 595h-165l24 115h455zM89 -216l59 77h-51l20 94h126l-17 -81h-2l-64 -90h-71z" />
    <glyph glyph-name="uni021B" unicode="&#x21b;" horiz-adv-x="329" 
d="M333 441h-93l-60 -283q-10 -51 35 -51h49l-23 -107h-51q-69 0 -105 40.5t-24 97.5l64 303h-69l22 101h69l33 155h114l-33 -155h94zM40 -216l59 77h-51l20 94h126l-17 -81h-2l-64 -90h-71z" />
    <glyph glyph-name="uni0232" unicode="&#x232;" horiz-adv-x="567" 
d="M662 710l-301 -362l-74 -348h-125l75 352l-136 358h138l80 -234l186 234h157zM536 871l-19 -87h-274l18 87h275z" />
    <glyph glyph-name="uni0233" unicode="&#x233;" horiz-adv-x="473" 
d="M524 542l-442 -712h-125l218 346l-112 366h122l66 -246l144 246h129zM459 703l-19 -87h-274l18 87h275z" />
    <glyph glyph-name="uni0237" unicode="&#x237;" horiz-adv-x="230" 
d="M-3 -16l119 558h115l-120 -564q-12 -65 -56.5 -107t-105.5 -42h-58l21 102h24q22 0 39 15t22 38z" />
    <glyph glyph-name="uni0259" unicode="&#x259;" horiz-adv-x="474" 
d="M194 -13q-97 0 -142 61.5t-26 154.5l23 104h274l6 30q12 53 -5 82.5t-59 29.5q-36 0 -60.5 -23t-33.5 -59v-4h-114l1 5q18 88 75 137.5t142 49.5q98 0 144 -62t25 -154l-33 -156q-21 -92 -77 -144t-140 -52zM297 185l5 24h-160l-1 -4q-11 -53 5.5 -82.5t57.5 -29.5
q35 0 59.5 26t33.5 66z" />
    <glyph glyph-name="uni02BB" unicode="&#x2bb;" horiz-adv-x="250" 
d="M289 710l-27 -129l-1 -1l-77 -146h-73l74 137h-68l29 139h143z" />
    <glyph glyph-name="uni02BC" unicode="&#x2bc;" horiz-adv-x="250" 
d="M203 434l27 129l1 1l77 146h73l-74 -137h68l-29 -139h-143z" />
    <glyph glyph-name="circumflex" unicode="&#x2c6;" horiz-adv-x="585" 
d="M347 612l118 113h118l76 -113h-119l-23 48l-42 -48h-128z" />
    <glyph glyph-name="caron" unicode="&#x2c7;" horiz-adv-x="586" 
d="M648 725l-119 -113h-117l-76 113h119l22 -49l43 49h128z" />
    <glyph glyph-name="breve" unicode="&#x2d8;" horiz-adv-x="585" 
d="M440 726h92q-12 -56 -51 -87.5t-103 -31.5q-72 0 -108 34.5t-26 84.5h92q-5 -21 6.5 -33.5t37.5 -12.5q51 0 60 46z" />
    <glyph glyph-name="dotaccent" unicode="&#x2d9;" horiz-adv-x="554" 
d="M325 732l-25 -118h-121l25 118h121z" />
    <glyph glyph-name="ring" unicode="&#x2da;" horiz-adv-x="599" 
d="M475 596q-54 0 -84.5 28.5t-25.5 74.5q4 44 40.5 73t90.5 29q53 0 83 -29.5t26 -72.5q-5 -48 -40.5 -75.5t-89.5 -27.5zM481 659q45 0 49 40q2 15 -9.5 27t-31.5 12q-19 0 -33 -11.5t-16 -27.5q-2 -20 9 -30t32 -10z" />
    <glyph glyph-name="ogonek" unicode="&#x2db;" horiz-adv-x="377" 
d="M246 21l80 -21l-35 -26q-21 -16 -25 -32q-2 -10 4 -16.5t20 -6.5h29l-19 -89h-42q-54 0 -80 27t-17 65q6 32 51 70z" />
    <glyph glyph-name="tilde" unicode="&#x2dc;" horiz-adv-x="587" 
d="M470 722h81q-6 -47 -36.5 -80.5t-71.5 -33.5q-28 0 -56 17q-5 3 -15 10t-16 9.5t-13 2.5q-24 0 -31 -33h-81q6 48 37 81t72 33q30 0 55 -18q5 -3 12.5 -8t11.5 -7t9.5 -4t10.5 -2q24 0 31 33z" />
    <glyph glyph-name="hungarumlaut" unicode="&#x2dd;" horiz-adv-x="586" 
d="M442 725l-100 -113h-114l86 113h128zM622 725l-115 -113h-112l97 113h130z" />
    <glyph glyph-name="uni0312" unicode="&#x312;" horiz-adv-x="0" 
d="M-221 760l-48 -62h52l-18 -86h-126l16 73h-1l54 75h71z" />
    <glyph glyph-name="uni0326" unicode="&#x326;" horiz-adv-x="391" 
d="M98 -216l59 77h-51l20 94h126l-17 -81h-2l-64 -90h-71z" />
    <glyph glyph-name="uni0394" unicode="&#x394;" horiz-adv-x="533" 
d="M454 0h-488l21 98l314 612h122l52 -612zM327 531l-200 -416h223z" />
    <glyph glyph-name="uni03A9" unicode="&#x3a9;" horiz-adv-x="587" 
d="M23 115h111l13 63q-45 34 -63.5 94.5t-3.5 129.5l18 81q20 104 94.5 173.5t181.5 69.5q116 0 170 -77t31 -186l-16 -73q-35 -166 -161 -221l-12 -54h119l-25 -115h-219l24 115l31 145q45 8 76 42t41 81l17 80q14 67 -9 107.5t-79 40.5q-53 0 -91 -36.5t-48 -91.5l-19 -87
q-11 -55 5 -91.5t57 -44.5l-31 -145h1l-25 -115h-212z" />
    <glyph glyph-name="uni03BC" unicode="&#x3bc;" horiz-adv-x="495" 
d="M306 185l76 357h115l-115 -542h-105l9 42q-49 -55 -117 -55q-30 0 -54 10l-36 -168h-115l152 713h114l-76 -357q-18 -92 57 -92q35 0 60.5 25t34.5 67z" />
    <glyph glyph-name="pi" unicode="&#x3c0;" horiz-adv-x="485" 
d="M486 542l-115 -542h-115l93 441h-140l-93 -441h-115l115 542h370z" />
    <glyph glyph-name="Wgrave" unicode="&#x1e80;" horiz-adv-x="844" 
d="M926 710l-305 -710h-134l-22 470l-221 -470h-134l-5 710h127l-5 -490l223 490h123l17 -486l201 486h135zM363 897h139l87 -117h-115z" />
    <glyph glyph-name="wgrave" unicode="&#x1e81;" horiz-adv-x="696" 
d="M626 542h115l-248 -542h-111l-16 340l-161 -340h-116l-18 542h117l-1 -373l167 373h100l10 -383zM256 729h139l87 -117h-115z" />
    <glyph glyph-name="Wacute" unicode="&#x1e82;" horiz-adv-x="844" 
d="M926 710l-305 -710h-134l-22 470l-221 -470h-134l-5 710h127l-5 -490l223 490h123l17 -486l201 486h135zM693 897l-114 -117h-121l95 117h140z" />
    <glyph glyph-name="wacute" unicode="&#x1e83;" horiz-adv-x="696" 
d="M626 542h115l-248 -542h-111l-16 340l-161 -340h-116l-18 542h117l-1 -373l167 373h100l10 -383zM586 729l-114 -117h-121l95 117h140z" />
    <glyph glyph-name="Wdieresis" unicode="&#x1e84;" horiz-adv-x="844" 
d="M926 710l-305 -710h-134l-22 470l-221 -470h-134l-5 710h127l-5 -490l223 490h123l17 -486l201 486h135zM513 893l-23 -109h-114l23 109h114zM684 893l-23 -109h-114l23 109h114z" />
    <glyph glyph-name="wdieresis" unicode="&#x1e85;" horiz-adv-x="696" 
d="M626 542h115l-248 -542h-111l-16 340l-161 -340h-116l-18 542h117l-1 -373l167 373h100l10 -383zM406 725l-23 -109h-114l23 109h114zM577 725l-23 -109h-114l23 109h114z" />
    <glyph glyph-name="Ygrave" unicode="&#x1ef2;" horiz-adv-x="567" 
d="M662 710l-301 -362l-74 -348h-125l75 352l-136 358h138l80 -234l186 234h157zM224 897h139l87 -117h-115z" />
    <glyph glyph-name="ygrave" unicode="&#x1ef3;" horiz-adv-x="473" 
d="M524 542l-442 -712h-125l218 346l-112 366h122l66 -246l144 246h129zM146 729h139l87 -117h-115z" />
    <glyph glyph-name="uni2007" unicode="&#x2007;" 
 />
    <glyph glyph-name="uni2008" unicode="&#x2008;" horiz-adv-x="245" 
 />
    <glyph glyph-name="uni2009" unicode="&#x2009;" horiz-adv-x="100" 
 />
    <glyph glyph-name="uni200B" unicode="&#x200b;" horiz-adv-x="0" 
 />
    <glyph glyph-name="uni2010" unicode="&#x2010;" horiz-adv-x="332" 
d="M82 373h214l-22 -106h-215z" />
    <glyph glyph-name="uni2011" unicode="&#x2011;" horiz-adv-x="332" 
d="M82 373h214l-22 -106h-215z" />
    <glyph glyph-name="figuredash" unicode="&#x2012;" horiz-adv-x="501" 
d="M76 371h391l-21 -102h-392z" />
    <glyph glyph-name="endash" unicode="&#x2013;" horiz-adv-x="509" 
d="M80 371h391l-21 -102h-392z" />
    <glyph glyph-name="emdash" unicode="&#x2014;" horiz-adv-x="622" 
d="M80 371h505l-21 -102h-506z" />
    <glyph glyph-name="quoteleft" unicode="&#x2018;" horiz-adv-x="240" 
d="M85 434l27 129h1l77 147h73l-75 -137h69l-29 -139h-143z" />
    <glyph glyph-name="quoteright" unicode="&#x2019;" horiz-adv-x="232" 
d="M282 710l-27 -129l-1 -1l-77 -146h-73l74 137h-68l29 139h143z" />
    <glyph glyph-name="quotesinglbase" unicode="&#x201a;" horiz-adv-x="251" 
d="M176 139l-27 -129l-1 -1l-77 -146h-73l74 137h-68l29 139h143z" />
    <glyph glyph-name="quotedblleft" unicode="&#x201c;" horiz-adv-x="437" 
d="M85 434l27 129h1l77 147h73l-75 -137h69l-29 -139h-143zM282 434l27 129h1l77 147h73l-75 -137h69l-29 -139h-143z" />
    <glyph glyph-name="quotedblright" unicode="&#x201d;" horiz-adv-x="423" 
d="M472 710l-27 -129l-1 -1l-77 -146h-73l74 137h-68l29 139h143zM282 710l-27 -129l-1 -1l-77 -146h-73l74 137h-68l29 139h143z" />
    <glyph glyph-name="quotedblbase" unicode="&#x201e;" horiz-adv-x="441" 
d="M366 139l-27 -129l-1 -1l-77 -146h-73l74 137h-68l29 139h143zM176 139l-27 -129l-1 -1l-77 -146h-73l74 137h-68l29 139h143z" />
    <glyph glyph-name="dagger" unicode="&#x2020;" horiz-adv-x="352" 
d="M244 376h-94l37 174h-77l18 87h77l16 72h94l-16 -72h78l-19 -87h-77z" />
    <glyph glyph-name="daggerdbl" unicode="&#x2021;" horiz-adv-x="352" 
d="M245 376h-94l13 60h-78l17 80h78l11 53h-77l17 80h77l13 60h94l-13 -60h77l-17 -80h-77l-11 -53h76l-17 -80h-76z" />
    <glyph glyph-name="bullet" unicode="&#x2022;" horiz-adv-x="356" 
d="M309 420l-42 -198h-198l42 198h198z" />
    <glyph glyph-name="ellipsis" unicode="&#x2026;" horiz-adv-x="653" 
d="M377 139l-30 -139h-138l29 139h139zM583 139l-30 -139h-138l29 139h139zM171 139l-30 -139h-138l29 139h139z" />
    <glyph glyph-name="perthousand" unicode="&#x2030;" horiz-adv-x="1005" 
d="M223 429q-62 0 -99.5 42.5t-31.5 104.5t53 104.5t109 42.5q61 0 98.5 -42.5t31.5 -104.5t-52.5 -104.5t-108.5 -42.5zM232 516q24 0 41 16.5t20 43.5q2 26 -11.5 43t-37.5 17t-41 -17t-20 -43q-2 -27 11.5 -43.5t37.5 -16.5zM472 -13q-62 0 -99.5 42.5t-31.5 104.5
t53 104.5t109 42.5q61 0 98.5 -42.5t31.5 -104.5t-52.5 -104.5t-108.5 -42.5zM481 74q24 0 41 17t20 43q2 26 -11.5 43t-37.5 17t-41 -17t-20 -43q-2 -26 11.5 -43t37.5 -17zM791 -13q-62 0 -99.5 42.5t-31.5 104.5t53 104.5t109 42.5q61 0 98.5 -42.5t31.5 -104.5
t-52.5 -104.5t-108.5 -42.5zM800 74q24 0 41 17t20 43q2 26 -11.5 43t-37.5 17t-41 -17t-20 -43q-2 -26 11.5 -43t37.5 -17zM568 710h93l-512 -710h-93z" />
    <glyph glyph-name="minute" unicode="&#x2032;" horiz-adv-x="244" 
d="M189 710h115l-118 -294h-115z" />
    <glyph glyph-name="second" unicode="&#x2033;" horiz-adv-x="417" 
d="M363 710h115l-118 -294h-115zM189 710h115l-118 -294h-115z" />
    <glyph glyph-name="uni2034" unicode="&#x2034;" horiz-adv-x="573" 
d="M310 710h115l-118 -294h-115zM476 710h115l-118 -294h-115zM147 710h115l-118 -294h-115z" />
    <glyph glyph-name="guilsinglleft" unicode="&#x2039;" horiz-adv-x="313" 
d="M239 520l61 -63l-163 -150l91 -134l-74 -53l-131 200z" />
    <glyph glyph-name="guilsinglright" unicode="&#x203a;" horiz-adv-x="312" 
d="M80 120l-61 63l162 150l-90 134l74 53l131 -200z" />
    <glyph glyph-name="fraction" unicode="&#x2044;" horiz-adv-x="157" 
d="M308 710h93l-512 -710h-93z" />
    <glyph glyph-name="Euro" unicode="&#x20ac;" horiz-adv-x="501" 
d="M330 260h-120l-14 -68q-11 -45 3 -69.5t43 -24.5q56 0 71 74l11 50h125l-11 -49q-18 -88 -73 -138t-135 -50q-84 0 -129.5 60.5t-27.5 147.5l14 67h-50l17 80h50l11 50h-50l17 80h50l15 68q14 81 71 134.5t135 53.5q84 0 129.5 -60.5t27.5 -147.5l-5 -20h-122l5 22
q9 45 -4.5 68.5t-42.5 23.5q-25 0 -45 -20t-26 -52l-15 -70h120l-17 -80h-120l-11 -50h120z" />
    <glyph glyph-name="uni20BA" unicode="&#x20ba;" horiz-adv-x="501" 
d="M363 315l-131 -41l-34 -160h44q31 0 54 22.5t31 58.5l11 54h125l-11 -53q-18 -88 -73 -142t-145 -54h-185l49 232l-54 -17l18 82l54 17l12 56l-55 -17l18 83l54 17l55 257h125l-46 -215l131 41l-18 -83l-131 -41l-12 -56l132 41z" />
    <glyph glyph-name="uni20BC" unicode="&#x20bc;" 
d="M158 0l132 622q-58 -21 -70 -85l-114 -537h-104l114 537q14 76 67 129t124 59l23 105h82l-24 -113q63 -18 94 -69t17 -111l-114 -537h-106l114 537q14 57 -30 81l-131 -618h-74z" />
    <glyph glyph-name="uni2117" unicode="&#x2117;" horiz-adv-x="700" 
d="M368 44q-129 0 -215.5 89.5t-86.5 221.5t86.5 221.5t215.5 89.5t215.5 -89.5t86.5 -221.5t-86.5 -221.5t-215.5 -89.5zM368 120q96 0 158 65t62 170t-62 170t-158 65t-158 -65t-62 -170t62 -170t158 -65zM277 533h106q56 0 90 -30.5t34 -83.5t-34 -83.5t-90 -30.5h-22
v-124h-84v352zM385 453h-24v-68h24q36 0 36 34t-36 34z" />
    <glyph glyph-name="trademark" unicode="&#x2122;" horiz-adv-x="610" 
d="M450 493l-42 81l-37 -180h-72l67 316h45l63 -122l115 122h51l-67 -316h-72l38 180l-75 -81h-14zM330 710l-14 -67h-66l-53 -249h-72l53 249h-68l14 67h206z" />
    <glyph glyph-name="onethird" unicode="&#x2153;" horiz-adv-x="624" 
d="M521 710h93l-512 -710h-93zM594 279l-80 -73q32 -11 46.5 -36.5t8.5 -53.5l-6 -24q-9 -44 -38 -72.5t-72 -28.5q-51 0 -79 30.5t-19 70.5l3 13h70l-3 -13q-3 -14 5 -23.5t24 -9.5q13 0 24 9t14 24l5 24q3 15 -6 25t-26 10h-49l12 53l73 69h-104l14 66h196zM239 439
l-14 -67h-173l14 67h51l43 204h-56l15 67h127l-58 -271h51z" />
    <glyph glyph-name="twothirds" unicode="&#x2154;" horiz-adv-x="662" 
d="M559 710h93l-512 -710h-93zM632 279l-80 -73q32 -11 46.5 -36.5t8.5 -53.5l-6 -24q-9 -44 -38 -72.5t-72 -28.5q-51 0 -79 30.5t-19 70.5l3 13h70l-3 -13q-3 -14 5 -23.5t24 -9.5q13 0 24 9t14 24l5 24q3 15 -6 25t-26 10h-49l12 53l73 69h-104l14 66h196zM266 439
l-14 -67h-201l13 60l148 153q10 9 17 32q4 14 -3.5 23.5t-21.5 9.5q-12 0 -22 -9t-13 -24l-3 -14h-72l3 14q9 44 38.5 72t72.5 28q49 0 75.5 -32t15.5 -77q-8 -35 -30 -58l-109 -111h106z" />
    <glyph glyph-name="arrowleft" unicode="&#x2190;" horiz-adv-x="600" 
d="M268 163l-218 157l218 157v-106h289v-102h-289v-106z" />
    <glyph glyph-name="arrowup" unicode="&#x2191;" horiz-adv-x="600" 
d="M161 364l157 218l157 -218h-106v-289h-101v289h-107z" />
    <glyph glyph-name="arrowright" unicode="&#x2192;" horiz-adv-x="601" 
d="M355 477l218 -157l-218 -157v106h-289v102h289v106z" />
    <glyph glyph-name="arrowdown" unicode="&#x2193;" horiz-adv-x="600" 
d="M460 276l-157 -218l-157 218h106v289h101v-289h107z" />
    <glyph glyph-name="uni2196" unicode="&#x2196;" horiz-adv-x="600" 
d="M162 240l-43 265l265 -43l-75 -75l204 -204l-72 -72l-204 204z" />
    <glyph glyph-name="uni2197" unicode="&#x2197;" horiz-adv-x="600" 
d="M240 462l265 43l-43 -265l-75 75l-204 -204l-72 72l204 204z" />
    <glyph glyph-name="uni2198" unicode="&#x2198;" horiz-adv-x="600" 
d="M455 382l43 -265l-265 43l75 75l-204 204l72 72l204 -204z" />
    <glyph glyph-name="uni2199" unicode="&#x2199;" horiz-adv-x="600" 
d="M383 160l-265 -43l43 265l75 -76l205 205l72 -71l-205 -206z" />
    <glyph glyph-name="partialdiff" unicode="&#x2202;" horiz-adv-x="479" 
d="M273 729l146 -218q52 -76 31 -172l-34 -156q-16 -87 -73 -141.5t-142 -54.5q-100 0 -146 62t-25 154l33 152q15 83 70 137t139 56l-121 181h122zM302 185l33 152q11 52 -5.5 82t-57.5 30q-36 0 -60.5 -25.5t-33.5 -66.5l-33 -152q-11 -52 6 -82t57 -30q36 0 60.5 25.5
t33.5 66.5z" />
    <glyph glyph-name="emptyset" unicode="&#x2205;" horiz-adv-x="537" 
d="M91 90l-60 67l50 45q-30 56 -23 118q8 90 79 154t163 64q67 0 117 -35l52 47l61 -67l-51 -46q30 -51 24 -117q-10 -91 -80 -154.5t-162 -63.5q-68 0 -118 35zM267 189q54 0 95.5 38.5t47.5 92.5q2 30 -5 51l-190 -170q23 -12 52 -12zM152 320q-3 -30 4 -51l190 170
q-24 12 -52 12q-54 0 -95 -38.5t-47 -92.5z" />
    <glyph glyph-name="product" unicode="&#x220f;" horiz-adv-x="588" 
d="M166 710h443l-187 -881h-125l162 766h-193l-162 -766h-125z" />
    <glyph glyph-name="summation" unicode="&#x2211;" horiz-adv-x="479" 
d="M519 710l-24 -115h-247l132 -319l-263 -332h264l-24 -115h-418l22 102l284 360l-135 317l22 102h387z" />
    <glyph glyph-name="minus" unicode="&#x2212;" 
d="M99 366h344l-19 -92h-345z" />
    <glyph glyph-name="radical" unicode="&#x221a;" horiz-adv-x="527" 
d="M619 729l-400 -729h-122l-64 385h124l28 -221l295 565h139z" />
    <glyph glyph-name="infinity" unicode="&#x221e;" horiz-adv-x="772" 
d="M738 320q0 -82 -47.5 -136.5t-120.5 -54.5q-50 0 -90 28t-84 84q-43 -56 -83 -84t-90 -28q-73 0 -120.5 54.5t-47.5 136.5t47.5 136.5t120.5 54.5q50 0 90 -28.5t83 -84.5q44 56 84 84.5t90 28.5q73 0 120.5 -54.5t47.5 -136.5zM150 320q0 -45 20 -71.5t53 -26.5
q22 0 47.5 20t68.5 78q-43 58 -68.5 78t-47.5 20q-33 0 -53 -26.5t-20 -71.5zM642 320q0 45 -20 71.5t-52 26.5q-22 0 -48 -20.5t-69 -77.5q43 -57 69 -77.5t48 -20.5q32 0 52 26.5t20 71.5z" />
    <glyph glyph-name="integral" unicode="&#x222b;" horiz-adv-x="324" 
d="M317 710h74l-22 -101h-33q-43 0 -52 -46l-129 -603q-12 -58 -50.5 -94.5t-94.5 -36.5h-78l21 101h39q43 0 52 46l128 603q12 59 49.5 95t95.5 36z" />
    <glyph glyph-name="approxequal" unicode="&#x2248;" 
d="M307 305h94l-6 -25q-12 -63 -46 -97.5t-80 -34.5q-31 0 -51 9.5t-43 31.5q-3 3 -10.5 9.5t-10 9t-8 6t-9.5 5t-8 1.5q-26 0 -40 -65l-94 -1l5 26q13 63 47 97.5t80 34.5q50 0 95 -42q4 -4 12.5 -11t12 -10t9.5 -6t11 -3q26 0 40 65zM347 494h94l-6 -25q-12 -63 -46 -97.5
t-80 -34.5q-31 0 -51 9.5t-43 31.5q-3 3 -10.5 9.5t-10 9t-8 6t-9.5 5t-8 1.5q-26 0 -40 -65l-94 -1l5 26q13 63 47 97.5t80 34.5q50 0 95 -42q4 -4 12.5 -11t12 -10t9.5 -6t11 -3q26 0 40 65z" />
    <glyph glyph-name="notequal" unicode="&#x2260;" 
d="M97 359l20 93h166l63 109h104l-63 -109h74l-19 -93h-108l-44 -78h134l-19 -93h-168l-62 -109h-104l62 109h-73l20 93h106l44 78h-133z" />
    <glyph glyph-name="lessequal" unicode="&#x2264;" horiz-adv-x="501" 
d="M68 175h322l-19 -92h-323zM120 424l352 136l-24 -109l-210 -73l179 -73l-20 -100l-294 137z" />
    <glyph glyph-name="greaterequal" unicode="&#x2265;" horiz-adv-x="501" 
d="M431 342l-352 -137l24 110l210 73l-179 73l20 99l294 -136zM73 175h322l-19 -92h-323z" />
    <glyph glyph-name="lozenge" unicode="&#x25ca;" horiz-adv-x="630" 
d="M207 0l-165 355l318 355h101l166 -355l-316 -355h-104zM183 349l95 -218l208 229l-95 219z" />
    <glyph glyph-name="fi" unicode="&#xfb01;" horiz-adv-x="543" 
d="M356 542l-22 -101h-92l-93 -441h-115l94 441h-72l22 101h71l15 68q12 55 51 89.5t102 34.5h80l-22 -101h-49q-42 0 -53 -46l-10 -45h93zM557 542l-115 -542h-115l115 542h115zM599 732l-25 -118h-121l25 118h121z" />
    <glyph glyph-name="fl" unicode="&#xfb02;" horiz-adv-x="556" 
d="M356 542l-22 -101h-92l-93 -441h-115l94 441h-72l22 101h71l15 68q12 55 51 89.5t102 34.5h80l-22 -101h-49q-42 0 -53 -46l-10 -45h93zM494 729h115l-155 -729h-115z" />
    <glyph glyph-name="uniFEFF" unicode="&#xfeff;" horiz-adv-x="0" 
 />
    <glyph glyph-name="_126" horiz-adv-x="593" 
d="M512 0h-128l-9 150h-204l-72 -150h-136l365 710h123zM354 531l-128 -266h143zM644 710l-25 -118h-121l25 118h121zM257 710l-25 -118h-121l25 118h121z" />
    <glyph glyph-name="_127" horiz-adv-x="583" 
d="M364 726q119 0 176 -78t32 -195l-48 -224q-21 -106 -92.5 -175.5t-174.5 -69.5q-121 0 -178 78t-30 197l48 224q20 104 92 173.5t175 69.5zM356 611q-50 0 -85.5 -36t-48.5 -92l-48 -225q-16 -72 8 -115.5t83 -43.5q52 0 88 36.5t46 92.5l48 225q15 72 -9 115t-82 43z
M412 547l-25 -118h-121l25 118h121zM378 387l-25 -118h-121l25 118h121z" />
    <glyph glyph-name="_128" horiz-adv-x="590" 
d="M495 710h125l-103 -483q-21 -107 -90 -175t-171 -68q-113 0 -167 74.5t-30 188.5l99 463h125l-99 -464q-17 -69 5 -108t76 -39q47 0 81 35.5t46 91.5zM449 710l-25 -118h-121l25 118h121zM415 550l-25 -118h-121l25 118h121z" />
    <glyph glyph-name="_129" horiz-adv-x="568" 
d="M163 710h214q48 0 84.5 -11.5t57.5 -31.5t34.5 -45.5t14 -53t-3.5 -54.5q-19 -97 -105 -141q79 -56 58 -167q-18 -89 -81 -147.5t-164 -58.5h-260zM317 309h-115l-41 -195h111q94 0 118 96q10 43 -10.5 71t-62.5 28zM367 596h-104l-37 -174h103q43 0 71 22.5t36 61.5
q10 43 -7.5 66.5t-61.5 23.5z" />
    <glyph glyph-name="_130" horiz-adv-x="566" 
d="M258 99q47 0 83.5 36.5t46.5 88.5l10 52h-110l25 115h235l-35 -167q-20 -104 -90.5 -172t-172.5 -68q-113 0 -169 78.5t-32 193.5l49 227q21 106 90.5 174.5t171.5 68.5q113 0 169.5 -73t35.5 -168l-1 -3h-125l1 4q11 50 -12 87.5t-76 37.5q-49 0 -84 -36.5t-45 -91.5
l-49 -226q-16 -73 7 -115.5t77 -42.5z" />
    <glyph glyph-name="_131" horiz-adv-x="566" 
d="M258 99q47 0 83.5 36.5t46.5 88.5l10 52h-110l25 115h235l-35 -167q-20 -104 -90.5 -172t-172.5 -68q-113 0 -169 78.5t-32 193.5l49 227q21 106 90.5 174.5t171.5 68.5q113 0 169.5 -73t35.5 -168l-1 -3h-125l1 4q11 50 -12 87.5t-76 37.5q-49 0 -84 -36.5t-45 -91.5
l-49 -226q-16 -73 7 -115.5t77 -42.5zM455 894h92q-12 -56 -51 -87.5t-103 -31.5q-72 0 -108 34.5t-26 84.5h92q-5 -21 6.5 -33.5t37.5 -12.5q51 0 60 46z" />
    <glyph glyph-name="_132" horiz-adv-x="566" 
d="M258 99q47 0 83.5 36.5t46.5 88.5l10 52h-110l25 115h235l-35 -167q-20 -104 -90.5 -172t-172.5 -68q-113 0 -169 78.5t-32 193.5l49 227q21 106 90.5 174.5t171.5 68.5q113 0 169.5 -73t35.5 -168l-1 -3h-125l1 4q11 50 -12 87.5t-76 37.5q-49 0 -84 -36.5t-45 -91.5
l-49 -226q-16 -73 7 -115.5t77 -42.5zM145 -216l59 77h-51l20 94h126l-17 -81h-2l-64 -90h-71z" />
    <glyph glyph-name="_133" horiz-adv-x="566" 
d="M258 99q47 0 83.5 36.5t46.5 88.5l10 52h-110l25 115h235l-35 -167q-20 -104 -90.5 -172t-172.5 -68q-113 0 -169 78.5t-32 193.5l49 227q21 106 90.5 174.5t171.5 68.5q113 0 169.5 -73t35.5 -168l-1 -3h-125l1 4q11 50 -12 87.5t-76 37.5q-49 0 -84 -36.5t-45 -91.5
l-49 -226q-16 -73 7 -115.5t77 -42.5zM464 900l-25 -118h-121l25 118h121z" />
    <glyph glyph-name="_134" horiz-adv-x="537" 
d="M163 710h180q116 0 163.5 -65.5t31.5 -150.5q-13 -65 -53 -116.5t-106 -74.5l97 -303h-135l-83 290h-60l-61 -290h-125zM338 596h-74l-41 -192h77q44 0 74 25.5t39 68.5q10 46 -9 72t-66 26z" />
    <glyph glyph-name="_135" horiz-adv-x="537" 
d="M163 710h180q116 0 163.5 -65.5t31.5 -150.5q-13 -65 -53 -116.5t-106 -74.5l97 -303h-135l-83 290h-60l-61 -290h-125zM338 596h-74l-41 -192h77q44 0 74 25.5t39 68.5q10 46 -9 72t-66 26zM538 897l-114 -117h-121l95 117h140z" />
    <glyph glyph-name="_136" horiz-adv-x="537" 
d="M163 710h180q116 0 163.5 -65.5t31.5 -150.5q-13 -65 -53 -116.5t-106 -74.5l97 -303h-135l-83 290h-60l-61 -290h-125zM338 596h-74l-41 -192h77q44 0 74 25.5t39 68.5q10 46 -9 72t-66 26zM544 893l-119 -113h-117l-76 113h119l22 -49l43 49h128z" />
    <glyph glyph-name="_137" horiz-adv-x="537" 
d="M163 710h180q116 0 163.5 -65.5t31.5 -150.5q-13 -65 -53 -116.5t-106 -74.5l97 -303h-135l-83 290h-60l-61 -290h-125zM338 596h-74l-41 -192h77q44 0 74 25.5t39 68.5q10 46 -9 72t-66 26zM132 -216l59 77h-51l20 94h126l-17 -81h-2l-64 -90h-71z" />
    <glyph glyph-name="_284" horiz-adv-x="479" 
d="M532 710l-21 -100l-110 -203h62l-23 -109h-98l-160 -298h-137l164 301h-83l23 109h119l102 187h-149l-19 -87h-123l43 200h410z" />
    <glyph glyph-name="_285" 
d="M543 710l-21 -100l-110 -203h62l-23 -109h-98l-160 -298h-137l164 301h-83l23 109h119l102 187h-149l-19 -87h-123l43 200h410z" />
    <glyph glyph-name="_286" horiz-adv-x="270" 
d="M102 115q-14 0 -26 -10t-15 -26l-31 -147q-4 -15 5 -25.5t25 -10.5q14 0 25.5 10.5t14.5 25.5l31 147q4 16 -4.5 26t-24.5 10zM106 182q50 0 78 -31.5t19 -71.5l-31 -147q-8 -45 -40 -74.5t-76 -29.5q-50 0 -78 31.5t-20 72.5l32 147q9 44 40.5 73.5t75.5 29.5z" />
    <glyph glyph-name="_287" horiz-adv-x="214" 
d="M129 -96l-14 -67h-173l14 67h51l43 204h-56l15 67h127l-58 -271h51z" />
    <glyph glyph-name="_288" horiz-adv-x="252" 
d="M158 -96l-14 -67h-201l13 60l148 153q10 10 17 32q4 14 -3.5 23.5t-21.5 9.5q-12 0 -22 -9t-13 -24l-3 -14h-72l3 14q9 44 38.5 72t72.5 28q49 0 75.5 -32t15.5 -77q-8 -35 -30 -58l-109 -111h106z" />
    <glyph glyph-name="_289" horiz-adv-x="254" 
d="M193 116l-80 -73q32 -11 46.5 -36.5t8.5 -53.5l-6 -24q-9 -44 -38 -72.5t-72 -28.5q-51 0 -79 30.5t-19 70.5l3 13h70l-3 -13q-3 -14 5 -23.5t24 -9.5q13 0 24 9t14 24l5 24q3 15 -6 25t-26 10h-49l12 53l73 69h-104l14 66h196z" />
    <glyph glyph-name="_290" horiz-adv-x="268" 
d="M185 -28l-14 -66h-41l-15 -69h-72l15 69h-124l13 61l150 207h84l-147 -202h45l11 52h65l-11 -52h41z" />
    <glyph glyph-name="_291" horiz-adv-x="257" 
d="M87 68q42 0 65 -30t17 -68l-9 -41q-9 -44 -38.5 -72.5t-72.5 -28.5q-52 0 -78.5 30.5t-18.5 71.5l1 4h71l-1 -4q-3 -15 4.5 -24.5t23.5 -9.5q30 0 37 33l8 37q4 16 -4 25.5t-23 9.5q-14 0 -25 -10t-14 -25v-1h-67l45 211h190l-14 -67h-118l-10 -47q14 6 31 6z" />
    <glyph glyph-name="_292" horiz-adv-x="258" 
d="M194 175l-104 -127q42 -4 65 -35t17 -74q-9 -49 -41.5 -79.5t-82.5 -30.5q-53 0 -82 33.5t-21 79.5q4 30 37 77l126 156h86zM65 -15q-18 0 -32 -12t-17 -32q-4 -20 5.5 -32.5t29.5 -12.5q19 0 32 12t17 33q4 20 -6 32t-29 12z" />
    <glyph glyph-name="_293" horiz-adv-x="241" 
d="M205 176l-13 -59l-151 -280h-80l150 272h-57l-8 -36h-72l22 103h209z" />
    <glyph glyph-name="_294" horiz-adv-x="278" 
d="M168 89q-4 -43 -43 -69q38 -30 32 -81q-5 -48 -40 -79t-86 -31t-82.5 32t-27.5 78q8 59 64 90q-24 24 -19 60q5 40 35 66.5t72 26.5q45 0 72 -27t23 -66zM-7 -58q-2 -20 9.5 -33t31.5 -13t34.5 13t16.5 33q2 21 -9.5 34.5t-31.5 13.5q-21 0 -35 -13.5t-16 -34.5zM35 85
q-2 -14 6 -22.5t23 -8.5q31 0 36 31q2 15 -6 23.5t-23 8.5q-31 0 -36 -32z" />
    <glyph glyph-name="_295" horiz-adv-x="258" 
d="M-42 -164l104 127q-42 4 -65 35t-17 74q9 49 41.5 79.5t82.5 30.5q53 0 82 -33.5t21 -79.5q-4 -30 -37 -77l-126 -156h-86zM87 26q18 0 32 12t17 32q4 20 -5.5 32.5t-29.5 12.5q-19 0 -32 -12t-17 -33q-4 -20 6 -32t29 -12z" />
    <glyph glyph-name="zero001" 
d="M316 612q-34 0 -61 -25t-36 -71l-65 -303q-12 -54 7.5 -84.5t58.5 -30.5q34 0 60.5 25t37.5 74l64 302q12 54 -7 83.5t-59 29.5zM325 726q98 0 151 -65.5t31 -161.5l-64 -302q-18 -94 -81.5 -153.5t-148.5 -59.5q-99 0 -151 65.5t-30 163.5l64 303q18 91 81.5 150.5
t147.5 59.5z" />
    <glyph glyph-name="_297" 
d="M422 113l-24 -113h-375l24 113h125l102 484h-134l24 113h259l-127 -597h126z" />
    <glyph glyph-name="two002" 
d="M423 113l-24 -113h-390l22 101l289 330q42 47 52 93q9 41 -7.5 64.5t-50.5 23.5q-31 0 -55 -21.5t-33 -67.5l-7 -31h-123l6 31q20 99 77 151t140 52q95 0 144 -63t31 -149q-16 -74 -80 -146l-222 -255h231z" />
    <glyph glyph-name="three003" 
d="M495 610l-170 -179q70 -18 102 -72.5t15 -133.5l-8 -37q-16 -88 -79 -146t-148 -58q-94 0 -145.5 59t-30.5 150l4 19h120l-4 -19q-11 -44 8.5 -69.5t56.5 -25.5q33 0 59 24.5t34 65.5l8 37q12 50 -8.5 79t-61.5 29h-89l19 89l167 176h-224l24 113h373z" />
    <glyph glyph-name="four004" 
d="M487 268l-24 -114h-86l-32 -154h-124l33 154h-261l21 101l313 454h144l-305 -441h114l29 134h121l-29 -134h86z" />
    <glyph glyph-name="five005" 
d="M305 478q82 0 126 -62.5t24 -157.5l-16 -71q-16 -88 -79 -145.5t-147 -57.5q-94 0 -145.5 58.5t-33.5 138.5l2 11h123l-2 -11q-8 -35 11 -59t56 -24q32 0 58 25t34 64l15 71q12 49 -7 77.5t-56 28.5q-31 0 -56.5 -24t-33.5 -59l-2 -9h-116l94 439h366l-24 -113h-244
l-30 -143q41 23 83 23z" />
    <glyph glyph-name="six006" 
d="M274 432h10q87 0 141 -65t46 -156q-10 -99 -77 -163t-162 -64q-100 0 -160.5 66.5t-50.5 160.5q9 85 65 158l254 341h146zM258 324q-44 0 -76.5 -30.5t-37.5 -82.5q-5 -53 19.5 -83.5t70.5 -30.5t76.5 30.5t35.5 83.5q5 52 -19.5 82.5t-68.5 30.5z" />
    <glyph glyph-name="seven007" 
d="M551 710l-21 -100l-329 -610h-137l325 597h-149l-19 -87h-123l43 200h410z" />
    <glyph glyph-name="_304" 
d="M513 519q-11 -101 -104 -168q64 -62 54 -151q-10 -94 -76 -155t-161 -61q-98 0 -160 63.5t-52 152.5q11 111 115 176q-57 52 -46 143q8 88 72 147.5t154 59.5q96 0 154 -61.5t50 -145.5zM250 309q-43 0 -74 -29.5t-36 -75.5q-5 -48 19 -77t69 -29t75.5 29t35.5 77
q5 47 -20.5 76t-68.5 29zM287 418q39 0 67 26.5t33 71.5q5 42 -18 69.5t-62 27.5t-67.5 -27t-33.5 -70q-5 -45 17 -71.5t64 -26.5z" />
    <glyph glyph-name="six008" 
d="M267 278h-10q-87 0 -141 65t-46 156q10 99 77 163t162 64q100 0 160.5 -66.5t50.5 -160.5q-9 -85 -65 -158l-254 -341h-146zM283 386q44 0 76.5 30.5t37.5 82.5q5 53 -19.5 83.5t-70.5 30.5q-45 0 -76 -30.5t-36 -83.5q-5 -52 19.5 -82.5t68.5 -30.5z" />
    <glyph glyph-name="_306" horiz-adv-x="525" 
d="M337 726q98 0 151 -65.5t31 -161.5l-64 -302q-18 -94 -81.5 -153.5t-148.5 -59.5q-99 0 -151 65.5t-30 163.5l64 303q18 91 81.5 150.5t147.5 59.5zM232 98q34 0 60.5 25t37.5 74l34 162l-191 -113l-7 -33q-12 -54 7.5 -84.5t58.5 -30.5zM328 612q-34 0 -61 -25t-36 -71
l-31 -142l191 113l3 12q12 54 -7 83.5t-59 29.5z" />
    <glyph glyph-name="_307" 
d="M336 726q98 0 151 -65.5t31 -161.5l-64 -302q-18 -94 -81.5 -153.5t-148.5 -59.5q-99 0 -151 65.5t-30 163.5l64 303q18 91 81.5 150.5t147.5 59.5zM231 98q34 0 60.5 25t37.5 74l34 162l-191 -113l-7 -33q-12 -54 7.5 -84.5t58.5 -30.5zM327 612q-34 0 -61 -25t-36 -71
l-31 -142l191 113l3 12q12 54 -7 83.5t-59 29.5z" />
    <glyph glyph-name="_314" horiz-adv-x="270" 
d="M135 278q-14 0 -26 -10t-15 -26l-31 -147q-4 -15 5 -25.5t25 -10.5q14 0 25.5 10.5t14.5 25.5l31 147q4 16 -4.5 26t-24.5 10zM139 345q50 0 78 -31.5t19 -71.5l-31 -147q-8 -45 -40 -74.5t-76 -29.5q-50 0 -78 31.5t-20 72.5l32 147q9 44 40.5 73.5t75.5 29.5z" />
    <glyph glyph-name="_315" horiz-adv-x="213" 
d="M159 67l-14 -67h-173l14 67h51l43 204h-56l15 67h127l-58 -271h51z" />
    <glyph glyph-name="_316" horiz-adv-x="251" 
d="M186 67l-14 -67h-201l13 60l148 153q10 9 17 32q4 14 -3.5 23.5t-21.5 9.5q-12 0 -22 -9t-13 -24l-3 -14h-72l3 14q9 44 38.5 72t72.5 28q49 0 75.5 -32t15.5 -77q-8 -35 -30 -58l-109 -111h106z" />
    <glyph glyph-name="_317" horiz-adv-x="254" 
d="M224 279l-80 -73q32 -11 46.5 -36.5t8.5 -53.5l-6 -24q-9 -44 -38 -72.5t-72 -28.5q-51 0 -79 30.5t-19 70.5l3 13h70l-3 -13q-3 -14 5 -23.5t24 -9.5q13 0 24 9t14 24l5 24q3 15 -6 25t-26 10h-49l12 53l73 69h-104l14 66h196z" />
    <glyph glyph-name="_318" horiz-adv-x="268" 
d="M225 135l-14 -66h-41l-15 -69h-72l15 69h-124l13 61l150 207h84l-147 -202h45l11 52h65l-11 -52h41z" />
    <glyph glyph-name="_319" horiz-adv-x="258" 
d="M124 231q42 0 65 -30t17 -68l-9 -41q-9 -44 -38.5 -72.5t-72.5 -28.5q-52 0 -78.5 30.5t-18.5 71.5l1 4h71l-1 -4q-3 -15 4.5 -24.5t23.5 -9.5q30 0 37 33l8 37q4 16 -4 25.5t-23 9.5q-14 0 -25 -10t-14 -25v-1h-67l45 211h190l-14 -67h-118l-10 -47q13 6 31 6z" />
    <glyph glyph-name="_320" horiz-adv-x="258" 
d="M229 338l-104 -127q42 -4 65 -35t17 -74q-9 -49 -41.5 -79.5t-82.5 -30.5q-53 0 -82 33.5t-21 79.5q4 30 37 77l126 156h86zM100 148q-18 0 -32 -12t-17 -32q-4 -20 5.5 -32.5t29.5 -12.5q19 0 32 12t17 33q4 20 -6 32t-29 12z" />
    <glyph glyph-name="_321" horiz-adv-x="241" 
d="M241 339l-13 -59l-151 -280h-80l150 272h-57l-8 -36h-72l22 103h209z" />
    <glyph glyph-name="_322" horiz-adv-x="278" 
d="M234 252q-4 -43 -43 -69q38 -30 32 -81q-5 -48 -40 -79t-86 -31t-82.5 32t-27.5 78q8 59 64 90q-24 24 -19 60q5 40 35 66.5t72 26.5q45 0 72 -27t23 -66zM59 105q-2 -20 9.5 -33t31.5 -13t34.5 13t16.5 33q2 21 -9.5 34.5t-31.5 13.5q-21 0 -35 -13.5t-16 -34.5z
M101 248q-2 -14 6 -22.5t23 -8.5q31 0 36 31q2 15 -6 23.5t-23 8.5q-31 0 -36 -32z" />
    <glyph glyph-name="_323" horiz-adv-x="257" 
d="M73 0h-86l103 126q-42 4 -65 36t-16 74q9 49 41.5 79.5t82.5 30.5q53 0 82 -34t21 -79q-4 -30 -37 -77zM116 190q18 0 32 12t17 32q4 20 -5.5 32.5t-29.5 12.5q-19 0 -32 -12t-17 -33q-4 -20 6 -32t29 -12z" />
    <glyph glyph-name="_324" horiz-adv-x="269" 
d="M215 650q-14 0 -26 -10t-15 -26l-31 -147q-4 -15 5 -25.5t25 -10.5q14 0 25.5 10.5t14.5 25.5l31 147q4 16 -4.5 26t-24.5 10zM219 717q50 0 78 -31.5t19 -71.5l-31 -147q-8 -45 -40 -74.5t-76 -29.5q-50 0 -78 31.5t-20 72.5l32 147q9 44 40.5 73.5t75.5 29.5z" />
    <glyph glyph-name="_325" horiz-adv-x="213" 
d="M239 439l-14 -67h-173l14 67h51l43 204h-56l15 67h127l-58 -271h51z" />
    <glyph glyph-name="_326" horiz-adv-x="251" 
d="M266 439l-14 -67h-201l13 60l148 153q10 9 17 32q4 14 -3.5 23.5t-21.5 9.5q-12 0 -22 -9t-13 -24l-3 -14h-72l3 14q9 44 38.5 72t72.5 28q49 0 75.5 -32t15.5 -77q-8 -35 -30 -58l-109 -111h106z" />
    <glyph glyph-name="_327" horiz-adv-x="253" 
d="M303 651l-80 -73q32 -11 46.5 -36.5t8.5 -53.5l-6 -24q-9 -44 -38 -72.5t-72 -28.5q-51 0 -79 30.5t-19 70.5l3 13h70l-3 -13q-3 -14 5 -23.5t24 -9.5q13 0 24 9t14 24l5 24q3 15 -6 25t-26 10h-49l12 53l73 69h-104l14 66h196z" />
    <glyph glyph-name="_328" horiz-adv-x="268" 
d="M305 507l-14 -66h-41l-15 -69h-72l15 69h-124l13 61l150 207h84l-147 -202h45l11 52h65l-11 -52h41z" />
    <glyph glyph-name="_329" horiz-adv-x="257" 
d="M204 603q42 0 65 -30t17 -68l-9 -41q-9 -44 -38.5 -72.5t-72.5 -28.5q-52 0 -78.5 30.5t-18.5 71.5l1 4h71l-1 -4q-3 -15 4.5 -24.5t23.5 -9.5q30 0 37 33l8 37q4 16 -4 25.5t-23 9.5q-14 0 -25 -10t-14 -25v-1h-67l45 211h190l-14 -67h-118l-10 -47q14 6 31 6z" />
    <glyph glyph-name="_330" horiz-adv-x="258" 
d="M309 710l-104 -127q42 -4 65 -35t17 -74q-9 -49 -41.5 -79.5t-82.5 -30.5q-53 0 -82 33.5t-21 79.5q4 30 37 77l126 156h86zM180 520q-18 0 -32 -12t-17 -32q-4 -20 5.5 -32.5t29.5 -12.5q19 0 32 12t17 33q4 20 -6 32t-29 12z" />
    <glyph glyph-name="_331" horiz-adv-x="241" 
d="M321 711l-13 -59l-151 -280h-80l150 272h-57l-8 -36h-72l22 103h209z" />
    <glyph glyph-name="_332" horiz-adv-x="278" 
d="M314 624q-4 -43 -43 -69q38 -30 32 -81q-5 -48 -40 -79t-86 -31t-82.5 32t-27.5 78q8 59 64 90q-24 24 -19 60q5 40 35 66.5t72 26.5q45 0 72 -27t23 -66zM139 477q-2 -20 9.5 -33t31.5 -13t34.5 13t16.5 33q2 21 -9.5 34.5t-31.5 13.5q-21 0 -35 -13.5t-16 -34.5z
M181 620q-2 -14 6 -22.5t23 -8.5q31 0 36 31q2 15 -6 23.5t-23 8.5q-31 0 -36 -32z" />
    <glyph glyph-name="_333" horiz-adv-x="257" 
d="M66 372l104 127q-42 4 -65 35t-17 74q9 49 41.5 79.5t82.5 30.5q53 0 82 -33.5t21 -79.5q-4 -30 -37 -77l-126 -156h-86zM195 562q18 0 32 12t17 32q4 20 -5.5 32.5t-29.5 12.5q-19 0 -32 -12t-17 -33q-4 -20 6 -32t29 -12z" />
    <glyph glyph-name="_334" horiz-adv-x="269" 
d="M215 650q-14 0 -26 -10t-15 -26l-31 -147q-4 -15 5 -25.5t25 -10.5q14 0 25.5 10.5t14.5 25.5l31 147q4 16 -4.5 26t-24.5 10zM219 717q50 0 78 -31.5t19 -71.5l-31 -147q-8 -45 -40 -74.5t-76 -29.5q-50 0 -78 31.5t-20 72.5l32 147q9 44 40.5 73.5t75.5 29.5z" />
    <glyph glyph-name="_335" horiz-adv-x="213" 
d="M239 439l-14 -67h-173l14 67h51l43 204h-56l15 67h127l-58 -271h51z" />
    <glyph glyph-name="_336" horiz-adv-x="251" 
d="M266 439l-14 -67h-201l13 60l148 153q10 9 17 32q4 14 -3.5 23.5t-21.5 9.5q-12 0 -22 -9t-13 -24l-3 -14h-72l3 14q9 44 38.5 72t72.5 28q49 0 75.5 -32t15.5 -77q-8 -35 -30 -58l-109 -111h106z" />
    <glyph glyph-name="_337" horiz-adv-x="253" 
d="M303 651l-80 -73q32 -11 46.5 -36.5t8.5 -53.5l-6 -24q-9 -44 -38 -72.5t-72 -28.5q-51 0 -79 30.5t-19 70.5l3 13h70l-3 -13q-3 -14 5 -23.5t24 -9.5q13 0 24 9t14 24l5 24q3 15 -6 25t-26 10h-49l12 53l73 69h-104l14 66h196z" />
    <glyph glyph-name="_338" horiz-adv-x="268" 
d="M305 507l-14 -66h-41l-15 -69h-72l15 69h-124l13 61l150 207h84l-147 -202h45l11 52h65l-11 -52h41z" />
    <glyph glyph-name="_339" horiz-adv-x="257" 
d="M204 603q42 0 65 -30t17 -68l-9 -41q-9 -44 -38.5 -72.5t-72.5 -28.5q-52 0 -78.5 30.5t-18.5 71.5l1 4h71l-1 -4q-3 -15 4.5 -24.5t23.5 -9.5q30 0 37 33l8 37q4 16 -4 25.5t-23 9.5q-14 0 -25 -10t-14 -25v-1h-67l45 211h190l-14 -67h-118l-10 -47q14 6 31 6z" />
    <glyph glyph-name="_340" horiz-adv-x="258" 
d="M309 710l-104 -127q42 -4 65 -35t17 -74q-9 -49 -41.5 -79.5t-82.5 -30.5q-53 0 -82 33.5t-21 79.5q4 30 37 77l126 156h86zM180 520q-18 0 -32 -12t-17 -32q-4 -20 5.5 -32.5t29.5 -12.5q19 0 32 12t17 33q4 20 -6 32t-29 12z" />
    <glyph glyph-name="_341" horiz-adv-x="241" 
d="M321 711l-13 -59l-151 -280h-80l150 272h-57l-8 -36h-72l22 103h209z" />
    <glyph glyph-name="_342" horiz-adv-x="278" 
d="M314 624q-4 -43 -43 -69q38 -30 32 -81q-5 -48 -40 -79t-86 -31t-82.5 32t-27.5 78q8 59 64 90q-24 24 -19 60q5 40 35 66.5t72 26.5q45 0 72 -27t23 -66zM139 477q-2 -20 9.5 -33t31.5 -13t34.5 13t16.5 33q2 21 -9.5 34.5t-31.5 13.5q-21 0 -35 -13.5t-16 -34.5z
M181 620q-2 -14 6 -22.5t23 -8.5q31 0 36 31q2 15 -6 23.5t-23 8.5q-31 0 -36 -32z" />
    <glyph glyph-name="_343" horiz-adv-x="257" 
d="M66 372l104 127q-42 4 -65 35t-17 74q9 49 41.5 79.5t82.5 30.5q53 0 82 -33.5t21 -79.5q-4 -30 -37 -77l-126 -156h-86zM195 562q18 0 32 12t17 32q4 20 -5.5 32.5t-29.5 12.5q-19 0 -32 -12t-17 -33q-4 -20 6 -32t29 -12z" />
    <glyph glyph-name="period009" horiz-adv-x="255" 
d="M242 424l-30 -139h-138l29 139h139z" />
    <glyph glyph-name="bullet010" horiz-adv-x="356" 
d="M321 455l-42 -198h-198l42 198h198z" />
    <glyph glyph-name="exclam011" horiz-adv-x="262" 
d="M155 0h-155l130 461h90zM126 571l30 139h138l-29 -139h-139z" />
    <glyph glyph-name="question012" horiz-adv-x="441" 
d="M296 301h-53q-40 0 -66 -23.5t-35 -61.5l-6 -29q-11 -45 5 -71t55 -26q32 0 55 22t29 55l2 11h115l-3 -13q-15 -79 -70 -130t-137 -51q-95 0 -140 58t-26 143l7 33q15 73 60.5 123.5t114.5 62.5l13 63h115zM221 571l30 139h138l-29 -139h-139z" />
    <glyph glyph-name="braceleft013" horiz-adv-x="300" 
d="M187 -75h-22q-65 0 -96.5 40.5t-19.5 100.5l42 196q7 42 -27 42h-21l7 32h-1l15 70h21q35 0 45 42l43 202q29 135 141 135h50l-21 -101h-17q-32 0 -41 -42l-41 -197q-12 -66 -73 -96q44 -33 32 -93l-39 -188q-10 -42 28 -42h17z" />
    <glyph glyph-name="braceleft014" horiz-adv-x="300" 
d="M153 785h22q65 0 96.5 -40.5t19.5 -100.5l-42 -196q-7 -42 27 -42h21l-7 -32h1l-15 -70h-21q-35 0 -45 -42l-43 -202q-29 -135 -141 -135h-50l21 101h17q32 0 41 42l41 197q12 66 73 96q-44 33 -32 93l39 188q10 42 -28 42h-17z" />
    <glyph glyph-name="bracketleft015" horiz-adv-x="298" 
d="M135 26h75l-21 -101h-191l183 860h191l-22 -101h-76z" />
    <glyph glyph-name="bracketleft016" horiz-adv-x="298" 
d="M202 684h-75l21 101h191l-183 -860h-191l22 101h76z" />
    <glyph glyph-name="parenleft017" horiz-adv-x="286" 
d="M257 628l-116 -546q-12 -56 34 -56h23l-21 -101h-29q-69 0 -102.5 44.5t-19.5 110.5l118 555q31 150 157 150h53l-21 -101h-23q-43 0 -53 -56z" />
    <glyph glyph-name="parenleft018" horiz-adv-x="285" 
d="M68 82l116 546q12 56 -34 56h-23l21 101h29q69 0 102.5 -44.5t19.5 -110.5l-118 -555q-31 -150 -157 -150h-53l21 101h23q43 0 53 56z" />
    <glyph glyph-name="emdash019" horiz-adv-x="622" 
d="M92 406h505l-21 -102h-506z" />
    <glyph glyph-name="endash020" horiz-adv-x="509" 
d="M92 406h391l-21 -102h-392z" />
    <glyph glyph-name="hyphen021" horiz-adv-x="333" 
d="M94 408h214l-22 -106h-215z" />
    <glyph glyph-name="hyphen022" horiz-adv-x="332" 
d="M94 408h214l-22 -106h-215z" />
    <glyph glyph-name="hyphen023" horiz-adv-x="332" 
d="M94 408h214l-22 -106h-215z" />
    <glyph glyph-name="hyphen024" horiz-adv-x="332" 
d="M94 408h214l-22 -106h-215z" />
    <glyph glyph-name="guillemotleft025" horiz-adv-x="522" 
d="M476 555l61 -63l-164 -151l91 -133l-74 -53l-136 195zM252 555l60 -63l-148 -146l93 -138l-73 -53l-131 200z" />
    <glyph glyph-name="guillemotleft026" horiz-adv-x="521" 
d="M93 155l-61 63l164 151l-91 133l74 53l136 -195zM317 155l-60 63l148 146l-93 138l73 53l131 -200z" />
    <glyph glyph-name="guilsinglright027" horiz-adv-x="313" 
d="M251 555l61 -63l-162 -150l90 -134l-74 -53l-131 200z" />
    <glyph glyph-name="guilsinglright028" horiz-adv-x="312" 
d="M92 155l-61 63l162 150l-90 134l74 53l131 -200z" />
    <glyph glyph-name="_416" horiz-adv-x="0" 
 />
    <glyph glyph-name="minus029" 
d="M111 401h344l-19 -92h-345z" />
    <glyph glyph-name="_491" horiz-adv-x="600" 
d="M228 -149h-121l76 154h116z" />
    <glyph glyph-name="_492" horiz-adv-x="332" 
d="M361 710l-64 -206h-90l45 206h109z" />
    </font>
</defs>
</svg>
