<?xml version="1.0" standalone="no"?>
<!DOCTYPE svg PUBLIC "-//W3C//DTD SVG 1.1//EN" "http://www.w3.org/Graphics/SVG/1.1/DTD/svg11.dtd" >
<svg xmlns="http://www.w3.org/2000/svg" xmlns:xlink="http://www.w3.org/1999/xlink" version="1.1">
<metadata>
Created by FontForge 20170731 at Tue Mar 29 04:13:26 2016
 By ,,,
Copyright (c) 2016 by Hannes von Doehren. All rights reserved.
</metadata>
<defs>
<font id="Fabrikat-Bold" horiz-adv-x="500" >
  <font-face 
    font-family="Fabrikat"
    font-weight="700"
    font-stretch="normal"
    units-per-em="1000"
    panose-1="2 11 8 4 4 0 0 0 0 0"
    ascent="800"
    descent="-200"
    x-height="542"
    cap-height="710"
    bbox="-504 -216 971 969"
    underline-thickness="90"
    underline-position="-280"
    unicode-range="U+000D-FEFF"
  />
<missing-glyph horiz-adv-x="557" 
d="M467 770h26v-830h-26v830zM427 770h26v-830h-26v830zM387 770h26v-830h-26v830zM347 770h26v-830h-26v830zM307 770h26v-830h-26v830zM267 770h26v-830h-26v830zM227 770h26v-830h-26v830zM187 770h26v-830h-26v830zM147 770h26v-830h-26v830zM107 770h26v-830h-26v830z
M67 770h26v-830h-26v830z" />
    <glyph glyph-name=".notdef" horiz-adv-x="557" 
d="M467 770h26v-830h-26v830zM427 770h26v-830h-26v830zM387 770h26v-830h-26v830zM347 770h26v-830h-26v830zM307 770h26v-830h-26v830zM267 770h26v-830h-26v830zM227 770h26v-830h-26v830zM187 770h26v-830h-26v830zM147 770h26v-830h-26v830zM107 770h26v-830h-26v830z
M67 770h26v-830h-26v830z" />
    <glyph glyph-name=".null" horiz-adv-x="0" 
 />
    <glyph glyph-name="uni000D" unicode="&#xd;" horiz-adv-x="219" 
 />
    <glyph glyph-name="space" unicode=" " horiz-adv-x="219" 
 />
    <glyph glyph-name="exclam" unicode="!" horiz-adv-x="271" 
d="M59 710h151l-32 -461h-88zM206 139v-139h-137v139h137z" />
    <glyph glyph-name="quotedbl" unicode="&#x22;" horiz-adv-x="407" 
d="M251 710h110v-268h-110v268zM67 710h110v-268h-110v268z" />
    <glyph glyph-name="numbersign" unicode="#" horiz-adv-x="562" 
d="M484 199h-69l-28 -199h-99l28 199h-117l-28 -199h-99l28 199h-71l13 91h71l22 159h-70l13 92h70l24 169h99l-24 -169h117l24 169h99l-24 -169h70l-13 -92h-70l-22 -159h69zM234 449l-22 -159h117l22 159h-117z" />
    <glyph glyph-name="dollar" unicode="$" 
d="M333 488v31q0 58 -47 84v-183l28 -14q29 -15 48.5 -28.5t45.5 -39t40 -63.5t14 -85q0 -83 -49.5 -136t-122.5 -66v-108h-82v108q-73 13 -122.5 69.5t-49.5 144.5v28h121v-27q0 -74 55 -98v210q-27 14 -42.5 22.5t-42.5 28.5t-42 40.5t-27 53t-12 70.5q0 75 44.5 128
t117.5 65v107h82v-108q72 -14 117 -68t45 -129v-37h-119zM341 184q0 55 -55 92v-173q55 19 55 81zM167 538q0 -44 45 -76v143q-45 -18 -45 -67z" />
    <glyph glyph-name="percent" unicode="%" horiz-adv-x="671" 
d="M175 428q-63 0 -106 42.5t-43 104.5q0 63 43 105.5t106 42.5t106 -42.5t43 -105.5q0 -62 -43 -104.5t-106 -42.5zM175 515q26 0 42.5 17t16.5 43q0 27 -16.5 43.5t-42.5 16.5t-42 -16.5t-16 -43.5q0 -26 16 -43t42 -17zM496 -13q-63 0 -106 42.5t-43 104.5q0 63 43 105.5
t106 42.5t106 -42.5t43 -105.5q0 -62 -43 -104.5t-106 -42.5zM496 74q26 0 42.5 17t16.5 43q0 27 -16.5 43.5t-42.5 16.5t-42 -16.5t-16 -43.5q0 -26 16 -43t42 -17zM466 710h109l-371 -710h-108z" />
    <glyph glyph-name="ampersand" unicode="&#x26;" horiz-adv-x="631" 
d="M610 0h-150l-47 59q-81 -74 -186 -74q-84 0 -137 49t-53 129q0 65 33 112t95 97q-47 57 -66 93.5t-19 88.5q0 75 52.5 123.5t133.5 48.5q77 0 128.5 -47t53.5 -120q2 -93 -127 -199l15 -18l76 -95l58 119h124l-83 -166q-21 -39 -25 -46zM231 91q66 0 115 54l-99 128
q-1 1 -13 16q-47 -38 -66 -64.5t-19 -57.5q0 -34 23 -55t59 -21zM192 555q0 -25 12 -46t48 -66q45 37 64.5 62.5t19.5 49.5q0 27 -20.5 46t-50.5 19q-33 0 -53 -18t-20 -47z" />
    <glyph glyph-name="quotesingle" unicode="'" horiz-adv-x="224" 
d="M57 710h110v-268h-110v268z" />
    <glyph glyph-name="parenleft" unicode="(" horiz-adv-x="290" 
d="M177 618v-546q0 -56 48 -56h26v-101h-47q-60 0 -99.5 39.5t-39.5 101.5v578q0 61 39.5 101t99.5 40h47v-101h-26q-48 0 -48 -56z" />
    <glyph glyph-name="parenright" unicode=")" horiz-adv-x="290" 
d="M113 72v546q0 56 -48 56h-26v101h47q60 0 99.5 -40t39.5 -101v-578q0 -62 -39.5 -101.5t-99.5 -39.5h-47v101h26q48 0 48 56z" />
    <glyph glyph-name="asterisk" unicode="*" horiz-adv-x="419" 
d="M250 710l-4 -99l83 54l41 -72l-88 -45l88 -46l-41 -71l-83 53l4 -98h-82l4 98l-83 -53l-41 71l88 46l-88 45l41 72l83 -54l-4 99h82z" />
    <glyph glyph-name="plus" unicode="+" 
d="M296 503v-137h129v-92h-129v-137h-92v137h-130v92h130v137h92z" />
    <glyph glyph-name="comma" unicode="," horiz-adv-x="251" 
d="M196 139v-129l-47 -147h-71l45 137h-68v139h141z" />
    <glyph glyph-name="hyphen" unicode="-" horiz-adv-x="338" 
d="M59 373h219v-106h-219v106z" />
    <glyph glyph-name="period" unicode="." horiz-adv-x="246" 
d="M191 139v-139h-137v139h137z" />
    <glyph glyph-name="slash" unicode="/" horiz-adv-x="560" 
d="M419 775h123l-400 -860h-123z" />
    <glyph glyph-name="zero" unicode="0" horiz-adv-x="531" 
d="M265 612q-40 0 -64.5 -26.5t-24.5 -68.5v-322q0 -42 25 -69.5t64 -27.5q41 0 65.5 27t24.5 70v322q0 42 -24.5 68.5t-65.5 26.5zM266 726q90 0 150.5 -60.5t60.5 -148.5v-322q0 -89 -60.5 -149.5t-150.5 -60.5t-150.5 60.5t-60.5 149.5v322q0 88 60.5 148.5t150.5 60.5z
" />
    <glyph glyph-name="one" unicode="1" horiz-adv-x="404" 
d="M383 113v-113h-334v113h110v484h-121v113h243v-597h102z" />
    <glyph glyph-name="two" unicode="2" horiz-adv-x="486" 
d="M439 113v-113h-388v101l244 341q23 34 23 81q0 41 -22.5 65t-56.5 24q-36 0 -58.5 -23.5t-22.5 -65.5v-31h-120v31q0 86 58 144.5t143 58.5t142 -58.5t57 -144.5q0 -81 -40 -140l-195 -270h236z" />
    <glyph glyph-name="three" unicode="3" horiz-adv-x="498" 
d="M439 610l-151 -176q74 -12 118.5 -66.5t44.5 -129.5v-50q0 -87 -59.5 -145.5t-147.5 -58.5t-147.5 58.5t-59.5 145.5v24h120v-24q0 -40 24.5 -65t62.5 -25q36 0 60.5 25.5t24.5 64.5v50q0 42 -27 68.5t-69 26.5h-92v89l149 176h-236v113h385v-101z" />
    <glyph glyph-name="four" unicode="4" horiz-adv-x="515" 
d="M490 268v-114h-88v-154h-120v154h-259v101l221 454h136l-218 -441h120v134h120v-134h88z" />
    <glyph glyph-name="five" unicode="5" horiz-adv-x="505" 
d="M275 478q78 0 132.5 -58.5t54.5 -144.5v-88q0 -86 -58.5 -144.5t-146.5 -58.5t-146.5 56.5t-58.5 140.5v11h120v-11q0 -36 24 -59.5t61 -23.5q36 0 60 25t24 64v88q0 39 -24 64t-62 25q-35 0 -58.5 -24t-23.5 -59v-9h-113v439h378v-113h-258v-152q43 32 95 32z" />
    <glyph glyph-name="six" unicode="6" horiz-adv-x="505" 
d="M272 433q87 0 146.5 -63.5t59.5 -158.5q0 -98 -64 -162t-160 -64q-98 0 -162.5 64t-64.5 162q0 67 39 136l212 363h141l-166 -278q3 0 9 0.5t10 0.5zM252 324q-46 0 -75.5 -31t-29.5 -82t29 -82t76 -31q48 0 76 31t28 82t-29 82t-75 31z" />
    <glyph glyph-name="seven" unicode="7" horiz-adv-x="462" 
d="M443 710v-100l-224 -610h-131l220 597h-157v-87h-120v200h412z" />
    <glyph glyph-name="eight" unicode="8" horiz-adv-x="546" 
d="M472 534q0 -87 -63 -140q97 -63 97 -183q0 -98 -66 -162t-167 -64t-167.5 64t-66.5 162q0 120 98 183q-64 53 -64 140q0 83 57 137.5t143 54.5t142.5 -54.5t56.5 -137.5zM161 215q0 -52 31 -83.5t81 -31.5q51 0 81.5 31t30.5 84q0 54 -31 86t-81 32t-81 -32t-31 -86z
M194 529q0 -37 22 -59.5t57 -22.5t57 22.5t22 59.5t-22 59.5t-57 22.5t-57 -23t-22 -59z" />
    <glyph glyph-name="nine" unicode="9" horiz-adv-x="503" 
d="M233 277q-87 0 -146.5 63.5t-59.5 158.5q0 98 64 162t160 64q98 0 162.5 -64t64.5 -162q0 -67 -39 -136l-212 -363h-141l165 278q-7 -1 -18 -1zM253 386q46 0 75.5 31t29.5 82t-29 82t-76 31q-48 0 -76 -31t-28 -82t29 -82t75 -31z" />
    <glyph glyph-name="colon" unicode=":" horiz-adv-x="254" 
d="M194 542v-139h-137v139h137zM194 139v-139h-137v139h137z" />
    <glyph glyph-name="semicolon" unicode=";" horiz-adv-x="261" 
d="M199 139v-129l-47 -147h-71l45 137h-68v139h141zM197 542v-139h-137v139h137z" />
    <glyph glyph-name="less" unicode="&#x3c;" 
d="M73 279v82l328 156v-104l-208 -93l208 -93v-104z" />
    <glyph glyph-name="equal" unicode="=" 
d="M74 452h351v-93h-351v93zM74 281h351v-93h-351v93z" />
    <glyph glyph-name="greater" unicode="&#x3e;" 
d="M426 279l-328 -156v104l208 93l-208 93v104l328 -156v-82z" />
    <glyph glyph-name="question" unicode="?" horiz-adv-x="452" 
d="M157 409h58q40 2 62 25.5t22 59.5v41q0 37 -21.5 61t-58.5 24t-58.5 -22t-21.5 -55v-11h-112v13q0 78 52 129.5t140 51.5t140 -53.5t52 -135.5v-45q0 -70 -38 -119.5t-104 -64.5v-65h-112v166zM282 139v-139h-137v139h137z" />
    <glyph glyph-name="at" unicode="@" horiz-adv-x="821" 
d="M392 45q-73 0 -117.5 49t-44.5 126v129q0 75 44 124.5t113 49.5q59 0 95 -49v36h97l-2 -320q0 -53 46 -53q21 0 33 16t12 45v213q0 109 -67.5 174t-192.5 65t-192.5 -67.5t-67.5 -180.5v-231q0 -117 67.5 -187.5t192.5 -70.5v-97q-167 0 -264 100.5t-97 254.5v231
q0 148 97.5 245.5t263.5 97.5q167 0 264.5 -94.5t97.5 -239.5v-215q-1 -74 -41 -115q-41 -41 -103 -41q-80 0 -117 61q-37 -56 -117 -56zM474 222v124q0 35 -18.5 57t-52.5 22q-32 0 -50.5 -22t-18.5 -57v-123q0 -36 18.5 -58t50.5 -22q34 0 52.5 22t18.5 57z" />
    <glyph glyph-name="A" unicode="A" horiz-adv-x="567" 
d="M561 0h-128l-43 150h-215l-42 -150h-129l219 710h121zM282 533l-75 -268h151z" />
    <glyph glyph-name="B" unicode="B" horiz-adv-x="570" 
d="M69 710h210q106 0 158 -56.5t52 -135.5q0 -86 -60 -131q52 -25 79.5 -71.5t27.5 -102.5q0 -90 -56 -151.5t-159 -61.5h-252v710zM316 309h-125v-195h125q45 0 71 26t26 73q0 43 -26.5 69.5t-70.5 26.5zM274 596h-83v-174h82q45 0 69.5 23.5t24.5 63.5t-24.5 63.5
t-68.5 23.5z" />
    <glyph glyph-name="C" unicode="C" horiz-adv-x="563" 
d="M529 238v-11q0 -104 -65.5 -173.5t-174.5 -69.5q-108 0 -172.5 69.5t-64.5 173.5v256q0 104 64 173.5t172 69.5t172.5 -69t64.5 -172v-4h-122v5q0 53 -31 89t-84 36t-83.5 -36.5t-30.5 -91.5v-256q0 -56 30.5 -92t84.5 -36q55 0 86 36.5t31 91.5v11h123z" />
    <glyph glyph-name="D" unicode="D" horiz-adv-x="586" 
d="M69 710h220q113 0 178.5 -66t65.5 -170v-239q0 -103 -65.5 -169t-178.5 -66h-220v710zM190 595v-480h98q58 0 90.5 33t32.5 86v240q0 55 -32.5 88t-90.5 33h-98z" />
    <glyph glyph-name="E" unicode="E" horiz-adv-x="507" 
d="M463 595h-272v-173h211v-115h-211v-192h272v-115h-394v710h394v-115z" />
    <glyph glyph-name="F" unicode="F" horiz-adv-x="477" 
d="M455 595h-264v-173h195v-115h-195v-307h-122v710h386v-115z" />
    <glyph glyph-name="G" unicode="G" horiz-adv-x="584" 
d="M296 99q57 0 90 33t33 96v36h-129v113h241v-377h-100v52q-53 -68 -153 -68q-101 0 -163.5 67t-62.5 164v268q0 104 65.5 173.5t175.5 69.5q107 0 170.5 -67.5t63.5 -166.5v-10h-122v10q0 51 -30 85t-82 34q-55 0 -87 -36.5t-32 -91.5v-255q0 -59 31.5 -94t90.5 -35z" />
    <glyph glyph-name="H" unicode="H" horiz-adv-x="611" 
d="M419 710h122v-710h-122v307h-228v-307h-122v710h122v-288h228v288z" />
    <glyph glyph-name="I" unicode="I" horiz-adv-x="261" 
d="M69 710h122v-710h-122v710z" />
    <glyph glyph-name="J" unicode="J" horiz-adv-x="502" 
d="M314 710h123v-522q0 -88 -57 -146t-152 -58q-96 0 -152 58t-56 146v39h122v-40q0 -39 22.5 -63.5t63.5 -24.5t63.5 24.5t22.5 63.5v523z" />
    <glyph glyph-name="K" unicode="K" horiz-adv-x="556" 
d="M395 710h142l-208 -308l225 -402h-141l-165 310l-57 -83v-227h-122v710h122v-312z" />
    <glyph glyph-name="L" unicode="L" horiz-adv-x="459" 
d="M191 710v-595h253v-115h-375v710h122z" />
    <glyph glyph-name="M" unicode="M" horiz-adv-x="734" 
d="M353 227l-162 231v-458h-122v710h83l214 -315l215 315h83v-710h-122v458l-163 -231h-26z" />
    <glyph glyph-name="N" unicode="N" horiz-adv-x="625" 
d="M556 710v-710h-110l-255 466v-466h-122v710h114l251 -451v451h122z" />
    <glyph glyph-name="O" unicode="O" horiz-adv-x="594" 
d="M297 726q111 0 178 -69.5t67 -173.5v-255q0 -105 -66 -174.5t-179 -69.5q-111 0 -178 69.5t-67 174.5v255q0 104 67 173.5t178 69.5zM296 611q-57 0 -90 -36.5t-33 -91.5v-256q0 -56 32.5 -92t90.5 -36q59 0 91.5 36t32.5 92v256q0 55 -33 91.5t-91 36.5z" />
    <glyph glyph-name="P" unicode="P" horiz-adv-x="528" 
d="M69 710h202q108 0 170.5 -58.5t62.5 -160.5t-62.5 -160.5t-170.5 -58.5h-80v-272h-122v710zM271 595h-80v-208h80q53 0 81 27.5t28 76.5q0 104 -109 104z" />
    <glyph glyph-name="Q" unicode="Q" horiz-adv-x="616" 
d="M542 482v-222q0 -84 -52 -145h109v-115h-302q-111 0 -178 70.5t-67 173.5v239q0 104 67 173.5t178 69.5t178 -69.5t67 -174.5zM173 483v-239q0 -56 32.5 -92.5t90.5 -36.5q57 0 90 36.5t33 92.5v238q0 56 -33.5 92.5t-89.5 36.5q-57 0 -90 -36.5t-33 -91.5z" />
    <glyph glyph-name="R" unicode="R" horiz-adv-x="558" 
d="M69 710h209q106 0 160.5 -59.5t54.5 -141.5q0 -64 -36 -118.5t-105 -72.5l210 -318h-143l-193 308h-35v-308h-122v710zM278 596h-87v-174h87q44 0 68 23.5t24 63.5t-24 63.5t-68 23.5z" />
    <glyph glyph-name="S" unicode="S" horiz-adv-x="543" 
d="M371 488v15q0 50 -31 79t-73 29q-39 0 -66.5 -21.5t-27.5 -58.5q0 -36 25.5 -59t72.5 -40l64 -24q83 -33 127 -82.5t44 -129.5q0 -97 -70 -154.5t-164 -57.5q-97 0 -167 62t-70 169v15h122v-14q0 -53 32 -85t83 -32q49 0 80.5 24t31.5 68q0 39 -27.5 63t-75.5 43l-65 24
q-84 33 -124.5 81t-40.5 123q0 88 61 144.5t155 56.5q95 0 159 -62t64 -155v-21h-119z" />
    <glyph glyph-name="T" unicode="T" horiz-adv-x="497" 
d="M480 710v-115h-171v-595h-122v595h-171v115h464z" />
    <glyph glyph-name="U" unicode="U" horiz-adv-x="598" 
d="M412 710h122v-483q0 -105 -63.5 -174t-171.5 -69t-172 69t-64 174v483h122v-484q0 -56 30 -91.5t84 -35.5q53 0 83 35.5t30 91.5v484z" />
    <glyph glyph-name="V" unicode="V" horiz-adv-x="566" 
d="M561 710l-219 -710h-120l-218 710h128l150 -519l149 519h130z" />
    <glyph glyph-name="W" unicode="W" horiz-adv-x="859" 
d="M846 710l-160 -710h-131l-126 476l-125 -476h-131l-163 710h129l106 -492l124 492h120l126 -490l104 490h127z" />
    <glyph glyph-name="X" unicode="X" horiz-adv-x="557" 
d="M537 710l-179 -342l190 -368h-139l-128 259l-135 -259h-140l199 364l-185 346h142l118 -238l119 238h138z" />
    <glyph glyph-name="Y" unicode="Y" horiz-adv-x="567" 
d="M565 710l-220 -357v-353h-122v348l-221 362h143l138 -236l136 236h146z" />
    <glyph glyph-name="Z" unicode="Z" horiz-adv-x="513" 
d="M475 710v-102l-294 -493h292v-115h-438v102l291 493h-281v115h430z" />
    <glyph glyph-name="bracketleft" unicode="[" horiz-adv-x="300" 
d="M183 16h79v-101h-191v860h191v-101h-79v-658z" />
    <glyph glyph-name="backslash" unicode="\" horiz-adv-x="560" 
d="M14 775h123l400 -860h-123z" />
    <glyph glyph-name="bracketright" unicode="]" horiz-adv-x="300" 
d="M117 674h-79v101h191v-860h-191v101h79v658z" />
    <glyph glyph-name="asciicircum" unicode="^" 
d="M291 710l173 -328h-104l-110 209l-111 -209h-104l174 328h82z" />
    <glyph glyph-name="underscore" unicode="_" horiz-adv-x="342" 
d="M0 -68h342v-101h-342v101z" />
    <glyph glyph-name="grave" unicode="`" horiz-adv-x="600" 
d="M198 729h136l81 -117h-118z" />
    <glyph glyph-name="a" unicode="a" horiz-adv-x="478" 
d="M235 555q86 0 137 -55.5t51 -140.5v-359h-98v37q-47 -50 -120 -50q-81 0 -126.5 47.5t-45.5 121.5t48 122t133 48q58 0 97 -30v61q0 43 -20 67.5t-56 24.5q-35 0 -55.5 -21t-20.5 -57v-9h-112v10q0 81 51.5 132t136.5 51zM231 79q41 0 62.5 22t21.5 55q0 34 -21.5 56
t-62.5 22q-40 0 -62.5 -22t-22.5 -56q0 -32 22.5 -54.5t62.5 -22.5z" />
    <glyph glyph-name="b" unicode="b" horiz-adv-x="493" 
d="M57 0v729h112v-214q40 40 104 40q75 0 125.5 -52t50.5 -144v-176q0 -92 -51 -144t-128 -52q-76 0 -114 61v-48h-99zM252 93q39 0 61.5 26t22.5 66v172q0 40 -22.5 66t-61.5 26q-40 0 -61.5 -25.5t-21.5 -66.5v-172q0 -41 21.5 -66.5t61.5 -25.5z" />
    <glyph glyph-name="c" unicode="c" horiz-adv-x="464" 
d="M317 361v6q0 36 -21.5 59t-58.5 23q-38 0 -59 -26t-21 -66v-172q0 -40 21 -66t59 -26t60 24t22 63v5h112v-7q0 -83 -53 -137t-141 -54t-140 55.5t-52 140.5v176q0 85 52 140.5t140 55.5q87 0 139.5 -53t52.5 -133v-8h-112z" />
    <glyph glyph-name="d" unicode="d" horiz-adv-x="493" 
d="M220 555q63 0 103 -38v212h112v-729h-99v46q-40 -59 -113 -59q-77 0 -127.5 52t-50.5 144v176q0 92 50 144t125 52zM324 185v172q0 40 -22 66t-61 26q-40 0 -62 -25.5t-22 -66.5v-172q0 -41 22 -66.5t62 -25.5q39 0 61 26t22 66z" />
    <glyph glyph-name="e" unicode="e" horiz-adv-x="481" 
d="M241 555q91 0 144.5 -55.5t53.5 -140.5v-124h-282v-50q0 -41 23 -66.5t64 -25.5t64.5 23t23.5 59v4h111v-5q0 -82 -53.5 -134.5t-145.5 -52.5t-145.5 55.5t-53.5 140.5v176q0 85 53 140.5t143 55.5zM157 357v-24h170v24q0 41 -22.5 66.5t-63.5 25.5t-62.5 -25.5
t-21.5 -66.5z" />
    <glyph glyph-name="f" unicode="f" horiz-adv-x="323" 
d="M307 542v-101h-105v-441h-112v441h-69v101h69v61q0 57 39 94t98 37h80v-101h-59q-46 0 -46 -46v-45h105z" />
    <glyph glyph-name="g" unicode="g" horiz-adv-x="493" 
d="M223 555q72 0 112 -58v45h100v-529q0 -86 -52.5 -141.5t-140.5 -55.5q-84 0 -138 51.5t-54 128.5v4h112v-2q0 -34 22.5 -54.5t57.5 -20.5q38 0 59.5 24t21.5 68v45q-38 -35 -100 -35q-76 0 -127 52t-51 143v138q0 91 51.5 144t126.5 53zM324 223v134q0 40 -22 66t-61 26
q-40 0 -62 -26t-22 -67v-134q0 -40 22 -65.5t62 -25.5q39 0 61 26t22 66z" />
    <glyph glyph-name="h" unicode="h" horiz-adv-x="497" 
d="M169 729v-217q40 43 106 43q79 0 123.5 -48.5t44.5 -121.5v-385h-112v357q0 43 -20.5 67.5t-60.5 24.5q-36 0 -57.5 -22.5t-23.5 -61.5v-365h-112v729h112z" />
    <glyph glyph-name="i" unicode="i" horiz-adv-x="227" 
d="M169 542v-542h-112v542h112zM173 732v-118h-119v118h119z" />
    <glyph glyph-name="j" unicode="j" horiz-adv-x="227" 
d="M57 -16v558h112v-564q0 -64 -41 -106.5t-108 -42.5h-40v102h25q23 0 37.5 15t14.5 38zM175 732v-118h-119v118h119z" />
    <glyph glyph-name="k" unicode="k" horiz-adv-x="472" 
d="M342 0l-123 234l-50 -67v-167h-112v729h112v-408l159 221h131l-165 -230l176 -312h-128z" />
    <glyph glyph-name="l" unicode="l" horiz-adv-x="227" 
d="M57 729h112v-729h-112v729z" />
    <glyph glyph-name="m" unicode="m" horiz-adv-x="740" 
d="M315 0v365q0 39 -18 61.5t-53 22.5t-55 -23.5t-20 -63.5v-362h-112v542h102v-47q39 60 116 60t122 -60q44 60 124 60q75 0 119.5 -48.5t44.5 -120.5v-386h-111l-1 365q0 39 -18 61.5t-53 22.5q-33 0 -53 -21t-22 -58v-370h-112z" />
    <glyph glyph-name="n" unicode="n" horiz-adv-x="497" 
d="M331 0v357q0 43 -20.5 67.5t-60.5 24.5q-38 0 -59 -25t-21 -67h-1v-357h-112v542h102v-49q40 62 118 62t122 -49t44 -124v-382h-112z" />
    <glyph glyph-name="o" unicode="o" horiz-adv-x="485" 
d="M243 555q91 0 144.5 -55.5t53.5 -140.5v-176q0 -85 -53.5 -140.5t-144.5 -55.5t-144.5 55.5t-53.5 140.5v176q0 85 53.5 140.5t144.5 55.5zM329 185v172q0 40 -22.5 66t-63.5 26t-63.5 -26t-22.5 -66v-172q0 -40 22.5 -66t63.5 -26t63.5 26t22.5 66z" />
    <glyph glyph-name="p" unicode="p" horiz-adv-x="493" 
d="M57 -171v713h99v-48q38 61 114 61q77 0 128 -52t51 -144v-176q0 -92 -50.5 -144t-125.5 -52q-64 0 -104 40v-198h-112zM252 93q39 0 61.5 26t22.5 66v172q0 40 -22.5 66t-61.5 26q-40 0 -61.5 -25.5t-21.5 -66.5v-172q0 -41 21.5 -66.5t61.5 -25.5z" />
    <glyph glyph-name="q" unicode="q" horiz-adv-x="493" 
d="M323 -171v196q-40 -38 -103 -38q-75 0 -125 52t-50 144v176q0 92 50.5 144t127.5 52q73 0 113 -59v46h99v-713h-112zM241 93q39 0 61 26t22 66v172q0 40 -22 66t-61 26q-40 0 -62 -25.5t-22 -66.5v-172q0 -41 22 -66.5t62 -25.5z" />
    <glyph glyph-name="r" unicode="r" horiz-adv-x="328" 
d="M312 437h-33q-50 0 -79.5 -30t-29.5 -84h-1v-323h-112v542h102v-64q44 77 134 77h19v-118z" />
    <glyph glyph-name="s" unicode="s" horiz-adv-x="452" 
d="M299 365v10q0 33 -20 53.5t-56 20.5q-35 0 -52.5 -15t-17.5 -36q0 -25 20 -38.5t66 -28.5l46 -16q63 -23 98.5 -60t35.5 -100q0 -74 -52 -121t-139 -47q-86 0 -140 50t-54 123v21h112v-9q0 -37 24 -58t61 -21q35 0 55.5 15.5t20.5 43.5q0 24 -21 38.5t-63 28.5l-48 17
q-65 23 -99.5 59.5t-34.5 100.5q0 69 50.5 114t131.5 45q74 0 131 -47t57 -134v-9h-112z" />
    <glyph glyph-name="t" unicode="t" horiz-adv-x="337" 
d="M303 441h-101v-283q0 -25 13.5 -38t35.5 -13h49v-107h-69q-62 0 -101.5 38t-39.5 96v307h-71v101h71v155h112v-155h101v-101z" />
    <glyph glyph-name="u" unicode="u" horiz-adv-x="498" 
d="M166 542v-357q0 -92 82 -92q38 0 58.5 24.5t20.5 67.5h1v357h112v-542h-103v47q-41 -60 -117 -60q-78 0 -122 49t-44 124v382h112z" />
    <glyph glyph-name="v" unicode="v" horiz-adv-x="471" 
d="M11 542h119l107 -380l106 380h118l-169 -542h-113z" />
    <glyph glyph-name="w" unicode="w" horiz-adv-x="714" 
d="M584 542h117l-138 -542h-112l-94 342l-93 -342h-113l-138 542h119l83 -376l93 376h98l94 -374z" />
    <glyph glyph-name="x" unicode="x" horiz-adv-x="462" 
d="M443 542l-144 -253l153 -289h-128l-94 186l-92 -186h-127l152 279l-145 263h128l86 -163l83 163h128z" />
    <glyph glyph-name="y" unicode="y" horiz-adv-x="465" 
d="M466 542l-307 -712h-119l148 332l-175 380h127l104 -252l102 252h120z" />
    <glyph glyph-name="z" unicode="z" horiz-adv-x="435" 
d="M170 101h229v-101h-364v97l225 344h-218v101h353v-96z" />
    <glyph glyph-name="braceleft" unicode="{" horiz-adv-x="306" 
d="M263 -85h-40q-57 0 -93 36t-36 93v208q0 42 -38 42h-22v102h22q38 0 38 42v208q0 57 36 93t93 36h40v-101h-19q-38 0 -38 -42v-197q0 -59 -54 -90q54 -31 54 -90v-197q0 -42 38 -42h19v-101z" />
    <glyph glyph-name="bar" unicode="|" horiz-adv-x="256" 
d="M71 775h112v-860h-112v860z" />
    <glyph glyph-name="braceright" unicode="}" horiz-adv-x="306" 
d="M43 775h40q57 0 93 -36t36 -93v-208q0 -42 38 -42h22v-102h-22q-38 0 -38 -42v-208q0 -57 -36 -93t-93 -36h-40v101h19q38 0 38 42v197q0 59 54 90q-54 31 -54 90v197q0 42 -38 42h-19v101z" />
    <glyph glyph-name="asciitilde" unicode="~" 
d="M350 397h91v-25q0 -62 -31.5 -97t-81.5 -35q-53 0 -100 41q-3 3 -9 7.5t-8.5 7t-7 5.5t-6.5 4.5t-5.5 3.5t-6 2.5t-5.5 0.5q-27 0 -27 -65l-91 -1v26q0 63 31 97.5t82 34.5q53 0 100 -41q34 -31 48 -31q27 0 27 65z" />
    <glyph glyph-name="uni00A0" unicode="&#xa0;" horiz-adv-x="219" 
 />
    <glyph glyph-name="exclamdown" unicode="&#xa1;" horiz-adv-x="260" 
d="M205 -168h-151l31 461h88zM201 542v-139h-137v139h137z" />
    <glyph glyph-name="cent" unicode="&#xa2;" 
d="M342 430v6q0 58 -51 77v-317q53 20 53 82v5h111v-6q0 -74 -43 -125.5t-117 -63.5v-88h-82v88q-75 13 -117 65.5t-42 128.5v147q0 74 42.5 127t116.5 66v88h82v-89q73 -12 115 -62t42 -121v-8h-110zM164 427v-143q0 -65 53 -88v317q-53 -20 -53 -86z" />
    <glyph glyph-name="sterling" unicode="&#xa3;" 
d="M454 0h-406v120h49v160h-49v80h49v191q0 74 50.5 124.5t124.5 50.5q75 0 125.5 -50.5t50.5 -124.5v-70h-122v72q0 26 -15 42.5t-39 16.5t-39.5 -16.5t-15.5 -42.5v-193h113v-80h-113v-160h237v-120z" />
    <glyph glyph-name="currency" unicode="&#xa4;" 
d="M462 172l-66 -64l-61 62q-38 -22 -86 -22q-47 0 -84 21l-64 -62l-64 67l62 60q-23 38 -23 86t23 86l-62 62l65 65l62 -63q38 22 85 22t85 -22l64 63l65 -65l-63 -62q23 -38 23 -86q0 -47 -22 -85zM249 233q36 0 60 24t24 63t-24 63t-60 24t-59.5 -24t-23.5 -63t23.5 -63
t59.5 -24z" />
    <glyph glyph-name="yen" unicode="&#xa5;" 
d="M410 130h-99v-130h-122v130h-99v80h99v65h-99v79h99v6l-186 350h140l106 -209l105 209h143l-186 -348v-8h99v-79h-99v-65h99v-80z" />
    <glyph glyph-name="brokenbar" unicode="&#xa6;" horiz-adv-x="253" 
d="M182 775v-346h-112v346h112zM70 -85v346h112v-346h-112z" />
    <glyph glyph-name="section" unicode="&#xa7;" horiz-adv-x="481" 
d="M43 339q0 73 62 118q-43 43 -43 105q0 72 49 118t124 46q78 0 129.5 -48.5t51.5 -122.5v-18h-95v13q0 39 -25.5 61.5t-60.5 22.5q-31 0 -53.5 -17.5t-22.5 -48.5q0 -8 2 -15.5t7.5 -14t10 -12t14 -11.5t15.5 -9.5t18.5 -9t18 -8t20 -8.5t19.5 -8q31 -11 54 -22.5t48 -31
t39 -49t14 -66.5q0 -72 -61 -121q47 -47 47 -112q0 -78 -55.5 -124.5t-130.5 -46.5q-78 0 -133.5 49t-55.5 134v14h97v-13q0 -41 26 -66.5t66 -25.5q38 0 63.5 20t25.5 55q0 16 -7 29t-16 21.5t-27.5 17t-30.5 13t-36 12.5q-2 1 -3 1t-3 1t-3 1q-32 12 -55.5 24.5
t-49.5 33.5t-40 51t-14 68zM282 237q3 -1 10 -3.5t10 -4.5q40 22 40 65q0 26 -19.5 45.5t-42 29.5t-60.5 23q-10 3 -15 5l-22 9q-43 -19 -43 -61q0 -25 22 -45.5t42 -30t63 -26.5z" />
    <glyph glyph-name="dieresis" unicode="&#xa8;" horiz-adv-x="499" 
d="M186 725v-109h-114v109h114zM362 725v-109h-114v109h114z" />
    <glyph glyph-name="copyright" unicode="&#xa9;" horiz-adv-x="688" 
d="M472 307v-9q0 -52 -34.5 -89t-91.5 -37t-90.5 36.5t-33.5 89.5v121q0 50 33.5 86.5t89.5 36.5q57 0 90.5 -36.5t33.5 -88.5v-7h-84v8q0 19 -10.5 32t-29.5 13t-29 -13t-10 -31v-122q0 -19 10 -32.5t30 -13.5q19 0 30 14t11 33v9h85zM343 44q-129 0 -215.5 89.5
t-86.5 221.5t86.5 221.5t215.5 89.5t215.5 -89.5t86.5 -221.5t-86.5 -221.5t-215.5 -89.5zM343 120q96 0 158 65t62 170t-62 170t-158 65t-158 -65t-62 -170t62 -170t158 -65z" />
    <glyph glyph-name="ordfeminine" unicode="&#xaa;" horiz-adv-x="311" 
d="M152 726q47 0 75.5 -28t28.5 -73v-183h-60v21q-26 -28 -63 -28q-43 0 -67.5 25t-24.5 63q0 39 26 63.5t73 24.5q28 0 46 -12v26q0 16 -9 25.5t-25 9.5t-25.5 -9t-9.5 -23v-4h-69v4q0 43 28.5 70.5t75.5 27.5zM151 491q18 0 28 9t10 23q0 15 -10 24t-28 9t-29 -9t-11 -24
q0 -14 10.5 -23t29.5 -9z" />
    <glyph glyph-name="guillemotleft" unicode="&#xab;" horiz-adv-x="531" 
d="M402 520l69 -60l-125 -140l125 -140l-69 -60l-177 200zM188 520l69 -60l-125 -140l125 -140l-69 -60l-177 200z" />
    <glyph glyph-name="logicalnot" unicode="&#xac;" 
d="M426 366v-213h-92v121h-264v92h356z" />
    <glyph glyph-name="uni00AD" unicode="&#xad;" horiz-adv-x="338" 
d="M59 373h219v-106h-219v106z" />
    <glyph glyph-name="registered" unicode="&#xae;" horiz-adv-x="454" 
d="M226 340q-81 0 -134.5 54.5t-53.5 138.5t53.5 138.5t134.5 54.5t135 -54.5t54 -138.5t-54 -138.5t-135 -54.5zM226 393q57 0 94 38.5t37 101.5t-37 102t-94 39q-56 0 -93 -39t-37 -102t37 -101.5t93 -38.5zM162 641h64q37 0 56 -18t19 -47q0 -36 -30 -53l36 -96h-59
l-27 86h-5v-86h-54v214zM227 594h-11v-36h11q8 0 13 5.5t5 12.5q0 18 -18 18z" />
    <glyph glyph-name="macron" unicode="&#xaf;" horiz-adv-x="600" 
d="M364 703v-87h-279v87h279z" />
    <glyph glyph-name="degree" unicode="&#xb0;" horiz-adv-x="411" 
d="M206 385q-74 0 -123 49t-49 121q0 73 49 122t123 49q73 0 122.5 -49t49.5 -122q0 -72 -49.5 -121t-122.5 -49zM206 476q34 0 55 22t21 57t-21 57t-55 22t-55.5 -22t-21.5 -57t21.5 -57t55.5 -22z" />
    <glyph glyph-name="plusminus" unicode="&#xb1;" 
d="M296 538v-126h129v-92h-129v-92h-92v92h-130v92h130v126h92zM74 189h351v-92h-351v92z" />
    <glyph glyph-name="acute" unicode="&#xb4;" horiz-adv-x="600" 
d="M293 729l-99 -117h-118l81 117h136z" />
    <glyph glyph-name="paragraph" unicode="&#xb6;" horiz-adv-x="530" 
d="M455 710v-881h-92v791h-55v-791h-92v496h-56q-62 0 -97.5 35.5t-35.5 91.5v130q0 56 35.5 92t97.5 36h295z" />
    <glyph glyph-name="periodcentered" unicode="&#xb7;" horiz-adv-x="256" 
d="M195 389v-139h-137v139h137z" />
    <glyph glyph-name="cedilla" unicode="&#xb8;" horiz-adv-x="600" 
d="M303 -149h-104l59 194l88 -40z" />
    <glyph glyph-name="ordmasculine" unicode="&#xba;" horiz-adv-x="307" 
d="M153 726q51 0 80.5 -29.5t29.5 -74.5v-83q0 -44 -30 -74t-80 -30t-79.5 30t-29.5 74v83q0 45 29.5 74.5t79.5 29.5zM193 540v81q0 17 -10.5 28t-29.5 11t-29.5 -11t-10.5 -28v-81q0 -17 10.5 -28t29.5 -11t29.5 11t10.5 28z" />
    <glyph glyph-name="guillemotright" unicode="&#xbb;" horiz-adv-x="531" 
d="M129 120l-69 60l125 140l-125 140l69 60l177 -200zM344 120l-69 60l125 140l-125 140l69 60l177 -200z" />
    <glyph glyph-name="onequarter" unicode="&#xbc;" horiz-adv-x="613" 
d="M467 710h89l-422 -710h-88zM597 135v-66h-43v-69h-71v69h-127v61l108 207h81l-107 -202h46v52h70v-52h43zM204 439v-67h-176v67h55v204h-60v67h131v-271h50z" />
    <glyph glyph-name="onehalf" unicode="&#xbd;" horiz-adv-x="618" 
d="M467 710h89l-422 -710h-88zM591 67v-67h-200v60l119 153q10 16 10 32q0 15 -9 24t-22 9q-32 0 -32 -33v-14h-72v14q0 43 29.5 71.5t74.5 28.5t74 -28.5t29 -71.5q0 -40 -21 -66l-88 -112h108zM204 439v-67h-176v67h55v204h-60v67h131v-271h50z" />
    <glyph glyph-name="threequarters" unicode="&#xbe;" horiz-adv-x="637" 
d="M491 710h89l-422 -710h-88zM621 135v-66h-43v-69h-71v69h-127v61l108 207h81l-107 -202h46v52h70v-52h43zM227 651l-68 -70q35 -8 55.5 -33.5t20.5 -59.5v-24q0 -42 -31 -71.5t-76 -29.5t-76 29.5t-31 71.5v13h72v-13q0 -14 10 -23.5t25 -9.5q14 0 24.5 9.5t10.5 23.5v24
q0 14 -11.5 24.5t-28.5 10.5h-52l1 53l66 69h-110v66h199v-60z" />
    <glyph glyph-name="questiondown" unicode="&#xbf;" horiz-adv-x="444" 
d="M290 133h-58q-41 -2 -62.5 -25.5t-21.5 -59.5v-41q0 -37 21.5 -61t58.5 -24t58.5 22t21.5 55v11h112v-13q0 -78 -52 -129.5t-140 -51.5t-140 53.5t-52 135.5v45q0 69 38 118.5t104 64.5v66h112v-166zM165 403v139h137v-139h-137z" />
    <glyph glyph-name="Agrave" unicode="&#xc0;" horiz-adv-x="567" 
d="M561 0h-128l-43 150h-215l-42 -150h-129l219 710h121zM282 533l-75 -268h151zM134 897h136l81 -117h-118z" />
    <glyph glyph-name="Aacute" unicode="&#xc1;" horiz-adv-x="567" 
d="M561 0h-128l-43 150h-215l-42 -150h-129l219 710h121zM282 533l-75 -268h151zM431 897l-99 -117h-118l81 117h136z" />
    <glyph glyph-name="Acircumflex" unicode="&#xc2;" horiz-adv-x="567" 
d="M561 0h-128l-43 150h-215l-42 -150h-129l219 710h121zM282 533l-75 -268h151zM127 780l98 113h118l98 -113h-121l-37 49l-35 -49h-121z" />
    <glyph glyph-name="Atilde" unicode="&#xc3;" horiz-adv-x="567" 
d="M561 0h-128l-43 150h-215l-42 -150h-129l219 710h121zM282 533l-75 -268h151zM365 888h82q0 -46 -30 -79.5t-71 -33.5q-29 0 -57 15q-7 4 -17.5 11t-17.5 10t-14 3q-12 0 -19 -10.5t-7 -22.5h-82q0 47 30 80t71 33q33 0 61 -17q5 -3 15.5 -10t16.5 -9.5t13 -2.5
q12 0 19 10.5t7 22.5z" />
    <glyph glyph-name="Adieresis" unicode="&#xc4;" horiz-adv-x="567" 
d="M561 0h-128l-43 150h-215l-42 -150h-129l219 710h121zM282 533l-75 -268h151zM252 893v-109h-114v109h114zM428 893v-109h-114v109h114z" />
    <glyph glyph-name="Aring" unicode="&#xc5;" horiz-adv-x="567" 
d="M561 0h-128l-43 150h-215l-42 -150h-129l219 710h121zM282 533l-75 -268h151zM284 762q-55 0 -88.5 28t-33.5 76q0 45 33.5 74t88.5 29q54 0 88 -29t34 -74q0 -48 -33.5 -76t-88.5 -28zM285 828q46 0 46 38q0 15 -13 26t-33 11t-33 -11t-13 -26q0 -38 46 -38z" />
    <glyph glyph-name="AE" unicode="&#xc6;" horiz-adv-x="863" 
d="M819 595h-272v-173h211v-115h-211v-192h272v-115h-394v150h-212l-81 -150h-141l408 710h420v-115zM276 265h149v274z" />
    <glyph glyph-name="Ccedilla" unicode="&#xc7;" horiz-adv-x="563" 
d="M529 238v-11q0 -104 -65.5 -173.5t-174.5 -69.5q-108 0 -172.5 69.5t-64.5 173.5v256q0 104 64 173.5t172 69.5t172.5 -69t64.5 -172v-4h-122v5q0 53 -31 89t-84 36t-83.5 -36.5t-30.5 -91.5v-256q0 -56 30.5 -92t84.5 -36q55 0 86 36.5t31 91.5v11h123zM304 -149h-114
l48 154h109z" />
    <glyph glyph-name="Egrave" unicode="&#xc8;" horiz-adv-x="507" 
d="M463 595h-272v-173h211v-115h-211v-192h272v-115h-394v710h394v-115zM119 897h136l81 -117h-118z" />
    <glyph glyph-name="Eacute" unicode="&#xc9;" horiz-adv-x="507" 
d="M463 595h-272v-173h211v-115h-211v-192h272v-115h-394v710h394v-115zM416 897l-99 -117h-118l81 117h136z" />
    <glyph glyph-name="Ecircumflex" unicode="&#xca;" horiz-adv-x="507" 
d="M463 595h-272v-173h211v-115h-211v-192h272v-115h-394v710h394v-115zM112 780l98 113h118l98 -113h-121l-37 49l-35 -49h-121z" />
    <glyph glyph-name="Edieresis" unicode="&#xcb;" horiz-adv-x="507" 
d="M463 595h-272v-173h211v-115h-211v-192h272v-115h-394v710h394v-115zM237 893v-109h-114v109h114zM413 893v-109h-114v109h114z" />
    <glyph glyph-name="Igrave" unicode="&#xcc;" horiz-adv-x="261" 
d="M69 710h122v-710h-122v710zM-20 897h136l81 -117h-118z" />
    <glyph glyph-name="Iacute" unicode="&#xcd;" horiz-adv-x="261" 
d="M69 710h122v-710h-122v710zM278 897l-99 -117h-118l81 117h136z" />
    <glyph glyph-name="Icircumflex" unicode="&#xce;" horiz-adv-x="261" 
d="M69 710h122v-710h-122v710zM-27 780l98 113h118l98 -113h-121l-37 49l-35 -49h-121z" />
    <glyph glyph-name="Idieresis" unicode="&#xcf;" horiz-adv-x="261" 
d="M69 710h122v-710h-122v710zM99 893v-109h-114v109h114zM275 893v-109h-114v109h114z" />
    <glyph glyph-name="Eth" unicode="&#xd0;" horiz-adv-x="595" 
d="M79 710h220q113 0 178.5 -66t65.5 -170v-239q0 -103 -65.5 -169t-178.5 -66h-220v308h-63v114h63v288zM200 595v-173h131v-114h-131v-193h98q58 0 90.5 33t32.5 86v240q0 55 -32.5 88t-90.5 33h-98z" />
    <glyph glyph-name="Ntilde" unicode="&#xd1;" horiz-adv-x="625" 
d="M556 710v-710h-110l-255 466v-466h-122v710h114l251 -451v451h122zM395 888h82q0 -46 -30 -79.5t-71 -33.5q-29 0 -57 15q-7 4 -17.5 11t-17.5 10t-14 3q-12 0 -19 -10.5t-7 -22.5h-82q0 47 30 80t71 33q33 0 61 -17q5 -3 15.5 -10t16.5 -9.5t13 -2.5q12 0 19 10.5
t7 22.5z" />
    <glyph glyph-name="Ograve" unicode="&#xd2;" horiz-adv-x="594" 
d="M297 726q111 0 178 -69.5t67 -173.5v-255q0 -105 -66 -174.5t-179 -69.5q-111 0 -178 69.5t-67 174.5v255q0 104 67 173.5t178 69.5zM296 611q-57 0 -90 -36.5t-33 -91.5v-256q0 -56 32.5 -92t90.5 -36q59 0 91.5 36t32.5 92v256q0 55 -33 91.5t-91 36.5zM152 897h136
l81 -117h-118z" />
    <glyph glyph-name="Oacute" unicode="&#xd3;" horiz-adv-x="594" 
d="M297 726q111 0 178 -69.5t67 -173.5v-255q0 -105 -66 -174.5t-179 -69.5q-111 0 -178 69.5t-67 174.5v255q0 104 67 173.5t178 69.5zM296 611q-57 0 -90 -36.5t-33 -91.5v-256q0 -56 32.5 -92t90.5 -36q59 0 91.5 36t32.5 92v256q0 55 -33 91.5t-91 36.5zM449 897
l-99 -117h-118l81 117h136z" />
    <glyph glyph-name="Ocircumflex" unicode="&#xd4;" horiz-adv-x="594" 
d="M297 726q111 0 178 -69.5t67 -173.5v-255q0 -105 -66 -174.5t-179 -69.5q-111 0 -178 69.5t-67 174.5v255q0 104 67 173.5t178 69.5zM296 611q-57 0 -90 -36.5t-33 -91.5v-256q0 -56 32.5 -92t90.5 -36q59 0 91.5 36t32.5 92v256q0 55 -33 91.5t-91 36.5zM145 780l98 113
h118l98 -113h-121l-37 49l-35 -49h-121z" />
    <glyph glyph-name="Otilde" unicode="&#xd5;" horiz-adv-x="594" 
d="M297 726q111 0 178 -69.5t67 -173.5v-255q0 -105 -66 -174.5t-179 -69.5q-111 0 -178 69.5t-67 174.5v255q0 104 67 173.5t178 69.5zM296 611q-57 0 -90 -36.5t-33 -91.5v-256q0 -56 32.5 -92t90.5 -36q59 0 91.5 36t32.5 92v256q0 55 -33 91.5t-91 36.5zM383 888h82
q0 -46 -30 -79.5t-71 -33.5q-29 0 -57 15q-7 4 -17.5 11t-17.5 10t-14 3q-12 0 -19 -10.5t-7 -22.5h-82q0 47 30 80t71 33q33 0 61 -17q5 -3 15.5 -10t16.5 -9.5t13 -2.5q12 0 19 10.5t7 22.5z" />
    <glyph glyph-name="Odieresis" unicode="&#xd6;" horiz-adv-x="594" 
d="M297 726q111 0 178 -69.5t67 -173.5v-255q0 -105 -66 -174.5t-179 -69.5q-111 0 -178 69.5t-67 174.5v255q0 104 67 173.5t178 69.5zM296 611q-57 0 -90 -36.5t-33 -91.5v-256q0 -56 32.5 -92t90.5 -36q59 0 91.5 36t32.5 92v256q0 55 -33 91.5t-91 36.5zM270 893v-109
h-114v109h114zM446 893v-109h-114v109h114z" />
    <glyph glyph-name="multiply" unicode="&#xd7;" 
d="M426 431l-111 -111l111 -111l-65 -65l-111 111l-111 -111l-65 65l111 111l-111 111l65 65l111 -111l111 111z" />
    <glyph glyph-name="Oslash" unicode="&#xd8;" horiz-adv-x="599" 
d="M299 726q86 0 149 -45l21 36h116l-69 -115q28 -53 28 -119v-254q0 -105 -66 -175t-179 -70q-87 0 -150 44l-21 -35h-116l69 115q-27 54 -27 121v254q0 104 67 173.5t178 69.5zM299 611q-57 0 -90 -36.5t-33 -91.5v-232l202 334q-32 26 -79 26zM299 99q59 0 91.5 36.5
t32.5 92.5v230l-203 -334q31 -25 79 -25z" />
    <glyph glyph-name="Ugrave" unicode="&#xd9;" horiz-adv-x="598" 
d="M412 710h122v-483q0 -105 -63.5 -174t-171.5 -69t-172 69t-64 174v483h122v-484q0 -56 30 -91.5t84 -35.5q53 0 83 35.5t30 91.5v484zM145 897h136l81 -117h-118z" />
    <glyph glyph-name="Uacute" unicode="&#xda;" horiz-adv-x="598" 
d="M412 710h122v-483q0 -105 -63.5 -174t-171.5 -69t-172 69t-64 174v483h122v-484q0 -56 30 -91.5t84 -35.5q53 0 83 35.5t30 91.5v484zM442 897l-99 -117h-118l81 117h136z" />
    <glyph glyph-name="Ucircumflex" unicode="&#xdb;" horiz-adv-x="598" 
d="M412 710h122v-483q0 -105 -63.5 -174t-171.5 -69t-172 69t-64 174v483h122v-484q0 -56 30 -91.5t84 -35.5q53 0 83 35.5t30 91.5v484zM138 780l98 113h118l98 -113h-121l-37 49l-35 -49h-121z" />
    <glyph glyph-name="Udieresis" unicode="&#xdc;" horiz-adv-x="598" 
d="M412 710h122v-483q0 -105 -63.5 -174t-171.5 -69t-172 69t-64 174v483h122v-484q0 -56 30 -91.5t84 -35.5q53 0 83 35.5t30 91.5v484zM263 893v-109h-114v109h114zM439 893v-109h-114v109h114z" />
    <glyph glyph-name="Yacute" unicode="&#xdd;" horiz-adv-x="567" 
d="M565 710l-220 -357v-353h-122v348l-221 362h143l138 -236l136 236h146zM430 897l-99 -117h-118l81 117h136z" />
    <glyph glyph-name="Thorn" unicode="&#xde;" horiz-adv-x="530" 
d="M69 710h122v-125h80q108 0 170.5 -58.5t62.5 -160.5t-62.5 -160.5t-170.5 -58.5h-80v-147h-122v710zM271 470h-80v-208h80q53 0 81 27.5t28 76.5q0 104 -109 104z" />
    <glyph glyph-name="germandbls" unicode="&#xdf;" horiz-adv-x="504" 
d="M239 745q84 0 133 -50t49 -127v-46q0 -66 -43 -107q88 -49 88 -157v-61q0 -86 -56 -141.5t-152 -55.5h-27v106h27q46 0 71 26t25 67v57q0 41 -25 67t-71 26h-19v22h-1v84h19q25 0 38.5 19t13.5 50v42q0 32 -18.5 52.5t-51.5 20.5t-51.5 -20.5t-18.5 -52.5v-566h-112v568
q0 77 49 127t133 50z" />
    <glyph glyph-name="agrave" unicode="&#xe0;" horiz-adv-x="478" 
d="M235 555q86 0 137 -55.5t51 -140.5v-359h-98v37q-47 -50 -120 -50q-81 0 -126.5 47.5t-45.5 121.5t48 122t133 48q58 0 97 -30v61q0 43 -20 67.5t-56 24.5q-35 0 -55.5 -21t-20.5 -57v-9h-112v10q0 81 51.5 132t136.5 51zM231 79q41 0 62.5 22t21.5 55q0 34 -21.5 56
t-62.5 22q-40 0 -62.5 -22t-22.5 -56q0 -32 22.5 -54.5t62.5 -22.5zM90 729h136l81 -117h-118z" />
    <glyph glyph-name="aacute" unicode="&#xe1;" horiz-adv-x="478" 
d="M235 555q86 0 137 -55.5t51 -140.5v-359h-98v37q-47 -50 -120 -50q-81 0 -126.5 47.5t-45.5 121.5t48 122t133 48q58 0 97 -30v61q0 43 -20 67.5t-56 24.5q-35 0 -55.5 -21t-20.5 -57v-9h-112v10q0 81 51.5 132t136.5 51zM231 79q41 0 62.5 22t21.5 55q0 34 -21.5 56
t-62.5 22q-40 0 -62.5 -22t-22.5 -56q0 -32 22.5 -54.5t62.5 -22.5zM387 729l-99 -117h-118l81 117h136z" />
    <glyph glyph-name="acircumflex" unicode="&#xe2;" horiz-adv-x="478" 
d="M235 555q86 0 137 -55.5t51 -140.5v-359h-98v37q-47 -50 -120 -50q-81 0 -126.5 47.5t-45.5 121.5t48 122t133 48q58 0 97 -30v61q0 43 -20 67.5t-56 24.5q-35 0 -55.5 -21t-20.5 -57v-9h-112v10q0 81 51.5 132t136.5 51zM231 79q41 0 62.5 22t21.5 55q0 34 -21.5 56
t-62.5 22q-40 0 -62.5 -22t-22.5 -56q0 -32 22.5 -54.5t62.5 -22.5zM83 612l98 113h118l98 -113h-121l-37 49l-35 -49h-121z" />
    <glyph glyph-name="atilde" unicode="&#xe3;" horiz-adv-x="478" 
d="M235 555q86 0 137 -55.5t51 -140.5v-359h-98v37q-47 -50 -120 -50q-81 0 -126.5 47.5t-45.5 121.5t48 122t133 48q58 0 97 -30v61q0 43 -20 67.5t-56 24.5q-35 0 -55.5 -21t-20.5 -57v-9h-112v10q0 81 51.5 132t136.5 51zM231 79q41 0 62.5 22t21.5 55q0 34 -21.5 56
t-62.5 22q-40 0 -62.5 -22t-22.5 -56q0 -32 22.5 -54.5t62.5 -22.5zM322 721h82q0 -46 -30 -79.5t-71 -33.5q-29 0 -57 15q-7 4 -17.5 11t-17.5 10t-14 3q-12 0 -19 -10.5t-7 -22.5h-82q0 47 30 80t71 33q33 0 61 -17q5 -3 15.5 -10t16.5 -9.5t13 -2.5q12 0 19 10.5t7 22.5z
" />
    <glyph glyph-name="adieresis" unicode="&#xe4;" horiz-adv-x="478" 
d="M235 555q86 0 137 -55.5t51 -140.5v-359h-98v37q-47 -50 -120 -50q-81 0 -126.5 47.5t-45.5 121.5t48 122t133 48q58 0 97 -30v61q0 43 -20 67.5t-56 24.5q-35 0 -55.5 -21t-20.5 -57v-9h-112v10q0 81 51.5 132t136.5 51zM231 79q41 0 62.5 22t21.5 55q0 34 -21.5 56
t-62.5 22q-40 0 -62.5 -22t-22.5 -56q0 -32 22.5 -54.5t62.5 -22.5zM208 725v-109h-114v109h114zM384 725v-109h-114v109h114z" />
    <glyph glyph-name="aring" unicode="&#xe5;" horiz-adv-x="478" 
d="M235 555q86 0 137 -55.5t51 -140.5v-359h-98v37q-47 -50 -120 -50q-81 0 -126.5 47.5t-45.5 121.5t48 122t133 48q58 0 97 -30v61q0 43 -20 67.5t-56 24.5q-35 0 -55.5 -21t-20.5 -57v-9h-112v10q0 81 51.5 132t136.5 51zM231 79q41 0 62.5 22t21.5 55q0 34 -21.5 56
t-62.5 22q-40 0 -62.5 -22t-22.5 -56q0 -32 22.5 -54.5t62.5 -22.5zM240 595q-55 0 -88.5 28t-33.5 76q0 45 33.5 74t88.5 29q54 0 88 -29t34 -74q0 -48 -33.5 -76t-88.5 -28zM241 661q46 0 46 38q0 15 -13 26t-33 11t-33 -11t-13 -26q0 -38 46 -38z" />
    <glyph glyph-name="ae" unicode="&#xe6;" horiz-adv-x="756" 
d="M238 555q84 0 136 -60q48 61 141 61q92 0 145 -55.5t53 -141.5v-124h-282v-49q0 -41 22.5 -66.5t64.5 -25.5q41 0 64.5 23t23.5 59v4h111v-6q0 -82 -53.5 -134t-145.5 -52q-95 0 -145 61q-50 -62 -144 -62q-91 0 -143.5 47.5t-52.5 121.5t49.5 122t135.5 48q58 0 101 -32
v63q0 42 -21.5 67t-59.5 25q-36 0 -57.5 -21t-21.5 -57v-9h-112v10q0 81 52.5 132t138.5 51zM235 79q42 0 65 22t23 55q0 34 -23 56t-65 22q-41 0 -65 -22.5t-24 -55.5q0 -32 24 -54.5t65 -22.5zM431 358v-24h170v23q0 41 -22.5 66.5t-63.5 25.5q-40 0 -62 -25.5t-22 -65.5z
" />
    <glyph glyph-name="ccedilla" unicode="&#xe7;" horiz-adv-x="464" 
d="M317 361v6q0 36 -21.5 59t-58.5 23q-38 0 -59 -26t-21 -66v-172q0 -40 21 -66t59 -26t60 24t22 63v5h112v-7q0 -83 -53 -137t-141 -54t-140 55.5t-52 140.5v176q0 85 52 140.5t140 55.5q87 0 139.5 -53t52.5 -133v-8h-112zM254 -149h-104l59 194l88 -40z" />
    <glyph glyph-name="egrave" unicode="&#xe8;" horiz-adv-x="481" 
d="M241 555q91 0 144.5 -55.5t53.5 -140.5v-124h-282v-50q0 -41 23 -66.5t64 -25.5t64.5 23t23.5 59v4h111v-5q0 -82 -53.5 -134.5t-145.5 -52.5t-145.5 55.5t-53.5 140.5v176q0 85 53 140.5t143 55.5zM157 357v-24h170v24q0 41 -22.5 66.5t-63.5 25.5t-62.5 -25.5
t-21.5 -66.5zM92 729h136l81 -117h-118z" />
    <glyph glyph-name="eacute" unicode="&#xe9;" horiz-adv-x="481" 
d="M241 555q91 0 144.5 -55.5t53.5 -140.5v-124h-282v-50q0 -41 23 -66.5t64 -25.5t64.5 23t23.5 59v4h111v-5q0 -82 -53.5 -134.5t-145.5 -52.5t-145.5 55.5t-53.5 140.5v176q0 85 53 140.5t143 55.5zM157 357v-24h170v24q0 41 -22.5 66.5t-63.5 25.5t-62.5 -25.5
t-21.5 -66.5zM389 729l-99 -117h-118l81 117h136z" />
    <glyph glyph-name="ecircumflex" unicode="&#xea;" horiz-adv-x="481" 
d="M241 555q91 0 144.5 -55.5t53.5 -140.5v-124h-282v-50q0 -41 23 -66.5t64 -25.5t64.5 23t23.5 59v4h111v-5q0 -82 -53.5 -134.5t-145.5 -52.5t-145.5 55.5t-53.5 140.5v176q0 85 53 140.5t143 55.5zM157 357v-24h170v24q0 41 -22.5 66.5t-63.5 25.5t-62.5 -25.5
t-21.5 -66.5zM85 612l98 113h118l98 -113h-121l-37 49l-35 -49h-121z" />
    <glyph glyph-name="edieresis" unicode="&#xeb;" horiz-adv-x="481" 
d="M241 555q91 0 144.5 -55.5t53.5 -140.5v-124h-282v-50q0 -41 23 -66.5t64 -25.5t64.5 23t23.5 59v4h111v-5q0 -82 -53.5 -134.5t-145.5 -52.5t-145.5 55.5t-53.5 140.5v176q0 85 53 140.5t143 55.5zM157 357v-24h170v24q0 41 -22.5 66.5t-63.5 25.5t-62.5 -25.5
t-21.5 -66.5zM210 725v-109h-114v109h114zM386 725v-109h-114v109h114z" />
    <glyph glyph-name="igrave" unicode="&#xec;" horiz-adv-x="227" 
d="M169 542v-542h-112v542h112zM-35 729h136l81 -117h-118z" />
    <glyph glyph-name="iacute" unicode="&#xed;" horiz-adv-x="227" 
d="M169 542v-542h-112v542h112zM263 729l-99 -117h-118l81 117h136z" />
    <glyph glyph-name="icircumflex" unicode="&#xee;" horiz-adv-x="227" 
d="M169 542v-542h-112v542h112zM-42 612l98 113h118l98 -113h-121l-37 49l-35 -49h-121z" />
    <glyph glyph-name="idieresis" unicode="&#xef;" horiz-adv-x="227" 
d="M169 542v-542h-112v542h112zM84 725v-109h-114v109h114zM260 725v-109h-114v109h114z" />
    <glyph glyph-name="eth" unicode="&#xf0;" horiz-adv-x="485" 
d="M180 729l54 -61h131v-91h-50l69 -77q56 -61 56 -145v-172q0 -85 -53.5 -140.5t-144.5 -55.5t-144.5 55.5t-53.5 140.5v168q0 77 45 129t124 62l-24 26h-142v89h60l-67 72h140zM328 185v168q0 40 -22.5 66t-63.5 26t-63.5 -26t-22.5 -66v-168q0 -40 22.5 -66t63.5 -26
t63.5 26t22.5 66z" />
    <glyph glyph-name="ntilde" unicode="&#xf1;" horiz-adv-x="497" 
d="M331 0v357q0 43 -20.5 67.5t-60.5 24.5q-38 0 -59 -25t-21 -67h-1v-357h-112v542h102v-49q40 62 118 62t122 -49t44 -124v-382h-112zM331 721h82q0 -46 -30 -79.5t-71 -33.5q-29 0 -57 15q-7 4 -17.5 11t-17.5 10t-14 3q-12 0 -19 -10.5t-7 -22.5h-82q0 47 30 80t71 33
q33 0 61 -17q5 -3 15.5 -10t16.5 -9.5t13 -2.5q12 0 19 10.5t7 22.5z" />
    <glyph glyph-name="ograve" unicode="&#xf2;" horiz-adv-x="485" 
d="M243 555q91 0 144.5 -55.5t53.5 -140.5v-176q0 -85 -53.5 -140.5t-144.5 -55.5t-144.5 55.5t-53.5 140.5v176q0 85 53.5 140.5t144.5 55.5zM329 185v172q0 40 -22.5 66t-63.5 26t-63.5 -26t-22.5 -66v-172q0 -40 22.5 -66t63.5 -26t63.5 26t22.5 66zM94 729l99 -117h118
l-81 117h-136z" />
    <glyph glyph-name="oacute" unicode="&#xf3;" horiz-adv-x="485" 
d="M243 555q91 0 144.5 -55.5t53.5 -140.5v-176q0 -85 -53.5 -140.5t-144.5 -55.5t-144.5 55.5t-53.5 140.5v176q0 85 53.5 140.5t144.5 55.5zM329 185v172q0 40 -22.5 66t-63.5 26t-63.5 -26t-22.5 -66v-172q0 -40 22.5 -66t63.5 -26t63.5 26t22.5 66zM390 729l-99 -117
h-118l81 117h136z" />
    <glyph glyph-name="ocircumflex" unicode="&#xf4;" horiz-adv-x="485" 
d="M243 555q91 0 144.5 -55.5t53.5 -140.5v-176q0 -85 -53.5 -140.5t-144.5 -55.5t-144.5 55.5t-53.5 140.5v176q0 85 53.5 140.5t144.5 55.5zM329 185v172q0 40 -22.5 66t-63.5 26t-63.5 -26t-22.5 -66v-172q0 -40 22.5 -66t63.5 -26t63.5 26t22.5 66zM86 612l98 113h118
l98 -113h-121l-37 49l-35 -49h-121z" />
    <glyph glyph-name="otilde" unicode="&#xf5;" horiz-adv-x="485" 
d="M243 555q91 0 144.5 -55.5t53.5 -140.5v-176q0 -85 -53.5 -140.5t-144.5 -55.5t-144.5 55.5t-53.5 140.5v176q0 85 53.5 140.5t144.5 55.5zM329 185v172q0 40 -22.5 66t-63.5 26t-63.5 -26t-22.5 -66v-172q0 -40 22.5 -66t63.5 -26t63.5 26t22.5 66zM325 721h82
q0 -46 -30 -79.5t-71 -33.5q-29 0 -57 15q-7 4 -17.5 11t-17.5 10t-14 3q-12 0 -19 -10.5t-7 -22.5h-82q0 47 30 80t71 33q33 0 61 -17q5 -3 15.5 -10t16.5 -9.5t13 -2.5q12 0 19 10.5t7 22.5z" />
    <glyph glyph-name="odieresis" unicode="&#xf6;" horiz-adv-x="485" 
d="M243 555q91 0 144.5 -55.5t53.5 -140.5v-176q0 -85 -53.5 -140.5t-144.5 -55.5t-144.5 55.5t-53.5 140.5v176q0 85 53.5 140.5t144.5 55.5zM329 185v172q0 40 -22.5 66t-63.5 26t-63.5 -26t-22.5 -66v-172q0 -40 22.5 -66t63.5 -26t63.5 26t22.5 66zM211 725v-109h-114
v109h114zM387 725v-109h-114v109h114z" />
    <glyph glyph-name="divide" unicode="&#xf7;" 
d="M74 366h351v-92h-351v92zM309 535v-118h-119v118h119zM309 224v-118h-119v118h119z" />
    <glyph glyph-name="oslash" unicode="&#xf8;" horiz-adv-x="490" 
d="M243 555q66 0 116 -32l16 26h102l-57 -95q21 -42 21 -95v-176q0 -85 -53.5 -140.5t-144.5 -55.5q-65 0 -111 28l-13 -22h-102l53 87q-25 43 -25 103v176q0 85 53.5 140.5t144.5 55.5zM155 360v-152l139 229q-22 15 -51 15q-41 0 -64.5 -26t-23.5 -66zM331 182v138
l-133 -220q16 -10 45 -10q41 0 64.5 26t23.5 66z" />
    <glyph glyph-name="ugrave" unicode="&#xf9;" horiz-adv-x="498" 
d="M166 542v-357q0 -92 82 -92q38 0 58.5 24.5t20.5 67.5h1v357h112v-542h-103v47q-41 -60 -117 -60q-78 0 -122 49t-44 124v382h112zM98 729h136l81 -117h-118z" />
    <glyph glyph-name="uacute" unicode="&#xfa;" horiz-adv-x="498" 
d="M166 542v-357q0 -92 82 -92q38 0 58.5 24.5t20.5 67.5h1v357h112v-542h-103v47q-41 -60 -117 -60q-78 0 -122 49t-44 124v382h112zM395 729l-99 -117h-118l81 117h136z" />
    <glyph glyph-name="ucircumflex" unicode="&#xfb;" horiz-adv-x="498" 
d="M166 542v-357q0 -92 82 -92q38 0 58.5 24.5t20.5 67.5h1v357h112v-542h-103v47q-41 -60 -117 -60q-78 0 -122 49t-44 124v382h112zM91 612l98 113h118l98 -113h-121l-37 49l-35 -49h-121z" />
    <glyph glyph-name="udieresis" unicode="&#xfc;" horiz-adv-x="498" 
d="M166 542v-357q0 -92 82 -92q38 0 58.5 24.5t20.5 67.5h1v357h112v-542h-103v47q-41 -60 -117 -60q-78 0 -122 49t-44 124v382h112zM216 725v-109h-114v109h114zM392 725v-109h-114v109h114z" />
    <glyph glyph-name="yacute" unicode="&#xfd;" horiz-adv-x="465" 
d="M466 542l-307 -712h-119l148 332l-175 380h127l104 -252l102 252h120zM392 729l-99 -117h-118l81 117h136z" />
    <glyph glyph-name="thorn" unicode="&#xfe;" horiz-adv-x="493" 
d="M57 -171v900h112v-213q39 39 104 39q75 0 125.5 -52t50.5 -144v-176q0 -92 -51 -144t-128 -52q-63 0 -101 40v-198h-112zM252 93q39 0 61.5 26t22.5 66v172q0 40 -22.5 66t-61.5 26q-40 0 -61.5 -25.5t-21.5 -66.5v-172q0 -41 21.5 -66.5t61.5 -25.5z" />
    <glyph glyph-name="ydieresis" unicode="&#xff;" horiz-adv-x="465" 
d="M466 542l-307 -712h-119l148 332l-175 380h127l104 -252l102 252h120zM213 725v-109h-114v109h114zM389 725v-109h-114v109h114z" />
    <glyph glyph-name="Amacron" unicode="&#x100;" horiz-adv-x="567" 
d="M561 0h-128l-43 150h-215l-42 -150h-129l219 710h121zM423 871v-87h-279v87h279zM282 533l-75 -268h151z" />
    <glyph glyph-name="amacron" unicode="&#x101;" horiz-adv-x="478" 
d="M235 555q86 0 137 -55.5t51 -140.5v-359h-98v37q-47 -50 -120 -50q-81 0 -126.5 47.5t-45.5 121.5t48 122t133 48q58 0 97 -30v61q0 43 -20 67.5t-56 24.5q-35 0 -55.5 -21t-20.5 -57v-9h-112v10q0 81 51.5 132t136.5 51zM231 79q41 0 62.5 22t21.5 55q0 34 -21.5 56
t-62.5 22q-40 0 -62.5 -22t-22.5 -56q0 -32 22.5 -54.5t62.5 -22.5zM379 703v-87h-279v87h279z" />
    <glyph glyph-name="Abreve" unicode="&#x102;" horiz-adv-x="567" 
d="M561 0h-128l-43 150h-215l-42 -150h-129l219 710h121zM282 533l-75 -268h151zM340 894h89q0 -54 -39 -86.5t-107 -32.5t-107 32.5t-39 86.5h90q0 -21 15 -33.5t41 -12.5q27 0 42 12.5t15 33.5z" />
    <glyph glyph-name="abreve" unicode="&#x103;" horiz-adv-x="478" 
d="M235 555q86 0 137 -55.5t51 -140.5v-359h-98v37q-47 -50 -120 -50q-81 0 -126.5 47.5t-45.5 121.5t48 122t133 48q58 0 97 -30v61q0 43 -20 67.5t-56 24.5q-35 0 -55.5 -21t-20.5 -57v-9h-112v10q0 81 51.5 132t136.5 51zM231 79q41 0 62.5 22t21.5 55q0 34 -21.5 56
t-62.5 22q-40 0 -62.5 -22t-22.5 -56q0 -32 22.5 -54.5t62.5 -22.5zM296 726h89q0 -54 -39 -86.5t-107 -32.5t-107 32.5t-39 86.5h90q0 -21 15 -33.5t41 -12.5q27 0 42 12.5t15 33.5z" />
    <glyph glyph-name="Aogonek" unicode="&#x104;" horiz-adv-x="567" 
d="M561 0h-128l-43 150h-215l-42 -150h-129l219 710h121zM282 533l-75 -268h151zM449 22l79 -22l-31 -26q-20 -17 -20 -32q0 -23 31 -23h27v-89h-60q-46 0 -71 23.5t-25 59.5q0 43 40 79z" />
    <glyph glyph-name="aogonek" unicode="&#x105;" horiz-adv-x="478" 
d="M235 555q86 0 137 -55.5t51 -140.5v-359h-98v37q-47 -50 -120 -50q-81 0 -126.5 47.5t-45.5 121.5t48 122t133 48q58 0 97 -30v61q0 43 -20 67.5t-56 24.5q-35 0 -55.5 -21t-20.5 -57v-9h-112v10q0 81 51.5 132t136.5 51zM231 79q41 0 62.5 22t21.5 55q0 34 -21.5 56
t-62.5 22q-40 0 -62.5 -22t-22.5 -56q0 -32 22.5 -54.5t62.5 -22.5zM345 22l79 -22l-31 -26q-20 -17 -20 -32q0 -23 31 -23h27v-89h-60q-46 0 -71 23.5t-25 59.5q0 43 40 79z" />
    <glyph glyph-name="Cacute" unicode="&#x106;" horiz-adv-x="563" 
d="M529 238v-11q0 -104 -65.5 -173.5t-174.5 -69.5q-108 0 -172.5 69.5t-64.5 173.5v256q0 104 64 173.5t172 69.5t172.5 -69t64.5 -172v-4h-122v5q0 53 -31 89t-84 36t-83.5 -36.5t-30.5 -91.5v-256q0 -56 30.5 -92t84.5 -36q55 0 86 36.5t31 91.5v11h123zM434 897
l-99 -117h-118l81 117h136z" />
    <glyph glyph-name="cacute" unicode="&#x107;" horiz-adv-x="464" 
d="M317 361v6q0 36 -21.5 59t-58.5 23q-38 0 -59 -26t-21 -66v-172q0 -40 21 -66t59 -26t60 24t22 63v5h112v-7q0 -83 -53 -137t-141 -54t-140 55.5t-52 140.5v176q0 85 52 140.5t140 55.5q87 0 139.5 -53t52.5 -133v-8h-112zM386 729l-99 -117h-118l81 117h136z" />
    <glyph glyph-name="Ccircumflex" unicode="&#x108;" horiz-adv-x="563" 
d="M529 238v-11q0 -104 -65.5 -173.5t-174.5 -69.5q-108 0 -172.5 69.5t-64.5 173.5v256q0 104 64 173.5t172 69.5t172.5 -69t64.5 -172v-4h-122v5q0 53 -31 89t-84 36t-83.5 -36.5t-30.5 -91.5v-256q0 -56 30.5 -92t84.5 -36q55 0 86 36.5t31 91.5v11h123zM130 780l98 113
h118l98 -113h-121l-37 49l-35 -49h-121z" />
    <glyph glyph-name="ccircumflex" unicode="&#x109;" horiz-adv-x="464" 
d="M317 361v6q0 36 -21.5 59t-58.5 23q-38 0 -59 -26t-21 -66v-172q0 -40 21 -66t59 -26t60 24t22 63v5h112v-7q0 -83 -53 -137t-141 -54t-140 55.5t-52 140.5v176q0 85 52 140.5t140 55.5q87 0 139.5 -53t52.5 -133v-8h-112zM82 612l98 113h118l98 -113h-121l-37 49
l-35 -49h-121z" />
    <glyph glyph-name="Cdotaccent" unicode="&#x10a;" horiz-adv-x="563" 
d="M529 238v-11q0 -104 -65.5 -173.5t-174.5 -69.5q-108 0 -172.5 69.5t-64.5 173.5v256q0 104 64 173.5t172 69.5t172.5 -69t64.5 -172v-4h-122v5q0 53 -31 89t-84 36t-83.5 -36.5t-30.5 -91.5v-256q0 -56 30.5 -92t84.5 -36q55 0 86 36.5t31 91.5v11h123zM345 900v-118
h-119v118h119z" />
    <glyph glyph-name="cdotaccent" unicode="&#x10b;" horiz-adv-x="464" 
d="M317 361v6q0 36 -21.5 59t-58.5 23q-38 0 -59 -26t-21 -66v-172q0 -40 21 -66t59 -26t60 24t22 63v5h112v-7q0 -83 -53 -137t-141 -54t-140 55.5t-52 140.5v176q0 85 52 140.5t140 55.5q87 0 139.5 -53t52.5 -133v-8h-112zM297 732v-118h-119v118h119z" />
    <glyph glyph-name="Ccaron" unicode="&#x10c;" horiz-adv-x="563" 
d="M529 238v-11q0 -104 -65.5 -173.5t-174.5 -69.5q-108 0 -172.5 69.5t-64.5 173.5v256q0 104 64 173.5t172 69.5t172.5 -69t64.5 -172v-4h-122v5q0 53 -31 89t-84 36t-83.5 -36.5t-30.5 -91.5v-256q0 -56 30.5 -92t84.5 -36q55 0 86 36.5t31 91.5v11h123zM444 893
l-98 -113h-118l-98 113h121l36 -50l36 50h121z" />
    <glyph glyph-name="ccaron" unicode="&#x10d;" horiz-adv-x="464" 
d="M317 361v6q0 36 -21.5 59t-58.5 23q-38 0 -59 -26t-21 -66v-172q0 -40 21 -66t59 -26t60 24t22 63v5h112v-7q0 -83 -53 -137t-141 -54t-140 55.5t-52 140.5v176q0 85 52 140.5t140 55.5q87 0 139.5 -53t52.5 -133v-8h-112zM396 725l-98 -113h-118l-98 113h121l36 -50
l36 50h121z" />
    <glyph glyph-name="Dcaron" unicode="&#x10e;" horiz-adv-x="586" 
d="M69 710h220q113 0 178.5 -66t65.5 -170v-239q0 -103 -65.5 -169t-178.5 -66h-220v710zM190 595v-480h98q58 0 90.5 33t32.5 86v240q0 55 -32.5 88t-90.5 33h-98zM444 893l-98 -113h-118l-98 113h121l36 -50l36 50h121z" />
    <glyph glyph-name="dcaron" unicode="&#x10f;" horiz-adv-x="588" 
d="M603 710l-21 -206h-87l1 206h107zM220 555q63 0 103 -38v212h112v-729h-99v46q-40 -59 -113 -59q-77 0 -127.5 52t-50.5 144v176q0 92 50 144t125 52zM324 185v172q0 40 -22 66t-61 26q-40 0 -62 -25.5t-22 -66.5v-172q0 -41 22 -66.5t62 -25.5q39 0 61 26t22 66z" />
    <glyph glyph-name="Dcroat" unicode="&#x110;" horiz-adv-x="595" 
d="M79 710h220q113 0 178.5 -66t65.5 -170v-239q0 -103 -65.5 -169t-178.5 -66h-220v308h-63v114h63v288zM200 595v-173h131v-114h-131v-193h98q58 0 90.5 33t32.5 86v240q0 55 -32.5 88t-90.5 33h-98z" />
    <glyph glyph-name="dcroat" unicode="&#x111;" horiz-adv-x="493" 
d="M220 555q63 0 103 -38v72h-92v88h92v52h112v-52h59v-88h-59v-589h-99v46q-40 -59 -113 -59q-75 0 -126.5 53t-51.5 143v176q0 92 50 144t125 52zM324 185v172q0 40 -22 66t-61 26q-40 0 -62 -25.5t-22 -66.5v-172q0 -41 22 -66.5t62 -25.5q39 0 61 26t22 66z" />
    <glyph glyph-name="Emacron" unicode="&#x112;" horiz-adv-x="507" 
d="M463 595h-272v-173h211v-115h-211v-192h272v-115h-394v710h394v-115zM408 871v-87h-279v87h279z" />
    <glyph glyph-name="emacron" unicode="&#x113;" horiz-adv-x="481" 
d="M241 555q91 0 144.5 -55.5t53.5 -140.5v-124h-282v-50q0 -41 23 -66.5t64 -25.5t64.5 23t23.5 59v4h111v-5q0 -82 -53.5 -134.5t-145.5 -52.5t-145.5 55.5t-53.5 140.5v176q0 85 53 140.5t143 55.5zM157 357v-24h170v24q0 41 -22.5 66.5t-63.5 25.5t-62.5 -25.5
t-21.5 -66.5zM381 703v-87h-279v87h279z" />
    <glyph glyph-name="Ebreve" unicode="&#x114;" horiz-adv-x="507" 
d="M463 595h-272v-173h211v-115h-211v-192h272v-115h-394v710h394v-115zM325 894h89q0 -54 -39 -86.5t-107 -32.5t-107 32.5t-39 86.5h90q0 -21 15 -33.5t41 -12.5q27 0 42 12.5t15 33.5z" />
    <glyph glyph-name="ebreve" unicode="&#x115;" horiz-adv-x="481" 
d="M241 555q91 0 144.5 -55.5t53.5 -140.5v-124h-282v-50q0 -41 23 -66.5t64 -25.5t64.5 23t23.5 59v4h111v-5q0 -82 -53.5 -134.5t-145.5 -52.5t-145.5 55.5t-53.5 140.5v176q0 85 53 140.5t143 55.5zM157 357v-24h170v24q0 41 -22.5 66.5t-63.5 25.5t-62.5 -25.5
t-21.5 -66.5zM298 726h89q0 -54 -39 -86.5t-107 -32.5t-107 32.5t-39 86.5h90q0 -21 15 -33.5t41 -12.5q27 0 42 12.5t15 33.5z" />
    <glyph glyph-name="Edotaccent" unicode="&#x116;" horiz-adv-x="507" 
d="M463 595h-272v-173h211v-115h-211v-192h272v-115h-394v710h394v-115zM327 900v-118h-119v118h119z" />
    <glyph glyph-name="edotaccent" unicode="&#x117;" horiz-adv-x="481" 
d="M241 555q91 0 144.5 -55.5t53.5 -140.5v-124h-282v-50q0 -41 23 -66.5t64 -25.5t64.5 23t23.5 59v4h111v-5q0 -82 -53.5 -134.5t-145.5 -52.5t-145.5 55.5t-53.5 140.5v176q0 85 53 140.5t143 55.5zM157 357v-24h170v24q0 41 -22.5 66.5t-63.5 25.5t-62.5 -25.5
t-21.5 -66.5zM300 732v-118h-119v118h119z" />
    <glyph glyph-name="Eogonek" unicode="&#x118;" horiz-adv-x="507" 
d="M463 595h-272v-173h211v-115h-211v-192h272v-115h-394v710h394v-115zM357 22l79 -22l-31 -26q-20 -17 -20 -32q0 -23 31 -23h27v-89h-60q-46 0 -71 23.5t-25 59.5q0 43 40 79z" />
    <glyph glyph-name="eogonek" unicode="&#x119;" horiz-adv-x="481" 
d="M241 555q91 0 144.5 -55.5t53.5 -140.5v-124h-282v-50q0 -41 23 -66.5t64 -25.5t64.5 23t23.5 59v4h111v-5q0 -82 -54 -135l-41 -60q-15 -24 -15 -37q0 -23 31 -23h27v-89h-60q-46 0 -71 23.5t-25 59.5q0 40 32 75q-4 0 -11.5 -0.5t-11.5 -0.5q-92 0 -145.5 55.5
t-53.5 140.5v176q0 85 53 140.5t143 55.5zM157 357v-24h170v24q0 41 -22.5 66.5t-63.5 25.5t-62.5 -25.5t-21.5 -66.5z" />
    <glyph glyph-name="Ecaron" unicode="&#x11a;" horiz-adv-x="507" 
d="M463 595h-272v-173h211v-115h-211v-192h272v-115h-394v710h394v-115zM426 893l-98 -113h-118l-98 113h121l36 -50l36 50h121z" />
    <glyph glyph-name="ecaron" unicode="&#x11b;" horiz-adv-x="481" 
d="M241 555q91 0 144.5 -55.5t53.5 -140.5v-124h-282v-50q0 -41 23 -66.5t64 -25.5t64.5 23t23.5 59v4h111v-5q0 -82 -53.5 -134.5t-145.5 -52.5t-145.5 55.5t-53.5 140.5v176q0 85 53 140.5t143 55.5zM157 357v-24h170v24q0 41 -22.5 66.5t-63.5 25.5t-62.5 -25.5
t-21.5 -66.5zM399 725l-98 -113h-118l-98 113h121l36 -50l36 50h121z" />
    <glyph glyph-name="Gcircumflex" unicode="&#x11c;" horiz-adv-x="584" 
d="M296 99q57 0 90 33t33 96v36h-129v113h241v-377h-100v52q-53 -68 -153 -68q-101 0 -163.5 67t-62.5 164v268q0 104 65.5 173.5t175.5 69.5q107 0 170.5 -67.5t63.5 -166.5v-10h-122v10q0 51 -30 85t-82 34q-55 0 -87 -36.5t-32 -91.5v-255q0 -59 31.5 -94t90.5 -35z
M134 780l98 113h118l98 -113h-121l-37 49l-35 -49h-121z" />
    <glyph glyph-name="gcircumflex" unicode="&#x11d;" horiz-adv-x="493" 
d="M223 555q72 0 112 -58v45h100v-529q0 -86 -52.5 -141.5t-140.5 -55.5q-84 0 -138 51.5t-54 128.5v4h112v-2q0 -34 22.5 -54.5t57.5 -20.5q38 0 59.5 24t21.5 68v45q-38 -35 -100 -35q-76 0 -127 52t-51 143v138q0 91 51.5 144t126.5 53zM324 223v134q0 40 -22 66t-61 26
q-40 0 -62 -26t-22 -67v-134q0 -40 22 -65.5t62 -25.5q39 0 61 26t22 66zM90 612l98 113h118l98 -113h-121l-37 49l-35 -49h-121z" />
    <glyph glyph-name="Gbreve" unicode="&#x11e;" horiz-adv-x="584" 
d="M296 99q57 0 90 33t33 96v36h-129v113h241v-377h-100v52q-53 -68 -153 -68q-101 0 -163.5 67t-62.5 164v268q0 104 65.5 173.5t175.5 69.5q107 0 170.5 -67.5t63.5 -166.5v-10h-122v10q0 51 -30 85t-82 34q-55 0 -87 -36.5t-32 -91.5v-255q0 -59 31.5 -94t90.5 -35z
M347 894h89q0 -54 -39 -86.5t-107 -32.5t-107 32.5t-39 86.5h90q0 -21 15 -33.5t41 -12.5q27 0 42 12.5t15 33.5z" />
    <glyph glyph-name="gbreve" unicode="&#x11f;" horiz-adv-x="493" 
d="M223 555q72 0 112 -58v45h100v-529q0 -86 -52.5 -141.5t-140.5 -55.5q-84 0 -138 51.5t-54 128.5v4h112v-2q0 -34 22.5 -54.5t57.5 -20.5q38 0 59.5 24t21.5 68v45q-38 -35 -100 -35q-76 0 -127 52t-51 143v138q0 91 51.5 144t126.5 53zM324 223v134q0 40 -22 66t-61 26
q-40 0 -62 -26t-22 -67v-134q0 -40 22 -65.5t62 -25.5q39 0 61 26t22 66zM303 726h89q0 -54 -39 -86.5t-107 -32.5t-107 32.5t-39 86.5h90q0 -21 15 -33.5t41 -12.5q27 0 42 12.5t15 33.5z" />
    <glyph glyph-name="Gdotaccent" unicode="&#x120;" horiz-adv-x="584" 
d="M296 99q57 0 90 33t33 96v36h-129v113h241v-377h-100v52q-53 -68 -153 -68q-101 0 -163.5 67t-62.5 164v268q0 104 65.5 173.5t175.5 69.5q107 0 170.5 -67.5t63.5 -166.5v-10h-122v10q0 51 -30 85t-82 34q-55 0 -87 -36.5t-32 -91.5v-255q0 -59 31.5 -94t90.5 -35z
M349 900v-118h-119v118h119z" />
    <glyph glyph-name="gdotaccent" unicode="&#x121;" horiz-adv-x="493" 
d="M223 555q72 0 112 -58v45h100v-529q0 -86 -52.5 -141.5t-140.5 -55.5q-84 0 -138 51.5t-54 128.5v4h112v-2q0 -34 22.5 -54.5t57.5 -20.5q38 0 59.5 24t21.5 68v45q-38 -35 -100 -35q-76 0 -127 52t-51 143v138q0 91 51.5 144t126.5 53zM324 223v134q0 40 -22 66t-61 26
q-40 0 -62 -26t-22 -67v-134q0 -40 22 -65.5t62 -25.5q39 0 61 26t22 66zM305 732v-118h-119v118h119z" />
    <glyph glyph-name="uni0122" unicode="&#x122;" horiz-adv-x="584" 
d="M296 99q57 0 90 33t33 96v36h-129v113h241v-377h-100v52q-53 -68 -153 -68q-101 0 -163.5 67t-62.5 164v268q0 104 65.5 173.5t175.5 69.5q107 0 170.5 -67.5t63.5 -166.5v-10h-122v10q0 51 -30 85t-82 34q-55 0 -87 -36.5t-32 -91.5v-255q0 -59 31.5 -94t90.5 -35z
M241 -216l42 77h-51v94h124v-81h1l-46 -90h-70z" />
    <glyph glyph-name="uni0123" unicode="&#x123;" horiz-adv-x="493" 
d="M223 555q72 0 112 -58v45h100v-529q0 -86 -52.5 -141.5t-140.5 -55.5q-84 0 -138 51.5t-54 128.5v4h112v-2q0 -34 22.5 -54.5t57.5 -20.5q38 0 59.5 24t21.5 68v45q-38 -35 -100 -35q-76 0 -127 52t-51 143v138q0 91 51.5 144t126.5 53zM324 223v134q0 40 -22 66t-61 26
q-40 0 -62 -26t-22 -67v-134q0 -40 22 -65.5t62 -25.5q39 0 61 26t22 66zM292 760l-34 -62h50v-86h-124v73l38 75h70z" />
    <glyph glyph-name="Hcircumflex" unicode="&#x124;" horiz-adv-x="611" 
d="M419 710h122v-710h-122v307h-228v-307h-122v710h122v-288h228v288zM149 780l98 113h118l98 -113h-121l-37 49l-35 -49h-121z" />
    <glyph glyph-name="hcircumflex" unicode="&#x125;" horiz-adv-x="497" 
d="M169 729v-217q40 43 106 43q79 0 123.5 -48.5t44.5 -121.5v-385h-112v357q0 43 -20.5 67.5t-60.5 24.5q-36 0 -57.5 -22.5t-23.5 -61.5v-365h-112v729h112zM94 766l98 113h118l98 -113h-121l-37 49l-35 -49h-121z" />
    <glyph glyph-name="Hbar" unicode="&#x126;" horiz-adv-x="628" 
d="M428 710h122v-97h63v-107h-63v-506h-122v307h-228v-307h-122v506h-62v108h62v96h122v-96l228 -1v97zM200 506v-84h228v84h-228z" />
    <glyph glyph-name="hbar" unicode="&#x127;" horiz-adv-x="497" 
d="M331 0v357q0 43 -20.5 67.5t-60.5 24.5q-38 0 -59.5 -25t-21.5 -67v-357h-112v589h-56v88h56v52h112v-52h95v-88h-95v-77q40 43 106 43q79 0 123.5 -48.5t44.5 -121.5v-385h-112z" />
    <glyph glyph-name="Itilde" unicode="&#x128;" horiz-adv-x="261" 
d="M69 710h122v-710h-122v710zM212 888h82q0 -46 -30 -79.5t-71 -33.5q-29 0 -57 15q-7 4 -17.5 11t-17.5 10t-14 3q-12 0 -19 -10.5t-7 -22.5h-82q0 47 30 80t71 33q33 0 61 -17q5 -3 15.5 -10t16.5 -9.5t13 -2.5q12 0 19 10.5t7 22.5z" />
    <glyph glyph-name="itilde" unicode="&#x129;" horiz-adv-x="227" 
d="M169 542v-542h-112v542h112zM197 721h82q0 -46 -30 -79.5t-71 -33.5q-29 0 -57 15q-7 4 -17.5 11t-17.5 10t-14 3q-12 0 -19 -10.5t-7 -22.5h-82q0 47 30 80t71 33q33 0 61 -17q5 -3 15.5 -10t16.5 -9.5t13 -2.5q12 0 19 10.5t7 22.5z" />
    <glyph glyph-name="Imacron" unicode="&#x12a;" horiz-adv-x="261" 
d="M69 710h122v-710h-122v710zM270 871v-87h-279v87h279z" />
    <glyph glyph-name="imacron" unicode="&#x12b;" horiz-adv-x="227" 
d="M169 542v-542h-112v542h112zM255 703v-87h-279v87h279z" />
    <glyph glyph-name="Ibreve" unicode="&#x12c;" horiz-adv-x="261" 
d="M69 710h122v-710h-122v710zM187 894h89q0 -54 -39 -86.5t-107 -32.5t-107 32.5t-39 86.5h90q0 -21 15 -33.5t41 -12.5q27 0 42 12.5t15 33.5z" />
    <glyph glyph-name="ibreve" unicode="&#x12d;" horiz-adv-x="227" 
d="M169 542v-542h-112v542h112zM172 726h89q0 -54 -39 -86.5t-107 -32.5t-107 32.5t-39 86.5h90q0 -21 15 -33.5t41 -12.5q27 0 42 12.5t15 33.5z" />
    <glyph glyph-name="Iogonek" unicode="&#x12e;" horiz-adv-x="261" 
d="M69 710h122v-710l-31 -26q-20 -17 -20 -32q0 -23 31 -23h27v-89h-60q-46 0 -71 23.5t-25 59.5q0 44 41 79l8 8h-22v710z" />
    <glyph glyph-name="iogonek" unicode="&#x12f;" horiz-adv-x="227" 
d="M169 542v-542l-31 -26q-20 -17 -20 -32q0 -23 31 -23h27v-89h-60q-46 0 -71 23.5t-25 59.5q0 44 41 79l8 8h-12v542h112zM173 732v-118h-119v118h119z" />
    <glyph glyph-name="Idotaccent" unicode="&#x130;" horiz-adv-x="261" 
d="M69 710h122v-710h-122v710zM188 900v-118h-119v118h119z" />
    <glyph glyph-name="dotlessi" unicode="&#x131;" horiz-adv-x="227" 
d="M169 542v-542h-112v542h112z" />
    <glyph glyph-name="Jcircumflex" unicode="&#x134;" horiz-adv-x="502" 
d="M314 710h123v-522q0 -88 -57 -146t-152 -58q-96 0 -152 58t-56 146v39h122v-40q0 -39 22.5 -63.5t63.5 -24.5t63.5 24.5t22.5 63.5v523zM219 780l98 113h118l98 -113h-121l-37 49l-35 -49h-121z" />
    <glyph glyph-name="jcircumflex" unicode="&#x135;" horiz-adv-x="227" 
d="M58 -16v558h112v-564q0 -64 -41 -106.5t-108 -42.5h-40v102h25q23 0 37.5 15t14.5 38zM-41 612l98 113h118l98 -113h-121l-37 49l-35 -49h-121z" />
    <glyph glyph-name="uni0136" unicode="&#x136;" horiz-adv-x="556" 
d="M395 710h142l-208 -308l225 -402h-141l-165 310l-57 -83v-227h-122v710h122v-312zM244 -216l42 77h-51v94h124v-81h1l-46 -90h-70z" />
    <glyph glyph-name="uni0137" unicode="&#x137;" horiz-adv-x="472" 
d="M342 0l-123 234l-50 -67v-167h-112v729h112v-408l159 221h131l-165 -230l176 -312h-128zM197 -216l42 77h-51v94h124v-81h1l-46 -90h-70z" />
    <glyph glyph-name="Lacute" unicode="&#x139;" horiz-adv-x="459" 
d="M191 710v-595h253v-115h-375v710h122zM279 897l-99 -117h-118l81 117h136z" />
    <glyph glyph-name="lacute" unicode="&#x13a;" horiz-adv-x="227" 
d="M57 729h112v-729h-112v729zM262 883l-99 -117h-118l81 117h136z" />
    <glyph glyph-name="uni013B" unicode="&#x13b;" horiz-adv-x="459" 
d="M191 710v-595h253v-115h-375v710h122zM204 -216l42 77h-51v94h124v-81h1l-46 -90h-70z" />
    <glyph glyph-name="uni013C" unicode="&#x13c;" horiz-adv-x="227" 
d="M57 729h112v-729h-112v729zM61 -216l42 77h-51v94h124v-81h1l-46 -90h-70z" />
    <glyph glyph-name="Lcaron" unicode="&#x13d;" horiz-adv-x="459" 
d="M191 710v-595h253v-115h-375v710h122zM381 710l-21 -206h-87l1 206h107z" />
    <glyph glyph-name="lcaron" unicode="&#x13e;" horiz-adv-x="319" 
d="M57 729h112v-729h-112v729zM334 710l-21 -206h-87l1 206h107z" />
    <glyph glyph-name="Ldot" unicode="&#x13f;" horiz-adv-x="459" 
d="M191 710v-595h253v-115h-375v710h122zM417 427v-118h-119v118h119z" />
    <glyph glyph-name="ldot" unicode="&#x140;" horiz-adv-x="347" 
d="M57 729h112v-729h-112v729zM347 426v-118h-119v118h119z" />
    <glyph glyph-name="Lslash" unicode="&#x141;" horiz-adv-x="471" 
d="M202 710v-279l147 45v-119l-147 -44v-198h253v-115h-375v283l-62 -19v119l62 18v309h122z" />
    <glyph glyph-name="lslash" unicode="&#x142;" horiz-adv-x="331" 
d="M110 729h112v-266l85 30v-107l-85 -29v-357h-112v323l-86 -29v106l86 30v299z" />
    <glyph glyph-name="Nacute" unicode="&#x143;" horiz-adv-x="625" 
d="M556 710v-710h-110l-255 466v-466h-122v710h114l251 -451v451h122zM461 897l-99 -117h-118l81 117h136z" />
    <glyph glyph-name="nacute" unicode="&#x144;" horiz-adv-x="497" 
d="M331 0v357q0 43 -20.5 67.5t-60.5 24.5q-38 0 -59 -25t-21 -67h-1v-357h-112v542h102v-49q40 62 118 62t122 -49t44 -124v-382h-112zM397 729l-99 -117h-118l81 117h136z" />
    <glyph glyph-name="uni0145" unicode="&#x145;" horiz-adv-x="625" 
d="M556 710v-710h-110l-255 466v-466h-122v710h114l251 -451v451h122zM259 -216l42 77h-51v94h124v-81h1l-46 -90h-70z" />
    <glyph glyph-name="uni0146" unicode="&#x146;" horiz-adv-x="497" 
d="M331 0v357q0 43 -20.5 67.5t-60.5 24.5q-38 0 -59 -25t-21 -67h-1v-357h-112v542h102v-49q40 62 118 62t122 -49t44 -124v-382h-112zM197 -216l42 77h-51v94h124v-81h1l-46 -90h-70z" />
    <glyph glyph-name="Ncaron" unicode="&#x147;" horiz-adv-x="625" 
d="M556 710v-710h-110l-255 466v-466h-122v710h114l251 -451v451h122zM471 893l-98 -113h-118l-98 113h121l36 -50l36 50h121z" />
    <glyph glyph-name="ncaron" unicode="&#x148;" horiz-adv-x="497" 
d="M331 0v357q0 43 -20.5 67.5t-60.5 24.5q-38 0 -59 -25t-21 -67h-1v-357h-112v542h102v-49q40 62 118 62t122 -49t44 -124v-382h-112zM407 725l-98 -113h-118l-98 113h121l36 -50l36 50h121z" />
    <glyph glyph-name="Eng" unicode="&#x14a;" horiz-adv-x="625" 
d="M556 710v-732q0 -64 -41 -106.5t-108 -42.5h-54v110h41q18 0 29 11.5t11 31.5v40l-243 444v-466h-122v710h114l251 -451v451h122z" />
    <glyph glyph-name="eng" unicode="&#x14b;" horiz-adv-x="498" 
d="M277 555q78 0 122 -49t44 -124v-404q0 -64 -41 -106.5t-108 -42.5h-39v102h24q23 0 37.5 15t14.5 38v373q0 43 -20.5 67.5t-60.5 24.5q-38 0 -59 -25t-21 -67h-1v-357h-112v542h102v-49q40 62 118 62z" />
    <glyph glyph-name="Omacron" unicode="&#x14c;" horiz-adv-x="594" 
d="M297 726q111 0 178 -69.5t67 -173.5v-255q0 -105 -66 -174.5t-179 -69.5q-111 0 -178 69.5t-67 174.5v255q0 104 67 173.5t178 69.5zM296 611q-57 0 -90 -36.5t-33 -91.5v-256q0 -56 32.5 -92t90.5 -36q59 0 91.5 36t32.5 92v256q0 55 -33 91.5t-91 36.5zM441 871v-87
h-279v87h279z" />
    <glyph glyph-name="omacron" unicode="&#x14d;" horiz-adv-x="485" 
d="M243 555q91 0 144.5 -55.5t53.5 -140.5v-176q0 -85 -53.5 -140.5t-144.5 -55.5t-144.5 55.5t-53.5 140.5v176q0 85 53.5 140.5t144.5 55.5zM329 185v172q0 40 -22.5 66t-63.5 26t-63.5 -26t-22.5 -66v-172q0 -40 22.5 -66t63.5 -26t63.5 26t22.5 66zM382 703v-87h-279v87
h279z" />
    <glyph glyph-name="Obreve" unicode="&#x14e;" horiz-adv-x="594" 
d="M297 726q111 0 178 -69.5t67 -173.5v-255q0 -105 -66 -174.5t-179 -69.5q-111 0 -178 69.5t-67 174.5v255q0 104 67 173.5t178 69.5zM296 611q-57 0 -90 -36.5t-33 -91.5v-256q0 -56 32.5 -92t90.5 -36q59 0 91.5 36t32.5 92v256q0 55 -33 91.5t-91 36.5zM358 894h89
q0 -54 -39 -86.5t-107 -32.5t-107 32.5t-39 86.5h90q0 -21 15 -33.5t41 -12.5q27 0 42 12.5t15 33.5z" />
    <glyph glyph-name="obreve" unicode="&#x14f;" horiz-adv-x="485" 
d="M243 555q91 0 144.5 -55.5t53.5 -140.5v-176q0 -85 -53.5 -140.5t-144.5 -55.5t-144.5 55.5t-53.5 140.5v176q0 85 53.5 140.5t144.5 55.5zM329 185v172q0 40 -22.5 66t-63.5 26t-63.5 -26t-22.5 -66v-172q0 -40 22.5 -66t63.5 -26t63.5 26t22.5 66zM299 726h89
q0 -54 -39 -86.5t-107 -32.5t-107 32.5t-39 86.5h90q0 -21 15 -33.5t41 -12.5q27 0 42 12.5t15 33.5z" />
    <glyph glyph-name="Ohungarumlaut" unicode="&#x150;" horiz-adv-x="594" 
d="M297 726q111 0 178 -69.5t67 -173.5v-255q0 -105 -66 -174.5t-179 -69.5q-111 0 -178 69.5t-67 174.5v255q0 104 67 173.5t178 69.5zM296 611q-57 0 -90 -36.5t-33 -91.5v-256q0 -56 32.5 -92t90.5 -36q59 0 91.5 36t32.5 92v256q0 55 -33 91.5t-91 36.5zM350 893
l-86 -113h-109l73 113h122zM531 893l-101 -113h-108l84 113h125z" />
    <glyph glyph-name="ohungarumlaut" unicode="&#x151;" horiz-adv-x="485" 
d="M243 555q91 0 144.5 -55.5t53.5 -140.5v-176q0 -85 -53.5 -140.5t-144.5 -55.5t-144.5 55.5t-53.5 140.5v176q0 85 53.5 140.5t144.5 55.5zM329 185v172q0 40 -22.5 66t-63.5 26t-63.5 -26t-22.5 -66v-172q0 -40 22.5 -66t63.5 -26t63.5 26t22.5 66zM291 725l-86 -113
h-109l73 113h122zM472 725l-101 -113h-108l84 113h125z" />
    <glyph glyph-name="OE" unicode="&#x152;" horiz-adv-x="858" 
d="M814 595h-271v-173h211v-115h-211v-192h271v-115h-385v43q-53 -59 -146 -59q-106 0 -168.5 70t-62.5 175v254q0 104 63 173.5t168 69.5q92 0 146 -61v45h385v-115zM296 611q-57 0 -90 -36.5t-33 -91.5v-255q0 -56 32.5 -92.5t90.5 -36.5q59 0 91.5 36.5t32.5 92.5v255
q0 55 -33 91.5t-91 36.5z" />
    <glyph glyph-name="oe" unicode="&#x153;" horiz-adv-x="766" 
d="M524 555q92 0 145 -55t53 -141v-124h-282v-50q0 -40 23 -65.5t64 -25.5t64.5 22.5t23.5 58.5v5h111v-6q0 -82 -53.5 -134.5t-145.5 -52.5t-143 59q-49 -59 -141 -59q-91 0 -144.5 55.5t-53.5 140.5v176q0 85 53.5 140.5t144.5 55.5q92 0 141 -59q51 59 140 59zM329 185
v172q0 40 -22.5 66t-63.5 26t-63.5 -26t-22.5 -66v-172q0 -40 22.5 -65.5t63.5 -25.5t63.5 25.5t22.5 65.5zM440 357v-24h170v24q0 41 -22.5 66.5t-63.5 25.5t-62.5 -25.5t-21.5 -66.5z" />
    <glyph glyph-name="Racute" unicode="&#x154;" horiz-adv-x="558" 
d="M69 710h209q106 0 160.5 -59.5t54.5 -141.5q0 -64 -36 -118.5t-105 -72.5l210 -318h-143l-193 308h-35v-308h-122v710zM278 596h-87v-174h87q44 0 68 23.5t24 63.5t-24 63.5t-68 23.5zM417 897l-99 -117h-118l81 117h136z" />
    <glyph glyph-name="racute" unicode="&#x155;" horiz-adv-x="328" 
d="M312 437h-33q-50 0 -79.5 -30t-29.5 -84h-1v-323h-112v542h102v-64q44 77 134 77h19v-118zM339 729l-99 -117h-118l81 117h136z" />
    <glyph glyph-name="uni0156" unicode="&#x156;" horiz-adv-x="558" 
d="M69 710h209q106 0 160.5 -59.5t54.5 -141.5q0 -64 -36 -118.5t-105 -72.5l210 -318h-143l-193 308h-35v-308h-122v710zM278 596h-87v-174h87q44 0 68 23.5t24 63.5t-24 63.5t-68 23.5zM238 -216l42 77h-51v94h124v-81h1l-46 -90h-70z" />
    <glyph glyph-name="uni0157" unicode="&#x157;" horiz-adv-x="328" 
d="M312 437h-33q-50 0 -79.5 -30t-29.5 -84h-1v-323h-112v542h102v-64q44 77 134 77h19v-118zM61 -216l42 77h-51v94h124v-81h1l-46 -90h-70z" />
    <glyph glyph-name="Rcaron" unicode="&#x158;" horiz-adv-x="558" 
d="M69 710h209q106 0 160.5 -59.5t54.5 -141.5q0 -64 -36 -118.5t-105 -72.5l210 -318h-143l-193 308h-35v-308h-122v710zM278 596h-87v-174h87q44 0 68 23.5t24 63.5t-24 63.5t-68 23.5zM427 893l-98 -113h-118l-98 113h121l36 -50l36 50h121z" />
    <glyph glyph-name="rcaron" unicode="&#x159;" horiz-adv-x="328" 
d="M312 437h-33q-50 0 -79.5 -30t-29.5 -84h-1v-323h-112v542h102v-64q44 77 134 77h19v-118zM349 725l-98 -113h-118l-98 113h121l36 -50l36 50h121z" />
    <glyph glyph-name="Sacute" unicode="&#x15a;" horiz-adv-x="543" 
d="M371 488v15q0 50 -31 79t-73 29q-39 0 -66.5 -21.5t-27.5 -58.5q0 -36 25.5 -59t72.5 -40l64 -24q83 -33 127 -82.5t44 -129.5q0 -97 -70 -154.5t-164 -57.5q-97 0 -167 62t-70 169v15h122v-14q0 -53 32 -85t83 -32q49 0 80.5 24t31.5 68q0 39 -27.5 63t-75.5 43l-65 24
q-84 33 -124.5 81t-40.5 123q0 88 61 144.5t155 56.5q95 0 159 -62t64 -155v-21h-119zM421 897l-99 -117h-118l81 117h136z" />
    <glyph glyph-name="sacute" unicode="&#x15b;" horiz-adv-x="452" 
d="M299 365v10q0 33 -20 53.5t-56 20.5q-35 0 -52.5 -15t-17.5 -36q0 -25 20 -38.5t66 -28.5l46 -16q63 -23 98.5 -60t35.5 -100q0 -74 -52 -121t-139 -47q-86 0 -140 50t-54 123v21h112v-9q0 -37 24 -58t61 -21q35 0 55.5 15.5t20.5 43.5q0 24 -21 38.5t-63 28.5l-48 17
q-65 23 -99.5 59.5t-34.5 100.5q0 69 50.5 114t131.5 45q74 0 131 -47t57 -134v-9h-112zM374 732l-99 -117h-118l81 117h136z" />
    <glyph glyph-name="Scircumflex" unicode="&#x15c;" horiz-adv-x="543" 
d="M371 488v15q0 50 -31 79t-73 29q-39 0 -66.5 -21.5t-27.5 -58.5q0 -36 25.5 -59t72.5 -40l64 -24q83 -33 127 -82.5t44 -129.5q0 -97 -70 -154.5t-164 -57.5q-97 0 -167 62t-70 169v15h122v-14q0 -53 32 -85t83 -32q49 0 80.5 24t31.5 68q0 39 -27.5 63t-75.5 43l-65 24
q-84 33 -124.5 81t-40.5 123q0 88 61 144.5t155 56.5q95 0 159 -62t64 -155v-21h-119zM117 780l98 113h118l98 -113h-121l-37 49l-35 -49h-121z" />
    <glyph glyph-name="scircumflex" unicode="&#x15d;" horiz-adv-x="452" 
d="M299 365v10q0 33 -20 53.5t-56 20.5q-35 0 -52.5 -15t-17.5 -36q0 -25 20 -38.5t66 -28.5l46 -16q63 -23 98.5 -60t35.5 -100q0 -74 -52 -121t-139 -47q-86 0 -140 50t-54 123v21h112v-9q0 -37 24 -58t61 -21q35 0 55.5 15.5t20.5 43.5q0 24 -21 38.5t-63 28.5l-48 17
q-65 23 -99.5 59.5t-34.5 100.5q0 69 50.5 114t131.5 45q74 0 131 -47t57 -134v-9h-112zM70 615l98 113h118l98 -113h-121l-37 49l-35 -49h-121z" />
    <glyph glyph-name="Scedilla" unicode="&#x15e;" horiz-adv-x="543" 
d="M371 488v15q0 50 -31 79t-73 29q-39 0 -66.5 -21.5t-27.5 -58.5q0 -36 25.5 -59t72.5 -40l64 -24q83 -33 127 -82.5t44 -129.5q0 -97 -70 -154.5t-164 -57.5q-97 0 -167 62t-70 169v15h122v-14q0 -53 32 -85t83 -32q49 0 80.5 24t31.5 68q0 39 -27.5 63t-75.5 43l-65 24
q-84 33 -124.5 81t-40.5 123q0 88 61 144.5t155 56.5q95 0 159 -62t64 -155v-21h-119zM287 -149h-114l48 154h109z" />
    <glyph glyph-name="scedilla" unicode="&#x15f;" horiz-adv-x="452" 
d="M299 365v10q0 33 -20 53.5t-56 20.5q-35 0 -52.5 -15t-17.5 -36q0 -25 20 -38.5t66 -28.5l46 -16q63 -23 98.5 -60t35.5 -100q0 -74 -52 -121t-139 -47q-86 0 -140 50t-54 123v21h112v-9q0 -37 24 -58t61 -21q35 0 55.5 15.5t20.5 43.5q0 24 -21 38.5t-63 28.5l-48 17
q-65 23 -99.5 59.5t-34.5 100.5q0 69 50.5 114t131.5 45q74 0 131 -47t57 -134v-9h-112zM245 -149h-104l59 194l88 -40z" />
    <glyph glyph-name="Scaron" unicode="&#x160;" horiz-adv-x="543" 
d="M371 488v15q0 50 -31 79t-73 29q-39 0 -66.5 -21.5t-27.5 -58.5q0 -36 25.5 -59t72.5 -40l64 -24q83 -33 127 -82.5t44 -129.5q0 -97 -70 -154.5t-164 -57.5q-97 0 -167 62t-70 169v15h122v-14q0 -53 32 -85t83 -32q49 0 80.5 24t31.5 68q0 39 -27.5 63t-75.5 43l-65 24
q-84 33 -124.5 81t-40.5 123q0 88 61 144.5t155 56.5q95 0 159 -62t64 -155v-21h-119zM431 893l-98 -113h-118l-98 113h121l36 -50l36 50h121z" />
    <glyph glyph-name="scaron" unicode="&#x161;" horiz-adv-x="452" 
d="M299 365v10q0 33 -20 53.5t-56 20.5q-35 0 -52.5 -15t-17.5 -36q0 -25 20 -38.5t66 -28.5l46 -16q63 -23 98.5 -60t35.5 -100q0 -74 -52 -121t-139 -47q-86 0 -140 50t-54 123v21h112v-9q0 -37 24 -58t61 -21q35 0 55.5 15.5t20.5 43.5q0 24 -21 38.5t-63 28.5l-48 17
q-65 23 -99.5 59.5t-34.5 100.5q0 69 50.5 114t131.5 45q74 0 131 -47t57 -134v-9h-112zM384 728l-98 -113h-118l-98 113h121l36 -50l36 50h121z" />
    <glyph glyph-name="uni0162" unicode="&#x162;" horiz-adv-x="497" 
d="M480 710v-115h-171v-595h-122v595h-171v115h464zM263 -149h-114l48 154h109z" />
    <glyph glyph-name="uni0163" unicode="&#x163;" horiz-adv-x="337" 
d="M303 441h-101v-283q0 -25 13.5 -38t35.5 -13h49v-107h-69q-62 0 -101.5 38t-39.5 96v307h-71v101h71v155h112v-155h101v-101zM205 -149h-104l59 194l88 -40z" />
    <glyph glyph-name="Tcaron" unicode="&#x164;" horiz-adv-x="497" 
d="M480 710v-115h-171v-595h-122v595h-171v115h464zM406 893l-98 -113h-118l-98 113h121l36 -50l36 50h121z" />
    <glyph glyph-name="tcaron" unicode="&#x165;" horiz-adv-x="337" 
d="M303 441h-101v-283q0 -25 13.5 -38t35.5 -13h49v-107h-69q-62 0 -101.5 38t-39.5 96v307h-71v101h71v155h112v-155h101v-101zM355 787l-21 -206h-87l1 206h107z" />
    <glyph glyph-name="Tbar" unicode="&#x166;" horiz-adv-x="509" 
d="M486 710v-115h-170v-180h96v-115h-96v-300h-122v300h-97v115h97v180h-172v115h464z" />
    <glyph glyph-name="tbar" unicode="&#x167;" horiz-adv-x="342" 
d="M306 441h-101v-77h101v-88h-101v-118q0 -25 13.5 -38t35.5 -13h49v-107h-69q-62 0 -101.5 38t-39.5 96v142h-71v88h71v77h-71v101h71v155h112v-155h101v-101z" />
    <glyph glyph-name="Utilde" unicode="&#x168;" horiz-adv-x="598" 
d="M412 710h122v-483q0 -105 -63.5 -174t-171.5 -69t-172 69t-64 174v483h122v-484q0 -56 30 -91.5t84 -35.5q53 0 83 35.5t30 91.5v484zM376 888h82q0 -46 -30 -79.5t-71 -33.5q-29 0 -57 15q-7 4 -17.5 11t-17.5 10t-14 3q-12 0 -19 -10.5t-7 -22.5h-82q0 47 30 80t71 33
q33 0 61 -17q5 -3 15.5 -10t16.5 -9.5t13 -2.5q12 0 19 10.5t7 22.5z" />
    <glyph glyph-name="utilde" unicode="&#x169;" horiz-adv-x="498" 
d="M166 542v-357q0 -92 82 -92q38 0 58.5 24.5t20.5 67.5h1v357h112v-542h-103v47q-41 -60 -117 -60q-78 0 -122 49t-44 124v382h112zM330 721h82q0 -46 -30 -79.5t-71 -33.5q-29 0 -57 15q-7 4 -17.5 11t-17.5 10t-14 3q-12 0 -19 -10.5t-7 -22.5h-82q0 47 30 80t71 33
q33 0 61 -17q5 -3 15.5 -10t16.5 -9.5t13 -2.5q12 0 19 10.5t7 22.5z" />
    <glyph glyph-name="Umacron" unicode="&#x16a;" horiz-adv-x="598" 
d="M412 710h122v-483q0 -105 -63.5 -174t-171.5 -69t-172 69t-64 174v483h122v-484q0 -56 30 -91.5t84 -35.5q53 0 83 35.5t30 91.5v484zM434 871v-87h-279v87h279z" />
    <glyph glyph-name="umacron" unicode="&#x16b;" horiz-adv-x="498" 
d="M166 542v-357q0 -92 82 -92q38 0 58.5 24.5t20.5 67.5h1v357h112v-542h-103v47q-41 -60 -117 -60q-78 0 -122 49t-44 124v382h112zM387 703v-87h-279v87h279z" />
    <glyph glyph-name="Ubreve" unicode="&#x16c;" horiz-adv-x="598" 
d="M412 710h122v-483q0 -105 -63.5 -174t-171.5 -69t-172 69t-64 174v483h122v-484q0 -56 30 -91.5t84 -35.5q53 0 83 35.5t30 91.5v484zM351 894h89q0 -54 -39 -86.5t-107 -32.5t-107 32.5t-39 86.5h90q0 -21 15 -33.5t41 -12.5q27 0 42 12.5t15 33.5z" />
    <glyph glyph-name="ubreve" unicode="&#x16d;" horiz-adv-x="498" 
d="M166 542v-357q0 -92 82 -92q38 0 58.5 24.5t20.5 67.5h1v357h112v-542h-103v47q-41 -60 -117 -60q-78 0 -122 49t-44 124v382h112zM304 726h89q0 -54 -39 -86.5t-107 -32.5t-107 32.5t-39 86.5h90q0 -21 15 -33.5t41 -12.5q27 0 42 12.5t15 33.5z" />
    <glyph glyph-name="Uring" unicode="&#x16e;" horiz-adv-x="598" 
d="M412 710h122v-483q0 -105 -63.5 -174t-171.5 -69t-172 69t-64 174v483h122v-484q0 -56 30 -91.5t84 -35.5q53 0 83 35.5t30 91.5v484zM295 762q-55 0 -88.5 28t-33.5 76q0 45 33.5 74t88.5 29q54 0 88 -29t34 -74q0 -48 -33.5 -76t-88.5 -28zM296 828q46 0 46 38
q0 15 -13 26t-33 11t-33 -11t-13 -26q0 -38 46 -38z" />
    <glyph glyph-name="uring" unicode="&#x16f;" horiz-adv-x="498" 
d="M166 542v-357q0 -92 82 -92q38 0 58.5 24.5t20.5 67.5h1v357h112v-542h-103v47q-41 -60 -117 -60q-78 0 -122 49t-44 124v382h112zM248 595q-55 0 -88.5 28t-33.5 76q0 45 33.5 74t88.5 29q54 0 88 -29t34 -74q0 -48 -33.5 -76t-88.5 -28zM249 661q46 0 46 38
q0 15 -13 26t-33 11t-33 -11t-13 -26q0 -38 46 -38z" />
    <glyph glyph-name="Uhungarumlaut" unicode="&#x170;" horiz-adv-x="598" 
d="M412 710h122v-483q0 -105 -63.5 -174t-171.5 -69t-172 69t-64 174v483h122v-484q0 -56 30 -91.5t84 -35.5q53 0 83 35.5t30 91.5v484zM343 893l-86 -113h-109l73 113h122zM524 893l-101 -113h-108l84 113h125z" />
    <glyph glyph-name="uhungarumlaut" unicode="&#x171;" horiz-adv-x="498" 
d="M166 542v-357q0 -92 82 -92q38 0 58.5 24.5t20.5 67.5h1v357h112v-542h-103v47q-41 -60 -117 -60q-78 0 -122 49t-44 124v382h112zM296 725l-86 -113h-109l73 113h122zM477 725l-101 -113h-108l84 113h125z" />
    <glyph glyph-name="Uogonek" unicode="&#x172;" horiz-adv-x="598" 
d="M412 710h122v-483q0 -70 -30 -126t-84 -87l-42 -38q-19 -19 -19 -34q0 -23 31 -23h27v-89h-60q-46 0 -71 23.5t-25 59.5q0 39 32 71q-105 2 -167.5 70.5t-62.5 172.5v483h122v-484q0 -56 30 -91.5t84 -35.5q53 0 83 35.5t30 91.5v484z" />
    <glyph glyph-name="uogonek" unicode="&#x173;" horiz-adv-x="498" 
d="M440 0l-31 -26q-20 -17 -20 -32q0 -23 31 -23h21v-89h-60q-46 0 -71 23.5t-25 59.5q0 43 40 79l12 12v43q-41 -60 -117 -60q-78 0 -122 49t-44 124v382h112v-357q0 -92 82 -92q38 0 58.5 24.5t20.5 67.5h1v357h112v-542z" />
    <glyph glyph-name="Wcircumflex" unicode="&#x174;" horiz-adv-x="859" 
d="M846 710l-160 -710h-131l-126 476l-125 -476h-131l-163 710h129l106 -492l124 492h120l126 -490l104 490h127zM273 780l98 113h118l98 -113h-121l-37 49l-35 -49h-121z" />
    <glyph glyph-name="wcircumflex" unicode="&#x175;" horiz-adv-x="714" 
d="M584 542h117l-138 -542h-112l-94 342l-93 -342h-113l-138 542h119l83 -376l93 376h98l94 -374zM202 612l98 113h118l98 -113h-121l-37 49l-35 -49h-121z" />
    <glyph glyph-name="Ycircumflex" unicode="&#x176;" horiz-adv-x="567" 
d="M565 710l-220 -357v-353h-122v348l-221 362h143l138 -236l136 236h146zM126 780l98 113h118l98 -113h-121l-37 49l-35 -49h-121z" />
    <glyph glyph-name="ycircumflex" unicode="&#x177;" horiz-adv-x="465" 
d="M466 542l-307 -712h-119l148 332l-175 380h127l104 -252l102 252h120zM88 612l98 113h118l98 -113h-121l-37 49l-35 -49h-121z" />
    <glyph glyph-name="Ydieresis" unicode="&#x178;" horiz-adv-x="567" 
d="M565 710l-220 -357v-353h-122v348l-221 362h143l138 -236l136 236h146zM251 893v-109h-114v109h114zM427 893v-109h-114v109h114z" />
    <glyph glyph-name="Zacute" unicode="&#x179;" horiz-adv-x="513" 
d="M475 710v-102l-294 -493h292v-115h-438v102l291 493h-281v115h430zM405 897l-99 -117h-118l81 117h136z" />
    <glyph glyph-name="zacute" unicode="&#x17a;" horiz-adv-x="435" 
d="M170 101h229v-101h-364v97l225 344h-218v101h353v-96zM364 729l-99 -117h-118l81 117h136z" />
    <glyph glyph-name="Zdotaccent" unicode="&#x17b;" horiz-adv-x="513" 
d="M475 710v-102l-294 -493h292v-115h-438v102l291 493h-281v115h430zM316 900v-118h-119v118h119z" />
    <glyph glyph-name="zdotaccent" unicode="&#x17c;" horiz-adv-x="435" 
d="M170 101h229v-101h-364v97l225 344h-218v101h353v-96zM275 732v-118h-119v118h119z" />
    <glyph glyph-name="Zcaron" unicode="&#x17d;" horiz-adv-x="513" 
d="M475 710v-102l-294 -493h292v-115h-438v102l291 493h-281v115h430zM415 893l-98 -113h-118l-98 113h121l36 -50l36 50h121z" />
    <glyph glyph-name="zcaron" unicode="&#x17e;" horiz-adv-x="435" 
d="M170 101h229v-101h-364v97l225 344h-218v101h353v-96zM374 725l-98 -113h-118l-98 113h121l36 -50l36 50h121z" />
    <glyph glyph-name="uni018F" unicode="&#x18f;" horiz-adv-x="576" 
d="M45 224v174h357v85q0 55 -31 91.5t-85 36.5q-52 0 -83.5 -36t-31.5 -89v-4h-122v3q0 103 64.5 172t172.5 69t173.5 -70t65.5 -173v-257q0 -103 -66.5 -172.5t-174.5 -69.5t-173.5 69t-65.5 171zM284 99q55 0 86.5 36.5t31.5 91.5v56h-235v-59q0 -53 32 -89t85 -36z" />
    <glyph glyph-name="florin" unicode="&#x192;" 
d="M424 405v-80h-108v-194q0 -57 -38.5 -94t-98.5 -37h-89v101h69q45 0 45 46v178h-107v80h107v174q0 57 39 94t99 37h89v-101h-69q-46 0 -46 -46v-158h108z" />
    <glyph glyph-name="uni0218" unicode="&#x218;" horiz-adv-x="543" 
d="M371 488v15q0 50 -31 79t-73 29q-39 0 -66.5 -21.5t-27.5 -58.5q0 -36 25.5 -59t72.5 -40l64 -24q83 -33 127 -82.5t44 -129.5q0 -97 -70 -154.5t-164 -57.5q-97 0 -167 62t-70 169v15h122v-14q0 -53 32 -85t83 -32q49 0 80.5 24t31.5 68q0 39 -27.5 63t-75.5 43l-65 24
q-84 33 -124.5 81t-40.5 123q0 88 61 144.5t155 56.5q95 0 159 -62t64 -155v-21h-119zM219 -216l42 77h-51v94h124v-81h1l-46 -90h-70z" />
    <glyph glyph-name="uni0219" unicode="&#x219;" horiz-adv-x="452" 
d="M299 365v10q0 33 -20 53.5t-56 20.5q-35 0 -52.5 -15t-17.5 -36q0 -25 20 -38.5t66 -28.5l46 -16q63 -23 98.5 -60t35.5 -100q0 -74 -52 -121t-139 -47q-86 0 -140 50t-54 123v21h112v-9q0 -37 24 -58t61 -21q35 0 55.5 15.5t20.5 43.5q0 24 -21 38.5t-63 28.5l-48 17
q-65 23 -99.5 59.5t-34.5 100.5q0 69 50.5 114t131.5 45q74 0 131 -47t57 -134v-9h-112zM175 -216l42 77h-51v94h124v-81h1l-46 -90h-70z" />
    <glyph glyph-name="uni021A" unicode="&#x21a;" horiz-adv-x="497" 
d="M480 710v-115h-171v-595h-122v595h-171v115h464zM195 -216l42 77h-51v94h124v-81h1l-46 -90h-70z" />
    <glyph glyph-name="uni021B" unicode="&#x21b;" horiz-adv-x="337" 
d="M303 441h-101v-283q0 -25 13.5 -38t35.5 -13h49v-107h-69q-62 0 -101.5 38t-39.5 96v307h-71v101h71v155h112v-155h101v-101zM136 -216l42 77h-51v94h124v-81h1l-46 -90h-70z" />
    <glyph glyph-name="uni0232" unicode="&#x232;" horiz-adv-x="567" 
d="M565 710l-220 -357v-353h-122v348l-221 362h143l138 -236l136 236h146zM422 871v-87h-279v87h279z" />
    <glyph glyph-name="uni0233" unicode="&#x233;" horiz-adv-x="465" 
d="M466 542l-307 -712h-119l148 332l-175 380h127l104 -252l102 252h120zM384 703v-87h-279v87h279z" />
    <glyph glyph-name="uni0237" unicode="&#x237;" horiz-adv-x="227" 
d="M58 -16v558h112v-564q0 -64 -41 -106.5t-108 -42.5h-40v102h25q23 0 37.5 15t14.5 38z" />
    <glyph glyph-name="uni0259" unicode="&#x259;" horiz-adv-x="480" 
d="M238 -13q-91 0 -144.5 55.5t-53.5 140.5v124h282v50q0 41 -22 66.5t-63 25.5q-40 0 -63 -23t-23 -59v-4h-111v5q0 81 53.5 134t143.5 53q91 0 144 -55t53 -141v-176q0 -85 -53 -140.5t-143 -55.5zM238 93q41 0 62.5 25.5t21.5 66.5v24h-170v-24q0 -41 22.5 -66.5
t63.5 -25.5z" />
    <glyph glyph-name="uni02BB" unicode="&#x2bb;" horiz-adv-x="252" 
d="M197 710v-129l-47 -147h-71l45 137h-68v139h141z" />
    <glyph glyph-name="uni02BC" unicode="&#x2bc;" horiz-adv-x="252" 
d="M56 434v129l47 147h71l-45 -137h68v-139h-141z" />
    <glyph glyph-name="circumflex" unicode="&#x2c6;" horiz-adv-x="600" 
d="M222 612l98 113h118l98 -113h-121l-37 49l-35 -49h-121z" />
    <glyph glyph-name="caron" unicode="&#x2c7;" horiz-adv-x="600" 
d="M504 725l-98 -113h-118l-98 113h121l36 -50l36 50h121z" />
    <glyph glyph-name="breve" unicode="&#x2d8;" horiz-adv-x="600" 
d="M296 726h89q0 -54 -39 -86.5t-107 -32.5t-107 32.5t-39 86.5h90q0 -21 15 -33.5t41 -12.5q27 0 42 12.5t15 33.5z" />
    <glyph glyph-name="dotaccent" unicode="&#x2d9;" horiz-adv-x="568" 
d="M168 732v-118h-119v118h119z" />
    <glyph glyph-name="ring" unicode="&#x2da;" horiz-adv-x="614" 
d="M344 595q-55 0 -88.5 28t-33.5 76q0 45 33.5 74t88.5 29q54 0 88 -29t34 -74q0 -48 -33.5 -76t-88.5 -28zM345 661q46 0 46 38q0 15 -13 26t-33 11t-33 -11t-13 -26q0 -38 46 -38z" />
    <glyph glyph-name="ogonek" unicode="&#x2db;" horiz-adv-x="423" 
d="M293 22l79 -22l-31 -26q-20 -17 -20 -32q0 -23 31 -23h27v-89h-60q-46 0 -71 23.5t-25 59.5q0 43 40 79z" />
    <glyph glyph-name="tilde" unicode="&#x2dc;" horiz-adv-x="602" 
d="M330 721h82q0 -46 -30 -79.5t-71 -33.5q-29 0 -57 15q-7 4 -17.5 11t-17.5 10t-14 3q-12 0 -19 -10.5t-7 -22.5h-82q0 47 30 80t71 33q33 0 61 -17q5 -3 15.5 -10t16.5 -9.5t13 -2.5q12 0 19 10.5t7 22.5z" />
    <glyph glyph-name="hungarumlaut" unicode="&#x2dd;" horiz-adv-x="600" 
d="M290 725l-86 -113h-109l73 113h122zM471 725l-101 -113h-108l84 113h125z" />
    <glyph glyph-name="uni0312" unicode="&#x312;" horiz-adv-x="0" 
d="M-396 760l-34 -62h50v-86h-124v73l38 75h70z" />
    <glyph glyph-name="uni0326" unicode="&#x326;" horiz-adv-x="436" 
d="M168 -216l42 77h-51v94h124v-81h1l-46 -90h-70z" />
    <glyph glyph-name="uni0394" unicode="&#x394;" horiz-adv-x="543" 
d="M520 0h-498v98l190 612h120l188 -612v-98zM271 533l-117 -418h235z" />
    <glyph glyph-name="uni03A9" unicode="&#x3a9;" horiz-adv-x="597" 
d="M53 115h119v57q-57 30 -88 87t-31 131v93q0 104 67 173.5t178 69.5t178 -69.5t67 -173.5v-93q0 -73 -30.5 -130t-86.5 -87v-58h119v-115h-218v260q45 8 70 42.5t25 80.5v100q0 55 -33 91.5t-91 36.5t-90.5 -36t-32.5 -92v-100q0 -47 25 -81t71 -42v-260h-218v115z" />
    <glyph glyph-name="uni03BC" unicode="&#x3bc;" horiz-adv-x="502" 
d="M444 0h-103v47q-41 -60 -117 -60q-31 0 -54 10v-168h-112v713h112v-360q2 -89 82 -89q35 0 56.5 22.5t23.5 61.5v365h112v-542z" />
    <glyph glyph-name="pi" unicode="&#x3c0;" horiz-adv-x="490" 
d="M432 542v-542h-112v441h-151v-441h-112v542h375z" />
    <glyph glyph-name="Wgrave" unicode="&#x1e80;" horiz-adv-x="859" 
d="M846 710l-160 -710h-131l-126 476l-125 -476h-131l-163 710h129l106 -492l124 492h120l126 -490l104 490h127zM280 897h136l81 -117h-118z" />
    <glyph glyph-name="wgrave" unicode="&#x1e81;" horiz-adv-x="714" 
d="M584 542h117l-138 -542h-112l-94 342l-93 -342h-113l-138 542h119l83 -376l93 376h98l94 -374zM208 729h136l81 -117h-118z" />
    <glyph glyph-name="Wacute" unicode="&#x1e82;" horiz-adv-x="859" 
d="M846 710l-160 -710h-131l-126 476l-125 -476h-131l-163 710h129l106 -492l124 492h120l126 -490l104 490h127zM578 897l-99 -117h-118l81 117h136z" />
    <glyph glyph-name="wacute" unicode="&#x1e83;" horiz-adv-x="714" 
d="M584 542h117l-138 -542h-112l-94 342l-93 -342h-113l-138 542h119l83 -376l93 376h98l94 -374zM506 729l-99 -117h-118l81 117h136z" />
    <glyph glyph-name="Wdieresis" unicode="&#x1e84;" horiz-adv-x="859" 
d="M846 710l-160 -710h-131l-126 476l-125 -476h-131l-163 710h129l106 -492l124 492h120l126 -490l104 490h127zM399 893v-109h-114v109h114zM575 893v-109h-114v109h114z" />
    <glyph glyph-name="wdieresis" unicode="&#x1e85;" horiz-adv-x="714" 
d="M584 542h117l-138 -542h-112l-94 342l-93 -342h-113l-138 542h119l83 -376l93 376h98l94 -374zM327 725v-109h-114v109h114zM503 725v-109h-114v109h114z" />
    <glyph glyph-name="Ygrave" unicode="&#x1ef2;" horiz-adv-x="567" 
d="M565 710l-220 -357v-353h-122v348l-221 362h143l138 -236l136 236h146zM133 897h136l81 -117h-118z" />
    <glyph glyph-name="ygrave" unicode="&#x1ef3;" horiz-adv-x="465" 
d="M466 542l-307 -712h-119l148 332l-175 380h127l104 -252l102 252h120zM95 729h136l81 -117h-118z" />
    <glyph glyph-name="uni2007" unicode="&#x2007;" 
 />
    <glyph glyph-name="uni2008" unicode="&#x2008;" horiz-adv-x="245" 
 />
    <glyph glyph-name="uni2009" unicode="&#x2009;" horiz-adv-x="100" 
 />
    <glyph glyph-name="uni200B" unicode="&#x200b;" horiz-adv-x="0" 
 />
    <glyph glyph-name="uni2010" unicode="&#x2010;" horiz-adv-x="338" 
d="M59 373h219v-106h-219v106z" />
    <glyph glyph-name="uni2011" unicode="&#x2011;" horiz-adv-x="338" 
d="M59 373h219v-106h-219v106z" />
    <glyph glyph-name="figuredash" unicode="&#x2012;" 
d="M52 371h398v-102h-398v102z" />
    <glyph glyph-name="endash" unicode="&#x2013;" horiz-adv-x="515" 
d="M58 371h398v-102h-398v102z" />
    <glyph glyph-name="emdash" unicode="&#x2014;" horiz-adv-x="630" 
d="M58 371h513v-102h-513v102z" />
    <glyph glyph-name="quoteleft" unicode="&#x2018;" horiz-adv-x="239" 
d="M49 434v129l47 147h71l-46 -137h69v-139h-141z" />
    <glyph glyph-name="quoteright" unicode="&#x2019;" horiz-adv-x="232" 
d="M188 710v-129l-47 -147h-71l45 137h-68v139h141z" />
    <glyph glyph-name="quotesinglbase" unicode="&#x201a;" horiz-adv-x="251" 
d="M196 139v-129l-47 -147h-71l45 137h-68v139h141z" />
    <glyph glyph-name="quotedblleft" unicode="&#x201c;" horiz-adv-x="429" 
d="M49 434v129l47 147h71l-46 -137h69v-139h-141zM239 434v129l47 147h71l-46 -137h69v-139h-141z" />
    <glyph glyph-name="quotedblright" unicode="&#x201d;" horiz-adv-x="422" 
d="M378 710v-129l-47 -147h-71l45 137h-68v139h141zM188 710v-129l-47 -147h-71l45 137h-68v139h141z" />
    <glyph glyph-name="quotedblbase" unicode="&#x201e;" horiz-adv-x="441" 
d="M386 139v-129l-47 -147h-71l45 137h-68v139h141zM196 139v-129l-47 -147h-71l45 137h-68v139h141z" />
    <glyph glyph-name="dagger" unicode="&#x2020;" horiz-adv-x="355" 
d="M223 376h-92v174h-78v87h78v72h92v-72h78v-87h-78v-174z" />
    <glyph glyph-name="daggerdbl" unicode="&#x2021;" horiz-adv-x="355" 
d="M223 376h-92v60h-78v80h78v53h-78v80h78v60h92v-60h78v-80h-78v-53h78v-80h-78v-60z" />
    <glyph glyph-name="bullet" unicode="&#x2022;" horiz-adv-x="355" 
d="M277 420v-198h-198v198h198z" />
    <glyph glyph-name="ellipsis" unicode="&#x2026;" horiz-adv-x="657" 
d="M395 139v-139h-137v139h137zM601 139v-139h-137v139h137zM191 139v-139h-137v139h137z" />
    <glyph glyph-name="perthousand" unicode="&#x2030;" horiz-adv-x="995" 
d="M175 428q-63 0 -106 42.5t-43 104.5q0 63 43 105.5t106 42.5t106 -42.5t43 -105.5q0 -62 -43 -104.5t-106 -42.5zM175 515q26 0 42.5 17t16.5 43q0 27 -16.5 43.5t-42.5 16.5t-42 -16.5t-16 -43.5q0 -26 16 -43t42 -17zM496 -13q-63 0 -106 42.5t-43 104.5q0 63 43 105.5
t106 42.5t106 -42.5t43 -105.5q0 -62 -43 -104.5t-106 -42.5zM496 74q26 0 42.5 17t16.5 43q0 27 -16.5 43.5t-42.5 16.5t-42 -16.5t-16 -43.5q0 -26 16 -43t42 -17zM466 710h109l-371 -710h-108zM822 -13q-63 0 -106 42.5t-43 104.5q0 63 43 105.5t106 42.5t106 -42.5
t43 -105.5q0 -62 -43 -104.5t-106 -42.5zM821 74q26 0 42.5 17t16.5 43q0 27 -16.5 43.5t-42.5 16.5t-42 -16.5t-16 -43.5q0 -26 16 -43t42 -17z" />
    <glyph glyph-name="minute" unicode="&#x2032;" horiz-adv-x="232" 
d="M84 710h110l-41 -294h-110z" />
    <glyph glyph-name="second" unicode="&#x2033;" horiz-adv-x="406" 
d="M258 710h110l-41 -294h-110zM84 710h110l-41 -294h-110z" />
    <glyph glyph-name="uni2034" unicode="&#x2034;" horiz-adv-x="559" 
d="M246 710h110l-41 -294h-110zM409 710h110l-41 -294h-110zM84 710h110l-41 -294h-110z" />
    <glyph glyph-name="guilsinglleft" unicode="&#x2039;" horiz-adv-x="317" 
d="M188 520l69 -60l-125 -140l125 -140l-69 -60l-177 200z" />
    <glyph glyph-name="guilsinglright" unicode="&#x203a;" horiz-adv-x="317" 
d="M113 120l-69 60l125 140l-125 140l69 60l177 -200z" />
    <glyph glyph-name="fraction" unicode="&#x2044;" horiz-adv-x="162" 
d="M249 710h89l-422 -710h-88z" />
    <glyph glyph-name="Euro" unicode="&#x20ac;" 
d="M338 260h-132v-88q0 -33 19 -53.5t48 -20.5q30 0 49 20.5t19 53.5v50h121v-49q0 -80 -54 -134t-135 -54q-79 0 -133 54t-54 134v87h-54v80h54v50h-54v80h54v68q0 80 54 134t133 54q81 0 135 -54t54 -134v-40h-121v42q0 32 -19 52t-49 20q-29 0 -48 -20t-19 -52v-70h132
v-80h-132v-50h132v-80z" />
    <glyph glyph-name="uni20BA" unicode="&#x20ba;" 
d="M357 315l-130 -43v-158h46q36 0 56 22.5t20 58.5v54h122v-53q0 -85 -53.5 -140.5t-144.5 -55.5h-168v232l-54 -17v82l54 17v56l-54 -17v83l54 17v257h122v-217l130 43v-83l-130 -43v-56l130 43v-82z" />
    <glyph glyph-name="uni20BC" unicode="&#x20bc;" 
d="M214 0v621q-55 -22 -55 -84v-537h-103v537q0 69 43 120t111 65v108h82v-109q67 -14 109.5 -64.5t42.5 -119.5v-537h-104v537q0 61 -52 83v-620h-74z" />
    <glyph glyph-name="uni2117" unicode="&#x2117;" horiz-adv-x="688" 
d="M343 44q-129 0 -215.5 89.5t-86.5 221.5t86.5 221.5t215.5 89.5t215.5 -89.5t86.5 -221.5t-86.5 -221.5t-215.5 -89.5zM343 120q96 0 158 65t62 170t-62 170t-158 65t-158 -65t-62 -170t62 -170t158 -65zM253 533h105q56 0 90 -30.5t34 -83.5t-34 -83.5t-90 -30.5h-21
v-124h-84v352zM360 453h-23v-68h23q36 0 36 34t-36 34z" />
    <glyph glyph-name="trademark" unicode="&#x2122;" horiz-adv-x="624" 
d="M413 493l-60 81v-180h-72v316h48l91 -123l92 123h48v-316h-72v181l-61 -82h-14zM244 710v-67h-69v-249h-72v249h-70v67h211z" />
    <glyph glyph-name="onethird" unicode="&#x2153;" horiz-adv-x="639" 
d="M467 710h89l-422 -710h-88zM607 279l-68 -70q35 -8 55.5 -33.5t20.5 -59.5v-24q0 -42 -31 -71.5t-76 -29.5t-76 29.5t-31 71.5v13h72v-13q0 -14 10 -23.5t25 -9.5q14 0 24.5 9.5t10.5 23.5v24q0 14 -11.5 24.5t-28.5 10.5h-52l1 53l66 69h-110v66h199v-60zM204 439v-67
h-176v67h55v204h-60v67h131v-271h50z" />
    <glyph glyph-name="twothirds" unicode="&#x2154;" horiz-adv-x="675" 
d="M503 710h89l-422 -710h-88zM643 279l-68 -70q35 -8 55.5 -33.5t20.5 -59.5v-24q0 -42 -31 -71.5t-76 -29.5t-76 29.5t-31 71.5v13h72v-13q0 -14 10 -23.5t25 -9.5q14 0 24.5 9.5t10.5 23.5v24q0 14 -11.5 24.5t-28.5 10.5h-52l1 53l66 69h-110v66h199v-60zM227 439v-67
h-200v60l119 153q10 16 10 32q0 15 -9 24t-22 9q-32 0 -32 -33v-14h-72v14q0 43 29.5 71.5t74.5 28.5t74 -28.5t29 -71.5q0 -40 -21 -66l-88 -112h108z" />
    <glyph glyph-name="arrowleft" unicode="&#x2190;" horiz-adv-x="600" 
d="M259 163l-218 157l218 157v-106h289v-102h-289v-106z" />
    <glyph glyph-name="arrowup" unicode="&#x2191;" horiz-adv-x="600" 
d="M143 350l157 218l157 -218h-107v-288h-101v288h-106z" />
    <glyph glyph-name="arrowright" unicode="&#x2192;" horiz-adv-x="600" 
d="M341 477l218 -157l-218 -157v106h-288v102h288v106z" />
    <glyph glyph-name="arrowdown" unicode="&#x2193;" horiz-adv-x="600" 
d="M457 290l-157 -218l-157 218h106v288h101v-288h107z" />
    <glyph glyph-name="uni2196" unicode="&#x2196;" horiz-adv-x="600" 
d="M149 230l-43 266l265 -44l-75 -75l205 -204l-72 -72l-204 205z" />
    <glyph glyph-name="uni2197" unicode="&#x2197;" horiz-adv-x="600" 
d="M225 452l265 43l-43 -265l-76 75l-203 -204l-72 72l204 204z" />
    <glyph glyph-name="uni2198" unicode="&#x2198;" horiz-adv-x="600" 
d="M450 392l43 -265l-265 43l75 75l-204 204l72 72l203 -205z" />
    <glyph glyph-name="uni2199" unicode="&#x2199;" horiz-adv-x="600" 
d="M372 170l-265 -43l43 265l75 -76l204 205l72 -72l-204 -204z" />
    <glyph glyph-name="partialdiff" unicode="&#x2202;" horiz-adv-x="485" 
d="M180 729l204 -225q56 -62 56 -145v-176q0 -85 -53.5 -140.5t-144.5 -55.5t-144.5 55.5t-53.5 140.5v172q0 76 43 127.5t120 62.5l-173 184h146zM328 185v172q0 40 -22.5 66t-63.5 26t-63.5 -26t-22.5 -66v-172q0 -40 22.5 -66t63.5 -26t63.5 26t22.5 66z" />
    <glyph glyph-name="emptyset" unicode="&#x2205;" horiz-adv-x="543" 
d="M107 90l-65 65l44 44q-36 55 -36 121q0 91 64.5 155t156.5 64q67 0 120 -35l46 46l65 -65l-45 -45q36 -55 36 -120q0 -91 -65 -155t-157 -64q-62 0 -119 34zM143 320q0 -26 11 -53l171 171q-25 13 -54 13q-53 0 -90.5 -38.5t-37.5 -92.5zM271 189q54 0 91.5 38.5
t37.5 92.5q0 25 -11 52l-171 -171q24 -12 53 -12z" />
    <glyph glyph-name="product" unicode="&#x220f;" horiz-adv-x="595" 
d="M72 710h450v-881h-122v766h-206v-766h-122v881z" />
    <glyph glyph-name="summation" unicode="&#x2211;" horiz-adv-x="487" 
d="M443 710v-115h-259l195 -319l-202 -332h279v-115h-425v102l212 345l-206 332v102h406z" />
    <glyph glyph-name="minus" unicode="&#x2212;" 
d="M74 366h351v-92h-351v92z" />
    <glyph glyph-name="radical" unicode="&#x221a;" horiz-adv-x="529" 
d="M528 729l-250 -729h-119l-148 385h127l79 -223l182 567h129z" />
    <glyph glyph-name="infinity" unicode="&#x221e;" horiz-adv-x="767" 
d="M725 320q0 -82 -47.5 -136.5t-120.5 -54.5q-50 0 -90 28t-84 84q-43 -56 -83 -84t-90 -28q-73 0 -120.5 54.5t-47.5 136.5t47.5 136.5t120.5 54.5q50 0 90 -28.5t83 -84.5q44 56 84 84.5t90 28.5q73 0 120.5 -54.5t47.5 -136.5zM137 320q0 -45 20 -71.5t53 -26.5
q22 0 47.5 20t68.5 78q-43 58 -68.5 78t-47.5 20q-33 0 -53 -26.5t-20 -71.5zM629 320q0 45 -20 71.5t-52 26.5q-22 0 -48 -20.5t-69 -77.5q43 -57 69 -77.5t48 -20.5q32 0 52 26.5t20 71.5z" />
    <glyph glyph-name="integral" unicode="&#x222b;" horiz-adv-x="321" 
d="M242 710h59v-101h-39q-46 0 -46 -46v-603q0 -57 -38.5 -94t-98.5 -37h-59v101h39q45 0 45 46v603q0 57 39 94t99 37z" />
    <glyph glyph-name="approxequal" unicode="&#x2248;" 
d="M354 305h91v-25q0 -62 -31.5 -97t-81.5 -35q-53 0 -100 41q-3 3 -9 7.5t-8.5 7t-7 5.5t-6.5 4.5t-5.5 3.5t-6 2.5t-5.5 0.5q-27 0 -27 -65l-91 -1v26q0 63 31 97.5t82 34.5q53 0 100 -41q34 -31 48 -31q27 0 27 65zM354 494h91v-25q0 -62 -31.5 -97t-81.5 -35
q-53 0 -100 41q-3 3 -9 7.5t-8.5 7t-7 5.5t-6.5 4.5t-5.5 3.5t-6 2.5t-5.5 0.5q-27 0 -27 -65l-91 -1v26q0 63 31 97.5t82 34.5q53 0 100 -41q34 -31 48 -31q27 0 27 65z" />
    <glyph glyph-name="notequal" unicode="&#x2260;" 
d="M74 359v93h175l40 109h98l-40 -109h78v-93h-112l-28 -78h140v-93h-174l-40 -109h-97l39 109h-79v93h113l29 78h-142z" />
    <glyph glyph-name="lessequal" unicode="&#x2264;" 
d="M82 342v82l330 136v-104l-204 -73l204 -73v-105zM82 175h331v-92h-331v92z" />
    <glyph glyph-name="greaterequal" unicode="&#x2265;" 
d="M417 342l-330 -137v105l205 73l-205 73v104l330 -136v-82zM87 175h331v-92h-331v92z" />
    <glyph glyph-name="lozenge" unicode="&#x25ca;" horiz-adv-x="637" 
d="M267 0l-246 355l248 355h98l246 -355l-245 -355h-101zM471 355l-153 222l-154 -222l154 -223z" />
    <glyph glyph-name="fi" unicode="&#xfb01;" horiz-adv-x="550" 
d="M307 542v-101h-105v-441h-112v441h-69v101h69v61q0 57 39 94t98 37h80v-101h-59q-46 0 -46 -46v-45h105zM492 542v-542h-112v542h112zM496 732v-118h-119v118h119z" />
    <glyph glyph-name="fl" unicode="&#xfb02;" horiz-adv-x="550" 
d="M307 542v-101h-105v-441h-112v441h-69v101h69v61q0 57 39 94t98 37h80v-101h-59q-46 0 -46 -46v-45h105zM380 729h112v-729h-112v729z" />
    <glyph glyph-name="uniFEFF" unicode="&#xfeff;" horiz-adv-x="0" 
 />
    <glyph glyph-name="_126" horiz-adv-x="567" 
d="M561 0h-128l-43 150h-215l-42 -150h-129l219 710h121zM282 533l-75 -268h151zM534 710v-118h-119v118h119zM152 710v-118h-119v118h119z" />
    <glyph glyph-name="_127" horiz-adv-x="594" 
d="M297 726q111 0 178 -69.5t67 -173.5v-255q0 -105 -66 -174.5t-179 -69.5q-111 0 -178 69.5t-67 174.5v255q0 104 67 173.5t178 69.5zM296 611q-57 0 -90 -36.5t-33 -91.5v-256q0 -56 32.5 -92t90.5 -36q59 0 91.5 36t32.5 92v256q0 55 -33 91.5t-91 36.5zM356 547v-118
h-119v118h119zM356 387v-118h-119v118h119z" />
    <glyph glyph-name="_128" horiz-adv-x="598" 
d="M412 710h122v-483q0 -105 -63.5 -174t-171.5 -69t-172 69t-64 174v483h122v-484q0 -56 30 -91.5t84 -35.5q53 0 83 35.5t30 91.5v484zM359 710v-118h-119v118h119zM359 550v-118h-119v118h119z" />
    <glyph glyph-name="_129" horiz-adv-x="571" 
d="M69 710h236q106 0 158.5 -56.5t52.5 -135.5q0 -95 -75 -140q90 -56 90 -165q0 -90 -56.5 -151.5t-159.5 -61.5h-246v710zM310 309h-119v-195h119q45 0 71 26t26 73q0 43 -26.5 69.5t-70.5 26.5zM300 596h-109v-174h109q44 0 68.5 23.5t24.5 63.5t-24.5 63.5t-68.5 23.5z
" />
    <glyph glyph-name="_130" horiz-adv-x="577" 
d="M292 99q53 0 85.5 36t32.5 89v52h-118v115h240v-167q0 -102 -65.5 -171t-174.5 -69q-108 0 -174 69.5t-66 172.5v257q0 104 65 173.5t173 69.5t172.5 -69t64.5 -172v-3h-122v4q0 53 -31 89t-84 36q-54 0 -85 -36.5t-31 -91.5v-256q0 -55 31.5 -91.5t86.5 -36.5z" />
    <glyph glyph-name="_131" horiz-adv-x="577" 
d="M292 99q53 0 85.5 36t32.5 89v52h-118v115h240v-167q0 -102 -65.5 -171t-174.5 -69q-108 0 -174 69.5t-66 172.5v257q0 104 65 173.5t173 69.5t172.5 -69t64.5 -172v-3h-122v4q0 53 -31 89t-84 36q-54 0 -85 -36.5t-31 -91.5v-256q0 -55 31.5 -91.5t86.5 -36.5zM347 894
h89q0 -54 -39 -86.5t-107 -32.5t-107 32.5t-39 86.5h90q0 -21 15 -33.5t41 -12.5q27 0 42 12.5t15 33.5z" />
    <glyph glyph-name="_132" horiz-adv-x="577" 
d="M292 99q53 0 85.5 36t32.5 89v52h-118v115h240v-167q0 -102 -65.5 -171t-174.5 -69q-108 0 -174 69.5t-66 172.5v257q0 104 65 173.5t173 69.5t172.5 -69t64.5 -172v-3h-122v4q0 53 -31 89t-84 36q-54 0 -85 -36.5t-31 -91.5v-256q0 -55 31.5 -91.5t86.5 -36.5zM241 -216
l42 77h-51v94h124v-81h1l-46 -90h-70z" />
    <glyph glyph-name="_133" horiz-adv-x="577" 
d="M292 99q53 0 85.5 36t32.5 89v52h-118v115h240v-167q0 -102 -65.5 -171t-174.5 -69q-108 0 -174 69.5t-66 172.5v257q0 104 65 173.5t173 69.5t172.5 -69t64.5 -172v-3h-122v4q0 53 -31 89t-84 36q-54 0 -85 -36.5t-31 -91.5v-256q0 -55 31.5 -91.5t86.5 -36.5zM349 900
v-118h-119v118h119z" />
    <glyph glyph-name="_134" horiz-adv-x="544" 
d="M69 710h204q110 0 167 -62.5t57 -147.5q0 -62 -31.5 -115t-93.5 -77l155 -308h-140l-136 291h-60v-291h-122v710zM274 596h-83v-191h83q48 0 74 25t26 70t-26 70.5t-74 25.5z" />
    <glyph glyph-name="_135" horiz-adv-x="544" 
d="M69 710h204q110 0 167 -62.5t57 -147.5q0 -62 -31.5 -115t-93.5 -77l155 -308h-140l-136 291h-60v-291h-122v710zM274 596h-83v-191h83q48 0 74 25t26 70t-26 70.5t-74 25.5zM417 897l-99 -117h-118l81 117h136z" />
    <glyph glyph-name="_136" horiz-adv-x="544" 
d="M69 710h204q110 0 167 -62.5t57 -147.5q0 -62 -31.5 -115t-93.5 -77l155 -308h-140l-136 291h-60v-291h-122v710zM274 596h-83v-191h83q48 0 74 25t26 70t-26 70.5t-74 25.5zM427 893l-98 -113h-118l-98 113h121l36 -50l36 50h121z" />
    <glyph glyph-name="_137" horiz-adv-x="544" 
d="M69 710h204q110 0 167 -62.5t57 -147.5q0 -62 -31.5 -115t-93.5 -77l155 -308h-140l-136 291h-60v-291h-122v710zM274 596h-83v-191h83q48 0 74 25t26 70t-26 70.5t-74 25.5zM238 -216l42 77h-51v94h124v-81h1l-46 -90h-70z" />
    <glyph glyph-name="_266" horiz-adv-x="493" 
d="M336 542h99v-542h-99v46q-40 -59 -113 -59q-75 0 -126.5 53t-51.5 143v176q0 90 51.5 143t126.5 53q73 0 113 -59v46zM241 449q-40 0 -62 -25.5t-22 -66.5v-172q0 -41 22 -66.5t62 -25.5q39 0 61 26t22 66v172q0 40 -22 66t-61 26z" />
    <glyph glyph-name="_267" horiz-adv-x="493" 
d="M336 542h99v-542h-99v46q-40 -59 -113 -59q-75 0 -126.5 53t-51.5 143v176q0 90 51.5 143t126.5 53q73 0 113 -59v46zM241 449q-40 0 -62 -25.5t-22 -66.5v-172q0 -41 22 -66.5t62 -25.5q39 0 61 26t22 66v172q0 40 -22 66t-61 26zM394 729l-99 -117h-118l81 117h136z
" />
    <glyph glyph-name="_268" horiz-adv-x="493" 
d="M336 542h99v-542h-99v46q-40 -59 -113 -59q-75 0 -126.5 53t-51.5 143v176q0 90 51.5 143t126.5 53q73 0 113 -59v46zM241 449q-40 0 -62 -25.5t-22 -66.5v-172q0 -41 22 -66.5t62 -25.5q39 0 61 26t22 66v172q0 40 -22 66t-61 26zM303 726h89q0 -54 -39 -86.5
t-107 -32.5t-107 32.5t-39 86.5h90q0 -21 15 -33.5t41 -12.5q27 0 42 12.5t15 33.5z" />
    <glyph glyph-name="_269" horiz-adv-x="493" 
d="M336 542h99v-542h-99v46q-40 -59 -113 -59q-75 0 -126.5 53t-51.5 143v176q0 90 51.5 143t126.5 53q73 0 113 -59v46zM241 449q-40 0 -62 -25.5t-22 -66.5v-172q0 -41 22 -66.5t62 -25.5q39 0 61 26t22 66v172q0 40 -22 66t-61 26zM90 612l98 113h118l98 -113h-121
l-37 49l-35 -49h-121z" />
    <glyph glyph-name="_270" horiz-adv-x="493" 
d="M336 542h99v-542h-99v46q-40 -59 -113 -59q-75 0 -126.5 53t-51.5 143v176q0 90 51.5 143t126.5 53q73 0 113 -59v46zM241 449q-40 0 -62 -25.5t-22 -66.5v-172q0 -41 22 -66.5t62 -25.5q39 0 61 26t22 66v172q0 40 -22 66t-61 26zM215 725v-109h-114v109h114zM391 725
v-109h-114v109h114z" />
    <glyph glyph-name="_271" horiz-adv-x="493" 
d="M336 542h99v-542h-99v46q-40 -59 -113 -59q-75 0 -126.5 53t-51.5 143v176q0 90 51.5 143t126.5 53q73 0 113 -59v46zM241 449q-40 0 -62 -25.5t-22 -66.5v-172q0 -41 22 -66.5t62 -25.5q39 0 61 26t22 66v172q0 40 -22 66t-61 26zM97 729h136l81 -117h-118z" />
    <glyph glyph-name="_272" horiz-adv-x="493" 
d="M336 542h99v-542h-99v46q-40 -59 -113 -59q-75 0 -126.5 53t-51.5 143v176q0 90 51.5 143t126.5 53q73 0 113 -59v46zM241 449q-40 0 -62 -25.5t-22 -66.5v-172q0 -41 22 -66.5t62 -25.5q39 0 61 26t22 66v172q0 40 -22 66t-61 26zM386 703v-87h-279v87h279z" />
    <glyph glyph-name="_273" horiz-adv-x="493" 
d="M335 542h100v-542l-31 -26q-20 -17 -20 -32q0 -23 31 -23h21v-89h-60q-46 0 -71 23.5t-25 59.5q0 43 40 79l15 15v38q-40 -58 -112 -58q-75 0 -126.5 53t-51.5 143v176q0 90 51.5 143t126.5 53q72 0 112 -58v45zM241 449q-40 0 -62 -25.5t-22 -66.5v-172q0 -41 22 -66.5
t62 -25.5q39 0 61 26t22 66v172q0 40 -22 66t-61 26z" />
    <glyph glyph-name="_274" horiz-adv-x="493" 
d="M336 542h99v-542h-99v46q-40 -59 -113 -59q-75 0 -126.5 53t-51.5 143v176q0 90 51.5 143t126.5 53q73 0 113 -59v46zM241 449q-40 0 -62 -25.5t-22 -66.5v-172q0 -41 22 -66.5t62 -25.5q39 0 61 26t22 66v172q0 40 -22 66t-61 26zM247 595q-55 0 -88.5 28t-33.5 76
q0 45 33.5 74t88.5 29q54 0 88 -29t34 -74q0 -48 -33.5 -76t-88.5 -28zM248 661q46 0 46 38q0 15 -13 26t-33 11t-33 -11t-13 -26q0 -38 46 -38z" />
    <glyph glyph-name="_275" horiz-adv-x="493" 
d="M336 542h99v-542h-99v46q-40 -59 -113 -59q-75 0 -126.5 53t-51.5 143v176q0 90 51.5 143t126.5 53q73 0 113 -59v46zM241 449q-40 0 -62 -25.5t-22 -66.5v-172q0 -41 22 -66.5t62 -25.5q39 0 61 26t22 66v172q0 40 -22 66t-61 26zM329 721h82q0 -46 -30 -79.5t-71 -33.5
q-29 0 -57 15q-7 4 -17.5 11t-17.5 10t-14 3q-12 0 -19 -10.5t-7 -22.5h-82q0 47 30 80t71 33q33 0 61 -17q5 -3 15.5 -10t16.5 -9.5t13 -2.5q12 0 19 10.5t7 22.5z" />
    <glyph glyph-name="_294" horiz-adv-x="480" 
d="M444 710v-100l-75 -203h65v-109h-105l-109 -298h-131l111 301h-84v109h124l69 187h-157v-87h-120v200h412z" />
    <glyph glyph-name="_295" 
d="M455 710v-100l-75 -203h65v-109h-105l-109 -298h-131l111 301h-84v109h124l69 187h-157v-87h-120v200h412z" />
    <glyph glyph-name="_296" horiz-adv-x="274" 
d="M137 115q-15 0 -26 -10.5t-11 -25.5v-147q0 -15 11 -25.5t26 -10.5t26 10.5t11 25.5v147q0 16 -10.5 26t-26.5 10zM137 182q45 0 76.5 -30t31.5 -73v-147q0 -44 -31.5 -74t-76.5 -30q-47 0 -78 30t-31 74v147q0 43 31.5 73t77.5 30z" />
    <glyph glyph-name="_297" horiz-adv-x="218" 
d="M207 -96v-67h-176v67h55v204h-60v67h131v-271h50z" />
    <glyph glyph-name="_298" horiz-adv-x="254" 
d="M231 -96v-67h-200v60l119 153q10 16 10 32q0 15 -9 24t-22 9q-32 0 -32 -33v-14h-72v14q0 43 29.5 71.5t74.5 28.5t74 -28.5t29 -71.5q0 -40 -21 -66l-88 -112h108z" />
    <glyph glyph-name="_299" horiz-adv-x="259" 
d="M231 116l-68 -70q35 -8 55.5 -33.5t20.5 -59.5v-24q0 -42 -31 -71.5t-76 -29.5t-76 29.5t-31 71.5v13h72v-13q0 -14 10 -23.5t25 -9.5q14 0 24.5 9.5t10.5 23.5v24q0 14 -11.5 24.5t-28.5 10.5h-52l1 53l66 69h-110v66h199v-60z" />
    <glyph glyph-name="_300" horiz-adv-x="272" 
d="M249 -28v-66h-43v-69h-71v69h-127v61l108 207h81l-107 -202h46v52h70v-52h43z" />
    <glyph glyph-name="_301" horiz-adv-x="264" 
d="M140 68q40 0 68.5 -28.5t28.5 -69.5v-41q0 -42 -31.5 -71.5t-76.5 -29.5q-44 0 -75 29.5t-31 72.5v4h72v-4q0 -15 9.5 -24.5t25.5 -9.5q15 0 25 9.5t10 23.5v37q0 16 -9.5 25.5t-23.5 9.5q-17 0 -27.5 -10t-10.5 -25v-1h-67v211h199v-67h-127v-51q16 10 41 10z" />
    <glyph glyph-name="_302" horiz-adv-x="261" 
d="M138 49h2q44 0 74 -31.5t30 -76.5q0 -48 -32.5 -80t-82.5 -32t-83.5 32t-33.5 80q0 32 21 68l101 166h83zM128 -15q-19 0 -31.5 -12t-12.5 -32q0 -21 12 -33t32 -12t32.5 12t12.5 33q0 20 -12.5 32t-32.5 12z" />
    <glyph glyph-name="_303" horiz-adv-x="244" 
d="M230 176v-59l-110 -280h-77l106 272h-59v-36h-72v103h212z" />
    <glyph glyph-name="_304" horiz-adv-x="280" 
d="M236 89q0 -39 -30 -65q48 -31 48 -85q0 -48 -33.5 -79.5t-86.5 -31.5q-52 0 -86 31.5t-34 79.5q0 54 47 85q-30 26 -30 65q0 41 29 67.5t73 26.5q45 0 74 -26.5t29 -67.5zM86 -58q0 -20 13 -33t35 -13t35 12.5t13 33.5t-13 34t-35 13t-35 -13.5t-13 -33.5zM100 86
q0 -14 9.5 -23t23.5 -9q15 0 24.5 8.5t9.5 23.5q0 14 -9.5 23t-24.5 9q-14 0 -23.5 -9t-9.5 -23z" />
    <glyph glyph-name="_305" horiz-adv-x="262" 
d="M127 -38h-2q-44 0 -74 31.5t-30 76.5q0 48 32.5 80t82.5 32t83.5 -32t33.5 -80q0 -32 -21 -68l-101 -166h-83zM137 26q19 0 31.5 12t12.5 32q0 21 -12 33t-32 12t-32.5 -12t-12.5 -33q0 -20 12.5 -32t32.5 -12z" />
    <glyph glyph-name="zero001" 
d="M250 612q-40 0 -64.5 -26.5t-24.5 -68.5v-322q0 -42 25 -69.5t64 -27.5q41 0 65.5 27t24.5 70v322q0 42 -24.5 68.5t-65.5 26.5zM251 726q90 0 150.5 -60.5t60.5 -148.5v-322q0 -89 -60.5 -149.5t-150.5 -60.5t-150.5 60.5t-60.5 149.5v322q0 88 60.5 148.5t150.5 60.5z
" />
    <glyph glyph-name="_307" 
d="M457 113v-113h-382v113h133v484h-144v113h266v-597h127z" />
    <glyph glyph-name="two002" 
d="M447 113v-113h-388v101l244 341q23 34 23 81q0 41 -22.5 65t-56.5 24q-36 0 -58.5 -23.5t-22.5 -65.5v-31h-120v31q0 86 58 144.5t143 58.5t142 -58.5t57 -144.5q0 -81 -40 -140l-195 -270h236z" />
    <glyph glyph-name="three003" 
d="M441 610l-151 -176q74 -12 118.5 -66.5t44.5 -129.5v-50q0 -87 -59.5 -145.5t-147.5 -58.5t-147.5 58.5t-59.5 145.5v24h120v-24q0 -40 24.5 -65t62.5 -25q36 0 60.5 25.5t24.5 64.5v50q0 42 -27 68.5t-69 26.5h-92v89l149 176h-236v113h385v-101z" />
    <glyph glyph-name="four004" 
d="M483 268v-114h-88v-154h-120v154h-259v101l221 454h136l-218 -441h120v134h120v-134h88z" />
    <glyph glyph-name="five005" 
d="M273 478q78 0 132.5 -58.5t54.5 -144.5v-88q0 -86 -58.5 -144.5t-146.5 -58.5t-146.5 56.5t-58.5 140.5v11h120v-11q0 -36 24 -59.5t61 -23.5q36 0 60 25t24 64v88q0 39 -24 64t-62 25q-35 0 -58.5 -24t-23.5 -59v-9h-113v439h378v-113h-258v-152q43 32 95 32z" />
    <glyph glyph-name="six006" 
d="M271 433q87 0 146.5 -63.5t59.5 -158.5q0 -98 -64 -162t-160 -64q-98 0 -162.5 64t-64.5 162q0 67 39 136l212 363h141l-166 -278q3 0 9.5 0.5t9.5 0.5zM251 324q-46 0 -75.5 -31t-29.5 -82t29 -82t76 -31q48 0 76 31t28 82t-29 82t-75 31z" />
    <glyph glyph-name="seven007" 
d="M463 710v-100l-224 -610h-131l220 597h-157v-87h-120v200h412z" />
    <glyph glyph-name="_314" 
d="M466 517q0 -90 -73 -151q82 -65 82 -166q0 -93 -64 -154t-161 -61q-96 0 -160 61t-64 154q0 101 81 160q-72 59 -72 157q0 88 61.5 148t153.5 60t154 -60t62 -148zM250 308q-45 0 -74 -29.5t-29 -74.5q0 -48 28.5 -77t74.5 -29t75 29t29 77q0 45 -30 74.5t-74 29.5z
M250 417q42 0 68 26.5t26 71.5q0 42 -26.5 69.5t-67.5 27.5q-42 0 -68.5 -27.5t-26.5 -69.5q0 -45 26.5 -71.5t68.5 -26.5z" />
    <glyph glyph-name="six008" 
d="M231 277q-87 0 -146.5 63.5t-59.5 158.5q0 98 64 162t160 64q98 0 162.5 -64t64.5 -162q0 -67 -39 -136l-212 -363h-141l166 278q-4 0 -10 -0.5t-9 -0.5zM251 386q46 0 75.5 31t29.5 82t-29 82t-76 31q-48 0 -76 -31t-28 -82t29 -82t75 -31z" />
    <glyph glyph-name="_316" horiz-adv-x="531" 
d="M266 726q90 0 150.5 -60.5t60.5 -148.5v-322q0 -89 -60.5 -149.5t-150.5 -60.5t-150.5 60.5t-60.5 149.5v322q0 88 60.5 148.5t150.5 60.5zM265 98q41 0 65.5 27t24.5 70v172l-179 -119v-53q0 -42 25 -69.5t64 -27.5zM265 612q-40 0 -64.5 -26.5t-24.5 -68.5v-151
l179 120v31q0 42 -24.5 68.5t-65.5 26.5z" />
    <glyph glyph-name="_317" 
d="M257 726q90 0 150.5 -60.5t60.5 -148.5v-322q0 -89 -60.5 -149.5t-150.5 -60.5t-150.5 60.5t-60.5 149.5v322q0 88 60.5 148.5t150.5 60.5zM256 98q41 0 65.5 27t24.5 70v172l-179 -119v-53q0 -42 25 -69.5t64 -27.5zM256 612q-40 0 -64.5 -26.5t-24.5 -68.5v-151
l179 120v31q0 42 -24.5 68.5t-65.5 26.5z" />
    <glyph glyph-name="_324" horiz-adv-x="274" 
d="M137 278q-15 0 -26 -10.5t-11 -25.5v-147q0 -15 11 -25.5t26 -10.5t26 10.5t11 25.5v147q0 16 -10.5 26t-26.5 10zM137 345q45 0 76.5 -30t31.5 -73v-147q0 -44 -31.5 -74t-76.5 -30q-47 0 -78 30t-31 74v147q0 43 31.5 73t77.5 30z" />
    <glyph glyph-name="_325" horiz-adv-x="218" 
d="M204 67v-67h-176v67h55v204h-60v67h131v-271h50z" />
    <glyph glyph-name="_326" horiz-adv-x="254" 
d="M227 67v-67h-200v60l119 153q10 16 10 32q0 15 -9 24t-22 9q-32 0 -32 -33v-14h-72v14q0 43 29.5 71.5t74.5 28.5t74 -28.5t29 -71.5q0 -40 -21 -66l-88 -112h108z" />
    <glyph glyph-name="_327" horiz-adv-x="259" 
d="M227 279l-68 -70q35 -8 55.5 -33.5t20.5 -59.5v-24q0 -42 -31 -71.5t-76 -29.5t-76 29.5t-31 71.5v13h72v-13q0 -14 10 -23.5t25 -9.5q14 0 24.5 9.5t10.5 23.5v24q0 14 -11.5 24.5t-28.5 10.5h-52l1 53l66 69h-110v66h199v-60z" />
    <glyph glyph-name="_328" horiz-adv-x="272" 
d="M256 135v-66h-43v-69h-71v69h-127v61l108 207h81l-107 -202h46v52h70v-52h43z" />
    <glyph glyph-name="_329" horiz-adv-x="264" 
d="M143 231q40 0 68.5 -28.5t28.5 -69.5v-41q0 -42 -31.5 -71.5t-76.5 -29.5q-44 0 -75 29.5t-31 72.5v4h72v-4q0 -15 9.5 -24.5t25.5 -9.5q15 0 25 9.5t10 23.5v37q0 16 -9.5 25.5t-23.5 9.5q-17 0 -27.5 -10t-10.5 -25v-1h-67v211h199v-67h-127v-51q16 10 41 10z" />
    <glyph glyph-name="_330" horiz-adv-x="261" 
d="M139 212h2q44 0 74 -31.5t30 -76.5q0 -48 -32.5 -80t-82.5 -32t-83.5 32t-33.5 80q0 32 21 68l101 166h83zM129 148q-19 0 -31.5 -12t-12.5 -32q0 -21 12 -33t32 -12t32.5 12t12.5 33q0 20 -12.5 32t-32.5 12z" />
    <glyph glyph-name="_331" horiz-adv-x="244" 
d="M230 339v-59l-110 -280h-77l106 272h-59v-36h-72v103h212z" />
    <glyph glyph-name="_332" horiz-adv-x="280" 
d="M242 252q0 -40 -30 -65q48 -31 48 -85q0 -48 -33.5 -79.5t-86.5 -31.5q-52 0 -86 31.5t-34 79.5q0 54 47 85q-30 25 -30 65q0 41 29 67.5t73 26.5q45 0 74 -26.5t29 -67.5zM92 105q0 -20 13 -33t35 -13t35 12.5t13 33.5t-13 34t-35 13t-35 -13t-13 -34zM106 249
q0 -14 9.5 -23t23.5 -9q15 0 24.5 8.5t9.5 23.5q0 14 -9.5 23t-24.5 9q-14 0 -23.5 -9t-9.5 -23z" />
    <glyph glyph-name="_333" horiz-adv-x="262" 
d="M122 126h-1q-44 0 -74 31.5t-30 76.5q0 48 32.5 80t82.5 32t83.5 -32t33.5 -80q0 -32 -21 -68l-101 -166h-83zM133 190q19 0 31.5 12t12.5 32q0 21 -12 33t-32 12t-32.5 -12t-12.5 -33q0 -20 12.5 -32t32.5 -12z" />
    <glyph glyph-name="_334" horiz-adv-x="274" 
d="M137 650q-15 0 -26 -10.5t-11 -25.5v-147q0 -15 11 -25.5t26 -10.5t26 10.5t11 25.5v147q0 16 -10.5 26t-26.5 10zM137 717q45 0 76.5 -30t31.5 -73v-147q0 -44 -31.5 -74t-76.5 -30q-47 0 -78 30t-31 74v147q0 43 31.5 73t77.5 30z" />
    <glyph glyph-name="_335" horiz-adv-x="218" 
d="M204 439v-67h-176v67h55v204h-60v67h131v-271h50z" />
    <glyph glyph-name="_336" horiz-adv-x="254" 
d="M227 439v-67h-200v60l119 153q10 16 10 32q0 15 -9 24t-22 9q-32 0 -32 -33v-14h-72v14q0 43 29.5 71.5t74.5 28.5t74 -28.5t29 -71.5q0 -40 -21 -66l-88 -112h108z" />
    <glyph glyph-name="_337" horiz-adv-x="259" 
d="M227 651l-68 -70q35 -8 55.5 -33.5t20.5 -59.5v-24q0 -42 -31 -71.5t-76 -29.5t-76 29.5t-31 71.5v13h72v-13q0 -14 10 -23.5t25 -9.5q14 0 24.5 9.5t10.5 23.5v24q0 14 -11.5 24.5t-28.5 10.5h-52l1 53l66 69h-110v66h199v-60z" />
    <glyph glyph-name="_338" horiz-adv-x="272" 
d="M256 507v-66h-43v-69h-71v69h-127v61l108 207h81l-107 -202h46v52h70v-52h43z" />
    <glyph glyph-name="_339" horiz-adv-x="264" 
d="M143 603q40 0 68.5 -28.5t28.5 -69.5v-41q0 -42 -31.5 -71.5t-76.5 -29.5q-44 0 -75 29.5t-31 72.5v4h72v-4q0 -15 9.5 -24.5t25.5 -9.5q15 0 25 9.5t10 23.5v37q0 16 -9.5 25.5t-23.5 9.5q-17 0 -27.5 -10t-10.5 -25v-1h-67v211h199v-67h-127v-51q16 10 41 10z" />
    <glyph glyph-name="_340" horiz-adv-x="261" 
d="M139 584h2q44 0 74 -31.5t30 -76.5q0 -48 -32.5 -80t-82.5 -32t-83.5 32t-33.5 80q0 32 21 68l101 166h83zM129 520q-19 0 -31.5 -12t-12.5 -32q0 -21 12 -33t32 -12t32.5 12t12.5 33q0 20 -12.5 32t-32.5 12z" />
    <glyph glyph-name="_341" horiz-adv-x="244" 
d="M230 711v-59l-110 -280h-77l106 272h-59v-36h-72v103h212z" />
    <glyph glyph-name="_342" horiz-adv-x="280" 
d="M242 624q0 -40 -30 -65q48 -31 48 -85q0 -48 -33.5 -79.5t-86.5 -31.5q-52 0 -86 31.5t-34 79.5q0 54 47 85q-30 25 -30 65q0 41 29 67.5t73 26.5q45 0 74 -26.5t29 -67.5zM92 477q0 -20 13 -33t35 -13t35 12.5t13 33.5t-13 34t-35 13t-35 -13t-13 -34zM106 621
q0 -14 9.5 -23t23.5 -9q15 0 24.5 8.5t9.5 23.5q0 14 -9.5 23t-24.5 9q-14 0 -23.5 -9t-9.5 -23z" />
    <glyph glyph-name="_343" horiz-adv-x="262" 
d="M123 498h-2q-44 0 -74 31.5t-30 76.5q0 48 32.5 80t82.5 32t83.5 -32t33.5 -80q0 -32 -21 -68l-101 -166h-83zM133 562q19 0 31.5 12t12.5 32q0 21 -12 33t-32 12t-32.5 -12t-12.5 -33q0 -20 12.5 -32t32.5 -12z" />
    <glyph glyph-name="_344" horiz-adv-x="274" 
d="M137 650q-15 0 -26 -10.5t-11 -25.5v-147q0 -15 11 -25.5t26 -10.5t26 10.5t11 25.5v147q0 16 -10.5 26t-26.5 10zM137 717q45 0 76.5 -30t31.5 -73v-147q0 -44 -31.5 -74t-76.5 -30q-47 0 -78 30t-31 74v147q0 43 31.5 73t77.5 30z" />
    <glyph glyph-name="_345" horiz-adv-x="218" 
d="M204 439v-67h-176v67h55v204h-60v67h131v-271h50z" />
    <glyph glyph-name="_346" horiz-adv-x="254" 
d="M227 439v-67h-200v60l119 153q10 16 10 32q0 15 -9 24t-22 9q-32 0 -32 -33v-14h-72v14q0 43 29.5 71.5t74.5 28.5t74 -28.5t29 -71.5q0 -40 -21 -66l-88 -112h108z" />
    <glyph glyph-name="_347" horiz-adv-x="259" 
d="M227 651l-68 -70q35 -8 55.5 -33.5t20.5 -59.5v-24q0 -42 -31 -71.5t-76 -29.5t-76 29.5t-31 71.5v13h72v-13q0 -14 10 -23.5t25 -9.5q14 0 24.5 9.5t10.5 23.5v24q0 14 -11.5 24.5t-28.5 10.5h-52l1 53l66 69h-110v66h199v-60z" />
    <glyph glyph-name="_348" horiz-adv-x="272" 
d="M256 507v-66h-43v-69h-71v69h-127v61l108 207h81l-107 -202h46v52h70v-52h43z" />
    <glyph glyph-name="_349" horiz-adv-x="264" 
d="M143 603q40 0 68.5 -28.5t28.5 -69.5v-41q0 -42 -31.5 -71.5t-76.5 -29.5q-44 0 -75 29.5t-31 72.5v4h72v-4q0 -15 9.5 -24.5t25.5 -9.5q15 0 25 9.5t10 23.5v37q0 16 -9.5 25.5t-23.5 9.5q-17 0 -27.5 -10t-10.5 -25v-1h-67v211h199v-67h-127v-51q16 10 41 10z" />
    <glyph glyph-name="_350" horiz-adv-x="261" 
d="M139 584h2q44 0 74 -31.5t30 -76.5q0 -48 -32.5 -80t-82.5 -32t-83.5 32t-33.5 80q0 32 21 68l101 166h83zM129 520q-19 0 -31.5 -12t-12.5 -32q0 -21 12 -33t32 -12t32.5 12t12.5 33q0 20 -12.5 32t-32.5 12z" />
    <glyph glyph-name="_351" horiz-adv-x="244" 
d="M230 711v-59l-110 -280h-77l106 272h-59v-36h-72v103h212z" />
    <glyph glyph-name="_352" horiz-adv-x="280" 
d="M242 624q0 -40 -30 -65q48 -31 48 -85q0 -48 -33.5 -79.5t-86.5 -31.5q-52 0 -86 31.5t-34 79.5q0 54 47 85q-30 25 -30 65q0 41 29 67.5t73 26.5q45 0 74 -26.5t29 -67.5zM92 477q0 -20 13 -33t35 -13t35 12.5t13 33.5t-13 34t-35 13t-35 -13t-13 -34zM106 621
q0 -14 9.5 -23t23.5 -9q15 0 24.5 8.5t9.5 23.5q0 14 -9.5 23t-24.5 9q-14 0 -23.5 -9t-9.5 -23z" />
    <glyph glyph-name="_353" horiz-adv-x="262" 
d="M123 498h-2q-44 0 -74 31.5t-30 76.5q0 48 32.5 80t82.5 32t83.5 -32t33.5 -80q0 -32 -21 -68l-101 -166h-83zM133 562q19 0 31.5 12t12.5 32q0 21 -12 33t-32 12t-32.5 -12t-12.5 -33q0 -20 12.5 -32t32.5 -12z" />
    <glyph glyph-name="period009" horiz-adv-x="256" 
d="M195 424v-139h-137v139h137z" />
    <glyph glyph-name="bullet010" horiz-adv-x="355" 
d="M277 455v-198h-198v198h198z" />
    <glyph glyph-name="exclam011" horiz-adv-x="260" 
d="M206 0h-151l31 461h88zM202 710v-139h-137v139h137z" />
    <glyph glyph-name="question012" horiz-adv-x="444" 
d="M290 301h-58q-40 -2 -62 -25.5t-22 -59.5v-41q0 -37 21.5 -61t58.5 -24t58.5 22t21.5 55v11h112v-13q0 -78 -52 -129.5t-140 -51.5t-140 53.5t-52 135.5v45q0 70 38 119.5t104 64.5v65h112v-166zM165 571v139h137v-139h-137z" />
    <glyph glyph-name="_376" horiz-adv-x="600" 
d="M334 590h-68l-7 162h82z" />
    <glyph glyph-name="braceleft013" horiz-adv-x="306" 
d="M263 -75h-40q-57 0 -93 36t-36 93v208q0 42 -38 42h-22v102h22q38 0 38 42v208q0 57 36 93t93 36h40v-101h-19q-38 0 -38 -42v-197q0 -59 -54 -90q54 -31 54 -90v-197q0 -42 38 -42h19v-101z" />
    <glyph glyph-name="braceleft014" horiz-adv-x="306" 
d="M43 785h40q57 0 93 -36t36 -93v-208q0 -42 38 -42h22v-102h-22q-38 0 -38 -42v-208q0 -57 -36 -93t-93 -36h-40v101h19q38 0 38 42v197q0 59 54 90q-54 31 -54 90v197q0 42 -38 42h-19v101z" />
    <glyph glyph-name="bracketleft015" horiz-adv-x="300" 
d="M183 26h79v-101h-191v860h191v-101h-79v-658z" />
    <glyph glyph-name="bracketleft016" horiz-adv-x="300" 
d="M117 684h-79v101h191v-860h-191v101h79v658z" />
    <glyph glyph-name="parenleft017" horiz-adv-x="290" 
d="M177 628v-546q0 -56 48 -56h26v-101h-47q-60 0 -99.5 39.5t-39.5 101.5v578q0 61 39.5 101t99.5 40h47v-101h-26q-48 0 -48 -56z" />
    <glyph glyph-name="parenleft018" horiz-adv-x="290" 
d="M113 82v546q0 56 -48 56h-26v101h47q60 0 99.5 -40t39.5 -101v-578q0 -62 -39.5 -101.5t-99.5 -39.5h-47v101h26q48 0 48 56z" />
    <glyph glyph-name="emdash019" horiz-adv-x="630" 
d="M58 406h513v-102h-513v102z" />
    <glyph glyph-name="endash020" horiz-adv-x="515" 
d="M58 406h398v-102h-398v102z" />
    <glyph glyph-name="hyphen021" horiz-adv-x="338" 
d="M59 408h219v-106h-219v106z" />
    <glyph glyph-name="hyphen022" horiz-adv-x="338" 
d="M59 408h219v-106h-219v106z" />
    <glyph glyph-name="hyphen023" horiz-adv-x="338" 
d="M59 408h219v-106h-219v106z" />
    <glyph glyph-name="hyphen024" horiz-adv-x="338" 
d="M59 408h219v-106h-219v106z" />
    <glyph glyph-name="guilsinglright_guilsinglright" horiz-adv-x="531" 
d="M402 555l69 -60l-125 -140l125 -140l-69 -60l-177 200zM188 555l69 -60l-125 -140l125 -140l-69 -60l-177 200z" />
    <glyph glyph-name="guilsinglright_guilsinglright025" horiz-adv-x="531" 
d="M129 155l-69 60l125 140l-125 140l69 60l177 -200zM344 155l-69 60l125 140l-125 140l69 60l177 -200z" />
    <glyph glyph-name="guilsinglright026" horiz-adv-x="317" 
d="M188 555l69 -60l-125 -140l125 -140l-69 -60l-177 200z" />
    <glyph glyph-name="guilsinglright027" horiz-adv-x="317" 
d="M113 155l-69 60l125 140l-125 140l69 60l177 -200z" />
    <glyph glyph-name="_427" horiz-adv-x="0" 
 />
    <glyph glyph-name="minus028" 
d="M74 401h351v-92h-351v92z" />
    <glyph glyph-name="_502" horiz-adv-x="600" 
d="M307 -149h-114l48 154h109z" />
    <glyph glyph-name="_503" horiz-adv-x="341" 
d="M211 710l-21 -206h-87l1 206h107z" />
    </font>
</defs>
</svg>
