<?xml version="1.0" standalone="no"?>
<!DOCTYPE svg PUBLIC "-//W3C//DTD SVG 1.1//EN" "http://www.w3.org/Graphics/SVG/1.1/DTD/svg11.dtd" >
<svg xmlns="http://www.w3.org/2000/svg" xmlns:xlink="http://www.w3.org/1999/xlink" version="1.1">
<metadata>
Created by FontForge 20170731 at Tue Mar 29 04:13:27 2016
 By ,,,
Copyright (c) 2016 by Hannes von Doehren. All rights reserved.
</metadata>
<defs>
<font id="Fabrikat-MediumItalic" horiz-adv-x="500" >
  <font-face 
    font-family="Fabrikat Med"
    font-weight="500"
    font-style="italic"
    font-stretch="normal"
    units-per-em="1000"
    panose-1="2 11 6 4 4 0 0 0 0 0"
    ascent="801"
    descent="-199"
    x-height="538"
    cap-height="710"
    bbox="-359 -203 905 962"
    underline-thickness="80"
    underline-position="-260"
    slope="-12"
    unicode-range="U+000D-FEFF"
  />
<missing-glyph horiz-adv-x="543" 
d="M556 770h23l-176 -830h-23zM516 770h23l-176 -830h-23zM476 770h23l-176 -830h-23zM436 770h23l-176 -830h-23zM396 770h23l-176 -830h-23zM356 770h23l-176 -830h-23zM316 770h23l-176 -830h-23zM276 770h23l-176 -830h-23zM236 770h23l-176 -830h-23zM196 770h23
l-176 -830h-23zM157 770h23l-176 -830h-23z" />
    <glyph glyph-name=".notdef" horiz-adv-x="543" 
d="M556 770h23l-176 -830h-23zM516 770h23l-176 -830h-23zM476 770h23l-176 -830h-23zM436 770h23l-176 -830h-23zM396 770h23l-176 -830h-23zM356 770h23l-176 -830h-23zM316 770h23l-176 -830h-23zM276 770h23l-176 -830h-23zM236 770h23l-176 -830h-23zM196 770h23
l-176 -830h-23zM157 770h23l-176 -830h-23z" />
    <glyph glyph-name=".null" horiz-adv-x="0" 
 />
    <glyph glyph-name="uni000D" unicode="&#xd;" horiz-adv-x="222" 
 />
    <glyph glyph-name="space" unicode=" " horiz-adv-x="222" 
 />
    <glyph glyph-name="exclam" unicode="!" horiz-adv-x="257" 
d="M160 710h123l-126 -474h-73zM159 121l-26 -121h-118l26 121h118z" />
    <glyph glyph-name="quotedbl" unicode="&#x22;" horiz-adv-x="370" 
d="M325 710h93l-53 -246h-92zM162 710h93l-53 -246h-92z" />
    <glyph glyph-name="numbersign" unicode="#" horiz-adv-x="530" 
d="M456 208h-72l-62 -208h-82l62 208h-123l-62 -208h-82l62 208h-73l22 74h73l53 180h-73l22 74h73l52 174h82l-52 -174h123l52 174h82l-52 -174h73l-22 -74h-73l-53 -180h73zM254 462l-53 -180h123l53 180h-123z" />
    <glyph glyph-name="dollar" unicode="$" horiz-adv-x="501" 
d="M387 490l7 36q8 34 -2 60.5t-32 38.5l-48 -224l8 -4q57 -31 92.5 -88t17.5 -143q-17 -79 -74.5 -127t-130.5 -54l-22 -105h-72l23 112q-63 19 -96.5 74.5t-18.5 125.5l7 36h97l-8 -35q-17 -84 39 -110l53 250q-55 34 -90 90.5t-19 132.5q16 73 67 118.5t125 50.5l23 105
h72l-24 -112q61 -18 91 -72t18 -118l-8 -38h-95zM330 173q16 75 -40 122l-46 -214q69 19 86 92zM219 549q-14 -63 32 -106l39 185q-59 -19 -71 -79z" />
    <glyph glyph-name="percent" unicode="%" horiz-adv-x="652" 
d="M218 443q-58 0 -93.5 40t-29.5 100q6 59 50 99.5t102 40.5t93.5 -40.5t29.5 -99.5q-6 -60 -49.5 -100t-102.5 -40zM225 516q27 0 46 19t22 48q2 29 -13 47.5t-41 18.5t-45 -18.5t-22 -47.5t12 -48t41 -19zM444 -13q-58 0 -93.5 40.5t-29.5 99.5t50 99.5t102 40.5
t93.5 -40.5t29.5 -99.5t-50 -99.5t-102 -40.5zM451 60q27 0 46 19t22 48q2 29 -13 48t-41 19t-45 -19t-22 -48t12 -48t41 -19zM552 710h82l-511 -710h-82z" />
    <glyph glyph-name="ampersand" unicode="&#x26;" horiz-adv-x="597" 
d="M537 0l-114 -1l-42 68q-84 -82 -187 -82q-80 0 -126.5 42.5t-46.5 112.5q0 122 165 231l6 4q-57 93 -57 164q0 81 53.5 133.5t135.5 52.5q73 0 117 -41t44 -107t-44 -117t-126 -105l22 -35l58 -94l7 12l73 127h101l-96 -166q-1 -2 -34 -54zM195 70q78 0 140 72l-74 123
l-25 39l-5 -3q-116 -77 -116 -156q0 -35 21.5 -55t58.5 -20zM229 542q0 -42 42 -115q122 77 122 146q0 30 -19 49t-52 19q-41 0 -67 -28.5t-26 -70.5z" />
    <glyph glyph-name="quotesingle" unicode="'" horiz-adv-x="207" 
d="M151 710h93l-53 -246h-92z" />
    <glyph glyph-name="parenleft" unicode="(" horiz-adv-x="276" 
d="M239 629l-120 -568q-16 -64 39 -64h27l-18 -82h-30q-63 0 -93.5 41t-18.5 101l122 577q15 66 52 103.5t93 37.5h53l-17 -82h-28q-48 0 -61 -64z" />
    <glyph glyph-name="parenright" unicode=")" horiz-adv-x="275" 
d="M72 61l120 568q16 64 -39 64h-27l18 82h30q63 0 93.5 -41t18.5 -101l-122 -577q-15 -66 -52 -103.5t-93 -37.5h-53l17 82h28q48 0 61 64z" />
    <glyph glyph-name="asterisk" unicode="*" horiz-adv-x="391" 
d="M317 710l-26 -107l94 60l26 -57l-100 -55l72 -46l-38 -51l-70 52l-18 -98h-64l24 99l-90 -53l-24 57l94 49l-76 49l38 52l74 -57l19 106h65z" />
    <glyph glyph-name="plus" unicode="+" horiz-adv-x="501" 
d="M337 496l-30 -139h130l-16 -74h-130l-29 -139h-76l29 139h-128l16 74h128l30 139h76z" />
    <glyph glyph-name="comma" unicode="," horiz-adv-x="234" 
d="M154 121l-23 -111l-1 -1l-73 -137h-60l69 128h-60l26 121h122z" />
    <glyph glyph-name="hyphen" unicode="-" horiz-adv-x="334" 
d="M82 363h210l-18 -86h-210z" />
    <glyph glyph-name="period" unicode="." horiz-adv-x="230" 
d="M149 121l-26 -121h-118l26 121h118z" />
    <glyph glyph-name="slash" unicode="/" horiz-adv-x="546" 
d="M523 775h105l-571 -860h-106z" />
    <glyph glyph-name="zero" unicode="0" horiz-adv-x="519" 
d="M331 632q-43 0 -74.5 -29.5t-43.5 -84.5l-65 -304q-14 -66 8 -101t69 -35q43 0 75 30.5t44 86.5l65 303q14 66 -8 100t-70 34zM338 724q94 0 144 -63.5t28 -162.5l-65 -303q-21 -97 -80.5 -153t-146.5 -56q-94 0 -142.5 63.5t-27.5 164.5l65 304q21 94 81 150t144 56z
" />
    <glyph glyph-name="one" unicode="1" horiz-adv-x="377" 
d="M324 92l-19 -92h-312l20 92h103l112 526h-119l20 92h220l-132 -618h107z" />
    <glyph glyph-name="two" unicode="2" horiz-adv-x="473" 
d="M401 92l-19 -92h-380l17 82l296 344q49 57 59 102q11 47 -9.5 75.5t-61.5 28.5q-86 0 -108 -106l-6 -29h-100l6 29q20 97 75 147.5t134 50.5q93 0 139.5 -59.5t28.5 -147.5q-16 -69 -83 -146l-239 -279h251z" />
    <glyph glyph-name="three" unicode="3" horiz-adv-x="477" 
d="M482 628l-185 -202q75 -14 108 -69t17 -134l-8 -38q-16 -87 -77 -143t-144 -56q-91 0 -139 57.5t-30 142.5l4 18h97l-4 -18q-11 -48 11.5 -78t67.5 -30q40 0 71.5 29.5t41.5 77.5l8 38q14 59 -10 92t-74 33h-77l15 70l182 199h-237l19 92h360z" />
    <glyph glyph-name="four" unicode="4" horiz-adv-x="499" 
d="M472 253l-19 -93h-87l-34 -160h-100l34 160h-263l17 81l319 468h115l-313 -456h145l32 151h100l-33 -151h87z" />
    <glyph glyph-name="five" unicode="5" horiz-adv-x="483" 
d="M288 469q83 0 125.5 -59.5t21.5 -158.5l-14 -66q-16 -88 -76 -143.5t-144 -55.5q-89 0 -137 53t-30 134l2 11h100l-2 -11q-9 -41 12 -68t63 -27q39 0 70.5 29.5t41.5 77.5l14 66q12 59 -8.5 92.5t-63.5 33.5q-38 0 -68 -27t-38 -68v-3h-94l92 431h350l-19 -92h-251
l-37 -175q38 26 90 26z" />
    <glyph glyph-name="six" unicode="6" horiz-adv-x="497" 
d="M276 423q84 0 137 -64t45 -154q-10 -96 -74.5 -158.5t-156.5 -62.5q-98 0 -155.5 64t-47.5 157q8 77 58 145l269 360h116l-218 -289q18 2 27 2zM255 334q-52 0 -88.5 -35t-42.5 -94t23 -94.5t81 -35.5t87.5 35.5t41.5 94.5t-22.5 94t-79.5 35z" />
    <glyph glyph-name="seven" unicode="7" horiz-adv-x="448" 
d="M517 708l-17 -81l-338 -627h-109l334 616h-184l-20 -96h-100l40 188h394z" />
    <glyph glyph-name="eight" unicode="8" horiz-adv-x="536" 
d="M508 539q-11 -106 -94 -157q79 -64 68 -177q-10 -98 -76 -159.5t-163 -61.5q-100 0 -160.5 63.5t-50.5 157.5q8 69 45 122t94 79q-50 55 -43 133q8 82 63 134.5t137 52.5q86 0 137 -53.5t43 -133.5zM134 209q-7 -61 24 -97t86 -36t93 36t45 97q7 62 -23.5 98t-86.5 36
q-55 0 -93 -36t-45 -98zM228 534q-5 -45 17 -72.5t62 -27.5q41 0 69 27t33 73t-17.5 73t-63.5 27q-39 0 -67 -27.5t-33 -72.5z" />
    <glyph glyph-name="nine" unicode="9" horiz-adv-x="497" 
d="M260 287q-83 0 -137.5 64.5t-44.5 153.5q10 96 74.5 158.5t156.5 62.5q97 0 155 -64.5t48 -156.5q-8 -77 -58 -145l-269 -360h-116l217 289q-5 -2 -26 -2zM281 376q52 0 88.5 35t42.5 94t-23 94.5t-81 35.5t-87.5 -35.5t-41.5 -94.5t22.5 -94t79.5 -35z" />
    <glyph glyph-name="colon" unicode=":" horiz-adv-x="245" 
d="M244 538l-26 -121h-118l26 121h118zM158 121l-26 -121h-118l26 121h118z" />
    <glyph glyph-name="semicolon" unicode=";" horiz-adv-x="249" 
d="M160 121l-23 -111l-1 -1l-73 -137h-60l69 128h-60l26 121h122zM236 538l-26 -121h-118l26 121h118z" />
    <glyph glyph-name="less" unicode="&#x3c;" 
d="M97 350l350 160l-19 -90l-236 -106l190 -107l-16 -77l-282 160z" />
    <glyph glyph-name="equal" unicode="=" horiz-adv-x="501" 
d="M119 438h334l-16 -74h-334zM85 276h334l-16 -74h-334z" />
    <glyph glyph-name="greater" unicode="&#x3e;" 
d="M427 290l-350 -160l19 90l236 106l-191 107l17 77l282 -160z" />
    <glyph glyph-name="question" unicode="?" horiz-adv-x="434" 
d="M185 398h46q45 0 75.5 26.5t39.5 69.5l7 34q12 53 -7 82t-64 29q-39 0 -66 -25t-34 -62l-3 -13h-93l3 15q14 75 67 123.5t132 48.5q92 0 134.5 -55.5t24.5 -140.5l-9 -38q-15 -73 -61.5 -122t-116.5 -57l-17 -78h-93zM238 121l-26 -121h-118l26 121h118z" />
    <glyph glyph-name="at" unicode="@" horiz-adv-x="784" 
d="M347 49q-76 0 -112 54t-18 136l23 109q14 75 63 123.5t115 48.5q69 0 94 -62l11 50h81l-70 -323q-13 -62 36 -62q45 0 61 71h-1l44 204q26 126 -27.5 197.5t-178.5 71.5q-118 0 -197.5 -68.5t-104.5 -184.5l-49 -227q-29 -136 23.5 -213t175.5 -77l-17 -79
q-147 0 -223.5 106.5t-42.5 262.5l49 227q29 145 133 238t257 93q164 0 241 -99t45 -248l-44 -207q-14 -70 -53 -108.5t-96 -38.5q-77 0 -104 58q-43 -53 -114 -53zM457 225l21 103q12 54 -3 82.5t-54 28.5q-35 0 -61 -26t-34 -69l-21 -102q-12 -53 3.5 -83t52.5 -30
q36 0 61.5 26.5t34.5 69.5z" />
    <glyph glyph-name="A" unicode="A" horiz-adv-x="542" 
d="M478 0h-103l-11 167h-220l-82 -167h-110l364 710h101zM338 563l-149 -304h169z" />
    <glyph glyph-name="B" unicode="B" horiz-adv-x="552" 
d="M168 710h164q108 0 154 -59t29 -136q-19 -89 -90 -134q52 -26 72.5 -74.5t8.5 -107.5q-19 -88 -81 -143.5t-158 -55.5h-250zM319 319h-134l-49 -227h128q55 0 91 29.5t49 83.5q10 49 -13.5 81.5t-71.5 32.5zM326 618h-78l-44 -207h78q52 0 85.5 27t43.5 73
q11 50 -10.5 78.5t-74.5 28.5z" />
    <glyph glyph-name="C" unicode="C" horiz-adv-x="544" 
d="M500 232l-2 -10q-19 -104 -87 -171t-169 -67q-109 0 -162.5 76t-27.5 193l50 235q21 105 89 171.5t170 66.5q105 0 158 -69t34 -161l-1 -3h-100v3q13 57 -14 97.5t-87 40.5q-55 0 -94.5 -41t-54.5 -106l-50 -234q-20 -83 7.5 -130t93.5 -47q54 0 93 41t51 105l2 10h101z
" />
    <glyph glyph-name="D" unicode="D" horiz-adv-x="571" 
d="M168 710h190q114 0 168 -70.5t30 -184.5l-49 -228q-21 -104 -89.5 -165.5t-171.5 -61.5h-229zM249 618l-112 -526h110q62 0 104 35.5t56 99.5l49 227q17 82 -9.5 123t-89.5 41h-108z" />
    <glyph glyph-name="E" unicode="E" horiz-adv-x="488" 
d="M515 618h-266l-44 -207h215l-20 -92h-215l-48 -227h275l-19 -92h-376l151 710h366z" />
    <glyph glyph-name="F" unicode="F" horiz-adv-x="465" 
d="M513 618h-264l-44 -207h199l-19 -93h-200l-68 -318h-100l151 710h365z" />
    <glyph glyph-name="G" unicode="G" horiz-adv-x="566" 
d="M249 76q59 0 102 38t58 108l12 57h-139l19 91h233l-79 -370h-83l10 47q-60 -63 -150 -63q-102 0 -154 75.5t-28 184.5l52 244q21 104 89.5 171t166.5 67q110 0 163.5 -67.5t34.5 -161.5l-1 -4h-100l1 4q11 55 -15 96t-84 41t-98.5 -40.5t-55.5 -106.5l-50 -234
q-18 -85 8.5 -131t87.5 -46z" />
    <glyph glyph-name="H" unicode="H" horiz-adv-x="596" 
d="M517 710h100l-151 -710h-100l67 318h-249l-67 -318h-100l151 710h100l-64 -299h249z" />
    <glyph glyph-name="I" unicode="I" horiz-adv-x="247" 
d="M168 710h100l-151 -710h-100z" />
    <glyph glyph-name="J" unicode="J" horiz-adv-x="477" 
d="M402 710h101l-114 -533q-16 -84 -76 -138.5t-141 -54.5q-94 0 -140 58t-29 135l9 44h98l-9 -44q-9 -46 10 -73.5t63 -27.5t74.5 27.5t40.5 73.5z" />
    <glyph glyph-name="K" unicode="K" horiz-adv-x="531" 
d="M484 710h120l-271 -315l139 -395h-107l-108 325l-92 -98l-48 -227h-100l151 710h100l-72 -338z" />
    <glyph glyph-name="L" unicode="L" horiz-adv-x="445" 
d="M268 710l-131 -618h261l-20 -92h-361l151 710h100z" />
    <glyph glyph-name="M" unicode="M" horiz-adv-x="711" 
d="M340 236l-117 264l-106 -500h-100l151 710h63l141 -334l285 334h75l-151 -710h-100l106 500l-225 -264h-22z" />
    <glyph glyph-name="N" unicode="N" horiz-adv-x="610" 
d="M630 710l-150 -710h-90l-162 521l-111 -521h-100l151 710h93l161 -510l108 510h100z" />
    <glyph glyph-name="O" unicode="O" horiz-adv-x="576" 
d="M364 726q114 0 167.5 -77t31.5 -192l-50 -234q-20 -105 -90 -172t-172 -67q-117 0 -170.5 77t-28.5 192l50 234q21 104 91 171.5t171 67.5zM356 634q-59 0 -100 -41t-54 -106l-51 -234q-16 -78 11 -127.5t95 -49.5q59 0 100.5 41t54.5 106l50 234q15 80 -13 128.5
t-93 48.5z" />
    <glyph glyph-name="P" unicode="P" horiz-adv-x="514" 
d="M168 710h168q110 0 164 -60t34 -157q-18 -97 -83 -153.5t-163 -56.5h-111l-60 -283h-100zM334 618h-86l-52 -243h93q57 0 94 32t49 90q13 57 -12.5 89t-85.5 32z" />
    <glyph glyph-name="Q" unicode="Q" horiz-adv-x="598" 
d="M564 459l-44 -206q-25 -106 -95 -161h122l-20 -92h-278q-110 0 -164 78t-30 191l47 219q21 104 91.5 171t175.5 67q109 0 164 -76.5t31 -190.5zM202 487l-47 -218q-17 -81 10.5 -129t90.5 -48q59 0 102.5 41t57.5 106l47 220q17 80 -10.5 127.5t-90.5 47.5
q-62 0 -104.5 -40.5t-55.5 -106.5z" />
    <glyph glyph-name="R" unicode="R" horiz-adv-x="552" 
d="M168 710h175q74 0 120.5 -30.5t61 -74t4.5 -94.5q-15 -73 -66 -126t-132 -64l193 -321h-110l-184 319h-45l-68 -319h-100zM342 618h-94l-44 -207h94q52 0 85.5 27.5t43.5 73.5q11 49 -10.5 77.5t-74.5 28.5z" />
    <glyph glyph-name="S" unicode="S" horiz-adv-x="524" 
d="M422 490l4 17q12 56 -15.5 91.5t-79.5 35.5q-42 0 -75.5 -23.5t-42.5 -65.5q-10 -47 10 -75.5t65 -49.5l63 -32q143 -71 116 -215q-16 -89 -84 -139t-156 -50q-103 0 -162.5 63t-37.5 163l4 18h98l-3 -17q-14 -59 15 -97t87 -38q52 0 89.5 26t49.5 75q10 47 -11.5 77.5
t-69.5 53.5l-63 30q-138 70 -111 211q14 79 74.5 128t146.5 49q103 0 156.5 -62t33.5 -155l-4 -19h-97z" />
    <glyph glyph-name="T" unicode="T" horiz-adv-x="479" 
d="M557 710l-20 -92h-173l-131 -618h-100l131 618h-172l20 92h445z" />
    <glyph glyph-name="U" unicode="U" horiz-adv-x="585" 
d="M511 710h101l-104 -487q-20 -106 -89 -172.5t-170 -66.5q-106 0 -158.5 73.5t-28.5 185.5l100 467h100l-99 -467q-18 -80 7.5 -123.5t85.5 -43.5q56 0 97 40.5t55 106.5z" />
    <glyph glyph-name="V" unicode="V" horiz-adv-x="540" 
d="M626 710l-363 -710h-99l-62 710h101l39 -555l274 555h110z" />
    <glyph glyph-name="W" unicode="W" horiz-adv-x="825" 
d="M905 710l-312 -710h-109l-19 514l-236 -514h-110l-11 710h102l3 -533l240 533h101l15 -531l228 531h108z" />
    <glyph glyph-name="X" unicode="X" horiz-adv-x="537" 
d="M611 710l-259 -354l119 -356h-107l-89 284l-204 -284h-118l282 381l-114 329h111l78 -256l179 256h122z" />
    <glyph glyph-name="Y" unicode="Y" horiz-adv-x="543" 
d="M637 710l-299 -360l-75 -350h-100l75 353l-135 357h112l90 -256l204 256h128z" />
    <glyph glyph-name="Z" unicode="Z" horiz-adv-x="488" 
d="M540 710l-17 -82l-401 -536h295l-19 -92h-417l17 82l398 536h-281l20 92h405z" />
    <glyph glyph-name="bracketleft" unicode="[" horiz-adv-x="284" 
d="M113 -3h81l-17 -82h-175l183 860h175l-18 -82h-82z" />
    <glyph glyph-name="backslash" unicode="\" horiz-adv-x="545" 
d="M214 775l241 -860h-91l-241 860h91z" />
    <glyph glyph-name="bracketright" unicode="]" horiz-adv-x="284" 
d="M206 693h-81l17 82h175l-183 -860h-175l18 82h82z" />
    <glyph glyph-name="asciicircum" unicode="^" horiz-adv-x="501" 
d="M380 710l101 -324h-81l-68 225l-163 -225h-91l238 324h64z" />
    <glyph glyph-name="underscore" unicode="_" horiz-adv-x="316" 
d="M-74 -83h315l-18 -86h-315z" />
    <glyph glyph-name="grave" unicode="`" horiz-adv-x="583" 
d="M34 729h114l88 -117h-97z" />
    <glyph glyph-name="a" unicode="a" horiz-adv-x="476" 
d="M389 538h85l-115 -538h-84l8 39q-46 -52 -110 -52q-79 0 -118.5 60.5t-21.5 150.5l35 161q18 86 72.5 139t126.5 53q82 0 112 -61zM304 179l34 160q13 59 -5.5 92t-63.5 33q-41 0 -70.5 -29.5t-38.5 -77.5l-34 -158q-13 -59 5.5 -92t63.5 -33q41 0 70 29t39 76z" />
    <glyph glyph-name="b" unicode="b" horiz-adv-x="477" 
d="M90 0h-84l155 729h93l-47 -219q41 41 100 41q79 0 118.5 -61t21.5 -150l-35 -161q-16 -85 -71.5 -138.5t-127.5 -53.5q-86 0 -113 61zM175 359l-34 -160q-13 -59 5.5 -92t63.5 -33q41 0 70 29.5t39 77.5l34 158q13 59 -5.5 92t-63.5 33q-41 0 -70 -29t-39 -76z" />
    <glyph glyph-name="c" unicode="c" horiz-adv-x="449" 
d="M339 364l1 6q9 38 -10.5 66t-61.5 28q-40 0 -68.5 -29.5t-38.5 -77.5l-33 -158q-13 -59 5 -92t61 -33q41 0 69.5 26.5t36.5 69.5l1 6h93l-1 -7q-17 -82 -69 -132t-136 -50q-90 0 -131.5 60t-22.5 150l35 162q17 87 69.5 139.5t135.5 52.5q88 0 130.5 -54.5t27.5 -124.5
l-2 -8h-91z" />
    <glyph glyph-name="d" unicode="d" horiz-adv-x="477" 
d="M267 551q74 0 106 -49l48 227h93l-155 -729h-84l8 39q-46 -52 -110 -52q-79 0 -118.5 60.5t-21.5 150.5l35 161q18 86 72.5 139t126.5 53zM304 179l34 160q13 59 -5.5 92t-63.5 33q-41 0 -70.5 -29.5t-38.5 -77.5l-34 -158q-13 -59 5.5 -92t63.5 -33q41 0 70 29t39 76z
" />
    <glyph glyph-name="e" unicode="e" horiz-adv-x="465" 
d="M279 551q92 0 134.5 -60t23.5 -150l-22 -100h-279l-9 -42q-13 -59 6.5 -92t66.5 -33q44 0 73.5 26t37.5 69l2 8h92l-1 -9q-18 -85 -73 -133t-138 -48q-92 0 -135 60t-24 150l34 162q19 90 74.5 141t136.5 51zM161 357l-8 -34h186l4 16q13 60 -5.5 92.5t-65.5 32.5
q-43 0 -72 -29t-39 -78z" />
    <glyph glyph-name="f" unicode="f" horiz-adv-x="295" 
d="M335 538l-17 -83h-94l-97 -455h-93l97 455h-70l18 83h69l17 77q12 53 48.5 85.5t94.5 32.5h66l-17 -82h-42q-49 0 -61 -54l-13 -59h94z" />
    <glyph glyph-name="g" unicode="g" horiz-adv-x="476" 
d="M269 551q83 0 109 -67l11 54h85l-113 -530q-19 -90 -73.5 -140t-135.5 -50q-82 0 -124.5 52t-28.5 117l1 5h90l-1 -3q-8 -35 12 -60t58 -25q41 0 70 28.5t39 77.5l10 46q-42 -36 -101 -36q-78 0 -117.5 60.5t-19.5 150.5l27 128q20 91 74.5 141.5t127.5 50.5zM311 213
l27 126q13 59 -5.5 92t-63.5 33q-41 0 -70.5 -29.5t-38.5 -77.5l-27 -125q-13 -59 5.5 -92t63.5 -33q41 0 70 29.5t39 76.5z" />
    <glyph glyph-name="h" unicode="h" horiz-adv-x="482" 
d="M274 0l76 358q11 50 -5 78t-60 28q-42 0 -71 -28.5t-39 -77.5l-76 -358h-93l155 729h93l-48 -223q47 45 107 45q74 0 111 -55t21 -132l-78 -364h-93z" />
    <glyph glyph-name="i" unicode="i" horiz-adv-x="216" 
d="M213 538l-114 -538h-93l114 538h93zM255 730l-23 -107h-99l23 107h99z" />
    <glyph glyph-name="j" unicode="j" horiz-adv-x="216" 
d="M1 -26l120 564h93l-122 -571q-11 -60 -50.5 -98t-92.5 -38h-54l17 82h22q24 0 42.5 16.5t24.5 44.5zM256 730l-23 -107h-99l23 107h99z" />
    <glyph glyph-name="k" unicode="k" horiz-adv-x="450" 
d="M294 0l-92 239l-67 -71l-36 -168h-93l155 729h93l-90 -422l208 231h118l-219 -235l121 -303h-98z" />
    <glyph glyph-name="l" unicode="l" horiz-adv-x="217" 
d="M161 729h93l-155 -729h-93z" />
    <glyph glyph-name="m" unicode="m" horiz-adv-x="716" 
d="M257 0l79 372q19 92 -58 92q-75 0 -99 -88l-80 -376h-93l114 538h86l-8 -37q47 50 109 50q80 0 112 -61q52 61 130 61q75 0 110.5 -49t21.5 -123l-80 -379h-93l79 372q9 43 -5.5 67.5t-52.5 24.5t-64.5 -26.5t-36.5 -71.5l-78 -366h-93z" />
    <glyph glyph-name="n" unicode="n" horiz-adv-x="482" 
d="M274 0l76 358q11 50 -5 78t-60 28q-42 0 -71 -28.5t-39 -77.5l-76 -358h-93l114 538h86l-9 -41q48 54 116 54q74 0 111 -55t21 -132l-78 -364h-93z" />
    <glyph glyph-name="o" unicode="o" horiz-adv-x="467" 
d="M283 551q90 0 131 -60.5t22 -151.5l-34 -160q-19 -91 -75.5 -141.5t-140.5 -50.5q-90 0 -131 60.5t-22 151.5l34 160q19 91 75.5 141.5t140.5 50.5zM309 181l33 156q13 60 -6 93.5t-64 33.5q-43 0 -72.5 -29t-39.5 -78l-34 -156q-13 -60 6 -93.5t64 -33.5q43 0 73 29.5
t40 77.5z" />
    <glyph glyph-name="p" unicode="p" horiz-adv-x="477" 
d="M63 -169h-93l150 707h84l-9 -40q47 53 112 53q79 0 118.5 -61t21.5 -150l-35 -161q-16 -85 -71.5 -138.5t-127.5 -53.5q-78 0 -106 49zM175 359l-34 -160q-13 -59 5.5 -92t63.5 -33q41 0 70 29.5t39 77.5l34 158q13 59 -5.5 92t-63.5 33q-41 0 -70 -29t-39 -76z" />
    <glyph glyph-name="q" unicode="q" horiz-adv-x="476" 
d="M266 551q84 0 113 -62l10 49h84l-150 -707h-93l41 196q-41 -40 -99 -40q-80 0 -119.5 60.5t-19.5 150.5l34 161q18 86 72.5 139t126.5 53zM304 179l34 160q13 59 -5.5 92t-63.5 33q-41 0 -70.5 -29.5t-38.5 -77.5l-34 -158q-13 -59 5.5 -92t63.5 -33q41 0 70 29t39 76z
" />
    <glyph glyph-name="r" unicode="r" horiz-adv-x="313" 
d="M336 453h-30q-51 0 -87.5 -33t-49.5 -92l-70 -328h-93l114 538h86l-12 -54q55 67 138 67h24z" />
    <glyph glyph-name="s" unicode="s" horiz-adv-x="431" 
d="M315 363l2 10q9 43 -7.5 67t-57.5 24q-37 0 -59 -17.5t-28 -42.5q-7 -33 8.5 -50t54.5 -34l39 -17q59 -24 87 -66.5t16 -97.5q-15 -70 -66.5 -111t-128.5 -41q-87 0 -131 51t-31 118l5 20h91l-2 -10q-9 -43 12 -67.5t62 -24.5q37 0 63.5 18.5t32.5 45.5q8 36 -8 54
t-54 34l-40 17q-127 50 -102 164q15 69 63.5 106.5t120.5 37.5q76 0 122 -49.5t29 -129.5l-2 -9h-91z" />
    <glyph glyph-name="t" unicode="t" horiz-adv-x="311" 
d="M318 455h-94l-65 -307q-6 -28 5.5 -44.5t36.5 -16.5h41l-18 -87h-40q-66 0 -100 38.5t-22 92.5l68 324h-69l18 83h69l34 159h93l-34 -159h95z" />
    <glyph glyph-name="u" unicode="u" horiz-adv-x="482" 
d="M209 538l-76 -358q-11 -50 5.5 -78t60.5 -28q42 0 70 28t38 72l2 6l77 358h93l-114 -538h-86l9 43q-50 -56 -117 -56q-76 0 -112 54.5t-20 132.5l77 364h93z" />
    <glyph glyph-name="v" unicode="v" horiz-adv-x="455" 
d="M73 538h96l29 -404l201 404h102l-282 -538h-94z" />
    <glyph glyph-name="w" unicode="w" horiz-adv-x="683" 
d="M633 538h93l-252 -538h-87l-22 363l-176 -363h-92l-23 538h94l6 -397l184 397h79l17 -407z" />
    <glyph glyph-name="x" unicode="x" horiz-adv-x="448" 
d="M481 538l-202 -266l104 -272h-99l-71 202l-143 -202h-108l211 283l-100 255h100l67 -185l130 185h111z" />
    <glyph glyph-name="y" unicode="y" horiz-adv-x="450" 
d="M498 538l-435 -707h-101l212 336l-106 371h95l70 -277l161 277h104z" />
    <glyph glyph-name="z" unicode="z" horiz-adv-x="413" 
d="M112 82h228l-18 -82h-342l17 78l299 377h-216l17 83h332l-17 -78z" />
    <glyph glyph-name="braceleft" unicode="{" horiz-adv-x="293" 
d="M178 -85h-23q-58 0 -87 37t-17 92l44 211q10 49 -30 49h-22l5 22l8 38l5 22h21q42 0 52 49l46 220q12 58 45.5 89t84.5 31h44l-17 -82h-18q-38 0 -48 -49l-46 -219q-13 -59 -63 -84q38 -30 26 -86l-44 -209q-11 -49 33 -49h18z" />
    <glyph glyph-name="bar" unicode="|" horiz-adv-x="245" 
d="M185 775h93l-183 -860h-93z" />
    <glyph glyph-name="braceright" unicode="}" horiz-adv-x="293" 
d="M150 775h23q58 0 87 -37t17 -92l-44 -211q-10 -49 30 -49h22l-13 -60l-5 -22h-21q-42 0 -52 -49l-46 -220q-12 -58 -45.5 -89t-84.5 -31h-44l17 82h18q38 0 48 49l46 219q11 57 62 84q-38 30 -25 86l44 209q11 49 -33 49h-18z" />
    <glyph glyph-name="asciitilde" unicode="~" 
d="M381 391h75l-5 -21q-12 -62 -42.5 -93t-73.5 -31q-48 0 -94 45q-33 32 -48 32q-32 0 -47 -70h-75l5 21q12 62 42.5 93t73.5 31q46 0 96 -47q33 -30 46 -30q32 0 47 70z" />
    <glyph glyph-name="uni00A0" unicode="&#xa0;" horiz-adv-x="222" 
 />
    <glyph glyph-name="exclamdown" unicode="&#xa1;" horiz-adv-x="245" 
d="M93 -172h-123l126 474h73zM94 417l26 121h118l-26 -121h-118z" />
    <glyph glyph-name="cent" unicode="&#xa2;" 
d="M387 431l1 6q14 66 -42 89l-73 -344q65 18 83 93l1 6h93l-2 -7q-14 -76 -65 -125.5t-129 -55.5l-20 -93h-72l20 97q-70 15 -99.5 66.5t-14.5 118.5l30 144q16 81 67 133t129 58l20 93h72l-21 -97q68 -15 98 -63t18 -111l-2 -8h-92zM191 424l-30 -140q-18 -77 42 -100
l73 344q-67 -20 -85 -104z" />
    <glyph glyph-name="sterling" unicode="&#xa3;" 
d="M393 0h-387l20 93h52l41 192h-53l15 70h53l43 203q14 72 63.5 119t116.5 47q76 0 116 -53t22 -133l-10 -45h-97l10 45q11 46 -3 70t-45 24q-26 0 -46 -20t-27 -54l-43 -203h116l-15 -70h-116l-40 -192h234z" />
    <glyph glyph-name="currency" unicode="&#xa4;" horiz-adv-x="501" 
d="M452 167l-59 -52l-54 61q-44 -26 -97 -26q-51 0 -89 25l-69 -60l-46 53l67 59q-23 41 -17 93q5 52 36 92l-55 61l58 52l55 -61q46 26 96 26q49 0 90 -26l69 62l47 -52l-69 -61q23 -41 18 -93q-6 -51 -36 -91zM251 221q43 0 72.5 27.5t34.5 71.5t-19.5 71.5t-66.5 27.5
q-43 0 -73 -27.5t-35 -71.5t19.5 -71.5t67.5 -27.5z" />
    <glyph glyph-name="yen" unicode="&#xa5;" 
d="M378 135h-106l-28 -135h-100l28 135h-105l15 70h105l17 79h-105l15 70h105l2 11l-112 345h110l70 -226l160 226h124l-250 -337l-4 -19h106l-15 -70h-106l-17 -79h106z" />
    <glyph glyph-name="brokenbar" unicode="&#xa6;" horiz-adv-x="243" 
d="M277 775l-73 -341h-93l72 341h94zM1 -85l72 341h94l-73 -341h-93z" />
    <glyph glyph-name="section" unicode="&#xa7;" horiz-adv-x="470" 
d="M64 354q17 74 86 117q-32 45 -17 112q13 63 60.5 103t119.5 40q81 0 123 -49.5t27 -120.5l-3 -17h-83l3 15q9 41 -12.5 65.5t-60.5 24.5q-33 0 -57 -17t-32 -49q-4 -23 2 -40.5t23 -32t31.5 -23t41.5 -21.5q62 -31 94.5 -71.5t18.5 -105.5q-16 -71 -79 -115
q32 -42 20 -109q-16 -76 -70 -118.5t-125 -42.5q-83 0 -131 50.5t-30 129.5l4 17h85l-3 -16q-10 -45 12.5 -72.5t67.5 -27.5q39 0 67 20.5t36 56.5q4 22 -0.5 39t-20 30.5t-27.5 20.5t-38 20q-3 2 -5 3l-5 2.5t-6 2.5q-62 30 -96.5 72t-20.5 107zM264 232l27 -15
q41 23 51 66q4 20 1 35t-16.5 27.5t-24 19.5t-34 20t-34.5 20l-25 14q-50 -21 -57 -65q-4 -21 2 -38t20.5 -29.5t32.5 -23.5t39 -22z" />
    <glyph glyph-name="dieresis" unicode="&#xa8;" horiz-adv-x="486" 
d="M322 720l-21 -100h-100l21 100h100zM494 720l-21 -100h-100l21 100h100z" />
    <glyph glyph-name="copyright" unicode="&#xa9;" horiz-adv-x="685" 
d="M483 309v-9q0 -50 -32.5 -85.5t-87.5 -35.5q-54 0 -86 35t-32 87v114q0 50 32.5 85t86.5 35t86.5 -36.5t32.5 -89.5v-5h-72v5q0 24 -13 40.5t-34 16.5q-22 0 -34.5 -15t-12.5 -36v-115q0 -22 12 -37t34 -15t35.5 15t13.5 37v9h71zM361 54q-124 0 -207.5 86.5t-83.5 214.5
t83.5 214.5t207.5 86.5t208 -86.5t84 -214.5t-84 -214.5t-208 -86.5zM361 117q97 0 160 67t63 171t-63 171t-160 67t-160 -67t-63 -171t63 -171t160 -67z" />
    <glyph glyph-name="ordfeminine" unicode="&#xaa;" horiz-adv-x="303" 
d="M233 725q50 0 74.5 -28.5t15.5 -69.5l-38 -178h-53l4 18q-26 -24 -60 -24q-45 0 -64 27t-13 66q7 33 34 55.5t68 22.5q32 0 53 -19l8 34q4 17 -5 27t-27 10q-15 0 -26.5 -9.5t-14.5 -24.5l-1 -3h-62v2q9 43 37 68.5t70 25.5zM196 493q18 0 31 10t16 26q2 16 -6.5 25
t-28.5 9q-43 0 -48 -34q-3 -16 6.5 -26t29.5 -10z" />
    <glyph glyph-name="guillemotleft" unicode="&#xab;" horiz-adv-x="495" 
d="M445 515l51 -53l-167 -155l92 -139l-60 -43l-132 190zM236 515l52 -53l-154 -149l95 -145l-60 -43l-126 195z" />
    <glyph glyph-name="logicalnot" unicode="&#xac;" 
d="M439 357l-16 -74h-1l-25 -120h-76l25 120h-265l16 74h342z" />
    <glyph glyph-name="uni00AD" unicode="&#xad;" horiz-adv-x="334" 
d="M82 363h210l-18 -86h-210z" />
    <glyph glyph-name="registered" unicode="&#xae;" horiz-adv-x="458" 
d="M284 350q-80 0 -133 53t-53 135t53 135t133 53q79 0 132 -53.5t53 -134.5t-53 -134.5t-132 -53.5zM284 399q57 0 94.5 38.5t37.5 100.5t-37.5 100.5t-94.5 38.5t-94.5 -38.5t-37.5 -100.5t37.5 -100.5t94.5 -38.5zM220 646h62q38 0 56 -19t18 -45q0 -37 -31 -52l39 -98
h-57l-30 89h-6v-89h-51v214zM285 600h-14v-36h14q17 0 17 18t-17 18z" />
    <glyph glyph-name="macron" unicode="&#xaf;" horiz-adv-x="583" 
d="M497 695l-16 -74h-264l16 74h264z" />
    <glyph glyph-name="degree" unicode="&#xb0;" horiz-adv-x="387" 
d="M242 408q-67 0 -108 45.5t-35 113.5q8 69 56 114t114 45q67 0 108 -45.5t35 -113.5t-55 -113.5t-115 -45.5zM247 481q35 0 59 24t28 62q5 38 -15 62t-54 24q-35 0 -59.5 -24t-28.5 -62t15.5 -62t54.5 -24z" />
    <glyph glyph-name="plusminus" unicode="&#xb1;" horiz-adv-x="501" 
d="M344 528l-28 -130h130l-16 -74h-129l-21 -98h-76l21 98h-129l16 74h128l28 130h76zM65 178h334l-16 -75h-334z" />
    <glyph glyph-name="acute" unicode="&#xb4;" horiz-adv-x="582" 
d="M419 729l-108 -117h-101l92 117h117z" />
    <glyph glyph-name="paragraph" unicode="&#xb6;" horiz-adv-x="510" 
d="M233 710h292l-187 -880h-76l172 809h-55l-172 -809h-76l107 504h-58q-65 0 -93.5 34t-18.5 86l29 136q25 120 136 120z" />
    <glyph glyph-name="periodcentered" unicode="&#xb7;" horiz-adv-x="240" 
d="M210 381l-26 -121h-118l26 121h118z" />
    <glyph glyph-name="cedilla" unicode="&#xb8;" horiz-adv-x="583" 
d="M257 -148h-95l87 172l82 -19z" />
    <glyph glyph-name="ordmasculine" unicode="&#xba;" horiz-adv-x="302" 
d="M235 726q54 0 78.5 -30.5t16.5 -71.5l-17 -80q-9 -45 -38 -73t-76 -28q-53 0 -79 31t-17 70l18 80q9 45 38.5 73.5t75.5 28.5zM251 545l17 78q4 19 -5.5 31t-29.5 12t-33 -12t-17 -31l-17 -78q-4 -18 5.5 -30.5t30.5 -12.5q19 0 32.5 12.5t16.5 30.5z" />
    <glyph glyph-name="guillemotright" unicode="&#xbb;" horiz-adv-x="494" 
d="M74 125l-51 53l167 155l-92 139l60 43l132 -190zM283 125l-52 53l153 149l-94 145l60 43l126 -195z" />
    <glyph glyph-name="onequarter" unicode="&#xbc;" horiz-adv-x="688" 
d="M597 710h82l-511 -710h-82zM621 131l-13 -61h-44l-14 -70h-65l14 70h-122l12 55l148 209h79l-147 -203h48l12 54h60l-12 -54h44zM250 435l-13 -60h-168l13 60h51l45 214h-55l13 61h120l-58 -275h52z" />
    <glyph glyph-name="onehalf" unicode="&#xbd;" horiz-adv-x="654" 
d="M568 710h82l-511 -710h-82zM584 60l-13 -60h-195l11 55l148 155q11 10 18 33q4 17 -4.5 27t-23.5 10q-31 0 -39 -37l-3 -13h-65l3 13q9 43 37.5 71t69.5 28q48 0 73 -31.5t15 -77.5q-8 -33 -30 -57l-113 -116h111zM250 435l-13 -60h-168l13 60h51l45 214h-55l13 61h120
l-58 -275h52z" />
    <glyph glyph-name="threequarters" unicode="&#xbe;" horiz-adv-x="710" 
d="M607 710h82l-511 -710h-82zM644 131l-13 -61h-44l-14 -70h-65l14 70h-122l12 55l148 209h79l-147 -203h48l12 54h60l-12 -54h44zM313 656l-82 -79q34 -8 49 -33.5t9 -56.5l-4 -22q-9 -43 -37 -70.5t-70 -27.5q-50 0 -76.5 29t-18.5 69l2 10h64l-2 -10q-4 -16 5 -26.5
t26 -10.5q14 0 26 10.5t16 26.5l4 22q3 14 -5.5 24t-24.5 10h-56l11 51l80 78h-106l13 61h189z" />
    <glyph glyph-name="questiondown" unicode="&#xbf;" horiz-adv-x="426" 
d="M245 140h-46q-45 0 -75.5 -26.5t-39.5 -69.5l-7 -34q-12 -53 7 -82t64 -29q39 0 66 25t34 62l3 13h93l-3 -15q-14 -75 -67 -123.5t-132 -48.5q-92 0 -134.5 55.5t-24.5 140.5l9 38q15 73 61.5 121t116.5 58l17 78h93zM192 417l26 121h118l-26 -121h-118z" />
    <glyph glyph-name="Agrave" unicode="&#xc0;" horiz-adv-x="542" 
d="M478 0h-103l-11 167h-220l-82 -167h-110l364 710h101zM338 563l-149 -304h169zM233 901h114l88 -117h-97z" />
    <glyph glyph-name="Aacute" unicode="&#xc1;" horiz-adv-x="542" 
d="M478 0h-103l-11 167h-220l-82 -167h-110l364 710h101zM338 563l-149 -304h169zM537 901l-108 -117h-101l92 117h117z" />
    <glyph glyph-name="Acircumflex" unicode="&#xc2;" horiz-adv-x="542" 
d="M478 0h-103l-11 167h-220l-82 -167h-110l364 710h101zM338 563l-149 -304h169zM234 784l122 109h84l82 -109h-98l-32 50l-52 -50h-106z" />
    <glyph glyph-name="Atilde" unicode="&#xc3;" horiz-adv-x="542" 
d="M478 0h-103l-11 167h-220l-82 -167h-110l364 710h101zM338 563l-149 -304h169zM477 887h68q-7 -46 -34.5 -76.5t-66.5 -30.5q-29 0 -63 24q-31 22 -43 22q-26 0 -34 -40h-68q7 46 35 76.5t67 30.5q31 0 63 -24q27 -21 43 -21q25 0 33 39z" />
    <glyph glyph-name="Adieresis" unicode="&#xc4;" horiz-adv-x="542" 
d="M478 0h-103l-11 167h-220l-82 -167h-110l364 710h101zM338 563l-149 -304h169zM363 892l-21 -100h-100l21 100h100zM535 892l-21 -100h-100l21 100h100z" />
    <glyph glyph-name="Aring" unicode="&#xc5;" horiz-adv-x="542" 
d="M478 0h-103l-11 167h-220l-82 -167h-110l364 710h101zM338 563l-149 -304h169zM384 766q-52 0 -80.5 27t-23.5 72q4 42 38.5 69.5t85.5 27.5q50 0 79 -28t25 -69q-5 -46 -39 -72.5t-85 -26.5zM389 821q50 0 55 44q2 18 -10.5 30t-35.5 12q-21 0 -36.5 -12t-17.5 -30
q-2 -21 10.5 -32.5t34.5 -11.5z" />
    <glyph glyph-name="AE" unicode="&#xc6;" horiz-adv-x="832" 
d="M858 618h-266l-44 -207h215l-20 -92h-215l-48 -227h275l-19 -92h-376l35 167h-206l-122 -167h-123l542 710h391zM256 259h159l65 305z" />
    <glyph glyph-name="Ccedilla" unicode="&#xc7;" horiz-adv-x="544" 
d="M500 232l-2 -10q-19 -104 -87 -171t-169 -67q-109 0 -162.5 76t-27.5 193l50 235q21 105 89 171.5t170 66.5q105 0 158 -69t34 -161l-1 -3h-100v3q13 57 -14 97.5t-87 40.5q-55 0 -94.5 -41t-54.5 -106l-50 -234q-20 -83 7.5 -130t93.5 -47q54 0 93 41t51 105l2 10h101z
M219 -148h-104l77 153h97z" />
    <glyph glyph-name="Egrave" unicode="&#xc8;" horiz-adv-x="488" 
d="M515 618h-266l-44 -207h215l-20 -92h-215l-48 -227h275l-19 -92h-376l151 710h366zM217 901h114l88 -117h-97z" />
    <glyph glyph-name="Eacute" unicode="&#xc9;" horiz-adv-x="488" 
d="M515 618h-266l-44 -207h215l-20 -92h-215l-48 -227h275l-19 -92h-376l151 710h366zM521 901l-108 -117h-101l92 117h117z" />
    <glyph glyph-name="Ecircumflex" unicode="&#xca;" horiz-adv-x="488" 
d="M515 618h-266l-44 -207h215l-20 -92h-215l-48 -227h275l-19 -92h-376l151 710h366zM218 784l122 109h84l82 -109h-98l-32 50l-52 -50h-106z" />
    <glyph glyph-name="Edieresis" unicode="&#xcb;" horiz-adv-x="488" 
d="M515 618h-266l-44 -207h215l-20 -92h-215l-48 -227h275l-19 -92h-376l151 710h366zM347 892l-21 -100h-100l21 100h100zM519 892l-21 -100h-100l21 100h100z" />
    <glyph glyph-name="Igrave" unicode="&#xcc;" horiz-adv-x="247" 
d="M168 710h100l-151 -710h-100zM90 901h114l88 -117h-97z" />
    <glyph glyph-name="Iacute" unicode="&#xcd;" horiz-adv-x="247" 
d="M168 710h100l-151 -710h-100zM395 901l-108 -117h-101l92 117h117z" />
    <glyph glyph-name="Icircumflex" unicode="&#xce;" horiz-adv-x="247" 
d="M168 710h100l-151 -710h-100zM91 784l122 109h84l82 -109h-98l-32 50l-52 -50h-106z" />
    <glyph glyph-name="Idieresis" unicode="&#xcf;" horiz-adv-x="247" 
d="M168 710h100l-151 -710h-100zM221 892l-21 -100h-100l21 100h100zM393 892l-21 -100h-100l21 100h100z" />
    <glyph glyph-name="Eth" unicode="&#xd0;" horiz-adv-x="580" 
d="M178 710h190q114 0 168 -70.5t30 -184.5l-49 -228q-21 -104 -89.5 -165.5t-171.5 -61.5h-229l68 319h-72l20 92h71zM258 618l-44 -207h136l-19 -92h-137l-48 -227h110q62 0 104 35.5t56 99.5l49 227q17 82 -9.5 123t-89.5 41h-108z" />
    <glyph glyph-name="Ntilde" unicode="&#xd1;" horiz-adv-x="610" 
d="M630 710l-150 -710h-90l-162 521l-111 -521h-100l151 710h93l161 -510l108 510h100zM491 887h68q-7 -46 -34.5 -76.5t-66.5 -30.5q-29 0 -63 24q-31 22 -43 22q-26 0 -34 -40h-68q7 46 35 76.5t67 30.5q31 0 63 -24q27 -21 43 -21q25 0 33 39z" />
    <glyph glyph-name="Ograve" unicode="&#xd2;" horiz-adv-x="576" 
d="M364 726q114 0 167.5 -77t31.5 -192l-50 -234q-20 -105 -90 -172t-172 -67q-117 0 -170.5 77t-28.5 192l50 234q21 104 91 171.5t171 67.5zM356 634q-59 0 -100 -41t-54 -106l-51 -234q-16 -78 11 -127.5t95 -49.5q59 0 100.5 41t54.5 106l50 234q15 80 -13 128.5
t-93 48.5zM247 901h114l88 -117h-97z" />
    <glyph glyph-name="Oacute" unicode="&#xd3;" horiz-adv-x="576" 
d="M364 726q114 0 167.5 -77t31.5 -192l-50 -234q-20 -105 -90 -172t-172 -67q-117 0 -170.5 77t-28.5 192l50 234q21 104 91 171.5t171 67.5zM356 634q-59 0 -100 -41t-54 -106l-51 -234q-16 -78 11 -127.5t95 -49.5q59 0 100.5 41t54.5 106l50 234q15 80 -13 128.5
t-93 48.5zM551 901l-108 -117h-101l92 117h117z" />
    <glyph glyph-name="Ocircumflex" unicode="&#xd4;" horiz-adv-x="576" 
d="M364 726q114 0 167.5 -77t31.5 -192l-50 -234q-20 -105 -90 -172t-172 -67q-117 0 -170.5 77t-28.5 192l50 234q21 104 91 171.5t171 67.5zM356 634q-59 0 -100 -41t-54 -106l-51 -234q-16 -78 11 -127.5t95 -49.5q59 0 100.5 41t54.5 106l50 234q15 80 -13 128.5
t-93 48.5zM248 784l122 109h84l82 -109h-98l-32 50l-52 -50h-106z" />
    <glyph glyph-name="Otilde" unicode="&#xd5;" horiz-adv-x="576" 
d="M364 726q114 0 167.5 -77t31.5 -192l-50 -234q-20 -105 -90 -172t-172 -67q-117 0 -170.5 77t-28.5 192l50 234q21 104 91 171.5t171 67.5zM356 634q-59 0 -100 -41t-54 -106l-51 -234q-16 -78 11 -127.5t95 -49.5q59 0 100.5 41t54.5 106l50 234q15 80 -13 128.5
t-93 48.5zM491 887h68q-7 -46 -34.5 -76.5t-66.5 -30.5q-29 0 -63 24q-31 22 -43 22q-26 0 -34 -40h-68q7 46 35 76.5t67 30.5q31 0 63 -24q27 -21 43 -21q25 0 33 39z" />
    <glyph glyph-name="Odieresis" unicode="&#xd6;" horiz-adv-x="576" 
d="M364 726q114 0 167.5 -77t31.5 -192l-50 -234q-20 -105 -90 -172t-172 -67q-117 0 -170.5 77t-28.5 192l50 234q21 104 91 171.5t171 67.5zM356 634q-59 0 -100 -41t-54 -106l-51 -234q-16 -78 11 -127.5t95 -49.5q59 0 100.5 41t54.5 106l50 234q15 80 -13 128.5
t-93 48.5zM377 892l-21 -100h-100l21 100h100zM549 892l-21 -100h-100l21 100h100z" />
    <glyph glyph-name="multiply" unicode="&#xd7;" horiz-adv-x="501" 
d="M445 436l-134 -120l89 -116l-60 -48l-86 112l-125 -112l-48 58l128 114l-88 116l59 48l86 -113l131 118z" />
    <glyph glyph-name="Oslash" unicode="&#xd8;" horiz-adv-x="576" 
d="M365 726q87 0 143 -50l33 40h106l-91 -112q23 -65 8 -147l-50 -234q-20 -105 -90 -172t-172 -67q-88 0 -142 45l-29 -35h-106l86 104q-28 66 -8 155l50 234q21 104 91 171.5t171 67.5zM357 634q-59 0 -100 -41t-54 -106l-51 -234q-7 -33 -7 -54l295 400q-29 35 -83 35z
M413 223l50 234q3 16 5 42l-290 -394q27 -29 80 -29q59 0 100.5 41t54.5 106z" />
    <glyph glyph-name="Ugrave" unicode="&#xd9;" horiz-adv-x="585" 
d="M511 710h101l-104 -487q-20 -106 -89 -172.5t-170 -66.5q-106 0 -158.5 73.5t-28.5 185.5l100 467h100l-99 -467q-18 -80 7.5 -123.5t85.5 -43.5q56 0 97 40.5t55 106.5zM249 901h114l88 -117h-97z" />
    <glyph glyph-name="Uacute" unicode="&#xda;" horiz-adv-x="585" 
d="M511 710h101l-104 -487q-20 -106 -89 -172.5t-170 -66.5q-106 0 -158.5 73.5t-28.5 185.5l100 467h100l-99 -467q-18 -80 7.5 -123.5t85.5 -43.5q56 0 97 40.5t55 106.5zM553 901l-108 -117h-101l92 117h117z" />
    <glyph glyph-name="Ucircumflex" unicode="&#xdb;" horiz-adv-x="585" 
d="M511 710h101l-104 -487q-20 -106 -89 -172.5t-170 -66.5q-106 0 -158.5 73.5t-28.5 185.5l100 467h100l-99 -467q-18 -80 7.5 -123.5t85.5 -43.5q56 0 97 40.5t55 106.5zM250 784l122 109h84l82 -109h-98l-32 50l-52 -50h-106z" />
    <glyph glyph-name="Udieresis" unicode="&#xdc;" horiz-adv-x="585" 
d="M511 710h101l-104 -487q-20 -106 -89 -172.5t-170 -66.5q-106 0 -158.5 73.5t-28.5 185.5l100 467h100l-99 -467q-18 -80 7.5 -123.5t85.5 -43.5q56 0 97 40.5t55 106.5zM379 892l-21 -100h-100l21 100h100zM551 892l-21 -100h-100l21 100h100z" />
    <glyph glyph-name="Yacute" unicode="&#xdd;" horiz-adv-x="543" 
d="M637 710l-299 -360l-75 -350h-100l75 353l-135 357h112l90 -256l204 256h128zM531 901l-108 -117h-101l92 117h117z" />
    <glyph glyph-name="Thorn" unicode="&#xde;" horiz-adv-x="513" 
d="M168 710h100l-28 -129h66q110 0 164 -60t34 -157q-18 -97 -83 -153.5t-163 -56.5h-108l-33 -154h-100zM304 489h-83l-52 -243h90q57 0 94 32t49 89q13 58 -12.5 90t-85.5 32z" />
    <glyph glyph-name="germandbls" unicode="&#xdf;" horiz-adv-x="489" 
d="M268 434l2 9h20q26 0 45.5 23t28.5 60l7 36q11 45 -4.5 70.5t-51.5 25.5t-61 -23.5t-33 -62.5l-122 -572h-93l122 574q14 77 64.5 124t129.5 47q83 0 121 -51.5t22 -129.5l-9 -40q-17 -76 -71 -116q83 -51 58 -168l-11 -48q-17 -86 -73.5 -139t-144.5 -53h-45l19 87h26
q49 0 81.5 29t44.5 78l9 44q12 57 -8 87.5t-70 30.5h-19l4 20l5 27z" />
    <glyph glyph-name="agrave" unicode="&#xe0;" horiz-adv-x="476" 
d="M389 538h85l-115 -538h-84l8 39q-46 -52 -110 -52q-79 0 -118.5 60.5t-21.5 150.5l35 161q18 86 72.5 139t126.5 53q82 0 112 -61zM304 179l34 160q13 59 -5.5 92t-63.5 33q-41 0 -70.5 -29.5t-38.5 -77.5l-34 -158q-13 -59 5.5 -92t63.5 -33q41 0 70 29t39 76zM156 729
h114l88 -117h-97z" />
    <glyph glyph-name="aacute" unicode="&#xe1;" horiz-adv-x="476" 
d="M389 538h85l-115 -538h-84l8 39q-46 -52 -110 -52q-79 0 -118.5 60.5t-21.5 150.5l35 161q18 86 72.5 139t126.5 53q82 0 112 -61zM304 179l34 160q13 59 -5.5 92t-63.5 33q-41 0 -70.5 -29.5t-38.5 -77.5l-34 -158q-13 -59 5.5 -92t63.5 -33q41 0 70 29t39 76zM460 729
l-108 -117h-101l92 117h117z" />
    <glyph glyph-name="acircumflex" unicode="&#xe2;" horiz-adv-x="476" 
d="M389 538h85l-115 -538h-84l8 39q-46 -52 -110 -52q-79 0 -118.5 60.5t-21.5 150.5l35 161q18 86 72.5 139t126.5 53q82 0 112 -61zM304 179l34 160q13 59 -5.5 92t-63.5 33q-41 0 -70.5 -29.5t-38.5 -77.5l-34 -158q-13 -59 5.5 -92t63.5 -33q41 0 70 29t39 76zM157 612
l122 109h84l82 -109h-98l-32 50l-52 -50h-106z" />
    <glyph glyph-name="atilde" unicode="&#xe3;" horiz-adv-x="476" 
d="M389 538h85l-115 -538h-84l8 39q-46 -52 -110 -52q-79 0 -118.5 60.5t-21.5 150.5l35 161q18 86 72.5 139t126.5 53q82 0 112 -61zM304 179l34 160q13 59 -5.5 92t-63.5 33q-41 0 -70.5 -29.5t-38.5 -77.5l-34 -158q-13 -59 5.5 -92t63.5 -33q41 0 70 29t39 76zM401 716
h68q-7 -46 -34.5 -76.5t-66.5 -30.5q-29 0 -63 24q-31 22 -43 22q-26 0 -34 -40h-68q7 46 35 76.5t67 30.5q31 0 63 -24q27 -21 43 -21q25 0 33 39z" />
    <glyph glyph-name="adieresis" unicode="&#xe4;" horiz-adv-x="476" 
d="M389 538h85l-115 -538h-84l8 39q-46 -52 -110 -52q-79 0 -118.5 60.5t-21.5 150.5l35 161q18 86 72.5 139t126.5 53q82 0 112 -61zM304 179l34 160q13 59 -5.5 92t-63.5 33q-41 0 -70.5 -29.5t-38.5 -77.5l-34 -158q-13 -59 5.5 -92t63.5 -33q41 0 70 29t39 76zM287 720
l-21 -100h-100l21 100h100zM459 720l-21 -100h-100l21 100h100z" />
    <glyph glyph-name="aring" unicode="&#xe5;" horiz-adv-x="476" 
d="M389 538h85l-115 -538h-84l8 39q-46 -52 -110 -52q-79 0 -118.5 60.5t-21.5 150.5l35 161q18 86 72.5 139t126.5 53q82 0 112 -61zM304 179l34 160q13 59 -5.5 92t-63.5 33q-41 0 -70.5 -29.5t-38.5 -77.5l-34 -158q-13 -59 5.5 -92t63.5 -33q41 0 70 29t39 76zM307 595
q-52 0 -80.5 27t-23.5 72q4 42 38.5 69.5t85.5 27.5q50 0 79 -28t25 -69q-5 -46 -39 -72.5t-85 -26.5zM312 650q50 0 55 44q2 18 -10.5 30t-35.5 12q-21 0 -36.5 -12t-17.5 -30q-2 -21 10.5 -32.5t34.5 -11.5z" />
    <glyph glyph-name="ae" unicode="&#xe6;" horiz-adv-x="735" 
d="M554 551q89 0 130.5 -60t22.5 -150l-21 -100h-279l-9 -42q-13 -59 6.5 -92t65.5 -33q44 0 73.5 26t38.5 69l1 8h93l-2 -9q-17 -81 -71.5 -131t-140.5 -50q-93 0 -131 60q-55 -60 -145 -60q-87 0 -133.5 49t-40.5 117q6 71 57.5 118.5t133.5 47.5q75 0 117 -47l14 67
q14 61 -4 93t-63 32q-37 0 -64.5 -22.5t-35.5 -63.5l-3 -12h-93l3 14q14 76 68 123.5t134 47.5q90 0 128 -68q57 68 150 68zM195 62q46 0 74 25.5t32 65.5q4 39 -19 65t-69 26q-44 0 -72.5 -26.5t-32.5 -64.5q-4 -39 19.5 -65t67.5 -26zM432 357l-8 -34h186l4 16
q13 59 -6 92t-64 33q-43 0 -72.5 -29t-39.5 -78z" />
    <glyph glyph-name="ccedilla" unicode="&#xe7;" horiz-adv-x="449" 
d="M339 364l1 6q9 38 -10.5 66t-61.5 28q-40 0 -68.5 -29.5t-38.5 -77.5l-33 -158q-13 -59 5 -92t61 -33q41 0 69.5 26.5t36.5 69.5l1 6h93l-1 -7q-17 -82 -69 -132t-136 -50q-90 0 -131.5 60t-22.5 150l35 162q17 87 69.5 139.5t135.5 52.5q88 0 130.5 -54.5t27.5 -124.5
l-2 -8h-91zM166 -148h-95l87 172l82 -19z" />
    <glyph glyph-name="egrave" unicode="&#xe8;" horiz-adv-x="465" 
d="M279 551q92 0 134.5 -60t23.5 -150l-22 -100h-279l-9 -42q-13 -59 6.5 -92t66.5 -33q44 0 73.5 26t37.5 69l2 8h92l-1 -9q-18 -85 -73 -133t-138 -48q-92 0 -135 60t-24 150l34 162q19 90 74.5 141t136.5 51zM161 357l-8 -34h186l4 16q13 60 -5.5 92.5t-65.5 32.5
q-43 0 -72 -29t-39 -78zM150 729h114l88 -117h-97z" />
    <glyph glyph-name="eacute" unicode="&#xe9;" horiz-adv-x="465" 
d="M279 551q92 0 134.5 -60t23.5 -150l-22 -100h-279l-9 -42q-13 -59 6.5 -92t66.5 -33q44 0 73.5 26t37.5 69l2 8h92l-1 -9q-18 -85 -73 -133t-138 -48q-92 0 -135 60t-24 150l34 162q19 90 74.5 141t136.5 51zM161 357l-8 -34h186l4 16q13 60 -5.5 92.5t-65.5 32.5
q-43 0 -72 -29t-39 -78zM454 729l-108 -117h-101l92 117h117z" />
    <glyph glyph-name="ecircumflex" unicode="&#xea;" horiz-adv-x="465" 
d="M279 551q92 0 134.5 -60t23.5 -150l-22 -100h-279l-9 -42q-13 -59 6.5 -92t66.5 -33q44 0 73.5 26t37.5 69l2 8h92l-1 -9q-18 -85 -73 -133t-138 -48q-92 0 -135 60t-24 150l34 162q19 90 74.5 141t136.5 51zM161 357l-8 -34h186l4 16q13 60 -5.5 92.5t-65.5 32.5
q-43 0 -72 -29t-39 -78zM151 612l122 109h84l82 -109h-98l-32 50l-52 -50h-106z" />
    <glyph glyph-name="edieresis" unicode="&#xeb;" horiz-adv-x="465" 
d="M279 551q92 0 134.5 -60t23.5 -150l-22 -100h-279l-9 -42q-13 -59 6.5 -92t66.5 -33q44 0 73.5 26t37.5 69l2 8h92l-1 -9q-18 -85 -73 -133t-138 -48q-92 0 -135 60t-24 150l34 162q19 90 74.5 141t136.5 51zM161 357l-8 -34h186l4 16q13 60 -5.5 92.5t-65.5 32.5
q-43 0 -72 -29t-39 -78zM281 720l-21 -100h-100l21 100h100zM453 720l-21 -100h-100l21 100h100z" />
    <glyph glyph-name="igrave" unicode="&#xec;" horiz-adv-x="216" 
d="M213 538l-114 -538h-93l114 538h93zM39 729h114l88 -117h-97z" />
    <glyph glyph-name="iacute" unicode="&#xed;" horiz-adv-x="216" 
d="M213 538l-114 -538h-93l114 538h93zM344 729l-108 -117h-101l92 117h117z" />
    <glyph glyph-name="icircumflex" unicode="&#xee;" horiz-adv-x="216" 
d="M213 538l-114 -538h-93l114 538h93zM40 612l122 109h84l82 -109h-98l-32 50l-52 -50h-106z" />
    <glyph glyph-name="idieresis" unicode="&#xef;" horiz-adv-x="216" 
d="M213 538l-114 -538h-93l114 538h93zM170 720l-21 -100h-100l21 100h100zM342 720l-21 -100h-100l21 100h100z" />
    <glyph glyph-name="eth" unicode="&#xf0;" horiz-adv-x="469" 
d="M252 729l47 -68h127l-17 -77h-57l57 -82q48 -69 27 -163l-34 -160q-17 -86 -72 -139t-139 -53q-92 0 -135 60t-22 152l34 158q15 83 70.5 136t138.5 53l-21 31h-128l17 77h57l-52 75h102zM310 181l33 156q13 60 -6 93.5t-65 33.5q-43 0 -72.5 -29.5t-38.5 -77.5l-34 -156
q-13 -60 6 -93.5t64 -33.5q43 0 73 29.5t40 77.5z" />
    <glyph glyph-name="ntilde" unicode="&#xf1;" horiz-adv-x="482" 
d="M274 0l76 358q11 50 -5 78t-60 28q-42 0 -71 -28.5t-39 -77.5l-76 -358h-93l114 538h86l-9 -41q48 54 116 54q74 0 111 -55t21 -132l-78 -364h-93zM407 716h68q-7 -46 -34.5 -76.5t-66.5 -30.5q-29 0 -63 24q-31 22 -43 22q-26 0 -34 -40h-68q7 46 35 76.5t67 30.5
q31 0 63 -24q27 -21 43 -21q25 0 33 39z" />
    <glyph glyph-name="ograve" unicode="&#xf2;" horiz-adv-x="467" 
d="M283 551q90 0 131 -60.5t22 -151.5l-34 -160q-19 -91 -75.5 -141.5t-140.5 -50.5q-90 0 -131 60.5t-22 151.5l34 160q19 91 75.5 141.5t140.5 50.5zM309 181l33 156q13 60 -6 93.5t-64 33.5q-43 0 -72.5 -29t-39.5 -78l-34 -156q-13 -60 6 -93.5t64 -33.5q43 0 73 29.5
t40 77.5zM161 729h114l88 -117h-97z" />
    <glyph glyph-name="oacute" unicode="&#xf3;" horiz-adv-x="467" 
d="M283 551q90 0 131 -60.5t22 -151.5l-34 -160q-19 -91 -75.5 -141.5t-140.5 -50.5q-90 0 -131 60.5t-22 151.5l34 160q19 91 75.5 141.5t140.5 50.5zM309 181l33 156q13 60 -6 93.5t-64 33.5q-43 0 -72.5 -29t-39.5 -78l-34 -156q-13 -60 6 -93.5t64 -33.5q43 0 73 29.5
t40 77.5zM465 729l-108 -117h-101l92 117h117z" />
    <glyph glyph-name="ocircumflex" unicode="&#xf4;" horiz-adv-x="467" 
d="M283 551q90 0 131 -60.5t22 -151.5l-34 -160q-19 -91 -75.5 -141.5t-140.5 -50.5q-90 0 -131 60.5t-22 151.5l34 160q19 91 75.5 141.5t140.5 50.5zM309 181l33 156q13 60 -6 93.5t-64 33.5q-43 0 -72.5 -29t-39.5 -78l-34 -156q-13 -60 6 -93.5t64 -33.5q43 0 73 29.5
t40 77.5zM162 612l122 109h84l82 -109h-98l-32 50l-52 -50h-106z" />
    <glyph glyph-name="otilde" unicode="&#xf5;" horiz-adv-x="467" 
d="M283 551q90 0 131 -60.5t22 -151.5l-34 -160q-19 -91 -75.5 -141.5t-140.5 -50.5q-90 0 -131 60.5t-22 151.5l34 160q19 91 75.5 141.5t140.5 50.5zM309 181l33 156q13 60 -6 93.5t-64 33.5q-43 0 -72.5 -29t-39.5 -78l-34 -156q-13 -60 6 -93.5t64 -33.5q43 0 73 29.5
t40 77.5zM406 716h68q-7 -46 -34.5 -76.5t-66.5 -30.5q-29 0 -63 24q-31 22 -43 22q-26 0 -34 -40h-68q7 46 35 76.5t67 30.5q31 0 63 -24q27 -21 43 -21q25 0 33 39z" />
    <glyph glyph-name="odieresis" unicode="&#xf6;" horiz-adv-x="467" 
d="M283 551q90 0 131 -60.5t22 -151.5l-34 -160q-19 -91 -75.5 -141.5t-140.5 -50.5q-90 0 -131 60.5t-22 151.5l34 160q19 91 75.5 141.5t140.5 50.5zM309 181l33 156q13 60 -6 93.5t-64 33.5q-43 0 -72.5 -29t-39.5 -78l-34 -156q-13 -60 6 -93.5t64 -33.5q43 0 73 29.5
t40 77.5zM292 720l-21 -100h-100l21 100h100zM464 720l-21 -100h-100l21 100h100z" />
    <glyph glyph-name="divide" unicode="&#xf7;" horiz-adv-x="501" 
d="M103 357h334l-16 -74h-334zM353 525l-23 -106h-99l23 106h99zM294 222l-23 -106h-99l23 106h99z" />
    <glyph glyph-name="oslash" unicode="&#xf8;" horiz-adv-x="467" 
d="M284 551q60 0 98 -29l18 22h97l-68 -82q23 -55 8 -123l-34 -160q-19 -91 -75.5 -141.5t-140.5 -50.5q-62 0 -100 29l-19 -22h-97l69 84q-21 58 -6 121l34 160q19 91 75.5 141.5t140.5 50.5zM309 180l34 158l4 22l-199 -273q20 -14 48 -14q44 0 73.5 29t39.5 78zM160 358
l-34 -158q-1 -4 -4 -22l198 273q-20 14 -47 14q-44 0 -73.5 -29t-39.5 -78z" />
    <glyph glyph-name="ugrave" unicode="&#xf9;" horiz-adv-x="482" 
d="M209 538l-76 -358q-11 -50 5.5 -78t60.5 -28q42 0 70 28t38 72l2 6l77 358h93l-114 -538h-86l9 43q-50 -56 -117 -56q-76 0 -112 54.5t-20 132.5l77 364h93zM165 729h114l88 -117h-97z" />
    <glyph glyph-name="uacute" unicode="&#xfa;" horiz-adv-x="482" 
d="M209 538l-76 -358q-11 -50 5.5 -78t60.5 -28q42 0 70 28t38 72l2 6l77 358h93l-114 -538h-86l9 43q-50 -56 -117 -56q-76 0 -112 54.5t-20 132.5l77 364h93zM469 729l-108 -117h-101l92 117h117z" />
    <glyph glyph-name="ucircumflex" unicode="&#xfb;" horiz-adv-x="482" 
d="M209 538l-76 -358q-11 -50 5.5 -78t60.5 -28q42 0 70 28t38 72l2 6l77 358h93l-114 -538h-86l9 43q-50 -56 -117 -56q-76 0 -112 54.5t-20 132.5l77 364h93zM166 612l122 109h84l82 -109h-98l-32 50l-52 -50h-106z" />
    <glyph glyph-name="udieresis" unicode="&#xfc;" horiz-adv-x="482" 
d="M209 538l-76 -358q-11 -50 5.5 -78t60.5 -28q42 0 70 28t38 72l2 6l77 358h93l-114 -538h-86l9 43q-50 -56 -117 -56q-76 0 -112 54.5t-20 132.5l77 364h93zM296 720l-21 -100h-100l21 100h100zM468 720l-21 -100h-100l21 100h100z" />
    <glyph glyph-name="yacute" unicode="&#xfd;" horiz-adv-x="450" 
d="M498 538l-435 -707h-101l212 336l-106 371h95l70 -277l161 277h104zM450 729l-108 -117h-101l92 117h117z" />
    <glyph glyph-name="thorn" unicode="&#xfe;" horiz-adv-x="478" 
d="M213 -13q-77 0 -107 50l-43 -206h-93l191 898h93l-47 -219q41 41 100 41q79 0 118.5 -61t21.5 -150l-35 -161q-16 -85 -71.5 -138.5t-127.5 -53.5zM175 359l-34 -160q-13 -59 5.5 -92t63.5 -33q41 0 70 29.5t39 77.5l34 158q13 59 -5.5 92t-63.5 33q-41 0 -70 -29
t-39 -76z" />
    <glyph glyph-name="ydieresis" unicode="&#xff;" horiz-adv-x="450" 
d="M498 538l-435 -707h-101l212 336l-106 371h95l70 -277l161 277h104zM277 720l-21 -100h-100l21 100h100zM449 720l-21 -100h-100l21 100h100z" />
    <glyph glyph-name="Amacron" unicode="&#x100;" horiz-adv-x="542" 
d="M478 0h-103l-11 167h-220l-82 -167h-110l364 710h101zM338 563l-149 -304h169zM526 867l-16 -74h-264l16 74h264z" />
    <glyph glyph-name="amacron" unicode="&#x101;" horiz-adv-x="476" 
d="M389 538h85l-115 -538h-84l8 39q-46 -52 -110 -52q-79 0 -118.5 60.5t-21.5 150.5l35 161q18 86 72.5 139t126.5 53q82 0 112 -61zM304 179l34 160q13 59 -5.5 92t-63.5 33q-41 0 -70.5 -29.5t-38.5 -77.5l-34 -158q-13 -59 5.5 -92t63.5 -33q41 0 70 29t39 76zM450 695
l-16 -74h-264l16 74h264z" />
    <glyph glyph-name="Abreve" unicode="&#x102;" horiz-adv-x="542" 
d="M478 0h-103l-11 167h-220l-82 -167h-110l364 710h101zM338 563l-149 -304h169zM464 896h75q-24 -117 -148 -117q-70 0 -105.5 33.5t-23.5 83.5h76q-6 -25 8.5 -39t44.5 -14q29 0 48.5 14t24.5 39z" />
    <glyph glyph-name="abreve" unicode="&#x103;" horiz-adv-x="476" 
d="M389 538h85l-115 -538h-84l8 39q-46 -52 -110 -52q-79 0 -118.5 60.5t-21.5 150.5l35 161q18 86 72.5 139t126.5 53q82 0 112 -61zM304 179l34 160q13 59 -5.5 92t-63.5 33q-41 0 -70.5 -29.5t-38.5 -77.5l-34 -158q-13 -59 5.5 -92t63.5 -33q41 0 70 29t39 76zM388 724
h75q-24 -117 -148 -117q-70 0 -105.5 33.5t-23.5 83.5h76q-6 -25 8.5 -39t44.5 -14q29 0 48.5 14t24.5 39z" />
    <glyph glyph-name="Aogonek" unicode="&#x104;" horiz-adv-x="542" 
d="M478 0h-103l-11 167h-220l-82 -167h-110l364 710h101zM338 563l-149 -304h169zM393 26l64 -26l-42 -32q-25 -20 -29 -39q-2 -11 4.5 -17.5t22.5 -6.5h32l-15 -74h-38q-51 0 -75.5 26t-17.5 61q7 32 44 63z" />
    <glyph glyph-name="aogonek" unicode="&#x105;" horiz-adv-x="476" 
d="M388 538h85l-115 -538l-41 -32q-26 -20 -29 -39q-2 -12 4.5 -18t21.5 -6h32l-15 -74h-38q-51 0 -75.5 26t-17.5 61q7 32 44 63l32 29l6 29q-46 -52 -110 -52q-79 0 -118.5 60.5t-21.5 150.5l35 161q18 86 72.5 139t126.5 53q82 0 112 -61zM304 179l34 160q13 59 -5.5 92
t-63.5 33q-41 0 -70.5 -29.5t-38.5 -77.5l-34 -158q-13 -59 5.5 -92t63.5 -33q41 0 70 29t39 76z" />
    <glyph glyph-name="Cacute" unicode="&#x106;" horiz-adv-x="544" 
d="M500 232l-2 -10q-19 -104 -87 -171t-169 -67q-109 0 -162.5 76t-27.5 193l50 235q21 105 89 171.5t170 66.5q105 0 158 -69t34 -161l-1 -3h-100v3q13 57 -14 97.5t-87 40.5q-55 0 -94.5 -41t-54.5 -106l-50 -234q-20 -83 7.5 -130t93.5 -47q54 0 93 41t51 105l2 10h101z
M536 901l-108 -117h-101l92 117h117z" />
    <glyph glyph-name="cacute" unicode="&#x107;" horiz-adv-x="449" 
d="M339 364l1 6q9 38 -10.5 66t-61.5 28q-40 0 -68.5 -29.5t-38.5 -77.5l-33 -158q-13 -59 5 -92t61 -33q41 0 69.5 26.5t36.5 69.5l1 6h93l-1 -7q-17 -82 -69 -132t-136 -50q-90 0 -131.5 60t-22.5 150l35 162q17 87 69.5 139.5t135.5 52.5q88 0 130.5 -54.5t27.5 -124.5
l-2 -8h-91zM453 729l-108 -117h-101l92 117h117z" />
    <glyph glyph-name="Ccircumflex" unicode="&#x108;" horiz-adv-x="544" 
d="M500 232l-2 -10q-19 -104 -87 -171t-169 -67q-109 0 -162.5 76t-27.5 193l50 235q21 105 89 171.5t170 66.5q105 0 158 -69t34 -161l-1 -3h-100v3q13 57 -14 97.5t-87 40.5q-55 0 -94.5 -41t-54.5 -106l-50 -234q-20 -83 7.5 -130t93.5 -47q54 0 93 41t51 105l2 10h101z
M233 784l122 109h84l82 -109h-98l-32 50l-52 -50h-106z" />
    <glyph glyph-name="ccircumflex" unicode="&#x109;" horiz-adv-x="449" 
d="M339 364l1 6q9 38 -10.5 66t-61.5 28q-40 0 -68.5 -29.5t-38.5 -77.5l-33 -158q-13 -59 5 -92t61 -33q41 0 69.5 26.5t36.5 69.5l1 6h93l-1 -7q-17 -82 -69 -132t-136 -50q-90 0 -131.5 60t-22.5 150l35 162q17 87 69.5 139.5t135.5 52.5q88 0 130.5 -54.5t27.5 -124.5
l-2 -8h-91zM150 612l122 109h84l82 -109h-98l-32 50l-52 -50h-106z" />
    <glyph glyph-name="Cdotaccent" unicode="&#x10a;" horiz-adv-x="544" 
d="M500 232l-2 -10q-19 -104 -87 -171t-169 -67q-109 0 -162.5 76t-27.5 193l50 235q21 105 89 171.5t170 66.5q105 0 158 -69t34 -161l-1 -3h-100v3q13 57 -14 97.5t-87 40.5q-55 0 -94.5 -41t-54.5 -106l-50 -234q-20 -83 7.5 -130t93.5 -47q54 0 93 41t51 105l2 10h101z
M448 902l-23 -107h-99l23 107h99z" />
    <glyph glyph-name="cdotaccent" unicode="&#x10b;" horiz-adv-x="449" 
d="M339 364l1 6q9 38 -10.5 66t-61.5 28q-40 0 -68.5 -29.5t-38.5 -77.5l-33 -158q-13 -59 5 -92t61 -33q41 0 69.5 26.5t36.5 69.5l1 6h93l-1 -7q-17 -82 -69 -132t-136 -50q-90 0 -131.5 60t-22.5 150l35 162q17 87 69.5 139.5t135.5 52.5q88 0 130.5 -54.5t27.5 -124.5
l-2 -8h-91zM365 730l-23 -107h-99l23 107h99z" />
    <glyph glyph-name="Ccaron" unicode="&#x10c;" horiz-adv-x="544" 
d="M500 232l-2 -10q-19 -104 -87 -171t-169 -67q-109 0 -162.5 76t-27.5 193l50 235q21 105 89 171.5t170 66.5q105 0 158 -69t34 -161l-1 -3h-100v3q13 57 -14 97.5t-87 40.5q-55 0 -94.5 -41t-54.5 -106l-50 -234q-20 -83 7.5 -130t93.5 -47q54 0 93 41t51 105l2 10h101z
M543 893l-122 -109h-84l-82 109h98l32 -50l52 50h106z" />
    <glyph glyph-name="ccaron" unicode="&#x10d;" horiz-adv-x="449" 
d="M339 364l1 6q9 38 -10.5 66t-61.5 28q-40 0 -68.5 -29.5t-38.5 -77.5l-33 -158q-13 -59 5 -92t61 -33q41 0 69.5 26.5t36.5 69.5l1 6h93l-1 -7q-17 -82 -69 -132t-136 -50q-90 0 -131.5 60t-22.5 150l35 162q17 87 69.5 139.5t135.5 52.5q88 0 130.5 -54.5t27.5 -124.5
l-2 -8h-91zM460 721l-122 -109h-84l-82 109h98l32 -50l52 50h106z" />
    <glyph glyph-name="Dcaron" unicode="&#x10e;" horiz-adv-x="571" 
d="M168 710h190q114 0 168 -70.5t30 -184.5l-49 -228q-21 -104 -89.5 -165.5t-171.5 -61.5h-229zM249 618l-112 -526h110q62 0 104 35.5t56 99.5l49 227q17 82 -9.5 123t-89.5 41h-108zM547 893l-122 -109h-84l-82 109h98l32 -50l52 50h106z" />
    <glyph glyph-name="dcaron" unicode="&#x10f;" horiz-adv-x="577" 
d="M666 710l-61 -199h-75l45 199h91zM267 551q74 0 106 -49l48 227h93l-155 -729h-84l8 39q-46 -52 -110 -52q-79 0 -118.5 60.5t-21.5 150.5l35 161q18 86 72.5 139t126.5 53zM304 179l34 160q13 59 -5.5 92t-63.5 33q-41 0 -70.5 -29.5t-38.5 -77.5l-34 -158
q-13 -59 5.5 -92t63.5 -33q41 0 70 29t39 76z" />
    <glyph glyph-name="Dcroat" unicode="&#x110;" horiz-adv-x="580" 
d="M178 710h190q114 0 168 -70.5t30 -184.5l-49 -228q-21 -104 -89.5 -165.5t-171.5 -61.5h-229l68 319h-72l20 92h71zM258 618l-44 -207h136l-19 -92h-137l-48 -227h110q62 0 104 35.5t56 99.5l49 227q17 82 -9.5 123t-89.5 41h-108z" />
    <glyph glyph-name="dcroat" unicode="&#x111;" horiz-adv-x="476" 
d="M267 551q74 0 106 -49l18 89h-103l16 75h103l14 63h93l-14 -63h56l-16 -75h-56l-125 -591h-84l8 39q-46 -52 -110 -52q-79 0 -118.5 60.5t-21.5 150.5l35 161q18 86 72.5 139t126.5 53zM304 179l34 160q13 59 -5.5 92t-63.5 33q-41 0 -70.5 -29.5t-38.5 -77.5l-34 -158
q-13 -59 5.5 -92t63.5 -33q41 0 70 29t39 76z" />
    <glyph glyph-name="Emacron" unicode="&#x112;" horiz-adv-x="488" 
d="M515 618h-266l-44 -207h215l-20 -92h-215l-48 -227h275l-19 -92h-376l151 710h366zM510 867l-16 -74h-264l16 74h264z" />
    <glyph glyph-name="emacron" unicode="&#x113;" horiz-adv-x="465" 
d="M279 551q92 0 134.5 -60t23.5 -150l-22 -100h-279l-9 -42q-13 -59 6.5 -92t66.5 -33q44 0 73.5 26t37.5 69l2 8h92l-1 -9q-18 -85 -73 -133t-138 -48q-92 0 -135 60t-24 150l34 162q19 90 74.5 141t136.5 51zM161 357l-8 -34h186l4 16q13 60 -5.5 92.5t-65.5 32.5
q-43 0 -72 -29t-39 -78zM444 695l-16 -74h-264l16 74h264z" />
    <glyph glyph-name="Ebreve" unicode="&#x114;" horiz-adv-x="488" 
d="M515 618h-266l-44 -207h215l-20 -92h-215l-48 -227h275l-19 -92h-376l151 710h366zM448 896h75q-24 -117 -148 -117q-70 0 -105.5 33.5t-23.5 83.5h76q-6 -25 8.5 -39t44.5 -14q29 0 48.5 14t24.5 39z" />
    <glyph glyph-name="ebreve" unicode="&#x115;" horiz-adv-x="465" 
d="M279 551q92 0 134.5 -60t23.5 -150l-22 -100h-279l-9 -42q-13 -59 6.5 -92t66.5 -33q44 0 73.5 26t37.5 69l2 8h92l-1 -9q-18 -85 -73 -133t-138 -48q-92 0 -135 60t-24 150l34 162q19 90 74.5 141t136.5 51zM161 357l-8 -34h186l4 16q13 60 -5.5 92.5t-65.5 32.5
q-43 0 -72 -29t-39 -78zM382 724h75q-24 -117 -148 -117q-70 0 -105.5 33.5t-23.5 83.5h76q-6 -25 8.5 -39t44.5 -14q29 0 48.5 14t24.5 39z" />
    <glyph glyph-name="Edotaccent" unicode="&#x116;" horiz-adv-x="488" 
d="M515 618h-266l-44 -207h215l-20 -92h-215l-48 -227h275l-19 -92h-376l151 710h366zM433 902l-23 -107h-99l23 107h99z" />
    <glyph glyph-name="edotaccent" unicode="&#x117;" horiz-adv-x="465" 
d="M279 551q92 0 134.5 -60t23.5 -150l-22 -100h-279l-9 -42q-13 -59 6.5 -92t66.5 -33q44 0 73.5 26t37.5 69l2 8h92l-1 -9q-18 -85 -73 -133t-138 -48q-92 0 -135 60t-24 150l34 162q19 90 74.5 141t136.5 51zM161 357l-8 -34h186l4 16q13 60 -5.5 92.5t-65.5 32.5
q-43 0 -72 -29t-39 -78zM366 730l-23 -107h-99l23 107h99z" />
    <glyph glyph-name="Eogonek" unicode="&#x118;" horiz-adv-x="488" 
d="M515 618h-266l-44 -207h215l-20 -92h-215l-48 -227h275l-19 -92h-376l151 710h366zM306 26l64 -26l-42 -32q-25 -20 -29 -39q-2 -11 4.5 -17.5t22.5 -6.5h32l-15 -74h-38q-51 0 -75.5 26t-17.5 61q7 32 44 63z" />
    <glyph glyph-name="eogonek" unicode="&#x119;" horiz-adv-x="464" 
d="M278 551q92 0 134.5 -60t23.5 -150l-22 -100h-279l-9 -42q-13 -59 6.5 -92t66.5 -33q44 0 73.5 26t37.5 69l2 8h92l-1 -9q-18 -86 -75 -135l-54 -67q-16 -22 -20 -37q-2 -11 4.5 -17.5t22.5 -6.5h32l-15 -74h-38q-51 0 -75.5 25.5t-17.5 58.5q4 24 43 70l2 3
q-4 0 -10 -0.5t-10 -0.5q-92 0 -135 60t-24 150l34 162q19 90 74.5 141t136.5 51zM160 357l-8 -34h186l4 16q13 60 -5.5 92.5t-65.5 32.5q-43 0 -72 -29t-39 -78z" />
    <glyph glyph-name="Ecaron" unicode="&#x11a;" horiz-adv-x="488" 
d="M515 618h-266l-44 -207h215l-20 -92h-215l-48 -227h275l-19 -92h-376l151 710h366zM528 893l-122 -109h-84l-82 109h98l32 -50l52 50h106z" />
    <glyph glyph-name="ecaron" unicode="&#x11b;" horiz-adv-x="465" 
d="M279 551q92 0 134.5 -60t23.5 -150l-22 -100h-279l-9 -42q-13 -59 6.5 -92t66.5 -33q44 0 73.5 26t37.5 69l2 8h92l-1 -9q-18 -85 -73 -133t-138 -48q-92 0 -135 60t-24 150l34 162q19 90 74.5 141t136.5 51zM161 357l-8 -34h186l4 16q13 60 -5.5 92.5t-65.5 32.5
q-43 0 -72 -29t-39 -78zM461 721l-122 -109h-84l-82 109h98l32 -50l52 50h106z" />
    <glyph glyph-name="Gcircumflex" unicode="&#x11c;" horiz-adv-x="566" 
d="M249 76q59 0 102 38t58 108l12 57h-139l19 91h233l-79 -370h-83l10 47q-60 -63 -150 -63q-102 0 -154 75.5t-28 184.5l52 244q21 104 89.5 171t166.5 67q110 0 163.5 -67.5t34.5 -161.5l-1 -4h-100l1 4q11 55 -15 96t-84 41t-98.5 -40.5t-55.5 -106.5l-50 -234
q-18 -85 8.5 -131t87.5 -46zM244 784l122 109h84l82 -109h-98l-32 50l-52 -50h-106z" />
    <glyph glyph-name="gcircumflex" unicode="&#x11d;" horiz-adv-x="476" 
d="M269 551q83 0 109 -67l11 54h85l-113 -530q-19 -90 -73.5 -140t-135.5 -50q-82 0 -124.5 52t-28.5 117l1 5h90l-1 -3q-8 -35 12 -60t58 -25q41 0 70 28.5t39 77.5l10 46q-42 -36 -101 -36q-78 0 -117.5 60.5t-19.5 150.5l27 128q20 91 74.5 141.5t127.5 50.5zM311 213
l27 126q13 59 -5.5 92t-63.5 33q-41 0 -70.5 -29.5t-38.5 -77.5l-27 -125q-13 -59 5.5 -92t63.5 -33q41 0 70 29.5t39 76.5zM157 612l122 109h84l82 -109h-98l-32 50l-52 -50h-106z" />
    <glyph glyph-name="Gbreve" unicode="&#x11e;" horiz-adv-x="566" 
d="M249 76q59 0 102 38t58 108l12 57h-139l19 91h233l-79 -370h-83l10 47q-60 -63 -150 -63q-102 0 -154 75.5t-28 184.5l52 244q21 104 89.5 171t166.5 67q110 0 163.5 -67.5t34.5 -161.5l-1 -4h-100l1 4q11 55 -15 96t-84 41t-98.5 -40.5t-55.5 -106.5l-50 -234
q-18 -85 8.5 -131t87.5 -46zM474 896h75q-24 -117 -148 -117q-70 0 -105.5 33.5t-23.5 83.5h76q-6 -25 8.5 -39t44.5 -14q29 0 48.5 14t24.5 39z" />
    <glyph glyph-name="gbreve" unicode="&#x11f;" horiz-adv-x="476" 
d="M269 551q83 0 109 -67l11 54h85l-113 -530q-19 -90 -73.5 -140t-135.5 -50q-82 0 -124.5 52t-28.5 117l1 5h90l-1 -3q-8 -35 12 -60t58 -25q41 0 70 28.5t39 77.5l10 46q-42 -36 -101 -36q-78 0 -117.5 60.5t-19.5 150.5l27 128q20 91 74.5 141.5t127.5 50.5zM311 213
l27 126q13 59 -5.5 92t-63.5 33q-41 0 -70.5 -29.5t-38.5 -77.5l-27 -125q-13 -59 5.5 -92t63.5 -33q41 0 70 29.5t39 76.5zM388 724h75q-24 -117 -148 -117q-70 0 -105.5 33.5t-23.5 83.5h76q-6 -25 8.5 -39t44.5 -14q29 0 48.5 14t24.5 39z" />
    <glyph glyph-name="Gdotaccent" unicode="&#x120;" horiz-adv-x="566" 
d="M249 76q59 0 102 38t58 108l12 57h-139l19 91h233l-79 -370h-83l10 47q-60 -63 -150 -63q-102 0 -154 75.5t-28 184.5l52 244q21 104 89.5 171t166.5 67q110 0 163.5 -67.5t34.5 -161.5l-1 -4h-100l1 4q11 55 -15 96t-84 41t-98.5 -40.5t-55.5 -106.5l-50 -234
q-18 -85 8.5 -131t87.5 -46zM459 902l-23 -107h-99l23 107h99z" />
    <glyph glyph-name="gdotaccent" unicode="&#x121;" horiz-adv-x="476" 
d="M269 551q83 0 109 -67l11 54h85l-113 -530q-19 -90 -73.5 -140t-135.5 -50q-82 0 -124.5 52t-28.5 117l1 5h90l-1 -3q-8 -35 12 -60t58 -25q41 0 70 28.5t39 77.5l10 46q-42 -36 -101 -36q-78 0 -117.5 60.5t-19.5 150.5l27 128q20 91 74.5 141.5t127.5 50.5zM311 213
l27 126q13 59 -5.5 92t-63.5 33q-41 0 -70.5 -29.5t-38.5 -77.5l-27 -125q-13 -59 5.5 -92t63.5 -33q41 0 70 29.5t39 76.5zM372 730l-23 -107h-99l23 107h99z" />
    <glyph glyph-name="uni0122" unicode="&#x122;" horiz-adv-x="566" 
d="M249 76q59 0 102 38t58 108l12 57h-139l19 91h233l-79 -370h-83l10 47q-60 -63 -150 -63q-102 0 -154 75.5t-28 184.5l52 244q21 104 89.5 171t166.5 67q110 0 163.5 -67.5t34.5 -161.5l-1 -4h-100l1 4q11 55 -15 96t-84 41t-98.5 -40.5t-55.5 -106.5l-50 -234
q-18 -85 8.5 -131t87.5 -46zM155 -203l56 77h-47l17 78h107l-15 -71l-59 -84h-59z" />
    <glyph glyph-name="uni0123" unicode="&#x123;" horiz-adv-x="476" 
d="M269 551q83 0 109 -67l11 54h85l-113 -530q-19 -90 -73.5 -140t-135.5 -50q-82 0 -124.5 52t-28.5 117l1 5h90l-1 -3q-8 -35 12 -60t58 -25q41 0 70 28.5t39 77.5l10 46q-42 -36 -101 -36q-78 0 -117.5 60.5t-19.5 150.5l27 128q20 91 74.5 141.5t127.5 50.5zM311 213
l27 126q13 59 -5.5 92t-63.5 33q-41 0 -70.5 -29.5t-38.5 -77.5l-27 -125q-13 -59 5.5 -92t63.5 -33q41 0 70 29.5t39 76.5zM369 750l-46 -64h46l-16 -74h-107l14 67h1l49 71h59z" />
    <glyph glyph-name="Hcircumflex" unicode="&#x124;" horiz-adv-x="596" 
d="M517 710h100l-151 -710h-100l67 318h-249l-67 -318h-100l151 710h100l-64 -299h249zM265 784l122 109h84l82 -109h-98l-32 50l-52 -50h-106z" />
    <glyph glyph-name="hcircumflex" unicode="&#x125;" horiz-adv-x="482" 
d="M274 0l76 358q11 50 -5 78t-60 28q-42 0 -71 -28.5t-39 -77.5l-76 -358h-93l155 729h93l-48 -223q47 45 107 45q74 0 111 -55t21 -132l-78 -364h-93zM199 768l122 109h84l82 -109h-98l-32 50l-52 -50h-106z" />
    <glyph glyph-name="Hbar" unicode="&#x126;" horiz-adv-x="610" 
d="M524 710h100l-24 -110h68l-19 -87h-67l-109 -513h-100l67 318h-249l-67 -318h-100l109 513h-65l19 87h64l24 110h100l-24 -110h249zM233 513l-22 -102h249l22 102h-249z" />
    <glyph glyph-name="hbar" unicode="&#x127;" horiz-adv-x="482" 
d="M274 0l76 358q11 50 -5 78t-60 28q-42 0 -71 -28.5t-39 -77.5l-40 2q19 94 71 146l-29 -138l-2 -10l-76 -358h-93l125 591h-56l15 75h57l14 63h93l-14 -63h102l-15 -75h-103l-18 -85q47 45 107 45q74 0 111 -55t21 -132l-78 -364h-93z" />
    <glyph glyph-name="Itilde" unicode="&#x128;" horiz-adv-x="247" 
d="M168 710h100l-151 -710h-100zM335 887h68q-7 -46 -34.5 -76.5t-66.5 -30.5q-29 0 -63 24q-31 22 -43 22q-26 0 -34 -40h-68q7 46 35 76.5t67 30.5q31 0 63 -24q27 -21 43 -21q25 0 33 39z" />
    <glyph glyph-name="itilde" unicode="&#x129;" horiz-adv-x="216" 
d="M213 538l-114 -538h-93l114 538h93zM284 716h68q-7 -46 -34.5 -76.5t-66.5 -30.5q-29 0 -63 24q-31 22 -43 22q-26 0 -34 -40h-68q7 46 35 76.5t67 30.5q31 0 63 -24q27 -21 43 -21q25 0 33 39z" />
    <glyph glyph-name="Imacron" unicode="&#x12a;" horiz-adv-x="247" 
d="M168 710h100l-151 -710h-100zM384 867l-16 -74h-264l16 74h264z" />
    <glyph glyph-name="imacron" unicode="&#x12b;" horiz-adv-x="216" 
d="M213 538l-114 -538h-93l114 538h93zM333 695l-16 -74h-264l16 74h264z" />
    <glyph glyph-name="Ibreve" unicode="&#x12c;" horiz-adv-x="247" 
d="M168 710h100l-151 -710h-100zM322 896h75q-24 -117 -148 -117q-70 0 -105.5 33.5t-23.5 83.5h76q-6 -25 8.5 -39t44.5 -14q29 0 48.5 14t24.5 39z" />
    <glyph glyph-name="ibreve" unicode="&#x12d;" horiz-adv-x="216" 
d="M213 538l-114 -538h-93l114 538h93zM271 724h75q-24 -117 -148 -117q-70 0 -105.5 33.5t-23.5 83.5h76q-6 -25 8.5 -39t44.5 -14q29 0 48.5 14t24.5 39z" />
    <glyph glyph-name="Iogonek" unicode="&#x12e;" horiz-adv-x="248" 
d="M168 710h100l-151 -710h1l-42 -32q-25 -20 -29 -39q-2 -11 4.5 -17.5t22.5 -6.5h32l-16 -74h-37q-51 0 -75 25.5t-18 59.5q5 29 48 65l20 19h-11z" />
    <glyph glyph-name="iogonek" unicode="&#x12f;" horiz-adv-x="217" 
d="M214 538l-114 -538l-42 -32q-25 -20 -29 -39q-2 -11 4.5 -17.5t22.5 -6.5h32l-15 -74h-38q-51 0 -75.5 26t-17.5 61q7 32 44 63l21 19l114 538h93zM256 730l-23 -107h-99l23 107h99z" />
    <glyph glyph-name="Idotaccent" unicode="&#x130;" horiz-adv-x="247" 
d="M168 710h100l-151 -710h-100zM306 902l-23 -107h-99l23 107h99z" />
    <glyph glyph-name="dotlessi" unicode="&#x131;" horiz-adv-x="216" 
d="M213 538l-114 -538h-93l114 538h93z" />
    <glyph glyph-name="Jcircumflex" unicode="&#x134;" horiz-adv-x="477" 
d="M402 710h101l-114 -533q-16 -84 -76 -138.5t-141 -54.5q-94 0 -140 58t-29 135l9 44h98l-9 -44q-9 -46 10 -73.5t63 -27.5t74.5 27.5t40.5 73.5zM325 784l122 109h84l82 -109h-98l-32 50l-52 -50h-106z" />
    <glyph glyph-name="jcircumflex" unicode="&#x135;" horiz-adv-x="216" 
d="M1 -26l120 564h93l-122 -571q-11 -60 -50.5 -98t-92.5 -38h-54l17 82h22q24 0 42.5 16.5t24.5 44.5zM41 612l122 109h84l82 -109h-98l-32 50l-52 -50h-106z" />
    <glyph glyph-name="uni0136" unicode="&#x136;" horiz-adv-x="531" 
d="M484 710h120l-271 -315l139 -395h-107l-108 325l-92 -98l-48 -227h-100l151 710h100l-72 -338zM151 -203l56 77h-47l17 78h107l-15 -71l-59 -84h-59z" />
    <glyph glyph-name="uni0137" unicode="&#x137;" horiz-adv-x="450" 
d="M294 0l-92 239l-67 -71l-36 -168h-93l155 729h93l-90 -422l208 231h118l-219 -235l121 -303h-98zM107 -203l56 77h-47l17 78h107l-15 -71l-59 -84h-59z" />
    <glyph glyph-name="Lacute" unicode="&#x139;" horiz-adv-x="445" 
d="M268 710l-131 -618h261l-20 -92h-361l151 710h100zM395 901l-108 -117h-101l92 117h117z" />
    <glyph glyph-name="lacute" unicode="&#x13a;" horiz-adv-x="217" 
d="M161 729h93l-155 -729h-93zM377 885l-108 -117h-101l92 117h117z" />
    <glyph glyph-name="uni013B" unicode="&#x13b;" horiz-adv-x="445" 
d="M268 710l-131 -618h261l-20 -92h-361l151 710h100zM124 -203l56 77h-47l17 78h107l-15 -71l-59 -84h-59z" />
    <glyph glyph-name="uni013C" unicode="&#x13c;" horiz-adv-x="217" 
d="M161 729h93l-155 -729h-93zM-34 -203l56 77h-47l17 78h107l-15 -71l-59 -84h-59z" />
    <glyph glyph-name="Lcaron" unicode="&#x13d;" horiz-adv-x="438" 
d="M268 710l-131 -618h261l-20 -92h-361l151 710h100zM433 710l-61 -199h-75l45 199h91z" />
    <glyph glyph-name="lcaron" unicode="&#x13e;" horiz-adv-x="316" 
d="M161 729h93l-155 -729h-93zM406 710l-61 -199h-75l45 199h91z" />
    <glyph glyph-name="Ldot" unicode="&#x13f;" horiz-adv-x="445" 
d="M268 710l-131 -618h261l-20 -92h-361l151 710h100zM422 424l-23 -107h-99l23 107h99z" />
    <glyph glyph-name="ldot" unicode="&#x140;" horiz-adv-x="325" 
d="M161 729h93l-155 -729h-93zM353 421l-23 -107h-99l23 107h99z" />
    <glyph glyph-name="Lslash" unicode="&#x141;" horiz-adv-x="454" 
d="M277 710l-62 -290l158 48l-21 -99l-158 -47l-48 -230h261l-20 -92h-361l63 297l-71 -21l21 99l71 21l67 314h100z" />
    <glyph glyph-name="lslash" unicode="&#x142;" horiz-adv-x="314" 
d="M210 729h93l-59 -279l92 32l-19 -91l-93 -31l-76 -360h-93l71 334l-94 -32l19 90l94 32z" />
    <glyph glyph-name="Nacute" unicode="&#x143;" horiz-adv-x="610" 
d="M630 710l-150 -710h-90l-162 521l-111 -521h-100l151 710h93l161 -510l108 510h100zM551 901l-108 -117h-101l92 117h117z" />
    <glyph glyph-name="nacute" unicode="&#x144;" horiz-adv-x="482" 
d="M274 0l76 358q11 50 -5 78t-60 28q-42 0 -71 -28.5t-39 -77.5l-76 -358h-93l114 538h86l-9 -41q48 54 116 54q74 0 111 -55t21 -132l-78 -364h-93zM466 729l-108 -117h-101l92 117h117z" />
    <glyph glyph-name="uni0145" unicode="&#x145;" horiz-adv-x="610" 
d="M630 710l-150 -710h-90l-162 521l-111 -521h-100l151 710h93l161 -510l108 510h100zM170 -203l56 77h-47l17 78h107l-15 -71l-59 -84h-59z" />
    <glyph glyph-name="uni0146" unicode="&#x146;" horiz-adv-x="482" 
d="M274 0l76 358q11 50 -5 78t-60 28q-42 0 -71 -28.5t-39 -77.5l-76 -358h-93l114 538h86l-9 -41q48 54 116 54q74 0 111 -55t21 -132l-78 -364h-93zM104 -203l56 77h-47l17 78h107l-15 -71l-59 -84h-59z" />
    <glyph glyph-name="Ncaron" unicode="&#x147;" horiz-adv-x="610" 
d="M630 710l-150 -710h-90l-162 521l-111 -521h-100l151 710h93l161 -510l108 510h100zM558 893l-122 -109h-84l-82 109h98l32 -50l52 50h106z" />
    <glyph glyph-name="ncaron" unicode="&#x148;" horiz-adv-x="482" 
d="M274 0l76 358q11 50 -5 78t-60 28q-42 0 -71 -28.5t-39 -77.5l-76 -358h-93l114 538h86l-9 -41q48 54 116 54q74 0 111 -55t21 -132l-78 -364h-93zM473 721l-122 -109h-84l-82 109h98l32 -50l52 50h106z" />
    <glyph glyph-name="Eng" unicode="&#x14a;" horiz-adv-x="609" 
d="M630 710l-150 -710l-7 -33q-10 -60 -50 -98t-93 -38h-61l19 89h31q43 0 55 51l10 48l-156 502l-111 -521h-100l151 710h93l161 -510l108 510h100z" />
    <glyph glyph-name="eng" unicode="&#x14b;" horiz-adv-x="482" 
d="M314 551q79 0 113.5 -52t19.5 -127l-86 -405q-12 -59 -51 -97.5t-93 -38.5h-50l17 82h19q24 0 42.5 16.5t24.5 44.5l81 384q11 50 -5 78t-60 28q-42 0 -71 -28.5t-39 -77.5h-1l-76 -358h-93l114 538h86l-9 -42q49 55 117 55z" />
    <glyph glyph-name="Omacron" unicode="&#x14c;" horiz-adv-x="576" 
d="M364 726q114 0 167.5 -77t31.5 -192l-50 -234q-20 -105 -90 -172t-172 -67q-117 0 -170.5 77t-28.5 192l50 234q21 104 91 171.5t171 67.5zM356 634q-59 0 -100 -41t-54 -106l-51 -234q-16 -78 11 -127.5t95 -49.5q59 0 100.5 41t54.5 106l50 234q15 80 -13 128.5
t-93 48.5zM540 867l-16 -74h-264l16 74h264z" />
    <glyph glyph-name="omacron" unicode="&#x14d;" horiz-adv-x="467" 
d="M283 551q90 0 131 -60.5t22 -151.5l-34 -160q-19 -91 -75.5 -141.5t-140.5 -50.5q-90 0 -131 60.5t-22 151.5l34 160q19 91 75.5 141.5t140.5 50.5zM309 181l33 156q13 60 -6 93.5t-64 33.5q-43 0 -72.5 -29t-39.5 -78l-34 -156q-13 -60 6 -93.5t64 -33.5q43 0 73 29.5
t40 77.5zM455 695l-16 -74h-264l16 74h264z" />
    <glyph glyph-name="Obreve" unicode="&#x14e;" horiz-adv-x="576" 
d="M364 726q114 0 167.5 -77t31.5 -192l-50 -234q-20 -105 -90 -172t-172 -67q-117 0 -170.5 77t-28.5 192l50 234q21 104 91 171.5t171 67.5zM356 634q-59 0 -100 -41t-54 -106l-51 -234q-16 -78 11 -127.5t95 -49.5q59 0 100.5 41t54.5 106l50 234q15 80 -13 128.5
t-93 48.5zM478 896h75q-24 -117 -148 -117q-70 0 -105.5 33.5t-23.5 83.5h76q-6 -25 8.5 -39t44.5 -14q29 0 48.5 14t24.5 39z" />
    <glyph glyph-name="obreve" unicode="&#x14f;" horiz-adv-x="467" 
d="M283 551q90 0 131 -60.5t22 -151.5l-34 -160q-19 -91 -75.5 -141.5t-140.5 -50.5q-90 0 -131 60.5t-22 151.5l34 160q19 91 75.5 141.5t140.5 50.5zM309 181l33 156q13 60 -6 93.5t-64 33.5q-43 0 -72.5 -29t-39.5 -78l-34 -156q-13 -60 6 -93.5t64 -33.5q43 0 73 29.5
t40 77.5zM393 724h75q-24 -117 -148 -117q-70 0 -105.5 33.5t-23.5 83.5h76q-6 -25 8.5 -39t44.5 -14q29 0 48.5 14t24.5 39z" />
    <glyph glyph-name="Ohungarumlaut" unicode="&#x150;" horiz-adv-x="576" 
d="M364 726q114 0 167.5 -77t31.5 -192l-50 -234q-20 -105 -90 -172t-172 -67q-117 0 -170.5 77t-28.5 192l50 234q21 104 91 171.5t171 67.5zM356 634q-59 0 -100 -41t-54 -106l-51 -234q-16 -78 11 -127.5t95 -49.5q59 0 100.5 41t54.5 106l50 234q15 80 -13 128.5
t-93 48.5zM459 894l-97 -110h-97l88 110h106zM630 894l-111 -110h-94l95 110h110z" />
    <glyph glyph-name="ohungarumlaut" unicode="&#x151;" horiz-adv-x="467" 
d="M283 551q90 0 131 -60.5t22 -151.5l-34 -160q-19 -91 -75.5 -141.5t-140.5 -50.5q-90 0 -131 60.5t-22 151.5l34 160q19 91 75.5 141.5t140.5 50.5zM309 181l33 156q13 60 -6 93.5t-64 33.5q-43 0 -72.5 -29t-39.5 -78l-34 -156q-13 -60 6 -93.5t64 -33.5q43 0 73 29.5
t40 77.5zM374 722l-97 -110h-97l88 110h106zM545 722l-111 -110h-94l95 110h110z" />
    <glyph glyph-name="OE" unicode="&#x152;" horiz-adv-x="837" 
d="M862 618h-265l-44 -207h215l-20 -92h-215l-48 -227h275l-19 -92h-373l7 33q-55 -49 -133 -49q-114 0 -165 76.5t-26 192.5l50 234q20 104 89.5 171.5t167.5 67.5q105 0 149 -70l12 54h363zM360 634q-61 0 -103 -40.5t-55 -106.5l-50 -234q-17 -81 10.5 -129t91.5 -48
q60 0 103.5 41.5t55.5 105.5l50 234q17 82 -10.5 129.5t-92.5 47.5z" />
    <glyph glyph-name="oe" unicode="&#x153;" horiz-adv-x="743" 
d="M562 551q89 0 130.5 -60t22.5 -150l-21 -100h-279l-9 -42q-13 -59 6.5 -92t65.5 -33q44 0 73.5 26t38.5 69l1 8h93l-2 -9q-17 -81 -71.5 -131t-140.5 -50q-97 0 -135 66q-58 -66 -149 -66q-89 0 -130.5 60.5t-22.5 151.5l35 160q17 86 72.5 139t140.5 53q93 0 132 -66
q58 66 149 66zM309 181l33 156q13 60 -6 93.5t-64 33.5q-43 0 -72.5 -29t-39.5 -78l-34 -156q-13 -60 6 -93.5t64 -33.5q43 0 73 29.5t40 77.5zM440 357l-8 -34h186l4 16q13 59 -6 92t-64 33q-43 0 -72.5 -29t-39.5 -78z" />
    <glyph glyph-name="Racute" unicode="&#x154;" horiz-adv-x="552" 
d="M168 710h175q74 0 120.5 -30.5t61 -74t4.5 -94.5q-15 -73 -66 -126t-132 -64l193 -321h-110l-184 319h-45l-68 -319h-100zM342 618h-94l-44 -207h94q52 0 85.5 27.5t43.5 73.5q11 49 -10.5 77.5t-74.5 28.5zM512 901l-108 -117h-101l92 117h117z" />
    <glyph glyph-name="racute" unicode="&#x155;" horiz-adv-x="313" 
d="M336 453h-30q-51 0 -87.5 -33t-49.5 -92l-70 -328h-93l114 538h86l-12 -54q55 67 138 67h24zM405 729l-108 -117h-101l92 117h117z" />
    <glyph glyph-name="uni0156" unicode="&#x156;" horiz-adv-x="552" 
d="M168 710h175q74 0 120.5 -30.5t61 -74t4.5 -94.5q-15 -73 -66 -126t-132 -64l193 -321h-110l-184 319h-45l-68 -319h-100zM342 618h-94l-44 -207h94q52 0 85.5 27.5t43.5 73.5q11 49 -10.5 77.5t-74.5 28.5zM168 -203l56 77h-47l17 78h107l-15 -71l-59 -84h-59z" />
    <glyph glyph-name="uni0157" unicode="&#x157;" horiz-adv-x="313" 
d="M336 453h-30q-51 0 -87.5 -33t-49.5 -92l-70 -328h-93l114 538h86l-12 -54q55 67 138 67h24zM-35 -203l56 77h-47l17 78h107l-15 -71l-59 -84h-59z" />
    <glyph glyph-name="Rcaron" unicode="&#x158;" horiz-adv-x="552" 
d="M168 710h175q74 0 120.5 -30.5t61 -74t4.5 -94.5q-15 -73 -66 -126t-132 -64l193 -321h-110l-184 319h-45l-68 -319h-100zM342 618h-94l-44 -207h94q52 0 85.5 27.5t43.5 73.5q11 49 -10.5 77.5t-74.5 28.5zM519 893l-122 -109h-84l-82 109h98l32 -50l52 50h106z" />
    <glyph glyph-name="rcaron" unicode="&#x159;" horiz-adv-x="313" 
d="M336 453h-30q-51 0 -87.5 -33t-49.5 -92l-70 -328h-93l114 538h86l-12 -54q55 67 138 67h24zM411 721l-122 -109h-84l-82 109h98l32 -50l52 50h106z" />
    <glyph glyph-name="Sacute" unicode="&#x15a;" horiz-adv-x="524" 
d="M422 490l4 17q12 56 -15.5 91.5t-79.5 35.5q-42 0 -75.5 -23.5t-42.5 -65.5q-10 -47 10 -75.5t65 -49.5l63 -32q143 -71 116 -215q-16 -89 -84 -139t-156 -50q-103 0 -162.5 63t-37.5 163l4 18h98l-3 -17q-14 -59 15 -97t87 -38q52 0 89.5 26t49.5 75q10 47 -11.5 77.5
t-69.5 53.5l-63 30q-138 70 -111 211q14 79 74.5 128t146.5 49q103 0 156.5 -62t33.5 -155l-4 -19h-97zM516 901l-108 -117h-101l92 117h117z" />
    <glyph glyph-name="sacute" unicode="&#x15b;" horiz-adv-x="431" 
d="M315 363l2 10q9 43 -7.5 67t-57.5 24q-37 0 -59 -17.5t-28 -42.5q-7 -33 8.5 -50t54.5 -34l39 -17q59 -24 87 -66.5t16 -97.5q-15 -70 -66.5 -111t-128.5 -41q-87 0 -131 51t-31 118l5 20h91l-2 -10q-9 -43 12 -67.5t62 -24.5q37 0 63.5 18.5t32.5 45.5q8 36 -8 54
t-54 34l-40 17q-127 50 -102 164q15 69 63.5 106.5t120.5 37.5q76 0 122 -49.5t29 -129.5l-2 -9h-91zM437 734l-108 -117h-101l92 117h117z" />
    <glyph glyph-name="Scircumflex" unicode="&#x15c;" horiz-adv-x="524" 
d="M422 490l4 17q12 56 -15.5 91.5t-79.5 35.5q-42 0 -75.5 -23.5t-42.5 -65.5q-10 -47 10 -75.5t65 -49.5l63 -32q143 -71 116 -215q-16 -89 -84 -139t-156 -50q-103 0 -162.5 63t-37.5 163l4 18h98l-3 -17q-14 -59 15 -97t87 -38q52 0 89.5 26t49.5 75q10 47 -11.5 77.5
t-69.5 53.5l-63 30q-138 70 -111 211q14 79 74.5 128t146.5 49q103 0 156.5 -62t33.5 -155l-4 -19h-97zM213 784l122 109h84l82 -109h-98l-32 50l-52 -50h-106z" />
    <glyph glyph-name="scircumflex" unicode="&#x15d;" horiz-adv-x="431" 
d="M315 363l2 10q9 43 -7.5 67t-57.5 24q-37 0 -59 -17.5t-28 -42.5q-7 -33 8.5 -50t54.5 -34l39 -17q59 -24 87 -66.5t16 -97.5q-15 -70 -66.5 -111t-128.5 -41q-87 0 -131 51t-31 118l5 20h91l-2 -10q-9 -43 12 -67.5t62 -24.5q37 0 63.5 18.5t32.5 45.5q8 36 -8 54
t-54 34l-40 17q-127 50 -102 164q15 69 63.5 106.5t120.5 37.5q76 0 122 -49.5t29 -129.5l-2 -9h-91zM134 617l122 109h84l82 -109h-98l-32 50l-52 -50h-106z" />
    <glyph glyph-name="Scedilla" unicode="&#x15e;" horiz-adv-x="524" 
d="M422 490l4 17q12 56 -15.5 91.5t-79.5 35.5q-42 0 -75.5 -23.5t-42.5 -65.5q-10 -47 10 -75.5t65 -49.5l63 -32q143 -71 116 -215q-16 -89 -84 -139t-156 -50q-103 0 -162.5 63t-37.5 163l4 18h98l-3 -17q-14 -59 15 -97t87 -38q52 0 89.5 26t49.5 75q10 47 -11.5 77.5
t-69.5 53.5l-63 30q-138 70 -111 211q14 79 74.5 128t146.5 49q103 0 156.5 -62t33.5 -155l-4 -19h-97zM209 -148h-104l77 153h97z" />
    <glyph glyph-name="scedilla" unicode="&#x15f;" horiz-adv-x="431" 
d="M315 363l2 10q9 43 -7.5 67t-57.5 24q-37 0 -59 -17.5t-28 -42.5q-7 -33 8.5 -50t54.5 -34l39 -17q59 -24 87 -66.5t16 -97.5q-15 -70 -66.5 -111t-128.5 -41q-87 0 -131 51t-31 118l5 20h91l-2 -10q-9 -43 12 -67.5t62 -24.5q37 0 63.5 18.5t32.5 45.5q8 36 -8 54
t-54 34l-40 17q-127 50 -102 164q15 69 63.5 106.5t120.5 37.5q76 0 122 -49.5t29 -129.5l-2 -9h-91zM163 -148h-95l87 172l82 -19z" />
    <glyph glyph-name="Scaron" unicode="&#x160;" horiz-adv-x="524" 
d="M422 490l4 17q12 56 -15.5 91.5t-79.5 35.5q-42 0 -75.5 -23.5t-42.5 -65.5q-10 -47 10 -75.5t65 -49.5l63 -32q143 -71 116 -215q-16 -89 -84 -139t-156 -50q-103 0 -162.5 63t-37.5 163l4 18h98l-3 -17q-14 -59 15 -97t87 -38q52 0 89.5 26t49.5 75q10 47 -11.5 77.5
t-69.5 53.5l-63 30q-138 70 -111 211q14 79 74.5 128t146.5 49q103 0 156.5 -62t33.5 -155l-4 -19h-97zM523 893l-122 -109h-84l-82 109h98l32 -50l52 50h106z" />
    <glyph glyph-name="scaron" unicode="&#x161;" horiz-adv-x="431" 
d="M315 363l2 10q9 43 -7.5 67t-57.5 24q-37 0 -59 -17.5t-28 -42.5q-7 -33 8.5 -50t54.5 -34l39 -17q59 -24 87 -66.5t16 -97.5q-15 -70 -66.5 -111t-128.5 -41q-87 0 -131 51t-31 118l5 20h91l-2 -10q-9 -43 12 -67.5t62 -24.5q37 0 63.5 18.5t32.5 45.5q8 36 -8 54
t-54 34l-40 17q-127 50 -102 164q15 69 63.5 106.5t120.5 37.5q76 0 122 -49.5t29 -129.5l-2 -9h-91zM444 726l-122 -109h-84l-82 109h98l32 -50l52 50h106z" />
    <glyph glyph-name="uni0162" unicode="&#x162;" horiz-adv-x="479" 
d="M557 710l-20 -92h-173l-131 -618h-100l131 618h-172l20 92h445zM169 -148h-104l77 153h97z" />
    <glyph glyph-name="uni0163" unicode="&#x163;" horiz-adv-x="311" 
d="M318 455h-94l-65 -307q-6 -28 5.5 -44.5t36.5 -16.5h41l-18 -87h-40q-66 0 -100 38.5t-22 92.5l68 324h-69l18 83h69l34 159h93l-34 -159h95zM117 -148h-95l87 172l82 -19z" />
    <glyph glyph-name="Tcaron" unicode="&#x164;" horiz-adv-x="479" 
d="M557 710l-20 -92h-173l-131 -618h-100l131 618h-172l20 92h445zM508 893l-122 -109h-84l-82 109h98l32 -50l52 50h106z" />
    <glyph glyph-name="tcaron" unicode="&#x165;" horiz-adv-x="310" 
d="M318 455h-94l-65 -307q-6 -28 5.5 -44.5t36.5 -16.5h41l-18 -87h-40q-66 0 -100 38.5t-22 92.5l68 324h-69l18 83h69l34 159h93l-34 -159h95zM435 785l-61 -199h-75l45 199h91z" />
    <glyph glyph-name="Tbar" unicode="&#x166;" horiz-adv-x="494" 
d="M564 710l-20 -92h-172l-46 -216h102l-19 -93h-103l-65 -309h-100l65 309h-100l20 93h100l46 216h-173l20 92h445z" />
    <glyph glyph-name="tbar" unicode="&#x167;" horiz-adv-x="315" 
d="M320 455h-94l-21 -98h96l-15 -74h-97l-28 -135q-6 -28 5.5 -44.5t36.5 -16.5h41l-18 -87h-40q-66 0 -100 38.5t-22 92.5l32 152h-63l15 74h63l21 98h-69l18 83h69l34 159h93l-34 -159h95z" />
    <glyph glyph-name="Utilde" unicode="&#x168;" horiz-adv-x="585" 
d="M511 710h101l-104 -487q-20 -106 -89 -172.5t-170 -66.5q-106 0 -158.5 73.5t-28.5 185.5l100 467h100l-99 -467q-18 -80 7.5 -123.5t85.5 -43.5q56 0 97 40.5t55 106.5zM493 887h68q-7 -46 -34.5 -76.5t-66.5 -30.5q-29 0 -63 24q-31 22 -43 22q-26 0 -34 -40h-68
q7 46 35 76.5t67 30.5q31 0 63 -24q27 -21 43 -21q25 0 33 39z" />
    <glyph glyph-name="utilde" unicode="&#x169;" horiz-adv-x="482" 
d="M209 538l-76 -358q-11 -50 5.5 -78t60.5 -28q42 0 70 28t38 72l2 6l77 358h93l-114 -538h-86l9 43q-50 -56 -117 -56q-76 0 -112 54.5t-20 132.5l77 364h93zM410 716h68q-7 -46 -34.5 -76.5t-66.5 -30.5q-29 0 -63 24q-31 22 -43 22q-26 0 -34 -40h-68q7 46 35 76.5
t67 30.5q31 0 63 -24q27 -21 43 -21q25 0 33 39z" />
    <glyph glyph-name="Umacron" unicode="&#x16a;" horiz-adv-x="585" 
d="M511 710h101l-104 -487q-20 -106 -89 -172.5t-170 -66.5q-106 0 -158.5 73.5t-28.5 185.5l100 467h100l-99 -467q-18 -80 7.5 -123.5t85.5 -43.5q56 0 97 40.5t55 106.5zM542 867l-16 -74h-264l16 74h264z" />
    <glyph glyph-name="umacron" unicode="&#x16b;" horiz-adv-x="482" 
d="M209 538l-76 -358q-11 -50 5.5 -78t60.5 -28q42 0 70 28t38 72l2 6l77 358h93l-114 -538h-86l9 43q-50 -56 -117 -56q-76 0 -112 54.5t-20 132.5l77 364h93zM459 695l-16 -74h-264l16 74h264z" />
    <glyph glyph-name="Ubreve" unicode="&#x16c;" horiz-adv-x="585" 
d="M511 710h101l-104 -487q-20 -106 -89 -172.5t-170 -66.5q-106 0 -158.5 73.5t-28.5 185.5l100 467h100l-99 -467q-18 -80 7.5 -123.5t85.5 -43.5q56 0 97 40.5t55 106.5zM480 896h75q-24 -117 -148 -117q-70 0 -105.5 33.5t-23.5 83.5h76q-6 -25 8.5 -39t44.5 -14
q29 0 48.5 14t24.5 39z" />
    <glyph glyph-name="ubreve" unicode="&#x16d;" horiz-adv-x="482" 
d="M209 538l-76 -358q-11 -50 5.5 -78t60.5 -28q42 0 70 28t38 72l2 6l77 358h93l-114 -538h-86l9 43q-50 -56 -117 -56q-76 0 -112 54.5t-20 132.5l77 364h93zM397 724h75q-24 -117 -148 -117q-70 0 -105.5 33.5t-23.5 83.5h76q-6 -25 8.5 -39t44.5 -14q29 0 48.5 14
t24.5 39z" />
    <glyph glyph-name="Uring" unicode="&#x16e;" horiz-adv-x="585" 
d="M511 710h101l-104 -487q-20 -106 -89 -172.5t-170 -66.5q-106 0 -158.5 73.5t-28.5 185.5l100 467h100l-99 -467q-18 -80 7.5 -123.5t85.5 -43.5q56 0 97 40.5t55 106.5zM400 766q-52 0 -80.5 27t-23.5 72q4 42 38.5 69.5t85.5 27.5q50 0 79 -28t25 -69q-5 -46 -39 -72.5
t-85 -26.5zM405 821q50 0 55 44q2 18 -10.5 30t-35.5 12q-21 0 -36.5 -12t-17.5 -30q-2 -21 10.5 -32.5t34.5 -11.5z" />
    <glyph glyph-name="uring" unicode="&#x16f;" horiz-adv-x="482" 
d="M209 538l-76 -358q-11 -50 5.5 -78t60.5 -28q42 0 70 28t38 72l2 6l77 358h93l-114 -538h-86l9 43q-50 -56 -117 -56q-76 0 -112 54.5t-20 132.5l77 364h93zM316 595q-52 0 -80.5 27t-23.5 72q4 42 38.5 69.5t85.5 27.5q50 0 79 -28t25 -69q-5 -46 -39 -72.5t-85 -26.5z
M321 650q50 0 55 44q2 18 -10.5 30t-35.5 12q-21 0 -36.5 -12t-17.5 -30q-2 -21 10.5 -32.5t34.5 -11.5z" />
    <glyph glyph-name="Uhungarumlaut" unicode="&#x170;" horiz-adv-x="585" 
d="M511 710h101l-104 -487q-20 -106 -89 -172.5t-170 -66.5q-106 0 -158.5 73.5t-28.5 185.5l100 467h100l-99 -467q-18 -80 7.5 -123.5t85.5 -43.5q56 0 97 40.5t55 106.5zM461 894l-97 -110h-97l88 110h106zM632 894l-111 -110h-94l95 110h110z" />
    <glyph glyph-name="uhungarumlaut" unicode="&#x171;" horiz-adv-x="482" 
d="M209 538l-76 -358q-11 -50 5.5 -78t60.5 -28q42 0 70 28t38 72l2 6l77 358h93l-114 -538h-86l9 43q-50 -56 -117 -56q-76 0 -112 54.5t-20 132.5l77 364h93zM378 722l-97 -110h-97l88 110h106zM549 722l-111 -110h-94l95 110h110z" />
    <glyph glyph-name="Uogonek" unicode="&#x172;" horiz-adv-x="586" 
d="M511 710h101l-104 -487q-26 -135 -124 -201l-71 -54q-25 -20 -29 -39q-2 -11 4.5 -17.5t22.5 -6.5h32l-15 -74h-38q-51 0 -75.5 26t-17.5 61q7 32 44 63l3 3q-104 2 -155 74.5t-27 184.5l100 467h100l-99 -467q-18 -80 7.5 -123.5t85.5 -43.5q56 0 97 40.5t55 106.5z" />
    <glyph glyph-name="uogonek" unicode="&#x173;" horiz-adv-x="482" 
d="M365 0h-1l-43 -32q-23 -20 -28 -39q-3 -12 3.5 -18.5t23.5 -6.5h31l-16 -72h-37q-51 0 -75.5 26t-17.5 61q7 31 44 62l32 29l7 33q-50 -56 -117 -56q-80 0 -115.5 52t-18.5 127l79 372h93l-76 -358q-21 -106 66 -106q41 0 70 28t40 78l40 -2q-18 -83 -61 -135l9 42l-5 15
l17 80l77 358h93z" />
    <glyph glyph-name="Wcircumflex" unicode="&#x174;" horiz-adv-x="825" 
d="M905 710l-312 -710h-109l-19 514l-236 -514h-110l-11 710h102l3 -533l240 533h101l15 -531l228 531h108zM368 784l122 109h84l82 -109h-98l-32 50l-52 -50h-106z" />
    <glyph glyph-name="wcircumflex" unicode="&#x175;" horiz-adv-x="683" 
d="M633 538h93l-252 -538h-87l-22 363l-176 -363h-92l-23 538h94l6 -397l184 397h79l17 -407zM262 612l122 109h84l82 -109h-98l-32 50l-52 -50h-106z" />
    <glyph glyph-name="Ycircumflex" unicode="&#x176;" horiz-adv-x="543" 
d="M637 710l-299 -360l-75 -350h-100l75 353l-135 357h112l90 -256l204 256h128zM228 784l122 109h84l82 -109h-98l-32 50l-52 -50h-106z" />
    <glyph glyph-name="ycircumflex" unicode="&#x177;" horiz-adv-x="450" 
d="M498 538l-435 -707h-101l212 336l-106 371h95l70 -277l161 277h104zM147 612l122 109h84l82 -109h-98l-32 50l-52 -50h-106z" />
    <glyph glyph-name="Ydieresis" unicode="&#x178;" horiz-adv-x="543" 
d="M637 710l-299 -360l-75 -350h-100l75 353l-135 357h112l90 -256l204 256h128zM357 892l-21 -100h-100l21 100h100zM529 892l-21 -100h-100l21 100h100z" />
    <glyph glyph-name="Zacute" unicode="&#x179;" horiz-adv-x="488" 
d="M540 710l-17 -82l-401 -536h295l-19 -92h-417l17 82l398 536h-281l20 92h405zM499 901l-108 -117h-101l92 117h117z" />
    <glyph glyph-name="zacute" unicode="&#x17a;" horiz-adv-x="413" 
d="M112 82h228l-18 -82h-342l17 78l299 377h-216l17 83h332l-17 -78zM426 729l-108 -117h-101l92 117h117z" />
    <glyph glyph-name="Zdotaccent" unicode="&#x17b;" horiz-adv-x="488" 
d="M540 710l-17 -82l-401 -536h295l-19 -92h-417l17 82l398 536h-281l20 92h405zM411 902l-23 -107h-99l23 107h99z" />
    <glyph glyph-name="zdotaccent" unicode="&#x17c;" horiz-adv-x="413" 
d="M112 82h228l-18 -82h-342l17 78l299 377h-216l17 83h332l-17 -78zM338 730l-23 -107h-99l23 107h99z" />
    <glyph glyph-name="Zcaron" unicode="&#x17d;" horiz-adv-x="488" 
d="M540 710l-17 -82l-401 -536h295l-19 -92h-417l17 82l398 536h-281l20 92h405zM506 893l-122 -109h-84l-82 109h98l32 -50l52 50h106z" />
    <glyph glyph-name="zcaron" unicode="&#x17e;" horiz-adv-x="413" 
d="M112 82h228l-18 -82h-342l17 78l299 377h-216l17 83h332l-17 -78zM433 721l-122 -109h-84l-82 109h98l32 -50l52 50h106z" />
    <glyph glyph-name="uni018F" unicode="&#x18f;" horiz-adv-x="560" 
d="M41 243l32 145h358l15 69q18 81 -7.5 129t-85.5 48q-55 0 -96 -39t-53 -99v-3h-101l1 3q19 100 87.5 165t169.5 65q108 0 159.5 -77t27.5 -191l-51 -237q-21 -104 -91.5 -171t-173.5 -67q-109 0 -162 75t-29 185zM240 76q57 0 100.5 41.5t55.5 104.5l16 75h-259l-12 -54
q-16 -70 12.5 -118.5t86.5 -48.5z" />
    <glyph glyph-name="florin" unicode="&#x192;" horiz-adv-x="501" 
d="M445 400l-15 -70h-108l-44 -206q-11 -56 -50.5 -90t-96.5 -34h-87l18 82h64q50 0 61 54l41 194h-107l15 70h107l40 186q12 56 48.5 90t91.5 34h88l-18 -82h-58q-50 0 -61 -54l-37 -174h108z" />
    <glyph glyph-name="uni0218" unicode="&#x218;" horiz-adv-x="524" 
d="M422 490l4 17q12 56 -15.5 91.5t-79.5 35.5q-42 0 -75.5 -23.5t-42.5 -65.5q-10 -47 10 -75.5t65 -49.5l63 -32q143 -71 116 -215q-16 -89 -84 -139t-156 -50q-103 0 -162.5 63t-37.5 163l4 18h98l-3 -17q-14 -59 15 -97t87 -38q52 0 89.5 26t49.5 75q10 47 -11.5 77.5
t-69.5 53.5l-63 30q-138 70 -111 211q14 79 74.5 128t146.5 49q103 0 156.5 -62t33.5 -155l-4 -19h-97zM137 -203l56 77h-47l17 78h107l-15 -71l-59 -84h-59z" />
    <glyph glyph-name="uni0219" unicode="&#x219;" horiz-adv-x="431" 
d="M315 363l2 10q9 43 -7.5 67t-57.5 24q-37 0 -59 -17.5t-28 -42.5q-7 -33 8.5 -50t54.5 -34l39 -17q59 -24 87 -66.5t16 -97.5q-15 -70 -66.5 -111t-128.5 -41q-87 0 -131 51t-31 118l5 20h91l-2 -10q-9 -43 12 -67.5t62 -24.5q37 0 63.5 18.5t32.5 45.5q8 36 -8 54
t-54 34l-40 17q-127 50 -102 164q15 69 63.5 106.5t120.5 37.5q76 0 122 -49.5t29 -129.5l-2 -9h-91zM86 -203l56 77h-47l17 78h107l-15 -71l-59 -84h-59z" />
    <glyph glyph-name="uni021A" unicode="&#x21a;" horiz-adv-x="479" 
d="M557 710l-20 -92h-173l-131 -618h-100l131 618h-172l20 92h445zM97 -203l56 77h-47l17 78h107l-15 -71l-59 -84h-59z" />
    <glyph glyph-name="uni021B" unicode="&#x21b;" horiz-adv-x="311" 
d="M318 455h-94l-65 -307q-6 -28 5.5 -44.5t36.5 -16.5h41l-18 -87h-40q-66 0 -100 38.5t-22 92.5l68 324h-69l18 83h69l34 159h93l-34 -159h95zM40 -203l56 77h-47l17 78h107l-15 -71l-59 -84h-59z" />
    <glyph glyph-name="uni0232" unicode="&#x232;" horiz-adv-x="543" 
d="M637 710l-299 -360l-75 -350h-100l75 353l-135 357h112l90 -256l204 256h128zM520 867l-16 -74h-264l16 74h264z" />
    <glyph glyph-name="uni0233" unicode="&#x233;" horiz-adv-x="450" 
d="M498 538l-435 -707h-101l212 336l-106 371h95l70 -277l161 277h104zM440 695l-16 -74h-264l16 74h264z" />
    <glyph glyph-name="uni0237" unicode="&#x237;" horiz-adv-x="216" 
d="M1 -26l120 564h93l-122 -571q-11 -60 -50.5 -98t-92.5 -38h-54l17 82h22q24 0 42.5 16.5t24.5 44.5z" />
    <glyph glyph-name="uni0259" unicode="&#x259;" horiz-adv-x="465" 
d="M186 -13q-92 0 -134.5 60t-23.5 150l22 100h279l9 42q13 59 -6.5 92t-66.5 33q-44 0 -73.5 -26t-37.5 -69l-2 -8h-92l1 9q18 85 73 133t138 48q92 0 135 -60t24 -150l-34 -162q-19 -90 -74.5 -141t-136.5 -51zM304 181l8 34h-186l-4 -16q-13 -60 5.5 -92.5t65.5 -32.5
q43 0 72 29t39 78z" />
    <glyph glyph-name="uni02BB" unicode="&#x2bb;" horiz-adv-x="236" 
d="M273 710l-23 -111l-1 -1l-73 -137h-60l69 128h-60l26 121h122z" />
    <glyph glyph-name="uni02BC" unicode="&#x2bc;" horiz-adv-x="236" 
d="M212 461l23 111l1 1l73 137h60l-69 -128h60l-26 -121h-122z" />
    <glyph glyph-name="circumflex" unicode="&#x2c6;" horiz-adv-x="583" 
d="M346 612l122 109h84l82 -109h-98l-32 50l-52 -50h-106z" />
    <glyph glyph-name="caron" unicode="&#x2c7;" horiz-adv-x="583" 
d="M635 721l-122 -109h-84l-82 109h98l32 -50l52 50h106z" />
    <glyph glyph-name="breve" unicode="&#x2d8;" horiz-adv-x="583" 
d="M446 724h75q-24 -117 -148 -117q-70 0 -105.5 33.5t-23.5 83.5h76q-6 -25 8.5 -39t44.5 -14q29 0 48.5 14t24.5 39z" />
    <glyph glyph-name="dotaccent" unicode="&#x2d9;" horiz-adv-x="552" 
d="M303 730l-23 -107h-99l23 107h99z" />
    <glyph glyph-name="ring" unicode="&#x2da;" horiz-adv-x="592" 
d="M466 596q-52 0 -80.5 27t-23.5 72q4 42 38.5 69.5t85.5 27.5q50 0 79 -28t25 -69q-5 -46 -39 -72.5t-85 -26.5zM471 651q50 0 55 44q2 18 -10.5 30t-35.5 12q-21 0 -36.5 -12t-17.5 -30q-2 -21 10.5 -32.5t34.5 -11.5z" />
    <glyph glyph-name="ogonek" unicode="&#x2db;" horiz-adv-x="517" 
d="M404 26l64 -26l-42 -32q-25 -20 -29 -39q-2 -11 4.5 -17.5t22.5 -6.5h32l-15 -74h-38q-51 0 -75.5 26t-17.5 61q7 32 44 63z" />
    <glyph glyph-name="tilde" unicode="&#x2dc;" horiz-adv-x="587" 
d="M472 717h68q-7 -46 -34.5 -76.5t-66.5 -30.5q-29 0 -63 24q-31 22 -43 22q-26 0 -34 -40h-68q7 46 35 76.5t67 30.5q31 0 63 -24q27 -21 43 -21q25 0 33 39z" />
    <glyph glyph-name="hungarumlaut" unicode="&#x2dd;" horiz-adv-x="583" 
d="M425 722l-97 -110h-97l88 110h106zM596 722l-111 -110h-94l95 110h110z" />
    <glyph glyph-name="uni0312" unicode="&#x312;" horiz-adv-x="0" 
d="M-236 750l-46 -64h46l-16 -74h-107l14 67h1l49 71h59z" />
    <glyph glyph-name="uni0326" unicode="&#x326;" horiz-adv-x="522" 
d="M178 -203l56 77h-47l17 78h107l-15 -71l-59 -84h-59z" />
    <glyph glyph-name="uni0394" unicode="&#x394;" horiz-adv-x="523" 
d="M443 0h-478l17 77l324 633h100l54 -633zM327 564l-230 -472h262z" />
    <glyph glyph-name="uni03A9" unicode="&#x3a9;" horiz-adv-x="577" 
d="M21 92h111l19 86q-46 34 -65.5 93.5t-4.5 128.5l19 87q20 105 93 172t182 67t161 -74.5t27 -184.5l-17 -82q-35 -160 -161 -215l-17 -78h121l-19 -92h-205l11 52l40 190q50 11 84 49t45 93l18 83q17 77 -10.5 122t-90.5 45q-62 0 -105.5 -41t-56.5 -106l-19 -88
q-14 -63 4 -104.5t63 -53.5l-32 -149h1l-19 -92h-197z" />
    <glyph glyph-name="uni03BC" unicode="&#x3bc;" horiz-adv-x="485" 
d="M313 180l39 -2q-16 -81 -60 -134l9 41l-5 15l17 80l77 358h93l-114 -538h-86l9 44q-49 -57 -117 -57q-42 0 -75 18l-37 -175h-93l150 708h93l-76 -358q-21 -106 66 -106q41 0 70 28t40 78z" />
    <glyph glyph-name="pi" unicode="&#x3c0;" horiz-adv-x="474" 
d="M470 538l-114 -538h-93l96 455h-164l-96 -455h-93l114 538h350z" />
    <glyph glyph-name="Wgrave" unicode="&#x1e80;" horiz-adv-x="825" 
d="M905 710l-312 -710h-109l-19 514l-236 -514h-110l-11 710h102l3 -533l240 533h101l15 -531l228 531h108zM368 901h114l88 -117h-97z" />
    <glyph glyph-name="wgrave" unicode="&#x1e81;" horiz-adv-x="683" 
d="M633 538h93l-252 -538h-87l-22 363l-176 -363h-92l-23 538h94l6 -397l184 397h79l17 -407zM261 729h114l88 -117h-97z" />
    <glyph glyph-name="Wacute" unicode="&#x1e82;" horiz-adv-x="825" 
d="M905 710l-312 -710h-109l-19 514l-236 -514h-110l-11 710h102l3 -533l240 533h101l15 -531l228 531h108zM672 901l-108 -117h-101l92 117h117z" />
    <glyph glyph-name="wacute" unicode="&#x1e83;" horiz-adv-x="683" 
d="M633 538h93l-252 -538h-87l-22 363l-176 -363h-92l-23 538h94l6 -397l184 397h79l17 -407zM565 729l-108 -117h-101l92 117h117z" />
    <glyph glyph-name="Wdieresis" unicode="&#x1e84;" horiz-adv-x="825" 
d="M905 710l-312 -710h-109l-19 514l-236 -514h-110l-11 710h102l3 -533l240 533h101l15 -531l228 531h108zM498 892l-21 -100h-100l21 100h100zM670 892l-21 -100h-100l21 100h100z" />
    <glyph glyph-name="wdieresis" unicode="&#x1e85;" horiz-adv-x="683" 
d="M633 538h93l-252 -538h-87l-22 363l-176 -363h-92l-23 538h94l6 -397l184 397h79l17 -407zM391 720l-21 -100h-100l21 100h100zM563 720l-21 -100h-100l21 100h100z" />
    <glyph glyph-name="Ygrave" unicode="&#x1ef2;" horiz-adv-x="543" 
d="M637 710l-299 -360l-75 -350h-100l75 353l-135 357h112l90 -256l204 256h128zM227 901h114l88 -117h-97z" />
    <glyph glyph-name="ygrave" unicode="&#x1ef3;" horiz-adv-x="450" 
d="M498 538l-435 -707h-101l212 336l-106 371h95l70 -277l161 277h104zM146 729h114l88 -117h-97z" />
    <glyph glyph-name="uni2007" unicode="&#x2007;" 
 />
    <glyph glyph-name="uni2008" unicode="&#x2008;" horiz-adv-x="229" 
 />
    <glyph glyph-name="uni2009" unicode="&#x2009;" horiz-adv-x="100" 
 />
    <glyph glyph-name="uni200B" unicode="&#x200b;" horiz-adv-x="0" 
 />
    <glyph glyph-name="uni2010" unicode="&#x2010;" horiz-adv-x="334" 
d="M82 363h210l-18 -86h-210z" />
    <glyph glyph-name="uni2011" unicode="&#x2011;" horiz-adv-x="334" 
d="M82 363h210l-18 -86h-210z" />
    <glyph glyph-name="figuredash" unicode="&#x2012;" horiz-adv-x="501" 
d="M83 361h375l-18 -82h-375z" />
    <glyph glyph-name="endash" unicode="&#x2013;" horiz-adv-x="496" 
d="M81 361h375l-18 -82h-375z" />
    <glyph glyph-name="emdash" unicode="&#x2014;" horiz-adv-x="605" 
d="M81 361h483l-17 -82h-484z" />
    <glyph glyph-name="quoteleft" unicode="&#x2018;" horiz-adv-x="225" 
d="M93 461l23 111h1l73 138h60l-70 -128h61l-26 -121h-122z" />
    <glyph glyph-name="quoteright" unicode="&#x2019;" horiz-adv-x="218" 
d="M266 710l-23 -111l-1 -1l-73 -137h-60l69 128h-60l26 121h122z" />
    <glyph glyph-name="quotesinglbase" unicode="&#x201a;" horiz-adv-x="233" 
d="M154 121l-23 -111l-1 -1l-73 -137h-60l69 128h-60l26 121h122z" />
    <glyph glyph-name="quotedblleft" unicode="&#x201c;" horiz-adv-x="402" 
d="M93 461l23 111h1l73 138h60l-70 -128h61l-26 -121h-122zM270 461l23 111h1l73 138h60l-70 -128h61l-26 -121h-122z" />
    <glyph glyph-name="quotedblright" unicode="&#x201d;" horiz-adv-x="387" 
d="M434 710l-23 -111l-1 -1l-73 -137h-60l69 128h-60l26 121h122zM265 710l-23 -111l-1 -1l-73 -137h-60l69 128h-60l26 121h122z" />
    <glyph glyph-name="quotedblbase" unicode="&#x201e;" horiz-adv-x="402" 
d="M323 121l-23 -111l-1 -1l-73 -137h-60l69 128h-60l26 121h122zM154 121l-23 -111l-1 -1l-73 -137h-60l69 128h-60l26 121h122z" />
    <glyph glyph-name="dagger" unicode="&#x2020;" horiz-adv-x="330" 
d="M228 394h-76l37 174h-74l15 70h74l15 71h76l-15 -71h74l-15 -70h-74z" />
    <glyph glyph-name="daggerdbl" unicode="&#x2021;" horiz-adv-x="330" 
d="M229 394h-76l13 62h-74l14 66h74l12 59h-73l14 66h73l14 62h76l-14 -62h75l-14 -66h-75l-12 -59h74l-14 -66h-74z" />
    <glyph glyph-name="bullet" unicode="&#x2022;" horiz-adv-x="337" 
d="M286 408l-37 -174h-175l37 174h175z" />
    <glyph glyph-name="ellipsis" unicode="&#x2026;" horiz-adv-x="622" 
d="M351 121l-26 -121h-118l26 121h118zM549 121l-26 -121h-118l26 121h118zM154 121l-26 -121h-118l26 121h118z" />
    <glyph glyph-name="perthousand" unicode="&#x2030;" horiz-adv-x="953" 
d="M218 443q-58 0 -93.5 40t-29.5 100q6 59 50 99.5t102 40.5t93.5 -40.5t29.5 -99.5q-6 -60 -49.5 -100t-102.5 -40zM225 516q27 0 46 19t22 48q2 29 -13 47.5t-41 18.5t-45 -18.5t-22 -47.5t12 -48t41 -19zM444 -13q-58 0 -93.5 40.5t-29.5 99.5t50 99.5t102 40.5
t93.5 -40.5t29.5 -99.5t-50 -99.5t-102 -40.5zM451 60q27 0 46 19t22 48q2 29 -13 48t-41 19t-45 -19t-22 -48t12 -48t41 -19zM748 -13q-58 0 -93.5 40.5t-29.5 99.5t50 99.5t102 40.5t93.5 -40.5t29.5 -99.5t-50 -99.5t-102 -40.5zM755 60q27 0 46 19t22 48q2 29 -13 48
t-41 19t-45 -19t-22 -48t12 -48t41 -19zM554 710h82l-511 -710h-82z" />
    <glyph glyph-name="minute" unicode="&#x2032;" horiz-adv-x="225" 
d="M186 710h96l-106 -269h-95z" />
    <glyph glyph-name="second" unicode="&#x2033;" horiz-adv-x="378" 
d="M340 710h96l-106 -269h-95zM186 710h96l-106 -269h-95z" />
    <glyph glyph-name="uni2034" unicode="&#x2034;" horiz-adv-x="520" 
d="M287 710h96l-106 -269h-95zM437 710h96l-106 -269h-95zM142 710h96l-106 -269h-95z" />
    <glyph glyph-name="guilsinglleft" unicode="&#x2039;" horiz-adv-x="302" 
d="M236 515l51 -53l-166 -154l92 -140l-60 -43l-126 195z" />
    <glyph glyph-name="guilsinglright" unicode="&#x203a;" horiz-adv-x="300" 
d="M73 125l-51 53l166 154l-92 140l60 43l126 -195z" />
    <glyph glyph-name="fraction" unicode="&#x2044;" horiz-adv-x="143" 
d="M307 710h82l-511 -710h-82z" />
    <glyph glyph-name="Euro" unicode="&#x20ac;" horiz-adv-x="501" 
d="M334 265h-138l-15 -71q-12 -55 6 -85.5t56 -30.5q74 0 94 96l11 54h101l-11 -54q-20 -90 -72.5 -139t-130.5 -49q-84 0 -128.5 60t-24.5 148l15 71h-59l15 70h59l12 60h-58l15 70h58l16 73q14 81 70.5 133.5t132.5 52.5q82 0 127 -60t25 -146l-5 -21h-100l5 21
q12 55 -6 84.5t-56 29.5q-32 0 -58.5 -26t-34.5 -68l-16 -73h138l-15 -70h-138l-13 -60h138z" />
    <glyph glyph-name="uni20BA" unicode="&#x20ba;" horiz-adv-x="501" 
d="M371 313l-152 -47l-37 -176h51q42 0 72 27t39 72l12 54h100l-11 -54q-19 -85 -76 -137t-143 -52h-163l49 232l-62 -19l16 73l62 19l13 63l-62 -19l16 73l62 19l57 269h100l-50 -235l151 47l-15 -73l-152 -47l-13 -63l151 47z" />
    <glyph glyph-name="uni20BC" unicode="&#x20bc;" 
d="M162 0l137 643q-30 -9 -52.5 -35.5t-30.5 -64.5l-115 -543h-89l115 543q14 74 66 125t121 55l23 107h72l-25 -114q63 -17 92.5 -65t15.5 -108l-115 -543h-89l115 543q17 70 -36 96l-135 -639h-70z" />
    <glyph glyph-name="uni2117" unicode="&#x2117;" horiz-adv-x="685" 
d="M361 54q-124 0 -207.5 86.5t-83.5 214.5t83.5 214.5t207.5 86.5t208 -86.5t84 -214.5t-84 -214.5t-208 -86.5zM361 117q97 0 160 67t63 171t-63 171t-160 67t-160 -67t-63 -171t63 -171t160 -67zM281 528h104q50 0 82 -29t32 -79t-32 -79t-82 -29h-32v-126h-72v342z
M386 461h-33v-81h33q17 0 28 11t11 29t-11 29.5t-28 11.5z" />
    <glyph glyph-name="trademark" unicode="&#x2122;" horiz-adv-x="605" 
d="M447 494l-42 90l-40 -187h-64l67 313h42l59 -129l115 129h48l-67 -313h-63l40 189l-82 -92h-13zM329 710l-13 -60h-69l-54 -253h-64l54 253h-70l13 60h203z" />
    <glyph glyph-name="onethird" unicode="&#x2153;" horiz-adv-x="597" 
d="M514 710h82l-511 -710h-82zM566 281l-82 -79q34 -8 49 -33.5t9 -56.5l-4 -22q-9 -43 -37 -70.5t-70 -27.5q-50 0 -76.5 29t-18.5 69l2 10h64l-2 -10q-4 -16 5 -26.5t26 -10.5q14 0 26 10.5t16 26.5l4 22q3 14 -5.5 24t-24.5 10h-56l11 51l80 78h-106l13 61h189zM233 435
l-13 -60h-168l13 60h51l45 214h-55l13 61h120l-58 -275h52z" />
    <glyph glyph-name="twothirds" unicode="&#x2154;" horiz-adv-x="635" 
d="M552 710h82l-511 -710h-82zM604 281l-82 -79q34 -8 49 -33.5t9 -56.5l-4 -22q-9 -43 -37 -70.5t-70 -27.5q-50 0 -76.5 29t-18.5 69l2 10h64l-2 -10q-4 -16 5 -26.5t26 -10.5q14 0 26 10.5t16 26.5l4 22q3 14 -5.5 24t-24.5 10h-56l11 51l80 78h-106l13 61h189zM262 435
l-13 -60h-195l11 55l148 155q11 10 18 33q4 17 -4.5 27t-23.5 10q-31 0 -39 -37l-3 -13h-65l3 13q9 43 37.5 71t69.5 28q48 0 73 -31.5t15 -77.5q-8 -33 -30 -57l-113 -116h111z" />
    <glyph glyph-name="arrowleft" unicode="&#x2190;" horiz-adv-x="600" 
d="M266 178l-203 142l203 142v-101h281v-82h-281v-101z" />
    <glyph glyph-name="arrowup" unicode="&#x2191;" horiz-adv-x="600" 
d="M177 368l142 203l142 -203h-101v-281h-82v281h-101z" />
    <glyph glyph-name="arrowright" unicode="&#x2192;" horiz-adv-x="601" 
d="M358 462l203 -142l-203 -142v101h-281v82h281v101z" />
    <glyph glyph-name="arrowdown" unicode="&#x2193;" horiz-adv-x="600" 
d="M444 272l-142 -203l-142 203h101v281h82v-281h101z" />
    <glyph glyph-name="uni2196" unicode="&#x2196;" horiz-adv-x="600" 
d="M173 253l-43 244l244 -43l-72 -72l199 -197l-58 -59l-199 198z" />
    <glyph glyph-name="uni2197" unicode="&#x2197;" horiz-adv-x="600" 
d="M251 454l244 43l-43 -244l-72 71l-198 -198l-58 58l198 198z" />
    <glyph glyph-name="uni2198" unicode="&#x2198;" horiz-adv-x="600" 
d="M446 372l43 -244l-244 43l71 71l-198 199l58 58l199 -198z" />
    <glyph glyph-name="uni2199" unicode="&#x2199;" horiz-adv-x="600" 
d="M374 171l-244 -43l43 244l71 -71l199 198l58 -58l-199 -199z" />
    <glyph glyph-name="partialdiff" unicode="&#x2202;" horiz-adv-x="469" 
d="M252 729l157 -227q48 -69 27 -163l-34 -160q-17 -86 -72 -139t-139 -53q-92 0 -135 60t-22 152l34 158q15 83 70.5 136t138.5 53l-127 183h102zM310 181l33 156q13 60 -6 93.5t-65 33.5q-43 0 -72.5 -29.5t-38.5 -77.5l-34 -156q-13 -60 6 -93.5t64 -33.5q43 0 73 29.5
t40 77.5z" />
    <glyph glyph-name="emptyset" unicode="&#x2205;" horiz-adv-x="521" 
d="M86 105l-48 54l48 43q-33 55 -26 118q8 86 76.5 147.5t155.5 61.5q65 0 118 -37l48 43l48 -54l-47 -42q33 -53 27 -119q-10 -87 -77 -148t-155 -61q-68 0 -119 38zM258 183q56 0 100 40t50 97q3 34 -10 65l-205 -184q27 -18 65 -18zM137 320q-4 -34 9 -65l205 184
q-28 18 -64 18q-56 0 -100 -40t-50 -97z" />
    <glyph glyph-name="product" unicode="&#x220f;" horiz-adv-x="581" 
d="M172 710h426l-187 -880h-100l167 788h-226l-167 -788h-100z" />
    <glyph glyph-name="summation" unicode="&#x2211;" horiz-adv-x="463" 
d="M505 710l-20 -92h-262l129 -341l-275 -354h284l-20 -93h-402l17 82l290 379l-131 337l17 82h373z" />
    <glyph glyph-name="minus" unicode="&#x2212;" horiz-adv-x="501" 
d="M102 357h334l-16 -74h-334z" />
    <glyph glyph-name="radical" unicode="&#x221a;" horiz-adv-x="498" 
d="M586 729l-394 -729h-99l-61 369h101l31 -242l313 602h109z" />
    <glyph glyph-name="infinity" unicode="&#x221e;" horiz-adv-x="748" 
d="M713 320q0 -78 -44 -129t-113 -51q-46 0 -85 30.5t-86 90.5q-47 -60 -86 -90.5t-85 -30.5q-69 0 -113 51t-44 129t44 129t113 51q46 0 84.5 -30t86.5 -92q47 61 86 91.5t85 30.5q69 0 113 -51t44 -129zM635 320q0 48 -22 76.5t-58 28.5q-24 0 -49.5 -20.5t-75.5 -84.5
q50 -64 75.5 -84.5t49.5 -20.5q36 0 58 28.5t22 76.5zM135 320q0 -48 22 -76.5t58 -28.5q23 0 49.5 21t75.5 84q-49 63 -75.5 84t-49.5 21q-36 0 -58 -28.5t-22 -76.5z" />
    <glyph glyph-name="integral" unicode="&#x222b;" horiz-adv-x="308" 
d="M311 710h66l-17 -82h-32q-50 0 -61 -54l-131 -619q-11 -55 -48 -89.5t-87 -34.5h-70l17 82h36q50 0 61 54l131 619q12 56 47.5 90t87.5 34z" />
    <glyph glyph-name="approxequal" unicode="&#x2248;" 
d="M317 306h75l-5 -21q-12 -62 -42.5 -93t-73.5 -31q-48 0 -94 45q-33 32 -48 32q-32 0 -47 -70h-75l5 21q12 62 42.5 93t73.5 31q46 0 96 -47q33 -30 46 -30q32 0 47 70zM355 484h75l-5 -21q-12 -62 -42.5 -93t-73.5 -31q-48 0 -94 45q-33 32 -48 32q-32 0 -47 -70h-75
l5 21q12 62 42.5 93t73.5 31q46 0 96 -47q33 -30 46 -30q32 0 47 70z" />
    <glyph glyph-name="notequal" unicode="&#x2260;" horiz-adv-x="501" 
d="M103 364l16 74h167l65 114h84l-65 -114h83l-16 -74h-109l-50 -88h141l-16 -74h-167l-65 -114h-84l65 114h-83l16 74h109l50 88h-141z" />
    <glyph glyph-name="lessequal" unicode="&#x2264;" 
d="M70 175h320l-16 -74h-320zM119 406l349 140l-19 -89l-233 -86l196 -87l-16 -79l-290 140z" />
    <glyph glyph-name="greaterequal" unicode="&#x2265;" 
d="M430 345l-349 -140l19 89l233 87l-196 86l16 79l290 -140zM75 175h320l-16 -74h-320z" />
    <glyph glyph-name="lozenge" unicode="&#x25ca;" horiz-adv-x="603" 
d="M203 0l-160 355l313 355h82l161 -355l-311 -355h-85zM155 349l105 -241l225 254l-103 241z" />
    <glyph glyph-name="fi" unicode="&#xfb01;" horiz-adv-x="514" 
d="M335 538l-17 -83h-94l-97 -455h-93l97 455h-70l18 83h69l17 77q12 53 48.5 85.5t94.5 32.5h66l-17 -82h-42q-49 0 -61 -54l-13 -59h94zM525 538l-114 -538h-93l114 538h93zM567 730l-23 -107h-99l23 107h99z" />
    <glyph glyph-name="fl" unicode="&#xfb02;" horiz-adv-x="524" 
d="M335 538l-17 -83h-94l-97 -455h-93l97 455h-70l18 83h69l17 77q12 53 48.5 85.5t94.5 32.5h66l-17 -82h-42q-49 0 -61 -54l-13 -59h94zM483 729h93l-155 -729h-93z" />
    <glyph glyph-name="uniFEFF" unicode="&#xfeff;" horiz-adv-x="0" 
 />
    <glyph glyph-name="_126" horiz-adv-x="566" 
d="M489 0h-103l-11 167h-220l-82 -167h-110l364 710h101zM349 563l-149 -304h169zM604 710l-23 -107h-99l23 107h99zM248 710l-23 -107h-99l23 107h99z" />
    <glyph glyph-name="_127" horiz-adv-x="576" 
d="M364 726q114 0 167.5 -77t31.5 -192l-50 -234q-20 -105 -90 -172t-172 -67q-117 0 -170.5 77t-28.5 192l50 234q21 104 91 171.5t171 67.5zM356 634q-59 0 -100 -41t-54 -106l-51 -234q-16 -78 11 -127.5t95 -49.5q59 0 100.5 41t54.5 106l50 234q15 80 -13 128.5
t-93 48.5zM401 561l-23 -107h-99l23 107h99zM367 401l-23 -107h-99l23 107h99z" />
    <glyph glyph-name="_128" horiz-adv-x="586" 
d="M511 710h101l-104 -487q-20 -106 -89 -172.5t-170 -66.5q-106 0 -158.5 73.5t-28.5 185.5l100 467h100l-99 -467q-18 -80 7.5 -123.5t85.5 -43.5q56 0 97 40.5t55 106.5zM436 711l-23 -107h-99l23 107h99zM402 551l-23 -107h-99l23 107h99z" />
    <glyph glyph-name="_129" horiz-adv-x="558" 
d="M168 710h202q108 0 154 -59t29 -136q-24 -103 -111 -146q41 -27 56 -72t5 -98q-19 -88 -81 -143.5t-158 -55.5h-247zM316 319h-131l-49 -227h125q55 0 91 29.5t49 83.5q10 49 -13.5 81.5t-71.5 32.5zM364 618h-116l-44 -207h116q52 0 85.5 27t43.5 73q11 50 -10.5 78.5
t-74.5 28.5z" />
    <glyph glyph-name="_130" horiz-adv-x="561" 
d="M250 76q56 0 98 39t54 98l16 76h-129l19 91h230l-35 -167q-19 -99 -89.5 -164.5t-171.5 -65.5q-105 0 -160 78t-31 190l51 237q21 104 90 171t171 67q105 0 159 -69.5t33 -160.5v-3h-101l1 3q13 56 -14 97t-86 41q-57 0 -98 -41t-54 -106l-50 -235q-18 -81 9.5 -128.5
t87.5 -47.5z" />
    <glyph glyph-name="_131" horiz-adv-x="561" 
d="M250 76q56 0 98 39t54 98l16 76h-129l19 91h230l-35 -167q-19 -99 -89.5 -164.5t-171.5 -65.5q-105 0 -160 78t-31 190l51 237q21 104 90 171t171 67q105 0 159 -69.5t33 -160.5v-3h-101l1 3q13 56 -14 97t-86 41q-57 0 -98 -41t-54 -106l-50 -235q-18 -81 9.5 -128.5
t87.5 -47.5zM467 896h75q-24 -117 -148 -117q-70 0 -105.5 33.5t-23.5 83.5h76q-6 -25 8.5 -39t44.5 -14q29 0 48.5 14t24.5 39z" />
    <glyph glyph-name="_132" horiz-adv-x="561" 
d="M250 76q56 0 98 39t54 98l16 76h-129l19 91h230l-35 -167q-19 -99 -89.5 -164.5t-171.5 -65.5q-105 0 -160 78t-31 190l51 237q21 104 90 171t171 67q105 0 159 -69.5t33 -160.5v-3h-101l1 3q13 56 -14 97t-86 41q-57 0 -98 -41t-54 -106l-50 -235q-18 -81 9.5 -128.5
t87.5 -47.5zM155 -203l56 77h-47l17 78h107l-15 -71l-59 -84h-59z" />
    <glyph glyph-name="_133" horiz-adv-x="561" 
d="M250 76q56 0 98 39t54 98l16 76h-129l19 91h230l-35 -167q-19 -99 -89.5 -164.5t-171.5 -65.5q-105 0 -160 78t-31 190l51 237q21 104 90 171t171 67q105 0 159 -69.5t33 -160.5v-3h-101l1 3q13 56 -14 97t-86 41q-57 0 -98 -41t-54 -106l-50 -235q-18 -81 9.5 -128.5
t87.5 -47.5zM452 902l-23 -107h-99l23 107h99z" />
    <glyph glyph-name="_134" horiz-adv-x="523" 
d="M168 710h171q111 0 158.5 -62t31.5 -145q-13 -68 -57.5 -120t-113.5 -72l104 -311h-110l-94 303h-77l-64 -303h-100zM338 618h-90l-47 -224h92q53 0 88.5 30.5t45.5 79.5q12 52 -10.5 83t-78.5 31z" />
    <glyph glyph-name="_135" horiz-adv-x="523" 
d="M168 710h171q111 0 158.5 -62t31.5 -145q-13 -68 -57.5 -120t-113.5 -72l104 -311h-110l-94 303h-77l-64 -303h-100zM338 618h-90l-47 -224h92q53 0 88.5 30.5t45.5 79.5q12 52 -10.5 83t-78.5 31zM521 901l-108 -117h-101l92 117h117z" />
    <glyph glyph-name="_136" horiz-adv-x="523" 
d="M168 710h171q111 0 158.5 -62t31.5 -145q-13 -68 -57.5 -120t-113.5 -72l104 -311h-110l-94 303h-77l-64 -303h-100zM338 618h-90l-47 -224h92q53 0 88.5 30.5t45.5 79.5q12 52 -10.5 83t-78.5 31zM528 893l-122 -109h-84l-82 109h98l32 -50l52 50h106z" />
    <glyph glyph-name="_137" horiz-adv-x="523" 
d="M168 710h171q111 0 158.5 -62t31.5 -145q-13 -68 -57.5 -120t-113.5 -72l104 -311h-110l-94 303h-77l-64 -303h-100zM338 618h-90l-47 -224h92q53 0 88.5 30.5t45.5 79.5q12 52 -10.5 83t-78.5 31zM141 -203l56 77h-47l17 78h107l-15 -71l-59 -84h-59z" />
    <glyph glyph-name="_284" horiz-adv-x="464" 
d="M517 708l-17 -81l-120 -222h68l-19 -89h-97l-170 -316h-109l173 319h-94l19 88h123l113 209h-184l-20 -96h-100l40 188h394z" />
    <glyph glyph-name="_285" 
d="M536 708l-17 -81l-120 -222h68l-19 -89h-97l-170 -316h-109l173 319h-94l19 88h123l113 209h-184l-20 -96h-100l40 188h394z" />
    <glyph glyph-name="_286" horiz-adv-x="264" 
d="M104 115q-15 0 -28 -11.5t-16 -28.5l-31 -147q-5 -17 4.5 -28.5t27.5 -11.5q15 0 27.5 11.5t16.5 28.5l31 147q4 17 -5.5 28.5t-26.5 11.5zM107 177q50 0 76.5 -30.5t17.5 -71.5l-32 -147q-8 -44 -39 -72.5t-72 -28.5q-50 0 -76.5 30t-18.5 71l32 147q8 44 39.5 73
t72.5 29z" />
    <glyph glyph-name="_287" horiz-adv-x="208" 
d="M122 -105l-13 -60h-168l13 60h51l45 214h-55l13 61h120l-58 -275h52z" />
    <glyph glyph-name="_288" horiz-adv-x="246" 
d="M149 -105l-13 -60h-195l11 55l148 155q10 10 18 33q4 17 -4.5 27t-23.5 10q-31 0 -39 -37l-3 -13h-65l3 13q9 43 37.5 71t69.5 28q48 0 73 -31.5t15 -77.5q-8 -33 -30 -57l-113 -116h111z" />
    <glyph glyph-name="_289" horiz-adv-x="247" 
d="M187 116l-82 -79q34 -8 49 -33.5t9 -56.5l-4 -22q-9 -43 -37 -70.5t-70 -27.5q-50 0 -76.5 29t-18.5 69l2 10h64l-2 -10q-4 -16 5 -26.5t26 -10.5q14 0 26 10.5t16 26.5l4 22q3 14 -5.5 24t-24.5 10h-56l11 51l80 78h-106l13 61h189z" />
    <glyph glyph-name="_290" horiz-adv-x="262" 
d="M172 -34l-13 -61h-44l-14 -70h-65l14 70h-122l12 55l148 209h79l-147 -203h48l12 54h60l-12 -54h44z" />
    <glyph glyph-name="_291" horiz-adv-x="259" 
d="M85 67q43 0 67.5 -29t16.5 -68l-9 -43q-9 -43 -38.5 -71.5t-71.5 -28.5q-53 0 -80.5 31t-18.5 72l1 1h65l-1 -1q-4 -19 5.5 -30.5t29.5 -11.5q16 0 28.5 11t15.5 28l7 36q5 19 -4 31t-27 12q-36 0 -47 -42l-1 -6h-62l46 214h190l-13 -61h-126l-11 -53q17 9 38 9z" />
    <glyph glyph-name="_292" horiz-adv-x="253" 
d="M180 170l-102 -127q45 0 70 -31t19 -75q-8 -49 -41.5 -79t-81.5 -30q-51 0 -79.5 32t-20.5 78q6 38 37 77l122 155h77zM63 -15q-20 0 -35.5 -13t-19.5 -35q-4 -23 6.5 -36t31.5 -13t36 13t19 36q4 22 -7 35t-31 13z" />
    <glyph glyph-name="_293" horiz-adv-x="235" 
d="M196 170l-11 -53l-152 -282h-72l147 274h-61l-8 -39h-65l21 100h201z" />
    <glyph glyph-name="_294" horiz-adv-x="274" 
d="M166 83q-5 -45 -45 -69q39 -28 34 -78q-5 -47 -39.5 -77.5t-84.5 -30.5q-51 0 -81.5 31.5t-26.5 76.5q6 60 67 86q-25 24 -21 61q4 39 33.5 65t71.5 26q44 0 70 -26t22 -65zM-11 -63q-2 -21 10 -34.5t35 -13.5t38.5 13t17.5 35q2 23 -10 37t-35 14t-38.5 -14.5
t-17.5 -36.5zM33 81q-2 -14 6.5 -23t24.5 -9q33 0 38 32q2 15 -7 24t-24 9q-33 0 -38 -33z" />
    <glyph glyph-name="_295" horiz-adv-x="254" 
d="M-31 -167l102 127q-45 0 -70 31t-19 75q8 49 41.5 79t81.5 30q51 0 79.5 -32t20.5 -78q-6 -38 -37 -77l-122 -155h-77zM86 18q20 0 35.5 13t19.5 35q4 23 -6.5 36t-31.5 13t-36 -13t-19 -36q-4 -22 7 -35t31 -13z" />
    <glyph glyph-name="zero001" 
d="M323 632q-43 0 -74.5 -29.5t-43.5 -84.5l-65 -304q-14 -66 8 -101t69 -35q43 0 75 30.5t44 86.5l65 303q14 66 -8 100t-70 34zM330 724q94 0 144 -63.5t28 -162.5l-65 -303q-21 -97 -80.5 -153t-146.5 -56q-94 0 -142.5 63.5t-27.5 164.5l65 304q21 94 81 150t144 56z
" />
    <glyph glyph-name="_297" 
d="M413 92l-20 -92h-364l20 92h130l111 526h-140l19 92h242l-132 -618h134z" />
    <glyph glyph-name="two002" 
d="M415 92l-19 -92h-380l17 82l296 344q49 57 59 102q11 47 -9.5 75.5t-61.5 28.5q-86 0 -108 -106l-6 -29h-100l6 29q20 97 75 147.5t134 50.5q93 0 139.5 -59.5t28.5 -147.5q-16 -69 -83 -146l-239 -279h251z" />
    <glyph glyph-name="three003" 
d="M494 628l-185 -202q75 -14 108 -69t17 -134l-8 -38q-16 -87 -77 -143t-144 -56q-91 0 -139 57.5t-30 142.5l4 18h97l-4 -18q-11 -48 11.5 -78t67.5 -30q40 0 71.5 29.5t41.5 77.5l8 38q14 59 -10 92t-74 33h-77l15 70l182 199h-237l19 92h360z" />
    <glyph glyph-name="four004" 
d="M473 253l-19 -93h-87l-34 -160h-100l34 160h-263l17 81l319 468h115l-313 -456h145l32 151h100l-33 -151h87z" />
    <glyph glyph-name="five005" 
d="M296 469q83 0 125.5 -59.5t21.5 -158.5l-14 -66q-16 -88 -76 -143.5t-144 -55.5q-89 0 -137 53t-30 134l2 11h100l-2 -11q-9 -41 12 -68t63 -27q39 0 70.5 29.5t41.5 77.5l14 66q12 59 -8.5 92.5t-63.5 33.5q-38 0 -68 -27t-38 -68v-3h-94l92 431h350l-19 -92h-251
l-37 -175q38 26 90 26z" />
    <glyph glyph-name="six006" 
d="M278 423q84 0 137 -64t45 -154q-10 -96 -74.5 -158.5t-156.5 -62.5q-98 0 -155.5 64t-47.5 157q8 77 58 145l269 360h116l-218 -289q18 2 27 2zM257 334q-52 0 -88.5 -35t-42.5 -94t23 -94.5t81 -35.5t87.5 35.5t41.5 94.5t-22.5 94t-79.5 35z" />
    <glyph glyph-name="seven007" 
d="M544 708l-17 -81l-338 -627h-109l334 616h-184l-20 -96h-100l40 188h394z" />
    <glyph glyph-name="_304" 
d="M506 522q-13 -109 -110 -168q70 -60 59 -157q-10 -93 -73.5 -153t-155.5 -60q-95 0 -154 62.5t-49 150.5q5 55 36.5 101.5t82.5 75.5q-61 55 -51 148q8 86 70.5 145t149.5 59q91 0 147 -60.5t48 -143.5zM252 318q-50 0 -85.5 -33.5t-41.5 -86.5q-6 -54 22.5 -87.5
t78.5 -33.5q51 0 87 33.5t42 87.5q6 53 -23 86.5t-80 33.5zM287 408q46 0 79 31t38 82q5 49 -21.5 80.5t-72.5 31.5t-79 -32t-39 -80q-5 -51 21 -82t74 -31z" />
    <glyph glyph-name="six008" 
d="M262 287q-84 0 -137 64t-45 154q10 96 74.5 158.5t156.5 62.5q98 0 155.5 -64t47.5 -157q-8 -77 -58 -145l-269 -360h-116l218 289q-18 -2 -27 -2zM283 376q52 0 88.5 35t42.5 94t-23 94.5t-81 35.5t-87.5 -35.5t-41.5 -94.5t22.5 -94t79.5 -35z" />
    <glyph glyph-name="_306" horiz-adv-x="519" 
d="M338 724q94 0 144 -63.5t28 -162.5l-65 -303q-21 -97 -80.5 -153t-146.5 -56q-94 0 -142.5 63.5t-27.5 164.5l65 304q21 94 81 150t144 56zM225 78q43 0 75 30.5t44 86.5l40 188l-230 -138l-6 -31q-14 -66 8 -101t69 -35zM331 632q-43 0 -74.5 -29.5t-43.5 -84.5
l-36 -168l230 139l2 9q14 66 -8 100t-70 34z" />
    <glyph glyph-name="_307" 
d="M337 724q94 0 144 -63.5t28 -162.5l-65 -303q-21 -97 -80.5 -153t-146.5 -56q-94 0 -142.5 63.5t-27.5 164.5l65 304q21 94 81 150t144 56zM224 78q43 0 75 30.5t44 86.5l40 188l-230 -138l-6 -31q-14 -66 8 -101t69 -35zM330 632q-43 0 -74.5 -29.5t-43.5 -84.5
l-36 -168l230 139l2 9q14 66 -8 100t-70 34z" />
    <glyph glyph-name="_314" horiz-adv-x="264" 
d="M133 280q-15 0 -28 -11.5t-16 -28.5l-31 -147q-5 -17 4.5 -28.5t27.5 -11.5q15 0 27.5 11.5t16.5 28.5l31 147q4 17 -5.5 28.5t-26.5 11.5zM136 342q50 0 76.5 -30.5t17.5 -71.5l-32 -147q-8 -44 -39 -72.5t-72 -28.5q-50 0 -76.5 30t-18.5 71l32 147q8 44 39.5 73
t72.5 29z" />
    <glyph glyph-name="_315" horiz-adv-x="208" 
d="M152 60l-13 -60h-168l13 60h51l45 214h-55l13 61h120l-58 -275h52z" />
    <glyph glyph-name="_316" horiz-adv-x="246" 
d="M181 60l-13 -60h-195l11 55l148 155q10 10 18 33q4 17 -4.5 27t-23.5 10q-31 0 -39 -37l-3 -13h-65l3 13q9 43 37.5 71t69.5 28q48 0 73 -31.5t15 -77.5q-8 -33 -30 -57l-113 -116h111z" />
    <glyph glyph-name="_317" horiz-adv-x="247" 
d="M216 281l-82 -79q34 -8 49 -33.5t9 -56.5l-4 -22q-9 -43 -37 -70.5t-70 -27.5q-50 0 -76.5 29t-18.5 69l2 10h64l-2 -10q-4 -16 5 -26.5t26 -10.5q14 0 26 10.5t16 26.5l4 22q3 14 -5.5 24t-24.5 10h-56l11 51l80 78h-106l13 61h189z" />
    <glyph glyph-name="_318" horiz-adv-x="263" 
d="M218 131l-13 -61h-44l-14 -70h-65l14 70h-122l12 55l148 209h79l-147 -203h48l12 54h60l-12 -54h44z" />
    <glyph glyph-name="_319" horiz-adv-x="259" 
d="M124 232q43 0 67.5 -29t16.5 -68l-9 -43q-9 -43 -38.5 -71.5t-71.5 -28.5q-53 0 -80.5 31t-18.5 72l1 1h65l-1 -1q-4 -19 5.5 -30.5t29.5 -11.5q16 0 28.5 11t15.5 28l7 36q5 19 -4 31t-27 12q-36 0 -47 -42l-1 -6h-62l46 214h190l-13 -61h-126l-11 -53q17 9 38 9z" />
    <glyph glyph-name="_320" horiz-adv-x="254" 
d="M217 335l-102 -127q45 0 70 -31t19 -75q-8 -49 -41.5 -79t-81.5 -30q-51 0 -79.5 32t-20.5 78q6 38 37 77l122 155h77zM100 150q-20 0 -35.5 -13t-19.5 -35q-4 -23 6.5 -36t31.5 -13t36 13t19 36q4 22 -7 35t-31 13z" />
    <glyph glyph-name="_321" horiz-adv-x="235" 
d="M233 335l-11 -53l-152 -282h-72l147 274h-61l-8 -39h-65l21 100h201z" />
    <glyph glyph-name="_322" horiz-adv-x="273" 
d="M230 248q-5 -45 -45 -69q39 -28 34 -78q-5 -47 -39.5 -77.5t-84.5 -30.5q-51 0 -81.5 31.5t-26.5 76.5q6 60 67 86q-25 24 -21 61q4 39 33.5 65t71.5 26q44 0 70 -26t22 -65zM53 102q-2 -21 10 -34.5t35 -13.5t38.5 13t17.5 35q2 23 -10 37t-35 14t-38.5 -14.5
t-17.5 -36.5zM97 246q-2 -14 6.5 -23t24.5 -9q33 0 38 32q2 15 -7 24t-24 9q-33 0 -38 -33z" />
    <glyph glyph-name="_323" horiz-adv-x="253" 
d="M-5 -1l102 127q-45 0 -70 31t-19 75q8 49 41.5 79t81.5 30q51 0 79.5 -32.5t20.5 -77.5q-6 -38 -37 -77l-122 -155h-77zM112 184q20 0 35.5 13t19.5 35q4 23 -6.5 36t-31.5 13t-36 -13t-19 -36q-4 -22 7 -35t31 -13z" />
    <glyph glyph-name="_324" horiz-adv-x="263" 
d="M214 655q-15 0 -28 -11.5t-16 -28.5l-31 -147q-5 -17 4.5 -28.5t27.5 -11.5q15 0 27.5 11.5t16.5 28.5l31 147q4 17 -5.5 28.5t-26.5 11.5zM217 717q50 0 76.5 -30.5t17.5 -71.5l-32 -147q-8 -44 -39 -72.5t-72 -28.5q-50 0 -76.5 30t-18.5 71l32 147q8 44 39.5 73
t72.5 29z" />
    <glyph glyph-name="_325" horiz-adv-x="207" 
d="M233 435l-13 -60h-168l13 60h51l45 214h-55l13 61h120l-58 -275h52z" />
    <glyph glyph-name="_326" horiz-adv-x="245" 
d="M262 435l-13 -60h-195l11 55l148 155q11 10 18 33q4 17 -4.5 27t-23.5 10q-31 0 -39 -37l-3 -13h-65l3 13q9 43 37.5 71t69.5 28q48 0 73 -31.5t15 -77.5q-8 -33 -30 -57l-113 -116h111z" />
    <glyph glyph-name="_327" horiz-adv-x="247" 
d="M296 656l-82 -79q34 -8 49 -33.5t9 -56.5l-4 -22q-9 -43 -37 -70.5t-70 -27.5q-50 0 -76.5 29t-18.5 69l2 10h64l-2 -10q-4 -16 5 -26.5t26 -10.5q14 0 26 10.5t16 26.5l4 22q3 14 -5.5 24t-24.5 10h-56l11 51l80 78h-106l13 61h189z" />
    <glyph glyph-name="_328" horiz-adv-x="262" 
d="M299 506l-13 -61h-44l-14 -70h-65l14 70h-122l12 55l148 209h79l-147 -203h48l12 54h60l-12 -54h44z" />
    <glyph glyph-name="_329" horiz-adv-x="259" 
d="M205 607q43 0 67.5 -29t16.5 -68l-9 -43q-9 -43 -38.5 -71.5t-71.5 -28.5q-53 0 -80.5 31t-18.5 72l1 1h65l-1 -1q-4 -19 5.5 -30.5t29.5 -11.5q16 0 28.5 11t15.5 28l7 36q5 19 -4 31t-27 12q-36 0 -47 -42l-1 -6h-62l46 214h190l-13 -61h-126l-11 -53q17 9 38 9z" />
    <glyph glyph-name="_330" horiz-adv-x="254" 
d="M298 710l-102 -127q45 0 70 -31t19 -75q-8 -49 -41.5 -79t-81.5 -30q-51 0 -79.5 32t-20.5 78q6 38 37 77l122 155h77zM181 525q-20 0 -35.5 -13t-19.5 -35q-4 -23 6.5 -36t31.5 -13t36 13t19 36q4 22 -7 35t-31 13z" />
    <glyph glyph-name="_331" horiz-adv-x="235" 
d="M314 710l-11 -53l-152 -282h-72l147 274h-61l-8 -39h-65l21 100h201z" />
    <glyph glyph-name="_332" horiz-adv-x="273" 
d="M311 623q-5 -45 -45 -69q39 -28 34 -78q-5 -47 -39.5 -77.5t-84.5 -30.5q-51 0 -81.5 31.5t-26.5 76.5q6 60 67 86q-25 24 -21 61q4 39 33.5 65t71.5 26q44 0 70 -26t22 -65zM134 477q-2 -21 10 -34.5t35 -13.5t38.5 13t17.5 35q2 23 -10 37t-35 14t-38.5 -14.5
t-17.5 -36.5zM178 621q-2 -14 6.5 -23t24.5 -9q33 0 38 32q2 15 -6.5 24t-24.5 9q-33 0 -38 -33z" />
    <glyph glyph-name="_333" horiz-adv-x="253" 
d="M75 374l102 127q-45 0 -70 31t-19 75q8 49 41.5 79t81.5 30q51 0 79.5 -32t20.5 -78q-6 -38 -37 -77l-122 -155h-77zM192 559q20 0 35.5 13t19.5 35q4 23 -6.5 36t-31.5 13t-36 -13t-19 -36q-4 -22 7 -35t31 -13z" />
    <glyph glyph-name="_334" horiz-adv-x="263" 
d="M214 655q-15 0 -28 -11.5t-16 -28.5l-31 -147q-5 -17 4.5 -28.5t27.5 -11.5q15 0 27.5 11.5t16.5 28.5l31 147q4 17 -5.5 28.5t-26.5 11.5zM217 717q50 0 76.5 -30.5t17.5 -71.5l-32 -147q-8 -44 -39 -72.5t-72 -28.5q-50 0 -76.5 30t-18.5 71l32 147q8 44 39.5 73
t72.5 29z" />
    <glyph glyph-name="_335" horiz-adv-x="207" 
d="M233 435l-13 -60h-168l13 60h51l45 214h-55l13 61h120l-58 -275h52z" />
    <glyph glyph-name="_336" horiz-adv-x="245" 
d="M262 435l-13 -60h-195l11 55l148 155q11 10 18 33q4 17 -4.5 27t-23.5 10q-31 0 -39 -37l-3 -13h-65l3 13q9 43 37.5 71t69.5 28q48 0 73 -31.5t15 -77.5q-8 -33 -30 -57l-113 -116h111z" />
    <glyph glyph-name="_337" horiz-adv-x="247" 
d="M296 656l-82 -79q34 -8 49 -33.5t9 -56.5l-4 -22q-9 -43 -37 -70.5t-70 -27.5q-50 0 -76.5 29t-18.5 69l2 10h64l-2 -10q-4 -16 5 -26.5t26 -10.5q14 0 26 10.5t16 26.5l4 22q3 14 -5.5 24t-24.5 10h-56l11 51l80 78h-106l13 61h189z" />
    <glyph glyph-name="_338" horiz-adv-x="262" 
d="M299 506l-13 -61h-44l-14 -70h-65l14 70h-122l12 55l148 209h79l-147 -203h48l12 54h60l-12 -54h44z" />
    <glyph glyph-name="_339" horiz-adv-x="259" 
d="M205 607q43 0 67.5 -29t16.5 -68l-9 -43q-9 -43 -38.5 -71.5t-71.5 -28.5q-53 0 -80.5 31t-18.5 72l1 1h65l-1 -1q-4 -19 5.5 -30.5t29.5 -11.5q16 0 28.5 11t15.5 28l7 36q5 19 -4 31t-27 12q-36 0 -47 -42l-1 -6h-62l46 214h190l-13 -61h-126l-11 -53q17 9 38 9z" />
    <glyph glyph-name="_340" horiz-adv-x="254" 
d="M298 710l-102 -127q45 0 70 -31t19 -75q-8 -49 -41.5 -79t-81.5 -30q-51 0 -79.5 32t-20.5 78q6 38 37 77l122 155h77zM181 525q-20 0 -35.5 -13t-19.5 -35q-4 -23 6.5 -36t31.5 -13t36 13t19 36q4 22 -7 35t-31 13z" />
    <glyph glyph-name="_341" horiz-adv-x="235" 
d="M314 710l-11 -53l-152 -282h-72l147 274h-61l-8 -39h-65l21 100h201z" />
    <glyph glyph-name="_342" horiz-adv-x="273" 
d="M311 623q-5 -45 -45 -69q39 -28 34 -78q-5 -47 -39.5 -77.5t-84.5 -30.5q-51 0 -81.5 31.5t-26.5 76.5q6 60 67 86q-25 24 -21 61q4 39 33.5 65t71.5 26q44 0 70 -26t22 -65zM134 477q-2 -21 10 -34.5t35 -13.5t38.5 13t17.5 35q2 23 -10 37t-35 14t-38.5 -14.5
t-17.5 -36.5zM178 621q-2 -14 6.5 -23t24.5 -9q33 0 38 32q2 15 -6.5 24t-24.5 9q-33 0 -38 -33z" />
    <glyph glyph-name="_343" horiz-adv-x="253" 
d="M75 374l102 127q-45 0 -70 31t-19 75q8 49 41.5 79t81.5 30q51 0 79.5 -32t20.5 -78q-6 -38 -37 -77l-122 -155h-77zM192 559q20 0 35.5 13t19.5 35q4 23 -6.5 36t-31.5 13t-36 -13t-19 -36q-4 -22 7 -35t31 -13z" />
    <glyph glyph-name="period009" horiz-adv-x="240" 
d="M223 416l-26 -121h-118l26 121h118z" />
    <glyph glyph-name="bullet010" horiz-adv-x="337" 
d="M299 443l-37 -174h-175l37 174h175z" />
    <glyph glyph-name="exclam011" horiz-adv-x="245" 
d="M130 0h-123l126 474h73zM131 589l26 121h118l-26 -121h-118z" />
    <glyph glyph-name="question012" horiz-adv-x="426" 
d="M286 312h-46q-45 0 -75.5 -26.5t-39.5 -69.5l-7 -34q-12 -53 7 -82t64 -29q39 0 66 25t34 62l3 13h93l-3 -15q-14 -75 -67 -123.5t-132 -48.5q-92 0 -134.5 55.5t-24.5 140.5l9 38q15 73 61.5 122t116.5 57l17 78h93zM233 589l26 121h118l-26 -121h-118z" />
    <glyph glyph-name="braceleft013" horiz-adv-x="293" 
d="M181 -75h-23q-58 0 -87 37t-17 92l44 211q10 49 -30 49h-22l5 22l8 38l5 22h21q42 0 52 49l46 220q12 58 45.5 89t84.5 31h44l-17 -82h-18q-38 0 -48 -49l-46 -219q-14 -59 -63 -84q38 -30 26 -86l-44 -209q-11 -49 33 -49h18z" />
    <glyph glyph-name="braceleft014" horiz-adv-x="293" 
d="M153 785h23q58 0 87 -37t17 -92l-44 -211q-10 -49 30 -49h22l-5 -22l-8 -38l-5 -22h-21q-42 0 -52 -49l-46 -220q-12 -58 -45.5 -89t-84.5 -31h-44l17 82h18q38 0 48 49l46 219q14 59 63 84q-38 30 -26 86l44 209q11 49 -33 49h-18z" />
    <glyph glyph-name="bracketleft015" horiz-adv-x="284" 
d="M116 7h81l-17 -82h-175l183 860h175l-18 -82h-82z" />
    <glyph glyph-name="bracketleft016" horiz-adv-x="284" 
d="M209 703h-81l17 82h175l-183 -860h-175l18 82h82z" />
    <glyph glyph-name="parenleft017" horiz-adv-x="276" 
d="M242 639l-120 -568q-16 -64 39 -64h27l-18 -82h-30q-63 0 -93.5 41t-18.5 101l122 577q15 66 52 103.5t93 37.5h53l-17 -82h-28q-48 0 -61 -64z" />
    <glyph glyph-name="parenleft018" horiz-adv-x="275" 
d="M75 71l120 568q16 64 -39 64h-27l18 82h30q63 0 93.5 -41t18.5 -101l-122 -577q-15 -66 -52 -103.5t-93 -37.5h-53l17 82h28q48 0 61 64z" />
    <glyph glyph-name="emdash019" horiz-adv-x="605" 
d="M94 396h483l-17 -82h-484z" />
    <glyph glyph-name="endash020" horiz-adv-x="496" 
d="M94 396h375l-18 -82h-375z" />
    <glyph glyph-name="hyphen021" horiz-adv-x="334" 
d="M95 398h210l-18 -86h-210z" />
    <glyph glyph-name="hyphen022" horiz-adv-x="334" 
d="M95 398h210l-18 -86h-210z" />
    <glyph glyph-name="hyphen023" horiz-adv-x="334" 
d="M95 398h210l-18 -86h-210z" />
    <glyph glyph-name="hyphen024" horiz-adv-x="334" 
d="M95 398h210l-18 -86h-210z" />
    <glyph glyph-name="guillemotleft025" horiz-adv-x="495" 
d="M458 550l51 -53l-167 -155l92 -139l-60 -43l-132 190zM249 550l52 -53l-154 -149l95 -145l-60 -43l-126 195z" />
    <glyph glyph-name="guillemotleft026" horiz-adv-x="494" 
d="M87 160l-51 53l167 155l-92 139l60 43l132 -190zM296 160l-52 53l154 149l-95 145l60 43l126 -195z" />
    <glyph glyph-name="guilsinglright027" horiz-adv-x="302" 
d="M249 550l51 -53l-166 -154l92 -140l-60 -43l-126 195z" />
    <glyph glyph-name="guilsinglright028" horiz-adv-x="300" 
d="M86 160l-51 53l166 154l-92 140l60 43l126 -195z" />
    <glyph glyph-name="_416" horiz-adv-x="0" 
 />
    <glyph glyph-name="minus029" horiz-adv-x="501" 
d="M115 392h334l-16 -74h-334z" />
    <glyph glyph-name="_491" horiz-adv-x="600" 
d="M212 -148h-104l77 153h97z" />
    <glyph glyph-name="_492" horiz-adv-x="332" 
d="M345 710l-61 -199h-75l45 199h91z" />
    </font>
</defs>
</svg>
