<?xml version="1.0" standalone="no"?>
<!DOCTYPE svg PUBLIC "-//W3C//DTD SVG 1.1//EN" "http://www.w3.org/Graphics/SVG/1.1/DTD/svg11.dtd" >
<svg xmlns="http://www.w3.org/2000/svg" xmlns:xlink="http://www.w3.org/1999/xlink" version="1.1">
<metadata>
Created by FontForge 20170731 at Tue Mar 29 04:13:23 2016
 By ,,,
Copyright (c) 2016 by Hannes von Doehren. All rights reserved.
</metadata>
<defs>
<font id="Fabrikat-Thin" horiz-adv-x="500" >
  <font-face 
    font-family="Fabrikat Thin"
    font-weight="265"
    font-stretch="normal"
    units-per-em="1000"
    panose-1="2 11 3 4 4 0 0 0 0 0"
    ascent="803"
    descent="-197"
    x-height="524"
    cap-height="710"
    bbox="-504 -197 835 950"
    underline-thickness="30"
    underline-position="-160"
    unicode-range="U+000D-FEFF"
  />
<missing-glyph horiz-adv-x="566" 
d="M474 770h13v-830h-13v830zM434 770h13v-830h-13v830zM394 770h13v-830h-13v830zM354 770h13v-830h-13v830zM314 770h13v-830h-13v830zM274 770h13v-830h-13v830zM234 770h13v-830h-13v830zM194 770h13v-830h-13v830zM154 770h13v-830h-13v830zM114 770h13v-830h-13v830z
M74 770h13v-830h-13v830z" />
    <glyph glyph-name=".notdef" horiz-adv-x="566" 
d="M474 770h13v-830h-13v830zM434 770h13v-830h-13v830zM394 770h13v-830h-13v830zM354 770h13v-830h-13v830zM314 770h13v-830h-13v830zM274 770h13v-830h-13v830zM234 770h13v-830h-13v830zM194 770h13v-830h-13v830zM154 770h13v-830h-13v830zM114 770h13v-830h-13v830z
M74 770h13v-830h-13v830z" />
    <glyph glyph-name=".null" horiz-adv-x="0" 
 />
    <glyph glyph-name="uni000D" unicode="&#xd;" horiz-adv-x="240" 
 />
    <glyph glyph-name="space" unicode=" " horiz-adv-x="240" 
 />
    <glyph glyph-name="exclam" unicode="!" horiz-adv-x="224" 
d="M91 710h41l-7 -504h-27zM142 60v-60h-59v60h59z" />
    <glyph glyph-name="quotedbl" unicode="&#x22;" horiz-adv-x="314" 
d="M221 710h34v-217h-34v217zM77 710h34v-217h-34v217z" />
    <glyph glyph-name="numbersign" unicode="#" horiz-adv-x="512" 
d="M436 233h-83l-33 -233h-32l33 233h-170l-33 -233h-32l33 233h-82l4 30h82l32 230h-82l4 30h82l27 187h32l-27 -187h170l27 187h32l-27 -187h83l-4 -30h-83l-32 -230h83zM187 493l-32 -230h170l32 230h-170z" />
    <glyph glyph-name="dollar" unicode="$" 
d="M391 493v38q0 68 -33 108.5t-93 46.5v-309q89 -31 129.5 -78.5t40.5 -129.5q0 -74 -48.5 -123.5t-121.5 -55.5v-110h-31v110q-74 6 -122.5 56t-48.5 127v50h36v-50q0 -61 37.5 -102.5t97.5 -47.5v328q-81 27 -120 73.5t-39 124.5q0 72 45 119.5t114 51.5v110h31v-110
q75 -5 118 -55t43 -134v-38h-35zM400 168q0 65 -32 105t-103 68v-318q59 6 97 46t38 99zM111 550q0 -62 29 -99t94 -62v297q-54 -4 -88.5 -41.5t-34.5 -94.5z" />
    <glyph glyph-name="percent" unicode="%" horiz-adv-x="569" 
d="M151 486q-50 0 -83 32.5t-33 82.5t33 82.5t83 32.5q49 0 82 -32.5t33 -82.5t-33 -82.5t-82 -32.5zM151 516q37 0 60.5 24t23.5 61t-23.5 61t-60.5 24t-61 -24t-24 -61t24 -61t61 -24zM420 -7q-50 0 -83 33t-33 83q0 48 33.5 81.5t82.5 33.5q48 0 81.5 -33.5t33.5 -81.5
q0 -49 -33.5 -82.5t-81.5 -33.5zM420 23q37 0 60.5 24.5t23.5 61.5t-23.5 61t-60.5 24t-61 -24t-24 -61t24 -61.5t61 -24.5zM450 710h36l-370 -710h-36z" />
    <glyph glyph-name="ampersand" unicode="&#x26;" horiz-adv-x="573" 
d="M547 0h-44l-98 120q-39 -62 -84.5 -96.5t-108.5 -34.5q-72 0 -118 42.5t-46 109.5q0 61 28 104.5t86 94.5l36 33q-63 74 -85.5 112.5t-22.5 88.5q0 66 41.5 106.5t107.5 40.5q62 0 105.5 -41t43.5 -102q0 -52 -33 -96t-99 -103l-11 -10l62 -74l94 -116l19 39l69 145h38
l-77 -159q-18 -38 -27 -52zM212 22q99 0 171 125l-104 129l-59 71l-36 -32q-56 -49 -79 -85t-23 -89q0 -54 36 -86.5t94 -32.5zM124 575q0 -42 20.5 -76.5t78.5 -103.5l11 10q72 67 90 91q30 39 30 81q0 46 -33.5 79t-81.5 33q-52 0 -83.5 -31.5t-31.5 -82.5z" />
    <glyph glyph-name="quotesingle" unicode="'" horiz-adv-x="170" 
d="M67 710h34v-217h-34v217z" />
    <glyph glyph-name="parenleft" unicode="(" horiz-adv-x="270" 
d="M121 655v-620q0 -42 22 -64.5t61 -22.5h36v-33h-41q-51 0 -81.5 32t-30.5 84v628q0 52 30.5 84t81.5 32h41v-32h-36q-39 0 -61 -23t-22 -65z" />
    <glyph glyph-name="parenright" unicode=")" horiz-adv-x="270" 
d="M149 35v620q0 42 -22 65t-61 23h-36v32h41q51 0 81.5 -32t30.5 -84v-628q0 -52 -30.5 -84t-81.5 -32h-41v33h36q39 0 61 22.5t22 64.5z" />
    <glyph glyph-name="asterisk" unicode="*" horiz-adv-x="385" 
d="M206 710l-1 -110l95 56l14 -24l-96 -54l96 -54l-14 -25l-95 56l1 -110h-28l1 110l-94 -56l-14 25l96 54l-96 54l14 24l94 -56l-1 110h28z" />
    <glyph glyph-name="plus" unicode="+" 
d="M265 477v-142h137v-30h-137v-142h-31v142h-137v30h137v142h31z" />
    <glyph glyph-name="comma" unicode="," horiz-adv-x="181" 
d="M121 59v-52l-37 -117h-28l35 110h-31v59h61z" />
    <glyph glyph-name="hyphen" unicode="-" horiz-adv-x="327" 
d="M60 337h207v-34h-207v34z" />
    <glyph glyph-name="period" unicode="." horiz-adv-x="171" 
d="M115 60v-60h-59v60h59z" />
    <glyph glyph-name="slash" unicode="/" horiz-adv-x="480" 
d="M422 775h37l-400 -860h-37z" />
    <glyph glyph-name="zero" unicode="0" horiz-adv-x="523" 
d="M261 687q-70 0 -111.5 -44.5t-41.5 -119.5v-335q0 -75 41.5 -120t111.5 -45t111.5 45t41.5 120v335q0 75 -41.5 119.5t-111.5 44.5zM261 721q85 0 137 -55t52 -143v-335q0 -89 -52 -144t-137 -55q-84 0 -136 55t-52 144v335q0 88 52 143t136 55z" />
    <glyph glyph-name="one" unicode="1" horiz-adv-x="340" 
d="M319 34v-34h-272v34h120v642h-132v34h168v-676h116z" />
    <glyph glyph-name="two" unicode="2" horiz-adv-x="460" 
d="M412 34v-34h-351v30l270 394q34 52 34 111q0 67 -40 109.5t-102 42.5q-63 0 -103.5 -42.5t-40.5 -109.5v-25h-35v25q0 80 50.5 133t128.5 53q77 0 127.5 -53t50.5 -133q0 -70 -40 -129l-255 -372h306z" />
    <glyph glyph-name="three" unicode="3" horiz-adv-x="468" 
d="M405 676l-205 -271h29q84 0 135 -52t51 -137v-38q0 -85 -51 -137t-134 -52q-82 0 -133 52t-51 137v14h35v-14q0 -71 40.5 -113t108.5 -42q69 0 109.5 42t40.5 113v38q0 72 -41.5 114t-110.5 42h-75v26l206 273h-294v34h340v-29z" />
    <glyph glyph-name="four" unicode="4" horiz-adv-x="472" 
d="M444 212v-34h-101v-178h-35v178h-282v27l241 505h39l-238 -498h240v196h35v-196h101z" />
    <glyph glyph-name="five" unicode="5" horiz-adv-x="483" 
d="M252 456q79 0 128 -52t49 -137v-89q0 -85 -50.5 -137t-132.5 -52q-84 0 -133 46.5t-49 125.5v3h35v-3q0 -64 38.5 -101t108.5 -37q68 0 108 42t40 113v89q0 71 -39.5 113t-105.5 42t-105.5 -35t-39.5 -93v-10h-33v426h337v-34h-302v-287q48 67 146 67z" />
    <glyph glyph-name="six" unicode="6" horiz-adv-x="476" 
d="M241 398q85 0 141.5 -58t56.5 -145q0 -89 -57 -147.5t-144 -58.5q-88 0 -145.5 58.5t-57.5 147.5q0 62 31 113l246 402h42l-203 -331q39 19 90 19zM237 365q-73 0 -120 -47.5t-47 -122.5t47 -123.5t120 -48.5t120 48.5t47 123.5t-47 122.5t-120 47.5z" />
    <glyph glyph-name="seven" unicode="7" horiz-adv-x="424" 
d="M400 703v-30l-235 -673h-38l235 669h-291v-121h-35v155h364z" />
    <glyph glyph-name="eight" unicode="8" horiz-adv-x="530" 
d="M444 545q0 -53 -26 -94.5t-71 -62.5q61 -24 96 -74.5t35 -118.5q0 -89 -60 -147.5t-153 -58.5t-153 58.5t-60 147.5q0 68 35 118.5t96 74.5q-45 21 -71 62.5t-26 94.5q0 75 50.5 125.5t128.5 50.5t128.5 -50.5t50.5 -125.5zM87 196q0 -76 50 -124.5t128 -48.5t128 48.5
t50 124.5t-50 124.5t-128 48.5t-128 -48.5t-50 -124.5zM121 545q0 -63 40.5 -102.5t103.5 -39.5t103.5 39.5t40.5 102.5t-40.5 102.5t-103.5 39.5t-103.5 -39.5t-40.5 -102.5z" />
    <glyph glyph-name="nine" unicode="9" horiz-adv-x="475" 
d="M235 312q-85 0 -141.5 58t-56.5 145q0 89 57 147.5t144 58.5q88 0 145.5 -58.5t57.5 -147.5q0 -62 -31 -113l-246 -402h-42l203 331q-38 -19 -90 -19zM239 345q73 0 120 47.5t47 122.5t-47 123.5t-120 48.5t-120 -48.5t-47 -123.5t47 -122.5t120 -47.5z" />
    <glyph glyph-name="colon" unicode=":" horiz-adv-x="202" 
d="M117 524v-60h-59v60h59zM117 60v-60h-59v60h59z" />
    <glyph glyph-name="semicolon" unicode=";" horiz-adv-x="221" 
d="M142 59v-52l-37 -117h-28l35 110h-31v59h61zM138 524v-60h-59v60h59z" />
    <glyph glyph-name="less" unicode="&#x3c;" 
d="M93 307v26l288 148v-34l-247 -127l247 -127v-34z" />
    <glyph glyph-name="equal" unicode="=" 
d="M105 415h289v-30h-289v30zM105 255h289v-30h-289v30z" />
    <glyph glyph-name="greater" unicode="&#x3e;" 
d="M406 307l-288 -148v34l247 127l-247 127v34l288 -148v-26z" />
    <glyph glyph-name="question" unicode="?" horiz-adv-x="414" 
d="M171 352h25q62 0 96 35.5t34 95.5v66q0 65 -33.5 102t-94.5 37t-94.5 -35t-33.5 -91v-20h-34v22q0 70 43.5 113.5t118.5 43.5t118.5 -46t43.5 -124v-70q0 -70 -41.5 -115t-113.5 -47v-113h-34v146zM217 60v-60h-59v60h59z" />
    <glyph glyph-name="at" unicode="@" horiz-adv-x="774" 
d="M378 60q-68 0 -107.5 43t-39.5 114v144q0 65 39 107.5t105 42.5q87 0 121 -67v57h32v-329l-1 -1q2 -39 22 -59.5t53 -20.5t53 21.5t22 62.5h-1v261q0 123 -79.5 198t-211.5 75t-211.5 -76t-79.5 -200v-299q0 -124 79.5 -200.5t211.5 -76.5v-32q-145 0 -234 86t-89 223
v299q0 137 89 222t234 85q146 0 235 -84.5t89 -219.5v-261q-2 -54 -31 -85t-76 -31q-76 0 -99 70q-37 -69 -125 -69zM495 212v146q0 55 -30.5 88t-85.5 33t-85 -33t-30 -88v-140q0 -59 30 -92.5t85 -33.5t85.5 32.5t30.5 87.5z" />
    <glyph glyph-name="A" unicode="A" horiz-adv-x="516" 
d="M501 0h-37l-67 210h-278l-65 -210h-38l225 710h34zM257 654l-127 -409h256z" />
    <glyph glyph-name="B" unicode="B" horiz-adv-x="548" 
d="M86 710h178q89 0 142.5 -50.5t53.5 -129.5q0 -54 -25.5 -95t-71.5 -62q66 -15 104 -63.5t38 -117.5q0 -84 -54 -138t-143 -54h-222v710zM308 346h-187v-312h187q72 0 116.5 43.5t44.5 114.5q0 69 -44 111.5t-117 42.5zM263 676h-142v-296h142q74 0 118 41t44 108
q0 66 -44 106.5t-118 40.5z" />
    <glyph glyph-name="C" unicode="C" horiz-adv-x="541" 
d="M494 225v-13q0 -100 -58.5 -161.5t-156.5 -61.5q-96 0 -154 62.5t-58 163.5v280q0 103 57 164.5t155 61.5q96 0 154 -58.5t58 -154.5v-4h-35v3q0 82 -48 131t-129 49q-83 0 -130 -51.5t-47 -141.5v-278q0 -87 48 -140t129 -53q83 0 131 51t48 138v13h36z" />
    <glyph glyph-name="D" unicode="D" horiz-adv-x="570" 
d="M86 710h181q108 0 172 -59.5t64 -158.5v-273q0 -100 -64 -159.5t-172 -59.5h-181v710zM121 676v-642h146q94 0 147 50t53 136v270q0 87 -53 136.5t-147 49.5h-146z" />
    <glyph glyph-name="E" unicode="E" horiz-adv-x="491" 
d="M449 676h-328v-296h269v-34h-269v-312h328v-34h-363v710h363v-34z" />
    <glyph glyph-name="F" unicode="F" horiz-adv-x="459" 
d="M440 676h-319v-296h249v-34h-249v-346h-35v710h354v-34z" />
    <glyph glyph-name="G" unicode="G" horiz-adv-x="564" 
d="M284 23q84 0 133.5 50.5t49.5 138.5v103h-186v34h220v-349h-32v99q-51 -110 -189 -110q-96 0 -154.5 62.5t-58.5 161.5v280q0 105 58 166.5t158 61.5q95 0 152 -58.5t57 -154.5v-4h-35v3q0 82 -46.5 131t-127.5 49q-85 0 -133 -52.5t-48 -143.5v-275q0 -88 49.5 -140.5
t132.5 -52.5z" />
    <glyph glyph-name="H" unicode="H" horiz-adv-x="585" 
d="M463 710h35v-710h-35v346h-342v-346h-35v710h35v-330h342v330z" />
    <glyph glyph-name="I" unicode="I" horiz-adv-x="207" 
d="M86 710h35v-710h-35v710z" />
    <glyph glyph-name="J" unicode="J" horiz-adv-x="480" 
d="M362 710h35v-550q0 -78 -49 -124.5t-133 -46.5q-83 0 -132 46.5t-49 124.5v38h35v-37q0 -63 39.5 -100.5t106.5 -37.5q68 0 107.5 37.5t39.5 100.5v549z" />
    <glyph glyph-name="K" unicode="K" horiz-adv-x="512" 
d="M439 710h44l-239 -301l258 -409h-42l-239 382l-100 -125v-257h-35v710h35v-400z" />
    <glyph glyph-name="L" unicode="L" horiz-adv-x="439" 
d="M121 710v-676h299v-34h-334v710h35z" />
    <glyph glyph-name="M" unicode="M" horiz-adv-x="696" 
d="M342 260l-221 375v-635h-35v710h28l233 -397l235 397h28v-710h-35v635l-222 -375h-11z" />
    <glyph glyph-name="N" unicode="N" horiz-adv-x="600" 
d="M514 710v-710h-31l-362 637v-637h-35v710h32l360 -633v633h36z" />
    <glyph glyph-name="O" unicode="O" horiz-adv-x="574" 
d="M287 721q100 0 160 -62.5t60 -163.5v-280q0 -101 -60 -163.5t-160 -62.5t-160 62.5t-60 163.5v280q0 101 60 163.5t160 62.5zM287 687q-86 0 -135.5 -53t-49.5 -141v-277q0 -88 50 -140.5t135 -52.5q84 0 134 53t50 140v277q0 87 -50 140.5t-134 53.5z" />
    <glyph glyph-name="P" unicode="P" horiz-adv-x="509" 
d="M86 710h184q91 0 146 -54.5t55 -144.5q0 -92 -54.5 -146.5t-146.5 -54.5h-149v-310h-35v710zM270 676h-149v-333h149q75 0 120 46t45 122q0 75 -44.5 120t-120.5 45z" />
    <glyph glyph-name="Q" unicode="Q" horiz-adv-x="584" 
d="M507 495v-264q0 -140 -107 -197h163v-34h-276q-100 0 -160 62.5t-60 163.5v269q0 101 60 163.5t160 62.5t160 -62.5t60 -163.5zM102 493v-265q0 -88 49.5 -141t135.5 -53q84 0 134 53.5t50 140.5v266q0 87 -50 140t-134 53q-86 0 -135.5 -53t-49.5 -141z" />
    <glyph glyph-name="R" unicode="R" horiz-adv-x="531" 
d="M86 710h185q86 0 138.5 -51t52.5 -130t-52.5 -131t-138.5 -52h-23l271 -346h-43l-269 346h-86v-346h-35v710zM271 676h-150v-296h150q71 0 113 41t42 108t-42 107t-113 40z" />
    <glyph glyph-name="S" unicode="S" horiz-adv-x="529" 
d="M433 493v12q0 87 -45.5 134.5t-129.5 47.5q-70 0 -115.5 -41t-45.5 -106q0 -56 32.5 -90t105.5 -58l77 -23q86 -27 126 -71.5t40 -118.5q0 -82 -62 -136t-153 -54q-93 0 -155 59t-62 151v24h35v-24q0 -76 52 -126t130 -50t129 43.5t51 111.5q0 62 -34 99t-112 60l-75 23
q-82 24 -121.5 67t-39.5 112q0 80 55.5 131t141.5 51q98 0 154 -57t56 -159v-12h-35z" />
    <glyph glyph-name="T" unicode="T" horiz-adv-x="466" 
d="M449 710v-34h-199v-676h-35v676h-197v34h431z" />
    <glyph glyph-name="U" unicode="U" horiz-adv-x="581" 
d="M465 710h35v-505q0 -98 -57 -157t-152 -59t-152 59.5t-57 156.5v505h35v-504q0 -84 47 -133.5t127 -49.5t127 49.5t47 133.5v504z" />
    <glyph glyph-name="V" unicode="V" horiz-adv-x="515" 
d="M499 710l-225 -710h-33l-226 710h37l205 -652l204 652h38z" />
    <glyph glyph-name="W" unicode="W" horiz-adv-x="808" 
d="M787 710l-185 -710h-36l-163 636l-161 -636h-37l-186 710h37l168 -643l162 643h34l163 -643l167 643h37z" />
    <glyph glyph-name="X" unicode="X" horiz-adv-x="507" 
d="M476 710l-199 -343l212 -367h-42l-193 335l-196 -335h-41l213 365l-199 345h41l181 -315l182 315h41z" />
    <glyph glyph-name="Y" unicode="Y" horiz-adv-x="509" 
d="M500 710l-229 -336v-374h-35v375l-227 335h42l203 -301l203 301h43z" />
    <glyph glyph-name="Z" unicode="Z" horiz-adv-x="462" 
d="M425 710v-29l-351 -647h351v-34h-393v29l351 647h-342v34h384z" />
    <glyph glyph-name="bracketleft" unicode="[" horiz-adv-x="276" 
d="M127 -53h119v-32h-153v860h153v-32h-119v-796z" />
    <glyph glyph-name="backslash" unicode="\" horiz-adv-x="479" 
d="M18 775h37l400 -860h-37z" />
    <glyph glyph-name="bracketright" unicode="]" horiz-adv-x="276" 
d="M149 743h-119v32h153v-860h-153v32h119v796z" />
    <glyph glyph-name="asciicircum" unicode="^" 
d="M263 710l159 -288h-35l-137 248l-137 -248h-35l159 288h26z" />
    <glyph glyph-name="underscore" unicode="_" horiz-adv-x="307" 
d="M0 -136h307v-33h-307v33z" />
    <glyph glyph-name="grave" unicode="`" horiz-adv-x="600" 
d="M198 729h41l75 -129h-37z" />
    <glyph glyph-name="a" unicode="a" horiz-adv-x="466" 
d="M226 533q79 0 124 -47.5t45 -124.5v-361h-32v63q-45 -74 -146 -74q-80 0 -125.5 44t-45.5 112t46 111.5t127 43.5q97 0 142 -68v127q0 64 -35 102.5t-100 38.5q-62 0 -95.5 -37t-33.5 -102v-10h-34v12q0 78 43.5 124t119.5 46zM222 20q66 0 103 35t37 90t-37 90t-103 35
q-67 0 -104 -35t-37 -90t37 -90t104 -35z" />
    <glyph glyph-name="b" unicode="b" horiz-adv-x="477" 
d="M75 0v729h34v-271q40 76 142 76q77 0 121.5 -49.5t44.5 -131.5v-183q0 -81 -45 -131t-121 -50q-102 0 -143 78v-67h-33zM246 23q65 0 101 39.5t36 109.5v179q0 70 -36 110t-101 40t-101 -39t-36 -103v-194q0 -64 36 -103t101 -39z" />
    <glyph glyph-name="c" unicode="c" horiz-adv-x="450" 
d="M364 360v9q0 61 -35 96.5t-100 35.5t-100.5 -40t-35.5 -110v-179q0 -68 35.5 -108.5t100.5 -40.5t101 36t36 96v10h34v-11q0 -74 -46 -119.5t-125 -45.5t-124.5 50.5t-45.5 130.5v183q0 83 45 132t125 49q78 0 123.5 -45t45.5 -118v-11h-34z" />
    <glyph glyph-name="d" unicode="d" horiz-adv-x="477" 
d="M226 534q98 0 142 -74v269h34v-729h-33v69q-39 -80 -143 -80q-77 0 -121.5 49.5t-44.5 131.5v183q0 82 44.5 131.5t121.5 49.5zM368 165v194q0 64 -36 103t-101 39t-101 -40t-36 -110v-179q0 -70 36 -109.5t101 -39.5t101 39t36 103z" />
    <glyph glyph-name="e" unicode="e" horiz-adv-x="464" 
d="M234 534q81 0 127 -49.5t46 -131.5v-93h-314v-88q0 -68 37 -108.5t105 -40.5t104.5 35.5t36.5 96.5v11h34v-12q0 -73 -47.5 -119t-127.5 -46q-82 0 -129 50.5t-47 130.5v183q0 83 46.5 132t128.5 49zM93 351v-58h280v58q0 70 -36 110t-103 40q-68 0 -104.5 -40
t-36.5 -110z" />
    <glyph glyph-name="f" unicode="f" horiz-adv-x="278" 
d="M258 524v-33h-115v-491h-34v491h-86v33h86v100q0 48 28.5 77t76.5 29h44v-32h-40q-36 0 -55.5 -20t-19.5 -58v-96h115z" />
    <glyph glyph-name="g" unicode="g" horiz-adv-x="476" 
d="M225 534q104 0 144 -79v69h32v-530q0 -76 -45 -124.5t-122 -48.5t-121.5 38t-44.5 102v10h34v-8q0 -51 34.5 -80t97.5 -29q64 0 98.5 38.5t34.5 103.5v87q-44 -73 -142 -73q-76 0 -121 48.5t-45 124.5v170q0 83 44.5 132t121.5 49zM367 185v174q0 64 -36 103t-101 39
t-101 -40t-36 -110v-166q0 -64 36 -103t101 -39t101 39t36 103z" />
    <glyph glyph-name="h" unicode="h" horiz-adv-x="477" 
d="M109 729v-271q40 76 137 76q75 0 117.5 -45.5t42.5 -126.5v-362h-34v356q0 69 -34 107t-98 38q-60 0 -94.5 -36.5t-36.5 -102.5v-362h-34v729h34z" />
    <glyph glyph-name="i" unicode="i" horiz-adv-x="184" 
d="M109 524v-524h-34v524h34zM119 715v-57h-54v57h54z" />
    <glyph glyph-name="j" unicode="j" horiz-adv-x="184" 
d="M80 -61v585h34v-588q0 -45 -24.5 -72.5t-66.5 -27.5h-30v31h25q29 0 45.5 19t16.5 53zM123 715v-57h-54v57h54z" />
    <glyph glyph-name="k" unicode="k" horiz-adv-x="421" 
d="M369 0l-191 278l-69 -80v-198h-34v729h34v-481l241 276h42l-190 -221l208 -303h-41z" />
    <glyph glyph-name="l" unicode="l" horiz-adv-x="184" 
d="M75 729h34v-729h-34v729z" />
    <glyph glyph-name="m" unicode="m" horiz-adv-x="736" 
d="M353 0v366q0 66 -31 100.5t-91 34.5q-57 0 -88.5 -34t-33.5 -97v-370h-34v524h33v-65q37 75 130 75q102 0 135 -86q36 86 138 86q72 0 113 -44t41 -120v-370h-34v366q0 66 -31 100.5t-91 34.5q-57 0 -89.5 -35.5t-32.5 -101.5v-364h-34z" />
    <glyph glyph-name="n" unicode="n" horiz-adv-x="477" 
d="M372 0v356q0 69 -34 107t-97 38q-62 0 -96 -36.5t-36 -102.5v-362h-34v524h33v-71q38 81 138 81q75 0 117.5 -46.5t42.5 -126.5v-361h-34z" />
    <glyph glyph-name="o" unicode="o" horiz-adv-x="468" 
d="M234 534q80 0 127 -49.5t47 -131.5v-183q0 -82 -47 -131.5t-127 -49.5q-81 0 -128 49.5t-47 131.5v183q0 82 47 131.5t128 49.5zM374 172v179q0 70 -36.5 110t-103.5 40q-68 0 -104.5 -40t-36.5 -110v-179q0 -69 36.5 -109t104.5 -40q67 0 103.5 40t36.5 109z" />
    <glyph glyph-name="p" unicode="p" horiz-adv-x="477" 
d="M75 -164v688h33v-70q39 80 143 80q77 0 121.5 -49.5t44.5 -131.5v-183q0 -81 -45 -131t-121 -50q-103 0 -142 74v-227h-34zM246 23q65 0 101 39.5t36 109.5v179q0 70 -36 110t-101 40t-101 -39t-36 -103v-194q0 -64 36 -103t101 -39z" />
    <glyph glyph-name="q" unicode="q" horiz-adv-x="477" 
d="M368 -164v229q-40 -76 -142 -76q-77 0 -121.5 49.5t-44.5 131.5v183q0 82 44.5 131.5t121.5 49.5q102 0 143 -78v68h33v-688h-34zM231 23q65 0 101 39t36 103v194q0 64 -36 103t-101 39t-101 -40t-36 -110v-179q0 -70 36 -109.5t101 -39.5z" />
    <glyph glyph-name="r" unicode="r" horiz-adv-x="291" 
d="M270 499h-25q-61 0 -97.5 -41.5t-38.5 -115.5v-342h-34v524h33v-81q40 91 141 91h21v-35z" />
    <glyph glyph-name="s" unicode="s" horiz-adv-x="432" 
d="M343 359v10q0 63 -34 97.5t-97 34.5q-56 0 -88.5 -30.5t-32.5 -72.5q0 -79 101 -108l52 -15q70 -20 105.5 -51.5t35.5 -90.5q0 -61 -47 -102.5t-121 -41.5t-122.5 46t-48.5 111v20h34v-14q0 -60 39 -94.5t98 -34.5q57 0 95.5 30.5t38.5 77.5q0 46 -28 70t-89 42l-52 15
q-125 36 -125 138q0 58 42.5 98t112.5 40q76 0 120.5 -43t44.5 -123v-9h-34z" />
    <glyph glyph-name="t" unicode="t" horiz-adv-x="291" 
d="M257 491h-114v-379q0 -38 20.5 -58.5t56.5 -20.5h36v-33h-41q-48 0 -77 29.5t-29 77.5v384h-87v33h87v167h34v-167h114v-33z" />
    <glyph glyph-name="u" unicode="u" horiz-adv-x="477" 
d="M104 524v-357q0 -69 34 -106.5t98 -37.5q63 0 97.5 37.5t34.5 106.5v357h34v-524h-33v72q-38 -83 -139 -83q-75 0 -117.5 46.5t-42.5 126.5v362h34z" />
    <glyph glyph-name="v" unicode="v" horiz-adv-x="440" 
d="M24 524h36l160 -472l161 472h36l-180 -524h-34z" />
    <glyph glyph-name="w" unicode="w" horiz-adv-x="673" 
d="M610 524h36l-144 -524h-32l-134 456l-134 -456h-32l-143 524h36l124 -466l135 466h29l134 -466z" />
    <glyph glyph-name="x" unicode="x" horiz-adv-x="427" 
d="M396 524l-162 -256l167 -268h-39l-149 238l-149 -238h-39l167 266l-163 258h40l144 -230l143 230h40z" />
    <glyph glyph-name="y" unicode="y" horiz-adv-x="423" 
d="M411 524l-315 -691h-35l144 317l-176 374h37l156 -335l152 335h37z" />
    <glyph glyph-name="z" unicode="z" horiz-adv-x="390" 
d="M78 32h273v-32h-314v28l273 464h-267v32h308v-29z" />
    <glyph glyph-name="braceleft" unicode="{" horiz-adv-x="269" 
d="M235 -85h-28q-44 0 -69 27t-25 70v241q0 36 -19 56t-52 20h-13v32h13q33 0 52 20t19 56v241q0 43 25 70t69 27h28v-32h-23q-31 0 -48 -17.5t-17 -50.5v-242q0 -64 -52 -88q52 -24 52 -88v-241q0 -33 17 -50.5t48 -17.5h23v-33z" />
    <glyph glyph-name="bar" unicode="|" horiz-adv-x="220" 
d="M93 775h34v-860h-34v860z" />
    <glyph glyph-name="braceright" unicode="}" horiz-adv-x="269" 
d="M34 775h28q44 0 69 -27t25 -70v-241q0 -36 19 -56t52 -20h13v-32h-13q-33 0 -52 -20t-19 -56v-241q0 -43 -25 -70t-69 -27h-28v32h23q31 0 48 17.5t17 50.5v242q0 63 51 88q-51 24 -51 88v241q0 33 -17 50.5t-48 17.5h-23v33z" />
    <glyph glyph-name="asciitilde" unicode="~" 
d="M381 372h30v-5q0 -45 -21 -72t-54 -27q-34 0 -93 42q-55 36 -75 36t-33 -21t-13 -53h-30v5q0 45 21 72t54 27t94 -42q49 -36 74 -36q20 0 33 21t13 53z" />
    <glyph glyph-name="uni00A0" unicode="&#xa0;" horiz-adv-x="240" 
 />
    <glyph glyph-name="exclamdown" unicode="&#xa1;" horiz-adv-x="202" 
d="M121 -186h-41l7 504h27zM131 524v-60h-59v60h59z" />
    <glyph glyph-name="cent" unicode="&#xa2;" 
d="M397 420v11q0 57 -33.5 93t-93.5 41v-421q62 5 95.5 40t33.5 92v10h34v-11q0 -70 -43.5 -114.5t-119.5 -50.5v-110h-31v110q-76 4 -119.5 52t-43.5 121v136q0 79 43 127t120 53v111h31v-111q74 -4 117.5 -50t43.5 -116v-13h-34zM110 417v-132q0 -61 33.5 -98.5
t95.5 -42.5v421q-62 -4 -95.5 -43t-33.5 -105z" />
    <glyph glyph-name="sterling" unicode="&#xa3;" 
d="M437 0h-374v34h66v271h-66v30h66v228q0 71 40 114.5t106 43.5t106.5 -44t40.5 -114v-59h-36v59q0 57 -30 90.5t-81 33.5t-81 -33.5t-30 -90.5v-228h155v-30h-155v-271h273v-34z" />
    <glyph glyph-name="currency" unicode="&#xa4;" 
d="M441 151l-22 -22l-74 74q-40 -34 -95 -34q-51 0 -95 34l-75 -74l-21 22l74 74q-34 44 -34 95t34 95l-74 74l22 22l73 -74q44 34 96 34q51 0 95 -34l74 74l22 -22l-74 -74q34 -44 34 -95t-34 -95zM250 199q50 0 85.5 35t35.5 86t-35.5 86t-85.5 35t-85 -35t-35 -86t35 -86
t85 -35z" />
    <glyph glyph-name="yen" unicode="&#xa5;" 
d="M394 167h-127v-167h-35v167h-126v30h126v112h-126v30h126v65l-195 306h41l172 -271l171 271h43l-197 -308v-63h127v-30h-127v-112h127v-30z" />
    <glyph glyph-name="brokenbar" unicode="&#xa6;" horiz-adv-x="218" 
d="M126 775v-338h-34v338h34zM92 -85v338h34v-338h-34z" />
    <glyph glyph-name="section" unicode="&#xa7;" horiz-adv-x="470" 
d="M59 347q0 79 74 122q-58 37 -58 109q0 63 44 103t114 40q78 0 122 -45t44 -125v-10h-33v9q0 66 -35 102.5t-98 36.5q-55 0 -89.5 -30t-34.5 -80q0 -47 32 -73.5t106 -47.5q86 -22 126 -59t40 -101q0 -76 -66 -121q58 -42 58 -119q0 -67 -50 -110.5t-122 -43.5
q-75 0 -125.5 46.5t-50.5 120.5v20h34v-20q0 -59 40 -97t102 -38q59 0 99 34.5t40 86.5q0 55 -35.5 85t-116.5 52q-82 21 -121.5 56.5t-39.5 96.5zM241 222q43 -12 75 -27q63 34 63 101q0 53 -35.5 82t-117.5 52q-40 12 -59 20q-74 -27 -74 -102q0 -49 34.5 -77t113.5 -49z
" />
    <glyph glyph-name="dieresis" unicode="&#xa8;" 
d="M125 689v-55h-55v55h55zM305 689v-55h-55v55h55z" />
    <glyph glyph-name="copyright" unicode="&#xa9;" horiz-adv-x="637" 
d="M420 301v-6q0 -47 -27.5 -76t-74.5 -29t-74 29t-27 77v122q0 48 27 77t74 29t74 -28.5t27 -74.5v-2h-30v2q0 33 -19 53.5t-52 20.5t-52 -21t-19 -57v-121q0 -35 19 -56t52 -21t52.5 21t19.5 55v6h30zM318 87q-112 0 -187 77t-75 191t75 191t187 77t187 -77t75 -191
t-75 -191t-187 -77zM319 115q100 0 166 68t66 172t-66 172t-166 68q-101 0 -167 -68t-66 -172t66 -172t167 -68z" />
    <glyph glyph-name="ordfeminine" unicode="&#xaa;" horiz-adv-x="307" 
d="M149 724q41 0 65.5 -24t24.5 -63v-174h-25v28q-26 -34 -72 -34q-41 0 -64.5 22t-23.5 56q0 33 24 55t66 22t67 -28v53q0 27 -16.5 43t-45.5 16q-27 0 -42.5 -15.5t-15.5 -42.5v-5h-29v5q0 38 24 62t63 24zM147 482q30 0 47 14.5t17 38.5t-17 38.5t-47 14.5
q-31 0 -48 -14.5t-17 -38.5t17 -38.5t48 -14.5z" />
    <glyph glyph-name="guillemotleft" unicode="&#xab;" horiz-adv-x="453" 
d="M352 500l23 -20l-141 -160l141 -160l-23 -20l-159 180zM175 500l23 -20l-141 -160l141 -160l-23 -20l-159 180z" />
    <glyph glyph-name="logicalnot" unicode="&#xac;" 
d="M407 335v-154h-31v124h-276v30h307z" />
    <glyph glyph-name="uni00AD" unicode="&#xad;" horiz-adv-x="327" 
d="M60 337h207v-34h-207v34z" />
    <glyph glyph-name="registered" unicode="&#xae;" horiz-adv-x="432" 
d="M215 387q-70 0 -117 47.5t-47 119.5q0 71 47 119.5t117 48.5t117 -48.5t47 -119.5q0 -72 -47 -119.5t-117 -47.5zM216 412q59 0 98 40t39 102t-39 102t-98 40q-60 0 -99 -40t-39 -102t39 -102t99 -40zM161 655h56q29 0 44.5 -16t15.5 -39q0 -20 -12 -34.5t-34 -18.5
l60 -91h-30l-59 90h-15v-90h-26v199zM218 631h-31v-61h31q15 0 23.5 8.5t8.5 21.5q0 31 -32 31z" />
    <glyph glyph-name="macron" unicode="&#xaf;" horiz-adv-x="600" 
d="M326 665v-31h-238v31h238z" />
    <glyph glyph-name="degree" unicode="&#xb0;" horiz-adv-x="360" 
d="M180 457q-56 0 -94 38t-38 94t38 94t94 38q57 0 94.5 -38t37.5 -94t-37.5 -94t-94.5 -38zM180 487q44 0 72.5 29t28.5 73q0 45 -28.5 73.5t-72.5 28.5t-72.5 -28.5t-28.5 -73.5q0 -44 28.5 -73t72.5 -29z" />
    <glyph glyph-name="plusminus" unicode="&#xb1;" 
d="M265 510v-140h137v-30h-137v-118h-31v118h-137v30h137v140h31zM97 158h305v-30h-305v30z" />
    <glyph glyph-name="acute" unicode="&#xb4;" horiz-adv-x="600" 
d="M187 729l-79 -129h-37l76 129h40z" />
    <glyph glyph-name="paragraph" unicode="&#xb6;" horiz-adv-x="455" 
d="M154 710h208v-874h-31v844h-75v-844h-31v515h-71q-55 0 -87 30t-32 81v138q0 51 32 80.5t87 29.5z" />
    <glyph glyph-name="periodcentered" unicode="&#xb7;" horiz-adv-x="196" 
d="M115 350v-60h-59v60h59z" />
    <glyph glyph-name="cedilla" unicode="&#xb8;" horiz-adv-x="600" 
d="M240 -151h-35l44 162l33 -6z" />
    <glyph glyph-name="ordmasculine" unicode="&#xba;" horiz-adv-x="302" 
d="M150 724q44 0 69 -25t25 -65v-86q0 -41 -25 -66t-69 -25q-43 0 -68 25t-25 66v86q0 40 25 65t68 25zM215 549v84q0 28 -17 45.5t-47 17.5q-31 0 -48 -17t-17 -46v-84q0 -30 16.5 -47t48.5 -17q30 0 47 17t17 47z" />
    <glyph glyph-name="guillemotright" unicode="&#xbb;" horiz-adv-x="453" 
d="M102 140l-23 20l141 160l-141 160l23 20l159 -180zM278 140l-23 20l141 160l-141 160l23 20l159 -180z" />
    <glyph glyph-name="onequarter" unicode="&#xbc;" horiz-adv-x="510" 
d="M445 710h34l-411 -710h-34zM493 106v-29h-46v-77h-29v77h-131v24l111 221h34l-110 -216h96v77h29v-77h46zM165 415v-28h-139v28h56v267h-61v28h91v-295h53z" />
    <glyph glyph-name="onehalf" unicode="&#xbd;" horiz-adv-x="529" 
d="M447 710h34l-411 -710h-34zM504 28v-28h-172v25l124 171q14 17 14 44t-16 43.5t-42 16.5t-42.5 -16.5t-16.5 -43.5v-11h-29v11q0 38 25 63t63 25t63 -25t25 -63q0 -31 -19 -59l-112 -153h135zM165 415v-28h-139v28h56v267h-61v28h91v-295h53z" />
    <glyph glyph-name="threequarters" unicode="&#xbe;" horiz-adv-x="528" 
d="M463 710h34l-411 -710h-34zM511 106v-29h-46v-77h-29v77h-131v24l111 221h34l-110 -216h96v77h29v-77h46zM198 684l-88 -108h8q39 0 63 -24.5t24 -63.5v-18q0 -39 -25 -64t-66 -25t-66 25t-25 64v7h29v-7q0 -28 17 -44t45 -16q27 0 44 16.5t17 43.5v18q0 27 -16.5 43.5
t-45.5 16.5h-41v22l89 110h-130v29h167v-25z" />
    <glyph glyph-name="questiondown" unicode="&#xbf;" horiz-adv-x="403" 
d="M235 172h-25q-62 0 -96 -35.5t-34 -95.5v-66q0 -65 33.5 -102t94.5 -37t94.5 35t33.5 91v20h34v-22q0 -70 -43.5 -113.5t-118.5 -43.5t-118.5 46t-43.5 124v70q0 70 41.5 114t113.5 48v113h34v-146zM189 464v60h59v-60h-59z" />
    <glyph glyph-name="Agrave" unicode="&#xc0;" horiz-adv-x="516" 
d="M501 0h-37l-67 210h-278l-65 -210h-38l225 710h34zM257 654l-127 -409h256zM164 915h41l75 -129h-37z" />
    <glyph glyph-name="Aacute" unicode="&#xc1;" horiz-adv-x="516" 
d="M501 0h-37l-67 210h-278l-65 -210h-38l225 710h34zM257 654l-127 -409h256zM344 915l-79 -129h-37l76 129h40z" />
    <glyph glyph-name="Acircumflex" unicode="&#xc2;" horiz-adv-x="516" 
d="M501 0h-37l-67 210h-278l-65 -210h-38l225 710h34zM257 654l-127 -409h256zM126 786l117 120h30l117 -120h-42l-90 92l-90 -92h-42z" />
    <glyph glyph-name="Atilde" unicode="&#xc3;" horiz-adv-x="516" 
d="M501 0h-37l-67 210h-278l-65 -210h-38l225 710h34zM257 654l-127 -409h256zM362 887h30q0 -37 -18.5 -62t-47.5 -25q-27 0 -74 33q-7 4 -18 11.5t-17 10.5t-13.5 6t-14.5 3q-17 0 -27 -16t-10 -42h-30q0 38 18.5 62.5t47.5 24.5q24 0 74 -33q44 -30 63 -30
q16 0 26.5 15.5t10.5 41.5z" />
    <glyph glyph-name="Adieresis" unicode="&#xc4;" horiz-adv-x="516" 
d="M501 0h-37l-67 210h-278l-65 -210h-38l225 710h34zM257 654l-127 -409h256zM194 875v-55h-55v55h55zM374 875v-55h-55v55h55z" />
    <glyph glyph-name="Aring" unicode="&#xc5;" horiz-adv-x="516" 
d="M501 0h-37l-67 210h-278l-65 -210h-38l225 710h34zM257 654l-127 -409h256zM257 775q-44 0 -70.5 24t-26.5 64q0 38 27 62.5t70 24.5t70.5 -24.5t27.5 -62.5q0 -40 -26.5 -64t-71.5 -24zM257 802q32 0 50.5 16t18.5 45q0 26 -19 43t-50 17q-30 0 -49 -17t-19 -43
q0 -29 18 -45t50 -16z" />
    <glyph glyph-name="AE" unicode="&#xc6;" horiz-adv-x="835" 
d="M793 676h-328v-296h269v-34h-269v-312h328v-34h-363v210h-266l-123 -210h-40l419 710h373v-34zM185 245h245v416z" />
    <glyph glyph-name="Ccedilla" unicode="&#xc7;" horiz-adv-x="541" 
d="M494 225v-13q0 -100 -58.5 -161.5t-156.5 -61.5q-96 0 -154 62.5t-58 163.5v280q0 103 57 164.5t155 61.5q96 0 154 -58.5t58 -154.5v-4h-35v3q0 82 -48 131t-129 49q-83 0 -130 -51.5t-47 -141.5v-278q0 -87 48 -140t129 -53q83 0 131 51t48 138v13h36zM254 -151h-37
l44 160l34 -4z" />
    <glyph glyph-name="Egrave" unicode="&#xc8;" horiz-adv-x="491" 
d="M449 676h-328v-296h269v-34h-269v-312h328v-34h-363v710h363v-34zM171 915h41l75 -129h-37z" />
    <glyph glyph-name="Eacute" unicode="&#xc9;" horiz-adv-x="491" 
d="M449 676h-328v-296h269v-34h-269v-312h328v-34h-363v710h363v-34zM351 915l-79 -129h-37l76 129h40z" />
    <glyph glyph-name="Ecircumflex" unicode="&#xca;" horiz-adv-x="491" 
d="M449 676h-328v-296h269v-34h-269v-312h328v-34h-363v710h363v-34zM133 786l117 120h30l117 -120h-42l-90 92l-90 -92h-42z" />
    <glyph glyph-name="Edieresis" unicode="&#xcb;" horiz-adv-x="491" 
d="M449 676h-328v-296h269v-34h-269v-312h328v-34h-363v710h363v-34zM201 875v-55h-55v55h55zM381 875v-55h-55v55h55z" />
    <glyph glyph-name="Igrave" unicode="&#xcc;" horiz-adv-x="207" 
d="M86 710h35v-710h-35v710zM10 915h41l75 -129h-37z" />
    <glyph glyph-name="Iacute" unicode="&#xcd;" horiz-adv-x="207" 
d="M86 710h35v-710h-35v710zM190 915l-79 -129h-37l76 129h40z" />
    <glyph glyph-name="Icircumflex" unicode="&#xce;" horiz-adv-x="207" 
d="M86 710h35v-710h-35v710zM-28 786l117 120h30l117 -120h-42l-90 92l-90 -92h-42z" />
    <glyph glyph-name="Idieresis" unicode="&#xcf;" horiz-adv-x="207" 
d="M86 710h35v-710h-35v710zM41 875v-55h-55v55h55zM221 875v-55h-55v55h55z" />
    <glyph glyph-name="Eth" unicode="&#xd0;" horiz-adv-x="581" 
d="M96 710h181q108 0 172 -59.5t64 -158.5v-273q0 -100 -64 -159.5t-172 -59.5h-181v346h-85v35h85v329zM131 676v-295h194v-35h-194v-312h146q94 0 147 50t53 136v270q0 87 -53 136.5t-147 49.5h-146z" />
    <glyph glyph-name="Ntilde" unicode="&#xd1;" horiz-adv-x="600" 
d="M514 710v-710h-31l-362 637v-637h-35v710h32l360 -633v633h36zM405 887h30q0 -37 -18.5 -62t-47.5 -25q-27 0 -74 33q-7 4 -18 11.5t-17 10.5t-13.5 6t-14.5 3q-17 0 -27 -16t-10 -42h-30q0 38 18.5 62.5t47.5 24.5q24 0 74 -33q44 -30 63 -30q16 0 26.5 15.5t10.5 41.5z
" />
    <glyph glyph-name="Ograve" unicode="&#xd2;" horiz-adv-x="574" 
d="M287 721q100 0 160 -62.5t60 -163.5v-280q0 -101 -60 -163.5t-160 -62.5t-160 62.5t-60 163.5v280q0 101 60 163.5t160 62.5zM287 687q-86 0 -135.5 -53t-49.5 -141v-277q0 -88 50 -140.5t135 -52.5q84 0 134 53t50 140v277q0 87 -50 140.5t-134 53.5zM194 915h41
l75 -129h-37z" />
    <glyph glyph-name="Oacute" unicode="&#xd3;" horiz-adv-x="574" 
d="M287 721q100 0 160 -62.5t60 -163.5v-280q0 -101 -60 -163.5t-160 -62.5t-160 62.5t-60 163.5v280q0 101 60 163.5t160 62.5zM287 687q-86 0 -135.5 -53t-49.5 -141v-277q0 -88 50 -140.5t135 -52.5q84 0 134 53t50 140v277q0 87 -50 140.5t-134 53.5zM374 915l-79 -129
h-37l76 129h40z" />
    <glyph glyph-name="Ocircumflex" unicode="&#xd4;" horiz-adv-x="574" 
d="M287 721q100 0 160 -62.5t60 -163.5v-280q0 -101 -60 -163.5t-160 -62.5t-160 62.5t-60 163.5v280q0 101 60 163.5t160 62.5zM287 687q-86 0 -135.5 -53t-49.5 -141v-277q0 -88 50 -140.5t135 -52.5q84 0 134 53t50 140v277q0 87 -50 140.5t-134 53.5zM156 786l117 120
h30l117 -120h-42l-90 92l-90 -92h-42z" />
    <glyph glyph-name="Otilde" unicode="&#xd5;" horiz-adv-x="574" 
d="M287 721q100 0 160 -62.5t60 -163.5v-280q0 -101 -60 -163.5t-160 -62.5t-160 62.5t-60 163.5v280q0 101 60 163.5t160 62.5zM287 687q-86 0 -135.5 -53t-49.5 -141v-277q0 -88 50 -140.5t135 -52.5q84 0 134 53t50 140v277q0 87 -50 140.5t-134 53.5zM392 887h30
q0 -37 -18.5 -62t-47.5 -25q-27 0 -74 33q-7 4 -18 11.5t-17 10.5t-13.5 6t-14.5 3q-17 0 -27 -16t-10 -42h-30q0 38 18.5 62.5t47.5 24.5q24 0 74 -33q44 -30 63 -30q16 0 26.5 15.5t10.5 41.5z" />
    <glyph glyph-name="Odieresis" unicode="&#xd6;" horiz-adv-x="574" 
d="M287 721q100 0 160 -62.5t60 -163.5v-280q0 -101 -60 -163.5t-160 -62.5t-160 62.5t-60 163.5v280q0 101 60 163.5t160 62.5zM287 687q-86 0 -135.5 -53t-49.5 -141v-277q0 -88 50 -140.5t135 -52.5q84 0 134 53t50 140v277q0 87 -50 140.5t-134 53.5zM224 875v-55h-55
v55h55zM404 875v-55h-55v55h55z" />
    <glyph glyph-name="multiply" unicode="&#xd7;" 
d="M391 439l-119 -119l119 -119l-21 -22l-120 119l-119 -119l-22 22l119 119l-119 119l22 22l119 -120l120 120z" />
    <glyph glyph-name="Oslash" unicode="&#xd8;" horiz-adv-x="574" 
d="M287 721q102 0 164 -68l35 58h38l-52 -86q35 -55 35 -130v-280q0 -101 -60 -163.5t-160 -62.5q-104 0 -165 67l-35 -57h-38l52 86q-34 53 -34 130v280q0 101 60 163.5t160 62.5zM472 216v277q0 57 -22 100l-307 -507q50 -63 145 -63q84 0 134 53t50 140zM288 687
q-86 0 -135.5 -53t-49.5 -141v-277q0 -57 21 -99l307 507q-50 63 -143 63z" />
    <glyph glyph-name="Ugrave" unicode="&#xd9;" horiz-adv-x="581" 
d="M465 710h35v-505q0 -98 -57 -157t-152 -59t-152 59.5t-57 156.5v505h35v-504q0 -84 47 -133.5t127 -49.5t127 49.5t47 133.5v504zM195 915h41l75 -129h-37z" />
    <glyph glyph-name="Uacute" unicode="&#xda;" horiz-adv-x="581" 
d="M465 710h35v-505q0 -98 -57 -157t-152 -59t-152 59.5t-57 156.5v505h35v-504q0 -84 47 -133.5t127 -49.5t127 49.5t47 133.5v504zM375 915l-79 -129h-37l76 129h40z" />
    <glyph glyph-name="Ucircumflex" unicode="&#xdb;" horiz-adv-x="581" 
d="M465 710h35v-505q0 -98 -57 -157t-152 -59t-152 59.5t-57 156.5v505h35v-504q0 -84 47 -133.5t127 -49.5t127 49.5t47 133.5v504zM157 786l117 120h30l117 -120h-42l-90 92l-90 -92h-42z" />
    <glyph glyph-name="Udieresis" unicode="&#xdc;" horiz-adv-x="581" 
d="M465 710h35v-505q0 -98 -57 -157t-152 -59t-152 59.5t-57 156.5v505h35v-504q0 -84 47 -133.5t127 -49.5t127 49.5t47 133.5v504zM225 875v-55h-55v55h55zM405 875v-55h-55v55h55z" />
    <glyph glyph-name="Yacute" unicode="&#xdd;" horiz-adv-x="509" 
d="M500 710l-229 -336v-374h-35v375l-227 335h42l203 -301l203 301h43zM340 915l-79 -129h-37l76 129h40z" />
    <glyph glyph-name="Thorn" unicode="&#xde;" horiz-adv-x="509" 
d="M86 710h35v-147h149q91 0 146 -54.5t55 -144.5q0 -91 -55 -145.5t-146 -54.5h-149v-164h-35v710zM270 529h-149v-333h149q75 0 120 46t45 122q0 75 -44.5 120t-120.5 45z" />
    <glyph glyph-name="germandbls" unicode="&#xdf;" horiz-adv-x="483" 
d="M226 416h1v3h19q50 0 77 33.5t27 91.5v37q0 58 -31.5 92t-89.5 34q-57 0 -88.5 -34t-31.5 -92v-581h-34v583q0 71 41.5 114t112.5 43q72 0 113.5 -43t41.5 -114v-41q0 -99 -70 -136q56 -17 86 -61t30 -107v-57q0 -82 -49.5 -131.5t-135.5 -49.5h-34v33h34q72 0 111.5 40
t39.5 110v53q0 69 -39.5 109.5t-111.5 40.5h-19v30z" />
    <glyph glyph-name="agrave" unicode="&#xe0;" horiz-adv-x="466" 
d="M226 533q79 0 124 -47.5t45 -124.5v-361h-32v63q-45 -74 -146 -74q-80 0 -125.5 44t-45.5 112t46 111.5t127 43.5q97 0 142 -68v127q0 64 -35 102.5t-100 38.5q-62 0 -95.5 -37t-33.5 -102v-10h-34v12q0 78 43.5 124t119.5 46zM222 20q66 0 103 35t37 90t-37 90t-103 35
q-67 0 -104 -35t-37 -90t37 -90t104 -35zM139 729h41l75 -129h-37z" />
    <glyph glyph-name="aacute" unicode="&#xe1;" horiz-adv-x="466" 
d="M226 533q79 0 124 -47.5t45 -124.5v-361h-32v63q-45 -74 -146 -74q-80 0 -125.5 44t-45.5 112t46 111.5t127 43.5q97 0 142 -68v127q0 64 -35 102.5t-100 38.5q-62 0 -95.5 -37t-33.5 -102v-10h-34v12q0 78 43.5 124t119.5 46zM222 20q66 0 103 35t37 90t-37 90t-103 35
q-67 0 -104 -35t-37 -90t37 -90t104 -35zM319 729l-79 -129h-37l76 129h40z" />
    <glyph glyph-name="acircumflex" unicode="&#xe2;" horiz-adv-x="466" 
d="M226 533q79 0 124 -47.5t45 -124.5v-361h-32v63q-45 -74 -146 -74q-80 0 -125.5 44t-45.5 112t46 111.5t127 43.5q97 0 142 -68v127q0 64 -35 102.5t-100 38.5q-62 0 -95.5 -37t-33.5 -102v-10h-34v12q0 78 43.5 124t119.5 46zM222 20q66 0 103 35t37 90t-37 90t-103 35
q-67 0 -104 -35t-37 -90t37 -90t104 -35zM101 600l117 120h30l117 -120h-42l-90 92l-90 -92h-42z" />
    <glyph glyph-name="atilde" unicode="&#xe3;" horiz-adv-x="466" 
d="M226 533q79 0 124 -47.5t45 -124.5v-361h-32v63q-45 -74 -146 -74q-80 0 -125.5 44t-45.5 112t46 111.5t127 43.5q97 0 142 -68v127q0 64 -35 102.5t-100 38.5q-62 0 -95.5 -37t-33.5 -102v-10h-34v12q0 78 43.5 124t119.5 46zM222 20q66 0 103 35t37 90t-37 90t-103 35
q-67 0 -104 -35t-37 -90t37 -90t104 -35zM337 701h30q0 -37 -18.5 -62t-47.5 -25q-27 0 -74 33q-7 4 -18 11.5t-17 10.5t-13.5 6t-14.5 3q-17 0 -27 -16t-10 -42h-30q0 38 18.5 62.5t47.5 24.5q25 0 74 -33q44 -30 63 -30q16 0 26.5 15.5t10.5 41.5z" />
    <glyph glyph-name="adieresis" unicode="&#xe4;" horiz-adv-x="466" 
d="M226 533q79 0 124 -47.5t45 -124.5v-361h-32v63q-45 -74 -146 -74q-80 0 -125.5 44t-45.5 112t46 111.5t127 43.5q97 0 142 -68v127q0 64 -35 102.5t-100 38.5q-62 0 -95.5 -37t-33.5 -102v-10h-34v12q0 78 43.5 124t119.5 46zM222 20q66 0 103 35t37 90t-37 90t-103 35
q-67 0 -104 -35t-37 -90t37 -90t104 -35zM169 689v-55h-55v55h55zM349 689v-55h-55v55h55z" />
    <glyph glyph-name="aring" unicode="&#xe5;" horiz-adv-x="466" 
d="M226 533q79 0 124 -47.5t45 -124.5v-361h-32v63q-45 -74 -146 -74q-80 0 -125.5 44t-45.5 112t46 111.5t127 43.5q97 0 142 -68v127q0 64 -35 102.5t-100 38.5q-62 0 -95.5 -37t-33.5 -102v-10h-34v12q0 78 43.5 124t119.5 46zM222 20q66 0 103 35t37 90t-37 90t-103 35
q-67 0 -104 -35t-37 -90t37 -90t104 -35zM232 589q-44 0 -70.5 24t-26.5 64q0 38 27 62.5t70 24.5t70.5 -24.5t27.5 -62.5q0 -40 -26.5 -64t-71.5 -24zM232 616q32 0 50.5 16t18.5 45q0 26 -19 43t-50 17q-30 0 -49 -17t-19 -43q0 -29 18 -45t50 -16z" />
    <glyph glyph-name="ae" unicode="&#xe6;" horiz-adv-x="772" 
d="M228 533q56 0 96.5 -25t59.5 -70q40 96 157 96q81 0 127.5 -48t46.5 -125v-101h-314v-95q0 -65 36.5 -103.5t104.5 -38.5t104.5 35.5t36.5 96.5v11h34v-12q0 -74 -46.5 -119.5t-128.5 -45.5q-113 0 -157 91q-43 -91 -162 -91q-82 0 -129.5 44t-47.5 112t46.5 111.5
t128.5 43.5q99 0 146 -69v128q0 64 -36.5 102.5t-102.5 38.5q-62 0 -96.5 -37t-34.5 -102v-10h-34v12q0 78 44 124t121 46zM225 20q67 0 105 35t38 90t-38 90t-105 35q-68 0 -106 -35t-38 -90t38 -90t106 -35zM401 351v-58h280v66q0 65 -36.5 103.5t-103.5 38.5t-103.5 -40
t-36.5 -110z" />
    <glyph glyph-name="ccedilla" unicode="&#xe7;" horiz-adv-x="450" 
d="M364 360v9q0 61 -35 96.5t-100 35.5t-100.5 -40t-35.5 -110v-179q0 -68 35.5 -108.5t100.5 -40.5t101 36t36 96v10h34v-11q0 -74 -46 -119.5t-125 -45.5t-124.5 50.5t-45.5 130.5v183q0 83 45 132t125 49q78 0 123.5 -45t45.5 -118v-11h-34zM219 -151h-35l44 162l33 -6z
" />
    <glyph glyph-name="egrave" unicode="&#xe8;" horiz-adv-x="464" 
d="M234 534q81 0 127 -49.5t46 -131.5v-93h-314v-88q0 -68 37 -108.5t105 -40.5t104.5 35.5t36.5 96.5v11h34v-12q0 -73 -47.5 -119t-127.5 -46q-82 0 -129 50.5t-47 130.5v183q0 83 46.5 132t128.5 49zM93 351v-58h280v58q0 70 -36 110t-103 40q-68 0 -104.5 -40
t-36.5 -110zM141 729h41l75 -129h-37z" />
    <glyph glyph-name="eacute" unicode="&#xe9;" horiz-adv-x="464" 
d="M234 534q81 0 127 -49.5t46 -131.5v-93h-314v-88q0 -68 37 -108.5t105 -40.5t104.5 35.5t36.5 96.5v11h34v-12q0 -73 -47.5 -119t-127.5 -46q-82 0 -129 50.5t-47 130.5v183q0 83 46.5 132t128.5 49zM93 351v-58h280v58q0 70 -36 110t-103 40q-68 0 -104.5 -40
t-36.5 -110zM321 729l-79 -129h-37l76 129h40z" />
    <glyph glyph-name="ecircumflex" unicode="&#xea;" horiz-adv-x="464" 
d="M234 534q81 0 127 -49.5t46 -131.5v-93h-314v-88q0 -68 37 -108.5t105 -40.5t104.5 35.5t36.5 96.5v11h34v-12q0 -73 -47.5 -119t-127.5 -46q-82 0 -129 50.5t-47 130.5v183q0 83 46.5 132t128.5 49zM93 351v-58h280v58q0 70 -36 110t-103 40q-68 0 -104.5 -40
t-36.5 -110zM103 600l117 120h30l117 -120h-42l-90 92l-90 -92h-42z" />
    <glyph glyph-name="edieresis" unicode="&#xeb;" horiz-adv-x="464" 
d="M234 534q81 0 127 -49.5t46 -131.5v-93h-314v-88q0 -68 37 -108.5t105 -40.5t104.5 35.5t36.5 96.5v11h34v-12q0 -73 -47.5 -119t-127.5 -46q-82 0 -129 50.5t-47 130.5v183q0 83 46.5 132t128.5 49zM93 351v-58h280v58q0 70 -36 110t-103 40q-68 0 -104.5 -40
t-36.5 -110zM171 689v-55h-55v55h55zM351 689v-55h-55v55h55z" />
    <glyph glyph-name="igrave" unicode="&#xec;" horiz-adv-x="184" 
d="M109 524v-524h-34v524h34zM-1 729h41l75 -129h-37z" />
    <glyph glyph-name="iacute" unicode="&#xed;" horiz-adv-x="184" 
d="M109 524v-524h-34v524h34zM180 729l-79 -129h-37l76 129h40z" />
    <glyph glyph-name="icircumflex" unicode="&#xee;" horiz-adv-x="184" 
d="M109 524v-524h-34v524h34zM-39 600l117 120h30l117 -120h-42l-90 92l-90 -92h-42z" />
    <glyph glyph-name="idieresis" unicode="&#xef;" horiz-adv-x="184" 
d="M109 524v-524h-34v524h34zM30 689v-55h-55v55h55zM210 689v-55h-55v55h55z" />
    <glyph glyph-name="eth" unicode="&#xf0;" horiz-adv-x="469" 
d="M95 729l101 -93h126v-32h-91l121 -110q57 -51 57 -141v-183q0 -82 -47 -131.5t-128 -49.5q-80 0 -127 49.5t-47 131.5v183q0 81 47 130.5t127 49.5q9 0 31 -2l-76 69h-121v32h86l-106 97h47zM374 172v179q0 70 -36.5 110t-103.5 40q-68 0 -104.5 -40t-36.5 -110v-179
q0 -69 36.5 -109t104.5 -40q67 0 103.5 40t36.5 109z" />
    <glyph glyph-name="ntilde" unicode="&#xf1;" horiz-adv-x="477" 
d="M372 0v356q0 69 -34 107t-97 38q-62 0 -96 -36.5t-36 -102.5v-362h-34v524h33v-71q38 81 138 81q75 0 117.5 -46.5t42.5 -126.5v-361h-34zM342 701h30q0 -37 -18.5 -62t-47.5 -25q-27 0 -74 33q-7 4 -18 11.5t-17 10.5t-13.5 6t-14.5 3q-17 0 -27 -16t-10 -42h-30
q0 38 18.5 62.5t47.5 24.5q24 0 74 -33q44 -30 63 -30q16 0 26.5 15.5t10.5 41.5z" />
    <glyph glyph-name="ograve" unicode="&#xf2;" horiz-adv-x="468" 
d="M234 534q80 0 127 -49.5t47 -131.5v-183q0 -82 -47 -131.5t-127 -49.5q-81 0 -128 49.5t-47 131.5v183q0 82 47 131.5t128 49.5zM374 172v179q0 70 -36.5 110t-103.5 40q-68 0 -104.5 -40t-36.5 -110v-179q0 -69 36.5 -109t104.5 -40q67 0 103.5 40t36.5 109zM147 729
l79 -129h37l-76 129h-40z" />
    <glyph glyph-name="oacute" unicode="&#xf3;" horiz-adv-x="468" 
d="M234 534q80 0 127 -49.5t47 -131.5v-183q0 -82 -47 -131.5t-127 -49.5q-81 0 -128 49.5t-47 131.5v183q0 82 47 131.5t128 49.5zM374 172v179q0 70 -36.5 110t-103.5 40q-68 0 -104.5 -40t-36.5 -110v-179q0 -69 36.5 -109t104.5 -40q67 0 103.5 40t36.5 109zM321 729
l-79 -129h-37l76 129h40z" />
    <glyph glyph-name="ocircumflex" unicode="&#xf4;" horiz-adv-x="468" 
d="M234 534q80 0 127 -49.5t47 -131.5v-183q0 -82 -47 -131.5t-127 -49.5q-81 0 -128 49.5t-47 131.5v183q0 82 47 131.5t128 49.5zM374 172v179q0 70 -36.5 110t-103.5 40q-68 0 -104.5 -40t-36.5 -110v-179q0 -69 36.5 -109t104.5 -40q67 0 103.5 40t36.5 109zM103 600
l117 120h30l117 -120h-42l-90 92l-90 -92h-42z" />
    <glyph glyph-name="otilde" unicode="&#xf5;" horiz-adv-x="468" 
d="M234 534q80 0 127 -49.5t47 -131.5v-183q0 -82 -47 -131.5t-127 -49.5q-81 0 -128 49.5t-47 131.5v183q0 82 47 131.5t128 49.5zM374 172v179q0 70 -36.5 110t-103.5 40q-68 0 -104.5 -40t-36.5 -110v-179q0 -69 36.5 -109t104.5 -40q67 0 103.5 40t36.5 109zM339 701h30
q0 -37 -18.5 -62t-47.5 -25q-27 0 -74 33q-7 4 -18 11.5t-17 10.5t-13.5 6t-14.5 3q-17 0 -27 -16t-10 -42h-30q0 38 18.5 62.5t47.5 24.5q24 0 74 -33q44 -30 63 -30q16 0 26.5 15.5t10.5 41.5z" />
    <glyph glyph-name="odieresis" unicode="&#xf6;" horiz-adv-x="468" 
d="M234 534q80 0 127 -49.5t47 -131.5v-183q0 -82 -47 -131.5t-127 -49.5q-81 0 -128 49.5t-47 131.5v183q0 82 47 131.5t128 49.5zM374 172v179q0 70 -36.5 110t-103.5 40q-68 0 -104.5 -40t-36.5 -110v-179q0 -69 36.5 -109t104.5 -40q67 0 103.5 40t36.5 109zM171 689
v-55h-55v55h55zM351 689v-55h-55v55h55z" />
    <glyph glyph-name="divide" unicode="&#xf7;" 
d="M97 335h305v-30h-305v30zM276 486v-57h-54v57h54zM276 216v-57h-54v57h54z" />
    <glyph glyph-name="oslash" unicode="&#xf8;" horiz-adv-x="469" 
d="M235 534q75 0 122 -44l21 35h37l-37 -61q31 -46 31 -111v-183q0 -82 -47 -131.5t-127 -49.5q-77 0 -124 45l-20 -35h-37l36 60q-30 45 -30 111v183q0 82 47 131.5t128 49.5zM375 172v179q0 48 -19 83l-225 -372q37 -39 104 -39t103.5 40t36.5 109zM94 351v-179
q0 -49 18 -82l225 372q-37 39 -102 39q-68 0 -104.5 -40t-36.5 -110z" />
    <glyph glyph-name="ugrave" unicode="&#xf9;" horiz-adv-x="477" 
d="M104 524v-357q0 -69 34 -106.5t98 -37.5q63 0 97.5 37.5t34.5 106.5v357h34v-524h-33v72q-38 -83 -139 -83q-75 0 -117.5 46.5t-42.5 126.5v362h34zM143 729h41l75 -129h-37z" />
    <glyph glyph-name="uacute" unicode="&#xfa;" horiz-adv-x="477" 
d="M104 524v-357q0 -69 34 -106.5t98 -37.5q63 0 97.5 37.5t34.5 106.5v357h34v-524h-33v72q-38 -83 -139 -83q-75 0 -117.5 46.5t-42.5 126.5v362h34zM323 729l-79 -129h-37l76 129h40z" />
    <glyph glyph-name="ucircumflex" unicode="&#xfb;" horiz-adv-x="477" 
d="M104 524v-357q0 -69 34 -106.5t98 -37.5q63 0 97.5 37.5t34.5 106.5v357h34v-524h-33v72q-38 -83 -139 -83q-75 0 -117.5 46.5t-42.5 126.5v362h34zM105 600l117 120h30l117 -120h-42l-90 92l-90 -92h-42z" />
    <glyph glyph-name="udieresis" unicode="&#xfc;" horiz-adv-x="477" 
d="M104 524v-357q0 -69 34 -106.5t98 -37.5q63 0 97.5 37.5t34.5 106.5v357h34v-524h-33v72q-38 -83 -139 -83q-75 0 -117.5 46.5t-42.5 126.5v362h34zM173 689v-55h-55v55h55zM353 689v-55h-55v55h55z" />
    <glyph glyph-name="yacute" unicode="&#xfd;" horiz-adv-x="423" 
d="M411 524l-315 -691h-35l144 317l-176 374h37l156 -335l152 335h37zM307 729l-79 -129h-37l76 129h40z" />
    <glyph glyph-name="thorn" unicode="&#xfe;" horiz-adv-x="477" 
d="M75 -165v894h34v-270q40 75 142 75q77 0 121.5 -49.5t44.5 -131.5v-183q0 -81 -45 -131t-121 -50q-103 0 -142 74v-228h-34zM246 23q65 0 101 39.5t36 109.5v179q0 70 -36 110t-101 40t-101 -39t-36 -103v-194q0 -64 36 -103t101 -39z" />
    <glyph glyph-name="ydieresis" unicode="&#xff;" horiz-adv-x="423" 
d="M411 524l-315 -691h-35l144 317l-176 374h37l156 -335l152 335h37zM157 689v-55h-55v55h55zM337 689v-55h-55v55h55z" />
    <glyph glyph-name="Amacron" unicode="&#x100;" horiz-adv-x="516" 
d="M501 0h-37l-67 210h-278l-65 -210h-38l225 710h34zM257 654l-127 -409h256zM376 851v-31h-238v31h238z" />
    <glyph glyph-name="amacron" unicode="&#x101;" horiz-adv-x="466" 
d="M226 533q79 0 124 -47.5t45 -124.5v-361h-32v63q-45 -74 -146 -74q-80 0 -125.5 44t-45.5 112t46 111.5t127 43.5q97 0 142 -68v127q0 64 -35 102.5t-100 38.5q-62 0 -95.5 -37t-33.5 -102v-10h-34v12q0 78 43.5 124t119.5 46zM222 20q66 0 103 35t37 90t-37 90t-103 35
q-67 0 -104 -35t-37 -90t37 -90t104 -35zM351 665v-31h-238v31h238z" />
    <glyph glyph-name="Abreve" unicode="&#x102;" horiz-adv-x="516" 
d="M501 0h-37l-67 210h-278l-65 -210h-38l225 710h34zM257 654l-127 -409h256zM355 906h30q0 -53 -35 -83t-93 -30t-93 30t-35 83h31q0 -41 26 -62.5t71 -21.5t71.5 22t26.5 62z" />
    <glyph glyph-name="abreve" unicode="&#x103;" horiz-adv-x="466" 
d="M226 533q79 0 124 -47.5t45 -124.5v-361h-32v63q-45 -74 -146 -74q-80 0 -125.5 44t-45.5 112t46 111.5t127 43.5q97 0 142 -68v127q0 64 -35 102.5t-100 38.5q-62 0 -95.5 -37t-33.5 -102v-10h-34v12q0 78 43.5 124t119.5 46zM222 20q66 0 103 35t37 90t-37 90t-103 35
q-67 0 -104 -35t-37 -90t37 -90t104 -35zM330 720h30q0 -53 -35 -83t-93 -30t-93 30t-35 83h31q0 -41 26 -62.5t71 -21.5t71.5 22t26.5 62z" />
    <glyph glyph-name="Aogonek" unicode="&#x104;" horiz-adv-x="516" 
d="M501 0h-37l-67 210h-278l-65 -210h-38l225 710h34zM257 654l-127 -409h256zM474 19l22 -19l-49 -56q-22 -27 -22 -46q0 -32 47 -32h27v-30h-31q-37 0 -56.5 16t-19.5 43q0 28 27 59z" />
    <glyph glyph-name="aogonek" unicode="&#x105;" horiz-adv-x="466" 
d="M226 533q79 0 124 -47.5t45 -124.5v-361h-32v63q-45 -74 -146 -74q-80 0 -125.5 44t-45.5 112t46 111.5t127 43.5q97 0 142 -68v127q0 64 -35 102.5t-100 38.5q-62 0 -95.5 -37t-33.5 -102v-10h-34v12q0 78 43.5 124t119.5 46zM222 20q66 0 103 35t37 90t-37 90t-103 35
q-67 0 -104 -35t-37 -90t37 -90t104 -35zM372 19l22 -19l-49 -56q-22 -27 -22 -46q0 -32 47 -32h27v-30h-31q-37 0 -56.5 16t-19.5 43q0 28 27 59z" />
    <glyph glyph-name="Cacute" unicode="&#x106;" horiz-adv-x="541" 
d="M494 225v-13q0 -100 -58.5 -161.5t-156.5 -61.5q-96 0 -154 62.5t-58 163.5v280q0 103 57 164.5t155 61.5q96 0 154 -58.5t58 -154.5v-4h-35v3q0 82 -48 131t-129 49q-83 0 -130 -51.5t-47 -141.5v-278q0 -87 48 -140t129 -53q83 0 131 51t48 138v13h36zM365 915
l-79 -129h-37l76 129h40z" />
    <glyph glyph-name="cacute" unicode="&#x107;" horiz-adv-x="450" 
d="M364 360v9q0 61 -35 96.5t-100 35.5t-100.5 -40t-35.5 -110v-179q0 -68 35.5 -108.5t100.5 -40.5t101 36t36 96v10h34v-11q0 -74 -46 -119.5t-125 -45.5t-124.5 50.5t-45.5 130.5v183q0 83 45 132t125 49q78 0 123.5 -45t45.5 -118v-11h-34zM317 729l-79 -129h-37l76 129
h40z" />
    <glyph glyph-name="Ccircumflex" unicode="&#x108;" horiz-adv-x="541" 
d="M494 225v-13q0 -100 -58.5 -161.5t-156.5 -61.5q-96 0 -154 62.5t-58 163.5v280q0 103 57 164.5t155 61.5q96 0 154 -58.5t58 -154.5v-4h-35v3q0 82 -48 131t-129 49q-83 0 -130 -51.5t-47 -141.5v-278q0 -87 48 -140t129 -53q83 0 131 51t48 138v13h36zM147 786l117 120
h30l117 -120h-42l-90 92l-90 -92h-42z" />
    <glyph glyph-name="ccircumflex" unicode="&#x109;" horiz-adv-x="450" 
d="M364 360v9q0 61 -35 96.5t-100 35.5t-100.5 -40t-35.5 -110v-179q0 -68 35.5 -108.5t100.5 -40.5t101 36t36 96v10h34v-11q0 -74 -46 -119.5t-125 -45.5t-124.5 50.5t-45.5 130.5v183q0 83 45 132t125 49q78 0 123.5 -45t45.5 -118v-11h-34zM99 600l117 120h30l117 -120
h-42l-90 92l-90 -92h-42z" />
    <glyph glyph-name="Cdotaccent" unicode="&#x10a;" horiz-adv-x="541" 
d="M494 225v-13q0 -100 -58.5 -161.5t-156.5 -61.5q-96 0 -154 62.5t-58 163.5v280q0 103 57 164.5t155 61.5q96 0 154 -58.5t58 -154.5v-4h-35v3q0 82 -48 131t-129 49q-83 0 -130 -51.5t-47 -141.5v-278q0 -87 48 -140t129 -53q83 0 131 51t48 138v13h36zM305 901v-57h-54
v57h54z" />
    <glyph glyph-name="cdotaccent" unicode="&#x10b;" horiz-adv-x="450" 
d="M364 360v9q0 61 -35 96.5t-100 35.5t-100.5 -40t-35.5 -110v-179q0 -68 35.5 -108.5t100.5 -40.5t101 36t36 96v10h34v-11q0 -74 -46 -119.5t-125 -45.5t-124.5 50.5t-45.5 130.5v183q0 83 45 132t125 49q78 0 123.5 -45t45.5 -118v-11h-34zM257 715v-57h-54v57h54z" />
    <glyph glyph-name="Ccaron" unicode="&#x10c;" horiz-adv-x="541" 
d="M494 225v-13q0 -100 -58.5 -161.5t-156.5 -61.5q-96 0 -154 62.5t-58 163.5v280q0 103 57 164.5t155 61.5q96 0 154 -58.5t58 -154.5v-4h-35v3q0 82 -48 131t-129 49q-83 0 -130 -51.5t-47 -141.5v-278q0 -87 48 -140t129 -53q83 0 131 51t48 138v13h36zM411 907
l-117 -121h-30l-117 121h42l90 -94l90 94h42z" />
    <glyph glyph-name="ccaron" unicode="&#x10d;" horiz-adv-x="450" 
d="M364 360v9q0 61 -35 96.5t-100 35.5t-100.5 -40t-35.5 -110v-179q0 -68 35.5 -108.5t100.5 -40.5t101 36t36 96v10h34v-11q0 -74 -46 -119.5t-125 -45.5t-124.5 50.5t-45.5 130.5v183q0 83 45 132t125 49q78 0 123.5 -45t45.5 -118v-11h-34zM363 721l-117 -121h-30
l-117 121h42l90 -94l90 94h42z" />
    <glyph glyph-name="Dcaron" unicode="&#x10e;" horiz-adv-x="570" 
d="M86 710h181q108 0 172 -59.5t64 -158.5v-273q0 -100 -64 -159.5t-172 -59.5h-181v710zM121 676v-642h146q94 0 147 50t53 136v270q0 87 -53 136.5t-147 49.5h-146zM399 907l-117 -121h-30l-117 121h42l90 -94l90 94h42z" />
    <glyph glyph-name="dcaron" unicode="&#x10f;" horiz-adv-x="532" 
d="M528 710l-14 -181h-30l11 181h33zM226 534q98 0 142 -74v269h34v-729h-33v69q-39 -80 -143 -80q-77 0 -121.5 49.5t-44.5 131.5v183q0 82 44.5 131.5t121.5 49.5zM368 165v194q0 64 -36 103t-101 39t-101 -40t-36 -110v-179q0 -70 36 -109.5t101 -39.5t101 39t36 103z
" />
    <glyph glyph-name="Dcroat" unicode="&#x110;" horiz-adv-x="581" 
d="M96 710h181q108 0 172 -59.5t64 -158.5v-273q0 -100 -64 -159.5t-172 -59.5h-181v346h-85v35h85v329zM131 676v-295h194v-35h-194v-312h146q94 0 147 50t53 136v270q0 87 -53 136.5t-147 49.5h-146z" />
    <glyph glyph-name="dcroat" unicode="&#x111;" horiz-adv-x="477" 
d="M226 534q98 0 142 -74v145h-146v31h146v93h34v-93h68v-31h-68v-605h-33v69q-39 -80 -143 -80q-76 0 -121 48.5t-45 125.5v190q0 83 44.5 132t121.5 49zM368 165v194q0 64 -36 103t-101 39t-101 -40t-36 -110v-186q0 -64 36 -103t101 -39t101 39t36 103z" />
    <glyph glyph-name="Emacron" unicode="&#x112;" horiz-adv-x="491" 
d="M449 676h-328v-296h269v-34h-269v-312h328v-34h-363v710h363v-34zM383 851v-31h-238v31h238z" />
    <glyph glyph-name="emacron" unicode="&#x113;" horiz-adv-x="464" 
d="M234 534q81 0 127 -49.5t46 -131.5v-93h-314v-88q0 -68 37 -108.5t105 -40.5t104.5 35.5t36.5 96.5v11h34v-12q0 -73 -47.5 -119t-127.5 -46q-82 0 -129 50.5t-47 130.5v183q0 83 46.5 132t128.5 49zM93 351v-58h280v58q0 70 -36 110t-103 40q-68 0 -104.5 -40
t-36.5 -110zM353 665v-31h-238v31h238z" />
    <glyph glyph-name="Ebreve" unicode="&#x114;" horiz-adv-x="491" 
d="M449 676h-328v-296h269v-34h-269v-312h328v-34h-363v710h363v-34zM362 906h30q0 -53 -35 -83t-93 -30t-93 30t-35 83h31q0 -41 26 -62.5t71 -21.5t71.5 22t26.5 62z" />
    <glyph glyph-name="ebreve" unicode="&#x115;" horiz-adv-x="464" 
d="M234 534q81 0 127 -49.5t46 -131.5v-93h-314v-88q0 -68 37 -108.5t105 -40.5t104.5 35.5t36.5 96.5v11h34v-12q0 -73 -47.5 -119t-127.5 -46q-82 0 -129 50.5t-47 130.5v183q0 83 46.5 132t128.5 49zM93 351v-58h280v58q0 70 -36 110t-103 40q-68 0 -104.5 -40
t-36.5 -110zM332 720h30q0 -53 -35 -83t-93 -30t-93 30t-35 83h31q0 -41 26 -62.5t71 -21.5t71.5 22t26.5 62z" />
    <glyph glyph-name="Edotaccent" unicode="&#x116;" horiz-adv-x="491" 
d="M449 676h-328v-296h269v-34h-269v-312h328v-34h-363v710h363v-34zM291 901v-57h-54v57h54z" />
    <glyph glyph-name="edotaccent" unicode="&#x117;" horiz-adv-x="464" 
d="M234 534q81 0 127 -49.5t46 -131.5v-93h-314v-88q0 -68 37 -108.5t105 -40.5t104.5 35.5t36.5 96.5v11h34v-12q0 -73 -47.5 -119t-127.5 -46q-82 0 -129 50.5t-47 130.5v183q0 83 46.5 132t128.5 49zM93 351v-58h280v58q0 70 -36 110t-103 40q-68 0 -104.5 -40
t-36.5 -110zM261 715v-57h-54v57h54z" />
    <glyph glyph-name="Eogonek" unicode="&#x118;" horiz-adv-x="491" 
d="M449 676h-328v-296h269v-34h-269v-312h328v-34h-363v710h363v-34zM408 19l22 -19l-49 -56q-22 -27 -22 -46q0 -32 47 -32h27v-30h-31q-37 0 -56.5 16t-19.5 43q0 28 27 59z" />
    <glyph glyph-name="eogonek" unicode="&#x119;" horiz-adv-x="464" 
d="M234 534q80 0 126.5 -48t46.5 -125v-101h-314v-95q0 -64 37 -103t105 -39t104.5 35.5t36.5 96.5v11h34v-12q0 -77 -49 -120l-53 -87q-18 -30 -18 -49q0 -32 47 -32h27v-30h-31q-37 0 -56.5 16t-19.5 43q0 25 22 59l29 47q-32 -12 -73 -12q-82 0 -129 48.5t-47 125.5v190
q0 83 46.5 132t128.5 49zM93 351v-58h280v66q0 65 -36 103.5t-103 38.5q-68 0 -104.5 -40t-36.5 -110z" />
    <glyph glyph-name="Ecaron" unicode="&#x11a;" horiz-adv-x="491" 
d="M449 676h-328v-296h269v-34h-269v-312h328v-34h-363v710h363v-34zM397 907l-117 -121h-30l-117 121h42l90 -94l90 94h42z" />
    <glyph glyph-name="ecaron" unicode="&#x11b;" horiz-adv-x="464" 
d="M234 534q81 0 127 -49.5t46 -131.5v-93h-314v-88q0 -68 37 -108.5t105 -40.5t104.5 35.5t36.5 96.5v11h34v-12q0 -73 -47.5 -119t-127.5 -46q-82 0 -129 50.5t-47 130.5v183q0 83 46.5 132t128.5 49zM93 351v-58h280v58q0 70 -36 110t-103 40q-68 0 -104.5 -40
t-36.5 -110zM367 721l-117 -121h-30l-117 121h42l90 -94l90 94h42z" />
    <glyph glyph-name="Gcircumflex" unicode="&#x11c;" horiz-adv-x="564" 
d="M284 23q84 0 133.5 50.5t49.5 138.5v103h-186v34h220v-349h-32v99q-51 -110 -189 -110q-96 0 -154.5 62.5t-58.5 161.5v280q0 105 58 166.5t158 61.5q95 0 152 -58.5t57 -154.5v-4h-35v3q0 82 -46.5 131t-127.5 49q-85 0 -133 -52.5t-48 -143.5v-275q0 -88 49.5 -140.5
t132.5 -52.5zM149 786l117 120h30l117 -120h-42l-90 92l-90 -92h-42z" />
    <glyph glyph-name="gcircumflex" unicode="&#x11d;" horiz-adv-x="476" 
d="M225 534q104 0 144 -79v69h32v-530q0 -76 -45 -124.5t-122 -48.5t-121.5 38t-44.5 102v10h34v-8q0 -51 34.5 -80t97.5 -29q64 0 98.5 38.5t34.5 103.5v87q-44 -73 -142 -73q-76 0 -121 48.5t-45 124.5v170q0 83 44.5 132t121.5 49zM367 185v174q0 64 -36 103t-101 39
t-101 -40t-36 -110v-166q0 -64 36 -103t101 -39t101 39t36 103zM104 600l117 120h30l117 -120h-42l-90 92l-90 -92h-42z" />
    <glyph glyph-name="Gbreve" unicode="&#x11e;" horiz-adv-x="564" 
d="M284 23q84 0 133.5 50.5t49.5 138.5v103h-186v34h220v-349h-32v99q-51 -110 -189 -110q-96 0 -154.5 62.5t-58.5 161.5v280q0 105 58 166.5t158 61.5q95 0 152 -58.5t57 -154.5v-4h-35v3q0 82 -46.5 131t-127.5 49q-85 0 -133 -52.5t-48 -143.5v-275q0 -88 49.5 -140.5
t132.5 -52.5zM378 906h30q0 -53 -35 -83t-93 -30t-93 30t-35 83h31q0 -41 26 -62.5t71 -21.5t71.5 22t26.5 62z" />
    <glyph glyph-name="gbreve" unicode="&#x11f;" horiz-adv-x="476" 
d="M225 534q104 0 144 -79v69h32v-530q0 -76 -45 -124.5t-122 -48.5t-121.5 38t-44.5 102v10h34v-8q0 -51 34.5 -80t97.5 -29q64 0 98.5 38.5t34.5 103.5v87q-44 -73 -142 -73q-76 0 -121 48.5t-45 124.5v170q0 83 44.5 132t121.5 49zM367 185v174q0 64 -36 103t-101 39
t-101 -40t-36 -110v-166q0 -64 36 -103t101 -39t101 39t36 103zM333 720h30q0 -53 -35 -83t-93 -30t-93 30t-35 83h31q0 -41 26 -62.5t71 -21.5t71.5 22t26.5 62z" />
    <glyph glyph-name="Gdotaccent" unicode="&#x120;" horiz-adv-x="564" 
d="M284 23q84 0 133.5 50.5t49.5 138.5v103h-186v34h220v-349h-32v99q-51 -110 -189 -110q-96 0 -154.5 62.5t-58.5 161.5v280q0 105 58 166.5t158 61.5q95 0 152 -58.5t57 -154.5v-4h-35v3q0 82 -46.5 131t-127.5 49q-85 0 -133 -52.5t-48 -143.5v-275q0 -88 49.5 -140.5
t132.5 -52.5zM307 901v-57h-54v57h54z" />
    <glyph glyph-name="gdotaccent" unicode="&#x121;" horiz-adv-x="476" 
d="M225 534q104 0 144 -79v69h32v-530q0 -76 -45 -124.5t-122 -48.5t-121.5 38t-44.5 102v10h34v-8q0 -51 34.5 -80t97.5 -29q64 0 98.5 38.5t34.5 103.5v87q-44 -73 -142 -73q-76 0 -121 48.5t-45 124.5v170q0 83 44.5 132t121.5 49zM367 185v174q0 64 -36 103t-101 39
t-101 -40t-36 -110v-166q0 -64 36 -103t101 -39t101 39t36 103zM262 715v-57h-54v57h54z" />
    <glyph glyph-name="uni0122" unicode="&#x122;" horiz-adv-x="564" 
d="M284 23q84 0 133.5 50.5t49.5 138.5v103h-186v34h220v-349h-32v99q-51 -110 -189 -110q-96 0 -154.5 62.5t-58.5 161.5v280q0 105 58 166.5t158 61.5q95 0 152 -58.5t57 -154.5v-4h-35v3q0 82 -46.5 131t-127.5 49q-85 0 -133 -52.5t-48 -143.5v-275q0 -88 49.5 -140.5
t132.5 -52.5zM258 -177l27 74h-26v51h56v-45h-1l-28 -80h-28z" />
    <glyph glyph-name="uni0123" unicode="&#x123;" horiz-adv-x="476" 
d="M225 534q104 0 144 -79v69h32v-530q0 -76 -45 -124.5t-122 -48.5t-121.5 38t-44.5 102v10h34v-8q0 -51 34.5 -80t97.5 -29q64 0 98.5 38.5t34.5 103.5v87q-44 -73 -142 -73q-76 0 -121 48.5t-45 124.5v170q0 83 44.5 132t121.5 49zM367 185v174q0 64 -36 103t-101 39
t-101 -40t-36 -110v-166q0 -64 36 -103t101 -39t101 39t36 103zM262 726l-25 -76h26v-50h-56v44l27 82h28z" />
    <glyph glyph-name="Hcircumflex" unicode="&#x124;" horiz-adv-x="585" 
d="M463 710h35v-710h-35v346h-342v-346h-35v710h35v-330h342v330zM162 786l117 120h30l117 -120h-42l-90 92l-90 -92h-42z" />
    <glyph glyph-name="hcircumflex" unicode="&#x125;" horiz-adv-x="477" 
d="M109 729v-271q40 76 137 76q75 0 117.5 -45.5t42.5 -126.5v-362h-34v356q0 69 -34 107t-98 38q-60 0 -94.5 -36.5t-36.5 -102.5v-362h-34v729h34zM109 772l117 120h30l117 -120h-42l-90 92l-90 -92h-42z" />
    <glyph glyph-name="Hbar" unicode="&#x126;" horiz-adv-x="606" 
d="M474 710h35v-154h86v-33h-86v-523h-35v346h-342v-346h-35v523h-85v33h85v154h35v-154h342v154zM132 523v-143h342v143h-342z" />
    <glyph glyph-name="hbar" unicode="&#x127;" horiz-adv-x="477" 
d="M372 0v356q0 69 -34 107t-98 38q-60 0 -94.5 -36.5t-36.5 -102.5v-362h-34v605h-68v31h68v93h34v-93h146v-31h-146v-147q40 76 137 76q75 0 117.5 -45.5t42.5 -126.5v-362h-34z" />
    <glyph glyph-name="Itilde" unicode="&#x128;" horiz-adv-x="207" 
d="M86 710h35v-710h-35v710zM209 887h30q0 -37 -18.5 -62t-47.5 -25q-27 0 -74 33q-7 4 -18 11.5t-17 10.5t-13.5 6t-14.5 3q-17 0 -27 -16t-10 -42h-30q0 38 18.5 62.5t47.5 24.5q24 0 74 -33q44 -30 63 -30q16 0 26.5 15.5t10.5 41.5z" />
    <glyph glyph-name="itilde" unicode="&#x129;" horiz-adv-x="184" 
d="M109 524v-524h-34v524h34zM198 701h30q0 -37 -18.5 -62t-47.5 -25q-27 0 -74 33q-7 4 -18 11.5t-17 10.5t-13.5 6t-14.5 3q-17 0 -27 -16t-10 -42h-30q0 38 18.5 62.5t47.5 24.5q24 0 74 -33q44 -30 63 -30q16 0 26.5 15.5t10.5 41.5z" />
    <glyph glyph-name="Imacron" unicode="&#x12a;" horiz-adv-x="207" 
d="M86 710h35v-710h-35v710zM223 851v-31h-238v31h238z" />
    <glyph glyph-name="imacron" unicode="&#x12b;" horiz-adv-x="184" 
d="M109 524v-524h-34v524h34zM212 665v-31h-238v31h238z" />
    <glyph glyph-name="Ibreve" unicode="&#x12c;" horiz-adv-x="207" 
d="M86 710h35v-710h-35v710zM202 906h30q0 -53 -35 -83t-93 -30t-93 30t-35 83h31q0 -41 26 -62.5t71 -21.5t71.5 22t26.5 62z" />
    <glyph glyph-name="ibreve" unicode="&#x12d;" horiz-adv-x="184" 
d="M109 524v-524h-34v524h34zM191 720h30q0 -53 -35 -83t-93 -30t-93 30t-35 83h31q0 -41 26 -62.5t71 -21.5t71.5 22t26.5 62z" />
    <glyph glyph-name="Iogonek" unicode="&#x12e;" horiz-adv-x="207" 
d="M86 710h35v-710h-1l-28 -42q-27 -40 -27 -60q0 -32 47 -32h27v-30h-31q-37 0 -56.5 16t-19.5 43q0 24 31 73l23 34v708z" />
    <glyph glyph-name="iogonek" unicode="&#x12f;" horiz-adv-x="184" 
d="M109 524v-524h-1l-28 -42q-27 -40 -27 -60q0 -32 47 -32h27v-30h-31q-37 0 -56.5 16t-19.5 43q0 24 31 73l24 35v521h34zM119 715v-57h-54v57h54z" />
    <glyph glyph-name="Idotaccent" unicode="&#x130;" horiz-adv-x="207" 
d="M86 710h35v-710h-35v710zM130 901v-57h-54v57h54z" />
    <glyph glyph-name="dotlessi" unicode="&#x131;" horiz-adv-x="184" 
d="M109 524v-524h-34v524h34z" />
    <glyph glyph-name="Jcircumflex" unicode="&#x134;" horiz-adv-x="480" 
d="M362 710h35v-550q0 -78 -49 -124.5t-133 -46.5q-83 0 -132 46.5t-49 124.5v38h35v-37q0 -63 39.5 -100.5t106.5 -37.5q68 0 107.5 37.5t39.5 100.5v549zM248 786l117 120h30l117 -120h-42l-90 92l-90 -92h-42z" />
    <glyph glyph-name="jcircumflex" unicode="&#x135;" horiz-adv-x="184" 
d="M75 -61v585h34v-588q0 -45 -24.5 -72.5t-66.5 -27.5h-30v31h25q29 0 45.5 19t16.5 53zM-39 600l117 120h30l117 -120h-42l-90 92l-90 -92h-42z" />
    <glyph glyph-name="uni0136" unicode="&#x136;" horiz-adv-x="512" 
d="M439 710h44l-239 -301l258 -409h-42l-239 382l-100 -125v-257h-35v710h35v-400zM237 -177l27 74h-26v51h56v-45h-1l-28 -80h-28z" />
    <glyph glyph-name="uni0137" unicode="&#x137;" horiz-adv-x="421" 
d="M369 0l-191 278l-69 -80v-198h-34v729h34v-481l241 276h42l-190 -221l208 -303h-41zM186 -177l27 74h-26v51h56v-45h-1l-28 -80h-28z" />
    <glyph glyph-name="Lacute" unicode="&#x139;" horiz-adv-x="439" 
d="M121 710v-676h299v-34h-334v710h35zM190 915l-79 -129h-37l76 129h40z" />
    <glyph glyph-name="lacute" unicode="&#x13a;" horiz-adv-x="184" 
d="M75 729h34v-729h-34v729zM180 901l-79 -129h-37l76 129h40z" />
    <glyph glyph-name="uni013B" unicode="&#x13b;" horiz-adv-x="439" 
d="M121 710v-676h299v-34h-334v710h35zM225 -177l27 74h-26v51h56v-45h-1l-28 -80h-28z" />
    <glyph glyph-name="uni013C" unicode="&#x13c;" horiz-adv-x="184" 
d="M75 729h34v-729h-34v729zM64 -177l27 74h-26v51h56v-45h-1l-28 -80h-28z" />
    <glyph glyph-name="Lcaron" unicode="&#x13d;" horiz-adv-x="439" 
d="M121 710v-676h299v-34h-334v710h35zM302 710l-14 -181h-30l11 181h33z" />
    <glyph glyph-name="lcaron" unicode="&#x13e;" horiz-adv-x="239" 
d="M75 729h34v-729h-34v729zM231 710l-14 -181h-30l11 181h33z" />
    <glyph glyph-name="Ldot" unicode="&#x13f;" horiz-adv-x="438" 
d="M121 710v-676h299v-34h-334v710h35zM354 393v-57h-54v57h54z" />
    <glyph glyph-name="ldot" unicode="&#x140;" horiz-adv-x="263" 
d="M75 729h34v-729h-34v729zM251 392v-57h-54v57h54z" />
    <glyph glyph-name="Lslash" unicode="&#x141;" horiz-adv-x="449" 
d="M131 710v-340l194 62v-36l-194 -62v-300h299v-34h-334v326l-85 -27v35l85 27v349h35z" />
    <glyph glyph-name="lslash" unicode="&#x142;" horiz-adv-x="289" 
d="M128 729h34v-318l99 41v-34l-99 -41v-377h-34v365l-100 -41v34l100 41v330z" />
    <glyph glyph-name="Nacute" unicode="&#x143;" horiz-adv-x="600" 
d="M514 710v-710h-31l-362 637v-637h-35v710h32l360 -633v633h36zM387 915l-79 -129h-37l76 129h40z" />
    <glyph glyph-name="nacute" unicode="&#x144;" horiz-adv-x="477" 
d="M372 0v356q0 69 -34 107t-97 38q-62 0 -96 -36.5t-36 -102.5v-362h-34v524h33v-71q38 81 138 81q75 0 117.5 -46.5t42.5 -126.5v-361h-34zM324 729l-79 -129h-37l76 129h40z" />
    <glyph glyph-name="uni0145" unicode="&#x145;" horiz-adv-x="600" 
d="M514 710v-710h-31l-362 637v-637h-35v710h32l360 -633v633h36zM271 -177l27 74h-26v51h56v-45h-1l-28 -80h-28z" />
    <glyph glyph-name="uni0146" unicode="&#x146;" horiz-adv-x="477" 
d="M372 0v356q0 69 -34 107t-97 38q-62 0 -96 -36.5t-36 -102.5v-362h-34v524h33v-71q38 81 138 81q75 0 117.5 -46.5t42.5 -126.5v-361h-34zM212 -177l27 74h-26v51h56v-45h-1l-28 -80h-28z" />
    <glyph glyph-name="Ncaron" unicode="&#x147;" horiz-adv-x="600" 
d="M514 710v-710h-31l-362 637v-637h-35v710h32l360 -633v633h36zM433 907l-117 -121h-30l-117 121h42l90 -94l90 94h42z" />
    <glyph glyph-name="ncaron" unicode="&#x148;" horiz-adv-x="477" 
d="M372 0v356q0 69 -34 107t-97 38q-62 0 -96 -36.5t-36 -102.5v-362h-34v524h33v-71q38 81 138 81q75 0 117.5 -46.5t42.5 -126.5v-361h-34zM370 721l-117 -121h-30l-117 121h42l90 -94l90 94h42z" />
    <glyph glyph-name="Eng" unicode="&#x14a;" horiz-adv-x="600" 
d="M514 710v-774q0 -45 -24.5 -72.5t-66.5 -27.5h-40v33h36q28 0 44 18t16 51v69l-358 630v-637h-35v710h32l360 -633v633h36z" />
    <glyph glyph-name="eng" unicode="&#x14b;" horiz-adv-x="477" 
d="M246 534q75 0 117.5 -46.5t42.5 -126.5v-425q0 -45 -24.5 -72.5t-65.5 -27.5h-31v31h25q29 0 45.5 19t16.5 53v417q0 69 -34 107t-97 38q-62 0 -96 -36.5t-36 -102.5v-362h-34v524h33v-71q38 81 138 81z" />
    <glyph glyph-name="Omacron" unicode="&#x14c;" horiz-adv-x="574" 
d="M287 721q100 0 160 -62.5t60 -163.5v-280q0 -101 -60 -163.5t-160 -62.5t-160 62.5t-60 163.5v280q0 101 60 163.5t160 62.5zM287 687q-86 0 -135.5 -53t-49.5 -141v-277q0 -88 50 -140.5t135 -52.5q84 0 134 53t50 140v277q0 87 -50 140.5t-134 53.5zM406 851v-31h-238
v31h238z" />
    <glyph glyph-name="omacron" unicode="&#x14d;" horiz-adv-x="468" 
d="M234 534q80 0 127 -49.5t47 -131.5v-183q0 -82 -47 -131.5t-127 -49.5q-81 0 -128 49.5t-47 131.5v183q0 82 47 131.5t128 49.5zM374 172v179q0 70 -36.5 110t-103.5 40q-68 0 -104.5 -40t-36.5 -110v-179q0 -69 36.5 -109t104.5 -40q67 0 103.5 40t36.5 109zM353 665
v-31h-238v31h238z" />
    <glyph glyph-name="Obreve" unicode="&#x14e;" horiz-adv-x="574" 
d="M287 721q100 0 160 -62.5t60 -163.5v-280q0 -101 -60 -163.5t-160 -62.5t-160 62.5t-60 163.5v280q0 101 60 163.5t160 62.5zM287 687q-86 0 -135.5 -53t-49.5 -141v-277q0 -88 50 -140.5t135 -52.5q84 0 134 53t50 140v277q0 87 -50 140.5t-134 53.5zM385 906h30
q0 -53 -35 -83t-93 -30t-93 30t-35 83h31q0 -41 26 -62.5t71 -21.5t71.5 22t26.5 62z" />
    <glyph glyph-name="obreve" unicode="&#x14f;" horiz-adv-x="468" 
d="M234 534q80 0 127 -49.5t47 -131.5v-183q0 -82 -47 -131.5t-127 -49.5q-81 0 -128 49.5t-47 131.5v183q0 82 47 131.5t128 49.5zM374 172v179q0 70 -36.5 110t-103.5 40q-68 0 -104.5 -40t-36.5 -110v-179q0 -69 36.5 -109t104.5 -40q67 0 103.5 40t36.5 109zM332 720h30
q0 -53 -35 -83t-93 -30t-93 30t-35 83h31q0 -41 26 -62.5t71 -21.5t71.5 22t26.5 62z" />
    <glyph glyph-name="Ohungarumlaut" unicode="&#x150;" horiz-adv-x="574" 
d="M287 721q100 0 160 -62.5t60 -163.5v-280q0 -101 -60 -163.5t-160 -62.5t-160 62.5t-60 163.5v280q0 101 60 163.5t160 62.5zM287 687q-86 0 -135.5 -53t-49.5 -141v-277q0 -88 50 -140.5t135 -52.5q84 0 134 53t50 140v277q0 87 -50 140.5t-134 53.5zM302 907l-73 -121
h-37l72 121h38zM455 907l-77 -121h-36l73 121h40z" />
    <glyph glyph-name="ohungarumlaut" unicode="&#x151;" horiz-adv-x="468" 
d="M234 534q80 0 127 -49.5t47 -131.5v-183q0 -82 -47 -131.5t-127 -49.5q-81 0 -128 49.5t-47 131.5v183q0 82 47 131.5t128 49.5zM374 172v179q0 70 -36.5 110t-103.5 40q-68 0 -104.5 -40t-36.5 -110v-179q0 -69 36.5 -109t104.5 -40q67 0 103.5 40t36.5 109zM249 721
l-73 -121h-37l72 121h38zM402 721l-77 -121h-36l73 121h40z" />
    <glyph glyph-name="OE" unicode="&#x152;" horiz-adv-x="877" 
d="M835 676h-328v-296h269v-34h-269v-312h328v-34h-363v95q-55 -106 -187 -106q-98 0 -158 63t-60 163v280q0 100 60 163t158 63q130 0 187 -106v95h363v-34zM287 687q-86 0 -135.5 -52.5t-49.5 -140.5v-278q0 -88 50 -140.5t135 -52.5q84 0 134 53t50 140v278
q0 88 -50 140.5t-134 52.5z" />
    <glyph glyph-name="oe" unicode="&#x153;" horiz-adv-x="780" 
d="M549 534q81 0 127.5 -48t46.5 -125v-101h-314v-95q0 -65 37 -103.5t105 -38.5t104.5 35.5t36.5 96.5v11h34v-12q0 -73 -47.5 -119t-127.5 -46q-59 0 -100.5 26t-59.5 72q-19 -46 -59.5 -72t-97.5 -26q-81 0 -128 49.5t-47 131.5v183q0 82 47 131.5t128 49.5
q116 0 157 -99q41 99 158 99zM374 172v179q0 70 -36.5 110t-103.5 40q-68 0 -104.5 -40t-36.5 -110v-179q0 -69 36.5 -109t104.5 -40q67 0 103.5 40t36.5 109zM409 351v-58h280v66q0 65 -36.5 103.5t-103.5 38.5t-103.5 -40t-36.5 -110z" />
    <glyph glyph-name="Racute" unicode="&#x154;" horiz-adv-x="531" 
d="M86 710h185q86 0 138.5 -51t52.5 -130t-52.5 -131t-138.5 -52h-23l271 -346h-43l-269 346h-86v-346h-35v710zM271 676h-150v-296h150q71 0 113 41t42 108t-42 107t-113 40zM347 915l-79 -129h-37l76 129h40z" />
    <glyph glyph-name="racute" unicode="&#x155;" horiz-adv-x="291" 
d="M270 499h-25q-61 0 -97.5 -41.5t-38.5 -115.5v-342h-34v524h33v-81q40 91 141 91h21v-35zM262 729l-79 -129h-37l76 129h40z" />
    <glyph glyph-name="uni0156" unicode="&#x156;" horiz-adv-x="531" 
d="M86 710h185q86 0 138.5 -51t52.5 -130t-52.5 -131t-138.5 -52h-23l271 -346h-43l-269 346h-86v-346h-35v710zM271 676h-150v-296h150q71 0 113 41t42 108t-42 107t-113 40zM251 -177l27 74h-26v51h56v-45h-1l-28 -80h-28z" />
    <glyph glyph-name="uni0157" unicode="&#x157;" horiz-adv-x="291" 
d="M270 499h-25q-61 0 -97.5 -41.5t-38.5 -115.5v-342h-34v524h33v-81q40 91 141 91h21v-35zM64 -177l27 74h-26v51h56v-45h-1l-28 -80h-28z" />
    <glyph glyph-name="Rcaron" unicode="&#x158;" horiz-adv-x="531" 
d="M86 710h185q86 0 138.5 -51t52.5 -130t-52.5 -131t-138.5 -52h-23l271 -346h-43l-269 346h-86v-346h-35v710zM271 676h-150v-296h150q71 0 113 41t42 108t-42 107t-113 40zM393 907l-117 -121h-30l-117 121h42l90 -94l90 94h42z" />
    <glyph glyph-name="rcaron" unicode="&#x159;" horiz-adv-x="291" 
d="M270 499h-25q-61 0 -97.5 -41.5t-38.5 -115.5v-342h-34v524h33v-81q40 91 141 91h21v-35zM308 721l-117 -121h-30l-117 121h42l90 -94l90 94h42z" />
    <glyph glyph-name="Sacute" unicode="&#x15a;" horiz-adv-x="529" 
d="M433 493v12q0 87 -45.5 134.5t-129.5 47.5q-70 0 -115.5 -41t-45.5 -106q0 -56 32.5 -90t105.5 -58l77 -23q86 -27 126 -71.5t40 -118.5q0 -82 -62 -136t-153 -54q-93 0 -155 59t-62 151v24h35v-24q0 -76 52 -126t130 -50t129 43.5t51 111.5q0 62 -34 99t-112 60l-75 23
q-82 24 -121.5 67t-39.5 112q0 80 55.5 131t141.5 51q98 0 154 -57t56 -159v-12h-35zM349 915l-79 -129h-37l76 129h40z" />
    <glyph glyph-name="sacute" unicode="&#x15b;" horiz-adv-x="432" 
d="M343 359v10q0 63 -34 97.5t-97 34.5q-56 0 -88.5 -30.5t-32.5 -72.5q0 -79 101 -108l52 -15q70 -20 105.5 -51.5t35.5 -90.5q0 -61 -47 -102.5t-121 -41.5t-122.5 46t-48.5 111v20h34v-14q0 -60 39 -94.5t98 -34.5q57 0 95.5 30.5t38.5 77.5q0 46 -28 70t-89 42l-52 15
q-125 36 -125 138q0 58 42.5 98t112.5 40q76 0 120.5 -43t44.5 -123v-9h-34zM304 730l-79 -129h-37l76 129h40z" />
    <glyph glyph-name="Scircumflex" unicode="&#x15c;" horiz-adv-x="529" 
d="M433 493v12q0 87 -45.5 134.5t-129.5 47.5q-70 0 -115.5 -41t-45.5 -106q0 -56 32.5 -90t105.5 -58l77 -23q86 -27 126 -71.5t40 -118.5q0 -82 -62 -136t-153 -54q-93 0 -155 59t-62 151v24h35v-24q0 -76 52 -126t130 -50t129 43.5t51 111.5q0 62 -34 99t-112 60l-75 23
q-82 24 -121.5 67t-39.5 112q0 80 55.5 131t141.5 51q98 0 154 -57t56 -159v-12h-35zM131 786l117 120h30l117 -120h-42l-90 92l-90 -92h-42z" />
    <glyph glyph-name="scircumflex" unicode="&#x15d;" horiz-adv-x="432" 
d="M343 359v10q0 63 -34 97.5t-97 34.5q-56 0 -88.5 -30.5t-32.5 -72.5q0 -79 101 -108l52 -15q70 -20 105.5 -51.5t35.5 -90.5q0 -61 -47 -102.5t-121 -41.5t-122.5 46t-48.5 111v20h34v-14q0 -60 39 -94.5t98 -34.5q57 0 95.5 30.5t38.5 77.5q0 46 -28 70t-89 42l-52 15
q-125 36 -125 138q0 58 42.5 98t112.5 40q76 0 120.5 -43t44.5 -123v-9h-34zM86 601l117 120h30l117 -120h-42l-90 92l-90 -92h-42z" />
    <glyph glyph-name="Scedilla" unicode="&#x15e;" horiz-adv-x="529" 
d="M433 493v12q0 87 -45.5 134.5t-129.5 47.5q-70 0 -115.5 -41t-45.5 -106q0 -56 32.5 -90t105.5 -58l77 -23q86 -27 126 -71.5t40 -118.5q0 -82 -62 -136t-153 -54q-93 0 -155 59t-62 151v24h35v-24q0 -76 52 -126t130 -50t129 43.5t51 111.5q0 62 -34 99t-112 60l-75 23
q-82 24 -121.5 67t-39.5 112q0 80 55.5 131t141.5 51q98 0 154 -57t56 -159v-12h-35zM240 -151h-37l44 160l34 -4z" />
    <glyph glyph-name="scedilla" unicode="&#x15f;" horiz-adv-x="432" 
d="M343 359v10q0 63 -34 97.5t-97 34.5q-56 0 -88.5 -30.5t-32.5 -72.5q0 -79 101 -108l52 -15q70 -20 105.5 -51.5t35.5 -90.5q0 -61 -47 -102.5t-121 -41.5t-122.5 46t-48.5 111v20h34v-14q0 -60 39 -94.5t98 -34.5q57 0 95.5 30.5t38.5 77.5q0 46 -28 70t-89 42l-52 15
q-125 36 -125 138q0 58 42.5 98t112.5 40q76 0 120.5 -43t44.5 -123v-9h-34zM206 -151h-35l44 162l33 -6z" />
    <glyph glyph-name="Scaron" unicode="&#x160;" horiz-adv-x="529" 
d="M433 493v12q0 87 -45.5 134.5t-129.5 47.5q-70 0 -115.5 -41t-45.5 -106q0 -56 32.5 -90t105.5 -58l77 -23q86 -27 126 -71.5t40 -118.5q0 -82 -62 -136t-153 -54q-93 0 -155 59t-62 151v24h35v-24q0 -76 52 -126t130 -50t129 43.5t51 111.5q0 62 -34 99t-112 60l-75 23
q-82 24 -121.5 67t-39.5 112q0 80 55.5 131t141.5 51q98 0 154 -57t56 -159v-12h-35zM395 907l-117 -121h-30l-117 121h42l90 -94l90 94h42z" />
    <glyph glyph-name="scaron" unicode="&#x161;" horiz-adv-x="432" 
d="M343 359v10q0 63 -34 97.5t-97 34.5q-56 0 -88.5 -30.5t-32.5 -72.5q0 -79 101 -108l52 -15q70 -20 105.5 -51.5t35.5 -90.5q0 -61 -47 -102.5t-121 -41.5t-122.5 46t-48.5 111v20h34v-14q0 -60 39 -94.5t98 -34.5q57 0 95.5 30.5t38.5 77.5q0 46 -28 70t-89 42l-52 15
q-125 36 -125 138q0 58 42.5 98t112.5 40q76 0 120.5 -43t44.5 -123v-9h-34zM350 722l-117 -121h-30l-117 121h42l90 -94l90 94h42z" />
    <glyph glyph-name="uni0162" unicode="&#x162;" horiz-adv-x="466" 
d="M449 710v-34h-199v-676h-35v676h-197v34h431zM209 -151h-37l44 160l34 -4z" />
    <glyph glyph-name="uni0163" unicode="&#x163;" horiz-adv-x="291" 
d="M257 491h-114v-379q0 -38 20.5 -58.5t56.5 -20.5h36v-33h-41q-48 0 -77 29.5t-29 77.5v384h-87v33h87v167h34v-167h114v-33zM169 -151h-35l44 162l33 -6z" />
    <glyph glyph-name="Tcaron" unicode="&#x164;" horiz-adv-x="466" 
d="M449 710v-34h-199v-676h-35v676h-197v34h431zM366 907l-117 -121h-30l-117 121h42l90 -94l90 94h42z" />
    <glyph glyph-name="tcaron" unicode="&#x165;" horiz-adv-x="291" 
d="M257 491h-114v-379q0 -38 20.5 -58.5t56.5 -20.5h36v-33h-41q-48 0 -77 29.5t-29 77.5v384h-87v33h87v167h34v-167h114v-33zM262 776l-14 -181h-30l11 181h33z" />
    <glyph glyph-name="Tbar" unicode="&#x166;" horiz-adv-x="487" 
d="M458 710v-34h-199v-298h139v-34h-139v-344h-35v344h-124v34h124v298h-197v34h431z" />
    <glyph glyph-name="tbar" unicode="&#x167;" horiz-adv-x="301" 
d="M265 491h-114v-155h114v-32h-114v-192q0 -38 20.5 -58.5t56.5 -20.5h36v-33h-41q-48 0 -77 29.5t-29 77.5v197h-87v32h87v155h-87v33h87v167h34v-167h114v-33z" />
    <glyph glyph-name="Utilde" unicode="&#x168;" horiz-adv-x="581" 
d="M465 710h35v-505q0 -98 -57 -157t-152 -59t-152 59.5t-57 156.5v505h35v-504q0 -84 47 -133.5t127 -49.5t127 49.5t47 133.5v504zM393 887h30q0 -37 -18.5 -62t-47.5 -25q-27 0 -74 33q-7 4 -18 11.5t-17 10.5t-13.5 6t-14.5 3q-17 0 -27 -16t-10 -42h-30q0 38 18.5 62.5
t47.5 24.5q24 0 74 -33q44 -30 63 -30q16 0 26.5 15.5t10.5 41.5z" />
    <glyph glyph-name="utilde" unicode="&#x169;" horiz-adv-x="477" 
d="M104 524v-357q0 -69 34 -106.5t98 -37.5q63 0 97.5 37.5t34.5 106.5v357h34v-524h-33v72q-38 -83 -139 -83q-75 0 -117.5 46.5t-42.5 126.5v362h34zM341 701h30q0 -37 -18.5 -62t-47.5 -25q-27 0 -74 33q-7 4 -18 11.5t-17 10.5t-13.5 6t-14.5 3q-17 0 -27 -16t-10 -42
h-30q0 38 18.5 62.5t47.5 24.5q25 0 74 -33q44 -30 63 -30q16 0 26.5 15.5t10.5 41.5z" />
    <glyph glyph-name="Umacron" unicode="&#x16a;" horiz-adv-x="581" 
d="M465 710h35v-505q0 -98 -57 -157t-152 -59t-152 59.5t-57 156.5v505h35v-504q0 -84 47 -133.5t127 -49.5t127 49.5t47 133.5v504zM407 851v-31h-238v31h238z" />
    <glyph glyph-name="umacron" unicode="&#x16b;" horiz-adv-x="477" 
d="M104 524v-357q0 -69 34 -106.5t98 -37.5q63 0 97.5 37.5t34.5 106.5v357h34v-524h-33v72q-38 -83 -139 -83q-75 0 -117.5 46.5t-42.5 126.5v362h34zM355 665v-31h-238v31h238z" />
    <glyph glyph-name="Ubreve" unicode="&#x16c;" horiz-adv-x="581" 
d="M465 710h35v-505q0 -98 -57 -157t-152 -59t-152 59.5t-57 156.5v505h35v-504q0 -84 47 -133.5t127 -49.5t127 49.5t47 133.5v504zM386 906h30q0 -53 -35 -83t-93 -30t-93 30t-35 83h31q0 -41 26 -62.5t71 -21.5t71.5 22t26.5 62z" />
    <glyph glyph-name="ubreve" unicode="&#x16d;" horiz-adv-x="477" 
d="M104 524v-357q0 -69 34 -106.5t98 -37.5q63 0 97.5 37.5t34.5 106.5v357h34v-524h-33v72q-38 -83 -139 -83q-75 0 -117.5 46.5t-42.5 126.5v362h34zM334 720h30q0 -53 -35 -83t-93 -30t-93 30t-35 83h31q0 -41 26 -62.5t71 -21.5t71.5 22t26.5 62z" />
    <glyph glyph-name="Uring" unicode="&#x16e;" horiz-adv-x="581" 
d="M465 710h35v-505q0 -98 -57 -157t-152 -59t-152 59.5t-57 156.5v505h35v-504q0 -84 47 -133.5t127 -49.5t127 49.5t47 133.5v504zM288 775q-44 0 -70.5 24t-26.5 64q0 38 27 62.5t70 24.5t70.5 -24.5t27.5 -62.5q0 -40 -26.5 -64t-71.5 -24zM288 802q32 0 50.5 16
t18.5 45q0 26 -19 43t-50 17q-30 0 -49 -17t-19 -43q0 -29 18 -45t50 -16z" />
    <glyph glyph-name="uring" unicode="&#x16f;" horiz-adv-x="477" 
d="M104 524v-357q0 -69 34 -106.5t98 -37.5q63 0 97.5 37.5t34.5 106.5v357h34v-524h-33v72q-38 -83 -139 -83q-75 0 -117.5 46.5t-42.5 126.5v362h34zM236 589q-44 0 -70.5 24t-26.5 64q0 38 27 62.5t70 24.5t70.5 -24.5t27.5 -62.5q0 -40 -26.5 -64t-71.5 -24zM236 616
q32 0 50.5 16t18.5 45q0 26 -19 43t-50 17q-30 0 -49 -17t-19 -43q0 -29 18 -45t50 -16z" />
    <glyph glyph-name="Uhungarumlaut" unicode="&#x170;" horiz-adv-x="581" 
d="M465 710h35v-505q0 -98 -57 -157t-152 -59t-152 59.5t-57 156.5v505h35v-504q0 -84 47 -133.5t127 -49.5t127 49.5t47 133.5v504zM303 907l-73 -121h-37l72 121h38zM456 907l-77 -121h-36l73 121h40z" />
    <glyph glyph-name="uhungarumlaut" unicode="&#x171;" horiz-adv-x="477" 
d="M104 524v-357q0 -69 34 -106.5t98 -37.5q63 0 97.5 37.5t34.5 106.5v357h34v-524h-33v72q-38 -83 -139 -83q-75 0 -117.5 46.5t-42.5 126.5v362h34zM251 721l-73 -121h-37l72 121h38zM404 721l-77 -121h-36l73 121h40z" />
    <glyph glyph-name="Uogonek" unicode="&#x172;" horiz-adv-x="581" 
d="M465 710h35v-505q0 -71 -31 -123t-86 -76l-56 -62q-22 -27 -22 -46q0 -32 47 -32h27v-30h-31q-37 0 -56.5 16t-19.5 43q0 28 27 59l32 38q-19 -3 -40 -3q-95 0 -152 59.5t-57 156.5v505h35v-504q0 -84 47 -133.5t127 -49.5t127 49.5t47 133.5v504z" />
    <glyph glyph-name="uogonek" unicode="&#x173;" horiz-adv-x="477" 
d="M402 0h-1l-49 -56q-22 -27 -22 -46q0 -32 47 -32h27v-30h-31q-37 0 -56.5 16t-19.5 43q0 28 27 59l45 53v65q-38 -83 -139 -83q-75 0 -117.5 46.5t-42.5 126.5v362h34v-357q0 -69 34 -106.5t98 -37.5q61 0 95.5 35.5t36.5 101.5v364h34v-524z" />
    <glyph glyph-name="Wcircumflex" unicode="&#x174;" horiz-adv-x="808" 
d="M787 710l-185 -710h-36l-163 636l-161 -636h-37l-186 710h37l168 -643l162 643h34l163 -643l167 643h37zM271 786l117 120h30l117 -120h-42l-90 92l-90 -92h-42z" />
    <glyph glyph-name="wcircumflex" unicode="&#x175;" horiz-adv-x="673" 
d="M610 524h36l-144 -524h-32l-134 456l-134 -456h-32l-143 524h36l124 -466l135 466h29l134 -466zM206 600l117 120h30l117 -120h-42l-90 92l-90 -92h-42z" />
    <glyph glyph-name="Ycircumflex" unicode="&#x176;" horiz-adv-x="509" 
d="M500 710l-229 -336v-374h-35v375l-227 335h42l203 -301l203 301h43zM122 786l117 120h30l117 -120h-42l-90 92l-90 -92h-42z" />
    <glyph glyph-name="ycircumflex" unicode="&#x177;" horiz-adv-x="423" 
d="M411 524l-315 -691h-35l144 317l-176 374h37l156 -335l152 335h37zM89 600l117 120h30l117 -120h-42l-90 92l-90 -92h-42z" />
    <glyph glyph-name="Ydieresis" unicode="&#x178;" horiz-adv-x="509" 
d="M500 710l-229 -336v-374h-35v375l-227 335h42l203 -301l203 301h43zM190 875v-55h-55v55h55zM370 875v-55h-55v55h55z" />
    <glyph glyph-name="Zacute" unicode="&#x179;" horiz-adv-x="462" 
d="M425 710v-29l-351 -647h351v-34h-393v29l351 647h-342v34h384zM316 915l-79 -129h-37l76 129h40z" />
    <glyph glyph-name="zacute" unicode="&#x17a;" horiz-adv-x="390" 
d="M78 32h273v-32h-314v28l273 464h-267v32h308v-29zM281 729l-79 -129h-37l76 129h40z" />
    <glyph glyph-name="Zdotaccent" unicode="&#x17b;" horiz-adv-x="462" 
d="M425 710v-29l-351 -647h351v-34h-393v29l351 647h-342v34h384zM256 901v-57h-54v57h54z" />
    <glyph glyph-name="zdotaccent" unicode="&#x17c;" horiz-adv-x="390" 
d="M78 32h273v-32h-314v28l273 464h-267v32h308v-29zM221 715v-57h-54v57h54z" />
    <glyph glyph-name="Zcaron" unicode="&#x17d;" horiz-adv-x="462" 
d="M425 710v-29l-351 -647h351v-34h-393v29l351 647h-342v34h384zM362 907l-117 -121h-30l-117 121h42l90 -94l90 94h42z" />
    <glyph glyph-name="zcaron" unicode="&#x17e;" horiz-adv-x="390" 
d="M78 32h273v-32h-314v28l273 464h-267v32h308v-29zM327 721l-117 -121h-30l-117 121h42l90 -94l90 94h42z" />
    <glyph glyph-name="uni018F" unicode="&#x18f;" horiz-adv-x="558" 
d="M57 212v154h398v125q0 91 -47 143.5t-130 52.5q-81 0 -129 -49t-48 -131v-3h-36v4q0 97 57.5 155t155.5 58t155.5 -62t57.5 -166v-279q0 -100 -60 -162.5t-158 -62.5q-97 0 -156.5 62t-59.5 161zM273 23q83 0 132.5 52.5t49.5 140.5v116h-363v-117q0 -87 49.5 -139.5
t131.5 -52.5z" />
    <glyph glyph-name="florin" unicode="&#x192;" 
d="M405 380v-30h-127v-244q0 -48 -28 -77t-76 -29h-63v32h58q36 0 55.5 20t19.5 58v240h-127v30h127v224q0 48 28.5 77t76.5 29h63v-32h-58q-36 0 -56 -20t-20 -58v-220h127z" />
    <glyph glyph-name="uni0218" unicode="&#x218;" horiz-adv-x="529" 
d="M433 493v12q0 87 -45.5 134.5t-129.5 47.5q-70 0 -115.5 -41t-45.5 -106q0 -56 32.5 -90t105.5 -58l77 -23q86 -27 126 -71.5t40 -118.5q0 -82 -62 -136t-153 -54q-93 0 -155 59t-62 151v24h35v-24q0 -76 52 -126t130 -50t129 43.5t51 111.5q0 62 -34 99t-112 60l-75 23
q-82 24 -121.5 67t-39.5 112q0 80 55.5 131t141.5 51q98 0 154 -57t56 -159v-12h-35zM236 -177l27 74h-26v51h56v-45h-1l-28 -80h-28z" />
    <glyph glyph-name="uni0219" unicode="&#x219;" horiz-adv-x="432" 
d="M343 359v10q0 63 -34 97.5t-97 34.5q-56 0 -88.5 -30.5t-32.5 -72.5q0 -79 101 -108l52 -15q70 -20 105.5 -51.5t35.5 -90.5q0 -61 -47 -102.5t-121 -41.5t-122.5 46t-48.5 111v20h34v-14q0 -60 39 -94.5t98 -34.5q57 0 95.5 30.5t38.5 77.5q0 46 -28 70t-89 42l-52 15
q-125 36 -125 138q0 58 42.5 98t112.5 40q76 0 120.5 -43t44.5 -123v-9h-34zM189 -177l27 74h-26v51h56v-45h-1l-28 -80h-28z" />
    <glyph glyph-name="uni021A" unicode="&#x21a;" horiz-adv-x="466" 
d="M449 710v-34h-199v-676h-35v676h-197v34h431zM205 -177l27 74h-26v51h56v-45h-1l-28 -80h-28z" />
    <glyph glyph-name="uni021B" unicode="&#x21b;" horiz-adv-x="291" 
d="M257 491h-114v-379q0 -38 20.5 -58.5t56.5 -20.5h36v-33h-41q-48 0 -77 29.5t-29 77.5v384h-87v33h87v167h34v-167h114v-33zM152 -177l27 74h-26v51h56v-45h-1l-28 -80h-28z" />
    <glyph glyph-name="uni0232" unicode="&#x232;" horiz-adv-x="509" 
d="M500 710l-229 -336v-374h-35v375l-227 335h42l203 -301l203 301h43zM372 851v-31h-238v31h238z" />
    <glyph glyph-name="uni0233" unicode="&#x233;" horiz-adv-x="423" 
d="M411 524l-315 -691h-35l144 317l-176 374h37l156 -335l152 335h37zM339 665v-31h-238v31h238z" />
    <glyph glyph-name="uni0237" unicode="&#x237;" horiz-adv-x="184" 
d="M75 -61v585h34v-588q0 -45 -24.5 -72.5t-66.5 -27.5h-30v31h25q29 0 45.5 19t16.5 53z" />
    <glyph glyph-name="uni0259" unicode="&#x259;" horiz-adv-x="463" 
d="M229 -11q-81 0 -127.5 48.5t-46.5 125.5v100h314v96q0 65 -36.5 103.5t-103.5 38.5t-103.5 -36t-36.5 -97v-10h-34v11q0 74 46.5 119.5t127.5 45.5q80 0 127 -48.5t47 -124.5v-191q0 -82 -46.5 -131.5t-127.5 -49.5zM229 23q67 0 103.5 39.5t36.5 109.5v59h-280v-66
q0 -65 36.5 -103.5t103.5 -38.5z" />
    <glyph glyph-name="uni02BB" unicode="&#x2bb;" horiz-adv-x="208" 
d="M138 710v-52l-37 -117h-28l35 110h-31v59h61z" />
    <glyph glyph-name="uni02BC" unicode="&#x2bc;" horiz-adv-x="208" 
d="M70 541v52l37 117h28l-35 -110h31v-59h-61z" />
    <glyph glyph-name="circumflex" unicode="&#x2c6;" horiz-adv-x="600" 
d="M222 600l117 120h30l117 -120h-42l-90 92l-90 -92h-42z" />
    <glyph glyph-name="caron" unicode="&#x2c7;" horiz-adv-x="600" 
d="M470 721l-117 -121h-30l-117 121h42l90 -94l90 94h42z" />
    <glyph glyph-name="breve" unicode="&#x2d8;" horiz-adv-x="600" 
d="M319 720h30q0 -53 -35 -83t-93 -30t-93 30t-35 83h31q0 -41 26 -62.5t71 -21.5t71.5 22t26.5 62z" />
    <glyph glyph-name="dotaccent" unicode="&#x2d9;" horiz-adv-x="568" 
d="M92 715v-57h-54v57h54z" />
    <glyph glyph-name="ring" unicode="&#x2da;" horiz-adv-x="602" 
d="M318 589q-44 0 -70.5 24t-26.5 64q0 38 27 62.5t70 24.5t70.5 -24.5t27.5 -62.5q0 -40 -26.5 -64t-71.5 -24zM318 616q32 0 50.5 16t18.5 45q0 26 -19 43t-50 17q-30 0 -49 -17t-19 -43q0 -29 18 -45t50 -16z" />
    <glyph glyph-name="ogonek" unicode="&#x2db;" horiz-adv-x="283" 
d="M185 19l22 -19l-49 -56q-22 -27 -22 -46q0 -32 47 -32h27v-30h-31q-37 0 -56.5 16t-19.5 43q0 28 27 59z" />
    <glyph glyph-name="tilde" unicode="&#x2dc;" horiz-adv-x="601" 
d="M337 701h30q0 -37 -18.5 -62t-47.5 -25q-27 0 -74 33q-7 4 -18 11.5t-17 10.5t-13.5 6t-14.5 3q-17 0 -27 -16t-10 -42h-30q0 38 18.5 62.5t47.5 24.5q25 0 74 -33q44 -30 63 -30q16 0 26.5 15.5t10.5 41.5z" />
    <glyph glyph-name="hungarumlaut" unicode="&#x2dd;" horiz-adv-x="600" 
d="M207 721l-73 -121h-37l72 121h38zM360 721l-77 -121h-36l73 121h40z" />
    <glyph glyph-name="uni0312" unicode="&#x312;" horiz-adv-x="0" 
d="M-449 726l-25 -76h26v-50h-56v44l27 82h28z" />
    <glyph glyph-name="uni0326" unicode="&#x326;" horiz-adv-x="600" 
d="M257 -177l27 74h-26v51h56v-45h-1l-28 -80h-28z" />
    <glyph glyph-name="uni0394" unicode="&#x394;" horiz-adv-x="512" 
d="M489 0h-467v27l216 683h34l217 -683v-27zM255 654l-194 -620h388z" />
    <glyph glyph-name="uni03A9" unicode="&#x3a9;" horiz-adv-x="562" 
d="M57 34h140v126q-64 23 -100 79t-36 134v122q0 101 60 163.5t160 62.5t160 -62.5t60 -163.5v-122q0 -77 -36 -133t-99 -79v-127h140v-34h-173v187q63 15 97.5 64.5t34.5 123.5v118q0 87 -50 140.5t-134 53.5q-86 0 -135.5 -53t-49.5 -141v-118q0 -75 35 -124t98 -64h1
v-187h-173v34z" />
    <glyph glyph-name="uni03BC" unicode="&#x3bc;" horiz-adv-x="482" 
d="M373 167v357h34v-524h-33v72q-38 -83 -139 -83q-86 0 -126 65v-219h-34v689h34v-357q0 -69 34 -106.5t98 -37.5q63 0 97.5 37.5t34.5 106.5z" />
    <glyph glyph-name="pi" unicode="&#x3c0;" horiz-adv-x="466" 
d="M391 524v-524h-34v491h-248v-491h-34v524h316z" />
    <glyph glyph-name="Wgrave" unicode="&#x1e80;" horiz-adv-x="808" 
d="M787 710l-185 -710h-36l-163 636l-161 -636h-37l-186 710h37l168 -643l162 643h34l163 -643l167 643h37zM309 915h41l75 -129h-37z" />
    <glyph glyph-name="wgrave" unicode="&#x1e81;" horiz-adv-x="673" 
d="M610 524h36l-144 -524h-32l-134 456l-134 -456h-32l-143 524h36l124 -466l135 466h29l134 -466zM243 729h41l75 -129h-37z" />
    <glyph glyph-name="Wacute" unicode="&#x1e82;" horiz-adv-x="808" 
d="M787 710l-185 -710h-36l-163 636l-161 -636h-37l-186 710h37l168 -643l162 643h34l163 -643l167 643h37zM490 915l-79 -129h-37l76 129h40z" />
    <glyph glyph-name="wacute" unicode="&#x1e83;" horiz-adv-x="673" 
d="M610 524h36l-144 -524h-32l-134 456l-134 -456h-32l-143 524h36l124 -466l135 466h29l134 -466zM424 729l-79 -129h-37l76 129h40z" />
    <glyph glyph-name="Wdieresis" unicode="&#x1e84;" horiz-adv-x="808" 
d="M787 710l-185 -710h-36l-163 636l-161 -636h-37l-186 710h37l168 -643l162 643h34l163 -643l167 643h37zM340 875v-55h-55v55h55zM520 875v-55h-55v55h55z" />
    <glyph glyph-name="wdieresis" unicode="&#x1e85;" horiz-adv-x="673" 
d="M610 524h36l-144 -524h-32l-134 456l-134 -456h-32l-143 524h36l124 -466l135 466h29l134 -466zM274 689v-55h-55v55h55zM454 689v-55h-55v55h55z" />
    <glyph glyph-name="Ygrave" unicode="&#x1ef2;" horiz-adv-x="509" 
d="M500 710l-229 -336v-374h-35v375l-227 335h42l203 -301l203 301h43zM160 915h41l75 -129h-37z" />
    <glyph glyph-name="ygrave" unicode="&#x1ef3;" horiz-adv-x="423" 
d="M411 524l-315 -691h-35l144 317l-176 374h37l156 -335l152 335h37zM127 729h41l75 -129h-37z" />
    <glyph glyph-name="uni2007" unicode="&#x2007;" 
 />
    <glyph glyph-name="uni2008" unicode="&#x2008;" horiz-adv-x="171" 
 />
    <glyph glyph-name="uni2009" unicode="&#x2009;" horiz-adv-x="100" 
 />
    <glyph glyph-name="uni200B" unicode="&#x200b;" horiz-adv-x="0" 
 />
    <glyph glyph-name="uni2010" unicode="&#x2010;" horiz-adv-x="327" 
d="M60 337h207v-34h-207v34z" />
    <glyph glyph-name="uni2011" unicode="&#x2011;" horiz-adv-x="327" 
d="M60 337h207v-34h-207v34z" />
    <glyph glyph-name="figuredash" unicode="&#x2012;" 
d="M76 336h347v-32h-347v32z" />
    <glyph glyph-name="endash" unicode="&#x2013;" horiz-adv-x="467" 
d="M59 336h347v-32h-347v32z" />
    <glyph glyph-name="emdash" unicode="&#x2014;" horiz-adv-x="569" 
d="M59 336h450v-32h-450v32z" />
    <glyph glyph-name="quoteleft" unicode="&#x2018;" horiz-adv-x="180" 
d="M57 541v52l37 117h28l-35 -110h31v-59h-61z" />
    <glyph glyph-name="quoteright" unicode="&#x2019;" horiz-adv-x="177" 
d="M125 710v-52l-37 -117h-28l35 110h-31v59h61z" />
    <glyph glyph-name="quotesinglbase" unicode="&#x201a;" horiz-adv-x="181" 
d="M121 59v-52l-37 -117h-28l35 110h-31v59h61z" />
    <glyph glyph-name="quotedblleft" unicode="&#x201c;" horiz-adv-x="307" 
d="M57 541v52l37 117h28l-35 -110h31v-59h-61zM184 541v52l37 117h28l-35 -110h31v-59h-61z" />
    <glyph glyph-name="quotedblright" unicode="&#x201d;" horiz-adv-x="304" 
d="M252 710v-52l-37 -117h-28l35 110h-31v59h61zM125 710v-52l-37 -117h-28l35 110h-31v59h61z" />
    <glyph glyph-name="quotedblbase" unicode="&#x201e;" horiz-adv-x="308" 
d="M248 59v-52l-37 -117h-28l35 110h-31v59h61zM121 59v-52l-37 -117h-28l35 110h-31v59h61z" />
    <glyph glyph-name="dagger" unicode="&#x2020;" horiz-adv-x="315" 
d="M173 418h-31v190h-80v29h80v72h31v-72h80v-29h-80v-190z" />
    <glyph glyph-name="daggerdbl" unicode="&#x2021;" horiz-adv-x="315" 
d="M173 418h-31v71h-80v29h80v91h-80v29h80v71h31v-71h80v-29h-80v-91h80v-29h-80v-71z" />
    <glyph glyph-name="bullet" unicode="&#x2022;" horiz-adv-x="293" 
d="M202 377v-112h-111v112h111z" />
    <glyph glyph-name="ellipsis" unicode="&#x2026;" horiz-adv-x="524" 
d="M278 60v-60h-59v60h59zM454 60v-60h-59v60h59zM103 60v-60h-59v60h59z" />
    <glyph glyph-name="perthousand" unicode="&#x2030;" horiz-adv-x="849" 
d="M151 486q-50 0 -83 32.5t-33 82.5t33 82.5t83 32.5q49 0 82 -32.5t33 -82.5t-33 -82.5t-82 -32.5zM151 516q37 0 60.5 24t23.5 61t-23.5 61t-60.5 24t-61 -24t-24 -61t24 -61t61 -24zM420 -7q-50 0 -83 33t-33 83q0 48 33.5 81.5t82.5 33.5q48 0 81.5 -33.5t33.5 -81.5
q0 -49 -33.5 -82.5t-81.5 -33.5zM420 23q37 0 60.5 24.5t23.5 61.5t-23.5 61t-60.5 24t-61 -24t-24 -61t24 -61.5t61 -24.5zM450 710h36l-370 -710h-36zM707 -7q-50 0 -83 33t-33 83q0 48 33.5 81.5t82.5 33.5q48 0 81.5 -33.5t33.5 -81.5q0 -49 -33.5 -82.5t-81.5 -33.5z
M707 23q37 0 60.5 24.5t23.5 61.5t-23.5 61t-60.5 24t-61 -24t-24 -61t24 -61.5t61 -24.5z" />
    <glyph glyph-name="minute" unicode="&#x2032;" horiz-adv-x="174" 
d="M88 710h34l-32 -231h-34z" />
    <glyph glyph-name="second" unicode="&#x2033;" horiz-adv-x="314" 
d="M228 710h34l-32 -231h-34zM88 710h34l-32 -231h-34z" />
    <glyph glyph-name="uni2034" unicode="&#x2034;" horiz-adv-x="408" 
d="M205 710h34l-32 -231h-34zM322 710h34l-32 -231h-34zM88 710h34l-32 -231h-34z" />
    <glyph glyph-name="guilsinglleft" unicode="&#x2039;" horiz-adv-x="277" 
d="M175 500l23 -20l-141 -160l141 -160l-23 -20l-159 180z" />
    <glyph glyph-name="guilsinglright" unicode="&#x203a;" horiz-adv-x="277" 
d="M80 140l-23 20l141 160l-141 160l23 20l159 -180z" />
    <glyph glyph-name="fraction" unicode="&#x2044;" horiz-adv-x="93" 
d="M236 710h34l-411 -710h-34z" />
    <glyph glyph-name="Euro" unicode="&#x20ac;" 
d="M341 281h-196v-113q0 -66 35.5 -105.5t95.5 -39.5t95.5 39.5t35.5 105.5v57h35v-57q0 -80 -45.5 -129.5t-120.5 -49.5q-74 0 -120 49.5t-46 129.5v113h-70v30h70v108h-70v30h70v94q0 80 46 129t120 49q75 0 120.5 -49t45.5 -129v-39h-35v39q0 66 -35.5 105t-95.5 39
t-95.5 -39t-35.5 -105v-94h196v-30h-196v-108h196v-30z" />
    <glyph glyph-name="uni20BA" unicode="&#x20ba;" 
d="M370 323l-196 -65v-224h96q63 0 99.5 38t36.5 101v61h35v-62q0 -78 -46.5 -125t-124.5 -47h-131v246l-70 -23v32l70 23v108l-70 -23v32l70 23v292h35v-280l196 65v-32l-196 -65v-108l196 65v-32z" />
    <glyph glyph-name="uni20BC" unicode="&#x20bc;" 
d="M235 0v689q-59 -5 -93.5 -46t-34.5 -107v-536h-34v536q0 79 44 129.5t118 54.5v110h31v-110q72 -6 116 -56t44 -128v-536h-34v536q0 66 -34 106.5t-92 46.5v-689h-31z" />
    <glyph glyph-name="uni2117" unicode="&#x2117;" horiz-adv-x="637" 
d="M318 87q-112 0 -187 77t-75 191t75 191t187 77t187 -77t75 -191t-75 -191t-187 -77zM319 115q100 0 166 68t66 172t-66 172t-166 68q-101 0 -167 -68t-66 -172t66 -172t167 -68zM253 519h88q43 0 69.5 -25t26.5 -69t-26.5 -69t-69.5 -25h-58v-136h-30v324zM341 490h-58
v-131h58q30 0 47.5 18t17.5 48t-17.5 47.5t-47.5 17.5z" />
    <glyph glyph-name="trademark" unicode="&#x2122;" horiz-adv-x="563" 
d="M370 521l-80 127v-228h-29v290h23l90 -146l91 146h23v-290h-29v230l-81 -129h-8zM222 710v-28h-78v-262h-29v262h-78v28h185z" />
    <glyph glyph-name="onethird" unicode="&#x2153;" horiz-adv-x="517" 
d="M439 710h34l-411 -710h-34zM494 297l-88 -108h8q39 0 63 -24.5t24 -63.5v-18q0 -39 -25 -64t-66 -25t-66 25t-25 64v7h29v-7q0 -28 17 -44t45 -16q27 0 44 16.5t17 43.5v18q0 27 -16.5 43.5t-45.5 16.5h-41v22l89 110h-130v29h167v-25zM165 415v-28h-139v28h56v267h-61
v28h91v-295h53z" />
    <glyph glyph-name="twothirds" unicode="&#x2154;" horiz-adv-x="551" 
d="M464 710h34l-411 -710h-34zM519 297l-88 -108h8q39 0 63 -24.5t24 -63.5v-18q0 -39 -25 -64t-66 -25t-66 25t-25 64v7h29v-7q0 -28 17 -44t45 -16q27 0 44 16.5t17 43.5v18q0 27 -16.5 43.5t-45.5 16.5h-41v22l89 110h-130v29h167v-25zM203 415v-28h-172v25l124 171
q14 17 14 44t-16 43.5t-42 16.5t-42.5 -16.5t-16.5 -43.5v-11h-29v11q0 38 25 63t63 25t63 -25t25 -63q0 -31 -19 -59l-112 -153h135z" />
    <glyph glyph-name="arrowleft" unicode="&#x2190;" horiz-adv-x="600" 
d="M222 227l-134 93l134 93v-77h275v-32h-275v-77z" />
    <glyph glyph-name="arrowup" unicode="&#x2191;" horiz-adv-x="600" 
d="M206 386l93 134l94 -134h-78v-276h-32v276h-77z" />
    <glyph glyph-name="arrowright" unicode="&#x2192;" horiz-adv-x="600" 
d="M378 413l134 -93l-134 -93v77h-276v32h276v77z" />
    <glyph glyph-name="arrowdown" unicode="&#x2193;" horiz-adv-x="600" 
d="M393 254l-94 -134l-93 134h77v276h32v-276h78z" />
    <glyph glyph-name="uni2196" unicode="&#x2196;" horiz-adv-x="600" 
d="M181 300l-29 161l161 -29l-55 -55l195 -194l-23 -23l-195 194z" />
    <glyph glyph-name="uni2197" unicode="&#x2197;" horiz-adv-x="600" 
d="M284 432l161 29l-29 -161l-55 54l-194 -194l-23 23l194 194z" />
    <glyph glyph-name="uni2198" unicode="&#x2198;" horiz-adv-x="600" 
d="M417 334l29 -161l-161 29l54 54l-194 195l23 23l194 -195z" />
    <glyph glyph-name="uni2199" unicode="&#x2199;" horiz-adv-x="600" 
d="M315 202l-161 -29l29 161l54 -55l195 195l23 -23l-195 -195z" />
    <glyph glyph-name="partialdiff" unicode="&#x2202;" horiz-adv-x="469" 
d="M94 729l258 -235q56 -53 56 -141v-183q0 -82 -47 -131.5t-128 -49.5q-80 0 -127 49.5t-47 131.5v183q0 81 47 130.5t127 49.5q8 0 30 -2l-217 198h48zM374 172v179q0 70 -36.5 110t-103.5 40q-68 0 -104.5 -40t-36.5 -110v-179q0 -69 36.5 -109t104.5 -40q67 0 103.5 40
t36.5 109z" />
    <glyph glyph-name="emptyset" unicode="&#x2205;" horiz-adv-x="463" 
d="M83 147l-22 21l45 45q-38 46 -38 107q0 69 48.5 117.5t117.5 48.5q59 0 106 -39l46 46l22 -21l-46 -46q38 -46 38 -106q0 -69 -48.5 -117.5t-117.5 -48.5q-62 0 -106 38zM99 320q0 -50 29 -85l190 190q-36 30 -84 30q-56 0 -95.5 -39.5t-39.5 -95.5zM234 185
q56 0 95.5 39.5t39.5 95.5q0 49 -29 84l-190 -190q35 -29 84 -29z" />
    <glyph glyph-name="product" unicode="&#x220f;" horiz-adv-x="573" 
d="M92 710h388v-874h-35v840h-318v-840h-35v874z" />
    <glyph glyph-name="summation" unicode="&#x2211;" horiz-adv-x="440" 
d="M395 710v-34h-319l220 -396l-224 -410h334v-34h-376v29l226 415l-222 400v30h361z" />
    <glyph glyph-name="minus" unicode="&#x2212;" 
d="M97 335h305v-30h-305v30z" />
    <glyph glyph-name="radical" unicode="&#x221a;" horiz-adv-x="490" 
d="M477 729l-268 -729h-33l-153 363h37l131 -314l249 680h37z" />
    <glyph glyph-name="infinity" unicode="&#x221e;" horiz-adv-x="679" 
d="M621 320q0 -64 -35.5 -105.5t-89.5 -41.5q-39 0 -72.5 28.5t-84.5 93.5q-51 -65 -84.5 -93.5t-72.5 -28.5q-55 0 -89.5 41.5t-34.5 105.5t34.5 105.5t89.5 41.5q39 0 72.5 -28.5t84.5 -93.5q51 65 84.5 93.5t72.5 28.5q54 0 89.5 -41.5t35.5 -105.5zM89 320
q0 -52 25.5 -84.5t67.5 -32.5q30 0 59 26t79 91q-50 65 -79 91t-59 26q-42 0 -67.5 -32.5t-25.5 -84.5zM589 320q0 52 -25.5 84.5t-67.5 32.5q-30 0 -57 -25t-81 -92h1l-1 -1q53 -67 80.5 -91.5t57.5 -24.5q42 0 67.5 32.5t25.5 84.5z" />
    <glyph glyph-name="integral" unicode="&#x222b;" horiz-adv-x="272" 
d="M223 709h33v-32h-28q-36 0 -56 -19.5t-20 -57.5v-659q0 -48 -28 -76.5t-76 -28.5h-33v32h28q75 0 75 77v659q0 46 29 75.5t76 29.5z" />
    <glyph glyph-name="approxequal" unicode="&#x2248;" 
d="M382 302h30v-5q0 -45 -21 -72t-54 -27q-34 0 -93 42q-55 36 -75 36t-33 -21t-13 -53h-30v5q0 45 21 72t54 27t94 -42q49 -36 74 -36q20 0 33 21t13 53zM382 455h30v-5q0 -45 -21 -72t-54 -27q-34 0 -93 42q-55 36 -75 36t-33 -21t-13 -53h-30v5q0 45 21 72t54 27t94 -42
q49 -36 74 -36q20 0 33 21t13 53z" />
    <glyph glyph-name="notequal" unicode="&#x2260;" 
d="M105 385v30h162l45 123h32l-45 -123h95v-30h-106l-47 -130h153v-30h-164l-44 -122h-32l44 122h-93v30h104l47 130h-151z" />
    <glyph glyph-name="lessequal" unicode="&#x2264;" 
d="M104 345v25l289 137v-34l-248 -116l248 -114v-34zM104 158h290v-31h-290v31z" />
    <glyph glyph-name="greaterequal" unicode="&#x2265;" 
d="M395 345l-289 -136v34l248 114l-248 116v34l289 -137v-25zM106 158h290v-31h-290v31z" />
    <glyph glyph-name="lozenge" unicode="&#x25ca;" horiz-adv-x="567" 
d="M268 0l-244 355l244 355h31l242 -355l-242 -355h-31zM499 355l-216 317l-216 -317l217 -316z" />
    <glyph glyph-name="fi" unicode="&#xfb01;" horiz-adv-x="462" 
d="M258 524v-33h-115v-491h-34v491h-86v33h86v100q0 48 28.5 77t76.5 29h44v-32h-40q-36 0 -55.5 -20t-19.5 -58v-96h115zM387 524v-524h-34v524h34zM397 715v-57h-54v57h54z" />
    <glyph glyph-name="fl" unicode="&#xfb02;" horiz-adv-x="462" 
d="M258 524v-33h-115v-491h-34v491h-86v33h86v100q0 48 28.5 77t76.5 29h44v-32h-40q-36 0 -55.5 -20t-19.5 -58v-96h115zM353 729h34v-729h-34v729z" />
    <glyph glyph-name="uniFEFF" unicode="&#xfeff;" horiz-adv-x="0" 
 />
    <glyph glyph-name="_126" horiz-adv-x="516" 
d="M501 0h-37l-67 210h-278l-65 -210h-38l225 710h34zM257 654l-127 -409h256zM432 710v-57h-54v57h54zM136 710v-57h-54v57h54z" />
    <glyph glyph-name="_127" horiz-adv-x="574" 
d="M287 721q100 0 160 -62.5t60 -163.5v-280q0 -101 -60 -163.5t-160 -62.5t-160 62.5t-60 163.5v280q0 101 60 163.5t160 62.5zM287 687q-86 0 -135.5 -53t-49.5 -141v-277q0 -88 50 -140.5t135 -52.5q84 0 134 53t50 140v277q0 87 -50 140.5t-134 53.5zM313 585v-57h-54
v57h54zM313 440v-57h-54v57h54z" />
    <glyph glyph-name="_128" horiz-adv-x="581" 
d="M465 710h35v-505q0 -98 -57 -157t-152 -59t-152 59.5t-57 156.5v505h35v-504q0 -84 47 -133.5t127 -49.5t127 49.5t47 133.5v504zM317 710v-57h-54v57h54zM317 566v-57h-54v57h54z" />
    <glyph glyph-name="_129" horiz-adv-x="550" 
d="M86 710h201q91 0 144 -50t53 -130q0 -57 -28.5 -99.5t-80.5 -62.5q58 -19 90.5 -65.5t32.5 -110.5q0 -84 -54 -138t-142 -54h-216v710zM301 346h-180v-312h180q73 0 117.5 43.5t44.5 114.5q0 69 -44.5 111.5t-117.5 42.5zM286 676h-165v-296h165q74 0 118 41t44 108
q0 66 -44 106.5t-118 40.5z" />
    <glyph glyph-name="_130" horiz-adv-x="557" 
d="M284 23q84 0 132.5 52t48.5 140v107h-184v34h220v-144q0 -99 -60 -161t-157 -62q-98 0 -157.5 62.5t-59.5 162.5v279q0 104 57.5 166t155.5 62q96 0 154 -58.5t58 -154.5v-4h-35v3q0 82 -48 131t-129 49q-84 0 -131 -52.5t-47 -143.5v-275q0 -87 50 -140t132 -53z" />
    <glyph glyph-name="_131" horiz-adv-x="557" 
d="M284 23q84 0 132.5 52t48.5 140v107h-184v34h220v-144q0 -99 -60 -161t-157 -62q-98 0 -157.5 62.5t-59.5 162.5v279q0 104 57.5 166t155.5 62q96 0 154 -58.5t58 -154.5v-4h-35v3q0 82 -48 131t-129 49q-84 0 -131 -52.5t-47 -143.5v-275q0 -87 50 -140t132 -53z
M378 906h30q0 -53 -35 -83t-93 -30t-93 30t-35 83h31q0 -41 26 -62.5t71 -21.5t71.5 22t26.5 62z" />
    <glyph glyph-name="_132" horiz-adv-x="557" 
d="M284 23q84 0 132.5 52t48.5 140v107h-184v34h220v-144q0 -99 -60 -161t-157 -62q-98 0 -157.5 62.5t-59.5 162.5v279q0 104 57.5 166t155.5 62q96 0 154 -58.5t58 -154.5v-4h-35v3q0 82 -48 131t-129 49q-84 0 -131 -52.5t-47 -143.5v-275q0 -87 50 -140t132 -53z
M258 -177l27 74h-26v51h56v-45h-1l-28 -80h-28z" />
    <glyph glyph-name="_133" horiz-adv-x="557" 
d="M284 23q84 0 132.5 52t48.5 140v107h-184v34h220v-144q0 -99 -60 -161t-157 -62q-98 0 -157.5 62.5t-59.5 162.5v279q0 104 57.5 166t155.5 62q96 0 154 -58.5t58 -154.5v-4h-35v3q0 82 -48 131t-129 49q-84 0 -131 -52.5t-47 -143.5v-275q0 -87 50 -140t132 -53z
M307 901v-57h-54v57h54z" />
    <glyph glyph-name="_134" horiz-adv-x="523" 
d="M86 710h184q91 0 145.5 -53.5t54.5 -136.5q0 -78 -47 -131t-127 -61l193 -328h-41l-191 327h-136v-327h-35v710zM270 676h-149v-315h149q75 0 119.5 43.5t44.5 115.5q0 70 -44.5 113t-119.5 43z" />
    <glyph glyph-name="_135" horiz-adv-x="523" 
d="M86 710h184q91 0 145.5 -53.5t54.5 -136.5q0 -78 -47 -131t-127 -61l193 -328h-41l-191 327h-136v-327h-35v710zM270 676h-149v-315h149q75 0 119.5 43.5t44.5 115.5q0 70 -44.5 113t-119.5 43zM347 915l-79 -129h-37l76 129h40z" />
    <glyph glyph-name="_136" horiz-adv-x="523" 
d="M86 710h184q91 0 145.5 -53.5t54.5 -136.5q0 -78 -47 -131t-127 -61l193 -328h-41l-191 327h-136v-327h-35v710zM270 676h-149v-315h149q75 0 119.5 43.5t44.5 115.5q0 70 -44.5 113t-119.5 43zM393 907l-117 -121h-30l-117 121h42l90 -94l90 94h42z" />
    <glyph glyph-name="_137" horiz-adv-x="523" 
d="M86 710h184q91 0 145.5 -53.5t54.5 -136.5q0 -78 -47 -131t-127 -61l193 -328h-41l-191 327h-136v-327h-35v710zM270 676h-149v-315h149q75 0 119.5 43.5t44.5 115.5q0 70 -44.5 113t-119.5 43zM251 -177l27 74h-26v51h56v-45h-1l-28 -80h-28z" />
    <glyph glyph-name="_266" horiz-adv-x="477" 
d="M370 524h33v-524h-33v71q-40 -82 -144 -82q-76 0 -121 48.5t-45 125.5v198q0 76 45 124.5t121 48.5q104 0 144 -82v72zM231 501q-65 0 -101 -39t-36 -103v-194q0 -64 36 -103t101 -39t101 39t36 103v194q0 64 -36 103t-101 39z" />
    <glyph glyph-name="_267" horiz-adv-x="477" 
d="M370 524h33v-524h-33v71q-40 -82 -144 -82q-76 0 -121 48.5t-45 125.5v198q0 76 45 124.5t121 48.5q104 0 144 -82v72zM231 501q-65 0 -101 -39t-36 -103v-194q0 -64 36 -103t101 -39t101 39t36 103v194q0 64 -36 103t-101 39zM323 729l-79 -129h-37l76 129h40z" />
    <glyph glyph-name="_268" horiz-adv-x="477" 
d="M370 524h33v-524h-33v71q-40 -82 -144 -82q-76 0 -121 48.5t-45 125.5v198q0 76 45 124.5t121 48.5q104 0 144 -82v72zM231 501q-65 0 -101 -39t-36 -103v-194q0 -64 36 -103t101 -39t101 39t36 103v194q0 64 -36 103t-101 39zM334 720h30q0 -53 -35 -83t-93 -30t-93 30
t-35 83h31q0 -41 26 -62.5t71 -21.5t71.5 22t26.5 62z" />
    <glyph glyph-name="_269" horiz-adv-x="477" 
d="M370 524h33v-524h-33v71q-40 -82 -144 -82q-76 0 -121 48.5t-45 125.5v198q0 76 45 124.5t121 48.5q104 0 144 -82v72zM231 501q-65 0 -101 -39t-36 -103v-194q0 -64 36 -103t101 -39t101 39t36 103v194q0 64 -36 103t-101 39zM105 600l117 120h30l117 -120h-42l-90 92
l-90 -92h-42z" />
    <glyph glyph-name="_270" horiz-adv-x="477" 
d="M370 524h33v-524h-33v71q-40 -82 -144 -82q-76 0 -121 48.5t-45 125.5v198q0 76 45 124.5t121 48.5q104 0 144 -82v72zM231 501q-65 0 -101 -39t-36 -103v-194q0 -64 36 -103t101 -39t101 39t36 103v194q0 64 -36 103t-101 39zM173 689v-55h-55v55h55zM353 689v-55h-55
v55h55z" />
    <glyph glyph-name="_271" horiz-adv-x="477" 
d="M370 524h33v-524h-33v71q-40 -82 -144 -82q-76 0 -121 48.5t-45 125.5v198q0 76 45 124.5t121 48.5q104 0 144 -82v72zM231 501q-65 0 -101 -39t-36 -103v-194q0 -64 36 -103t101 -39t101 39t36 103v194q0 64 -36 103t-101 39zM143 729h41l75 -129h-37z" />
    <glyph glyph-name="_272" horiz-adv-x="477" 
d="M370 524h33v-524h-33v71q-40 -82 -144 -82q-76 0 -121 48.5t-45 125.5v198q0 76 45 124.5t121 48.5q104 0 144 -82v72zM231 501q-65 0 -101 -39t-36 -103v-194q0 -64 36 -103t101 -39t101 39t36 103v194q0 64 -36 103t-101 39zM355 665v-31h-238v31h238z" />
    <glyph glyph-name="_273" horiz-adv-x="477" 
d="M370 524h33v-524h-1l-49 -56q-22 -27 -22 -46q0 -32 47 -32h27v-30h-31q-37 0 -56.5 16t-19.5 43q0 28 27 59l45 53v64q-40 -82 -144 -82q-76 0 -121 48.5t-45 125.5v198q0 76 45 124.5t121 48.5q104 0 144 -82v72zM231 501q-65 0 -101 -39t-36 -103v-194q0 -64 36 -103
t101 -39t101 39t36 103v194q0 64 -36 103t-101 39z" />
    <glyph glyph-name="_274" horiz-adv-x="477" 
d="M370 524h33v-524h-33v71q-40 -82 -144 -82q-76 0 -121 48.5t-45 125.5v198q0 76 45 124.5t121 48.5q104 0 144 -82v72zM231 501q-65 0 -101 -39t-36 -103v-194q0 -64 36 -103t101 -39t101 39t36 103v194q0 64 -36 103t-101 39zM236 589q-44 0 -70.5 24t-26.5 64
q0 38 27 62.5t70 24.5t70.5 -24.5t27.5 -62.5q0 -40 -26.5 -64t-71.5 -24zM236 616q32 0 50.5 16t18.5 45q0 26 -19 43t-50 17q-30 0 -49 -17t-19 -43q0 -29 18 -45t50 -16z" />
    <glyph glyph-name="_275" horiz-adv-x="477" 
d="M370 524h33v-524h-33v71q-40 -82 -144 -82q-76 0 -121 48.5t-45 125.5v198q0 76 45 124.5t121 48.5q104 0 144 -82v72zM231 501q-65 0 -101 -39t-36 -103v-194q0 -64 36 -103t101 -39t101 39t36 103v194q0 64 -36 103t-101 39zM341 701h30q0 -37 -18.5 -62t-47.5 -25
q-27 0 -74 33q-7 4 -18 11.5t-17 10.5t-13.5 6t-14.5 3q-17 0 -27 -16t-10 -42h-30q0 38 18.5 62.5t47.5 24.5q25 0 74 -33q44 -30 63 -30q16 0 26.5 15.5t10.5 41.5z" />
    <glyph glyph-name="_294" horiz-adv-x="441" 
d="M402 703v-30l-102 -293h89v-34h-101l-121 -346h-38l122 347h-123v33h134l102 289h-291v-121h-35v155h364z" />
    <glyph glyph-name="_295" 
d="M432 703v-30l-102 -293h89v-34h-101l-121 -346h-38l122 347h-123v33h134l102 289h-291v-121h-35v155h364z" />
    <glyph glyph-name="_296" horiz-adv-x="250" 
d="M125 140q-29 0 -46 -17.5t-17 -46.5v-149q0 -29 17 -46.5t46 -17.5t46.5 17.5t17.5 46.5v149q0 29 -17.5 46.5t-46.5 17.5zM125 168q42 0 67.5 -25.5t25.5 -66.5v-149q0 -41 -25.5 -67t-67.5 -26q-41 0 -66.5 26t-25.5 67v149q0 41 25.5 66.5t66.5 25.5z" />
    <glyph glyph-name="_297" horiz-adv-x="180" 
d="M164 -132v-28h-139v28h56v267h-61v28h91v-295h53z" />
    <glyph glyph-name="_298" horiz-adv-x="228" 
d="M205 -132v-28h-172v25l124 171q14 17 14 44t-16 43.5t-42 16.5t-42.5 -16.5t-16.5 -43.5v-11h-29v11q0 38 25 63t63 25t63 -25t25 -63q0 -31 -19 -59l-112 -153h135z" />
    <glyph glyph-name="_299" horiz-adv-x="230" 
d="M198 137l-88 -108h8q39 0 63 -24.5t24 -63.5v-18q0 -39 -25 -64t-66 -25t-66 25t-25 64v7h29v-7q0 -28 17 -44t45 -16q27 0 44 16.5t17 43.5v18q0 27 -16.5 43.5t-45.5 16.5h-41v22l89 110h-130v29h167v-25z" />
    <glyph glyph-name="_300" horiz-adv-x="240" 
d="M217 -54v-29h-46v-77h-29v77h-131v24l111 221h34l-110 -216h96v77h29v-77h46z" />
    <glyph glyph-name="_301" horiz-adv-x="240" 
d="M123 52q38 0 62 -25t24 -64v-40q0 -39 -25 -64t-66 -25t-66 23.5t-25 60.5v1h29v-1q0 -25 16.5 -40t45.5 -15q28 0 45 16.5t17 43.5v39q0 28 -16.5 44.5t-43.5 16.5q-28 0 -45 -14t-17 -38v-4h-28v196h169v-28h-139v-107q22 24 63 24z" />
    <glyph glyph-name="_302" horiz-adv-x="238" 
d="M121 27q41 1 68.5 -26.5t27.5 -69.5t-28.5 -69t-71.5 -27q-44 0 -72 27t-28 69q0 28 16 55l111 177h34l-90 -141q18 5 33 5zM116 0q-30 0 -50 -19.5t-20 -49.5t19.5 -49t50.5 -19t51 19t20 49q0 31 -20 50t-51 19z" />
    <glyph glyph-name="_303" horiz-adv-x="215" 
d="M196 161v-25l-110 -296h-31l107 292h-117v-49h-29v78h180z" />
    <glyph glyph-name="_304" horiz-adv-x="255" 
d="M211 85q0 -44 -40 -69q56 -24 56 -85q0 -42 -29 -69.5t-75 -27.5t-75.5 27.5t-29.5 69.5q0 61 57 85q-40 22 -40 69q0 36 25 59.5t63 23.5t63 -23.5t25 -59.5zM48 -68q0 -32 21 -51t54 -19t54.5 19t21.5 51q0 31 -21.5 50.5t-54.5 19.5t-54 -19.5t-21 -50.5zM64 85
q0 -24 16.5 -40t42.5 -16t42.5 15.5t16.5 40.5t-16.5 39.5t-42.5 14.5t-42.5 -15t-16.5 -39z" />
    <glyph glyph-name="_305" horiz-adv-x="238" 
d="M126 -25q-41 -1 -68.5 26.5t-27.5 69.5t28.5 69t71.5 27q44 0 72 -27t28 -69q0 -28 -16 -55l-111 -177h-34l90 141q-18 -5 -33 -5zM131 2q30 0 50 19.5t20 49.5t-19.5 49t-50.5 19t-51 -19t-20 -49q0 -31 20 -50t51 -19z" />
    <glyph glyph-name="zero001" 
d="M251 687q-70 0 -111.5 -44.5t-41.5 -119.5v-335q0 -75 41.5 -120t111.5 -45t111.5 45t41.5 120v335q0 75 -41.5 119.5t-111.5 44.5zM251 721q85 0 137 -55t52 -143v-335q0 -89 -52 -144t-137 -55q-84 0 -136 55t-52 144v335q0 88 52 143t136 55z" />
    <glyph glyph-name="_307" 
d="M436 34v-34h-340v34h158v642h-170v34h205v-676h147z" />
    <glyph glyph-name="two002" 
d="M433 34v-34h-351v30l270 394q34 52 34 111q0 67 -40 109.5t-102 42.5q-63 0 -103.5 -42.5t-40.5 -109.5v-25h-35v25q0 80 50.5 133t128.5 53q77 0 127.5 -53t50.5 -133q0 -70 -40 -129l-255 -372h306z" />
    <glyph glyph-name="three003" 
d="M422 676l-205 -271h29q84 0 135 -52t51 -137v-38q0 -85 -51 -137t-134 -52q-82 0 -133 52t-51 137v14h35v-14q0 -71 40.5 -113t108.5 -42q69 0 109.5 42t40.5 113v38q0 72 -41.5 114t-110.5 42h-75v26l206 273h-294v34h340v-29z" />
    <glyph glyph-name="four004" 
d="M457 212v-34h-101v-178h-35v178h-282v27l241 505h39l-238 -498h240v196h35v-196h101z" />
    <glyph glyph-name="five005" 
d="M261 456q79 0 128 -52t49 -137v-89q0 -85 -50.5 -137t-132.5 -52q-84 0 -133 46.5t-49 125.5v3h35v-3q0 -64 38.5 -101t108.5 -37q68 0 108 42t40 113v89q0 71 -39.5 113t-105.5 42t-105.5 -35t-39.5 -93v-10h-33v426h337v-34h-302v-287q48 67 146 67z" />
    <glyph glyph-name="six006" 
d="M254 398q85 0 141.5 -58t56.5 -145q0 -89 -57 -147.5t-144 -58.5q-88 0 -145.5 58.5t-57.5 147.5q0 62 31 113l246 402h42l-203 -331q39 19 90 19zM250 365q-73 0 -120 -47.5t-47 -122.5t47 -123.5t120 -48.5t120 48.5t47 123.5t-47 122.5t-120 47.5z" />
    <glyph glyph-name="seven007" 
d="M439 703v-30l-235 -673h-38l235 669h-291v-121h-35v155h364z" />
    <glyph glyph-name="_314" 
d="M441 533q0 -59 -30.5 -104t-82.5 -65q56 -21 89 -68t33 -109q0 -86 -56.5 -142t-143.5 -56t-144 56.5t-57 141.5q0 60 32.5 107.5t88.5 68.5q-52 21 -82 65.5t-30 104.5q0 81 54 134.5t138 53.5q83 0 137 -53.5t54 -134.5zM250 346q-72 0 -118.5 -45t-46.5 -114
q0 -72 46.5 -118t118.5 -46t118.5 46t46.5 118q0 69 -46.5 114t-118.5 45zM250 380q69 0 112.5 42.5t43.5 110.5q0 66 -44 110t-112 44t-112 -44t-44 -110q0 -68 43.5 -110.5t112.5 -42.5z" />
    <glyph glyph-name="six008" 
d="M248 312q-85 0 -141.5 58t-56.5 145q0 89 57 147.5t144 58.5q88 0 145.5 -58.5t57.5 -147.5q0 -62 -31 -113l-246 -402h-42l203 331q-39 -19 -90 -19zM252 345q73 0 120 47.5t47 122.5t-47 123.5t-120 48.5t-120 -48.5t-47 -123.5t47 -122.5t120 -47.5z" />
    <glyph glyph-name="_316" horiz-adv-x="523" 
d="M261 721q85 0 137 -55t52 -143v-335q0 -89 -52 -144t-137 -55q-84 0 -136 55t-52 144v335q0 88 52 143t136 55zM261 23q70 0 111.5 45t41.5 120v261l-306 -208v-53q0 -75 41.5 -120t111.5 -45zM261 687q-70 0 -111.5 -44.5t-41.5 -119.5v-244l306 208v36
q0 75 -41.5 119.5t-111.5 44.5z" />
    <glyph glyph-name="_317" 
d="M263 721q85 0 137 -55t52 -143v-335q0 -89 -52 -144t-137 -55q-84 0 -136 55t-52 144v335q0 88 52 143t136 55zM263 23q70 0 111.5 45t41.5 120v261l-306 -208v-53q0 -75 41.5 -120t111.5 -45zM263 687q-70 0 -111.5 -44.5t-41.5 -119.5v-244l306 208v36
q0 75 -41.5 119.5t-111.5 44.5z" />
    <glyph glyph-name="_324" horiz-adv-x="250" 
d="M124 300q-29 0 -46 -17.5t-17 -46.5v-149q0 -29 17 -46.5t46 -17.5t46.5 17.5t17.5 46.5v149q0 29 -17.5 46.5t-46.5 17.5zM124 328q42 0 67.5 -25.5t25.5 -66.5v-149q0 -41 -25.5 -67t-67.5 -26q-41 0 -66.5 26t-25.5 67v149q0 41 25.5 66.5t66.5 25.5z" />
    <glyph glyph-name="_325" horiz-adv-x="180" 
d="M165 28v-28h-139v28h56v267h-61v28h91v-295h53z" />
    <glyph glyph-name="_326" horiz-adv-x="228" 
d="M203 28v-28h-172v25l124 171q14 17 14 44t-16 43.5t-42 16.5t-42.5 -16.5t-16.5 -43.5v-11h-29v11q0 38 25 63t63 25t63 -25t25 -63q0 -31 -19 -59l-112 -153h135z" />
    <glyph glyph-name="_327" horiz-adv-x="230" 
d="M198 297l-88 -108h8q39 0 63 -24.5t24 -63.5v-18q0 -39 -25 -64t-66 -25t-66 25t-25 64v7h29v-7q0 -28 17 -44t45 -16q27 0 44 16.5t17 43.5v18q0 27 -16.5 43.5t-45.5 16.5h-41v22l89 110h-130v29h167v-25z" />
    <glyph glyph-name="_328" horiz-adv-x="240" 
d="M223 106v-29h-46v-77h-29v77h-131v24l111 221h34l-110 -216h96v77h29v-77h46z" />
    <glyph glyph-name="_329" horiz-adv-x="240" 
d="M126 212q38 0 62 -25t24 -64v-40q0 -39 -25 -64t-66 -25t-66 23.5t-25 60.5v1h29v-1q0 -25 16.5 -40t45.5 -15q28 0 45 16.5t17 43.5v39q0 28 -16.5 44.5t-43.5 16.5q-28 0 -45 -14t-17 -38v-4h-28v196h169v-28h-139v-107q23 24 63 24z" />
    <glyph glyph-name="_330" horiz-adv-x="238" 
d="M122 187q41 1 68.5 -26.5t27.5 -69.5t-28.5 -69t-71.5 -27q-44 0 -72 27t-28 69q0 28 16 55l111 177h34l-90 -141q18 5 33 5zM117 160q-30 0 -50 -19.5t-20 -49.5t19.5 -49t50.5 -19t51 19t20 49q0 31 -20 50t-51 19z" />
    <glyph glyph-name="_331" horiz-adv-x="215" 
d="M200 321v-25l-110 -296h-31l107 292h-117v-49h-29v78h180z" />
    <glyph glyph-name="_332" horiz-adv-x="255" 
d="M215 245q0 -44 -40 -69q56 -24 56 -85q0 -42 -29 -69.5t-75 -27.5t-75.5 27.5t-29.5 69.5q0 61 57 85q-40 22 -40 69q0 36 25 59.5t63 23.5t63 -23.5t25 -59.5zM52 92q0 -32 21 -51t54 -19t54.5 19t21.5 51q0 31 -21.5 50.5t-54.5 19.5t-54 -19.5t-21 -50.5zM68 245
q0 -24 16.5 -40t42.5 -16t42.5 15.5t16.5 40.5t-16.5 39.5t-42.5 14.5t-42.5 -15t-16.5 -39z" />
    <glyph glyph-name="_333" horiz-adv-x="238" 
d="M115 136q-41 -1 -68.5 26.5t-27.5 69.5t28.5 69t71.5 27q44 0 72 -27t28 -69q0 -28 -16 -55l-111 -177h-34l89 141q-18 -5 -32 -5zM120 163q30 0 50 19.5t20 49.5t-19.5 49t-50.5 19t-51 -19t-20 -49q0 -31 20 -50t51 -19z" />
    <glyph glyph-name="_334" horiz-adv-x="250" 
d="M124 687q-29 0 -46 -17.5t-17 -46.5v-149q0 -29 17 -46.5t46 -17.5t46.5 17.5t17.5 46.5v149q0 29 -17.5 46.5t-46.5 17.5zM124 715q42 0 67.5 -25.5t25.5 -66.5v-149q0 -41 -25.5 -67t-67.5 -26q-41 0 -66.5 26t-25.5 67v149q0 41 25.5 66.5t66.5 25.5z" />
    <glyph glyph-name="_335" horiz-adv-x="180" 
d="M165 415v-28h-139v28h56v267h-61v28h91v-295h53z" />
    <glyph glyph-name="_336" horiz-adv-x="228" 
d="M203 415v-28h-172v25l124 171q14 17 14 44t-16 43.5t-42 16.5t-42.5 -16.5t-16.5 -43.5v-11h-29v11q0 38 25 63t63 25t63 -25t25 -63q0 -31 -19 -59l-112 -153h135z" />
    <glyph glyph-name="_337" horiz-adv-x="230" 
d="M198 684l-88 -108h8q39 0 63 -24.5t24 -63.5v-18q0 -39 -25 -64t-66 -25t-66 25t-25 64v7h29v-7q0 -28 17 -44t45 -16q27 0 44 16.5t17 43.5v18q0 27 -16.5 43.5t-45.5 16.5h-41v22l89 110h-130v29h167v-25z" />
    <glyph glyph-name="_338" horiz-adv-x="240" 
d="M223 493v-29h-46v-77h-29v77h-131v24l111 221h34l-110 -216h96v77h29v-77h46z" />
    <glyph glyph-name="_339" horiz-adv-x="240" 
d="M126 599q38 0 62 -25t24 -64v-40q0 -39 -25 -64t-66 -25t-66 23.5t-25 60.5v1h29v-1q0 -25 16.5 -40t45.5 -15q28 0 45 16.5t17 43.5v39q0 28 -16.5 44.5t-43.5 16.5q-28 0 -45 -14t-17 -38v-4h-28v196h169v-28h-139v-107q23 24 63 24z" />
    <glyph glyph-name="_340" horiz-adv-x="238" 
d="M122 574q41 1 68.5 -26.5t27.5 -69.5t-28.5 -69t-71.5 -27q-44 0 -72 27t-28 69q0 28 16 55l111 177h34l-90 -141q18 5 33 5zM117 547q-30 0 -50 -19.5t-20 -49.5t19.5 -49t50.5 -19t51 19t20 49q0 31 -20 50t-51 19z" />
    <glyph glyph-name="_341" horiz-adv-x="215" 
d="M200 708v-25l-110 -296h-31l107 292h-117v-49h-29v78h180z" />
    <glyph glyph-name="_342" horiz-adv-x="255" 
d="M215 632q0 -44 -40 -69q56 -24 56 -85q0 -42 -29 -69.5t-75 -27.5t-75.5 27.5t-29.5 69.5q0 61 57 85q-40 22 -40 69q0 36 25 59.5t63 23.5t63 -23.5t25 -59.5zM52 479q0 -32 21 -51t54 -19t54.5 19t21.5 51q0 31 -21.5 50.5t-54.5 19.5t-54 -19.5t-21 -50.5zM68 632
q0 -24 16.5 -40t42.5 -16t42.5 15.5t16.5 40.5t-16.5 39.5t-42.5 14.5t-42.5 -15t-16.5 -39z" />
    <glyph glyph-name="_343" horiz-adv-x="238" 
d="M115 523q-41 -1 -68.5 26.5t-27.5 69.5t28.5 69t71.5 27q44 0 72 -27t28 -69q0 -28 -16 -55l-111 -177h-34l90 141q-18 -5 -33 -5zM120 550q30 0 50 19.5t20 49.5t-19.5 49t-50.5 19t-51 -19t-20 -49q0 -31 20 -50t51 -19z" />
    <glyph glyph-name="_344" horiz-adv-x="250" 
d="M124 687q-29 0 -46 -17.5t-17 -46.5v-149q0 -29 17 -46.5t46 -17.5t46.5 17.5t17.5 46.5v149q0 29 -17.5 46.5t-46.5 17.5zM124 715q42 0 67.5 -25.5t25.5 -66.5v-149q0 -41 -25.5 -67t-67.5 -26q-41 0 -66.5 26t-25.5 67v149q0 41 25.5 66.5t66.5 25.5z" />
    <glyph glyph-name="_345" horiz-adv-x="180" 
d="M165 415v-28h-139v28h56v267h-61v28h91v-295h53z" />
    <glyph glyph-name="_346" horiz-adv-x="228" 
d="M203 415v-28h-172v25l124 171q14 17 14 44t-16 43.5t-42 16.5t-42.5 -16.5t-16.5 -43.5v-11h-29v11q0 38 25 63t63 25t63 -25t25 -63q0 -31 -19 -59l-112 -153h135z" />
    <glyph glyph-name="_347" horiz-adv-x="230" 
d="M198 684l-88 -108h8q39 0 63 -24.5t24 -63.5v-18q0 -39 -25 -64t-66 -25t-66 25t-25 64v7h29v-7q0 -28 17 -44t45 -16q27 0 44 16.5t17 43.5v18q0 27 -16.5 43.5t-45.5 16.5h-41v22l89 110h-130v29h167v-25z" />
    <glyph glyph-name="_348" horiz-adv-x="240" 
d="M223 493v-29h-46v-77h-29v77h-131v24l111 221h34l-110 -216h96v77h29v-77h46z" />
    <glyph glyph-name="_349" horiz-adv-x="240" 
d="M126 599q38 0 62 -25t24 -64v-40q0 -39 -25 -64t-66 -25t-66 23.5t-25 60.5v1h29v-1q0 -25 16.5 -40t45.5 -15q28 0 45 16.5t17 43.5v39q0 28 -16.5 44.5t-43.5 16.5q-28 0 -45 -14t-17 -38v-4h-28v196h169v-28h-139v-107q23 24 63 24z" />
    <glyph glyph-name="_350" horiz-adv-x="238" 
d="M122 574q41 1 68.5 -26.5t27.5 -69.5t-28.5 -69t-71.5 -27q-44 0 -72 27t-28 69q0 28 16 55l111 177h34l-90 -141q18 5 33 5zM117 547q-30 0 -50 -19.5t-20 -49.5t19.5 -49t50.5 -19t51 19t20 49q0 31 -20 50t-51 19z" />
    <glyph glyph-name="_351" horiz-adv-x="215" 
d="M200 708v-25l-110 -296h-31l107 292h-117v-49h-29v78h180z" />
    <glyph glyph-name="_352" horiz-adv-x="255" 
d="M215 632q0 -44 -40 -69q56 -24 56 -85q0 -42 -29 -69.5t-75 -27.5t-75.5 27.5t-29.5 69.5q0 61 57 85q-40 22 -40 69q0 36 25 59.5t63 23.5t63 -23.5t25 -59.5zM52 479q0 -32 21 -51t54 -19t54.5 19t21.5 51q0 31 -21.5 50.5t-54.5 19.5t-54 -19.5t-21 -50.5zM68 632
q0 -24 16.5 -40t42.5 -16t42.5 15.5t16.5 40.5t-16.5 39.5t-42.5 14.5t-42.5 -15t-16.5 -39z" />
    <glyph glyph-name="_353" horiz-adv-x="238" 
d="M115 523q-41 -1 -68.5 26.5t-27.5 69.5t28.5 69t71.5 27q44 0 72 -27t28 -69q0 -28 -16 -55l-111 -177h-34l90 141q-18 -5 -33 -5zM120 550q30 0 50 19.5t20 49.5t-19.5 49t-50.5 19t-51 -19t-20 -49q0 -31 20 -50t51 -19z" />
    <glyph glyph-name="period009" horiz-adv-x="196" 
d="M115 385v-60h-59v60h59z" />
    <glyph glyph-name="bullet010" horiz-adv-x="293" 
d="M202 412v-112h-111v112h111z" />
    <glyph glyph-name="exclam011" horiz-adv-x="202" 
d="M122 0h-41l7 504h27zM132 710v-60h-59v60h59z" />
    <glyph glyph-name="question012" horiz-adv-x="403" 
d="M235 358h-25q-62 0 -96 -35.5t-34 -95.5v-66q0 -65 33.5 -102t94.5 -37t94.5 35t33.5 91v20h34v-22q0 -70 -43.5 -113.5t-118.5 -43.5t-118.5 46t-43.5 124v70q0 70 41.5 115t113.5 47v113h34v-146zM189 650v60h59v-60h-59z" />
    <glyph glyph-name="_376" horiz-adv-x="600" 
d="M313 590h-25l-2 132h28z" />
    <glyph glyph-name="braceleft013" horiz-adv-x="269" 
d="M235 -75h-28q-44 0 -69 27t-25 70v241q0 36 -19 56t-52 20h-13v32h13q33 0 52 20t19 56v241q0 43 25 70t69 27h28v-32h-23q-31 0 -48 -17.5t-17 -50.5v-242q0 -64 -52 -88q52 -24 52 -88v-241q0 -33 17 -50.5t48 -17.5h23v-33z" />
    <glyph glyph-name="braceleft014" horiz-adv-x="269" 
d="M34 785h28q44 0 69 -27t25 -70v-241q0 -36 19 -56t52 -20h13v-32h-13q-33 0 -52 -20t-19 -56v-241q0 -43 -25 -70t-69 -27h-28v32h23q31 0 48 17.5t17 50.5v242q0 64 52 88q-52 24 -52 88v241q0 33 -17 50.5t-48 17.5h-23v33z" />
    <glyph glyph-name="bracketleft015" horiz-adv-x="276" 
d="M127 -43h119v-32h-153v860h153v-32h-119v-796z" />
    <glyph glyph-name="bracketleft016" horiz-adv-x="276" 
d="M149 753h-119v32h153v-860h-153v32h119v796z" />
    <glyph glyph-name="parenleft017" horiz-adv-x="270" 
d="M121 665v-620q0 -42 22 -64.5t61 -22.5h36v-33h-41q-51 0 -81.5 32t-30.5 84v628q0 52 30.5 84t81.5 32h41v-32h-36q-39 0 -61 -23t-22 -65z" />
    <glyph glyph-name="parenleft018" horiz-adv-x="270" 
d="M149 45v620q0 42 -22 65t-61 23h-36v32h41q51 0 81.5 -32t30.5 -84v-628q0 -52 -30.5 -84t-81.5 -32h-41v33h36q39 0 61 22.5t22 64.5z" />
    <glyph glyph-name="emdash019" horiz-adv-x="569" 
d="M59 371h450v-32h-450v32z" />
    <glyph glyph-name="endash020" horiz-adv-x="467" 
d="M59 371h347v-32h-347v32z" />
    <glyph glyph-name="hyphen021" horiz-adv-x="327" 
d="M60 372h207v-34h-207v34z" />
    <glyph glyph-name="hyphen022" horiz-adv-x="327" 
d="M60 372h207v-34h-207v34z" />
    <glyph glyph-name="hyphen023" horiz-adv-x="327" 
d="M60 372h207v-34h-207v34z" />
    <glyph glyph-name="hyphen024" horiz-adv-x="327" 
d="M60 372h207v-34h-207v34z" />
    <glyph glyph-name="guilsinglright_guilsinglright" horiz-adv-x="453" 
d="M352 535l23 -20l-141 -160l141 -160l-23 -20l-159 180zM175 535l23 -20l-141 -160l141 -160l-23 -20l-159 180z" />
    <glyph glyph-name="guilsinglright_guilsinglright025" horiz-adv-x="453" 
d="M102 175l-23 20l141 160l-141 160l23 20l159 -180zM278 175l-23 20l141 160l-141 160l23 20l159 -180z" />
    <glyph glyph-name="guilsinglright026" horiz-adv-x="277" 
d="M175 535l23 -20l-141 -160l141 -160l-23 -20l-159 180z" />
    <glyph glyph-name="guilsinglright027" horiz-adv-x="277" 
d="M80 175l-23 20l141 160l-141 160l23 20l159 -180z" />
    <glyph glyph-name="_427" horiz-adv-x="0" 
 />
    <glyph glyph-name="minus028" 
d="M97 370h305v-30h-305v30z" />
    <glyph glyph-name="_502" horiz-adv-x="600" 
d="M240 -151h-37l44 160l34 -4z" />
    <glyph glyph-name="_503" horiz-adv-x="342" 
d="M145 710l-14 -181h-30l11 181h33z" />
    </font>
</defs>
</svg>
