<svg xmlns="http://www.w3.org/2000/svg" width="158" height="37" viewBox="0 0 158 37">
    <g fill="#FFF" fill-rule="evenodd">
        <path d="M55.06 6.321l.658-2.699h-9.857l-2.19 10.17h9.902l.565-2.276 4.063-.066-.243 1.638c-.71 3.304-2.038 4.388-5.365 4.388h-9.202c-.446 0-.852-.021-1.216-.065L45.222 26H39.16l-1.85-5.833h-15.51L17.434 26h-5.873l6.232-8.037 2.238-11.19-7.704 8.383h-1.481l-4.616-8.58-2.39 11.095H0L3.763.197H7.04l5.458 9.914L21.71.197h3.746l-2.167 10.685L31.068.85h5.229l3.676 10.358 1.472-6.844C42.151 1.09 43.516 0 46.841 0h9.202c3.456 0 4.462 1.254 3.734 4.65l-.313 1.599-4.404.072zM32.657 5.86l-7.42 9.828h10.608L32.657 5.86zM155.719 10.51h-11.432l-4.478 20.634c-1.591 5.531-6.633 5.833-7.668 5.835l-7.445.021 5.751-26.49H119L121.321 0H158l-2.281 10.51zM101.63 10.53h-5.821l-19.425-.022-.625 3.004h21.142l-2.018 9.686H73.741L70.863 37H57l6.402-30.728C64.83.317 70.122.002 71.184 0H104l-2.37 10.53zM115.789 11H104l2.252-11L118 .005zM103.083 13l11.917.005L110.126 37H98z"/>
    </g>
</svg>
